<?xml version="1.0" encoding="utf-8"?>
<!-- Generator: Adobe Illustrator 26.5.2, SVG Export Plug-In . SVG Version: 6.00 Build 0)  -->
<svg version="1.1" id="レイヤー_1" xmlns="http://www.w3.org/2000/svg" xmlns:xlink="http://www.w3.org/1999/xlink" x="0px"
	 y="0px" viewBox="0 0 192.1 42.8" style="enable-background:new 0 0 192.1 42.8;" xml:space="preserve">
<style type="text/css">
	.st0{fill:#484848;}
	.st1{fill:#00ABD3;}
	.st2{fill:#FFFFFF;}
</style>
<g>
	<g>
		<g>
			<g>
				<path class="st0" d="M11.6,30.9H5.8V17.1H0v-5.6h17.4l-5.8,5.8C11.6,17.3,11.6,30.9,11.6,30.9z"/>
			</g>
			<path class="st0" d="M81.2,5.5c-2.2-2-4.6-3.4-7.2-4.2C71.5,0.4,68.1,0,64,0h-9.4v42.5h9.3c4.2,0,7.5-0.4,9.8-1.2
				c2.5-0.8,4.9-2.2,7.2-4.2c4.6-4,6.9-9.4,6.9-15.8C87.8,14.8,85.6,9.5,81.2,5.5z M80,21.3c0,4.2-1.4,7.6-4.3,10.2
				c-1.4,1.3-3,2.2-4.7,2.8s-4,0.8-6.7,0.8h-1.9V7.4h1.9c5,0,8.9,1.2,11.4,3.5C78.6,13.6,80,17,80,21.3z"/>
			<path class="st0" d="M41.6,29.5c-0.2,0.2-0.5,0.4-0.9,0.6c-0.9,0.4-2,0.6-3.3,0.6c-2.5,0-4.7-0.9-6.5-2.7c-1.8-1.8-2.6-4-2.6-6.6
				c0-2.7,0.9-4.9,2.7-6.8c1.7-1.8,3.9-2.7,6.4-2.7c1.4,0,2.2,0.2,3.7,0.8c0.2,0.1,0.4,0.2,0.6,0.3l5-5l-0.9-0.5
				c-2.6-1.5-5.3-2.2-8.1-2.2c-5.1,0-9.2,1.9-12.4,5.7c-2.6,3.1-3.9,6.6-3.9,10.5c0,4.4,1.6,8.2,4.7,11.3s6.9,4.6,11.3,4.6
				c2.9,0,5.7-0.8,8.4-2.3l0.9-0.5L41.6,29.5z"/>
		</g>
	</g>
	<g>
		<rect x="106.9" y="0.3" class="st1" width="85.2" height="42.5"/>
		<g>
			<g>
				<path class="st2" d="M117.1,6.4v7.2h-1.3V6.4h-2V5.3h5.2v1.2L117.1,6.4L117.1,6.4z"/>
				<path class="st2" d="M121.1,9.4c0-1.2,0.4-2.2,1.3-3s1.9-1.3,3.2-1.3c1.2,0,2.3,0.4,3.1,1.3c0.9,0.9,1.3,1.9,1.3,3.1
					s-0.4,2.2-1.3,3.1c-0.9,0.8-1.9,1.3-3.2,1.3c-1.1,0-2.1-0.4-3-1.1C121.6,11.8,121.1,10.7,121.1,9.4z M122.4,9.4
					c0,0.9,0.3,1.7,1,2.3c0.6,0.6,1.4,0.9,2.2,0.9c0.9,0,1.7-0.3,2.3-0.9c0.6-0.6,0.9-1.4,0.9-2.2c0-0.9-0.3-1.6-0.9-2.2
					s-1.4-0.9-2.2-0.9c-0.9,0-1.6,0.3-2.3,0.9C122.7,7.8,122.4,8.5,122.4,9.4z"/>
				<path class="st2" d="M135.4,6.4v7.2h-1.3V6.4h-2V5.3h5.2v1.2L135.4,6.4L135.4,6.4z"/>
				<path class="st2" d="M144.9,11.6h-3.7l-1,2h-1.4l4.2-8.9l4.1,8.9h-1.4L144.9,11.6z M144.3,10.4L143,7.6l-1.3,2.8H144.3z"/>
				<path class="st2" d="M151.6,5.3v7.2h2.5v1.2h-3.8V5.3H151.6z"/>
			</g>
			<g>
				<path class="st2" d="M113.8,37.9v-8.3h1.8c0.9,0,1.5,0.1,2,0.2c0.5,0.2,1,0.4,1.5,0.8c0.9,0.8,1.3,1.8,1.3,3.1s-0.5,2.3-1.4,3.1
					c-0.5,0.4-0.9,0.7-1.4,0.8c-0.5,0.2-1.1,0.2-2,0.2h-1.8V37.9z M115.1,36.7h0.6c0.6,0,1.1-0.1,1.4-0.2c0.4-0.1,0.7-0.3,1-0.6
					c0.6-0.6,1-1.3,1-2.2s-0.3-1.7-0.9-2.2s-1.4-0.8-2.5-0.8h-0.6V36.7z"/>
				<path class="st2" d="M124.7,34.3l-2.8-4.7h1.5l2,3.3l2-3.3h1.5l-2.8,4.7v3.6h-1.3L124.7,34.3L124.7,34.3z"/>
				<path class="st2" d="M131.2,37.9V29l6.2,6.4v-5.8h1.3v8.9l-6.2-6.4v5.8C132.5,37.9,131.2,37.9,131.2,37.9z"/>
				<path class="st2" d="M147,35.9h-3.7l-1,2H141l4.2-8.9l4.1,8.9h-1.4L147,35.9z M146.5,34.7l-1.3-2.8l-1.3,2.8H146.5z"/>
				<path class="st2" d="M151.3,37.9l1.8-9l2.9,6.5l3-6.5l1.6,9h-1.3l-0.8-5l-2.5,5.4l-2.5-5.4l-0.9,5H151.3z"/>
				<path class="st2" d="M165.3,29.6v8.3H164v-8.3C164,29.6,165.3,29.6,165.3,29.6z"/>
				<path class="st2" d="M173.9,30.8l-1,0.6c-0.2-0.3-0.4-0.5-0.6-0.6c-0.2-0.1-0.4-0.2-0.7-0.2c-0.4,0-0.7,0.1-0.9,0.3
					c-0.2,0.2-0.4,0.4-0.4,0.7c0,0.4,0.3,0.7,0.9,1l0.9,0.3c0.7,0.3,1.2,0.6,1.5,1s0.5,0.9,0.5,1.5c0,0.8-0.3,1.4-0.8,1.9
					s-1.2,0.8-2,0.8c-0.7,0-1.4-0.2-1.8-0.6c-0.5-0.4-0.8-1-0.9-1.8l1.3-0.3c0.1,0.5,0.2,0.8,0.3,1c0.3,0.4,0.7,0.5,1.2,0.5
					c0.4,0,0.7-0.1,1-0.4c0.3-0.3,0.4-0.6,0.4-1c0-0.2,0-0.3-0.1-0.4c0-0.1-0.1-0.3-0.2-0.4c-0.1-0.1-0.2-0.2-0.4-0.3
					s-0.3-0.2-0.6-0.3l-0.8-0.3c-1.2-0.5-1.8-1.2-1.8-2.1c0-0.6,0.2-1.2,0.7-1.6s1.1-0.6,1.8-0.6C172.5,29.4,173.3,29.9,173.9,30.8z
					"/>
				<path class="st2" d="M176.8,37.9l1.8-9l2.9,6.5l3-6.5l1.6,9h-1.3l-0.8-5l-2.5,5.4l-2.5-5.4l-0.9,5H176.8z"/>
			</g>
			<g>
				<path class="st2" d="M119.4,17.7v1.5c-0.7-0.6-1.5-0.9-2.3-0.9c-0.9,0-1.6,0.3-2.2,0.9s-0.9,1.4-0.9,2.2c0,0.9,0.3,1.6,0.9,2.2
					s1.3,0.9,2.2,0.9c0.5,0,0.8-0.1,1.2-0.2c0.2-0.1,0.4-0.2,0.6-0.3c0.2-0.1,0.4-0.3,0.6-0.4v1.5c-0.7,0.4-1.5,0.6-2.3,0.6
					c-1.2,0-2.3-0.4-3.1-1.2c-0.9-0.8-1.3-1.9-1.3-3s0.4-2,1.1-2.8c0.9-1,2-1.5,3.4-1.5C118,17.1,118.7,17.3,119.4,17.7z"/>
				<path class="st2" d="M123.7,17.3v5c0,0.7,0.1,1.2,0.4,1.6c0.4,0.5,0.9,0.7,1.5,0.7c0.7,0,1.2-0.2,1.5-0.7
					c0.2-0.3,0.4-0.8,0.4-1.6v-5h1.3v5.4c0,0.9-0.3,1.6-0.8,2.2c-0.6,0.6-1.4,1-2.3,1s-1.7-0.3-2.3-1c-0.6-0.6-0.8-1.3-0.8-2.2v-5.4
					H123.7z"/>
				<path class="st2" d="M133.4,17.3v7.2h2.5v1.2h-3.8v-8.3h1.3V17.3z"/>
				<path class="st2" d="M140.8,18.4v7.2h-1.3v-7.2h-2v-1.2h5.2v1.2C142.7,18.4,140.8,18.4,140.8,18.4z"/>
				<path class="st2" d="M146.7,17.3v5c0,0.7,0.1,1.2,0.4,1.6c0.4,0.5,0.9,0.7,1.5,0.7c0.7,0,1.2-0.2,1.5-0.7
					c0.2-0.3,0.4-0.8,0.4-1.6v-5h1.3v5.4c0,0.9-0.3,1.6-0.8,2.2c-0.6,0.6-1.4,1-2.3,1s-1.7-0.3-2.3-1c-0.6-0.6-0.8-1.3-0.8-2.2v-5.4
					H146.7z"/>
				<path class="st2" d="M157.7,22.1l2.6,3.6h-1.6l-2.4-3.4h-0.2v3.4h-1.3v-8.3h1.5c1.1,0,1.9,0.2,2.4,0.6c0.6,0.5,0.8,1.1,0.8,1.8
					c0,0.6-0.2,1.1-0.5,1.5C158.8,21.7,158.3,21.9,157.7,22.1z M156.1,21.1h0.4c1.2,0,1.8-0.5,1.8-1.4s-0.6-1.3-1.8-1.3H156v2.7
					H156.1z"/>
				<path class="st2" d="M168,23.6h-3.7l-1,2H162l4.2-8.9l4.1,8.9h-1.4L168,23.6z M167.5,22.4l-1.3-2.8l-1.3,2.8H167.5z"/>
				<path class="st2" d="M174.1,17.3v7.2h2.5v1.2h-3.8v-8.3h1.3V17.3z"/>
			</g>
		</g>
	</g>
</g>
</svg>
