<?xml version="1.0" encoding="utf-8"?>
<!-- Generator: Adobe Illustrator 26.5.2, SVG Export Plug-In . SVG Version: 6.00 Build 0)  -->
<svg version="1.1" id="レイヤー_1" xmlns="http://www.w3.org/2000/svg" xmlns:xlink="http://www.w3.org/1999/xlink" x="0px"
	 y="0px" viewBox="0 0 192.1 42.8" style="enable-background:new 0 0 192.1 42.8;" xml:space="preserve">
<style type="text/css">
	.st0{fill:#DCDDDD;}
</style>
<g>
	<g>
		<g>
			<g>
				<path class="st0" d="M11.6,30.9H5.8V17.1H0v-5.6h17.4l-5.8,5.8C11.6,17.3,11.6,30.9,11.6,30.9z"/>
			</g>
			<path class="st0" d="M81.2,5.5c-2.2-2-4.6-3.4-7.2-4.2C71.5,0.4,68.1,0,64,0h-9.4v42.5h9.3c4.2,0,7.5-0.4,9.8-1.2
				c2.5-0.8,4.9-2.2,7.2-4.2c4.6-4,6.9-9.4,6.9-15.8C87.8,14.8,85.6,9.5,81.2,5.5z M80,21.3c0,4.2-1.4,7.6-4.3,10.2
				c-1.4,1.3-3,2.2-4.7,2.8s-4,0.8-6.7,0.8h-1.9V7.4h1.9c5,0,8.9,1.2,11.4,3.5C78.6,13.6,80,17,80,21.3z"/>
			<path class="st0" d="M41.6,29.5c-0.2,0.2-0.5,0.4-0.9,0.6c-0.9,0.4-2,0.6-3.3,0.6c-2.5,0-4.7-0.9-6.5-2.7c-1.8-1.8-2.6-4-2.6-6.6
				c0-2.7,0.9-4.9,2.7-6.8c1.7-1.8,3.9-2.7,6.4-2.7c1.4,0,2.2,0.2,3.7,0.8c0.2,0.1,0.4,0.2,0.6,0.3l5-5l-0.9-0.5
				c-2.6-1.5-5.3-2.2-8.1-2.2c-5.1,0-9.2,1.9-12.4,5.7c-2.6,3.1-3.9,6.6-3.9,10.5c0,4.4,1.6,8.2,4.7,11.3s6.9,4.6,11.3,4.6
				c2.9,0,5.7-0.8,8.4-2.3l0.9-0.5L41.6,29.5z"/>
		</g>
	</g>
	<path class="st0" d="M106.9,0.3h85.2v42.5h-85.2V0.3z M117.1,6.5h1.9V5.3h-5.2v1.1h2v7.2h1.3V6.5L117.1,6.5z M122.5,12.8
		c0.9,0.7,1.9,1.1,3,1.1c1.3,0,2.3-0.5,3.2-1.3c0.9-0.9,1.3-1.9,1.3-3.1s-0.4-2.2-1.3-3.1c-0.8-0.9-1.9-1.3-3.1-1.3
		c-1.3,0-2.3,0.5-3.2,1.3s-1.3,1.8-1.3,3C121.1,10.7,121.6,11.8,122.5,12.8z M122.4,9.4c0,0.9,0.3,1.7,1,2.3
		c0.6,0.6,1.4,0.9,2.2,0.9c0.9,0,1.7-0.3,2.3-0.9c0.6-0.6,0.9-1.4,0.9-2.2c0-0.9-0.3-1.6-0.9-2.2s-1.4-0.9-2.2-0.9
		c-0.9,0-1.6,0.3-2.3,0.9C122.7,7.8,122.4,8.5,122.4,9.4z M135.4,6.5h1.9V5.3h-5.2v1.1h2v7.2h1.3V6.5L135.4,6.5z M145.7,13.6h1.4
		L143,4.7l-4.2,8.9h1.4l1-2h3.7L145.7,13.6z M144.3,10.4L143,7.6l-1.3,2.8H144.3z M150.3,5.3v8.4h3.8v-1.2h-2.5V5.3H150.3z
		 M113.8,37.8h1.8c0.9,0,1.5,0,2-0.2c0.5-0.1,0.9-0.4,1.4-0.8c0.9-0.8,1.4-1.8,1.4-3.1s-0.4-2.3-1.3-3.1c-0.5-0.4-1-0.6-1.5-0.8
		c-0.5-0.1-1.1-0.2-2-0.2h-1.8v8.3V37.8z M115.1,36.7h0.6c0.6,0,1.1-0.1,1.4-0.2c0.4-0.1,0.7-0.3,1-0.6c0.6-0.6,1-1.3,1-2.2
		s-0.3-1.7-0.9-2.2s-1.4-0.8-2.5-0.8h-0.6V36.7z M124.8,34.3v3.6h1.3v-3.6l2.8-4.7h-1.5l-2,3.3l-2-3.3h-1.5L124.8,34.3L124.8,34.3z
		 M132.5,37.9v-5.8l6.2,6.4v-8.9h-1.3v5.8l-6.2-6.4v8.9C131.2,37.9,132.5,37.9,132.5,37.9z M147.9,37.9h1.4l-4.1-8.9l-4.2,8.9h1.3
		l1-2h3.7L147.9,37.9z M146.5,34.7l-1.3-2.8l-1.3,2.8H146.5z M152.6,37.9l0.9-5l2.5,5.4l2.5-5.4l0.8,5h1.3l-1.6-9l-3,6.5l-2.9-6.5
		l-1.8,9H152.6z M164,29.6v8.3h1.3v-8.3C165.3,29.6,164,29.6,164,29.6z M171.4,29.5c-0.7,0-1.3,0.2-1.8,0.6s-0.7,1-0.7,1.6
		c0,0.9,0.6,1.6,1.8,2.1l0.8,0.3c0.3,0.1,0.4,0.2,0.6,0.3s0.3,0.2,0.4,0.3c0.1,0.1,0.2,0.3,0.2,0.4c0.1,0.1,0.1,0.2,0.1,0.4
		c0,0.4-0.1,0.7-0.4,1c-0.3,0.3-0.6,0.4-1,0.4c-0.5,0-0.9-0.1-1.2-0.5c-0.1-0.2-0.2-0.5-0.3-1l-1.3,0.3c0.1,0.8,0.4,1.4,0.9,1.8
		c0.4,0.4,1.1,0.6,1.8,0.6c0.8,0,1.5-0.3,2-0.8s0.8-1.1,0.8-1.9c0-0.6-0.2-1.1-0.5-1.5s-0.8-0.7-1.5-1l-0.9-0.3
		c-0.6-0.3-0.9-0.6-0.9-1c0-0.3,0.2-0.5,0.4-0.7c0.2-0.2,0.5-0.3,0.9-0.3c0.3,0,0.5,0.1,0.7,0.2c0.2,0.1,0.4,0.3,0.6,0.6l1-0.6
		C173.3,29.9,172.5,29.4,171.4,29.5z M178.1,37.9l0.9-5l2.5,5.4l2.5-5.4l0.8,5h1.3l-1.6-9l-3,6.5l-2.9-6.5l-1.8,9H178.1z
		 M117.3,17.2c-1.4,0-2.5,0.5-3.4,1.5c-0.7,0.8-1.1,1.7-1.1,2.8s0.4,2.2,1.3,3c0.8,0.8,1.9,1.2,3.1,1.2c0.8,0,1.6-0.2,2.3-0.6v-1.5
		c-0.2,0.1-0.4,0.3-0.6,0.4c-0.2,0.1-0.4,0.2-0.6,0.3c-0.4,0.1-0.7,0.2-1.2,0.2c-0.9,0-1.6-0.3-2.2-0.9s-0.9-1.3-0.9-2.2
		c0-0.8,0.3-1.6,0.9-2.2s1.3-0.9,2.2-0.9c0.8,0,1.6,0.3,2.3,0.9v-1.5C118.7,17.3,118,17.1,117.3,17.2z M122.6,17.3v5.4
		c0,0.9,0.2,1.6,0.8,2.2c0.6,0.7,1.4,1,2.3,1s1.7-0.4,2.3-1c0.5-0.6,0.8-1.3,0.8-2.2v-5.4h-1.3v5c0,0.8-0.2,1.3-0.4,1.6
		c-0.3,0.5-0.8,0.7-1.5,0.7c-0.6,0-1.1-0.2-1.5-0.7c-0.3-0.4-0.4-0.9-0.4-1.6v-5H122.6z M133.4,17.4h-1.3v8.3h3.8v-1.2h-2.5v-7.2
		V17.4z M142.7,18.4v-1.2h-5.2v1.2h2v7.2h1.3v-7.2C140.8,18.4,142.7,18.4,142.7,18.4z M145.6,17.3v5.4c0,0.9,0.2,1.6,0.8,2.2
		c0.6,0.7,1.4,1,2.3,1s1.7-0.4,2.3-1c0.5-0.6,0.8-1.3,0.8-2.2v-5.4h-1.3v5c0,0.8-0.2,1.3-0.4,1.6c-0.3,0.5-0.8,0.7-1.5,0.7
		c-0.6,0-1.1-0.2-1.5-0.7c-0.3-0.4-0.4-0.9-0.4-1.6v-5H145.6z M159,21.3c0.3-0.4,0.5-0.9,0.5-1.5c0-0.7-0.2-1.3-0.8-1.8
		c-0.5-0.4-1.3-0.6-2.4-0.6h-1.5v8.3h1.3v-3.4h0.2l2.4,3.4h1.6l-2.6-3.6C158.3,21.9,158.8,21.7,159,21.3z M156.1,21.1h0.4
		c1.2,0,1.8-0.5,1.8-1.4s-0.6-1.3-1.8-1.3H156v2.7H156.1z M168.9,25.6h1.4l-4.1-8.9l-4.2,8.9h1.3l1-2h3.7L168.9,25.6z M167.5,22.4
		l-1.3-2.8l-1.3,2.8H167.5z M174.1,17.4h-1.3v8.3h3.8v-1.2h-2.5v-7.2V17.4z"/>
</g>
</svg>
