<svg xmlns="http://www.w3.org/2000/svg" xmlns:xlink="http://www.w3.org/1999/xlink" width="150" height="35.099" viewBox="0 0 150 35.099">
  <defs>
    <clipPath id="clip-path">
      <rect id="長方形_2462" data-name="長方形 2462" width="150" height="35.099" fill="none"/>
    </clipPath>
  </defs>
  <g id="tcd_logo_sp" transform="translate(0 0)">
    <g id="グループ_3031" data-name="グループ 3031" transform="translate(0 0)">
      <g id="グループ_3030" data-name="グループ 3030" clip-path="url(#clip-path)">
        <path id="パス_1450" data-name="パス 1450" d="M2.755,36.447v2.292H2.342V36.447H1.712v-.379h1.67v.379Z" transform="translate(0.069 1.46)" fill="#fff"/>
        <path id="パス_1451" data-name="パス 1451" d="M3.732,37.393a1.292,1.292,0,0,1,.425-.969,1.408,1.408,0,0,1,1.013-.4,1.383,1.383,0,0,1,1,.408,1.321,1.321,0,0,1,.42.981,1.3,1.3,0,0,1-.422.978,1.473,1.473,0,0,1-1.975.045,1.3,1.3,0,0,1-.465-1.038m.417.005a.951.951,0,0,0,.3.728,1.026,1.026,0,0,0,1.428-.005A1.005,1.005,0,0,0,5.165,36.4a.987.987,0,0,0-.721.29.952.952,0,0,0-.294.71" transform="translate(0.151 1.458)" fill="#fff"/>
        <path id="パス_1452" data-name="パス 1452" d="M8.011,36.447v2.292H7.6V36.447H6.968v-.379h1.67v.379Z" transform="translate(0.282 1.46)" fill="#fff"/>
        <path id="パス_1453" data-name="パス 1453" d="M10.81,38.1H9.637l-.3.649H8.887l1.355-2.839,1.307,2.839H11.1Zm-.169-.379-.406-.908-.426.908Z" transform="translate(0.36 1.454)" fill="#fff"/>
        <path id="パス_1454" data-name="パス 1454" d="M12.659,36.068V38.36h.805v.38H12.246V36.068Z" transform="translate(0.496 1.46)" fill="#fff"/>
        <path id="パス_1455" data-name="パス 1455" d="M17.562,36.214v.478a1.159,1.159,0,0,0-.741-.292.959.959,0,0,0-.712.3.987.987,0,0,0-.29.72.961.961,0,0,0,.29.71.975.975,0,0,0,.713.289.9.9,0,0,0,.371-.07,1.038,1.038,0,0,0,.176-.094,1.956,1.956,0,0,0,.192-.142v.486a1.524,1.524,0,0,1-.745.2,1.393,1.393,0,0,1-1-.4,1.312,1.312,0,0,1-.413-.973,1.353,1.353,0,0,1,.346-.91,1.391,1.391,0,0,1,1.1-.489,1.426,1.426,0,0,1,.713.2" transform="translate(0.624 1.458)" fill="#fff"/>
        <path id="パス_1456" data-name="パス 1456" d="M18.811,36.068v1.61a.863.863,0,0,0,.115.5.624.624,0,0,0,.97,0,.85.85,0,0,0,.115-.5v-1.61h.413v1.72a.956.956,0,0,1-.269.7,1.063,1.063,0,0,1-1.488,0,.952.952,0,0,1-.269-.7v-1.72Z" transform="translate(0.745 1.46)" fill="#fff"/>
        <path id="パス_1457" data-name="パス 1457" d="M21.669,36.068V38.36h.805v.38H21.256V36.068Z" transform="translate(0.86 1.46)" fill="#fff"/>
        <path id="パス_1458" data-name="パス 1458" d="M23.918,36.447v2.292h-.413V36.447h-.629v-.379h1.67v.379Z" transform="translate(0.926 1.46)" fill="#fff"/>
        <path id="パス_1459" data-name="パス 1459" d="M25.6,36.068v1.61a.863.863,0,0,0,.115.5.624.624,0,0,0,.97,0,.85.85,0,0,0,.115-.5v-1.61h.413v1.72a.956.956,0,0,1-.269.7,1.063,1.063,0,0,1-1.488,0,.952.952,0,0,1-.269-.7v-1.72Z" transform="translate(1.02 1.46)" fill="#fff"/>
        <path id="パス_1460" data-name="パス 1460" d="M28.9,37.6l.848,1.139h-.506l-.781-1.094h-.075V38.74h-.413V36.068h.484a1.238,1.238,0,0,1,.785.2.724.724,0,0,1,.265.585.742.742,0,0,1-.607.749m-.514-.306h.131q.587,0,.587-.438c0-.273-.19-.41-.571-.41h-.147Z" transform="translate(1.132 1.46)" fill="#fff"/>
        <path id="パス_1462" data-name="パス 1462" d="M33.63,36.068V38.36h.805v.38H33.217V36.068Z" transform="translate(1.345 1.46)" fill="#fff"/>
        <path id="パス_1463" data-name="パス 1463" d="M36.4,38.739V36.068h.574a2.137,2.137,0,0,1,.652.079,1.225,1.225,0,0,1,.466.265,1.357,1.357,0,0,1-.017,1.987,1.3,1.3,0,0,1-.465.265,2.161,2.161,0,0,1-.644.074Zm.413-.379H37a1.577,1.577,0,0,0,.463-.057.946.946,0,0,0,.333-.191.9.9,0,0,0,.3-.709.919.919,0,0,0-.3-.713,1.163,1.163,0,0,0-.8-.243h-.186Z" transform="translate(1.474 1.46)" fill="#fff"/>
        <path id="パス_1464" data-name="パス 1464" d="M39.571,37.585l-.894-1.517h.475l.626,1.068.627-1.068h.475l-.9,1.517v1.154h-.413Z" transform="translate(1.566 1.46)" fill="#fff"/>
        <path id="パス_1465" data-name="パス 1465" d="M41.308,38.746V35.893l2,2.038V36.074h.413v2.834l-2-2.033v1.871Z" transform="translate(1.672 1.453)" fill="#fff"/>
        <path id="パス_1466" data-name="パス 1466" d="M45.945,38.1H44.772l-.3.649h-.445l1.355-2.839,1.307,2.839h-.452Zm-.169-.379-.406-.908-.426.908Z" transform="translate(1.782 1.454)" fill="#fff"/>
        <path id="パス_1467" data-name="パス 1467" d="M46.957,38.747l.576-2.873.94,2.077.973-2.077.518,2.873h-.423l-.264-1.613-.811,1.736-.788-1.737-.293,1.614Z" transform="translate(1.901 1.452)" fill="#fff"/>
        <rect id="長方形_2461" data-name="長方形 2461" width="0.413" height="2.672" transform="translate(52.663 37.528)" fill="#fff"/>
        <path id="パス_1468" data-name="パス 1468" d="M53.476,36.467l-.335.194a.566.566,0,0,0-.179-.207.422.422,0,0,0-.229-.056.427.427,0,0,0-.285.1.291.291,0,0,0-.113.235c0,.13.1.235.3.315l.273.109a1.168,1.168,0,0,1,.488.32.71.71,0,0,1,.154.465.807.807,0,0,1-.252.609.876.876,0,0,1-.629.242.851.851,0,0,1-.588-.206.937.937,0,0,1-.286-.58l.418-.091a.676.676,0,0,0,.1.326.432.432,0,0,0,.372.173.438.438,0,0,0,.32-.126.432.432,0,0,0,.128-.32.44.44,0,0,0-.023-.143.355.355,0,0,0-.069-.12.554.554,0,0,0-.122-.1,1.265,1.265,0,0,0-.177-.091l-.264-.107q-.562-.233-.562-.678a.637.637,0,0,1,.235-.5.863.863,0,0,1,.587-.2.821.821,0,0,1,.74.449" transform="translate(2.097 1.458)" fill="#fff"/>
        <path id="パス_1469" data-name="パス 1469" d="M54.075,38.747l.576-2.873.94,2.077.973-2.077.518,2.873h-.423l-.264-1.613-.811,1.736L54.8,37.133,54.5,38.747Z" transform="translate(2.189 1.452)" fill="#fff"/>
        <g id="グループ_3040" data-name="グループ 3040" transform="translate(0 0)">
          <g id="グループ_3034" data-name="グループ 3034" transform="translate(0 0)">
            <g id="グループ_3033" data-name="グループ 3033" transform="translate(0 9.497)">
              <path id="パス_1471" data-name="パス 1471" d="M657.281,177.688H652.5V166.244h-4.782v-4.638h14.346l-4.783,4.783Z" transform="translate(-647.718 -161.606)" fill="#484848"/>
            </g>
            <path id="パス_1472" data-name="パス 1472" d="M740.2,151.294a15.772,15.772,0,0,0-5.987-3.485,26.5,26.5,0,0,0-8.252-1.041h-7.792v35.1h7.7a26.767,26.767,0,0,0,8.127-.971,17.093,17.093,0,0,0,11.644-16.578A16.868,16.868,0,0,0,740.2,151.294Zm-1.014,13.042a10.8,10.8,0,0,1-3.537,8.439,10.934,10.934,0,0,1-3.857,2.281,18.613,18.613,0,0,1-5.511.691h-1.567V152.925h1.567c4.153,0,7.319.976,9.406,2.9A10.987,10.987,0,0,1,739.191,164.336Z" transform="translate(-673.081 -146.768)" fill="#484848"/>
            <path id="パス_1473" data-name="パス 1473" d="M691.992,173.532a3.907,3.907,0,0,1-.742.486,6.492,6.492,0,0,1-2.725.508,7.233,7.233,0,0,1-5.346-2.218,7.555,7.555,0,0,1-2.186-5.482,7.771,7.771,0,0,1,2.2-5.585,7.091,7.091,0,0,1,5.32-2.267,6.512,6.512,0,0,1,3.039.652,4.581,4.581,0,0,1,.476.252l4.122-4.122-.731-.424a13.17,13.17,0,0,0-6.662-1.858,12.91,12.91,0,0,0-10.281,4.692,13.172,13.172,0,0,0-3.224,8.7,12.764,12.764,0,0,0,3.869,9.327,12.9,12.9,0,0,0,9.362,3.828,13.916,13.916,0,0,0,6.951-1.882l.726-.448Z" transform="translate(-657.629 -149.182)" fill="#484848"/>
          </g>
          <g id="グループ_3039" data-name="グループ 3039" transform="translate(79.609)">
            <rect id="長方形_2463" data-name="長方形 2463" width="70.391" height="35.099" fill="#00abd3"/>
            <g id="グループ_3038" data-name="グループ 3038" transform="translate(4.747 3.626)">
              <g id="グループ_3035" data-name="グループ 3035" transform="translate(0.933)">
                <path id="パス_1474" data-name="パス 1474" d="M783.668,154.09v5.923H782.6V154.09h-1.624v-.979h4.309v.979Z" transform="translate(-780.979 -152.677)" fill="#fff"/>
                <path id="パス_1475" data-name="パス 1475" d="M790.388,156.457a3.344,3.344,0,0,1,1.094-2.5,3.641,3.641,0,0,1,2.616-1.046,3.572,3.572,0,0,1,2.589,1.055,3.411,3.411,0,0,1,1.083,2.534,3.358,3.358,0,0,1-1.089,2.525,3.8,3.8,0,0,1-5.1.116A3.358,3.358,0,0,1,790.388,156.457Zm1.075.013a2.464,2.464,0,0,0,.787,1.882,2.649,2.649,0,0,0,3.682-.013,2.6,2.6,0,0,0-1.848-4.452,2.543,2.543,0,0,0-1.861.751A2.46,2.46,0,0,0,791.463,156.47Z" transform="translate(-784.366 -152.604)" fill="#fff"/>
                <path id="パス_1476" data-name="パス 1476" d="M807.3,154.09v5.923h-1.066V154.09h-1.624v-.979h4.309v.979Z" transform="translate(-789.488 -152.677)" fill="#fff"/>
                <path id="パス_1477" data-name="パス 1477" d="M818.282,158.092h-3.023l-.787,1.676h-1.148l3.495-7.335,3.371,7.335h-1.166Zm-.435-.979-1.047-2.346-1.1,2.346Z" transform="translate(-792.623 -152.433)" fill="#fff"/>
                <path id="パス_1478" data-name="パス 1478" d="M829.182,153.111v5.923h2.076v.979h-3.142v-6.9Z" transform="translate(-797.948 -152.677)" fill="#fff"/>
              </g>
              <g id="グループ_3036" data-name="グループ 3036" transform="translate(0.906 20.017)">
                <path id="パス_1479" data-name="パス 1479" d="M780.936,191.421v-6.9h1.482a5.516,5.516,0,0,1,1.683.205,3.176,3.176,0,0,1,1.2.684,3.513,3.513,0,0,1-.046,5.136,3.346,3.346,0,0,1-1.2.684,5.57,5.57,0,0,1-1.66.193Zm1.066-.979h.48a4.09,4.09,0,0,0,1.194-.148,2.428,2.428,0,0,0,.86-.5,2.337,2.337,0,0,0,.787-1.829,2.37,2.37,0,0,0-.778-1.841,2.988,2.988,0,0,0-2.063-.63H782Z" transform="translate(-780.936 -184.001)" fill="#fff"/>
                <path id="パス_1480" data-name="パス 1480" d="M793.8,188.439l-2.305-3.92h1.226l1.615,2.758,1.619-2.758h1.226l-2.314,3.92v2.982H793.8Z" transform="translate(-784.736 -184.001)" fill="#fff"/>
                <path id="パス_1481" data-name="パス 1481" d="M803.4,191.157v-7.371l5.15,5.265v-4.8h1.066v7.322l-5.15-5.252v4.832Z" transform="translate(-789.024 -183.737)" fill="#fff"/>
                <path id="パス_1482" data-name="パス 1482" d="M821.062,189.5h-3.023l-.787,1.676H816.1l3.494-7.335,3.371,7.335H821.8Zm-.435-.979-1.047-2.346-1.1,2.346Z" transform="translate(-793.596 -183.757)" fill="#fff"/>
                <path id="パス_1483" data-name="パス 1483" d="M829.433,191.129l1.487-7.42,2.424,5.364,2.511-5.364,1.335,7.42H836.1l-.682-4.167-2.09,4.483-2.031-4.488-.759,4.171Z" transform="translate(-798.394 -183.709)" fill="#fff"/>
                <path id="パス_1484" data-name="パス 1484" d="M846.939,184.519v6.9h-1.066v-6.9Z" transform="translate(-804.312 -184.001)" fill="#fff"/>
                <path id="パス_1485" data-name="パス 1485" d="M856.087,185.472l-.864.5a1.475,1.475,0,0,0-.462-.536,1.253,1.253,0,0,0-1.326.1.756.756,0,0,0-.293.608q0,.506.769.813l.7.282a3.006,3.006,0,0,1,1.258.829,1.837,1.837,0,0,1,.4,1.2,2.082,2.082,0,0,1-.65,1.573,2.256,2.256,0,0,1-1.623.626,2.2,2.2,0,0,1-1.519-.532,2.429,2.429,0,0,1-.737-1.5l1.08-.232a1.761,1.761,0,0,0,.256.84,1.172,1.172,0,0,0,2.117-.706,1.152,1.152,0,0,0-.056-.369.936.936,0,0,0-.179-.308,1.419,1.419,0,0,0-.313-.264,2.979,2.979,0,0,0-.458-.235l-.681-.277q-1.451-.6-1.45-1.752a1.651,1.651,0,0,1,.609-1.3,2.23,2.23,0,0,1,1.514-.527A2.118,2.118,0,0,1,856.087,185.472Z" transform="translate(-806.425 -183.925)" fill="#fff"/>
                <path id="パス_1486" data-name="パス 1486" d="M862.3,191.129l1.487-7.42,2.424,5.364,2.511-5.364,1.336,7.42h-1.093l-.682-4.167-2.09,4.483-2.031-4.488-.759,4.171Z" transform="translate(-810.228 -183.709)" fill="#fff"/>
              </g>
              <g id="グループ_3037" data-name="グループ 3037" transform="translate(0 9.926)">
                <path id="パス_1487" data-name="パス 1487" d="M785.092,168.914v1.234a2.991,2.991,0,0,0-1.911-.755,2.463,2.463,0,0,0-1.835.764,2.547,2.547,0,0,0-.75,1.859,2.554,2.554,0,0,0,2.588,2.579,2.3,2.3,0,0,0,.956-.179,2.766,2.766,0,0,0,.455-.241,5.188,5.188,0,0,0,.5-.367v1.256a3.918,3.918,0,0,1-1.921.5,3.589,3.589,0,0,1-2.584-1.032,3.385,3.385,0,0,1-1.066-2.512,3.5,3.5,0,0,1,.892-2.351,3.585,3.585,0,0,1,2.84-1.265A3.672,3.672,0,0,1,785.092,168.914Z" transform="translate(-779.521 -168.11)" fill="#fff"/>
                <path id="パス_1488" data-name="パス 1488" d="M793.149,168.619v4.158a2.245,2.245,0,0,0,.3,1.3,1.614,1.614,0,0,0,2.5,0,2.211,2.211,0,0,0,.3-1.3v-4.158h1.066v4.444a2.453,2.453,0,0,1-.7,1.8,2.734,2.734,0,0,1-3.838,0,2.454,2.454,0,0,1-.694-1.8v-4.444Z" transform="translate(-784.043 -168.186)" fill="#fff"/>
                <path id="パス_1489" data-name="パス 1489" d="M805.717,168.619v5.923h2.076v.979h-3.142v-6.9Z" transform="translate(-788.567 -168.186)" fill="#fff"/>
                <path id="パス_1490" data-name="パス 1490" d="M814.268,169.6v5.923H813.2V169.6h-1.623v-.979h4.308v.979Z" transform="translate(-791.061 -168.186)" fill="#fff"/>
                <path id="パス_1491" data-name="パス 1491" d="M822.912,168.619v4.158a2.25,2.25,0,0,0,.3,1.3,1.615,1.615,0,0,0,2.5,0,2.212,2.212,0,0,0,.3-1.3v-4.158h1.066v4.444a2.455,2.455,0,0,1-.7,1.8,2.734,2.734,0,0,1-3.838,0,2.455,2.455,0,0,1-.7-1.8v-4.444Z" transform="translate(-794.757 -168.186)" fill="#fff"/>
                <path id="パス_1492" data-name="パス 1492" d="M836.368,172.579l2.186,2.942h-1.3l-2.017-2.825h-.192v2.825h-1.066v-6.9h1.249a3.174,3.174,0,0,1,2.021.514,1.87,1.87,0,0,1,.687,1.511,1.922,1.922,0,0,1-1.565,1.935Zm-1.326-.791h.338q1.514,0,1.514-1.131,0-1.059-1.473-1.059h-.38Z" transform="translate(-799.124 -168.186)" fill="#fff"/>
                <path id="パス_1493" data-name="パス 1493" d="M848.237,173.6h-3.023l-.787,1.676h-1.148l3.494-7.335,3.371,7.335h-1.166Zm-.435-.979-1.047-2.346-1.1,2.346Z" transform="translate(-802.473 -167.942)" fill="#fff"/>
                <path id="パス_1494" data-name="パス 1494" d="M858.207,168.619v5.923h2.076v.979h-3.142v-6.9Z" transform="translate(-807.463 -168.186)" fill="#fff"/>
              </g>
            </g>
          </g>
        </g>
      </g>
    </g>
  </g>
</svg>
