<svg xmlns="http://www.w3.org/2000/svg" viewBox="0 0 142.87 42.8"><defs><style>.cls-1{fill:none;stroke:#fff;stroke-width:0.55px;}.cls-2{fill:#fff;}</style></defs><g id="レイヤー_2" data-name="レイヤー 2"><g id="レイヤー_1-2" data-name="レイヤー 1"><path class="cls-1" d="M132.65,3.62V16.3A11.44,11.44,0,0,0,124,12.63c-8.31,0-14,6.92-14,14.95s5.85,15,14.15,15c3.27,0,6.72-1.26,8.47-4.05h.11v3.21h9.95V3.62Z"/><path class="cls-2" d="M22.64,27.88c0,8.47,6.94,14.65,15.24,14.65a15.46,15.46,0,0,0,7-1.59V31.53a6.46,6.46,0,1,1,0-7.91V14.28a13.59,13.59,0,0,0-6.56-1.65C29.52,12.63,22.64,18.87,22.64,27.88Z"/><polygon class="cls-2" points="23.17 13.34 15.9 13.34 15.9 0 5.97 3.62 5.97 13.34 0 13.34 0 21.53 5.97 21.53 5.97 41.69 15.9 41.69 15.9 21.53 23.17 21.53 23.17 13.34"/><path class="cls-2" d="M69,3.62V16.3a11.45,11.45,0,0,0-8.69-3.67c-8.31,0-14,6.92-14,14.95s5.85,15,14.15,15c3.27,0,6.71-1.26,8.46-4.05H69v3.21h9.94V3.62ZM62.88,34a6.46,6.46,0,1,1,6.47-6.46A6.46,6.46,0,0,1,62.88,34Z"/><path class="cls-2" d="M126.59,34a6.46,6.46,0,1,1,6.46-6.46A6.46,6.46,0,0,1,126.59,34Z"/></g></g></svg>