<svg xmlns="http://www.w3.org/2000/svg" viewBox="0 0 48.05 48.05"><defs><style>.cls-1{fill:#fff;}.cls-2{fill:#949495;}</style></defs><g id="レイヤー_2" data-name="レイヤー 2"><g id="レイヤー_1-2" data-name="レイヤー 1"><rect class="cls-1" width="48.05" height="48.05" rx="4"/><path class="cls-2" d="M29.51,37.24h-11a7.74,7.74,0,0,1-7.73-7.73v-11a7.74,7.74,0,0,1,7.73-7.73h11a7.74,7.74,0,0,1,7.73,7.73v11A7.74,7.74,0,0,1,29.51,37.24Zm-11-24a5.27,5.27,0,0,0-5.27,5.27v11a5.27,5.27,0,0,0,5.27,5.27h11a5.27,5.27,0,0,0,5.27-5.27v-11a5.27,5.27,0,0,0-5.27-5.27Z"/><path class="cls-2" d="M32.73,17a1.65,1.65,0,0,1-3.29,0,1.65,1.65,0,1,1,3.29,0Z"/><path class="cls-2" d="M24,30.86A6.84,6.84,0,1,1,30.86,24,6.85,6.85,0,0,1,24,30.86Zm0-11.2A4.37,4.37,0,1,0,28.39,24,4.37,4.37,0,0,0,24,19.66Z"/></g></g></svg>