<svg id="tcd_logo_down" xmlns="http://www.w3.org/2000/svg" xmlns:xlink="http://www.w3.org/1999/xlink" width="112.079" height="54" viewBox="0 0 112.079 54">
  <defs>
    <clipPath id="clip-path">
      <rect id="長方形_2458" data-name="長方形 2458" width="112.079" height="54" fill="none"/>
    </clipPath>
  </defs>
  <g id="グループ_3025" data-name="グループ 3025">
    <path id="パス_1441" data-name="パス 1441" d="M0,14.673v7.136H7.357V39.416h7.356V22.065l7.356-7.392Z" fill="#484848"/>
    <g id="グループ_3026" data-name="グループ 3026">
      <g id="グループ_3025-2" data-name="グループ 3025" clip-path="url(#clip-path)">
        <path id="パス_1442" data-name="パス 1442" d="M103.7,6.963A24.28,24.28,0,0,0,94.491,1.6,40.769,40.769,0,0,0,81.795,0H69.807V54H81.66c5.346,0,9.56-.505,12.5-1.494a25.583,25.583,0,0,0,9.19-5.358c5.79-5.115,8.726-11.894,8.726-20.148,0-8.224-2.818-14.966-8.378-20.037M101.944,27A16.469,16.469,0,0,1,96.55,39.868a16.67,16.67,0,0,1-5.882,3.48,28.4,28.4,0,0,1-8.4,1.053H79.875V9.6h2.389c6.334,0,11.161,1.49,14.344,4.423,3.59,3.338,5.336,7.583,5.336,12.979" fill="#484848"/>
        <path id="パス_1443" data-name="パス 1443" d="M52.912,37.479a6,6,0,0,1-1.143.747,9.966,9.966,0,0,1-4.192.781A11.126,11.126,0,0,1,39.351,35.6a11.62,11.62,0,0,1-3.363-8.434,11.952,11.952,0,0,1,3.381-8.592,10.91,10.91,0,0,1,8.184-3.488,10.031,10.031,0,0,1,4.678,1,7.022,7.022,0,0,1,.731.388L59.3,10.13l-1.124-.652A20.26,20.26,0,0,0,47.928,6.619a19.861,19.861,0,0,0-15.817,7.219,20.266,20.266,0,0,0-4.959,13.393A19.636,19.636,0,0,0,33.1,41.58a19.845,19.845,0,0,0,14.4,5.89,21.409,21.409,0,0,0,10.694-2.9l1.117-.688Z" fill="#484848"/>
      </g>
    </g>
  </g>
</svg>
