<svg id="tcd_logo" xmlns="http://www.w3.org/2000/svg" xmlns:xlink="http://www.w3.org/1999/xlink" width="124.003" height="81.943" viewBox="0 0 124.003 81.943">
  <defs>
    <clipPath id="clip-path">
      <rect id="長方形_209" data-name="長方形 209" width="124.003" height="81.943" fill="none"/>
    </clipPath>
  </defs>
  <g id="グループ_2554" data-name="グループ 2554">
    <g id="グループ_2553" data-name="グループ 2553" clip-path="url(#clip-path)">
      <path id="パス_818" data-name="パス 818" d="M108.1,7.731A26.962,26.962,0,0,0,97.875,1.777C94.413.6,89.67,0,83.779,0H70.469V59.957H83.63c5.935,0,10.615-.56,13.883-1.658a28.42,28.42,0,0,0,10.2-5.949c6.428-5.68,9.688-13.207,9.688-22.371,0-9.132-3.13-16.617-9.3-22.248M106.369,30.01c0,5.988-1.977,10.7-6.042,14.415a18.661,18.661,0,0,1-6.588,3.9A31.824,31.824,0,0,1,84.323,49.5H81.648V10.517h2.675c7.1,0,12.5,1.668,16.068,4.954,4.022,3.739,5.978,8.494,5.978,14.539" transform="translate(6.598 0)" fill="#484848"/>
      <path id="パス_819" data-name="パス 819" d="M56.142,40.98a6.638,6.638,0,0,1-1.27.83,11.084,11.084,0,0,1-4.656.867,12.362,12.362,0,0,1-9.136-3.789,12.906,12.906,0,0,1-3.735-9.368A13.282,13.282,0,0,1,41.1,19.977,12.121,12.121,0,0,1,50.19,16.1a11.118,11.118,0,0,1,5.195,1.114,7.6,7.6,0,0,1,.813.43l7.043-7.043-1.249-.724A22.5,22.5,0,0,0,50.607,6.706,22.057,22.057,0,0,0,33.04,14.723,22.507,22.507,0,0,0,27.531,29.6a21.809,21.809,0,0,0,6.611,15.936,22.036,22.036,0,0,0,16,6.541A23.772,23.772,0,0,0,62.015,48.86l1.24-.766Z" transform="translate(2.578 0.628)" fill="#484848"/>
      <rect id="長方形_207" data-name="長方形 207" width="120.282" height="10.992" transform="translate(0 70.951)" fill="#00abd3"/>
      <path id="パス_820" data-name="パス 820" d="M5.609,68.386v4.539H4.791V68.386H3.545v-.749H6.851v.749Z" transform="translate(0.332 6.333)" fill="#fff"/>
      <path id="パス_821" data-name="パス 821" d="M7.239,70.265a2.558,2.558,0,0,1,.839-1.918,2.794,2.794,0,0,1,2.008-.8,2.744,2.744,0,0,1,1.987.808A2.614,2.614,0,0,1,12.9,70.3a2.572,2.572,0,0,1-.834,1.937,2.92,2.92,0,0,1-3.912.089,2.573,2.573,0,0,1-.919-2.056m.825.011a1.889,1.889,0,0,0,.6,1.441,2.032,2.032,0,0,0,2.826-.01,1.992,1.992,0,0,0-1.418-3.413,1.95,1.95,0,0,0-1.428.577,1.882,1.882,0,0,0-.583,1.4" transform="translate(0.678 6.324)" fill="#fff"/>
      <path id="パス_822" data-name="パス 822" d="M15.16,68.386v4.539h-.818V68.386H13.1v-.749H16.4v.749Z" transform="translate(1.226 6.333)" fill="#fff"/>
      <path id="パス_823" data-name="パス 823" d="M20.281,71.67h-2.32l-.6,1.283h-.881l2.682-5.621,2.588,5.621h-.9Zm-.332-.751-.8-1.8-.842,1.8Z" transform="translate(1.543 6.304)" fill="#fff"/>
      <path id="パス_824" data-name="パス 824" d="M23.543,67.637v4.539h1.595v.75H22.725V67.637Z" transform="translate(2.128 6.333)" fill="#fff"/>
      <path id="パス_825" data-name="パス 825" d="M32.972,67.929v.947a2.3,2.3,0,0,0-1.467-.581,1.893,1.893,0,0,0-1.409.586,1.955,1.955,0,0,0-.575,1.425,1.908,1.908,0,0,0,.575,1.405,1.931,1.931,0,0,0,1.412.573,1.779,1.779,0,0,0,.734-.138,2.215,2.215,0,0,0,.349-.185,4.426,4.426,0,0,0,.381-.281v.963a3.008,3.008,0,0,1-1.474.386,2.758,2.758,0,0,1-1.984-.791,2.6,2.6,0,0,1-.818-1.926,2.675,2.675,0,0,1,.685-1.8,2.75,2.75,0,0,1,2.181-.97,2.816,2.816,0,0,1,1.411.386" transform="translate(2.687 6.324)" fill="#fff"/>
      <path id="パス_826" data-name="パス 826" d="M35.031,67.637v3.186a1.724,1.724,0,0,0,.227,1,1.24,1.24,0,0,0,1.922,0,1.7,1.7,0,0,0,.227-1V67.637h.818v3.406a1.877,1.877,0,0,1-.534,1.376,2.1,2.1,0,0,1-2.945,0,1.877,1.877,0,0,1-.534-1.376V67.637Z" transform="translate(3.203 6.333)" fill="#fff"/>
      <path id="パス_827" data-name="パス 827" d="M40.183,67.637v4.539h1.595v.75H39.365V67.637Z" transform="translate(3.686 6.333)" fill="#fff"/>
      <path id="パス_828" data-name="パス 828" d="M44.214,68.386v4.539H43.4V68.386H42.15v-.749h3.306v.749Z" transform="translate(3.947 6.333)" fill="#fff"/>
      <path id="パス_829" data-name="パス 829" d="M47.086,67.637v3.186a1.724,1.724,0,0,0,.227,1,1.24,1.24,0,0,0,1.922,0,1.7,1.7,0,0,0,.227-1V67.637h.819v3.406a1.878,1.878,0,0,1-.535,1.376,2.1,2.1,0,0,1-2.944,0,1.874,1.874,0,0,1-.535-1.376V67.637Z" transform="translate(4.332 6.333)" fill="#fff"/>
      <path id="パス_830" data-name="パス 830" d="M53.192,70.672l1.678,2.254h-1L52.32,70.76h-.145v2.165h-.819V67.637h.96a2.431,2.431,0,0,1,1.551.394,1.431,1.431,0,0,1,.526,1.157,1.472,1.472,0,0,1-1.2,1.484m-1.018-.607h.259q1.161,0,1.161-.867,0-.81-1.131-.811h-.29Z" transform="translate(4.809 6.333)" fill="#fff"/>
      <path id="パス_831" data-name="パス 831" d="M58.847,71.67h-2.32l-.6,1.283h-.881l2.682-5.621,2.588,5.621h-.9Zm-.332-.751-.8-1.8-.842,1.8Z" transform="translate(5.154 6.304)" fill="#fff"/>
      <path id="パス_832" data-name="パス 832" d="M61.593,67.637v4.539h1.595v.75H60.775V67.637Z" transform="translate(5.691 6.333)" fill="#fff"/>
      <path id="パス_833" data-name="パス 833" d="M66.8,72.925V67.637h1.137a4.244,4.244,0,0,1,1.292.156,2.43,2.43,0,0,1,.924.525,2.691,2.691,0,0,1-.036,3.936,2.564,2.564,0,0,1-.919.523,4.249,4.249,0,0,1-1.275.148Zm.818-.749h.369a3.1,3.1,0,0,0,.915-.114,1.879,1.879,0,0,0,.661-.379,1.791,1.791,0,0,0,.6-1.4,1.822,1.822,0,0,0-.6-1.412,2.3,2.3,0,0,0-1.584-.482h-.369Z" transform="translate(6.255 6.333)" fill="#fff"/>
      <path id="パス_834" data-name="パス 834" d="M72.9,70.641l-1.769-3h.942l1.239,2.113,1.242-2.113h.941l-1.776,3v2.284H72.9Z" transform="translate(6.66 6.333)" fill="#fff"/>
      <path id="パス_835" data-name="パス 835" d="M76.068,72.956V67.308l3.952,4.034V67.667h.818v5.611l-3.952-4.025v3.7Z" transform="translate(7.122 6.302)" fill="#fff"/>
      <path id="パス_836" data-name="パス 836" d="M85.164,71.67h-2.32l-.6,1.283h-.881l2.682-5.621,2.588,5.621h-.9Zm-.332-.751-.8-1.8-.842,1.8Z" transform="translate(7.618 6.304)" fill="#fff"/>
      <path id="パス_837" data-name="パス 837" d="M86.933,72.959l1.141-5.687,1.86,4.112,1.928-4.112,1.025,5.687h-.839l-.524-3.193-1.6,3.437-1.558-3.439-.583,3.2Z" transform="translate(8.14 6.299)" fill="#fff"/>
      <rect id="長方形_208" data-name="長方形 208" width="0.818" height="5.289" transform="translate(102.856 73.969)" fill="#fff"/>
      <path id="パス_838" data-name="パス 838" d="M99.749,68.432l-.663.385a1.122,1.122,0,0,0-.355-.411.84.84,0,0,0-.452-.11.857.857,0,0,0-.566.188.581.581,0,0,0-.224.467q0,.387.591.622l.539.215a2.326,2.326,0,0,1,.966.635,1.411,1.411,0,0,1,.306.921,1.6,1.6,0,0,1-.5,1.206,1.735,1.735,0,0,1-1.246.479,1.693,1.693,0,0,1-1.167-.408,1.866,1.866,0,0,1-.564-1.147l.828-.178a1.366,1.366,0,0,0,.2.644.9.9,0,0,0,1.581-.825.727.727,0,0,0-.137-.236,1.1,1.1,0,0,0-.241-.2,2.372,2.372,0,0,0-.351-.179l-.523-.214q-1.114-.456-1.113-1.342a1.259,1.259,0,0,1,.467-1,1.714,1.714,0,0,1,1.161-.4,1.629,1.629,0,0,1,1.464.89" transform="translate(9.028 6.324)" fill="#fff"/>
      <path id="パス_839" data-name="パス 839" d="M100.893,72.959l1.141-5.687,1.86,4.112,1.928-4.112,1.025,5.687h-.839l-.524-3.193-1.6,3.437-1.558-3.439-.583,3.2Z" transform="translate(9.447 6.299)" fill="#fff"/>
    </g>
    <path id="パス_817" data-name="パス 817" d="M0,14.839v7.927H8.171V42.319h8.171V23.012l8.173-8.174Z" transform="translate(0 1.389)" fill="#484848"/>
  </g>
</svg>
