<?xml version="1.0" encoding="utf-8"?>
<!-- Generator: Adobe Illustrator 26.5.2, SVG Export Plug-In . SVG Version: 6.00 Build 0)  -->
<svg version="1.1" id="レイヤー_1" xmlns="http://www.w3.org/2000/svg" xmlns:xlink="http://www.w3.org/1999/xlink" x="0px"
	 y="0px" viewBox="0 0 640 410" style="enable-background:new 0 0 640 410;" xml:space="preserve">
<style type="text/css">
	.st0{fill:#64C8C8;}
	.st1{fill:#FFFFFF;}
	.st2{fill:#828282;}
	.st3{fill:none;stroke:#64C8C8;stroke-width:2;stroke-miterlimit:10;}
	.st4{fill:#D0EEEE;}
</style>
<polygon class="st0" points="258.3,92.3 113.2,92.3 113.2,35.3 258.3,35.3 282.6,65.3 "/>
<g>
	<path class="st0" d="M631.4,108.2v269.1H116.2V108.2H631.4 M633.4,106.2H114.2v273.1h519.2V106.2L633.4,106.2z"/>
</g>
<g>
	<g>
		<path class="st1" d="M160.2,67.4c-1.2-0.8-3.7-2.4-7.6-3.8v8.8h-2.2V57.1h2.2v4.4c4,1.3,7.1,3,8.6,3.8L160.2,67.4z"/>
		<path class="st1" d="M179.1,62c-0.8,7.1-4.1,9.6-11.6,10.4l-0.6-1.9c3.1-0.2,5.3-0.8,6.7-1.7c1-0.6,2.6-2.2,3.1-4.9h-11.9V62
			H179.1z M178,57.7v1.9h-11.9v-1.9H178z"/>
		<path class="st1" d="M192.1,72.4H190v-8c-3,1.9-4.9,2.6-6.7,3.3l-1-1.8c5.1-1.6,9.5-4.7,12.9-8.9l1.8,1.2
			c-1.4,1.7-2.6,2.8-4.9,4.7V72.4z"/>
		<path class="st1" d="M215.6,57.8c-0.6,4.5-2.7,6.3-5.5,7.8l-1.3-1.5c3.1-1.4,3.9-2.8,4.4-4.3h-12.5v-1.9H215.6z M200.8,70.8
			c4.9-2.1,5.6-5.4,5.5-9.3l2.1,0c-0.1,3.6-0.4,8.2-6.3,11L200.8,70.8z"/>
		<path class="st1" d="M222.6,62.1c0,6.3-1.8,8.8-3.4,10.4l-1.5-1.5c1.8-1.8,2.9-3.7,2.9-8.7v-4.5h2V62.1z M227.4,69.7
			c2-0.7,4.1-1.5,4.9-6.6l1.9,0.8c-0.8,3.7-2.4,7.8-8.9,8.3V57.3h2V69.7z"/>
	</g>
</g>
<polygon class="st0" points="434.7,92.3 289.6,92.3 289.6,35.3 434.7,35.3 459,65.3 "/>
<g>
	<g>
		<path class="st1" d="M339,67.3H337v-9.7h2.1V67.3z M348,65c0,6.1-5,7.1-9.5,7.4l-0.7-1.9c4.8-0.3,8.1-1,8.1-5.3v-7.7h2.1V65z"/>
		<path class="st1" d="M356.5,63c1.9-0.5,4.6-1.1,8-2.9l0.9,1.9c-4.2,1.9-7.5,2.7-8.9,3v3.7c0,1.2,0.3,1.3,2,1.3h4.6
			c0.4,0,2.3,0,4-0.3l0.1,2.1c-1.1,0.2-2.6,0.2-3.7,0.2h-5.4c-2.4,0-3.8-0.4-3.8-2.8V57.7h2.1V63z M369.7,58.2
			c0,1.4-1.1,2.5-2.5,2.5c-1.4,0-2.5-1.1-2.5-2.5c0-1.4,1.1-2.5,2.5-2.5C368.6,55.7,369.7,56.8,369.7,58.2z M365.9,58.2
			c0,0.7,0.6,1.3,1.3,1.3s1.3-0.6,1.3-1.3c0-0.8-0.6-1.3-1.3-1.3C366.5,56.8,365.9,57.4,365.9,58.2z"/>
		<path class="st1" d="M386.3,63.8v2.1h-15.4v-2.1H386.3z"/>
		<path class="st1" d="M402.7,67.4c-1.2-0.8-3.7-2.4-7.6-3.8v8.8h-2.2V57.1h2.2v4.4c4,1.3,7.1,3,8.6,3.8L402.7,67.4z"/>
	</g>
</g>
<polygon class="st0" points="611.1,92.3 466,92.3 466,35.3 611.1,35.3 635.4,65.3 "/>
<g>
	<g>
		<path class="st1" d="M526.2,58.3c-0.3,5.5-1.8,12-11.5,14l-0.8-1.9c8.1-1.5,9.6-6,10.1-10.1h-11.6v-2H526.2z"/>
		<path class="st1" d="M543.3,60.7c-0.4,3.4-2.2,5.4-4.4,6.4l-1.1-1.4c0.9-0.3,2.6-1.1,3.3-3.4h-10v-1.7H543.3z M531.3,71.3
			c4.2-2,4.4-4.4,4.4-7.6l1.9,0c-0.2,5-1.4,7-5.1,9L531.3,71.3z"/>
		<path class="st1" d="M553.7,62.6c-1.2-0.8-2.9-1.8-5.6-2.6l1-1.8c3,0.9,4.8,2,5.7,2.5L553.7,62.6z M548.5,69.9
			c7.1-0.5,10.8-3.9,12.8-10.8l1.8,1.3c-1,2.9-3.6,10.9-14.2,11.7L548.5,69.9z"/>
		<path class="st1" d="M566.9,64c-0.8,1-1.1,1.3-1.5,1.7l-1-2.1c2.2-2.4,3.3-4.4,4-7.2l1.9,0.2c-0.2,0.8-0.6,2.1-1.5,4.1v12.5h-1.9
			V64z M574.4,56.4v6.3c0.8-0.3,3.4-1.4,5.7-3.2l1.3,1.7c-2,1.4-5.1,2.8-7,3.5v5.7c0,0.5,0,0.7,0.7,0.7h3.9c0.5,0,0.6-0.2,0.7-0.4
			c0.1-0.3,0.2-2.4,0.2-2.8l1.9,0.5c0,0.8-0.1,3.1-0.5,3.7c-0.4,0.7-0.9,0.9-1.7,0.9h-5.1c-0.5,0-1.8,0-1.8-1.7V56.4H574.4z"/>
	</g>
</g>
<g>
	<g>
		<path class="st2" d="M23,62.7c-0.6,2.9-1.7,4.5-2.6,5.8c0.8,0.6,2.6,2,4.7,4.1l-1.3,1.3c-0.7-0.7-1.9-2-4.3-4.2
			c-1.9,2.1-3.9,3.4-5.6,4.2l-0.9-1.3c1.7-0.7,5.9-2.8,8-8.3h-7.2v-1.5H23z"/>
		<path class="st2" d="M27.9,72.6c3.6-0.6,4.6-1.9,4.7-5.1h-5.3V66h11.4v1.5h-4.5c-0.1,4.1-1.9,5.7-5.6,6.5L27.9,72.6z M37.6,62.5
			v1.5h-9.2v-1.5H37.6z"/>
		<path class="st2" d="M53,67.1v1.6H41v-1.6H53z"/>
		<path class="st2" d="M59.4,68.6c-1.7-1-3.3-1.5-4-1.7l0.6-1.3c1.3,0.3,2.9,0.9,4.1,1.6L59.4,68.6z M56.1,72
			c5.4-0.5,7.7-2.4,9.3-7.4l1.4,1c-1.9,5.3-4.6,7.3-10.3,8.1L56.1,72z M60.6,65.3c-1.3-0.7-2.5-1.1-4.1-1.6l0.6-1.3
			c1.4,0.3,2.8,0.9,4.2,1.5L60.6,65.3z M64.3,61.2c0.6,0.9,0.8,1.5,1.3,2.7l-1,0.5c-0.4-1.2-0.6-1.7-1.2-2.7L64.3,61.2z M66.6,61.1
			c0.6,0.9,0.9,1.7,1.2,2.7l-1.1,0.5c-0.3-1.1-0.6-1.7-1.2-2.8L66.6,61.1z"/>
	</g>
</g>
<g>
	<g>
		<path class="st2" d="M13.2,149.8c1.7-1,2.9-2.4,3.7-4.2h7.5c-0.2,2.2-0.9,9.1-9.4,11.3l-0.8-1.4c3.5-0.8,5.4-2.6,5.9-3.2
			c-1.1-1-2.3-1.7-4.1-2.7c-0.4,0.4-0.8,0.8-1.7,1.3L13.2,149.8z M17.9,147.1c-0.5,0.8-0.8,1.2-1.1,1.6c0.6,0.3,2.5,1.2,4.1,2.5
			c0.7-1.1,1.2-2.3,1.5-4.1H17.9z"/>
		<path class="st2" d="M29.4,152.2c-0.2-1.3-0.6-2.4-1.1-3.4l1.3-0.4c0.6,1.2,1,2.5,1.2,3.5L29.4,152.2z M29.3,155.8
			c4.5-1,6.3-2.9,7.1-7.8l1.5,0.3c-0.9,4.2-2.3,7.3-7.6,8.6L29.3,155.8z M32.5,151.6c-0.1-0.7-0.4-2-0.9-3.4l1.3-0.3
			c0.5,1,0.9,2.4,1,3.4L32.5,151.6z"/>
		<path class="st2" d="M48.3,149.5h4.5v1.4h-4.5c-0.3,4.2-3.1,5.4-5.9,6l-0.7-1.4c4-0.8,4.9-2.2,5-4.6h-5.5v-1.4h5.6v-2
			c-2.6,0.3-3.9,0.3-4.7,0.3l-0.3-1.4c3.2,0,6.5-0.4,9.2-1.3l0.8,1.4c-1.4,0.4-2.3,0.6-3.4,0.8V149.5z"/>
		<path class="st2" d="M55.1,155.1c1.3-1.3,1.9-3.1,2.1-5l1.5,0.2c-0.2,1.5-0.5,4-2.3,6L55.1,155.1z M64.5,147.3
			c-0.4-0.5-0.4-1-0.4-1.2c0-1.1,0.9-1.9,1.9-1.9c1.1,0,1.9,0.9,1.9,1.9c0,0.9-0.6,1.6-1.4,1.8v0.8h-4.7v8.1h-1.6v-8.1h-4.7v-1.5
			h4.7v-2.3h1.6v2.3H64.5z M64.8,150.1c0.3,1.7,0.7,3.3,2.1,5.1l-1.3,1c-1.3-1.5-1.8-3-2.3-5.9L64.8,150.1z M64.9,146.1
			c0,0.6,0.5,1,1,1s1-0.4,1-1c0-0.6-0.5-1-1-1S64.9,145.6,64.9,146.1z"/>
		<path class="st2" d="M76.6,156.9h-1.7v-6.2c-2.3,1.5-3.8,2-5.2,2.5l-0.8-1.4c4-1.2,7.4-3.7,10-6.9l1.4,1c-1.1,1.3-2,2.2-3.8,3.6
			V156.9z"/>
		<path class="st2" d="M87.8,149.2c-0.9-0.6-2.3-1.4-4.3-2.1l0.8-1.4c2.4,0.7,3.8,1.5,4.4,2L87.8,149.2z M83.8,154.9
			c5.6-0.4,8.4-3,10-8.4l1.4,1c-0.8,2.3-2.8,8.5-11,9.1L83.8,154.9z"/>
		<path class="st2" d="M107.8,153c-0.9-0.6-2.9-1.9-5.9-3v6.9h-1.7v-12h1.7v3.5c3.1,1,5.5,2.3,6.7,3L107.8,153z"/>
	</g>
</g>
<g>
	<g>
		<path class="st2" d="M15.2,341.5c-0.2,0.6-0.8,2.1-1.8,3l-1.1-1c0.4-0.4,1-1.1,1.7-2.5L15.2,341.5z M18,334.7
			c-0.1-0.2-0.2-0.4-0.4-0.6c-0.8,0.1-3.5,0.3-5.1,0.3l-0.1-1.1h1.2c0.5-1,0.6-1.3,0.7-1.5l1.4,0.1c-0.2,0.4-0.2,0.5-0.7,1.4
			c0.3,0,1.6-0.1,1.9-0.1c-0.1-0.1-0.4-0.5-0.5-0.6l1.1-0.5c0.8,0.8,1.5,1.9,1.6,2.1L18,334.7z M13.1,334.8h5.3v4.8
			c0,1.1-0.8,1.1-1.1,1.1h-1.7l-0.2-1.2h1.4c0.3,0,0.3,0,0.3-0.3v-0.4h-2.8v1.9h-1.2V334.8z M14.3,335.9v0.7h2.8v-0.7H14.3z
			 M14.3,337.3v0.6h2.8v-0.6H14.3z M15.8,341.5h1.3v1.5c0,0.3,0.1,0.4,0.4,0.4h3.1c0.5,0,0.5-0.1,0.8-1.4l1.3,0.3
			c-0.4,2-0.7,2.3-1.8,2.3h-4c-0.8,0-1.1-0.5-1.1-1V341.5z M18.1,340.6c0.7,0.2,1.7,0.7,2.4,1.1l-0.6,1.1c-0.4-0.3-1.4-0.9-2.4-1.3
			L18.1,340.6z M19.8,331.7h1.4v0.9c1.4-0.1,2.7-0.6,3.3-0.9l0.6,1.1c-0.5,0.2-2.2,0.7-3.9,0.8v0.7c0,0.4,0.1,0.4,0.4,0.4h2.1
			c0.4,0,0.4-0.2,0.5-1.2l1.3,0.3c-0.2,1.9-0.5,2.1-1.3,2.1h-3.3c-1.2,0-1.2-0.7-1.2-1.3V331.7z M21.2,336.1v1.2
			c1.1-0.2,2.3-0.5,3.3-1.1l0.6,1.1c-1.4,0.7-3.4,1-3.9,1v0.7c0,0.2,0,0.4,0.4,0.4h2c0.5,0,0.5,0,0.6-1.4l1.3,0.2
			c-0.1,1.6-0.2,2.4-1.5,2.4h-3.2c-0.5,0-1.1,0-1.1-1.1v-3.5H21.2z M23.8,340.9c1.1,1.4,1.6,2,1.9,2.7l-1.3,0.9c-0.4-1-1-2-1.7-2.9
			L23.8,340.9z"/>
		<path class="st2" d="M27.4,332.7h5v-1h1.5v1h5.6v1.3h-2.2v1h2.3v1.1h-2.3v2.2h-6.6v-2.2h-1.9v2.5c0,2.1-0.3,4.4-1.3,6l-1.1-1.1
			c0.8-1.2,1.1-3.1,1.1-4.9V332.7z M31.7,340.4c0.4,0.4,1.1,1.1,2.5,1.8c1.5-0.7,2-1.3,2.3-1.8h-7.3v-1.3h9v1.3
			c-0.2,0.4-0.8,1.3-2.4,2.4c1.2,0.3,2.4,0.5,3.9,0.7l-0.6,1.4c-0.7-0.1-2.6-0.3-4.8-1.2c-2.1,0.9-4,1.2-5.1,1.3l-0.6-1.3
			c0.8-0.1,2.2-0.2,4.1-0.8c-1.3-0.8-1.8-1.3-2-1.6L31.7,340.4z M28.8,334v1h1.9v-1H28.8z M32.1,334v1H36v-1H32.1z M32.1,336.2v1H36
			v-1H32.1z"/>
		<path class="st2" d="M47.8,331.7v1.1h5.8v1.3h-4.1v3c0,0.6-0.5,1-1.1,1h-1.5l-0.2-1.5h1c0.3,0,0.3-0.1,0.3-0.4v-2.1h-1.8
			c-0.4,2.8-1.8,4-3.1,4.7l-0.9-1.1c1-0.5,2.3-1.5,2.6-3.7h-4.5v-1.3h5.9v-1.1H47.8z M43.9,335c-0.6,1-1.5,2.1-2.5,2.9l-0.9-1
			c1-0.9,1.5-1.4,2.2-2.5L43.9,335z M51.5,338.9v1.2c-0.4,0.6-1.2,1.6-2.8,2.5c1.6,0.5,3.2,0.7,4.9,0.7l-0.6,1.5
			c-0.9-0.1-3.8-0.4-6.1-1.4c-2.3,0.9-4.5,1.2-5.7,1.3l-0.5-1.2c1.7-0.2,3.2-0.4,4.8-0.9c-0.5-0.4-1.1-0.9-1.8-1.8
			c-1.1,0.7-1.7,0.9-2.3,1.1l-0.8-1.2c2.5-1,3.6-1.8,4.7-3.2l1.4,0.6c-0.2,0.3-0.3,0.5-0.6,0.7H51.5z M44.8,340.1l-0.1,0.1
			c1,1,1.9,1.5,2.4,1.8c1-0.5,1.8-1.2,2.5-1.9H44.8z M52.7,338.1c-1.2-0.9-1.7-1.5-2.7-3l1.1-0.8c0.9,1.3,2,2.2,2.6,2.7L52.7,338.1z
			"/>
		<path class="st2" d="M65.8,344.6h-9.7v-4.3c-0.3,0.1-0.5,0.2-1.2,0.4l-0.6-1.5c3.3-0.6,5-1.9,6-2.9h1.4c1.3,1.3,3.1,2.3,6,2.9
			l-0.7,1.4c-0.7-0.2-0.9-0.3-1.2-0.4V344.6z M61.7,331.7v1.1h5.5v3h-1.4v-1.7h-9.5v1.7h-1.5v-3h5.5v-1.1H61.7z M54.9,336.5
			c1.3-0.4,2.6-0.9,3.9-2.2l1.1,0.9c-1.5,1.4-2.9,2.1-4.3,2.6L54.9,336.5z M64.4,340.9h-6.8v2.4h6.8V340.9z M64.4,339.6
			c-1.6-0.7-2.7-1.6-3.4-2.2c-0.6,0.5-1.6,1.4-3.3,2.2H64.4z M63.1,334.4c1.4,1.2,2.4,1.6,4.1,2.1l-0.7,1.4
			c-1.8-0.6-3.1-1.2-4.5-2.6L63.1,334.4z"/>
	</g>
</g>
<g>
	<g>
		<path class="st2" d="M20.6,256.7h-1.7v-6.2c-2.3,1.5-3.8,2-5.2,2.5l-0.8-1.4c4-1.2,7.4-3.7,10-6.9l1.4,1c-1.1,1.3-2,2.2-3.8,3.6
			V256.7z"/>
		<path class="st2" d="M31.8,249.1c-0.9-0.6-2.3-1.4-4.3-2.1l0.8-1.4c2.4,0.7,3.8,1.5,4.4,2L31.8,249.1z M27.8,254.7
			c5.6-0.4,8.4-3,10-8.4l1.4,1c-0.8,2.3-2.8,8.5-11,9.1L27.8,254.7z"/>
		<path class="st2" d="M53.1,247.4v1.5h-2.3v1.6c0,5.1-4.4,6-6.7,6.3l-0.6-1.5c2.7-0.3,5.6-1.1,5.6-4.8v-1.6h-4.4v3.6h-1.6v-3.6
			h-2.3v-1.5h2.3v-2.5h1.6v2.5h4.4v-2.6h1.6v2.6H53.1z"/>
		<path class="st2" d="M62.6,256.7h-1.7v-6.2c-2.3,1.5-3.8,2-5.2,2.5l-0.8-1.4c4-1.2,7.4-3.7,10-6.9l1.4,1c-1.1,1.3-2,2.2-3.8,3.6
			V256.7z"/>
		<path class="st2" d="M79.8,252.8c-0.9-0.6-2.9-1.9-5.9-3v6.9h-1.7v-12h1.7v3.5c3.1,1,5.5,2.3,6.7,3L79.8,252.8z"/>
	</g>
</g>
<g>
	<line class="st3" x1="114.2" y1="106.2" x2="633.4" y2="106.2"/>
	<line class="st3" x1="114.2" y1="197.2" x2="633.4" y2="197.2"/>
	<line class="st3" x1="114.2" y1="288.2" x2="633.4" y2="288.2"/>
	<line class="st3" x1="633.4" y1="379.3" x2="114.2" y2="379.3"/>
</g>
<g>
	<line class="st3" x1="633.4" y1="106.2" x2="633.4" y2="379.3"/>
	<line class="st3" x1="460.3" y1="106.2" x2="460.3" y2="379.3"/>
	<line class="st3" x1="287.2" y1="106.2" x2="287.2" y2="379.3"/>
	<line class="st3" x1="114.2" y1="379.3" x2="114.2" y2="106.2"/>
</g>
<path class="st4" d="M597.4,176l-450-1c-3.8,0-6.9-3.1-6.9-6.9v-32.6c0-3.8,3.1-6.9,7-6.9l450,1c3.8,0,6.9,3.1,6.9,6.9v32.6
	C604.4,172.9,601.2,176,597.4,176z"/>
<g>
	<path class="st0" d="M279.7,154.7c-1.8-0.3-4.4-0.8-7.2-2c-2.3,1-4.8,1.5-7.3,2l-0.5-1.6c0.9-0.1,3.2-0.5,6-1.4
		c-1.2-0.8-1.8-1.3-2.4-2c-0.8,0.5-1.3,0.8-2.7,1.4l-0.8-1.5c3.2-1.2,4.3-2.4,5.1-3.4l1.9,0.3c-0.3,0.4-0.4,0.6-0.6,0.8h6.9v1.5
		c-0.4,0.5-1.5,1.8-3.5,2.9c2,0.7,3.6,1,5.8,1.2L279.7,154.7z M278.2,161h-11.4v-6.2h11.4V161z M276.5,156.2h-8v3.3h8V156.2z
		 M269.6,148.9c0.6,0.5,1.6,1.3,3.1,2.1c2-0.9,2.8-1.7,3.1-2.1H269.6z"/>
	<path class="st0" d="M293,147.8c-0.7,3.3-1.9,5.2-3,6.6c0.9,0.7,2.9,2.3,5.3,4.7l-1.5,1.5c-0.8-0.8-2.1-2.3-4.9-4.8
		c-2.2,2.4-4.4,3.9-6.4,4.8l-1-1.5c1.9-0.8,6.7-3.2,9.1-9.5h-8.2v-1.7H293z"/>
	<path class="st0" d="M298.7,159.1c4.1-0.7,5.2-2.2,5.3-5.8H298v-1.7H311v1.7h-5.2c-0.1,4.7-2.2,6.6-6.4,7.4L298.7,159.1z
		 M309.7,147.6v1.7h-10.5v-1.7H309.7z"/>
	<path class="st0" d="M327.4,152.9v1.9h-13.7v-1.9H327.4z"/>
	<path class="st0" d="M334.7,154.5c-2-1.1-3.8-1.7-4.6-1.9l0.7-1.5c1.5,0.4,3.3,1,4.7,1.8L334.7,154.5z M330.9,158.4
		c6.1-0.6,8.8-2.7,10.6-8.4l1.6,1.1c-2.2,6.1-5.3,8.4-11.7,9.2L330.9,158.4z M336,150.7c-1.5-0.8-2.8-1.3-4.7-1.8l0.7-1.5
		c1.6,0.4,3.2,1,4.8,1.7L336,150.7z M340.3,146.1c0.6,1,1,1.7,1.5,3.1l-1.2,0.6c-0.4-1.3-0.7-2-1.4-3.1L340.3,146.1z M342.9,146
		c0.7,1.1,1,2,1.4,3.1l-1.2,0.6c-0.4-1.3-0.6-1.9-1.3-3.2L342.9,146z"/>
	<path class="st0" d="M359.1,149.6c-0.6,0-1.1-0.1-1.5-0.1c-0.7,0-1.2,0-1.7,0.2c-2.3,0.7-5.2,3.2-5.2,5.8c0,2,1.6,2.5,3.1,2.8
		c1.1,0.2,2.7,0.3,4,0.2l-0.3,1.9c-3.2-0.1-8.6-0.3-8.6-4.9c0-3.1,2.9-5.1,4.3-6c-1.7,0.1-5.8,0.4-7.3,0.6l-0.1-1.9
		c1.2,0,5.6-0.3,6.5-0.3c2.4-0.1,4.2-0.1,7-0.2L359.1,149.6z M355.8,151.4c0.7,0.9,1.2,1.9,1.8,3l-1.2,0.7c-0.5-1.3-0.9-2-1.7-3.1
		L355.8,151.4z M358.1,150.4c0.8,0.9,1.2,1.8,1.8,3l-1.2,0.7c-0.6-1.3-0.9-2-1.7-3.1L358.1,150.4z"/>
	<path class="st0" d="M368.5,146.3c-0.3,0.8-0.4,1.2-0.6,1.7h8.1v1.6h-8.9c-0.4,0.7-0.6,1-0.8,1.4h8v9c0,0.8-0.5,1.4-1.2,1.4h-2.8
		l-0.3-1.6h2.4c0.3,0,0.3-0.2,0.3-0.4v-1.4h-7.1v3.5H364v-7.5c-0.8,0.8-1.3,1.2-2.1,1.8l-1.1-1.5c1-0.6,2.7-1.7,4.4-4.7H361V148h5.1
		c0.2-0.4,0.3-0.8,0.6-1.8L368.5,146.3z M372.8,152.5h-7.1v1.3h7.1V152.5z M372.8,155.2h-7.1v1.4h7.1V155.2z"/>
	<path class="st0" d="M380.6,150.7c-0.6,1.3-1.8,2.5-2.7,3.3l-1.1-1.3c1-0.7,1.8-1.6,2.4-2.7L380.6,150.7z M376.8,160
		c1.6-0.9,2.9-2,3.9-3.5c-0.9-0.8-1.6-1.2-2.2-1.6l1-1.1c0.4,0.2,0.9,0.5,2,1.3c0.4-0.8,0.5-1.4,0.7-2.1l1.6,0.5
		c-0.1,0.5-0.4,1.4-1,2.7c1,0.9,1.3,1.4,1.6,1.9l-1.2,1.2c-0.3-0.4-0.6-0.8-1.3-1.6c-1.3,2-3.2,3.2-4,3.7L376.8,160z M383.5,160
		c2.1-1.9,3.2-3.2,3.4-8.9h-1.8v-1.6h-8.1v-1.6h3.5v-1.6h1.6v1.6h3v1.6h1.8v-3.1h1.6v3.1h3c-0.1,7.1-0.1,7.6-0.4,9.4
		c-0.2,1.7-0.5,2.5-1.9,2.5h-1.9l-0.3-1.6h1.7c0.5,0,0.6-0.2,0.8-1.3c0.3-2,0.4-5.1,0.4-7.3h-1.4c-0.2,5.3-1.1,7.7-3.7,10.2
		L383.5,160z M383.3,150c1.4,1.2,2,2.1,2.3,2.6l-1.2,1c-0.5-1-1.6-2.2-2.3-2.8L383.3,150z"/>
	<path class="st0" d="M406,152.5c-0.7,0.1-9.6,1-9.6,4.4c0,1.7,1.8,1.8,4.9,1.8c2.6,0,4.3-0.2,5.2-0.3l0,1.9c-1,0.1-2.3,0.2-4.6,0.2
		c-2.8,0-7.3,0-7.3-3.5c0-2.7,3.1-4.1,4.2-4.6c-0.6-1-0.6-2-0.6-5.3h1.9c0,0.5,0,1,0,1.8c0,1.7,0.1,2.3,0.4,3
		c1.6-0.5,2.9-0.8,5.4-1.1L406,152.5z"/>
	<path class="st0" d="M417.4,148.9v1.7H414c-0.6,2.9-1.5,5.6-2.7,8.2l-1.8-0.7c1.4-2.5,2.1-5,2.7-7.5h-2.5v-1.7h2.8
		c0.1-0.7,0.2-1.2,0.2-2l1.9,0.1c-0.1,1-0.2,1.3-0.3,1.9H417.4z M420.4,155.3c1.3,0.6,2.5,1.6,3.2,2.3l-1.1,1.6
		c-0.9-1.1-1.6-1.6-2.3-2v0.5c0,2-1.6,2.8-3.2,2.8c-2.4,0-3.7-1.3-3.7-2.9c0-1.3,1-3.1,3.8-3.1c0.7,0,1.2,0.1,1.5,0.1l-0.1-3.3h1.8
		L420.4,155.3z M418.7,156.4c-0.3-0.1-0.8-0.3-1.5-0.3c-1.4,0-2.1,0.7-2.1,1.5c0,0.3,0.1,1.4,2,1.4c1.3,0,1.6-0.6,1.6-1.7V156.4z
		 M422.7,151.7c-1.7-1-2.8-1.5-4.4-2.1l0.7-1.5c1.7,0.6,2.8,1.1,4.5,2L422.7,151.7z"/>
	<path class="st0" d="M436.1,148.8c-1.3,0.9-2.8,2.2-4.2,3.3c0.6-0.2,1.4-0.4,2.4-0.4c2.2,0,4.3,1.2,4.3,4.1c0,3.1-2.6,4.9-5.8,4.9
		c-2.8,0-4.2-1.2-4.2-2.7c0-1.4,1.2-2.4,2.8-2.4c1.2,0,3.2,0.7,3.8,2.9c1.2-0.7,1.6-1.7,1.6-2.6c0-1.2-0.6-2.7-3.2-2.7
		c-2.7,0-4.7,1.6-6.9,3.7l-1-1.5c0.5-0.3,3.4-2.6,7.5-6.2c-1.9,0.1-3.1,0.2-5.8,0.3v-1.7c3.7,0,5.2,0,8.7-0.2V148.8z M431.5,156.9
		c-0.8,0-1.2,0.5-1.2,0.9c0,0.7,0.8,1.4,2.5,1.4c0.4,0,0.8-0.1,1.1-0.1C433.6,157.8,432.9,156.9,431.5,156.9z"/>
	<path class="st0" d="M445.6,154.8c-0.4,0.2-0.8,0.3-1.2,0.5v4.7c0,0.7-0.3,1.4-1.5,1.4h-1.7l-0.2-1.7h1.3c0.4,0,0.5,0,0.5-0.4v-3.4
		c-0.6,0.2-1.5,0.5-1.7,0.6l-0.4-1.7c0.5-0.1,0.8-0.2,2.1-0.7v-3.5H441v-1.5h1.9v-2.8h1.6v2.8h1.3v1.5h-1.3v2.9
		c0.8-0.3,0.9-0.3,1.3-0.5l0.2,1.3h2.6c0.5-0.9,0.6-1,0.7-1.3l1.7,0.3c-0.1,0.3-0.3,0.6-0.5,1h5.6v1.5h-1.5
		c-0.3,0.6-0.7,1.7-1.7,2.8c1.5,0.7,2.2,1.1,2.7,1.4l-0.8,1.3c-0.5-0.4-1.3-0.9-3.1-1.7c-0.5,0.3-2.2,1.3-5.8,1.7l-0.5-1.5
		c1,0,2.6-0.1,4.4-0.9c-1.7-0.6-2.9-0.9-3.6-1.1c0.4-0.5,0.7-0.9,1.4-2h-1.9V154.8z M449.7,146.3h1.6v1.4h4.3v1.5H454
		c-0.2,0.8-0.3,1.1-0.6,2.2h2.7v1.5h-10.3v-1.5h2.2c-0.1-0.7-0.3-1.5-0.5-2.2H446v-1.5h3.7V146.3z M449.4,155.8
		c-0.6,1-0.7,1-0.9,1.4c0.6,0.2,1.5,0.4,2.7,0.8c1-0.8,1.3-1.7,1.5-2.2H449.4z M448.9,149.2c0.3,1.1,0.4,1.5,0.5,2.2h2.4
		c0.2-0.5,0.5-1.4,0.6-2.2H448.9z"/>
	<path class="st0" d="M456.7,160.4c1-1.2,1.5-2,2-3.5l1.5,0.5c-0.4,1-1,2.6-2.2,4L456.7,160.4z M472,149.3h-7v1.3h5.7v5.8h-12.4
		v-5.8h5v-4.4h1.7v1.4h7V149.3z M469.1,152.2h-9.2v2.8h9.2V152.2z M461.5,161.1c0.1-0.5,0.1-1.1,0.1-2.1c0-0.8,0-1.2-0.1-1.6h1.5
		c0.1,1.3,0.1,2.4,0.1,2.8c0,0.4,0,0.7,0,1H461.5z M465.9,161.1c-0.3-1.7-0.6-2.8-0.9-3.8l1.6-0.1c0.5,1.5,0.8,2.5,1,3.6
		L465.9,161.1z M470.7,161.4c-0.7-1.7-1.8-3.3-2.1-3.7l1.5-0.6c0.9,1.2,1.4,2.1,2.1,3.6L470.7,161.4z"/>
</g>
<path class="st4" d="M597.4,268l-450-1c-3.8,0-6.9-3.1-6.9-6.9v-32.6c0-3.8,3.1-6.9,7-6.9l450,1c3.8,0,6.9,3.1,6.9,6.9v32.6
	C604.4,264.9,601.2,268,597.4,268z"/>
<path class="st4" d="M597.4,356l-450-1c-3.8,0-6.9-3.1-6.9-6.9v-32.6c0-3.8,3.1-6.9,7-6.9l450,1c3.8,0,6.9,3.1,6.9,6.9v32.6
	C604.4,352.9,601.2,356,597.4,356z"/>
<g>
	<path class="st0" d="M214.4,245.5c0.2-0.4,0.3-0.7,0.4-1.1l1.3,0.2c-0.1,0.3-0.3,0.7-0.4,0.9h1.2v1.1h-1.3v1h1.2v1h-1.2v1h1.2v1
		h-1.2v1.2h1.5v0.2c1-0.6,1.5-1,2.2-1.8l1.1,0.9c-0.9,1.1-1.6,1.6-2.6,2.2l-0.7-0.8v0.5h-5.3v-4.7c-0.1,0.1-0.1,0.2-0.3,0.4L211,248
		c-0.2,2.4-0.6,3.6-1.4,4.9l-1-1.5c0.9-1.7,1-3.3,1-6.1V241h7v3.2h-5.5v1.3c0,0.6,0,1,0,1.4c0.4-0.8,0.8-1.6,1.1-2.6l1.2,0.3
		c-0.1,0.4-0.1,0.5-0.3,0.9H214.4z M216.9,238.8v1.3H209v-1.3H216.9z M215.1,242h-4v1.1h4V242z M214.3,246.6h-1.2v1h1.2V246.6z
		 M214.3,248.6h-1.2v1h1.2V248.6z M214.3,250.7h-1.2v1.2h1.2V250.7z M224,238.8v1.4h-3c-0.1,0.4-0.2,0.9-0.3,1.2h2.7v8.8h-5.8v-8.8
		h1.7c0.1-0.4,0.2-0.7,0.3-1.2h-2.3v-1.4H224z M221.9,242.8h-2.8v1.1h2.8V242.8z M221.9,245.2h-2.8v1.1h2.8V245.2z M221.9,247.6
		h-2.8v1.3h2.8V247.6z M221.9,250.3c1,1,1.6,1.4,2.4,1.8l-0.9,1.3c-1-0.6-1.6-1.1-2.6-2.1L221.9,250.3z"/>
	<path class="st0" d="M225.4,244.5c3.2-1.2,4.4-2.8,4.9-3.4l1.7,0.2c-0.3,0.4-0.4,0.5-0.5,0.6h5.5v1.2c-0.4,0.5-1.2,1.5-3,2.7
		c1,0.4,2.9,1.1,6.1,1.5l-0.5,1.7c-0.7-0.1-1-0.2-1.6-0.3v4.4h-11.1v-4.4c-0.6,0.2-0.9,0.2-1.5,0.3l-0.5-1.6
		c2.9-0.5,4.9-1.2,6.1-1.6c-0.9-0.7-1.3-1-1.9-1.6c-1,0.7-1.7,1.1-3,1.7L225.4,244.5z M233.3,238.3v1.2h6.3v3.5h-1.7v-2h-10.9v2
		h-1.6v-3.5h6.2v-1.2H233.3z M236.4,249.6h-7.9v2.1h7.9V249.6z M236.2,248.2c-1.7-0.5-2.5-0.8-3.7-1.5c-1.4,0.7-2.9,1.2-3.8,1.5
		H236.2z M230.2,243.3c1,1,1.9,1.5,2.3,1.7c1.4-0.8,1.8-1.2,2.3-1.8L230.2,243.3L230.2,243.3z"/>
	<path class="st0" d="M248.4,250.7c1.7-0.2,5.3-0.7,5.3-5c0-1.8-0.7-4.4-4.3-4.6c-0.5,7.1-2.6,10.1-4.8,10.1c-1.9,0-3-2.1-3-4.6
		c0-4.5,3.3-7.2,7.4-7.2c5,0,6.6,3.3,6.6,6.3c0,6-5.4,6.6-6.6,6.7L248.4,250.7z M243.2,246.7c0,0.9,0.3,2.6,1.4,2.6
		c0.6,0,1.1-0.5,1.4-1.2c1.1-2,1.4-4.4,1.6-6.8C244.7,241.7,243.2,244,243.2,246.7z"/>
	<path class="st0" d="M258.2,246.4c0.3,1.1,0.5,2.8,0.6,3.7l-1.3,0.3c0-0.8-0.1-2.2-0.5-3.7L258.2,246.4z M257,251.4
		c0.6-0.1,1.2-0.1,2.1-0.3v-5.7h-1.6v-6.6h6.6v6.6h-1.6v5.2c0.6-0.1,1-0.2,1.6-0.4v1.4c-2.3,0.6-5.1,1.2-6.9,1.4L257,251.4z
		 M258.9,240.1v1.3h3.6v-1.3H258.9z M258.9,242.7v1.4h3.6v-1.4H258.9z M261.1,245.3h-0.7v5.6c0.5-0.1,0.6-0.1,0.7-0.1V245.3z
		 M264.5,246.5c-0.1,1.2-0.2,2.3-0.4,3.4l-1.3-0.2c0.1-0.4,0.3-1.2,0.5-3.4L264.5,246.5z M267.9,251.1c-1.1,1.2-2.7,2-3.2,2.2
		l-1.1-1.3c0.5-0.2,1.9-0.8,3-1.9L267.9,251.1z M272,238.8v1.4h-3.3c-0.1,0.5-0.2,0.7-0.4,1.2h3.3v8.7h-6.7v-8.7h1.7
		c0.1-0.4,0.3-0.8,0.4-1.2h-2.5v-1.4H272z M266.5,242.8v1h3.6v-1H266.5z M266.5,245.1v1.1h3.6v-1.1H266.5z M266.5,247.5v1.2h3.6
		v-1.2H266.5z M271.4,253.3c-1.5-0.7-2.5-1.7-2.9-2.1l1.2-1.1c0.8,0.7,1.6,1.3,2.6,1.7L271.4,253.3z"/>
	<path class="st0" d="M275.2,247.2c-0.7,0.6-1.1,0.9-1.6,1.2l-0.8-1.6c2.7-1.7,4-4.2,4.5-5H273v-1.6h4.9c0.3-0.8,0.4-1.4,0.5-2h1.8
		c-0.1,0.5-0.3,1.1-0.6,2h8.4v1.6h-9c-0.5,1.1-1.2,2.3-2.1,3.6v8h-1.7V247.2z M287.4,245.2v1.6h-3.9v4.6h4.4v1.6h-10.4v-1.6h4.4
		v-4.6h-3.9v-1.6h3.9v-2.8h1.6v2.8H287.4z"/>
	<path class="st0" d="M298.9,238.5c-0.1,0.6-0.2,1-0.5,2h5.2c0,3.1-0.1,6.8-0.1,8c-0.3,4.2-0.6,4.8-2.7,4.8h-2.5l-0.3-1.7h2.5
		c0.6,0,1,0,1.1-1c0.3-2.2,0.4-6.2,0.4-8.5h-4.2c-0.8,1.6-1.2,2.4-2,3.3l-0.9-0.8v7.7h-5.5v-11.8h1.6c0.2-0.7,0.4-1.2,0.5-2.2
		l1.6,0.1c-0.2,1-0.3,1.3-0.6,2.1h2.3v3.2c1.3-1.7,1.9-3.3,2.4-5.5L298.9,238.5z M293.3,242.1h-2.4v3.4h2.4V242.1z M293.3,247h-2.4
		v3.8h2.4V247z M298.9,249.4c-0.5-1.6-1.1-2.8-2.1-4.4l1.4-0.8c0.9,1.2,1.5,2.4,2.3,4.3L298.9,249.4z"/>
	<path class="st0" d="M313.4,240.9v1.7H310c-0.6,2.9-1.5,5.6-2.7,8.2l-1.8-0.7c1.4-2.5,2.1-5,2.7-7.5h-2.5v-1.7h2.8
		c0.1-0.7,0.2-1.2,0.2-2l1.9,0.1c-0.1,1-0.2,1.3-0.3,1.9H313.4z M316.4,247.3c1.3,0.6,2.5,1.6,3.2,2.3l-1.1,1.6
		c-0.9-1.1-1.6-1.6-2.3-2v0.5c0,2-1.6,2.8-3.2,2.8c-2.4,0-3.7-1.3-3.7-2.9c0-1.3,1-3.1,3.8-3.1c0.7,0,1.2,0.1,1.5,0.1l-0.1-3.3h1.8
		L316.4,247.3z M314.7,248.4c-0.3-0.1-0.8-0.3-1.5-0.3c-1.4,0-2.1,0.7-2.1,1.5c0,0.3,0.1,1.4,2,1.4c1.3,0,1.6-0.6,1.6-1.7V248.4z
		 M318.7,243.7c-1.7-1-2.8-1.5-4.4-2.1l0.7-1.5c1.7,0.6,2.8,1.1,4.5,2L318.7,243.7z"/>
	<path class="st0" d="M335.2,249.2v1.8h-13.4v-1.8H335.2z M333.9,240.6v1.8H323v-1.8H333.9z"/>
	<path class="st0" d="M351.4,244.9v1.9h-13.7v-1.9H351.4z"/>
	<path class="st0" d="M364.5,241.7c-0.4,1.3-1.2,3-2.4,4.6c1.3,1,3.2,2.5,5.3,4.7l-1.5,1.5c-2.2-2.4-4.1-4.1-4.9-4.8
		c-0.8,0.9-3,3.2-6.4,4.8l-1-1.5c1.6-0.7,6.7-3.1,9.1-9.6h-8.3v-1.7h8.8L364.5,241.7z M364.9,238.3c0.6,1,1,1.8,1.5,3.1l-1.2,0.6
		c-0.4-1.3-0.7-2-1.4-3.2L364.9,238.3z M367.2,237.7c0.7,1.1,1,1.9,1.4,3.1l-1.2,0.6c-0.4-1.3-0.7-2-1.4-3.2L367.2,237.7z"/>
	<path class="st0" d="M372.4,252.8c-0.9-1.4-1.9-2.5-2.8-3.5l1.5-1c1.1,1,2.4,2.5,3.1,3.4L372.4,252.8z"/>
	<path class="st0" d="M388.6,247.6c-0.5,1.5-1.8,4.4-2.6,5.7l-1.1-1.6c1.3-1.8,2.1-4.3,2.3-4.8L388.6,247.6z M385.5,242.8
		c1.3,0.6,1.8,0.9,2.6,1.5l-0.8,1.4c-0.8-0.6-1.6-1.1-2.4-1.5L385.5,242.8z M386.3,238.5c1,0.5,2.1,1.2,2.5,1.5l-1.1,1.4
		c-1.1-0.9-2-1.5-2.4-1.7L386.3,238.5z M390.6,238.3h1.6v1.1h1.3v1.3h-1.3c0,0.4,0,0.6-0.1,1.2h1.6v1.3h-1.3c0.6,1,1.5,1.7,1.7,1.9
		l-1.1,1.2c-0.3-0.3-1-1.1-1.6-2c-0.8,1.6-2,2.4-2.5,2.8l-1.2-1.2c0.6-0.4,1.8-1.1,2.5-2.7h-1.6v-1.3h1.9c0-0.3,0.1-0.6,0.1-0.9
		v-0.3H389v-1.3h1.6V238.3z M399.1,246.8v6.3h-9.5v-6.3H399.1z M391.2,248.2v1.1h6.3v-1.1H391.2z M391.2,250.5v1.2h6.3v-1.2H391.2z
		 M396.3,238.3h1.5v1.1h1.9v1.3h-1.9v0.3c0,0.4,0,0.5,0,0.9h2.2v1.3h-1.8c0.5,0.8,1.2,1.7,1.9,2.4l-0.9,1.3c-1.2-1-1.9-2.4-2-2.7
		c-0.7,1.5-1.7,2.2-2.3,2.6l-1.1-1.2c0.8-0.5,1.7-1.1,2.2-2.4h-1.8v-1.3h2.1c0-0.3,0-0.5,0-0.9v-0.3h-1.8v-1.3h1.8V238.3z"/>
	<path class="st0" d="M403.2,247.2c-0.7,0.6-1.1,0.9-1.6,1.2l-0.8-1.6c2.7-1.7,4-4.2,4.4-5H401v-1.6h4.9c0.3-0.8,0.4-1.4,0.5-2h1.8
		c-0.1,0.5-0.3,1.1-0.6,2h8.4v1.6h-9c-0.5,1.1-1.2,2.3-2.1,3.6v8h-1.7V247.2z M415.4,245.2v1.6h-3.9v4.6h4.4v1.6h-10.4v-1.6h4.4
		v-4.6h-3.9v-1.6h3.9v-2.8h1.6v2.8H415.4z"/>
	<path class="st0" d="M426.9,238.5c-0.1,0.6-0.2,1-0.5,2h5.2c0,3.1-0.1,6.8-0.1,8c-0.3,4.2-0.6,4.8-2.7,4.8h-2.5l-0.3-1.7h2.5
		c0.6,0,1,0,1.1-1c0.3-2.2,0.4-6.2,0.4-8.5h-4.2c-0.8,1.6-1.2,2.4-2,3.3l-0.9-0.8v7.7h-5.5v-11.8h1.6c0.2-0.7,0.4-1.2,0.5-2.2
		l1.6,0.1c-0.2,1-0.3,1.3-0.6,2.1h2.3v3.2c1.3-1.7,1.9-3.3,2.4-5.5L426.9,238.5z M421.3,242.1h-2.4v3.4h2.4V242.1z M421.3,247h-2.4
		v3.8h2.4V247z M426.9,249.4c-0.5-1.6-1.1-2.8-2.1-4.4l1.4-0.8c0.9,1.2,1.5,2.4,2.3,4.3L426.9,249.4z"/>
	<path class="st0" d="M441.4,240.9v1.7H438c-0.6,2.9-1.5,5.6-2.7,8.2l-1.8-0.7c1.4-2.5,2.1-5,2.7-7.5h-2.5v-1.7h2.8
		c0.1-0.7,0.2-1.2,0.2-2l1.9,0.1c-0.1,1-0.2,1.3-0.3,1.9H441.4z M444.4,247.3c1.3,0.6,2.5,1.6,3.2,2.3l-1.1,1.6
		c-0.9-1.1-1.6-1.6-2.3-2v0.5c0,2-1.6,2.8-3.2,2.8c-2.4,0-3.7-1.3-3.7-2.9c0-1.3,1-3.1,3.8-3.1c0.7,0,1.2,0.1,1.5,0.1l-0.1-3.3h1.8
		L444.4,247.3z M442.7,248.4c-0.3-0.1-0.8-0.3-1.5-0.3c-1.4,0-2.1,0.7-2.1,1.5c0,0.3,0.1,1.4,2,1.4c1.3,0,1.6-0.6,1.6-1.7V248.4z
		 M446.7,243.7c-1.7-1-2.8-1.5-4.4-2.1l0.7-1.5c1.7,0.6,2.8,1.1,4.5,2L446.7,243.7z"/>
	<path class="st0" d="M458.3,252.6h-1.9v-7.1c-2.6,1.7-4.3,2.3-5.9,2.9l-0.9-1.6c4.5-1.4,8.5-4.2,11.4-7.9l1.6,1.1
		c-1.3,1.5-2.3,2.5-4.4,4.2V252.6z"/>
	<path class="st0" d="M471.1,243.8c-1-0.7-2.6-1.6-5-2.4l0.9-1.6c2.7,0.8,4.3,1.8,5.1,2.3L471.1,243.8z M466.5,250.3
		c6.4-0.5,9.6-3.5,11.4-9.6l1.6,1.1c-0.9,2.6-3.2,9.7-12.6,10.4L466.5,250.3z"/>
	<path class="st0" d="M495.5,241.9v1.7h-2.7v1.8c0,5.9-5,6.8-7.6,7.2l-0.7-1.7c3.1-0.4,6.5-1.2,6.5-5.5v-1.8H486v4.1h-1.8v-4.1h-2.6
		v-1.7h2.6v-2.9h1.8v2.9h5.1V239h1.8v2.9H495.5z"/>
	<path class="st0" d="M506.3,252.6h-1.9v-7.1c-2.6,1.7-4.3,2.3-5.9,2.9l-0.9-1.6c4.5-1.4,8.5-4.2,11.4-7.9l1.6,1.1
		c-1.3,1.5-2.3,2.5-4.4,4.2V252.6z"/>
	<path class="st0" d="M526,248.2c-1.1-0.7-3.3-2.1-6.8-3.4v7.8h-1.9V239h1.9v4c3.6,1.1,6.3,2.6,7.7,3.4L526,248.2z"/>
</g>
<g>
	<path class="st0" d="M262.4,332.5c0.2-0.4,0.3-0.7,0.4-1.1l1.3,0.2c-0.1,0.3-0.3,0.7-0.4,0.9h1.2v1.1h-1.3v1h1.2v1h-1.2v1h1.2v1
		h-1.2v1.2h1.5v0.2c1-0.6,1.5-1,2.2-1.8l1.1,0.9c-0.9,1.1-1.6,1.6-2.6,2.2l-0.7-0.8v0.5h-5.3v-4.7c-0.1,0.1-0.1,0.2-0.3,0.4L259,335
		c-0.2,2.4-0.6,3.6-1.4,4.9l-1-1.5c0.9-1.7,1-3.3,1-6.1V328h7v3.2h-5.5v1.3c0,0.6,0,1,0,1.4c0.4-0.8,0.8-1.6,1.1-2.6l1.2,0.3
		c-0.1,0.4-0.1,0.5-0.3,0.9H262.4z M264.9,325.8v1.3H257v-1.3H264.9z M263.1,329h-4v1.1h4V329z M262.3,333.6h-1.2v1h1.2V333.6z
		 M262.3,335.6h-1.2v1h1.2V335.6z M262.3,337.7h-1.2v1.2h1.2V337.7z M272,325.8v1.4h-3c-0.1,0.4-0.2,0.9-0.3,1.2h2.7v8.8h-5.8v-8.8
		h1.7c0.1-0.4,0.2-0.7,0.3-1.2h-2.3v-1.4H272z M269.9,329.8h-2.8v1.1h2.8V329.8z M269.9,332.2h-2.8v1.1h2.8V332.2z M269.9,334.6
		h-2.8v1.3h2.8V334.6z M269.9,337.3c1,1,1.6,1.4,2.4,1.8l-0.9,1.3c-1-0.6-1.6-1.1-2.6-2.1L269.9,337.3z"/>
	<path class="st0" d="M273.4,331.5c3.2-1.2,4.4-2.8,4.9-3.4l1.7,0.2c-0.3,0.4-0.4,0.5-0.5,0.6h5.5v1.2c-0.4,0.5-1.2,1.5-3,2.7
		c1,0.4,2.9,1.1,6.1,1.5l-0.5,1.7c-0.7-0.1-1-0.2-1.6-0.3v4.4h-11.1v-4.4c-0.6,0.2-0.9,0.2-1.5,0.3l-0.5-1.6
		c2.9-0.5,4.9-1.2,6.1-1.6c-0.9-0.7-1.3-1-1.9-1.6c-1,0.7-1.7,1.1-3,1.7L273.4,331.5z M281.3,325.3v1.2h6.3v3.5h-1.7v-2h-10.9v2
		h-1.6v-3.5h6.2v-1.2H281.3z M284.4,336.6h-7.9v2.1h7.9V336.6z M284.2,335.2c-1.7-0.5-2.5-0.8-3.7-1.5c-1.4,0.7-2.9,1.2-3.8,1.5
		H284.2z M278.2,330.3c1,1,1.9,1.5,2.3,1.7c1.4-0.8,1.8-1.2,2.3-1.8L278.2,330.3L278.2,330.3z"/>
	<path class="st0" d="M296.4,337.7c1.7-0.2,5.3-0.7,5.3-5c0-1.8-0.7-4.4-4.3-4.6c-0.5,7.1-2.6,10.1-4.8,10.1c-1.9,0-3-2.1-3-4.6
		c0-4.5,3.3-7.2,7.4-7.2c5,0,6.6,3.3,6.6,6.3c0,6-5.4,6.6-6.6,6.7L296.4,337.7z M291.2,333.7c0,0.9,0.3,2.6,1.4,2.6
		c0.6,0,1.1-0.5,1.4-1.2c1.1-2,1.4-4.4,1.6-6.8C292.7,328.7,291.2,331,291.2,333.7z"/>
	<path class="st0" d="M309.8,325.3v1h2.7v1.5h-5.1v2.6c0,0.6,0.2,0.6,0.6,0.6h3.3l-0.2,1.5h-4.1c-0.4,0-1.2-0.1-1.2-1.2v-3.5H305
		v-1.5h3.2v-1H309.8z M319.2,335h-6v1h5.3v1.3h-5.3v1.1h6.7v1.5h-15v-1.5h6.6v-1.1h-5.3V336h5.3v-1h-5.9v-1.4h13.5V335z
		 M316.9,331.7c0.6,0,0.6-0.1,0.7-1h-3.6c-0.5,1.4-1.1,2.2-1.5,2.6l-1.2-1c0.7-0.8,1.9-2.4,1.7-6.5h6.3c0,1.7,0,5.1-0.3,6.1
		c-0.1,0.4-0.4,1.2-1.8,1.2h-2.1l-0.3-1.4H316.9z M317.7,329.6c0-0.1,0-0.7,0-0.8h-3.3c0,0.2,0,0.4-0.1,0.8H317.7z M314.6,327
		c0,0.2,0,0.5,0,0.8h3.2c0-0.2,0-0.7,0-0.8H314.6z"/>
	<path class="st0" d="M334.8,327.6v1.5h-5v1.7h4.6v1.5h-4.6v2c1.7,0.6,3,1.5,4.7,2.8l-1.2,1.7c-1.3-1.5-2.5-2.2-3.5-2.7l0,0.8
		c0,2.1-1.9,2.6-3.3,2.6c-3.2,0-4-1.8-4-2.8c0-1.7,1.7-2.9,4.1-2.9c0.6,0,1.1,0.1,1.4,0.1v-1.6h-5.6v-1.5h5.6v-1.7h-5.9v-1.5h5.9
		V326h1.8v1.6H334.8z M328,335.5c-0.3-0.1-0.7-0.2-1.5-0.2c-1.3,0-2.4,0.5-2.4,1.4c0,0.2,0.1,1.3,2,1.3c1.1,0,1.8-0.3,1.8-1.5V335.5
		z"/>
	<path class="st0" d="M341.8,326.1c-0.1,3.4-0.2,6.9-0.2,7.8c0,2,0.1,3.8,2.9,3.8c4,0,4.5-2.9,4.9-5.2l1.7,0.7
		c-0.6,3-1.8,6.2-6.5,6.2c-4.4,0-4.8-2.8-4.8-5.6c0-1.2,0.1-6.7,0.1-7.8L341.8,326.1z"/>
	<path class="st0" d="M356.1,326.9c-0.1,1-0.4,2.6-0.4,4.8c0,2.1,0.1,5.5,1.8,5.5c0.5,0,0.9-0.4,1.2-0.8c0.4-0.5,0.9-1.5,1.3-2.6
		l1.5,0.9c-0.4,1.2-1.1,2.7-2.1,3.8c-0.6,0.6-1.2,0.8-1.8,0.8c-2.8,0-3.4-4.1-3.4-7.7c0-1.6,0.1-3.3,0.3-4.7L356.1,326.9z
		 M365.3,337.6c0-2.8,0.1-7.1-2.8-9.5l1.4-1c2.5,2.2,3.4,4.5,3.4,10.4L365.3,337.6z"/>
	<path class="st0" d="M373.7,325.7c-0.6,1.2-2.1,3.3-4.1,4.6l-1-1.6c1-0.5,2.3-1.4,3.6-3.6L373.7,325.7z M374.2,329.1
		c-0.3,0.6-0.8,1.6-1.7,2.8v8.4h-1.8V334c-0.6,0.7-1,1-1.4,1.3l-0.7-1.9c2.3-1.7,3.7-4.3,4.1-5.1L374.2,329.1z M384,330.4v1.6h-2.5
		v6.9c0,1.3-0.6,1.4-1.7,1.4h-2.9l-0.3-1.7h2.7c0.4,0,0.5,0,0.5-0.4v-6.1h-5.6v-1.6H384z M383.4,326v1.6h-8.5V326H383.4z"/>
	<path class="st0" d="M392.6,339.4c-2.9,0.4-5.5,0.5-7.5,0.5l-0.2-1.5c0.9,0,1.9,0,3.6-0.1v-1h-3.2v-1.3h3.2v-0.7h-3.2v-5.6h3.2V329
		h-3.6v-1.3h3.6v-0.7c-1.5,0.1-2.5,0.1-3.2,0.1l-0.2-1.2c4.1,0,5.4-0.1,7.6-0.6l0.5,1.2c-0.6,0.2-1.4,0.3-3.2,0.4v0.8h3.6v1.3H390
		v0.7h3.2v5.6H390v0.7h3.4v1.3H390v0.9c1.6-0.1,2.5-0.2,3.4-0.3c0.7-1.2,1.7-2.9,1.8-7.9h-1.3v-1.6h1.3v-3.2h1.6v3.2h2.8
		c0,1.9-0.1,9.3-0.6,10.7c-0.4,1.1-1.1,1.1-1.7,1.1h-1.5l-0.3-1.6h1.3c0.6,0,0.7-0.3,0.7-0.4c0.3-0.9,0.4-6.9,0.4-8.1h-1.2
		c-0.1,6.3-1.6,8.6-2.9,10.2L392.6,339.4z M386.8,330.9v1h1.7v-1H386.8z M386.8,333.1v1.1h1.7v-1.1H386.8z M390,330.9v1h1.8v-1H390z
		 M390,333.1v1.1h1.8v-1.1H390z"/>
	<path class="st0" d="M404.4,339.8c-0.9-1.4-1.9-2.5-2.8-3.5l1.5-1c1.1,1,2.4,2.5,3.1,3.4L404.4,339.8z"/>
	<path class="st0" d="M420.2,336.5c-0.2,0.6-0.9,2.4-2,3.5l-1.3-1.1c0.5-0.5,1.1-1.2,1.9-2.9L420.2,336.5z M423.3,328.8
		c-0.1-0.3-0.2-0.4-0.4-0.7c-0.9,0.1-4,0.3-5.8,0.3l-0.1-1.3h1.4c0.5-1.1,0.7-1.4,0.8-1.7l1.6,0.2c-0.2,0.5-0.2,0.6-0.8,1.6
		c0.3,0,1.8-0.1,2.1-0.1c-0.1-0.1-0.5-0.6-0.6-0.7l1.2-0.6c0.9,0.9,1.7,2.2,1.8,2.4L423.3,328.8z M417.7,328.9h6v5.4
		c0,1.3-0.9,1.3-1.3,1.3h-2l-0.2-1.4h1.6c0.3,0,0.4,0,0.4-0.4v-0.4h-3.2v2.2h-1.4V328.9z M419.1,330.1v0.8h3.2v-0.8H419.1z
		 M419.1,331.7v0.7h3.2v-0.7H419.1z M420.8,336.5h1.5v1.7c0,0.4,0.1,0.4,0.4,0.4h3.6c0.6,0,0.6-0.2,0.9-1.6l1.5,0.4
		c-0.4,2.3-0.8,2.7-2.1,2.7H422c-1,0-1.2-0.6-1.2-1.2V336.5z M423.4,335.5c0.8,0.3,2,0.8,2.8,1.3l-0.7,1.3c-0.5-0.3-1.6-1-2.7-1.4
		L423.4,335.5z M425.4,325.3h1.6v1c1.6-0.1,3.1-0.7,3.8-1l0.7,1.3c-0.6,0.2-2.5,0.8-4.5,0.9v0.8c0,0.4,0.2,0.4,0.4,0.4h2.4
		c0.5,0,0.5-0.2,0.6-1.4l1.5,0.4c-0.2,2.2-0.5,2.4-1.5,2.4h-3.8c-1.3,0-1.3-0.8-1.3-1.4V325.3z M427,330.4v1.3
		c1.3-0.2,2.6-0.6,3.8-1.2l0.6,1.3c-1.6,0.8-3.9,1.1-4.4,1.2v0.8c0,0.2,0,0.4,0.4,0.4h2.3c0.5,0,0.5,0,0.7-1.6l1.5,0.2
		c-0.1,1.9-0.2,2.7-1.7,2.7h-3.7c-0.6,0-1.3,0-1.3-1.2v-4H427z M430,335.9c1.3,1.6,1.8,2.3,2.2,3.1l-1.5,1c-0.5-1.2-1.2-2.3-2-3.3
		L430,335.9z"/>
	<path class="st0" d="M434.1,326.5h5.8v-1.2h1.7v1.2h6.4v1.5h-2.5v1.2h2.6v1.3h-2.6v2.5h-7.5v-2.5h-2.2v2.9c0,2.4-0.3,5-1.5,6.9
		l-1.3-1.2c1-1.4,1.2-3.5,1.2-5.6V326.5z M439,335.3c0.5,0.5,1.3,1.3,2.8,2c1.7-0.8,2.2-1.5,2.6-2h-8.4v-1.4h10.3v1.4
		c-0.2,0.4-0.9,1.5-2.7,2.7c1.4,0.4,2.7,0.6,4.4,0.8l-0.7,1.6c-0.8-0.1-3-0.3-5.5-1.4c-2.4,1.1-4.5,1.3-5.9,1.5l-0.7-1.5
		c0.9-0.1,2.5-0.2,4.7-0.9c-1.5-0.9-2-1.5-2.3-1.8L439,335.3z M435.7,328v1.2h2.2V328H435.7z M439.5,328v1.2h4.4V328H439.5z
		 M439.5,330.5v1.2h4.4v-1.2H439.5z"/>
	<path class="st0" d="M457.4,325.3v1.3h6.6v1.5h-4.7v3.4c0,0.7-0.6,1.2-1.2,1.2h-1.7l-0.2-1.7h1.1c0.4,0,0.4-0.1,0.4-0.5v-2.4h-2
		c-0.4,3.2-2.1,4.6-3.5,5.4l-1.1-1.2c1.1-0.6,2.7-1.7,3-4.2H449v-1.5h6.7v-1.3H457.4z M452.9,329.1c-0.7,1.2-1.7,2.4-2.9,3.3l-1-1.1
		c1.2-1,1.7-1.6,2.5-2.8L452.9,329.1z M461.6,333.5v1.4c-0.5,0.6-1.4,1.8-3.2,2.8c1.8,0.6,3.6,0.8,5.6,0.8l-0.7,1.7
		c-1-0.1-4.4-0.5-7-1.6c-2.6,1-5.1,1.3-6.5,1.5l-0.5-1.4c2-0.2,3.7-0.5,5.5-1c-0.6-0.5-1.3-1.1-2-2c-1.3,0.8-1.9,1-2.6,1.3l-0.9-1.4
		c2.9-1.1,4.1-2,5.4-3.7l1.6,0.7c-0.3,0.4-0.4,0.5-0.6,0.8H461.6z M454,335l-0.1,0.1c1.2,1.2,2.1,1.7,2.7,2c1.2-0.6,2-1.4,2.8-2.1
		H454z M463,332.7c-1.4-1-1.9-1.7-3.1-3.4l1.2-0.9c1,1.5,2.2,2.5,3,3.1L463,332.7z"/>
	<path class="st0" d="M478,340h-11v-4.9c-0.4,0.1-0.6,0.2-1.4,0.4l-0.7-1.7c3.8-0.7,5.7-2.2,6.8-3.3h1.6c1.5,1.4,3.5,2.6,6.8,3.3
		l-0.8,1.6c-0.8-0.2-1-0.3-1.4-0.4V340z M473.3,325.3v1.2h6.3v3.5h-1.6V328h-10.8v1.9h-1.7v-3.5h6.2v-1.2H473.3z M465.5,330.9
		c1.5-0.4,2.9-1,4.5-2.5l1.2,1c-1.7,1.6-3.3,2.4-4.9,3L465.5,330.9z M476.4,335.9h-7.8v2.7h7.8V335.9z M476.4,334.4
		c-1.8-0.8-3.1-1.9-3.9-2.6c-0.7,0.6-1.8,1.6-3.8,2.6H476.4z M474.9,328.4c1.6,1.4,2.7,1.9,4.6,2.4l-0.8,1.6c-2-0.7-3.5-1.4-5.2-2.9
		L474.9,328.4z"/>
</g>
</svg>
