<?xml version="1.0" encoding="utf-8"?>
<!-- Generator: Adobe Illustrator 26.5.2, SVG Export Plug-In . SVG Version: 6.00 Build 0)  -->
<svg version="1.1" id="レイヤー_1" xmlns="http://www.w3.org/2000/svg" xmlns:xlink="http://www.w3.org/1999/xlink" x="0px"
	 y="0px" viewBox="0 0 640 412" style="enable-background:new 0 0 640 412;" xml:space="preserve">
<style type="text/css">
	.st0{fill:#64C8C8;}
	.st1{fill:#5A96DC;}
	.st2{fill:#FFFFFF;}
	.st3{fill:#828282;}
</style>
<g>
	<path class="st0" d="M99.6,36.6c1,1.3,1.5,2.7,1.5,4.4c0,1.5-0.4,2.8-1.1,3.9c-0.7,1.1-1.8,2-3.2,2.7s-3,1-4.9,1h-12V20.6h11.5
		c1.9,0,3.5,0.3,4.9,0.9s2.4,1.5,3.1,2.6c0.7,1.1,1.1,2.3,1.1,3.7c0,1.6-0.4,3-1.3,4.1s-2,1.9-3.5,2.3
		C97.3,34.5,98.6,35.3,99.6,36.6z M85.5,32.1h5.1c1.3,0,2.4-0.3,3.1-0.9c0.7-0.6,1.1-1.5,1.1-2.6s-0.4-2-1.1-2.6
		c-0.7-0.6-1.7-0.9-3.1-0.9h-5.1V32.1z M94.3,43c0.8-0.6,1.1-1.5,1.1-2.7c0-1.2-0.4-2.1-1.2-2.8c-0.8-0.7-1.9-1-3.2-1h-5.5V44h5.6
		C92.5,44,93.5,43.6,94.3,43z"/>
	<path class="st0" d="M120,48.5l-6.2-10.9h-2.6v10.9h-5.6V20.6h10.5c2.2,0,4,0.4,5.5,1.1c1.5,0.8,2.7,1.8,3.4,3.1
		c0.8,1.3,1.1,2.7,1.1,4.3c0,1.8-0.5,3.5-1.6,5c-1.1,1.5-2.7,2.5-4.8,3.1l6.7,11.3H120z M111.2,33.4h4.7c1.5,0,2.7-0.4,3.4-1.1
		c0.7-0.7,1.1-1.8,1.1-3.1c0-1.3-0.4-2.3-1.1-3c-0.7-0.7-1.9-1.1-3.4-1.1h-4.7V33.4z"/>
	<path class="st0" d="M148.3,43.2h-11.1l-1.8,5.3h-5.9l10-28h6.5l10,28h-5.9L148.3,43.2z M146.8,38.7l-4-11.7l-4,11.7H146.8z"/>
	<path class="st0" d="M183.7,48.5h-5.6l-12.7-19.2v19.2h-5.6v-28h5.6l12.7,19.2V20.6h5.6V48.5z"/>
	<path class="st0" d="M206.8,22.3c2.2,1.1,3.9,2.8,5.2,4.9c1.2,2.1,1.8,4.6,1.8,7.4s-0.6,5.2-1.8,7.3c-1.2,2.1-2.9,3.7-5.2,4.9
		s-4.8,1.7-7.7,1.7h-9.8V20.6h9.8C202,20.6,204.5,21.2,206.8,22.3z M205.6,41.4c1.6-1.6,2.4-3.9,2.4-6.8c0-2.9-0.8-5.2-2.4-6.8
		c-1.6-1.6-3.9-2.5-6.8-2.5h-4v18.4h4C201.8,43.8,204,43,205.6,41.4z"/>
</g>
<g>
	<path class="st1" d="M473.9,20.6v27.9h-5.6V20.6H473.9z"/>
	<path class="st1" d="M503.3,48.5h-5.6L485,29.4v19.2h-5.6v-28h5.6l12.7,19.2V20.6h5.6V48.5z"/>
	<path class="st1" d="M528.2,29c-0.6-1.2-1.5-2.1-2.6-2.7c-1.1-0.6-2.4-0.9-3.9-0.9c-1.7,0-3.1,0.4-4.4,1.1c-1.3,0.7-2.3,1.8-3,3.2
		c-0.7,1.4-1.1,3-1.1,4.8c0,1.9,0.4,3.5,1.1,4.9c0.7,1.4,1.8,2.5,3.1,3.2c1.3,0.7,2.8,1.1,4.6,1.1c2.1,0,3.9-0.6,5.2-1.7
		c1.4-1.1,2.3-2.7,2.7-4.7h-9.6V33h15.1v4.9c-0.4,1.9-1.2,3.7-2.4,5.4c-1.2,1.7-2.8,3-4.7,4s-4.1,1.5-6.5,1.5
		c-2.7,0-5.1-0.6-7.3-1.8c-2.2-1.2-3.9-2.9-5.1-5.1c-1.2-2.2-1.9-4.6-1.9-7.4c0-2.7,0.6-5.2,1.9-7.4c1.2-2.2,2.9-3.9,5.1-5.1
		c2.2-1.2,4.6-1.8,7.3-1.8c3.1,0,5.9,0.8,8.2,2.3c2.3,1.5,3.9,3.7,4.8,6.5H528.2z"/>
</g>
<rect x="4" y="64" class="st0" width="285" height="85"/>
<rect x="351" y="64" class="st1" width="285" height="85"/>
<g>
	<path class="st0" d="M138.7,161.5v81H6v-81H138.7 M140.7,159.5H4v85h136.8V159.5L140.7,159.5z"/>
</g>
<g>
	<path class="st0" d="M287,161.5v81H154.2v-81H287 M289,159.5H152.2v85H289V159.5L289,159.5z"/>
</g>
<g>
	<g>
		<path class="st1" d="M485.7,161.5v81H353v-81H485.7 M487.7,159.5H351v85h136.8V159.5L487.7,159.5z"/>
	</g>
</g>
<g>
	<g>
		<path class="st1" d="M634,161.5v81H501.2v-81H634 M636,159.5H499.2v85H636V159.5L636,159.5z"/>
	</g>
</g>
<g>
	<path class="st0" d="M138.7,258v130H6V258H138.7 M140.7,256H4v134h136.8V256L140.7,256z"/>
</g>
<g>
	<path class="st0" d="M287,258v130H154.2V258H287 M289,256H152.2v134H289V256L289,256z"/>
</g>
<g>
	<g>
		<path class="st1" d="M485.7,258v130H353V258H485.7 M487.7,256H351v134h136.8V256L487.7,256z"/>
	</g>
</g>
<g>
	<g>
		<path class="st1" d="M634,258v130H501.2V258H634 M636,256H499.2v134H636V256L636,256z"/>
	</g>
</g>
<g>
	<g>
		<path class="st2" d="M63.1,94c0.6-0.1,1.2-0.2,2.4-0.2c4.7,0,6.7,2.5,6.7,5.3c0,4.6-5,5-6.6,5.1l-0.5-1.8c1.8-0.1,5.1-0.4,5.1-3.5
			c0-2.3-1.7-2.8-2.9-3.2c-1.4,5.2-4.6,7.6-7.2,7.6c-1.9,0-3.1-1.4-3.1-3.4c0-2.8,2.1-4.6,4.2-5.4c0-0.8,0-1.4,0-2v-0.2h-3.6v-1.8
			h3.6l0-1.7l2,0l0,1.7h8.4v1.8h-8.4L63.1,94z M61.3,96.3c-1.2,0.6-2.5,1.8-2.5,3.4c0,0.8,0.3,1.7,1.4,1.7c0.9,0,1.5-0.4,1.9-0.6
			C61.6,99.5,61.4,97.6,61.3,96.3z M65.5,95.4c-1.1,0-1.7,0.1-2.4,0.3c0.1,1.3,0.2,2.5,0.5,3.8C64.5,98.4,65.1,96.8,65.5,95.4z"/>
		<path class="st2" d="M86.6,90.9c-1.4,1.1-3.2,2.4-4.7,3.7c0.7-0.2,1.6-0.5,2.7-0.5c2.5,0,4.9,1.4,4.9,4.6c0,3.5-3,5.5-6.5,5.5
			c-3.1,0-4.7-1.4-4.7-3.1c0-1.5,1.4-2.7,3.2-2.7c1.4,0,3.6,0.8,4.3,3.3c1.3-0.7,1.7-2,1.7-3c0-1.3-0.7-3-3.6-3
			c-3.1,0-5.3,1.8-7.8,4.1L75,98.1c0.5-0.4,3.8-2.9,8.4-7c-2.1,0.2-3.5,0.2-6.5,0.3v-2c4.2,0,5.9,0,9.8-0.2V90.9z M81.4,100
			c-1,0-1.4,0.6-1.4,1c0,0.8,0.9,1.6,2.8,1.6c0.4,0,0.9-0.1,1.3-0.1C83.8,101.1,82.9,100,81.4,100z"/>
		<path class="st2" d="M107.5,102c-2-1.6-3.8-3.4-6.4-6c-1.9-1.9-2.2-2.1-2.7-2.1c-0.5,0-0.8,0.3-1.6,1.2c-0.9,1-2.2,2.7-3.1,3.7
			L92.3,97c0.7-0.6,3.4-3.5,4-4.1c0.8-0.7,1.4-1,2.2-1c1.2,0,1.9,0.6,3.7,2.3c0.9,0.9,3.3,3,4.4,3.9c1,0.9,1.6,1.3,2.4,1.9
			L107.5,102z M103.8,90.1c1,1,1.5,1.7,2.4,3.1l-1.2,1c-0.8-1.4-1.4-2.1-2.4-3.2L103.8,90.1z M106.3,88.6c1,1,1.6,1.8,2.4,3.1
			l-1.2,1c-0.8-1.4-1.3-2.1-2.4-3.2L106.3,88.6z"/>
		<path class="st2" d="M126,95.8c-1.5,0.3-2.9,0.4-4.6,0.5c0.5,0.9,1,1.7,1.8,2.7l-1.8,1.2c-0.9-1.1-1.6-2.4-2.2-3.7
			c-0.7,0-1.2,0-1.7,0l-6.3,0v-1.7l6,0h1.5c-0.2-0.6-0.3-1.1-0.5-1.9c-0.5,0-0.6,0-1.3,0h-5v-1.8h4.8c0.6,0,0.9,0,1.2,0
			c-0.1-1-0.2-1.4-0.2-2.1l2.1,0c0,0.8,0.1,1.4,0.2,2.1c1.9-0.1,3.5-0.3,4.6-0.5l0.2,1.8c-1.2,0.2-2.6,0.4-4.5,0.5
			c0.1,0.7,0.3,1.3,0.5,1.9c2.1-0.1,3.6-0.3,5.1-0.6L126,95.8z M115.5,98.9c-0.4,0.4-0.8,0.9-0.8,1.5c0,1.5,2.5,1.8,5.1,1.8
			c1.7,0,3-0.1,4.4-0.2l0.1,2c-0.9,0.1-2.1,0.1-3.7,0.1c-3.5,0-4.8-0.2-5.9-0.7c-1.4-0.6-2-1.7-2-2.7c0-0.8,0.3-1.6,1.3-2.7
			L115.5,98.9z"/>
		<path class="st2" d="M133.9,97.6c0.2-0.3,0.4-0.6,0.7-1c-0.8,0.3-1.3,0.4-1.9,0.5l-0.7-1.6c1.4-0.3,5.5-1.1,5.9-4.5h-1.5
			c-1,1.3-1.5,1.7-2.1,2.2l-1.2-1.1c1.2-1,2.6-2.6,3.1-4.1l1.7,0.3c-0.2,0.4-0.3,0.7-0.5,1.2h7.3v1.5c-0.4,0.9-1.3,2.2-1.9,3l-1.4-1
			c1-1.1,1.2-1.6,1.4-1.9h-3.2c0,0.1,0,0.3-0.1,0.6c0.2,1,1.5,3.1,5.6,3.7l-0.8,1.8c-4-0.9-5.3-3.3-5.5-3.7
			c-0.9,1.4-2.3,2.3-3.4,2.8l1.3,0.2c-0.2,0.3-0.4,0.6-0.8,1.2h9.1v1.6h-3c-0.3,0.5-0.8,1.5-2.2,2.7c2.8,0.7,3.9,1.3,4.5,1.6
			L143,105c-0.6-0.3-1.8-1-5-1.9c-1.4,0.7-4.4,1.5-8.8,1.7l-0.6-1.7c1.8,0,4.2-0.2,6.7-0.8c-2.9-0.7-4.2-0.8-5-0.9
			c0.5-0.4,1.3-1,2.4-2.3H128v-1.6H133.9z M133.1,93.7c-1,0.9-2.4,2.1-4.5,3.2l-0.6-1.7c1.7-0.9,2.8-1.6,4.2-2.8L133.1,93.7z
			 M129.6,88.2c0.5,0.2,2.2,0.8,3.5,1.7l-1,1.5c-0.9-0.6-1.7-1-3.5-1.8L129.6,88.2z M134.6,99.2c-0.7,0.8-1,1.1-1.4,1.5
			c0.7,0.1,1.7,0.1,4.4,0.7c1.3-0.8,1.8-1.5,2.3-2.2H134.6z"/>
		<path class="st2" d="M160.8,90.5v1.7H153c-0.4,1-0.6,1.5-1,2.3c1.1-0.6,1.7-0.9,2.6-0.9c1.5,0,2.4,0.6,2.8,2
			c0.8-0.3,2.9-1.1,4.3-1.6l0.5,1.9c-2.5,0.6-4.3,1.3-4.5,1.4c0.1,0.8,0.1,1.7,0.1,1.9c0,0.6,0,0.9-0.1,1.3h-1.9
			c0.1-1.2,0.1-2.1,0.1-2.5c-1.9,0.9-3.1,1.8-3.1,2.9c0,1.4,1.8,1.4,3.7,1.4c0.4,0,2.6,0,4.7-0.3l0.1,1.9c-1.2,0.1-2.8,0.1-4.2,0.1
			c-2.1,0-6.3,0-6.3-3c0-2.5,3.4-4.2,4.9-4.8c-0.2-0.6-0.4-1.1-1.4-1.1c-1.1,0-2.3,0.7-3.2,1.6c-0.1,0.1-2.2,2.9-2.7,3.3l-1.4-1.4
			c2.1-2,3.1-3.9,4.1-6.4h-3.5v-1.7h4c0.2-0.7,0.3-1.2,0.4-1.9l2.1,0.1c-0.1,0.7-0.2,1-0.4,1.8H160.8z"/>
		<path class="st2" d="M170.1,102.2c-0.7-0.9-1.2-1.7-1.8-3.1c-0.7,3.6-2.5,5.3-3.3,6l-1.1-1.6c2.1-2,2.7-4,3-6.5h-2.7v-1.7h2.8
			c0-0.4,0-1.5,0-2.3v-0.5h-2.6v-1.8h2.6v-2.5h1.8v2.5h2.3v1.8h-2.3v0.4c0,0.6,0,1.6,0,2.3h2.6v1.7h-2.5c0.2,0.6,1.1,2.7,2.7,4.1
			L170.1,102.2z M180.2,88.8V99H178v3.7c0,0.3,0.2,0.4,0.3,0.4h0.3c0.3,0,0.4-0.1,0.5-0.3c0.1-0.5,0.1-0.7,0.1-1.7l1.7,0.3
			c-0.1,2.5-0.2,3.5-1.3,3.5h-2.4c-0.8,0-1-0.6-1-1.2V99h-1c-0.3,2.7-1.9,4.9-4.6,6l-1.1-1.6c2.1-0.7,3.8-2.2,4.1-4.4h-1.8V88.8
			H180.2z M173.7,90.3v1.3h4.8v-1.3H173.7z M173.7,93.1v1.4h4.8v-1.4H173.7z M173.7,96v1.4h4.8V96H173.7z"/>
		<path class="st2" d="M189.6,95H185v-1.8h11V95h-4.6v2.6h5.6v1.8h-5.6v3.3c0.5,0.1,0.9,0.1,1.2,0.1h6.5l-0.4,1.8h-6.9
			c-1.9,0-4-0.4-6.2-3.2c-0.5,1.1-1.2,2.4-2.6,3.5l-1.2-1.7c1.7-1.4,3-4.2,3.3-7.2l1.9,0.3c-0.2,1.5-0.4,2.4-0.7,3.3
			c1.2,1.6,2.1,2.3,3.2,2.6V95z M191.5,88v1.6h7.1v4.1h-1.9v-2.3h-12.3v2.3h-1.9v-4.1h7V88H191.5z"/>
		<path class="st2" d="M205.5,89.1c-0.2,3.8-0.3,7.8-0.3,8.8c0,2.2,0.2,4.3,3.3,4.3c4.5,0,5-3.3,5.5-5.8l1.9,0.8c-0.6,3.3-2,7-7.4,7
			c-4.9,0-5.4-3.1-5.4-6.3c0-1.4,0.1-7.5,0.1-8.8L205.5,89.1z"/>
		<path class="st2" d="M234,91.8c-0.7,0-1.2-0.1-1.7-0.1c-0.9,0-1.4,0.1-1.9,0.2c-2.6,0.8-5.9,3.6-5.9,6.5c0,2.3,1.8,2.8,3.5,3.2
			c1.3,0.2,3.1,0.3,4.5,0.3l-0.4,2.2c-3.6-0.1-9.7-0.3-9.7-5.5c0-3.5,3.2-5.7,4.8-6.7c-1.9,0.1-6.5,0.5-8.2,0.6l-0.1-2.2
			c1.2,0,6.2-0.3,7.3-0.4c2.8-0.1,4.8-0.2,7.8-0.2L234,91.8z"/>
		<path class="st2" d="M92.8,127.6c4.3-2.6,5-5.9,5.5-8.6h-4.8v-1.9h5c0.1-1.2,0.1-1.9,0.1-3.2l2.1,0c0,1.2-0.1,1.7-0.2,3.2h6.7v3
			c0,0.5,0,5.5-0.7,7.3c-0.7,1.6-2.4,1.6-3.2,1.6c-1.4,0-2.2-0.1-2.8-0.2l-0.1-2c0.8,0.1,1.6,0.3,2.6,0.3c1.2,0,1.5-0.4,1.7-1.1
			c0.3-1,0.4-3.8,0.4-5.5V119h-4.9c-0.4,2.5-1.3,7.1-6.2,10.1L92.8,127.6z"/>
		<path class="st2" d="M111.1,120.1c2.2-1.3,3.7-3,4.7-5.4h9.6c-0.3,2.9-1.2,11.7-12.1,14.5l-1-1.8c4.5-1,6.9-3.3,7.6-4.1
			c-1.5-1.2-2.9-2.2-5.3-3.4c-0.5,0.5-1,1-2.2,1.7L111.1,120.1z M117.2,116.6c-0.6,1.1-1,1.5-1.4,2c0.8,0.4,3.2,1.5,5.3,3.3
			c0.9-1.4,1.6-2.9,1.9-5.3H117.2z"/>
		<path class="st2" d="M138.3,119.6h5.7v1.9h-5.7c-0.4,5.4-4,6.9-7.6,7.7l-0.9-1.8c5.2-1,6.2-2.8,6.4-5.9h-7.1v-1.9h7.2v-2.5
			c-3.3,0.4-5.1,0.4-6.1,0.4l-0.4-1.8c4.2,0,8.4-0.5,11.8-1.7l1,1.8c-1.8,0.5-2.9,0.8-4.4,1V119.6z"/>
		<path class="st2" d="M150.4,114.3c-0.3,1.3-0.8,3.7-0.8,8.2c0,2.1,0.1,4.3,0.5,6.4l-2.1,0.2c-0.2-1.1-0.5-2.8-0.5-6.2
			c0-2.9,0.2-5.8,0.7-8.7L150.4,114.3z M155,122.1c-0.5,0.8-0.9,1.6-0.9,2.3c0,1.5,1.8,1.7,3.5,1.7c1.4,0,2.9-0.1,4.2-0.2v2.1
			c-1,0.1-2.1,0.2-3.3,0.2c-3,0-6.2-0.3-6.2-3.5c0-0.6,0.1-1.7,0.9-3.1L155,122.1z M161.4,115.5v2h-8.6v-2H161.4z"/>
		<path class="st2" d="M180.1,115.7v1.9h-4.7v3.6c0.1,0.5,0.3,1.3,0.3,2.4c0,5.1-4.8,5.6-7.5,5.7l-0.6-1.8c5.2,0.1,5.9-1.8,6.1-3.1
			c-0.4,0.9-1.2,1.4-2.5,1.4c-2.2,0-3.4-1.7-3.4-3.5c0-2.2,1.6-3.7,3.7-3.7c0.9,0,1.4,0.3,1.8,0.6l0-1.6h-8.6v-1.9h8.6l0-1.9h2.1
			v1.9H180.1z M173.6,121.6c-0.2-0.9-0.7-1.5-1.8-1.5c-1,0-2,0.6-2,2c0,1.2,0.8,2.1,1.8,2.1c1.2,0,1.9-0.8,1.9-1.9V121.6z"/>
		<path class="st2" d="M194.6,115.9c-1.4,1.1-3.2,2.4-4.7,3.7c0.7-0.2,1.6-0.5,2.7-0.5c2.5,0,4.9,1.4,4.9,4.6c0,3.5-3,5.5-6.5,5.5
			c-3.1,0-4.7-1.4-4.7-3.1c0-1.5,1.4-2.7,3.2-2.7c1.4,0,3.6,0.8,4.3,3.3c1.3-0.7,1.7-2,1.7-3c0-1.3-0.7-3-3.6-3
			c-3.1,0-5.3,1.8-7.8,4.1l-1.2-1.7c0.5-0.4,3.8-2.9,8.4-7c-2.1,0.2-3.5,0.2-6.5,0.3v-2c4.2,0,5.9,0,9.8-0.2V115.9z M189.4,125
			c-1,0-1.4,0.6-1.4,1c0,0.8,0.9,1.6,2.8,1.6c0.4,0,0.9-0.1,1.3-0.1C191.8,126.1,190.9,125,189.4,125z"/>
	</g>
</g>
<g>
	<g>
		<path class="st3" d="M28.1,189c0.6-0.1,1.2-0.2,2.4-0.2c4.7,0,6.7,2.5,6.7,5.3c0,4.6-5,5-6.6,5.1l-0.5-1.8
			c1.8-0.1,5.1-0.4,5.1-3.5c0-2.3-1.7-2.8-2.9-3.2c-1.4,5.2-4.6,7.6-7.2,7.6c-1.9,0-3.1-1.4-3.1-3.4c0-2.8,2.1-4.6,4.2-5.4
			c0-0.8,0-1.4,0-2v-0.2h-3.6v-1.8h3.6l0-1.7l2,0l0,1.7h8.4v1.8h-8.4L28.1,189z M26.3,191.3c-1.2,0.6-2.5,1.8-2.5,3.4
			c0,0.8,0.3,1.7,1.4,1.7c0.9,0,1.5-0.4,1.9-0.6C26.6,194.5,26.4,192.6,26.3,191.3z M30.5,190.4c-1.1,0-1.7,0.1-2.4,0.3
			c0.1,1.3,0.2,2.5,0.5,3.8C29.5,193.4,30.1,191.8,30.5,190.4z"/>
		<path class="st3" d="M51.6,185.9c-1.4,1.1-3.2,2.4-4.7,3.7c0.7-0.2,1.6-0.5,2.7-0.5c2.5,0,4.9,1.4,4.9,4.6c0,3.5-3,5.5-6.5,5.5
			c-3.1,0-4.7-1.4-4.7-3.1c0-1.5,1.4-2.7,3.2-2.7c1.4,0,3.6,0.8,4.3,3.3c1.3-0.7,1.7-2,1.7-3c0-1.3-0.7-3-3.6-3
			c-3.1,0-5.3,1.8-7.8,4.1l-1.2-1.7c0.5-0.4,3.8-2.9,8.4-7c-2.1,0.2-3.5,0.2-6.5,0.3v-2c4.2,0,5.9,0,9.8-0.2V185.9z M46.4,195
			c-1,0-1.4,0.6-1.4,1c0,0.8,0.9,1.6,2.8,1.6c0.4,0,0.9-0.1,1.3-0.1C48.8,196.1,47.9,195,46.4,195z"/>
		<path class="st3" d="M72.5,197c-2-1.6-3.8-3.4-6.4-6c-1.9-1.9-2.2-2.1-2.7-2.1c-0.5,0-0.8,0.3-1.6,1.2c-0.9,1-2.2,2.7-3.1,3.7
			l-1.4-1.8c0.7-0.6,3.4-3.5,4-4.1c0.8-0.7,1.4-1,2.2-1c1.2,0,1.9,0.6,3.7,2.3c0.9,0.9,3.3,3,4.4,3.9c1,0.9,1.6,1.3,2.4,1.9
			L72.5,197z M68.8,185.1c1,1,1.5,1.7,2.4,3.1l-1.2,1c-0.8-1.4-1.4-2.1-2.4-3.2L68.8,185.1z M71.3,183.6c1,1,1.6,1.8,2.4,3.1l-1.2,1
			c-0.8-1.4-1.3-2.1-2.4-3.2L71.3,183.6z"/>
		<path class="st3" d="M91,190.8c-1.5,0.3-2.9,0.4-4.6,0.5c0.5,0.9,1,1.7,1.8,2.7l-1.8,1.2c-0.9-1.1-1.6-2.4-2.2-3.7
			c-0.7,0-1.2,0-1.7,0l-6.3,0v-1.7l6,0h1.5c-0.2-0.6-0.3-1.1-0.5-1.9c-0.4,0-0.6,0-1.3,0h-5v-1.8h4.8c0.6,0,0.9,0,1.2,0
			c-0.1-1-0.2-1.4-0.2-2.1l2.1,0c0,0.8,0.1,1.4,0.2,2.1c1.9-0.1,3.5-0.3,4.6-0.5l0.2,1.8c-1.2,0.2-2.6,0.4-4.5,0.5
			c0.1,0.7,0.3,1.3,0.5,1.9c2.1-0.1,3.6-0.3,5.1-0.6L91,190.8z M80.5,193.9c-0.4,0.4-0.8,0.9-0.8,1.5c0,1.5,2.5,1.8,5.1,1.8
			c1.7,0,3-0.1,4.4-0.2l0.1,2c-0.9,0.1-2.1,0.1-3.7,0.1c-3.5,0-4.8-0.2-5.9-0.7c-1.4-0.6-2-1.7-2-2.7c0-0.8,0.3-1.6,1.3-2.7
			L80.5,193.9z"/>
		<path class="st3" d="M98.9,192.6c0.2-0.3,0.4-0.6,0.7-1c-0.8,0.3-1.3,0.4-1.9,0.5l-0.7-1.6c1.4-0.3,5.5-1.1,5.9-4.5h-1.5
			c-1,1.3-1.5,1.7-2.1,2.2l-1.2-1.1c1.2-1,2.6-2.6,3.1-4.1l1.7,0.3c-0.2,0.4-0.3,0.7-0.5,1.2h7.3v1.5c-0.4,0.9-1.3,2.2-1.9,3l-1.4-1
			c1-1.1,1.2-1.6,1.4-1.9h-3.2c0,0.1,0,0.3-0.1,0.6c0.2,1,1.5,3.1,5.6,3.7l-0.8,1.8c-4-0.9-5.3-3.3-5.5-3.7
			c-0.9,1.4-2.3,2.3-3.4,2.8l1.3,0.2c-0.2,0.3-0.4,0.6-0.8,1.2h9.1v1.6h-3c-0.3,0.5-0.8,1.5-2.2,2.7c2.8,0.7,3.9,1.3,4.5,1.6
			L108,200c-0.6-0.3-1.8-1-5-1.9c-1.4,0.7-4.4,1.5-8.8,1.7l-0.6-1.7c1.8,0,4.2-0.2,6.7-0.8c-2.9-0.7-4.2-0.8-5-0.9
			c0.5-0.4,1.3-1,2.4-2.3H93v-1.6H98.9z M98.1,188.7c-1,0.9-2.4,2.1-4.5,3.2l-0.6-1.7c1.7-0.9,2.8-1.6,4.2-2.8L98.1,188.7z
			 M94.6,183.2c0.5,0.2,2.2,0.8,3.5,1.7l-1,1.5c-0.9-0.6-1.7-1-3.5-1.8L94.6,183.2z M99.6,194.2c-0.7,0.8-1,1.1-1.4,1.5
			c0.7,0.1,1.7,0.1,4.4,0.7c1.3-0.8,1.8-1.5,2.3-2.2H99.6z"/>
		<path class="st3" d="M119.4,197.1c1.9-0.2,5.9-0.8,5.9-5.7c0-2-0.8-5-4.9-5.2c-0.6,8-3,11.3-5.4,11.3c-2.1,0-3.4-2.4-3.4-5.2
			c0-5.1,3.7-8.1,8.4-8.1c5.6,0,7.5,3.7,7.5,7.1c0,6.8-6.1,7.4-7.4,7.5L119.4,197.1z M113.5,192.5c0,1,0.4,3,1.5,3
			c0.7,0,1.2-0.6,1.6-1.4c1.2-2.2,1.6-5,1.8-7.7C115.3,187,113.5,189.5,113.5,192.5z"/>
		<path class="st3" d="M65,211.2v1.6H48.1v-1.6H65z M63.4,218.8v5.7H49.7v-5.7H63.4z M63.1,213.8v1.6H50v-1.6H63.1z M63.1,216.3v1.6
			H50v-1.6H63.1z M63,208.7v1.6H50.1v-1.6H63z M61.6,220.3H51.5v2.7h10.1V220.3z"/>
		<path class="st3" d="M73,211.3v1.6h-6.9v-1.6H73z M72.4,208.7v1.6h-5.8v-1.6H72.4z M72.4,213.9v1.7h-5.8v-1.7H72.4z M72.4,216.5
			v1.6h-5.8v-1.6H72.4z M72.4,219.2v5.5h-5.8v-5.5H72.4z M70.6,220.7h-2.3v2.4h2.3V220.7z M81.9,211.8v3.8H83v1.6H73v-1.6H75
			c0.3-1,0.5-1.5,0.6-2.1h-2.1v-1.6h2.5c0.1-0.5,0.1-0.8,0.2-1.4h-3.1v-1.7h9.5v1.7h-4.6c-0.1,0.5-0.1,0.6-0.3,1.4H81.9z
			 M82.2,224.6h-8.6v-6.2h8.6V224.6z M80.4,220h-5.1v3h5.1V220z M77.5,213.4c-0.2,0.8-0.3,1.2-0.6,2.1h3.2v-2.1H77.5z"/>
		<path class="st3" d="M86.3,215.8c-0.8,1-1.1,1.3-1.5,1.7l-1-2.1c2.2-2.4,3.3-4.4,4-7.2l1.9,0.2c-0.2,0.8-0.6,2.1-1.5,4.1V225h-1.9
			V215.8z M93.8,208.1v6.3c0.8-0.3,3.4-1.4,5.7-3.2l1.3,1.7c-2,1.4-5.1,2.8-7,3.5v5.7c0,0.5,0,0.7,0.7,0.7h3.9
			c0.5,0,0.6-0.2,0.7-0.4c0.1-0.3,0.2-2.4,0.2-2.8l1.9,0.5c0,0.8-0.1,3.1-0.5,3.7c-0.4,0.7-0.9,0.9-1.7,0.9h-5.1
			c-0.5,0-1.8,0-1.8-1.7v-14.9H93.8z"/>
	</g>
</g>
<g>
	<g>
		<path class="st3" d="M34.3,307.4c-4.2-1.7-6.9-4.7-7.8-5.8c-1.9,2.4-4.8,4.6-7.9,5.8l-0.9-1.8c3.5-1.2,6.5-3.5,7.9-5.5h2
			c1,1.4,2.9,3.6,7.7,5.5L34.3,307.4z M33.4,308.3v1.8h-5.7v4.6h6.8v1.8H18.5v-1.8h2.2v-7.2h1.9v7.2h3.3v-9.8h1.9v3.5H33.4z"/>
		<path class="st3" d="M51.9,316.7c-1.9-0.6-4.2-1.5-6.5-3.6v3.8h-1.8v-3.8c-1.2,1-2.7,2.2-6.5,3.5l-0.9-1.6
			c3.7-1.1,5.3-2.2,6.1-2.8h-6.1v-1.5h7.5v-1.1h-6.2v-1.4h6.2v-1.1H37v-1.5h3.7c-0.1-0.3-0.3-1.1-0.5-1.4h-4.1v-1.5H39
			c-0.1-0.3-0.7-1.5-1-2.2l1.9-0.5c0.5,0.9,0.7,1.6,1.1,2.8H42v-2.6h1.8v2.6h1.6v-2.6h1.8v2.6h1.2c0.3-0.7,0.8-2,1-2.8l1.9,0.5
			c-0.1,0.2-0.5,1.3-1,2.2h2.8v1.5h-4.1c-0.1,0.2-0.4,1.2-0.5,1.4h3.9v1.5h-6.8v1.1h6.3v1.4h-6.3v1.1h7.5v1.5h-6.1
			c2.1,1.6,4,2.2,6.2,2.8L51.9,316.7z M46.4,305.8c0.1-0.3,0.3-0.7,0.4-1.4h-4.7c0.1,0.2,0.4,1.2,0.5,1.4H46.4z"/>
		<path class="st3" d="M65.9,302.3l2.3,2.7c-0.5,2.5-1,4.7-2.9,7c-1.3,1.5-3.8,3.5-7.8,4.1l-0.9-1.9c7-1.2,8.9-5.2,9.6-9.9H55.2v-2
			H65.9z M67,300c0.9,1,1.4,1.9,2.1,3.2L68,304c-0.7-1.4-1.1-2.1-2.1-3.3L67,300z M69.6,299.4c0.8,1,1.3,1.9,2,3.3l-1.2,0.8
			c-0.6-1.4-1-2.1-1.9-3.3L69.6,299.4z"/>
		<path class="st3" d="M87.6,305.7c-0.8,7.1-4.1,9.6-11.6,10.4l-0.6-1.9c3.1-0.2,5.3-0.8,6.7-1.7c1-0.6,2.6-2.2,3.1-4.9H73.3v-1.9
			H87.6z M86.5,301.5v1.9H74.6v-1.9H86.5z"/>
		<path class="st3" d="M97,306.3c-1.2-0.8-2.9-1.8-5.6-2.6l1-1.8c3,0.9,4.8,2,5.7,2.5L97,306.3z M91.8,313.6
			c7.1-0.5,10.8-3.9,12.8-10.8l1.8,1.3c-1,2.9-3.6,10.9-14.2,11.7L91.8,313.6z"/>
		<path class="st3" d="M122.4,311.3c-2.9-1.8-4.8-2.8-7.6-3.8v8.8h-2.2v-15.4h2.2v4.5c4.2,1.3,7.5,3.1,8.6,3.8L122.4,311.3z
			 M119.5,301.4c0.8,1.1,1.4,2.1,1.9,3.4l-1.4,0.8c-0.5-1.4-1-2.3-1.9-3.5L119.5,301.4z M122.1,300.2c0.8,1,1.3,1.9,2,3.4l-1.4,0.8
			c-0.6-1.5-1-2.2-1.9-3.5L122.1,300.2z"/>
		<path class="st3" d="M23.9,327.5V340h-13v-2h10.8v-8.6H11.1v-1.9H23.9z"/>
		<path class="st3" d="M34,331.3c-1.2-0.8-2.9-1.8-5.6-2.6l1-1.8c3,0.9,4.8,2,5.7,2.5L34,331.3z M28.8,338.6
			c7.1-0.5,10.8-3.9,12.8-10.8l1.8,1.3c-1,2.9-3.6,10.9-14.2,11.7L28.8,338.6z"/>
		<path class="st3" d="M46,332.1l-0.1-2l3.8-0.3v-3.9h2v3.7l9.2-0.8c-0.4,3.8-2,6.1-5.4,7.7l-1.2-1.6c2.9-1.1,3.6-2.6,4.1-4.1
			l-6.7,0.6v5.6c0,1.5,0.5,1.7,2,1.7h3.8c0.9,0,2.1-0.1,3.1-0.3l0,2c-0.6,0.1-1.4,0.2-3,0.2h-4.1c-3.4,0-3.8-1.7-3.8-3.4v-5.6
			L46,332.1z"/>
		<path class="st3" d="M74.8,327.3l2.3,2.7c-0.5,2.7-1.1,4.8-2.9,6.9c-1.1,1.3-3.5,3.5-7.8,4.2l-0.9-1.9c7.1-1.2,8.9-5.3,9.6-9.9
			H64.1v-2H74.8z M80.7,326.9c0,1.4-1.1,2.5-2.5,2.5c-1.4,0-2.5-1.1-2.5-2.5c0-1.4,1.1-2.5,2.5-2.5
			C79.6,324.4,80.7,325.5,80.7,326.9z M76.9,326.9c0,0.7,0.6,1.3,1.3,1.3s1.3-0.6,1.3-1.3s-0.6-1.3-1.3-1.3
			C77.5,325.6,76.9,326.2,76.9,326.9z"/>
		<path class="st3" d="M95.7,336.2c-1.2-0.8-3.7-2.4-7.6-3.8v8.8h-2.2v-15.4h2.2v4.4c4,1.3,7.1,3,8.6,3.8L95.7,336.2z"/>
		<path class="st3" d="M98.7,335.7c1.5-1.7,2.1-4.1,2.4-5.5h-2v-1.7h2.2v-3.4h1.7v3.4h1.6v1.7h-1.6v0.5c0.5,1.5,1.2,2.4,2.1,3.4
			l-0.9,1.7c-0.7-1.1-0.9-1.5-1.3-2.4v8.6h-1.7v-8.1c-0.4,1.6-0.8,3-1.8,4.3L98.7,335.7z M107.2,325.1h1.7v0.9h2.7v-0.9h1.7v0.9h2.3
			v1.4h-2.3v1h1.6v1.2h-1.6v1.1h2.7v1.4h-5v0.9h4v4.8h1v1.4h-1v1.6c0,0.7-0.2,1.3-1.5,1.3h-2.4l-0.1-1.6h1.7c0.6,0,0.6-0.1,0.6-0.5
			v-0.8h-6.2v2.9h-1.7v-2.9h-1.2v-1.4h1.2V333h4v-0.9h-4.9v-1.4h2.6v-1.1h-1.8v-1.2h1.8v-1h-2.4V326h2.4V325.1z M107.1,334.3v1.1
			h2.4v-1.1H107.1z M107.1,336.6v1.2h2.4v-1.2H107.1z M108.9,327.4v1h2.7v-1H108.9z M108.9,329.6v1.1h2.7v-1.1H108.9z M111,334.3
			v1.1h2.3v-1.1H111z M111,336.6v1.2h2.3v-1.2H111z"/>
		<path class="st3" d="M123.7,333.9c-1.2,0.3-5.2,0.9-6.4,1l-0.3-1.7c0.2,0,2.6-0.3,3-0.3v-1.8h-2.1v-1.4h0.1l-1.1-1.2
			c0.5-0.4,2-1.6,2.7-3.5l1.8,0.3c-0.1,0.2-0.1,0.3-0.3,0.8h4.2v1.4h-2.7c0.2,0.3,0.3,0.6,0.5,0.9l-1.8,0.6
			c-0.1-0.4-0.4-1.2-0.6-1.6h-0.5c-0.1,0.2-0.8,1.3-1.9,2.2h5.5v1.4h-2.1v1.6c1.2-0.1,1.6-0.2,2.1-0.3v1c1.5-0.9,1.6-1.9,1.7-4.1
			h6.5v3.3c0,0.3,0.1,0.4,0.2,0.4c0.4,0,0.4,0,0.5-0.5c0-0.1,0-0.8,0-1l1.5,0.4c-0.1,1.9-0.1,2.5-1.1,2.5h-1.7
			c-0.6,0-1.1-0.3-1.1-1.2v-2.6h-3.2c0,0.7-0.2,2.8-2.2,4.1h1.5v0.7h7.6v1.5h-6.1c0.8,0.7,2,1.6,6.4,2.6l-0.8,1.7
			c-2.6-0.7-5-1.8-7.1-3.6v4.1h-1.7v-4.1c-2.1,2.1-5.1,3.2-7,3.6l-0.7-1.7c2.3-0.4,4.9-1.5,6.3-2.6h-6.2v-1.5h7.5v-0.6L123.7,333.9z
			 M127.7,327.6c-0.6,0.9-0.9,1.3-1.3,1.6l-1.5-1.1c1.2-1,1.7-2,2-3l1.8,0.3c-0.1,0.3-0.2,0.5-0.3,0.7h5.6v1.4h-3.6
			c0.2,0.3,0.3,0.6,0.5,0.9l-1.6,0.7c-0.1-0.4-0.5-1.2-0.7-1.6H127.7z M128.3,331.2c0.9,0.8,1.4,1.3,1.9,1.9l-1.2,1.1
			c-0.3-0.3-1-1.2-1.8-1.9L128.3,331.2z"/>
	</g>
</g>
<g>
	<g>
		<path class="st3" d="M184.3,307.4c-4.2-1.7-6.9-4.7-7.8-5.8c-1.9,2.4-4.8,4.6-7.9,5.8l-0.9-1.8c3.5-1.2,6.5-3.5,7.9-5.5h2
			c1,1.4,2.9,3.6,7.7,5.5L184.3,307.4z M183.4,308.3v1.8h-5.7v4.6h6.8v1.8h-16.1v-1.8h2.2v-7.2h1.9v7.2h3.3v-9.8h1.9v3.5H183.4z"/>
		<path class="st3" d="M201.9,316.7c-1.9-0.6-4.2-1.5-6.5-3.6v3.8h-1.8v-3.8c-1.2,1-2.7,2.2-6.5,3.5l-0.9-1.6
			c3.7-1.1,5.3-2.2,6.1-2.8h-6.1v-1.5h7.5v-1.1h-6.2v-1.4h6.2v-1.1H187v-1.5h3.7c-0.1-0.3-0.3-1.1-0.5-1.4h-4.1v-1.5h2.8
			c-0.1-0.3-0.7-1.5-1-2.2l1.9-0.5c0.5,0.9,0.7,1.6,1.1,2.8h1.1v-2.6h1.8v2.6h1.6v-2.6h1.8v2.6h1.2c0.3-0.7,0.8-2,1-2.8l1.9,0.5
			c-0.1,0.2-0.5,1.3-1,2.2h2.8v1.5h-4.1c-0.1,0.2-0.4,1.2-0.5,1.4h3.9v1.5h-6.8v1.1h6.3v1.4h-6.3v1.1h7.5v1.5h-6.1
			c2.1,1.6,4,2.2,6.2,2.8L201.9,316.7z M196.4,305.8c0.1-0.3,0.3-0.7,0.4-1.4h-4.7c0.1,0.2,0.4,1.2,0.5,1.4H196.4z"/>
		<path class="st3" d="M215.9,302.3l2.3,2.7c-0.5,2.5-1,4.7-2.9,7c-1.3,1.5-3.8,3.5-7.8,4.1l-0.9-1.9c7-1.2,8.9-5.2,9.6-9.9h-10.9
			v-2H215.9z M217,300c0.9,1,1.4,1.9,2.1,3.2L218,304c-0.7-1.4-1.1-2.1-2.1-3.3L217,300z M219.6,299.4c0.8,1,1.3,1.9,2,3.3l-1.2,0.8
			c-0.6-1.4-1-2.1-1.9-3.3L219.6,299.4z"/>
		<path class="st3" d="M237.6,305.7c-0.8,7.1-4.1,9.6-11.6,10.4l-0.6-1.9c3.1-0.2,5.3-0.8,6.7-1.7c1-0.6,2.6-2.2,3.1-4.9h-11.9v-1.9
			H237.6z M236.5,301.5v1.9h-11.9v-1.9H236.5z"/>
		<path class="st3" d="M247,306.3c-1.2-0.8-2.9-1.8-5.6-2.6l1-1.8c3,0.9,4.8,2,5.7,2.5L247,306.3z M241.8,313.6
			c7.1-0.5,10.8-3.9,12.8-10.8l1.8,1.3c-1,2.9-3.6,10.9-14.2,11.7L241.8,313.6z"/>
		<path class="st3" d="M272.4,311.3c-2.9-1.8-4.8-2.8-7.6-3.8v8.8h-2.2v-15.4h2.2v4.5c4.2,1.3,7.5,3.1,8.6,3.8L272.4,311.3z
			 M269.5,301.4c0.8,1.1,1.4,2.1,1.9,3.4l-1.4,0.8c-0.5-1.4-1-2.3-1.9-3.5L269.5,301.4z M272.1,300.2c0.8,1,1.3,1.9,2,3.4l-1.4,0.8
			c-0.6-1.5-1-2.2-1.9-3.5L272.1,300.2z"/>
		<path class="st3" d="M169.9,339.5c4.9-0.8,5.9-2.8,6-6.5h-6.8v-1.9h14.7v1.9H178c-0.2,5.7-2.9,7.5-7.2,8.3L169.9,339.5z
			 M180.5,326.5v1.9h-9.9v-1.9H180.5z M182,325c0.6,1.2,0.8,2.2,1.1,3.7l-1.4,0.5c-0.2-1.5-0.5-2.4-1-3.7L182,325z M184.6,324.6
			c0.6,1.2,0.8,2.2,1.1,3.7l-1.4,0.5c-0.2-1.5-0.5-2.3-1-3.7L184.6,324.6z"/>
		<path class="st3" d="M191.6,335.9h-2v-4.6h-2.8v-1.9h2.8v-3.3h2v3.3h5.3V326h1.8l0.1,3.4h3.2v1.9h-3.1v2.1c0,3-0.8,7-8.1,7.9
			l-0.8-1.9c6.8-0.6,6.8-4.4,6.8-6.1v-2.1h-5.3V335.9z M200.2,324.7c0.5,1.3,0.7,2.2,0.9,3.7l-1.4,0.3c-0.2-1.5-0.3-2.3-0.8-3.7
			L200.2,324.7z M202.7,324.4c0.5,1.3,0.7,2.3,0.9,3.7l-1.4,0.3c-0.2-1.5-0.4-2.4-0.8-3.7L202.7,324.4z"/>
		<path class="st3" d="M214.6,341.2h-2.1v-8c-3,1.9-4.9,2.6-6.7,3.3l-1-1.8c5.1-1.6,9.5-4.7,12.9-8.9l1.8,1.2
			c-1.4,1.7-2.6,2.8-4.9,4.7V341.2z"/>
		<path class="st3" d="M229,331.3c-1.2-0.8-2.9-1.8-5.6-2.6l1-1.8c3,0.9,4.8,2,5.7,2.5L229,331.3z M223.8,338.6
			c7.1-0.5,10.8-3.9,12.8-10.8l1.8,1.3c-1,2.9-3.6,10.9-14.2,11.7L223.8,338.6z"/>
		<path class="st3" d="M240.8,325.7h6.8v6.1h-5.1V342h-1.8V325.7z M242.6,327v1.1h3.3V327H242.6z M242.6,329.3v1.1h3.3v-1.1H242.6z
			 M245.8,336.2c0-0.1,0-0.2,0-0.3v-1.6h-2v-1.5h9.6v1.5h-1.8v1.9h2.1v1.5h-2.1v4h-1.7v-4h-2.6c-0.2,0.9-0.8,2.7-2.6,4l-1.2-1.3
			c0.6-0.4,1.6-1.3,2-2.7h-2.1v-1.5H245.8z M249.9,336.2v-1.9h-2.4v1.9H249.9z M249.4,325.7h6.9v14.8c0,0.3,0,1.5-1.4,1.5h-2.5
			l-0.3-1.8h2c0.3,0,0.4-0.1,0.4-0.4v-8h-5.1V325.7z M251.2,327v1.1h3.3V327H251.2z M251.2,329.3v1.1h3.3v-1.1H251.2z"/>
		<path class="st3" d="M274.9,327.4c-0.4,0.5-1,1.3-2.4,2.5c0.7,0.4,1.4,0.8,2.8,1.3l-0.7,1.7c-1-0.5-1.5-0.7-2.6-1.3v1.2h-2.3v2h5
			v1.7h-5v2.9c0,0.4,0.2,0.4,0.5,0.4h2.3c0.8,0,0.8-0.5,0.9-2.2l1.8,0.2c-0.3,2.5-0.4,3.7-2,3.7h-3.8c-0.8,0-1.6-0.2-1.6-1.2v-3.9
			h-2.8c-0.6,3.3-3.3,4.8-5.9,5.4l-0.9-1.8c2.8-0.3,4.7-1.9,5-3.6h-4.6v-1.7h4.8v-2h-2.1v-1.1c-0.9,0.5-1.5,0.8-2.4,1.3l-0.9-1.7
			c1-0.3,1.7-0.7,3.1-1.5c-0.3-0.3-1.2-1.1-2.1-1.8l1-0.9h-0.2v-1.5h7.8c0.5,0.7,0.7,1.1,1.2,1.6c0.9-0.8,1.5-1.4,2.1-2.1l1.4,0.9
			c-0.7,0.8-1.5,1.6-2.3,2.4c0.4,0.3,0.6,0.4,1,0.8c1-0.9,1.8-1.7,2.4-2.5L274.9,327.4z M260.4,327.2c1,0.7,2,1.6,2.1,1.7
			c0.9-0.6,1.3-1,1.9-1.7H260.4z M271,331.1c-2.1-1.3-3.8-3.1-4.4-3.9c-0.6,0.8-1.7,2.1-4.3,3.9H271z M267.7,332.9h-2.7v2h2.7V332.9
			z"/>
	</g>
</g>
<g>
	<g>
		<path class="st3" d="M394.6,307.2h-2.1v-8c-3,1.9-4.9,2.6-6.7,3.3l-1-1.8c5.1-1.6,9.5-4.7,12.9-8.9l1.8,1.2
			c-1.4,1.7-2.6,2.8-4.9,4.7V307.2z"/>
		<path class="st3" d="M409,297.3c-1.2-0.8-2.9-1.8-5.6-2.6l1-1.8c3,0.9,4.8,2,5.7,2.5L409,297.3z M403.8,304.6
			c7.1-0.5,10.8-3.9,12.8-10.8l1.8,1.3c-1,2.9-3.6,10.9-14.2,11.7L403.8,304.6z"/>
		<path class="st3" d="M436.1,295.6v2h-6.3c-0.1,3.9-1.1,7.5-7,9.6l-1.2-1.7c5.7-1.7,6-4.9,6-7.8H421v-2h6.7v-3.7h2.1v3.7H436.1z"/>
		<path class="st3" d="M454.3,298.5v2.1h-15.4v-2.1H454.3z"/>
		<path class="st3" d="M367,318.5V331h-10.4v-2h8.7v-8.6h-8.5v-1.9H367z"/>
		<path class="st3" d="M381.3,332.2c-3.1-1.2-5.6-1.9-10.7-2.4l0.3-1.9c3.7,0.2,7.3,0.9,10.9,2.2L381.3,332.2z M380.2,326.1
			c-3-1.1-5.2-1.6-8.7-1.9l0.3-1.8c4.3,0.4,6.7,1.1,8.8,1.8L380.2,326.1z M380.9,320.8c-2.2-0.7-4.9-1.5-9.4-1.8l0.3-1.9
			c3.8,0.3,6.2,0.7,9.4,1.6L380.9,320.8z"/>
		<path class="st3" d="M395.8,329.5v1.8h-10.2v-1.8h6c0.4-2.6,0.5-3.7,0.7-6.5h-5.3v-1.8h6.9c-0.1,3-0.3,5.8-0.7,8.3H395.8z"/>
		<path class="st3" d="M411.2,328.4v2h-12.1v-2H411.2z M410,318.7v2h-9.8v-2H410z"/>
		<path class="st3" d="M414.6,330.5c3-0.8,5.6-2,5.9-8.5h-3.6c-0.5,1.1-1.1,2.4-2.5,3.8l-1.2-1.4c2-1.9,2.9-4.4,3.3-7.5l1.7,0.2
			c-0.2,1.1-0.3,1.8-0.7,3h8.1v1.9h-3.4c-0.4,5.5-1.8,9.1-6.9,10.3L414.6,330.5z"/>
		<path class="st3" d="M440.1,323.5v2.1h-12.4v-2.1H440.1z"/>
		<path class="st3" d="M446.7,325.4c-1.8-1.4-3.3-1.9-4.1-2.2l0.6-1.7c0.8,0.3,2.3,0.7,4.2,2.1L446.7,325.4z M443.3,329.7
			c5.8-0.7,8.1-3.4,9.7-10l1.4,1.3c-2.1,7.7-5,10-10.8,11L443.3,329.7z M447.9,321.1c-1.6-1.2-3.1-1.7-4.2-2.1l0.6-1.7
			c1.6,0.5,2.8,1,4.3,1.9L447.9,321.1z"/>
		<path class="st3" d="M458.8,326.8v-1.7h6.4v-2.7h-6.5v-1.7h8v10.8h-8.2v-1.8h6.7v-3H458.8z"/>
		<path class="st3" d="M475.9,322.3c-0.9-0.8-2.3-1.8-4.5-2.6l0.8-1.8c2.4,0.9,3.9,2,4.6,2.5L475.9,322.3z M471.8,329.6
			c5.7-0.5,8.6-3.9,10.3-10.8l1.4,1.3c-0.8,2.9-2.9,10.9-11.4,11.7L471.8,329.6z"/>
		<path class="st3" d="M405.4,356.2c0.5,0,0.8-0.1,2.1-0.2v-3.6h-2.3c-0.3,2.8-0.6,3.9-1.4,5.5l-1.7-1.1c0.5-0.9,1.4-2.3,1.4-7.3
			v-7.8h14.7v4.5h-2.9v1.4h2.7v1.5h-2.7v1.9h3.5v1.5H417l1,0.9c-0.7,0.7-1.6,1.3-2.3,1.8c1.5,0.7,2.6,1,3.3,1.1l-1,1.7
			c-3.9-1.4-5.5-2.6-7.2-5.5h-1.7v3.3c1.2-0.1,2.2-0.3,3.1-0.5l0.1,1.7c-1.7,0.4-5.1,0.8-6.6,1L405.4,356.2z M408.4,350.9v-1.9h-2.5
			v-1.5h2.5v-1.4h-3.1v3.4c0,0.5,0,1,0,1.4H408.4z M405.3,343.2v1.5h11.1v-1.5H405.3z M410.1,347.6h3.5v-1.4h-3.5V347.6z
			 M410.1,349.1v1.9h3.5v-1.9H410.1z M412.8,352.4c0.3,0.4,0.6,1,1.5,1.7c0.5-0.4,1.7-1.5,1.9-1.7H412.8z"/>
		<path class="st3" d="M420.8,341.7h6.8v6.1h-5.1V358h-1.8V341.7z M422.6,343v1.1h3.3V343H422.6z M422.6,345.3v1.1h3.3v-1.1H422.6z
			 M425.8,352.2c0-0.1,0-0.2,0-0.3v-1.6h-2v-1.5h9.6v1.5h-1.8v1.9h2.1v1.5h-2.1v4h-1.7v-4h-2.6c-0.2,0.9-0.8,2.7-2.6,4l-1.2-1.3
			c0.6-0.4,1.6-1.3,2-2.7h-2.1v-1.5H425.8z M429.9,352.2v-1.9h-2.4v1.9H429.9z M429.4,341.7h6.9v14.8c0,0.3,0,1.5-1.4,1.5h-2.5
			l-0.3-1.8h2c0.3,0,0.4-0.1,0.4-0.4v-8h-5.1V341.7z M431.2,343v1.1h3.3V343H431.2z M431.2,345.3v1.1h3.3v-1.1H431.2z"/>
	</g>
</g>
<g>
	<g>
		<path class="st3" d="M547.9,292.6c-0.6,4.5-2.7,6.3-5.5,7.8l-1.4-1.5c3.1-1.4,3.9-2.8,4.4-4.3h-12.5v-1.9H547.9z M533.1,305.5
			c4.9-2.1,5.6-5.4,5.5-9.3l2.1,0c-0.1,3.6-0.4,8.2-6.3,11L533.1,305.5z"/>
		<path class="st3" d="M565.2,294.5v1.2c0,8.2-4.9,11-11.2,11.5l-0.6-1.9c6-0.6,9.7-2.8,9.7-8.6v-0.3h-9.5v4.2h-2v-6h5.7v-2.7h2.1
			v2.7H565.2z"/>
		<path class="st3" d="M568.9,298.1c2.2-1.3,3.7-3,4.7-5.4h9.6c-0.3,2.9-1.2,11.7-12.1,14.5l-1-1.8c4.5-1,6.9-3.3,7.6-4.1
			c-1.5-1.2-2.9-2.2-5.3-3.4c-0.5,0.5-1,1-2.2,1.7L568.9,298.1z M575,294.6c-0.6,1.1-1,1.5-1.4,2c0.8,0.4,3.2,1.5,5.3,3.3
			c0.9-1.4,1.6-2.9,1.9-5.3H575z"/>
		<path class="st3" d="M602.1,298.5v2.1h-15.4v-2.1H602.1z"/>
		<path class="st3" d="M514.9,318.5V331h-10.4v-2h8.7v-8.6h-8.5v-1.9H514.9z"/>
		<path class="st3" d="M529.2,332.2c-3.1-1.2-5.6-1.9-10.7-2.4l0.3-1.9c3.7,0.2,7.3,0.9,10.9,2.2L529.2,332.2z M528,326.1
			c-3-1.1-5.2-1.6-8.7-1.9l0.3-1.8c4.3,0.4,6.7,1.1,8.8,1.8L528,326.1z M528.8,320.8c-2.2-0.7-4.9-1.5-9.4-1.8l0.3-1.9
			c3.8,0.3,6.2,0.7,9.4,1.6L528.8,320.8z"/>
		<path class="st3" d="M543.7,329.5v1.8h-10.2v-1.8h6c0.4-2.6,0.5-3.7,0.7-6.5h-5.3v-1.8h6.9c-0.1,3-0.3,5.8-0.7,8.3H543.7z"/>
		<path class="st3" d="M559,328.4v2H547v-2H559z M557.9,318.7v2H548v-2H557.9z"/>
		<path class="st3" d="M562.4,330.5c3-0.8,5.6-2,5.9-8.5h-3.6c-0.5,1.1-1.1,2.4-2.5,3.8l-1.2-1.4c2-1.9,2.9-4.4,3.3-7.5l1.7,0.2
			c-0.2,1.1-0.3,1.8-0.7,3h8.1v1.9h-3.4c-0.4,5.5-1.8,9.1-6.9,10.3L562.4,330.5z"/>
		<path class="st3" d="M588,323.5v2.1h-12.4v-2.1H588z"/>
		<path class="st3" d="M594.5,325.4c-1.8-1.4-3.3-1.9-4.1-2.2l0.6-1.7c0.8,0.3,2.3,0.7,4.2,2.1L594.5,325.4z M591.2,329.7
			c5.8-0.7,8.1-3.4,9.7-10l1.4,1.3c-2.1,7.7-5,10-10.8,11L591.2,329.7z M595.7,321.1c-1.6-1.2-3.1-1.7-4.2-2.1l0.6-1.7
			c1.6,0.5,2.8,1,4.3,1.9L595.7,321.1z"/>
		<path class="st3" d="M606.7,326.8v-1.7h6.4v-2.7h-6.5v-1.7h8v10.8h-8.2v-1.8h6.7v-3H606.7z"/>
		<path class="st3" d="M623.8,322.3c-0.9-0.8-2.3-1.8-4.5-2.6l0.8-1.8c2.4,0.9,3.9,2,4.6,2.5L623.8,322.3z M619.6,329.6
			c5.7-0.5,8.6-3.9,10.3-10.8l1.4,1.3c-0.8,2.9-2.9,10.9-11.4,11.7L619.6,329.6z"/>
		<path class="st3" d="M553.2,356.2c0.5,0,0.8-0.1,2.1-0.2v-3.6H553c-0.3,2.8-0.6,3.9-1.4,5.5l-1.7-1.1c0.5-0.9,1.4-2.3,1.4-7.3
			v-7.8H566v4.5h-2.9v1.4h2.7v1.5h-2.7v1.9h3.5v1.5h-1.8l1,0.9c-0.7,0.7-1.6,1.3-2.3,1.8c1.5,0.7,2.6,1,3.3,1.1l-1,1.7
			c-3.9-1.4-5.5-2.6-7.2-5.5h-1.7v3.3c1.2-0.1,2.2-0.3,3.1-0.5l0.1,1.7c-1.7,0.4-5.1,0.8-6.6,1L553.2,356.2z M556.2,350.9v-1.9h-2.5
			v-1.5h2.5v-1.4h-3.1v3.4c0,0.5,0,1,0,1.4H556.2z M553.1,343.2v1.5h11.1v-1.5H553.1z M558,347.6h3.5v-1.4H558V347.6z M558,349.1
			v1.9h3.5v-1.9H558z M560.6,352.4c0.3,0.4,0.6,1,1.5,1.7c0.5-0.4,1.7-1.5,1.9-1.7H560.6z"/>
		<path class="st3" d="M568.6,341.7h6.8v6.1h-5.1V358h-1.8V341.7z M570.4,343v1.1h3.3V343H570.4z M570.4,345.3v1.1h3.3v-1.1H570.4z
			 M573.6,352.2c0-0.1,0-0.2,0-0.3v-1.6h-2v-1.5h9.6v1.5h-1.8v1.9h2.1v1.5h-2.1v4h-1.7v-4h-2.6c-0.2,0.9-0.8,2.7-2.6,4l-1.2-1.3
			c0.6-0.4,1.6-1.3,2-2.7h-2.1v-1.5H573.6z M577.7,352.2v-1.9h-2.4v1.9H577.7z M577.3,341.7h6.9v14.8c0,0.3,0,1.5-1.4,1.5h-2.5
			l-0.3-1.8h2c0.3,0,0.4-0.1,0.4-0.4v-8h-5.1V341.7z M579,343v1.1h3.3V343H579z M579,345.3v1.1h3.3v-1.1H579z"/>
	</g>
</g>
<g>
	<g>
		<path class="st3" d="M176.1,189c0.6-0.1,1.2-0.2,2.4-0.2c4.7,0,6.7,2.5,6.7,5.3c0,4.6-5,5-6.6,5.1l-0.5-1.8
			c1.8-0.1,5.1-0.4,5.1-3.5c0-2.3-1.7-2.8-2.9-3.2c-1.4,5.2-4.6,7.6-7.2,7.6c-1.9,0-3.1-1.4-3.1-3.4c0-2.8,2.1-4.6,4.2-5.4
			c0-0.8,0-1.4,0-2v-0.2h-3.6v-1.8h3.6l0-1.7l2,0l0,1.7h8.4v1.8h-8.4L176.1,189z M174.3,191.3c-1.2,0.6-2.5,1.8-2.5,3.4
			c0,0.8,0.3,1.7,1.4,1.7c0.9,0,1.5-0.4,1.9-0.6C174.6,194.5,174.4,192.6,174.3,191.3z M178.5,190.4c-1.1,0-1.7,0.1-2.4,0.3
			c0.1,1.3,0.2,2.5,0.5,3.8C177.5,193.4,178.1,191.8,178.5,190.4z"/>
		<path class="st3" d="M199.6,185.9c-1.4,1.1-3.2,2.4-4.7,3.7c0.7-0.2,1.6-0.5,2.7-0.5c2.5,0,4.9,1.4,4.9,4.6c0,3.5-3,5.5-6.5,5.5
			c-3.1,0-4.7-1.4-4.7-3.1c0-1.5,1.4-2.7,3.2-2.7c1.4,0,3.6,0.8,4.3,3.3c1.3-0.7,1.7-2,1.7-3c0-1.3-0.7-3-3.6-3
			c-3.1,0-5.3,1.8-7.8,4.1l-1.2-1.7c0.5-0.4,3.8-2.9,8.4-7c-2.1,0.2-3.5,0.2-6.5,0.3v-2c4.2,0,5.9,0,9.8-0.2V185.9z M194.4,195
			c-1,0-1.4,0.6-1.4,1c0,0.8,0.9,1.6,2.8,1.6c0.4,0,0.9-0.1,1.3-0.1C196.8,196.1,195.9,195,194.4,195z"/>
		<path class="st3" d="M220.5,197c-2-1.6-3.8-3.4-6.4-6c-1.9-1.9-2.2-2.1-2.7-2.1c-0.5,0-0.8,0.3-1.6,1.2c-0.9,1-2.2,2.7-3.1,3.7
			l-1.4-1.8c0.7-0.6,3.4-3.5,4-4.1c0.8-0.7,1.4-1,2.2-1c1.2,0,1.9,0.6,3.7,2.3c0.9,0.9,3.3,3,4.4,3.9c1,0.9,1.6,1.3,2.4,1.9
			L220.5,197z M216.8,185.1c1,1,1.5,1.7,2.4,3.1l-1.2,1c-0.8-1.4-1.4-2.1-2.4-3.2L216.8,185.1z M219.3,183.6c1,1,1.6,1.8,2.4,3.1
			l-1.2,1c-0.8-1.4-1.3-2.1-2.4-3.2L219.3,183.6z"/>
		<path class="st3" d="M239,190.8c-1.5,0.3-2.9,0.4-4.6,0.5c0.5,0.9,1,1.7,1.8,2.7l-1.8,1.2c-0.9-1.1-1.6-2.4-2.2-3.7
			c-0.7,0-1.2,0-1.7,0l-6.3,0v-1.7l6,0h1.5c-0.2-0.6-0.3-1.1-0.5-1.9c-0.4,0-0.6,0-1.3,0h-5v-1.8h4.8c0.6,0,0.9,0,1.2,0
			c-0.1-1-0.2-1.4-0.2-2.1l2.1,0c0,0.8,0.1,1.4,0.2,2.1c1.9-0.1,3.5-0.3,4.6-0.5l0.2,1.8c-1.2,0.2-2.6,0.4-4.5,0.5
			c0.1,0.7,0.3,1.3,0.5,1.9c2.1-0.1,3.6-0.3,5.1-0.6L239,190.8z M228.5,193.9c-0.4,0.4-0.8,0.9-0.8,1.5c0,1.5,2.5,1.8,5.1,1.8
			c1.7,0,3-0.1,4.4-0.2l0.1,2c-0.9,0.1-2.1,0.1-3.7,0.1c-3.5,0-4.8-0.2-5.9-0.7c-1.4-0.6-2-1.7-2-2.7c0-0.8,0.3-1.6,1.3-2.7
			L228.5,193.9z"/>
		<path class="st3" d="M246.9,192.6c0.2-0.3,0.4-0.6,0.7-1c-0.8,0.3-1.3,0.4-1.9,0.5l-0.7-1.6c1.4-0.3,5.5-1.1,5.9-4.5h-1.5
			c-1,1.3-1.5,1.7-2.1,2.2l-1.2-1.1c1.2-1,2.6-2.6,3.1-4.1l1.7,0.3c-0.2,0.4-0.3,0.7-0.5,1.2h7.3v1.5c-0.4,0.9-1.3,2.2-1.9,3l-1.4-1
			c1-1.1,1.2-1.6,1.4-1.9h-3.2c0,0.1,0,0.3-0.1,0.6c0.2,1,1.5,3.1,5.6,3.7l-0.8,1.8c-4-0.9-5.3-3.3-5.5-3.7
			c-0.9,1.4-2.3,2.3-3.4,2.8l1.3,0.2c-0.2,0.3-0.4,0.6-0.8,1.2h9.1v1.6h-3c-0.3,0.5-0.8,1.5-2.2,2.7c2.8,0.7,3.9,1.3,4.5,1.6
			L256,200c-0.6-0.3-1.8-1-5-1.9c-1.4,0.7-4.4,1.5-8.8,1.7l-0.6-1.7c1.8,0,4.2-0.2,6.7-0.8c-2.9-0.7-4.2-0.8-5-0.9
			c0.5-0.4,1.3-1,2.4-2.3H241v-1.6H246.9z M246.1,188.7c-1,0.9-2.4,2.1-4.5,3.2l-0.6-1.7c1.7-0.9,2.8-1.6,4.2-2.8L246.1,188.7z
			 M242.6,183.2c0.5,0.2,2.2,0.8,3.5,1.7l-1,1.5c-0.9-0.6-1.7-1-3.5-1.8L242.6,183.2z M247.6,194.2c-0.7,0.8-1,1.1-1.4,1.5
			c0.7,0.1,1.7,0.1,4.4,0.7c1.3-0.8,1.8-1.5,2.3-2.2H247.6z"/>
		<path class="st3" d="M267.4,197.1c1.9-0.2,5.9-0.8,5.9-5.7c0-2-0.8-5-4.9-5.2c-0.6,8-3,11.3-5.4,11.3c-2.1,0-3.4-2.4-3.4-5.2
			c0-5.1,3.7-8.1,8.4-8.1c5.6,0,7.5,3.7,7.5,7.1c0,6.8-6.1,7.4-7.4,7.5L267.4,197.1z M261.5,192.5c0,1,0.4,3,1.5,3
			c0.7,0,1.2-0.6,1.6-1.4c1.2-2.2,1.6-5,1.8-7.7C263.3,187,261.5,189.5,261.5,192.5z"/>
		<path class="st3" d="M200.2,225.1h-1.7v-6.8c-1,1-1.5,1.4-1.9,1.7l-0.7-1.9c2-1.5,3.5-3,4.5-5.4h-4.2v-1.7h2.4v-2.8h1.7v2.8h2v1.7
			c-0.2,0.5-0.5,1.4-1.5,2.8c0.3,0.5,1,1.4,2.3,2.4l-1,1.5c-0.3-0.3-0.9-0.8-1.8-2V225.1z M212.3,208.7V219h-2.2v3.5
			c0,0.6,0,0.6,0.4,0.6h0.3c0.1,0,0.3,0,0.3-0.3c0.1-0.5,0.1-0.8,0.1-1.8l1.7,0.3c-0.1,1.5-0.2,2.4-0.3,2.8
			c-0.2,0.8-1.1,0.8-1.2,0.8h-1.9c-0.9,0-1.4-0.3-1.4-1.3V219h-1.5c-0.5,3.6-2.1,5.1-4.8,6.1l-1-1.8c3.6-1,4-3.5,4.1-4.4h-1.8v-10.3
			H212.3z M205.2,210.3v1.4h5.3v-1.4H205.2z M205.2,213.2v1.4h5.3v-1.4H205.2z M205.2,216v1.4h5.3V216H205.2z"/>
		<path class="st3" d="M225.2,222.8c0,0.4,0,0.5,0.5,0.5h2.8c0.5,0,0.8,0,0.7-2.2l1.8,0.6c-0.2,2.4-0.3,3.3-2.1,3.3h-4.2
			c-1,0-1.3-0.7-1.3-1.2v-2.5h-2.1c-0.9,2.1-2.7,3.4-6.9,3.9l-0.5-1.8c4-0.2,4.9-1.4,5.4-2.1h-2.4v-7.8h11.6v7.8h-3.1V222.8z
			 M221.9,210.7c-0.5-0.9-0.8-1.4-1-1.8l1.6-0.7c0.7,1,0.8,1.2,1.5,2.6h2.3c0.4-0.6,0.6-1,1.3-2.7l2,0.7c-0.3,0.5-0.7,1.3-1.2,2h2.4
			v3.9h-1.8v-2.2h-12.6v2.2h-1.8v-3.9h2.3c-0.2-0.3-0.5-0.9-1.1-1.6l1.6-0.8c0.6,0.7,1.1,1.6,1.6,2.5H221.9z M226.6,214.8h-8.2v0.8
			h8.2V214.8z M226.6,216.9h-8.2v0.9h8.2V216.9z M226.6,218.9h-8.2v0.9h8.2V218.9z"/>
		<path class="st3" d="M234.3,215.8c-0.8,1-1.1,1.3-1.5,1.7l-1-2.1c2.2-2.4,3.3-4.4,4-7.2l1.9,0.2c-0.2,0.8-0.6,2.1-1.5,4.1V225
			h-1.9V215.8z M241.8,208.1v6.3c0.8-0.3,3.4-1.4,5.7-3.2l1.3,1.7c-2,1.4-5.1,2.8-7,3.5v5.7c0,0.5,0,0.7,0.7,0.7h3.9
			c0.5,0,0.6-0.2,0.7-0.4c0.1-0.3,0.2-2.4,0.2-2.8l1.9,0.5c0,0.8-0.1,3.1-0.5,3.7c-0.4,0.7-0.9,0.9-1.7,0.9h-5.1
			c-0.5,0-1.8,0-1.8-1.7v-14.9H241.8z"/>
	</g>
</g>
<g>
	<g>
		<path class="st3" d="M374.1,189c0.6-0.1,1.2-0.2,2.4-0.2c4.7,0,6.7,2.5,6.7,5.3c0,4.6-5,5-6.6,5.1l-0.5-1.8
			c1.8-0.1,5.1-0.4,5.1-3.5c0-2.3-1.7-2.8-2.9-3.2c-1.4,5.2-4.6,7.6-7.2,7.6c-1.9,0-3.1-1.4-3.1-3.4c0-2.8,2.1-4.6,4.2-5.4
			c0-0.8,0-1.4,0-2v-0.2h-3.6v-1.8h3.6l0-1.7l2,0l0,1.7h8.4v1.8h-8.4L374.1,189z M372.3,191.3c-1.2,0.6-2.5,1.8-2.5,3.4
			c0,0.8,0.3,1.7,1.4,1.7c0.9,0,1.5-0.4,1.9-0.6C372.6,194.5,372.4,192.6,372.3,191.3z M376.5,190.4c-1.1,0-1.7,0.1-2.4,0.3
			c0.1,1.3,0.2,2.5,0.5,3.8C375.5,193.4,376.1,191.8,376.5,190.4z"/>
		<path class="st3" d="M397.6,185.9c-1.4,1.1-3.2,2.4-4.7,3.7c0.7-0.2,1.6-0.5,2.7-0.5c2.5,0,4.9,1.4,4.9,4.6c0,3.5-3,5.5-6.5,5.5
			c-3.1,0-4.7-1.4-4.7-3.1c0-1.5,1.4-2.7,3.2-2.7c1.4,0,3.6,0.8,4.3,3.3c1.3-0.7,1.7-2,1.7-3c0-1.3-0.7-3-3.6-3
			c-3.1,0-5.3,1.8-7.8,4.1l-1.2-1.7c0.5-0.4,3.8-2.9,8.4-7c-2.1,0.2-3.5,0.2-6.5,0.3v-2c4.2,0,5.9,0,9.8-0.2V185.9z M392.4,195
			c-1,0-1.4,0.6-1.4,1c0,0.8,0.9,1.6,2.8,1.6c0.4,0,0.9-0.1,1.3-0.1C394.8,196.1,393.9,195,392.4,195z"/>
		<path class="st3" d="M418.5,197c-2-1.6-3.8-3.4-6.4-6c-1.9-1.9-2.2-2.1-2.7-2.1c-0.5,0-0.8,0.3-1.6,1.2c-0.9,1-2.2,2.7-3.1,3.7
			l-1.4-1.8c0.7-0.6,3.4-3.5,4-4.1c0.8-0.7,1.4-1,2.2-1c1.2,0,1.9,0.6,3.7,2.3c0.9,0.9,3.3,3,4.4,3.9c1,0.9,1.6,1.3,2.4,1.9
			L418.5,197z M414.8,185.1c1,1,1.5,1.7,2.4,3.1l-1.2,1c-0.8-1.4-1.4-2.1-2.4-3.2L414.8,185.1z M417.3,183.6c1,1,1.6,1.8,2.4,3.1
			l-1.2,1c-0.8-1.4-1.3-2.1-2.4-3.2L417.3,183.6z"/>
		<path class="st3" d="M437,190.8c-1.5,0.3-2.9,0.4-4.6,0.5c0.5,0.9,1,1.7,1.8,2.7l-1.8,1.2c-0.9-1.1-1.6-2.4-2.2-3.7
			c-0.7,0-1.2,0-1.7,0l-6.3,0v-1.7l6,0h1.5c-0.2-0.6-0.3-1.1-0.5-1.9c-0.4,0-0.6,0-1.3,0h-5v-1.8h4.8c0.6,0,0.9,0,1.2,0
			c-0.1-1-0.2-1.4-0.2-2.1l2.1,0c0,0.8,0.1,1.4,0.2,2.1c1.9-0.1,3.5-0.3,4.6-0.5l0.2,1.8c-1.2,0.2-2.6,0.4-4.5,0.5
			c0.1,0.7,0.3,1.3,0.5,1.9c2.1-0.1,3.6-0.3,5.1-0.6L437,190.8z M426.5,193.9c-0.4,0.4-0.8,0.9-0.8,1.5c0,1.5,2.5,1.8,5.1,1.8
			c1.7,0,3-0.1,4.4-0.2l0.1,2c-0.9,0.1-2.1,0.1-3.7,0.1c-3.5,0-4.8-0.2-5.9-0.7c-1.4-0.6-2-1.7-2-2.7c0-0.8,0.3-1.6,1.3-2.7
			L426.5,193.9z"/>
		<path class="st3" d="M444.9,192.6c0.2-0.3,0.4-0.6,0.7-1c-0.8,0.3-1.3,0.4-1.9,0.5l-0.7-1.6c1.4-0.3,5.5-1.1,5.9-4.5h-1.5
			c-1,1.3-1.5,1.7-2.1,2.2l-1.2-1.1c1.2-1,2.6-2.6,3.1-4.1l1.7,0.3c-0.2,0.4-0.3,0.7-0.5,1.2h7.3v1.5c-0.4,0.9-1.3,2.2-1.9,3l-1.4-1
			c1-1.1,1.2-1.6,1.4-1.9h-3.2c0,0.1,0,0.3-0.1,0.6c0.2,1,1.5,3.1,5.6,3.7l-0.8,1.8c-4-0.9-5.3-3.3-5.5-3.7
			c-0.9,1.4-2.3,2.3-3.4,2.8l1.3,0.2c-0.2,0.3-0.4,0.6-0.8,1.2h9.1v1.6h-3c-0.3,0.5-0.8,1.5-2.2,2.7c2.8,0.7,3.9,1.3,4.5,1.6
			L454,200c-0.6-0.3-1.8-1-5-1.9c-1.4,0.7-4.4,1.5-8.8,1.7l-0.6-1.7c1.8,0,4.2-0.2,6.7-0.8c-2.9-0.7-4.2-0.8-5-0.9
			c0.5-0.4,1.3-1,2.4-2.3H439v-1.6H444.9z M444.1,188.7c-1,0.9-2.4,2.1-4.5,3.2l-0.6-1.7c1.7-0.9,2.8-1.6,4.2-2.8L444.1,188.7z
			 M440.6,183.2c0.5,0.2,2.2,0.8,3.5,1.7l-1,1.5c-0.9-0.6-1.7-1-3.5-1.8L440.6,183.2z M445.6,194.2c-0.7,0.8-1,1.1-1.4,1.5
			c0.7,0.1,1.7,0.1,4.4,0.7c1.3-0.8,1.8-1.5,2.3-2.2H445.6z"/>
		<path class="st3" d="M465.4,197.1c1.9-0.2,5.9-0.8,5.9-5.7c0-2-0.8-5-4.9-5.2c-0.6,8-3,11.3-5.4,11.3c-2.1,0-3.4-2.4-3.4-5.2
			c0-5.1,3.7-8.1,8.4-8.1c5.6,0,7.5,3.7,7.5,7.1c0,6.8-6.1,7.4-7.4,7.5L465.4,197.1z M459.5,192.5c0,1,0.4,3,1.5,3
			c0.7,0,1.2-0.6,1.6-1.4c1.2-2.2,1.6-5,1.8-7.7C461.3,187,459.5,189.5,459.5,192.5z"/>
		<path class="st3" d="M389.7,225h-1.9v-7c-1.1,1-1.6,1.3-2.2,1.7l-0.8-1.8c2.3-1.4,4.1-3.3,4.9-5.3h-4.6v-1.8h2.7v-2.8h1.9v2.8h2.1
			v1.8c-0.3,0.7-0.7,1.6-1.8,3c0.9,1,1.4,1.4,2.5,2.2l-0.9,1.7c-0.8-0.7-1.3-1.2-1.9-1.9V225z M395.8,208.1h1.9v5.1h3.9v1.9h-3.9
			v7.4h4.3v1.9h-10.7v-1.9h4.5v-7.4h-3.8v-1.9h3.8V208.1z"/>
		<path class="st3" d="M405.8,218.8c0.8-0.5,2.1-1.3,3.4-3.2c0.7-1,1.1-2.1,1.3-3.1h-4.7V225h-1.9v-14.3h6.7v-2.5h1.9v2.5h6.6v12.7
			c0,1.4-1,1.6-1.7,1.6h-3l-0.3-1.9h2.5c0.2,0,0.5,0,0.5-0.4v-3.8l-1.1,1.6c-0.6-0.4-3.6-2.5-4.5-5.8c-0.6,1.6-2.7,4.6-4.6,5.7
			L405.8,218.8z M417.2,212.5h-4.6c0.2,1.7,1.4,4.3,4.6,6.4V212.5z"/>
		<path class="st3" d="M425.1,218.7c-0.5,1.4-2,4.8-3,6.3l-1.4-1.6c1.6-2.2,2.5-4.6,2.9-5.8L425.1,218.7z M421.8,213.1
			c0.8,0.3,2.3,1.2,2.9,1.7l-1.1,1.5c-1.1-0.8-1.7-1.2-2.8-1.7L421.8,213.1z M422.7,208.3c0.7,0.3,2.2,1.2,2.8,1.7l-1.1,1.6
			c-0.7-0.6-1.8-1.4-2.7-1.9L422.7,208.3z M426.6,219.2h-1.3v-3.5h12.2v3.5h-1.4v0.6c-0.4,0.5-1.1,1.5-2.8,2.5
			c2.1,0.7,3.7,0.8,4.7,0.9l-0.6,1.8c-1.6-0.2-3.7-0.6-6.2-1.7c-2.2,0.9-4.2,1.4-5.6,1.6l-0.7-1.7c0.9-0.1,2.4-0.2,4.5-0.9
			c-1-0.6-1.6-1.2-2.1-1.6l1.4-0.9h-2.2V219.2z M436.7,208.7v6.1h-10.5v-1.5h8.7v-0.9h-8.3v-1.2h8.3v-1h-8.7v-1.5H436.7z
			 M435.8,218.3v-1h-8.8v1H435.8z M428.9,219.8c0.7,0.6,1.3,1.1,2.7,1.7c1.6-0.8,2.1-1.3,2.5-1.7H428.9z"/>
		<path class="st3" d="M439.2,215h3.6v5.5c0.1,0.5,0.4,1.1,1.4,1.6c0.9,0.5,2.1,0.6,2.8,0.6h9.3l-0.4,1.8h-8.9
			c-1.1,0-2.2-0.3-2.7-0.5c-0.8-0.3-1.5-1-1.8-1.4c-0.4,0.6-1.6,1.8-2.5,2.4L439,223c0.6-0.3,1.4-0.9,1.9-1.4v-4.7h-1.7V215z
			 M440.7,208.3c1.3,1.2,2.4,2.7,2.7,3.2l-1.5,1.2c-0.3-0.6-1.7-2.4-2.5-3.3L440.7,208.3z M445.2,216.2c-0.4,0.2-0.7,0.3-1.3,0.5
			l-0.8-1.6c2.6-0.8,4.3-2.1,4.6-2.3h-4.1v-1.5h5.2v-1c-1.1,0.1-2.5,0.1-4.6,0.1l-0.3-1.6c6.8,0,9.3-0.6,10.4-0.8l0.7,1.6
			c-0.8,0.2-1.9,0.4-4.5,0.6v1.1h5.3v1.5h-4.1c1,0.9,2.4,1.8,4.4,2.4l-1,1.5c-0.5-0.2-1-0.4-1.9-1c-0.1,0.4-0.3,1.2-0.4,1.6h2.3
			c-0.3,3.3-0.5,4.7-2.3,4.7h-2.7l-0.3-1.8h2.5c0.7,0,0.7-0.2,0.9-1.5h-2.5c0.1-0.2,0.4-1.2,0.5-1.8h-2.4c-0.2,2-1,3.6-3.9,5
			l-1.1-1.5c2.8-0.9,3.1-2.8,3.2-3.6h-1.8V216.2z M448.8,215.7v-2.1c-0.8,0.9-1.7,1.5-2.7,2.1H448.8z M453.1,215.7
			c-0.3-0.2-1.6-1-2.7-2.3v2.3H453.1z"/>
	</g>
</g>
<g>
	<g>
		<path class="st3" d="M522.1,189c0.6-0.1,1.2-0.2,2.4-0.2c4.7,0,6.7,2.5,6.7,5.3c0,4.6-5,5-6.6,5.1l-0.5-1.8
			c1.8-0.1,5.1-0.4,5.1-3.5c0-2.3-1.7-2.8-2.9-3.2c-1.4,5.2-4.6,7.6-7.2,7.6c-1.9,0-3.1-1.4-3.1-3.4c0-2.8,2.1-4.6,4.2-5.4
			c0-0.8,0-1.4,0-2v-0.2h-3.6v-1.8h3.6l0-1.7l2,0l0,1.7h8.4v1.8h-8.4L522.1,189z M520.3,191.3c-1.2,0.6-2.5,1.8-2.5,3.4
			c0,0.8,0.3,1.7,1.4,1.7c0.9,0,1.5-0.4,1.9-0.6C520.6,194.5,520.4,192.6,520.3,191.3z M524.5,190.4c-1.1,0-1.7,0.1-2.4,0.3
			c0.1,1.3,0.2,2.5,0.5,3.8C523.5,193.4,524.1,191.8,524.5,190.4z"/>
		<path class="st3" d="M545.6,185.9c-1.4,1.1-3.2,2.4-4.7,3.7c0.7-0.2,1.6-0.5,2.7-0.5c2.5,0,4.9,1.4,4.9,4.6c0,3.5-3,5.5-6.5,5.5
			c-3.1,0-4.7-1.4-4.7-3.1c0-1.5,1.4-2.7,3.2-2.7c1.4,0,3.6,0.8,4.3,3.3c1.3-0.7,1.7-2,1.7-3c0-1.3-0.7-3-3.6-3
			c-3.1,0-5.3,1.8-7.8,4.1l-1.2-1.7c0.5-0.4,3.8-2.9,8.4-7c-2.1,0.2-3.5,0.2-6.5,0.3v-2c4.2,0,5.9,0,9.8-0.2V185.9z M540.4,195
			c-1,0-1.4,0.6-1.4,1c0,0.8,0.9,1.6,2.8,1.6c0.4,0,0.9-0.1,1.3-0.1C542.8,196.1,541.9,195,540.4,195z"/>
		<path class="st3" d="M566.5,197c-2-1.6-3.8-3.4-6.4-6c-1.9-1.9-2.2-2.1-2.7-2.1c-0.5,0-0.8,0.3-1.6,1.2c-0.9,1-2.2,2.7-3.1,3.7
			l-1.4-1.8c0.7-0.6,3.4-3.5,4-4.1c0.8-0.7,1.4-1,2.2-1c1.2,0,1.9,0.6,3.7,2.3c0.9,0.9,3.3,3,4.4,3.9c1,0.9,1.6,1.3,2.4,1.9
			L566.5,197z M562.8,185.1c1,1,1.5,1.7,2.4,3.1l-1.2,1c-0.8-1.4-1.4-2.1-2.4-3.2L562.8,185.1z M565.3,183.6c1,1,1.6,1.8,2.4,3.1
			l-1.2,1c-0.8-1.4-1.3-2.1-2.4-3.2L565.3,183.6z"/>
		<path class="st3" d="M585,190.8c-1.5,0.3-2.9,0.4-4.6,0.5c0.5,0.9,1,1.7,1.8,2.7l-1.8,1.2c-0.9-1.1-1.6-2.4-2.2-3.7
			c-0.7,0-1.2,0-1.7,0l-6.3,0v-1.7l6,0h1.5c-0.2-0.6-0.3-1.1-0.5-1.9c-0.4,0-0.6,0-1.3,0h-5v-1.8h4.8c0.6,0,0.9,0,1.2,0
			c-0.1-1-0.2-1.4-0.2-2.1l2.1,0c0,0.8,0.1,1.4,0.2,2.1c1.9-0.1,3.5-0.3,4.6-0.5l0.2,1.8c-1.2,0.2-2.6,0.4-4.5,0.5
			c0.1,0.7,0.3,1.3,0.5,1.9c2.1-0.1,3.6-0.3,5.1-0.6L585,190.8z M574.5,193.9c-0.4,0.4-0.8,0.9-0.8,1.5c0,1.5,2.5,1.8,5.1,1.8
			c1.7,0,3-0.1,4.4-0.2l0.1,2c-0.9,0.1-2.1,0.1-3.7,0.1c-3.5,0-4.8-0.2-5.9-0.7c-1.4-0.6-2-1.7-2-2.7c0-0.8,0.3-1.6,1.3-2.7
			L574.5,193.9z"/>
		<path class="st3" d="M592.9,192.6c0.2-0.3,0.4-0.6,0.7-1c-0.8,0.3-1.3,0.4-1.9,0.5l-0.7-1.6c1.4-0.3,5.5-1.1,5.9-4.5h-1.5
			c-1,1.3-1.5,1.7-2.1,2.2l-1.2-1.1c1.2-1,2.6-2.6,3.1-4.1l1.7,0.3c-0.2,0.4-0.3,0.7-0.5,1.2h7.3v1.5c-0.4,0.9-1.3,2.2-1.9,3l-1.4-1
			c1-1.1,1.2-1.6,1.4-1.9h-3.2c0,0.1,0,0.3-0.1,0.6c0.2,1,1.5,3.1,5.6,3.7l-0.8,1.8c-4-0.9-5.3-3.3-5.5-3.7
			c-0.9,1.4-2.3,2.3-3.4,2.8l1.3,0.2c-0.2,0.3-0.4,0.6-0.8,1.2h9.1v1.6h-3c-0.3,0.5-0.8,1.5-2.2,2.7c2.8,0.7,3.9,1.3,4.5,1.6
			L602,200c-0.6-0.3-1.8-1-5-1.9c-1.4,0.7-4.4,1.5-8.8,1.7l-0.6-1.7c1.8,0,4.2-0.2,6.7-0.8c-2.9-0.7-4.2-0.8-5-0.9
			c0.5-0.4,1.3-1,2.4-2.3H587v-1.6H592.9z M592.1,188.7c-1,0.9-2.4,2.1-4.5,3.2l-0.6-1.7c1.7-0.9,2.8-1.6,4.2-2.8L592.1,188.7z
			 M588.6,183.2c0.5,0.2,2.2,0.8,3.5,1.7l-1,1.5c-0.9-0.6-1.7-1-3.5-1.8L588.6,183.2z M593.6,194.2c-0.7,0.8-1,1.1-1.4,1.5
			c0.7,0.1,1.7,0.1,4.4,0.7c1.3-0.8,1.8-1.5,2.3-2.2H593.6z"/>
		<path class="st3" d="M613.4,197.1c1.9-0.2,5.9-0.8,5.9-5.7c0-2-0.8-5-4.9-5.2c-0.6,8-3,11.3-5.4,11.3c-2.1,0-3.4-2.4-3.4-5.2
			c0-5.1,3.7-8.1,8.4-8.1c5.6,0,7.5,3.7,7.5,7.1c0,6.8-6.1,7.4-7.4,7.5L613.4,197.1z M607.5,192.5c0,1,0.4,3,1.5,3
			c0.7,0,1.2-0.6,1.6-1.4c1.2-2.2,1.6-5,1.8-7.7C609.3,187,607.5,189.5,607.5,192.5z"/>
		<path class="st3" d="M537.7,225h-1.9v-7c-1.1,1-1.6,1.3-2.2,1.7l-0.8-1.8c2.3-1.4,4.1-3.3,4.9-5.3h-4.6v-1.8h2.7v-2.8h1.9v2.8h2.1
			v1.8c-0.3,0.7-0.7,1.6-1.8,3c0.9,1,1.4,1.4,2.5,2.2l-0.9,1.7c-0.8-0.7-1.3-1.2-1.9-1.9V225z M543.8,208.1h1.9v5.1h3.9v1.9h-3.9
			v7.4h4.3v1.9h-10.7v-1.9h4.5v-7.4h-3.8v-1.9h3.8V208.1z"/>
		<path class="st3" d="M550.7,215.6c2.3-2.4,3-4.5,3.6-7.5l1.8,0.1c-0.1,0.6-0.2,1.2-0.4,2.1h5.1c-0.6,6.5-2.7,10.9-8.5,14.8
			l-1.3-1.6c3.1-2,4.6-3.6,5.5-5c-1-1.3-1.9-2.2-3.1-3.1c-0.6,0.9-1,1.3-1.4,1.7L550.7,215.6z M555.1,212.1c-0.1,0.4-0.4,1-0.8,1.8
			c1.2,0.8,1.4,1.1,3.2,3c0.9-1.8,1.2-3.5,1.4-4.8H555.1z M561.9,212.9c0.3,0.5,0.6,1.1,1.4,1.9v-6.7h1.9v8.4
			c1.3,0.9,2.3,1.4,3.1,1.7l-0.6,2.1c-0.6-0.3-1.4-0.7-2.5-1.4v6.1h-1.9v-7.7c-1.7-1.6-2.4-2.8-2.8-3.4L561.9,212.9z"/>
		<path class="st3" d="M573.1,218.7c-0.5,1.4-2,4.8-3,6.3l-1.4-1.6c1.6-2.2,2.5-4.6,2.9-5.8L573.1,218.7z M569.8,213.1
			c0.8,0.3,2.3,1.2,2.9,1.7l-1.1,1.5c-1.1-0.8-1.7-1.2-2.8-1.7L569.8,213.1z M570.7,208.3c0.7,0.3,2.2,1.2,2.8,1.7l-1.1,1.6
			c-0.7-0.6-1.8-1.4-2.7-1.9L570.7,208.3z M574.6,219.2h-1.3v-3.5h12.2v3.5h-1.4v0.6c-0.4,0.5-1.1,1.5-2.8,2.5
			c2.1,0.7,3.7,0.8,4.7,0.9l-0.6,1.8c-1.6-0.2-3.7-0.6-6.2-1.7c-2.2,0.9-4.2,1.4-5.6,1.6l-0.7-1.7c0.9-0.1,2.4-0.2,4.5-0.9
			c-1-0.6-1.6-1.2-2.1-1.6l1.4-0.9h-2.2V219.2z M584.6,208.7v6.1h-10.5v-1.5h8.7v-0.9h-8.3v-1.2h8.3v-1h-8.7v-1.5H584.6z
			 M583.7,218.3v-1h-8.8v1H583.7z M576.9,219.8c0.7,0.6,1.3,1.1,2.7,1.7c1.6-0.8,2.1-1.3,2.5-1.7H576.9z"/>
		<path class="st3" d="M587.2,215h3.6v5.5c0.1,0.5,0.4,1.1,1.4,1.6c0.9,0.5,2.1,0.6,2.8,0.6h9.3l-0.4,1.8h-8.9
			c-1.1,0-2.2-0.3-2.7-0.5c-0.8-0.3-1.5-1-1.8-1.4c-0.4,0.6-1.6,1.8-2.5,2.4L587,223c0.6-0.3,1.4-0.9,1.9-1.4v-4.7h-1.7V215z
			 M588.7,208.3c1.3,1.2,2.4,2.7,2.7,3.2l-1.5,1.2c-0.3-0.6-1.7-2.4-2.5-3.3L588.7,208.3z M593.2,216.2c-0.4,0.2-0.7,0.3-1.3,0.5
			l-0.8-1.6c2.6-0.8,4.3-2.1,4.6-2.3h-4.1v-1.5h5.2v-1c-1.1,0.1-2.5,0.1-4.6,0.1l-0.3-1.6c6.8,0,9.3-0.6,10.4-0.8l0.7,1.6
			c-0.8,0.2-1.9,0.4-4.5,0.6v1.1h5.3v1.5h-4.1c1,0.9,2.4,1.8,4.4,2.4l-1,1.5c-0.5-0.2-1-0.4-1.9-1c-0.1,0.4-0.3,1.2-0.4,1.6h2.3
			c-0.3,3.3-0.5,4.7-2.3,4.7h-2.7l-0.3-1.8h2.5c0.7,0,0.7-0.2,0.9-1.5h-2.5c0.1-0.2,0.4-1.2,0.5-1.8h-2.4c-0.2,2-1,3.6-3.9,5
			l-1.1-1.5c2.8-0.9,3.1-2.8,3.2-3.6h-1.8V216.2z M596.8,215.7v-2.1c-0.8,0.9-1.7,1.5-2.7,2.1H596.8z M601.1,215.7
			c-0.3-0.2-1.6-1-2.7-2.3v2.3H601.1z"/>
	</g>
</g>
<g>
	<g>
		<path class="st2" d="M415.1,94c0.6-0.1,1.2-0.2,2.4-0.2c4.7,0,6.7,2.5,6.7,5.3c0,4.6-5,5-6.6,5.1l-0.5-1.8
			c1.8-0.1,5.1-0.4,5.1-3.5c0-2.3-1.7-2.8-2.9-3.2c-1.4,5.2-4.6,7.6-7.2,7.6c-1.9,0-3.1-1.4-3.1-3.4c0-2.8,2.1-4.6,4.2-5.4
			c0-0.8,0-1.4,0-2v-0.2h-3.6v-1.8h3.6l0-1.7l2,0l0,1.7h8.4v1.8h-8.4L415.1,94z M413.3,96.3c-1.2,0.6-2.5,1.8-2.5,3.4
			c0,0.8,0.3,1.7,1.4,1.7c0.9,0,1.5-0.4,1.9-0.6C413.6,99.5,413.4,97.6,413.3,96.3z M417.5,95.4c-1.1,0-1.7,0.1-2.4,0.3
			c0.1,1.3,0.2,2.5,0.5,3.8C416.5,98.4,417.1,96.8,417.5,95.4z"/>
		<path class="st2" d="M431.1,91.8c-0.3,1.1-0.5,2.1-0.5,4.6c1.8-1.3,3.7-2,5.9-2c4.2,0,5,2.8,5,4.3c0,3.9-3.2,5.3-8.2,5.3
			c-1.7,0-2.7-0.1-3.4-0.2l-0.2-1.9c0.8,0.1,1.9,0.3,3.5,0.3c4.6,0,6.2-1.4,6.2-3.5c0-1.2-0.8-2.4-3-2.4c-2.3,0-4.5,1-5.7,2.4
			c0,0.2,0,0.3-0.1,0.4l-2-0.1c0.1-4.8,0.1-5.5,0.5-7.4L431.1,91.8z M438.6,92c-1.8-0.7-4.2-1.2-7.4-1.4l0.4-1.9
			c4.3,0.2,6.4,0.8,7.6,1.1L438.6,92z"/>
		<path class="st2" d="M445.6,102.7c-0.2-1.4-0.3-3.1-0.3-5.3c0-4.1,0.3-6.7,0.5-7.9l2.1,0.1c-0.4,1.6-0.6,4.4-0.6,5.6
			c1.4-2.2,3.6-3.6,6.2-4.1c0-0.7,0-0.9-0.1-2.1l2,0c0,0.3,0,1.7,0.1,2c3,0.2,4.9,2.1,4.9,5.2c0,6.1-5.5,5.8-6,5.8
			c-0.8,1.2-2.1,2-3.7,2.6l-1.1-1.6c0.9-0.3,1.9-0.8,2.6-1.5c-0.5-0.2-2.4-1.1-2.9-3.8l1.7-0.5c0.1,0.7,0.4,2.3,2.2,2.8
			c0.3-0.9,0.4-2,0.4-4c0-0.9,0-2.7,0-3.2c-3,0.6-5.2,2.8-5.9,4.7c-0.3,0.6-0.2,0.8-0.2,1.4c0,0.5,0.1,2.1,0.3,3.6L445.6,102.7z
			 M458.2,96.3c0-2.1-1.2-3.3-2.9-3.5c0,0.8,0,1.4,0,2.8c0,2.7-0.2,3.7-0.4,4.6C457.8,99.9,458.2,97.7,458.2,96.3z"/>
		<path class="st2" d="M474.6,90.9c-1.4,1.1-3.2,2.4-4.7,3.7c0.7-0.2,1.6-0.5,2.7-0.5c2.5,0,4.9,1.4,4.9,4.6c0,3.5-3,5.5-6.5,5.5
			c-3.1,0-4.7-1.4-4.7-3.1c0-1.5,1.4-2.7,3.2-2.7c1.4,0,3.6,0.8,4.3,3.3c1.3-0.7,1.7-2,1.7-3c0-1.3-0.7-3-3.6-3
			c-3.1,0-5.3,1.8-7.8,4.1l-1.2-1.7c0.5-0.4,3.8-2.9,8.4-7c-2.1,0.2-3.5,0.2-6.5,0.3v-2c4.2,0,5.9,0,9.8-0.2V90.9z M469.4,100
			c-1,0-1.4,0.6-1.4,1c0,0.8,0.9,1.6,2.8,1.6c0.4,0,0.9-0.1,1.3-0.1C471.8,101.1,470.9,100,469.4,100z"/>
		<path class="st2" d="M479.9,103c1.6-1.8,2.7-4.1,3.3-5.4l1.5,1.2c-1,2.6-2.7,5.1-3.7,6.2L479.9,103z M482.9,96.5
			c-1.2-0.9-1.9-1.4-2.9-1.8l0.9-1.6c0.9,0.3,2.2,1.1,3,1.8L482.9,96.5z M483.7,91.5c-1.1-0.9-2.7-1.7-3-1.9l1-1.5
			c1.1,0.5,2.1,1.1,3.1,1.8L483.7,91.5z M492,92.8h5v1.7h-5v2.6h4.2v7.5H486v-7.5h4.2v-2.6h-5.1v-1.7h5.1v-2.1
			c-0.5,0-2.2,0.1-4.5,0.1l-0.3-1.7c6.4,0,8.9-0.6,10.5-1l0.6,1.7c-1.4,0.4-2.6,0.6-4.5,0.8V92.8z M494.4,98.8h-6.6v4.2h6.6V98.8z"
			/>
		<path class="st2" d="M506.7,104c-3.3,0.4-6.2,0.5-8.5,0.6l-0.2-1.7c1,0,2.2,0,4.1-0.1v-1.1h-3.7v-1.5h3.7v-0.8h-3.5v-6.3h3.5v-0.8
			H498v-1.5h4.1v-0.8c-1.7,0.1-2.8,0.1-3.7,0.1l-0.2-1.4c4.6,0,6-0.1,8.5-0.6l0.6,1.4c-0.7,0.2-1.5,0.4-3.6,0.5v0.9h4.1v1.5h-4.1
			v0.8h3.6v6.3h-3.6v0.8h3.9v1.5h-3.9v1c1.8-0.1,2.8-0.2,3.8-0.3c0.8-1.3,1.9-3.3,2-8.9h-1.5v-1.8h1.5v-3.6h1.8v3.6h3.2
			c0,2.1-0.1,10.5-0.6,12c-0.5,1.3-1.2,1.3-2,1.3h-1.7l-0.3-1.8h1.5c0.7,0,0.8-0.3,0.8-0.5c0.3-1,0.5-7.8,0.5-9.1h-1.4
			c-0.1,7.1-1.8,9.7-3.3,11.5L506.7,104z M500.1,94.5v1.2h2v-1.2H500.1z M500.1,96.8v1.2h2v-1.2H500.1z M503.7,94.5v1.2h2.1v-1.2
			H503.7z M503.7,96.8v1.2h2.1v-1.2H503.7z"/>
		<path class="st2" d="M530.8,90.5v1.7H523c-0.4,1-0.6,1.5-1,2.3c1.1-0.6,1.7-0.9,2.6-0.9c1.5,0,2.4,0.6,2.8,2
			c0.8-0.3,2.9-1.1,4.3-1.6l0.5,1.9c-2.5,0.6-4.3,1.3-4.5,1.4c0.1,0.8,0.1,1.7,0.1,1.9c0,0.6,0,0.9-0.1,1.3h-1.9
			c0.1-1.2,0.1-2.1,0.1-2.5c-1.9,0.9-3.1,1.8-3.1,2.9c0,1.4,1.8,1.4,3.7,1.4c0.4,0,2.6,0,4.7-0.3l0.1,1.9c-1.2,0.1-2.8,0.1-4.2,0.1
			c-2.1,0-6.3,0-6.3-3c0-2.5,3.4-4.2,4.9-4.8c-0.2-0.6-0.4-1.1-1.4-1.1c-1.1,0-2.3,0.7-3.2,1.6c-0.1,0.1-2.2,2.9-2.7,3.3l-1.4-1.4
			c2.1-2,3.1-3.9,4.1-6.4h-3.5v-1.7h4c0.2-0.7,0.3-1.2,0.4-1.9l2.1,0.1c-0.1,0.7-0.2,1-0.4,1.8H530.8z"/>
		<path class="st2" d="M534.2,95.1h3.7v4.8c0,2.3,2.3,3,4,3h9.3l-0.4,1.8h-9c-1.4,0-3.3-0.4-4.3-2.1c-0.4,0.5-1.2,1.6-2.6,2.6l-1-2
			c0.8-0.4,1.5-1,2.2-1.6v-4.7h-1.9V95.1z M535.8,88.3c0.8,0.8,1.9,2,2.7,3.2l-1.6,1.2c-0.9-1.5-1.7-2.4-2.6-3.3L535.8,88.3z
			 M542.4,90.2h-3v-1.5h10.5v1.5c-0.5,0.4-1.2,0.9-3.3,1.9h3.8v8.5c0,1.3-0.7,1.5-1.5,1.5h-2.1l-0.3-1.7h1.8c0.4,0,0.5-0.2,0.5-0.5
			V99h-2.9v2.9h-1.7V99h-2.8v3.1h-1.7v-10h3.4c-0.6-0.4-0.8-0.5-1.4-0.8L542.4,90.2z M541.2,93.6v1.3h2.8v-1.3H541.2z M541.2,96.3
			v1.3h2.8v-1.3H541.2z M542.7,90.2c0.7,0.4,1.4,0.9,2,1.4c0.3-0.1,1.4-0.6,2.4-1.4H542.7z M545.7,93.6v1.3h2.9v-1.3H545.7z
			 M545.7,96.3v1.3h2.9v-1.3H545.7z"/>
		<path class="st2" d="M557.5,89.1c-0.2,3.8-0.3,7.8-0.3,8.8c0,2.2,0.2,4.3,3.3,4.3c4.5,0,5-3.3,5.5-5.8l1.9,0.8c-0.6,3.3-2,7-7.4,7
			c-4.9,0-5.4-3.1-5.4-6.3c0-1.4,0.1-7.5,0.1-8.8L557.5,89.1z M562,90.2c0.9,1,1.5,1.9,2.2,3.3l-1.3,0.9c-0.7-1.4-1.1-2.1-2.2-3.4
			L562,90.2z M564.4,88.8c1,1,1.6,2,2.3,3.2l-1.3,0.9c-0.8-1.4-1.2-2.1-2.3-3.3L564.4,88.8z"/>
		<path class="st2" d="M586,91.8c-0.7,0-1.2-0.1-1.7-0.1c-0.9,0-1.4,0.1-1.9,0.2c-2.6,0.8-5.9,3.6-5.9,6.5c0,2.3,1.8,2.8,3.5,3.2
			c1.3,0.2,3.1,0.3,4.5,0.3l-0.4,2.2c-3.6-0.1-9.7-0.3-9.7-5.5c0-3.5,3.2-5.7,4.8-6.7c-1.9,0.1-6.5,0.5-8.2,0.6l-0.1-2.2
			c1.2,0,6.2-0.3,7.3-0.4c2.8-0.1,4.8-0.2,7.8-0.2L586,91.8z"/>
		<path class="st2" d="M421.2,114.3v1.7c-1.5,1.1-4.4,3-6.5,4c3.6-0.5,6.1-0.7,9.6-0.7l0,1.9c-1,0-1.7-0.1-2.2-0.1
			c-1.5,0-2.2,0.2-3.3,0.7c-1.4,0.7-2.9,2.1-2.9,3.6c0,1.3,1.1,2.1,6.2,2.1l-0.3,2c-2.9-0.1-8.1-0.2-8.1-3.6c0-2.5,2.4-3.9,3.6-4.6
			c-2.7,0.4-5.4,0.8-8.5,1.4l-0.2-2c1.5-0.1,2.1-0.3,2.8-0.6c0.8-0.4,3.2-1.5,6.7-4.1l-7.2,0.1l0-1.9H421.2z"/>
		<path class="st2" d="M426.6,124.6c1.9-1.7,2.9-3.4,3.6-4.8v-1.3l-3.1,0.1v-1.9h3.1v-2.7h2.1c-0.1,1.3-0.1,3.3-0.1,4
			c0.7-0.7,2.8-2.8,5.4-2.8c1.3,0,2.7,0.8,2.7,3.1c0,0.2,0,0.5,0,1l-0.1,2.7c0,0.5-0.1,2.3-0.1,2.7c0,1.3,0,2.1,2.6,2l-0.5,2
			c-3.8-0.1-4.2-1.3-4.2-3.7c0-1.2,0.1-2.6,0.1-3l0.1-2.6c0-0.8,0.1-2.1-1.2-2.1c-1.9,0-4,2.2-4.9,3.3c0,1.1,0,4.2,0,5
			c0,1.4,0,2.8,0,3.7h-2c0-0.8,0.1-5.1,0.1-6c-0.6,1-1.1,2-2.4,3.5L426.6,124.6z"/>
		<path class="st2" d="M458.8,115.5v1.7H451c-0.4,1-0.6,1.5-1,2.3c1.1-0.6,1.7-0.9,2.6-0.9c1.5,0,2.4,0.6,2.8,2
			c0.8-0.3,2.9-1.1,4.3-1.6l0.5,1.9c-2.5,0.6-4.3,1.3-4.5,1.4c0.1,0.8,0.1,1.7,0.1,1.9c0,0.6,0,0.9-0.1,1.3h-1.9
			c0.1-1.2,0.1-2.1,0.1-2.5c-1.9,0.9-3.1,1.8-3.1,2.9c0,1.4,1.8,1.4,3.7,1.4c0.4,0,2.6,0,4.7-0.3l0.1,1.9c-1.2,0.1-2.8,0.1-4.2,0.1
			c-2.1,0-6.3,0-6.3-3c0-2.5,3.4-4.2,4.9-4.8c-0.2-0.6-0.4-1.1-1.4-1.1c-1.1,0-2.3,0.7-3.2,1.6c-0.1,0.1-2.2,2.9-2.7,3.3l-1.4-1.4
			c2.1-2,3.1-3.9,4.1-6.4h-3.5v-1.7h4c0.2-0.7,0.3-1.2,0.4-1.9l2.1,0.1c-0.1,0.7-0.2,1-0.4,1.8H458.8z"/>
		<path class="st2" d="M463.8,121.3c-0.5,0.6-0.7,0.9-1.1,1.4l-0.8-2.1c1.3-1.7,2.6-4.8,2.9-7.5l1.9,0.3c-0.2,0.8-0.5,2.3-1.1,4.1
			V130h-1.9V121.3z M476.9,130.2c-0.1-0.5-0.2-0.9-0.4-1.7c-3.3,0.6-8.5,1-9.6,1.1l-0.3-1.8c0.5,0,0.6,0,1.7-0.1
			c0.3-0.9,1.3-4.1,1.9-6.6h-3.3v-1.7h12v1.7h-6.7c-1,3.3-1.1,3.6-1.9,6.4c2.7-0.2,3.8-0.3,5.7-0.6c-0.3-1-0.6-1.8-1.6-3.8l1.7-0.7
			c1.1,2,2.1,4.5,2.7,7.2L476.9,130.2z M478.4,114.1v1.8h-10.9v-1.8H478.4z"/>
		<path class="st2" d="M492.6,117.7v1.7c-1.4,1.1-2.6,2.1-3.8,3.2c0.3-0.1,0.5-0.1,0.8-0.1c1.6,0,1.6,1.5,1.6,2.4v0.7
			c0,1.3,0.1,1.7,2.6,1.7c0.8,0,1.7-0.1,2.3-0.1l0.1,2c-0.6,0-1.3,0.1-2.5,0.1c-2.1,0-4.3,0-4.3-2.7v-1.1c0-0.8,0-1.4-0.9-1.4
			c-0.6,0-1.3,0.4-1.9,0.8c-0.9,0.8-1.4,1.3-4.3,4.4l-1.4-1.5c0.3-0.3,2.8-2.6,3.4-3.2c3.6-3.3,4.1-3.8,5.3-4.8l-7.5,0.1v-1.9
			L492.6,117.7z M492.8,116.6c-1.5-0.4-4-1.1-8.4-1.2l0.2-1.7c1.9,0,5,0.1,8.6,1.1L492.8,116.6z"/>
		<path class="st2" d="M502.1,123.7c-0.5,1.4-2,4.8-3,6.3l-1.4-1.6c1.6-2.2,2.5-4.6,2.9-5.8L502.1,123.7z M498.8,118.1
			c0.8,0.3,2.3,1.2,2.9,1.7l-1.1,1.5c-1.1-0.8-1.7-1.2-2.8-1.7L498.8,118.1z M499.7,113.3c0.7,0.3,2.2,1.2,2.8,1.7l-1.1,1.6
			c-0.7-0.6-1.8-1.4-2.7-1.9L499.7,113.3z M503.6,124.2h-1.3v-3.5h12.2v3.5h-1.4v0.6c-0.4,0.5-1.1,1.5-2.8,2.5
			c2.1,0.7,3.7,0.8,4.7,0.9l-0.6,1.8c-1.6-0.2-3.7-0.6-6.2-1.7c-2.2,0.9-4.2,1.4-5.6,1.6l-0.7-1.7c0.9-0.1,2.4-0.2,4.5-0.9
			c-1-0.6-1.6-1.2-2.1-1.6l1.4-0.9h-2.2V124.2z M513.6,113.7v6.1h-10.5v-1.5h8.7v-0.9h-8.3v-1.2h8.3v-1h-8.7v-1.5H513.6z
			 M512.7,123.3v-1h-8.8v1H512.7z M505.9,124.8c0.7,0.6,1.3,1.1,2.7,1.7c1.6-0.8,2.1-1.3,2.5-1.7H505.9z"/>
		<path class="st2" d="M516.2,120h3.6v5.5c0.1,0.5,0.4,1.1,1.4,1.6c0.9,0.5,2.1,0.6,2.8,0.6h9.3l-0.4,1.8h-8.9
			c-1.1,0-2.2-0.3-2.7-0.5c-0.8-0.3-1.5-1-1.8-1.4c-0.4,0.6-1.6,1.8-2.5,2.4L516,128c0.6-0.3,1.4-0.9,1.9-1.4v-4.7h-1.7V120z
			 M517.7,113.3c1.3,1.2,2.4,2.7,2.7,3.2l-1.5,1.2c-0.3-0.6-1.7-2.4-2.5-3.3L517.7,113.3z M522.2,121.2c-0.4,0.2-0.7,0.3-1.3,0.5
			l-0.8-1.6c2.6-0.8,4.3-2.1,4.6-2.3h-4.1v-1.5h5.2v-1c-1.1,0.1-2.5,0.1-4.6,0.1l-0.3-1.6c6.8,0,9.3-0.6,10.4-0.8l0.7,1.6
			c-0.8,0.2-1.9,0.4-4.5,0.6v1.1h5.3v1.5h-4.1c1,0.9,2.4,1.8,4.4,2.4l-1,1.5c-0.5-0.2-1-0.4-1.9-1c-0.1,0.4-0.3,1.2-0.4,1.6h2.3
			c-0.3,3.3-0.5,4.7-2.3,4.7h-2.7l-0.3-1.8h2.5c0.7,0,0.7-0.2,0.9-1.5h-2.5c0.1-0.2,0.4-1.2,0.5-1.8h-2.4c-0.2,2-1,3.6-3.9,5
			l-1.1-1.5c2.8-0.9,3.1-2.8,3.2-3.6h-1.8V121.2z M525.8,120.7v-2.1c-0.8,0.9-1.7,1.5-2.7,2.1H525.8z M530.1,120.7
			c-0.3-0.2-1.6-1-2.7-2.3v2.3H530.1z"/>
		<path class="st2" d="M546.1,124.1c-1.4-1.6-2.3-3.6-3.1-5.5c-0.7,0-2.1,0-2.2,0l-5.5,0v-1.9l5.6,0.1c0.7,0,1.1,0,1.5,0
			c-0.3-0.9-0.5-1.8-0.7-2.8l2.1-0.2c0.1,0.7,0.4,2,0.6,2.9c2.3-0.1,3.8-0.3,5.2-0.7l0.4,1.9c-1.8,0.4-2.9,0.5-4.9,0.6
			c0.7,1.6,1.6,3.2,2.8,4.5L546.1,124.1z M539.7,122.8c-0.4,0.2-1.8,0.9-1.8,2.2c0,2.1,3,2.1,5.1,2.1c2.4,0,3.6-0.1,4.8-0.3v2
			c-0.7,0.1-2.1,0.2-4.6,0.2c-3.1,0-5-0.3-6.3-1.5c-0.8-0.7-1.1-1.6-1.1-2.5c0-1.6,1.1-2.8,2.8-3.6L539.7,122.8z"/>
		<path class="st2" d="M563.4,117.4c0-2.2-0.1-2.4-0.1-3.6l2.1,0c0,0.6,0,3,0.1,3.6l3-0.1l0,1.9l-3,0.1c0.1,4,0.1,5.7-2.9,5.7
			c-0.2,0-1.1,0-2.3-0.2l0-1.8c0.8,0.1,1.3,0.2,2.1,0.2c1.1,0,1.1-0.3,1.1-3.8l-6,0.1l0,4.6c0,2.8,0.9,3,4.3,3
			c3.1,0,4.2-0.1,5.1-0.2l0,2c-1.7,0.1-2.5,0.1-4.1,0.1c-4.7,0-7.4,0-7.4-5l0-4.4l-2.7,0.1l0-1.9l2.7-0.1V114h2l0,3.5L563.4,117.4z"
			/>
		<path class="st2" d="M582.6,115.9c-1.4,1.1-3.2,2.4-4.7,3.7c0.7-0.2,1.6-0.5,2.7-0.5c2.5,0,4.9,1.4,4.9,4.6c0,3.5-3,5.5-6.5,5.5
			c-3.1,0-4.7-1.4-4.7-3.1c0-1.5,1.4-2.7,3.2-2.7c1.4,0,3.6,0.8,4.3,3.3c1.3-0.7,1.7-2,1.7-3c0-1.3-0.7-3-3.6-3
			c-3.1,0-5.3,1.8-7.8,4.1l-1.2-1.7c0.5-0.4,3.8-2.9,8.4-7c-2.1,0.2-3.5,0.2-6.5,0.3v-2c4.2,0,5.9,0,9.8-0.2V115.9z M577.4,125
			c-1,0-1.4,0.6-1.4,1c0,0.8,0.9,1.6,2.8,1.6c0.4,0,0.9-0.1,1.3-0.1C579.8,126.1,578.9,125,577.4,125z"/>
	</g>
</g>
</svg>
