<?xml version="1.0" encoding="utf-8"?>
<!-- Generator: Adobe Illustrator 26.5.2, SVG Export Plug-In . SVG Version: 6.00 Build 0)  -->
<svg version="1.1" id="レイヤー_1" xmlns="http://www.w3.org/2000/svg" xmlns:xlink="http://www.w3.org/1999/xlink" x="0px"
	 y="0px" viewBox="0 0 640 500" style="enable-background:new 0 0 640 500;" xml:space="preserve">
<style type="text/css">
	.st0{fill:#EFEFEA;}
	.st1{fill:none;stroke:#000000;stroke-miterlimit:10;}
	.st2{fill:#FFFFFF;stroke:#000000;stroke-miterlimit:10;}
	.st3{fill:#828282;}
</style>
<rect x="4.1" y="56.5" class="st0" width="178.9" height="405.5"/>
<rect x="4.1" y="56.5" class="st1" width="630.9" height="405.5"/>
<line class="st2" x1="183" y1="56.5" x2="183" y2="462"/>
<g>
	<g>
		<path class="st3" d="M37.4,99.6c0,4.7-3.8,8.5-8.5,8.5c-4.7,0-8.5-3.8-8.5-8.5c0-4.8,3.9-8.5,8.5-8.5S37.4,94.8,37.4,99.6z
			 M21,99.6c0,4.4,3.5,7.9,7.9,7.9c4.4,0,7.9-3.5,7.9-7.9c0-4.4-3.6-7.9-7.9-7.9S21,95.2,21,99.6z M28.6,94.6H30v9.9h-1.6v-8.2
			l-1.9,1.3l-0.2-1.5L28.6,94.6z"/>
		<path class="st3" d="M39.6,96.8v-1.9H48v-3h2v3h4.2v1.9H50l0,8.1c0,2.2-1.7,2.3-2.6,2.3c-0.4,0-1.5-0.1-2.5-0.1l-0.3-2
			c1,0.1,1.8,0.2,2.4,0.2c0.7,0,1-0.2,1-0.7l0-5.6c-1,1.3-3.3,4.4-7.8,6.7l-1.2-1.6c3.5-1.7,6.6-4.7,8.5-7.2H39.6z"/>
		<path class="st3" d="M72.6,98.5v2.1H57.2v-2.1H72.6z"/>
		<path class="st3" d="M86.1,93.3l2.3,2.7c-0.5,2.7-1.1,4.8-2.9,6.9c-1.1,1.3-3.5,3.5-7.8,4.2l-0.9-1.9c7.1-1.2,8.9-5.3,9.6-9.9
			H75.5v-2H86.1z M92,93c0,1.4-1.1,2.5-2.5,2.5s-2.5-1.1-2.5-2.5c0-1.4,1.1-2.5,2.5-2.5S92,91.6,92,93z M88.2,93
			c0,0.7,0.6,1.3,1.3,1.3s1.3-0.6,1.3-1.3s-0.6-1.3-1.3-1.3C88.8,91.6,88.2,92.2,88.2,93z"/>
		<path class="st3" d="M99.4,97.4c-1.2-0.8-2.9-1.8-5.6-2.6l1-1.8c3,0.9,4.8,2,5.7,2.5L99.4,97.4z M94.2,104.6
			c7.1-0.5,10.8-3.9,12.8-10.8l1.8,1.3c-1,2.9-3.6,10.9-14.2,11.7L94.2,104.6z"/>
		<path class="st3" d="M112.3,105.5c4.9-0.8,5.9-2.8,6-6.5h-6.8v-1.9h14.7V99h-5.8c-0.2,5.7-2.9,7.5-7.2,8.3L112.3,105.5z
			 M122.8,92.5v1.9h-9.9v-1.9H122.8z M124.3,91c0.6,1.2,0.8,2.2,1.1,3.7l-1.4,0.5c-0.2-1.5-0.5-2.4-1-3.7L124.3,91z M126.9,90.7
			c0.6,1.2,0.8,2.2,1.1,3.7l-1.4,0.5c-0.2-1.5-0.5-2.3-1-3.7L126.9,90.7z"/>
		<path class="st3" d="M144.6,98.5v2.1h-15.4v-2.1H144.6z"/>
		<path class="st3" d="M147.4,98.2c2.2-1.3,3.7-3,4.7-5.4h9.6c-0.3,2.9-1.2,11.7-12.1,14.5l-1-1.8c4.5-1,6.9-3.3,7.6-4.1
			c-1.5-1.2-2.9-2.2-5.3-3.4c-0.5,0.5-1,1-2.2,1.7L147.4,98.2z M153.5,94.6c-0.6,1.1-1,1.5-1.4,2c0.8,0.4,3.2,1.5,5.3,3.3
			c0.9-1.4,1.6-2.9,1.9-5.3H153.5z"/>
		<path class="st3" d="M41.2,117.7c-0.8,0.8-1.4,1.2-1.9,1.5l-1.3-1.6c2.3-1.3,4.6-3.9,5.4-6.6l1.9,0.5c-0.6,1.7-1.6,3.7-3.9,6h11.1
			c0,1.8-0.1,6.5-0.7,8.9c-0.5,1.6-1.7,1.7-2.5,1.7h-2.8l-0.4-1.9h2.8c1,0,1.2-0.9,1.3-1.7c0.1-0.8,0.4-2.5,0.4-5.1h-4.2
			c-0.5,4.9-3,7.2-6.7,8.7l-1.1-1.7c3.9-1.6,5.4-3.3,5.9-7h-3.3V117.7z M54.5,119.1c-1.5-1-4.6-4.2-5.8-7.5l1.9-0.5
			c0.9,2.3,2.9,5,5.3,6.5L54.5,119.1z"/>
		<path class="st3" d="M56.2,122c1.5-1.8,2.5-4.4,2.8-5.8h-2.6v-1.7h2.7v-3.3h1.7v3.3h2.4v1.7h-2.4v0.9c1,2.1,2.2,3.2,2.7,3.7
			l-1.1,1.7c-0.4-0.4-0.9-1.2-1.6-2.7v8.2h-1.7v-8.6c-0.9,3-1.7,4.1-2.3,4.9L56.2,122z M66,116.6h7.4v1.8h-2.3v9.6h-1.9v-9.6H66v0.3
			c0,5.8-1.9,8.2-2.7,9.3l-1.5-1.5c1-1.1,2.3-3.2,2.3-8v-6.4c2.9,0,5.9-0.5,8-1.2l0.8,1.6c-1.9,0.6-4.9,1-7,1.1V116.6z"/>
	</g>
</g>
<g>
	<g>
		<path class="st3" d="M38.1,241.9c0,4.7-3.8,8.5-8.5,8.5c-4.7,0-8.5-3.8-8.5-8.5c0-4.8,3.9-8.5,8.5-8.5S38.1,237.2,38.1,241.9z
			 M21.7,241.9c0,4.4,3.5,7.9,7.9,7.9c4.4,0,7.9-3.5,7.9-7.9c0-4.4-3.6-7.9-7.9-7.9S21.7,237.5,21.7,241.9z M33.1,245.4v1.4h-7.3
			c1.6-1.7,2.8-2.9,3.9-4.3c1-1.3,1.4-2,1.4-2.8c0-0.8-0.5-1.5-1.5-1.5c-1.5,0-2.3,1.3-2.5,1.6l-0.7-1.5c1-1.3,2.2-1.6,3.2-1.6
			c1.6,0,3.1,1,3.1,3c0,1.8-1.1,3-3.6,5.7H33.1z"/>
		<path class="st3" d="M45.3,241.6c0.2-0.4,0.3-0.8,0.5-1.2l1.5,0.2c-0.1,0.3-0.4,0.8-0.5,1H48v1.3h-1.5v1.1h1.3v1.2h-1.3v1.1h1.3
			v1.2h-1.3v1.3h1.6v0.2c1.1-0.6,1.7-1.2,2.5-2l1.2,1c-1,1.2-1.8,1.8-3,2.4l-0.7-0.9v0.6h-5.9v-5.3c-0.1,0.1-0.1,0.2-0.3,0.4
			l-0.5-0.8c-0.2,2.7-0.7,4.1-1.5,5.5l-1.2-1.7c1-1.9,1.1-3.7,1.1-6.9v-4.9h7.9v3.6h-6.2v1.4c0,0.6,0,1.1,0,1.6
			c0.5-0.8,0.9-1.8,1.3-3l1.4,0.4c-0.1,0.4-0.2,0.6-0.3,1H45.3z M48,234.1v1.5h-8.9v-1.5H48z M46,237.7h-4.5v1.2H46V237.7z
			 M45.1,242.8h-1.4v1.1h1.4V242.8z M45.1,245.1h-1.4v1.1h1.4V245.1z M45.1,247.4h-1.4v1.3h1.4V247.4z M56.1,234.1v1.6h-3.3
			c-0.1,0.5-0.3,1-0.4,1.4h3v9.9h-6.6V237h1.9c0.1-0.5,0.2-0.8,0.3-1.4h-2.6v-1.6H56.1z M53.7,238.5h-3.1v1.3h3.1V238.5z
			 M53.7,241.2h-3.1v1.3h3.1V241.2z M53.7,243.9h-3.1v1.4h3.1V243.9z M53.7,246.9c1.1,1.1,1.8,1.6,2.8,2.1l-1,1.5
			c-1.1-0.6-1.8-1.2-2.9-2.4L53.7,246.9z"/>
		<path class="st3" d="M57.6,240.4c3.7-1.4,4.9-3.1,5.5-3.9l1.9,0.3c-0.3,0.4-0.4,0.5-0.6,0.7h6.2v1.4c-0.5,0.6-1.3,1.7-3.3,3
			c1.1,0.5,3.3,1.3,6.9,1.7l-0.6,1.9c-0.8-0.1-1.1-0.2-1.8-0.4v5H59.3v-4.9c-0.7,0.2-1,0.2-1.7,0.4l-0.6-1.8
			c3.3-0.5,5.6-1.3,6.9-1.9c-1-0.7-1.4-1.1-2.2-1.8c-1.1,0.8-1.9,1.3-3.3,1.9L57.6,240.4z M66.5,233.5v1.3h7.1v3.9h-1.9v-2.2H59.5
			v2.2h-1.9v-3.9h7v-1.3H66.5z M70,246.1h-8.9v2.4H70V246.1z M69.8,244.6c-1.9-0.6-2.8-1-4.2-1.7c-1.6,0.8-3.2,1.4-4.2,1.7H69.8z
			 M63,239.1c1.2,1.1,2.1,1.7,2.6,2c1.6-0.8,2.1-1.4,2.6-2L63,239.1L63,239.1z"/>
		<path class="st3" d="M91.1,245.8v2H76.1v-2H91.1z M89.7,236.1v2H77.4v-2H89.7z"/>
		<path class="st3" d="M109.3,240.9v2.1H93.9v-2.1H109.3z"/>
		<path class="st3" d="M124,237.4c-0.5,1.5-1.4,3.4-2.7,5.2c1.4,1.1,3.6,2.8,6,5.2l-1.7,1.7c-2.4-2.7-4.7-4.6-5.5-5.4
			c-0.9,1-3.3,3.7-7.2,5.4l-1.2-1.7c1.8-0.8,7.6-3.5,10.2-10.7h-9.3v-1.9h9.9L124,237.4z M124.6,233.5c0.7,1.1,1.1,2.1,1.6,3.5
			l-1.3,0.7c-0.5-1.5-0.8-2.2-1.6-3.5L124.6,233.5z M127.1,232.8c0.8,1.2,1.2,2.2,1.6,3.5l-1.3,0.6c-0.5-1.4-0.8-2.2-1.5-3.5
			L127.1,232.8z"/>
		<path class="st3" d="M136.9,236.4v2h-1.7v-3.6h3.9c0.1-0.5,0.2-0.8,0.3-1.5l1.9,0.3c-0.1,0.4-0.1,0.5-0.3,1.2h4.8v3.6h-1.7v-2
			h-3.7c-0.5,1.3-0.8,1.9-1.2,2.7h1.4c0.4-0.7,0.4-0.9,1-2.3l1.7,0.4c-0.1,0.4-0.3,0.7-0.9,1.9h3.3v1.5h-3.3v1.5h2.7v1.4h-2.7v1.6
			h2.7v1.4h-2.7v1.8h3.6v1.6h-9.6v-7.1c-0.1,0.1-0.2,0.2-0.6,0.5l-1-1.4v7.7h-4.7v-5.9c-0.3,0.5-0.4,0.6-0.6,1l-0.6-2.6
			c1.2-1.7,1.7-4.2,1.8-6.1h-1.5v-1.8h5.6v1.8h-2.3c-0.1,1.2-0.3,2-0.6,3.3h3v2.4c1.6-1.3,2.9-3.2,3.7-5.4H136.9z M133.2,241.1h-1.5
			v6.9h1.5V241.1z M138.3,240.7c-0.1,0.1-0.1,0.1-0.2,0.3v1.3h2.7v-1.5H138.3z M140.8,243.6h-2.7v1.6h2.7V243.6z M140.8,246.6h-2.7
			v1.8h2.7V246.6z"/>
		<path class="st3" d="M153.9,236.6v1.6h-6.8v-1.6H153.9z M153.3,234.1v1.6h-5.6v-1.6H153.3z M153.3,239.2v1.6h-5.6v-1.6H153.3z
			 M153.3,241.9v1.6h-5.6v-1.6H153.3z M156,244.3c-0.1,1.1-0.4,3.4-1.4,5.2l-1.3-0.8v1.4h-5.6v-5.5h5.6v3.6c0.5-0.8,0.8-2,1-4
			L156,244.3z M151.7,246.1h-2.4v2.4h2.4V246.1z M153.5,240.8c0.7-0.3,2-1,2.9-2.5c-0.6-0.2-0.9-0.3-1.9-0.6l0.6-1.4
			c0.6,0.1,0.9,0.2,2,0.5c0.1-0.6,0.2-0.8,0.2-1.2h-2.8v-1.5h8.9c0,3.9-0.1,5.9-0.5,6.8c-0.4,0.8-0.9,1-1.6,1h-1.8l-0.3-1.8h1.7
			c0.7,0,0.9-0.5,1-4.6h-2.7c-0.1,0.8-0.2,1.2-0.4,1.8c1.1,0.5,1.4,0.7,1.9,1l-0.8,1.5c-0.5-0.3-0.9-0.5-1.8-1
			c-0.6,0.9-1.3,2.1-3.4,3.3L153.5,240.8z M158.2,244.3v3.8c0,0.4,0.1,0.5,0.3,0.5h0.9c0.5,0,0.5-0.5,0.6-1.8l1.6,0.5
			c-0.2,2-0.5,3-1.6,3h-2.1c-1,0-1.5-0.7-1.5-1.3v-4.6H158.2z M159.7,244.8c-0.5-0.5-1.5-1.4-3.1-2.3l1-1.3c1.1,0.6,2,1.3,3,2.3
			L159.7,244.8z M162.5,249.5c-0.3-2.2-0.8-3.7-1.4-5.2l1.6-0.4c0.7,1.4,1.2,3.2,1.5,5.1L162.5,249.5z"/>
		<path class="st3" d="M45.3,256.6v1.6h-6.1v-1.6H45.3z M44.8,270.1h-5.1v-5.6h5.1v4.2c0.8-1.8,1-4.1,1-6v-8.6h9.7v14.5
			c0,1-0.1,1.8-1.5,1.8h-2.7l-0.3-1.8h2.2c0.5,0,0.6-0.3,0.6-0.6v-12.3h-6.2v7.1c0,2.6-0.4,5.3-1.5,7.6l-1.2-0.8V270.1z M44.8,254.1
			v1.5h-5.1v-1.5H44.8z M44.8,259.2v1.6h-5.1v-1.6H44.8z M44.8,261.8v1.6h-5.1v-1.6H44.8z M43.1,266.1h-1.7v2.4h1.7V266.1z
			 M51.5,257.2h1.8v1.5h-1.8v1.5h1.8v1.5H48v-1.5h2v-1.5h-2v-1.5h2v-1h1.5V257.2z M53,262.8v4.9h-4.8v-4.9H53z M51.5,264.3h-1.8v1.9
			h1.8V264.3z"/>
		<path class="st3" d="M71.6,268.1h2.5v1.7H57.2v-1.7h2.4v-7.4c-0.6,0.3-1,0.4-1.9,0.7l-0.8-1.9c0.8-0.2,3.2-0.8,5.6-2.9h-5.1V255
			h7.5v-1.5h1.8v1.5H74v1.7h-5c0.7,0.6,2.7,2.2,5.5,3l-1,1.8c-0.6-0.2-1-0.4-1.9-0.9V268.1z M64.8,259.9v-3.2
			c-0.5,0.6-1.6,1.8-3.8,3.2H64.8z M69.8,261.5h-8.5v1.2h8.5V261.5z M69.8,264.2h-8.5v1.2h8.5V264.2z M69.8,266.8h-8.5v1.2h8.5
			V266.8z M70.4,259.9c-2.3-1.5-3.2-2.5-3.9-3.2v3.2H70.4z"/>
	</g>
</g>
<g>
	<g>
		<path class="st3" d="M38.1,398.8c0,4.7-3.8,8.5-8.5,8.5c-4.7,0-8.5-3.8-8.5-8.5c0-4.8,3.9-8.5,8.5-8.5S38.1,394,38.1,398.8z
			 M21.7,398.8c0,4.4,3.5,7.9,7.9,7.9c4.4,0,7.9-3.5,7.9-7.9c0-4.4-3.6-7.9-7.9-7.9S21.7,394.4,21.7,398.8z M26.6,401.8
			c1.2,0.7,2.3,0.7,2.6,0.7c1.8,0,2.4-1,2.4-1.7c0-0.3-0.1-1.6-2.3-1.6h-0.9v-1.3h0.8c0.9,0,1.8-0.5,1.8-1.4c0-1-1-1.3-1.6-1.3
			c-0.3,0-1.3,0-2.4,1.1l-0.5-1.4c0.9-0.8,1.9-1.2,3-1.2c1.9,0,3.1,1.2,3.1,2.6c0,1.4-0.8,1.8-1.3,2.1c1.9,0.7,1.9,2.2,1.9,2.5
			c0,1.5-1.1,3-4,3c-1.3,0-2.2-0.3-3.1-0.8L26.6,401.8z"/>
		<path class="st3" d="M46.8,390.3h1.8v1.4H56v1.5h-7.5v0.9h6v6h-1.9v1H56v1.5h-3.4v3.1c0,1.5-1.3,1.5-1.5,1.5h-3l-0.5-1.9h2.8
			c0.3,0,0.4-0.1,0.4-0.5v-2.3H39.1v-1.5h11.6v-1H40.6v-6h6.1v-0.9h-7.6v-1.5h7.6V390.3z M44.8,406.8c-1-1.4-2.5-2.6-2.9-2.9
			l1.4-1.1c0.7,0.5,2.3,1.8,3.2,2.8L44.8,406.8z M46.8,395.5h-4.4v1h4.4V395.5z M46.8,397.7h-4.4v1h4.4V397.7z M52.8,395.5h-4.2v1
			h4.2V395.5z M52.8,397.7h-4.2v1h4.2V397.7z"/>
		<path class="st3" d="M57.8,391h6.8v7.1h-5v9.2h-1.8V391z M59.6,393.8h3.3v-1.2h-3.3V393.8z M59.6,396.4h3.3V395h-3.3V396.4z
			 M71.6,398.1h-5.2V391h7v14.7c0,1-0.6,1.6-1.8,1.6h-2.8l-0.3-1.9h2.7c0.4,0,0.5,0,0.5-0.5V398.1z M68.1,393.8h3.5v-1.2h-3.5V393.8
			z M68.1,396.4h3.5V395h-3.5V396.4z"/>
		<path class="st3" d="M91.5,397.5c-0.3,0.3-0.7,0.7-2,1.7c-0.3,0.2-0.9,0.7-1.5,1c1.4,2.4,2.6,3.6,4,4.6l-1.4,1.6
			c-3.3-3.1-5.2-7.3-5.8-10.3h-0.5c-0.3,0.3-0.5,0.6-1.2,1.1c1.2,1.2,2.6,2.8,2.6,6.4c0,0.6,0,3.5-2.4,3.5h-2.7l-0.3-1.8h2.4
			c0.6,0,1.3,0,1.3-1.9c0-0.5,0-0.8-0.1-1c-1.3,1.1-4.1,3-8.1,4.1l-0.8-1.7c3.9-0.9,7-2.6,8.6-3.9c-0.1-0.3-0.2-0.5-0.4-0.9
			c-1.5,1.2-3.9,2.4-7,3.2l-0.8-1.7c3.8-0.7,6.1-2,7-2.6c-0.3-0.3-0.5-0.5-0.7-0.8c-2.4,1.4-4.7,1.8-5.7,2l-0.7-1.7
			c2.7-0.3,4.9-1,6.7-2.3h-4.1v-1.5h11.1v1.5h-2.8c0.3,1.4,0.7,2.1,0.9,2.6c0.3-0.2,1.6-1.2,2.8-2.4L91.5,397.5z M82.7,391.8v-1.4
			h1.9v1.4h6.9v3.8h-1.8v-2.2H77.6v2.2h-1.8v-3.8H82.7z"/>
		<path class="st3" d="M99.3,393.5v1.6h-6.1v-1.6H99.3z M98.8,406.9h-5.1v-5.6h5.1v4.2c0.8-1.8,1-4.1,1-6V391h9.7v14.5
			c0,1-0.1,1.8-1.5,1.8h-2.7l-0.3-1.8h2.2c0.5,0,0.6-0.3,0.6-0.6v-12.3h-6.2v7.1c0,2.6-0.4,5.3-1.5,7.6l-1.2-0.8V406.9z M98.8,391
			v1.5h-5.1V391H98.8z M98.8,396.1v1.6h-5.1v-1.6H98.8z M98.8,398.7v1.6h-5.1v-1.6H98.8z M97.1,402.9h-1.7v2.4h1.7V402.9z
			 M105.5,394.1h1.8v1.5h-1.8v1.5h1.8v1.5H102V397h2v-1.5h-2v-1.5h2v-1h1.5V394.1z M107,399.7v4.9h-4.8v-4.9H107z M105.5,401.2h-1.8
			v1.9h1.8V401.2z"/>
		<path class="st3" d="M125.6,404.9h2.5v1.7h-16.9v-1.7h2.4v-7.4c-0.6,0.3-1,0.5-1.9,0.7l-0.8-1.9c0.8-0.2,3.2-0.8,5.6-2.9h-5.1
			v-1.7h7.5v-1.5h1.8v1.5h7.4v1.7h-5c0.7,0.6,2.7,2.2,5.5,3l-1,1.8c-0.6-0.2-1-0.4-1.9-0.9V404.9z M118.8,396.7v-3.2
			c-0.5,0.6-1.6,1.8-3.8,3.2H118.8z M123.8,398.4h-8.5v1.2h8.5V398.4z M123.8,401h-8.5v1.2h8.5V401z M123.8,403.7h-8.5v1.2h8.5
			V403.7z M124.4,396.7c-2.3-1.5-3.2-2.5-3.9-3.2v3.2H124.4z"/>
	</g>
</g>
<line class="st2" x1="4.1" y1="163.8" x2="635" y2="163.8"/>
<line class="st2" x1="4.1" y1="338" x2="635" y2="338"/>
<g>
	<path class="st3" d="M209.9,101.1h1.8v1.9h7.6v1.9h-7.6v2h6.1v7.8c0,0.4,0,1.9-1.6,1.9h-2.6l-0.3-1.9h2.3c0.4,0,0.4-0.2,0.4-0.5
		v-5.5h-4.2v9.4h-1.8v-9.4h-4.1v8.2h-1.9v-9.9h6v-2h-7.5V103h7.5V101.1z"/>
	<path class="st3" d="M228,112.3c-1.4,1.2-2.4,1.6-3,1.8l-0.4-0.6c-2.3,1-3.4,1.3-4.2,1.6l-0.2-2c0.4-0.1,1.7-0.5,1.9-0.5v-5.9h-1.8
		v-1.8h1.8v-3.7h1.8v3.7h1.4v1.8h-1.4v5.4c0.8-0.3,0.9-0.3,1.4-0.5l0.1,0.8c1.7-0.8,2.4-1.7,3-2.5h-3v-1.4h12.1v1.4h-7.3
		c-0.2,0.4-0.4,0.6-0.7,1h7.4c0,0.2-0.1,5-0.6,6.1c-0.5,1-1.2,1-1.7,1h-2.4l-0.4-1.8h2.4c0.5,0,0.6-0.2,0.7-0.7
		c0.1-0.7,0.2-2.8,0.3-3.3h-0.9c-1.5,3.3-3.8,4.9-5.7,5.9l-1.1-1.4c2.4-1,3.7-2.1,5.2-4.4h-1.3c-2,2.7-4.3,3.8-6.2,4.5l-0.9-1.3
		c1.1-0.3,3.3-1,5.3-3.2H228z M226.2,101.7h10v5.9h-10V101.7z M227.8,103.1v1h6.6v-1H227.8z M227.8,105.3v1.1h6.6v-1.1H227.8z"/>
	<path class="st3" d="M244.4,115.3c-0.7-0.9-1.2-1.7-1.8-3.1c-0.7,3.6-2.5,5.3-3.3,6l-1.1-1.6c2.1-2,2.7-4,3-6.5h-2.7v-1.7h2.8
		c0-0.4,0-1.5,0-2.3v-0.4h-2.6v-1.8h2.6v-2.5h1.8v2.5h2.3v1.8h-2.3v0.4c0,0.6,0,1.6,0,2.3h2.6v1.7h-2.5c0.2,0.6,1.1,2.7,2.7,4.1
		L244.4,115.3z M254.6,101.8V112h-2.2v3.7c0,0.3,0.2,0.4,0.3,0.4h0.3c0.3,0,0.4-0.1,0.5-0.3c0.1-0.5,0.1-0.7,0.1-1.7l1.7,0.3
		c-0.1,2.5-0.2,3.5-1.3,3.5h-2.4c-0.8,0-1-0.6-1-1.2V112h-1c-0.3,2.7-1.9,4.9-4.6,6l-1.1-1.6c2.1-0.7,3.8-2.2,4.1-4.4h-1.8v-10.2
		H254.6z M248,103.4v1.3h4.8v-1.3H248z M248,106.2v1.4h4.8v-1.4H248z M248,109v1.4h4.8V109H248z"/>
	<path class="st3" d="M256.2,111.8c0.6-0.8,1.4-1.8,2.4-5.7h-2.1v-1.7h2.2v-3.3h1.7v3.3h2v1.7h-2v0.8c0.7,1.7,1.5,2.6,2.2,3.2
		l-0.9,1.6c-0.8-1-1-1.4-1.3-2.3v8.5h-1.7v-7.9c-0.6,2.5-1.4,3.6-1.8,4.2L256.2,111.8z M264.7,105.3V104h-2.3v-1.6h2.3v-1.2h1.7v1.2
		h3v-1.2h1.8v1.2h2.2v1.6h-2.2v1.3h1.5v6.3h-4.4c0,0.3,0,0.5-0.1,0.9h5.1v1.7h-3.9c0.9,1.1,1.9,1.8,4.2,2.3l-0.8,1.7
		c-2-0.6-4.1-1.6-5.3-3.8c-0.4,0.8-1.7,2.9-5.3,3.8l-0.8-1.7c2.6-0.5,3.8-1.7,4.2-2.3h-3.5v-1.7h4.3c0.1-0.4,0.1-0.5,0.1-0.9h-3.6
		v-6.3H264.7z M264.7,106.8v1h6.2v-1H264.7z M264.7,109v1.1h6.2V109H264.7z M269.4,105.3V104h-3v1.3H269.4z"/>
	<path class="st3" d="M299.9,101.1h1.8v1.9h7.6v1.9h-7.6v2h6.1v7.8c0,0.4,0,1.9-1.6,1.9h-2.6l-0.3-1.9h2.3c0.4,0,0.4-0.2,0.4-0.5
		v-5.5h-4.2v9.4h-1.8v-9.4h-4.1v8.2h-1.9v-9.9h6v-2h-7.5V103h7.5V101.1z"/>
	<path class="st3" d="M318,112.3c-1.4,1.2-2.4,1.6-3,1.8l-0.4-0.6c-2.3,1-3.4,1.3-4.2,1.6l-0.2-2c0.4-0.1,1.7-0.5,1.9-0.5v-5.9h-1.8
		v-1.8h1.8v-3.7h1.8v3.7h1.4v1.8h-1.4v5.4c0.8-0.3,0.9-0.3,1.4-0.5l0.1,0.8c1.7-0.8,2.4-1.7,3-2.5h-3v-1.4h12.1v1.4h-7.3
		c-0.2,0.4-0.4,0.6-0.7,1h7.4c0,0.2-0.1,5-0.6,6.1c-0.5,1-1.2,1-1.7,1h-2.4l-0.4-1.8h2.4c0.5,0,0.6-0.2,0.7-0.7
		c0.1-0.7,0.2-2.8,0.3-3.3h-0.9c-1.5,3.3-3.8,4.9-5.7,5.9l-1.1-1.4c2.4-1,3.7-2.1,5.2-4.4h-1.3c-2,2.7-4.3,3.8-6.2,4.5l-0.9-1.3
		c1.1-0.3,3.3-1,5.3-3.2H318z M316.2,101.7h10v5.9h-10V101.7z M317.8,103.1v1h6.6v-1H317.8z M317.8,105.3v1.1h6.6v-1.1H317.8z"/>
	<path class="st3" d="M334.2,116.4c0.7-0.3,3.1-1.3,4.8-3.2c-0.8-2.4-1-4.3-1.2-7.5h-6.3v2.1h5c0,1.4-0.1,4.9-0.4,6
		c-0.1,0.6-0.4,1.7-2.2,1.7h-1.7l-0.3-1.9h1.7c0.6,0,0.7-0.5,0.7-0.8c0.1-0.5,0.2-1.5,0.2-3.5h-3.1v1.5c0,0.3,0,4.1-1.7,7l-1.6-1.4
		c1-1.7,1.4-3.6,1.4-5.6v-7.2h8.1c0-0.6-0.1-2.6-0.1-2.8h1.9c0,0.7,0,1.1,0,2.8h3.5c-1.1-0.8-1.9-1.3-2.6-1.6l1-1.4
		c0.8,0.4,2.2,1.1,2.9,1.7l-0.9,1.3h1.7v1.7h-5.5c0.2,2.5,0.4,4.1,0.8,5.6c1-1.6,1.4-3,1.9-4.6l1.8,0.6c-0.4,1.2-1.1,3.8-2.9,6.2
		c0,0.1,1,2.3,1.7,2.3c0.6,0,0.7-0.8,1-2.8l1.7,0.9c-0.3,1.8-0.8,4.1-2.5,4.1c-1.7,0-3-2.6-3.2-3c-1.8,1.8-3.7,2.7-4.5,3
		L334.2,116.4z"/>
	<path class="st3" d="M346.5,116.1c0.1,0,1.9-0.1,2.2-0.2v-4.9h-2.2v-1.6h2.2v-7.8H362v1.7h-11.3v1.1h10.6v1.4h-10.6v1.1h10.6v1.4
		h-10.6v1.1h12.5v1.6h-1.9l1,0.9c-1.2,0.9-2.4,1.7-3.8,2.4c0.8,0.4,2.5,1.3,5.1,1.7l-0.9,2c-2.9-0.8-7.9-2.6-10-7h-2.1v4.7
		c1.7-0.1,2.8-0.2,4.8-0.6v1.7c-2.5,0.6-7.5,1-8.6,1L346.5,116.1z M354.7,111.1c0.3,0.5,0.7,1.2,2.3,2.3c0.9-0.5,2.5-1.6,3.3-2.3
		H354.7z"/>
	<path class="st3" d="M366.2,104.6c0,1.4-0.1,4.2-0.5,5.9l-1.5-0.7c0.5-1.3,0.6-4.1,0.6-5.2H366.2z M366.8,101.2h1.8v16.9h-1.8
		V101.2z M373,106.8c-0.4,1.2-0.9,2.3-1.6,3.2l-1.4-1.2c0.3-0.4,0.6-0.9,1.1-2.1l-1.3,0.7c-0.1-0.4-0.5-1.7-1.1-2.8l1.3-0.7
		c0.3,0.4,0.8,1.6,1.2,2.7c0.7-1.9,1-3.9,1-4.6l1.9,0.3c-0.1,0.7-0.2,1.6-0.5,2.8h1.7v-3.9h1.8v3.9h4v1.7h-4v3.3h3.6v1.7H377v3.8
		h4.3v1.7h-11.5v-1.7h5.3v-3.8h-3.6v-1.7h3.6v-3.3H373z"/>
	<path class="st3" d="M409.9,104.7c-1.4-0.9-2.3-1.4-4.9-2.2l0.8-1.6c2.2,0.6,3.5,1.2,5.1,2L409.9,104.7h6.9v1.8h-6.9v3.4h6.2v1.7
		h-6.2v3.9h7.4v1.8h-16.8v-1.8h7.5v-3.9h-6.2v-1.7h6.2v-3.4h-7v-1.8H409.9z"/>
	<path class="st3" d="M423.5,110.6c0.4-0.6,0.5-0.9,0.8-1.3h-5v-4.8h4.4v-1.2h-5.3v-1.6h16.9v1.6h-5.5v1.2h4.7v4.8h-8.2
		c-0.2,0.4-0.3,0.6-0.7,1.3h9.7v1.7h-3.3c-0.2,0.6-0.7,1.7-1.9,2.8c2.1,0.7,3.5,1.2,4.4,1.5l-1.5,1.6c-0.9-0.4-2.4-1.1-4.6-1.9
		c-2.3,1.3-6.3,1.6-9.1,1.7l-0.7-1.8c0.5,0,1,0.1,1.8,0.1c2.5,0,4.4-0.4,5.6-0.7c-1.8-0.5-3.8-0.9-5.7-1.3c0.5-0.5,1.1-1.1,1.9-1.9
		h-3.9v-1.7H423.5z M421.1,107.9h2.7v-1.9h-2.7V107.9z M424.5,112.3c-0.2,0.3-0.4,0.5-0.8,1.1c1,0.2,2.6,0.5,4.6,1.1
		c1.2-0.9,1.5-1.6,1.8-2.2H424.5z M425.4,104.5h2.8v-1.2h-2.8V104.5z M425.4,107.9h2.8v-1.9h-2.8V107.9z M429.9,107.9h2.9v-1.9h-2.9
		V107.9z"/>
	<path class="st3" d="M437.1,108.1h6.8v4.6h-1.4v2c0.7-0.3,1-0.5,1.9-1l0.4,1.6c-0.8,0.6-2.8,1.7-3.9,2.1v-4.7h-1.1
		c-0.3,3.3-1.4,4.5-2.5,5.3l-1.1-1.5c1.3-0.9,1.9-2.4,1.9-3.8h-1V108.1z M439.5,101.1h1.8v1.3h2.9v1.5h-0.8c-0.1,0.7-0.2,1-0.4,1.5
		h1.3v1.5h-7.9v-1.5h1.4c-0.1-0.5-0.3-1.3-0.4-1.5h-0.6v-1.5h2.6V101.1z M438.7,109.5v1.8h3.6v-1.8H438.7z M439.1,103.9
		c0.2,0.8,0.3,0.9,0.4,1.5h1.9c0.1-0.3,0.3-1.1,0.3-1.5H439.1z M451.1,112.7v3c0,0.2,0,0.5,0.2,0.5c0.3,0,0.5,0,0.5-0.3
		c0-0.1,0.1-1.4,0.1-1.6l1.6,0.4c-0.1,2.5-0.3,3.2-1.3,3.2h-1.7c-0.4,0-1.1-0.2-1.1-1.1v-4.1h-1.1c-0.2,3.5-2,4.6-3.4,5.3l-0.9-1.5
		c1.8-0.8,2.5-1.7,2.6-3.8h-1.2v-4.6h7.2v4.6H451.1z M448.3,101.1h1.8v1.3h2.8v1.5h-0.6c-0.2,0.7-0.3,1.1-0.4,1.5h1.5v1.5h-8.3v-1.5
		h1.5c-0.2-1-0.2-1.2-0.3-1.5h-0.9v-1.5h3.1V101.1z M447.1,109.5v1.8h3.9v-1.8H447.1z M447.7,103.9c0.2,1.1,0.3,1.3,0.3,1.5h2.1
		c0.2-0.7,0.3-1,0.3-1.5H447.7z"/>
	<path class="st3" d="M470.4,108c-0.9-0.4-1.5-0.7-2.7-1.4v1.4h-9.4v-1.5c-1.1,0.6-1.7,1-2.9,1.5l-1.1-1.9c2.8-0.9,5.8-2.8,7.7-5
		h1.8c1.6,1.7,3.4,3.2,7.7,5L470.4,108z M469.6,109.8v7.9h-13.4v-7.9H469.6z M467.6,111.5H458v4.5h9.6V111.5z M467.2,106.3
		c-2.7-1.8-3.6-2.7-4.4-3.6c-1.2,1.4-2.6,2.5-4.2,3.6H467.2z"/>
	<path class="st3" d="M480.7,115.1c1.9-0.2,5.9-0.8,5.9-5.7c0-2-0.8-5-4.9-5.2c-0.6,8-3,11.3-5.4,11.3c-2.1,0-3.4-2.4-3.4-5.2
		c0-5.1,3.7-8.1,8.4-8.1c5.6,0,7.5,3.7,7.5,7.1c0,6.8-6.1,7.4-7.4,7.5L480.7,115.1z M474.9,110.6c0,1,0.4,3,1.5,3
		c0.7,0,1.2-0.6,1.6-1.4c1.2-2.2,1.6-5,1.8-7.7C476.6,105,474.9,107.6,474.9,110.6z"/>
	<path class="st3" d="M500.3,101.8c-0.5,1.1-1,2-1.5,2.7h0.7v7.5h-3.3v1.4h3.9v1.7h-3.9v2.9h-1.7v-2.9h-4v-1.7h4V112h-3.3v-7.5h5.8
		c0.5-0.8,1.2-2.1,1.5-3.3L500.3,101.8z M492.2,101.3c0.5,0.7,1,1.7,1.3,2.4l-1.7,0.7c-0.4-1.1-0.7-1.6-1.2-2.5L492.2,101.3z
		 M492.8,106v1.6h1.8V106H492.8z M492.8,108.9v1.7h1.8v-1.7H492.8z M495.8,101c0.3,1,0.5,1.6,0.7,2.8l-1.8,0.2
		c-0.1-0.9-0.2-1.5-0.6-2.8L495.8,101z M496.1,106v1.6h1.8V106H496.1z M496.1,108.9v1.7h1.8v-1.7H496.1z M501.8,105.9
		c-0.1-3.7-0.1-4.1-0.1-4.8h1.7c0,1.8,0,3.2,0.1,4.7l3.9-0.3v1.8l-3.8,0.3c0.1,1.3,0.2,2.6,0.4,3.9c0.8-1.2,1.2-2.3,1.5-3.2l1.6,0.8
		c-0.7,1.8-1.4,3.1-2.5,4.5c0.1,0.3,0.7,2,1,2c0.2,0,0.3-0.3,0.3-0.5c0.1-0.3,0.3-1.5,0.4-1.7l1.5,0.9c-0.3,1.7-0.8,3.8-1.9,3.8
		c-1.4,0-2.3-2.1-2.6-2.9c-1.3,1.3-2.5,2.1-3.3,2.6l-1.3-1.5c0.9-0.4,2.4-1.2,4-2.9c-0.2-0.9-0.6-2.9-0.7-5.6l-1.9,0.1v-1.8
		L501.8,105.9z M505.3,101.4c0.5,0.5,1.6,2.2,1.8,2.9l-1.5,0.9c-0.3-0.7-1.6-2.7-1.7-3L505.3,101.4z"/>
	<path class="st3" d="M524.3,102.8v1.7c-1.1,1.6-1.9,2.3-2.5,2.9c1,0.6,2,1.1,3.7,1.5l-0.7,1.8c-1.6-0.5-3-1.2-4.4-2.2
		c-0.8,0.6-1.9,1.4-4.2,2.2l-0.8-1.6v7.7h-6.6v-15h6.6v2.8c1.7-1,2.6-1.9,3.4-3.6l1.8,0.3c-0.2,0.4-0.3,0.8-0.7,1.4H524.3z
		 M511.4,103.6h-1v4.9h1V103.6z M511.4,110.1h-1v5.1h1V110.1z M513.8,103.6h-1.1v4.9h1.1V103.6z M513.8,110.1h-1.1v5.1h1.1V110.1z
		 M515.4,109.1c1.9-0.5,3.1-1.2,3.6-1.5c-0.8-0.7-1.2-1.2-1.7-1.9c-0.3,0.3-0.6,0.5-1,0.8l-0.9-1.1V109.1z M524.3,117.7h-7.8v-6.8
		h7.8V117.7z M522.6,112.5h-4.4v3.5h4.4V112.5z M518.5,104.5c-0.1,0.1-0.1,0.1-0.1,0.1c0.5,0.6,0.8,1,1.9,1.9
		c0.7-0.6,1.2-1.1,1.9-2.1H518.5z"/>
	<path class="st3" d="M545.1,108.1h6.8v4.6h-1.4v2c0.7-0.3,1-0.5,1.9-1l0.4,1.6c-0.8,0.6-2.8,1.7-3.9,2.1v-4.7h-1.1
		c-0.3,3.3-1.4,4.5-2.5,5.3l-1.1-1.5c1.3-0.9,1.9-2.4,1.9-3.8h-1V108.1z M547.5,101.1h1.8v1.3h2.9v1.5h-0.8c-0.1,0.7-0.2,1-0.4,1.5
		h1.3v1.5h-7.9v-1.5h1.4c-0.1-0.5-0.3-1.3-0.4-1.5h-0.6v-1.5h2.6V101.1z M546.7,109.5v1.8h3.6v-1.8H546.7z M547.1,103.9
		c0.2,0.8,0.3,0.9,0.4,1.5h1.9c0.1-0.3,0.3-1.1,0.3-1.5H547.1z M559.1,112.7v3c0,0.2,0,0.5,0.2,0.5c0.3,0,0.5,0,0.5-0.3
		c0-0.1,0.1-1.4,0.1-1.6l1.6,0.4c-0.1,2.5-0.3,3.2-1.3,3.2h-1.7c-0.4,0-1.1-0.2-1.1-1.1v-4.1h-1.1c-0.2,3.5-2,4.6-3.4,5.3l-0.9-1.5
		c1.8-0.8,2.5-1.7,2.6-3.8h-1.2v-4.6h7.2v4.6H559.1z M556.3,101.1h1.8v1.3h2.8v1.5h-0.6c-0.2,0.7-0.3,1.1-0.4,1.5h1.5v1.5h-8.3v-1.5
		h1.5c-0.2-1-0.2-1.2-0.3-1.5h-0.9v-1.5h3.1V101.1z M555.1,109.5v1.8h3.9v-1.8H555.1z M555.7,103.9c0.2,1.1,0.3,1.3,0.3,1.5h2.1
		c0.2-0.7,0.3-1,0.3-1.5H555.7z"/>
	<path class="st3" d="M575.7,102.2v1.5c-0.5,0.5-0.7,0.7-2,1.7h4.1v3.4h1.5v1.6h-1.5v3.5h-6.1v2.7c0,1.1-0.7,1.4-1.5,1.4h-3.8
		l-0.3-1.8h3.2c0.4,0,0.5,0,0.5-0.5V114h-6.2v-1.6h6.2v-1.9h-7.5v-1.6h7.5v-1.8h-5.4V106c-0.5,0.3-0.8,0.4-1.2,0.6l-1-1.5
		c2-0.7,3.9-2,5.2-3.9l2.2,0.3c-0.3,0.4-0.4,0.5-0.5,0.8H575.7z M567.7,103.8c-1,0.9-1.7,1.3-2.3,1.7h5.5c0.7-0.4,1.7-1.1,2.3-1.7
		H567.7z M576,107.1h-4.2v1.8h4.2V107.1z M576,110.5h-4.2v1.9h4.2V110.5z"/>
	<path class="st3" d="M583.9,109.4c-0.1,3.4-0.4,6-2.2,8.6l-1.5-1.3c1.7-2.8,1.8-5.4,1.8-7.7v-7.2h14.1v4.6h-12.2v1.4h13.1
		c0,2.7-0.2,7.3-0.5,8.6c-0.1,0.4-0.5,1.6-2.2,1.6H592l-0.4-1.9h2.1c0.4,0,0.9,0,1.1-1.1c0.2-1.4,0.2-1.8,0.3-5.7H583.9z
		 M583.9,103.4v1.5h10.4v-1.5H583.9z M593,110.6v5.5h-7.8v-5.5H593z M587,112.1v2.4h4.3v-2.4H587z"/>
	<path class="st3" d="M615.3,103.5h-7.7c-0.2,0.7-0.3,1.3-0.5,1.9h7.4v12.2h-15.2v-12.2h5.9c0.2-0.4,0.4-1.1,0.5-1.9h-7.3v-1.7h16.9
		V103.5z M603.1,107h-2v9h2V107z M608.8,107h-4v1.9h4V107z M608.8,110.4h-4v1.9h4V110.4z M608.8,113.8h-4v2.2h4V113.8z M612.7,107
		h-2.1v9h2.1V107z"/>
</g>
<g>
	<path class="st3" d="M209.5,199.1h-4.6v-1.8h11v1.8h-4.6v2.6h5.6v1.8h-5.6v3.3c0.5,0.1,0.9,0.1,1.2,0.1h6.5l-0.4,1.8h-6.9
		c-1.9,0-4-0.4-6.2-3.2c-0.5,1.1-1.2,2.4-2.6,3.5l-1.2-1.7c1.7-1.4,3-4.2,3.3-7.2l1.9,0.3c-0.2,1.5-0.4,2.4-0.7,3.3
		c1.2,1.6,2.1,2.3,3.2,2.6V199.1z M211.4,192.1v1.6h7.1v4.1h-1.9v-2.3h-12.3v2.3h-1.9v-4.1h7v-1.6H211.4z"/>
	<path class="st3" d="M220,198h16.9v1.1H220V198z M235.1,199.8v4.6h-5.9v0.7h6.3v1.3h-6.3v0.8h7.6v1.4H220v-1.4h7.6v-0.8h-6.3v-1.3
		h6.3v-0.7h-5.8v-4.6H235.1z M221.5,192.7h14v4.7h-14V192.7z M223.2,194v0.7h10.5V194H223.2z M223.2,195.6v0.7h10.5v-0.7H223.2z
		 M223.5,200.9v0.7h4.1v-0.7H223.5z M223.5,202.5v0.7h4.1v-0.7H223.5z M229.3,200.9v0.7h4.2v-0.7H229.3z M229.3,202.5v0.7h4.2v-0.7
		H229.3z"/>
	<path class="st3" d="M244.1,195.4v1.6H238v-1.6H244.1z M243.6,208.8h-5.1v-5.6h5.1v4.2c0.8-1.8,1-4.1,1-6v-8.6h9.7v14.5
		c0,1-0.1,1.8-1.5,1.8h-2.7l-0.3-1.8h2.2c0.5,0,0.6-0.3,0.6-0.6v-12.3h-6.2v7.1c0,2.6-0.4,5.3-1.5,7.6l-1.2-0.8V208.8z M243.6,192.8
		v1.5h-5.1v-1.5H243.6z M243.6,197.9v1.6h-5.1v-1.6H243.6z M243.6,200.5v1.6h-5.1v-1.6H243.6z M241.9,204.8h-1.7v2.4h1.7V204.8z
		 M250.3,196h1.8v1.5h-1.8v1.5h1.8v1.5h-5.3v-1.5h2v-1.5h-2V196h2v-1h1.5V196z M251.8,201.6v4.9H247v-4.9H251.8z M250.3,203.1h-1.8
		v1.9h1.8V203.1z"/>
	<path class="st3" d="M270.4,206.8h2.5v1.7H256v-1.7h2.4v-7.4c-0.6,0.3-1,0.4-1.9,0.7l-0.8-1.9c0.8-0.2,3.2-0.8,5.6-2.9h-5.1v-1.7
		h7.5v-1.5h1.8v1.5h7.4v1.7h-5c0.7,0.6,2.7,2.2,5.5,3l-1,1.8c-0.6-0.2-1-0.4-1.9-0.9V206.8z M263.6,198.6v-3.2
		c-0.5,0.6-1.6,1.8-3.8,3.2H263.6z M268.6,200.2h-8.5v1.2h8.5V200.2z M268.6,202.9h-8.5v1.2h8.5V202.9z M268.6,205.6h-8.5v1.2h8.5
		V205.6z M269.3,198.6c-2.3-1.5-3.2-2.5-3.9-3.2v3.2H269.3z"/>
	<path class="st3" d="M277.2,204.9v2.6h-2.6v-2.6H277.2z"/>
	<path class="st3" d="M282.2,204.9v2.6h-2.6v-2.6H282.2z"/>
	<path class="st3" d="M287.3,204.9v2.6h-2.6v-2.6H287.3z"/>
	<path class="st3" d="M292.3,204.9v2.6h-2.6v-2.6H292.3z"/>
	<path class="st3" d="M297.3,204.9v2.6h-2.6v-2.6H297.3z"/>
	<path class="st3" d="M306.5,192.9h2v2.4h4.8v1.7c-0.8,1-2.3,2.7-4.8,4.6v6.8h-2v-5.5c-2.8,1.6-4.7,2.2-6,2.6l-0.9-1.9
		c4-1,8.1-3.1,11.1-6.5h-9.9v-1.9h5.6V192.9z M314.5,205.5c-0.5-0.4-2.2-1.8-5-3.1l1.1-1.5c1.6,0.7,3.6,1.8,5,2.8L314.5,205.5z"/>
	<path class="st3" d="M320.9,202.3c-0.3-1.7-0.8-3.1-1.4-4.4l1.7-0.5c0.8,1.6,1.3,3.3,1.5,4.5L320.9,202.3z M320.7,206.9
		c5.8-1.2,8-3.7,9.1-10l2,0.4c-1.1,5.4-3,9.4-9.8,11.1L320.7,206.9z M324.8,201.5c-0.2-1-0.5-2.5-1.2-4.4l1.6-0.4
		c0.6,1.3,1.1,3.1,1.3,4.3L324.8,201.5z"/>
	<path class="st3" d="M349.7,203.3c-1.2-0.8-3.7-2.4-7.6-3.8v8.8h-2.2V193h2.2v4.4c4,1.3,7.1,3,8.6,3.8L349.7,203.3z"/>
	<path class="st3" d="M369,193.7c-0.6,4.5-2.7,6.3-5.5,7.8l-1.3-1.5c3.1-1.3,3.9-2.8,4.4-4.3H354v-1.9H369z M354.2,206.6
		c4.9-2.1,5.6-5.4,5.5-9.3l2.1,0c-0.1,3.6-0.4,8.2-6.3,11L354.2,206.6z"/>
	<path class="st3" d="M378,198.4c-1.2-0.8-2.9-1.8-5.6-2.6l1-1.8c3,0.9,4.8,2,5.7,2.5L378,198.4z M372.8,205.7
		c7.1-0.5,10.8-3.9,12.8-10.8l1.8,1.3c-1,2.9-3.6,10.9-14.2,11.7L372.8,205.7z"/>
	<path class="st3" d="M391.3,206.6c3.8-0.8,7-2,7.4-8.5h-4.5c-0.6,1.1-1.4,2.4-3.2,3.8l-1.5-1.4c2.5-1.9,3.7-4.4,4.2-7.5l2.1,0.2
		c-0.3,1.1-0.4,1.8-0.9,3h10.1v1.9h-4.2c-0.5,5.5-2.3,9.1-8.6,10.3L391.3,206.6z"/>
	<path class="st3" d="M423.3,199.6v2.1h-15.4v-2.1H423.3z"/>
	<path class="st3" d="M439.7,203.3c-1.2-0.8-3.7-2.4-7.6-3.8v8.8h-2.2V193h2.2v4.4c4,1.3,7.1,3,8.6,3.8L439.7,203.3z"/>
	<path class="st3" d="M449.2,195.4v1.6h-6.1v-1.6H449.2z M448.7,208.8h-5.1v-5.6h5.1v4.2c0.8-1.8,1-4.1,1-6v-8.6h9.7v14.5
		c0,1-0.1,1.8-1.5,1.8h-2.7l-0.3-1.8h2.2c0.5,0,0.6-0.3,0.6-0.6v-12.3h-6.2v7.1c0,2.6-0.4,5.3-1.5,7.6l-1.2-0.8V208.8z M448.7,192.8
		v1.5h-5.1v-1.5H448.7z M448.7,197.9v1.6h-5.1v-1.6H448.7z M448.7,200.5v1.6h-5.1v-1.6H448.7z M447,204.8h-1.7v2.4h1.7V204.8z
		 M455.4,196h1.8v1.5h-1.8v1.5h1.8v1.5h-5.3v-1.5h2v-1.5h-2V196h2v-1h1.5V196z M456.9,201.6v4.9h-4.8v-4.9H456.9z M455.5,203.1h-1.8
		v1.9h1.8V203.1z"/>
	<path class="st3" d="M475.5,206.8h2.5v1.7h-16.9v-1.7h2.4v-7.4c-0.6,0.3-1,0.4-1.9,0.7l-0.8-1.9c0.8-0.2,3.2-0.8,5.6-2.9h-5.1v-1.7
		h7.5v-1.5h1.8v1.5h7.4v1.7h-5c0.7,0.6,2.7,2.2,5.5,3l-1,1.8c-0.6-0.2-1-0.4-1.9-0.9V206.8z M468.7,198.6v-3.2
		c-0.5,0.6-1.6,1.8-3.8,3.2H468.7z M473.7,200.2h-8.5v1.2h8.5V200.2z M473.7,202.9h-8.5v1.2h8.5V202.9z M473.7,205.6h-8.5v1.2h8.5
		V205.6z M474.4,198.6c-2.3-1.5-3.2-2.5-3.9-3.2v3.2H474.4z"/>
	<path class="st3" d="M311.4,237.8c-1.4,0.7-2.9,1-4.4,1c-5,0-7.6-3.4-7.6-7.4c0-4.6,3.4-7.5,7.6-7.5c1.6,0,3.1,0.4,4.4,1.3l-0.7,2
		c-0.8-0.7-2-1.3-3.8-1.3c-3.5,0-5.4,2.5-5.4,5.5c0,2.7,1.7,5.5,5.6,5.5c1.8,0,3.1-0.6,4.3-1.4V237.8z"/>
	<path class="st3" d="M315.5,224.2v12.3h5.2v1.9h-7.3v-14.3H315.5z"/>
	<path class="st3" d="M328.1,238.5H326v-12.3h-4.6v-1.9h11.4v1.9h-4.6V238.5z"/>
	<path class="st3" d="M339.6,226.4v1.6h-6.1v-1.6H339.6z M339.2,239.8H334v-5.6h5.1v4.2c0.8-1.8,1-4.1,1-6v-8.6h9.7v14.5
		c0,1-0.1,1.8-1.5,1.8h-2.7l-0.3-1.8h2.2c0.5,0,0.6-0.3,0.6-0.6v-12.3h-6.2v7.1c0,2.6-0.4,5.3-1.5,7.6l-1.2-0.8V239.8z M339.2,223.8
		v1.5H334v-1.5H339.2z M339.2,228.9v1.6H334v-1.6H339.2z M339.2,231.5v1.6H334v-1.6H339.2z M337.4,235.8h-1.7v2.4h1.7V235.8z
		 M345.9,227h1.8v1.5h-1.8v1.5h1.8v1.5h-5.3v-1.5h2v-1.5h-2V227h2v-1h1.5V227z M347.4,232.6v4.9h-4.8v-4.9H347.4z M345.9,234.1H344
		v1.9h1.8V234.1z"/>
	<path class="st3" d="M365.9,237.8h2.5v1.7h-16.9v-1.7h2.4v-7.4c-0.6,0.3-1,0.4-1.9,0.7l-0.8-1.9c0.8-0.2,3.2-0.8,5.6-2.9h-5.1v-1.7
		h7.5v-1.5h1.8v1.5h7.4v1.7h-5c0.7,0.6,2.7,2.2,5.5,3l-1,1.8c-0.6-0.2-1-0.4-1.9-0.9V237.8z M359.2,229.6v-3.2
		c-0.5,0.6-1.6,1.8-3.8,3.2H359.2z M364.2,231.2h-8.5v1.2h8.5V231.2z M364.2,233.9h-8.5v1.2h8.5V233.9z M364.2,236.6h-8.5v1.2h8.5
		V236.6z M364.8,229.6c-2.3-1.5-3.2-2.5-3.9-3.2v3.2H364.8z"/>
	<path class="st3" d="M375.4,224.2c-1.9,2.4-3.1,5.3-3.1,8.3c0,3.1,1.2,6,3.1,8.4h-1.7c-3.1-3.8-3.2-7.3-3.2-8.4
		c0-1,0.1-4.6,3.2-8.3H375.4z"/>
	<path class="st3" d="M392.6,239.7c-1.2-0.3-4.1-1.1-6.9-3.3v3.8h-1.8v-3.7c-2.1,1.7-4.2,2.7-6.9,3.3l-0.9-1.9c2.6-0.4,4.5-1,6.1-2
		h-5.9v-1.5h7.5v-1.1h-5.7v-4.7c-0.4,0.4-0.7,0.6-1,0.9l-1.1-1.6c2.4-2,3.1-3.3,3.6-4.6l2,0.3c-0.2,0.5-0.4,0.8-0.6,1.3h3.3
		c0.3-1,0.4-1,0.6-1.6l1.9,0.2c-0.2,0.4-0.4,1-0.6,1.5h6v1.4H386v1h5.7v1.2H386v1h5.7v1.2H386v1.1h6.7v1.4h-7.1v1.1h7.5v1.5h-5.8
		c1.7,1,3.4,1.6,6,2L392.6,239.7z M380.2,226.2c0,0-0.2,0.2-0.2,0.3v0.8h4.3v-1H380.2z M384.3,228.4H380v1h4.3V228.4z M384.3,230.7
		H380v1.1h4.3V230.7z"/>
	<path class="st3" d="M410.3,230.1c-0.9-0.4-1.5-0.7-2.7-1.4v1.4h-9.4v-1.5c-1.1,0.6-1.7,1-2.9,1.5l-1.1-1.9c2.8-0.9,5.8-2.8,7.7-5
		h1.8c1.6,1.7,3.4,3.2,7.7,5L410.3,230.1z M409.5,231.9v7.9h-13.4v-7.9H409.5z M407.6,233.6h-9.6v4.5h9.6V233.6z M407.1,228.4
		c-2.7-1.8-3.6-2.7-4.4-3.6c-1.2,1.4-2.6,2.5-4.2,3.6H407.1z"/>
	<path class="st3" d="M418.4,226.4v1.6h-6.1v-1.6H418.4z M418,239.8h-5.1v-5.6h5.1v4.2c0.8-1.8,1-4.1,1-6v-8.6h9.7v14.5
		c0,1-0.1,1.8-1.5,1.8h-2.7l-0.3-1.8h2.2c0.5,0,0.6-0.3,0.6-0.6v-12.3h-6.2v7.1c0,2.6-0.4,5.3-1.5,7.6l-1.2-0.8V239.8z M418,223.8
		v1.5h-5.1v-1.5H418z M418,228.9v1.6h-5.1v-1.6H418z M418,231.5v1.6h-5.1v-1.6H418z M416.3,235.8h-1.7v2.4h1.7V235.8z M424.7,227
		h1.8v1.5h-1.8v1.5h1.8v1.5h-5.3v-1.5h2v-1.5h-2V227h2v-1h1.5V227z M426.2,232.6v4.9h-4.8v-4.9H426.2z M424.7,234.1h-1.8v1.9h1.8
		V234.1z"/>
	<path class="st3" d="M444.8,237.8h2.5v1.7h-16.9v-1.7h2.4v-7.4c-0.6,0.3-1,0.4-1.9,0.7l-0.8-1.9c0.8-0.2,3.2-0.8,5.6-2.9h-5.1v-1.7
		h7.5v-1.5h1.8v1.5h7.4v1.7h-5c0.7,0.6,2.7,2.2,5.5,3l-1,1.8c-0.6-0.2-1-0.4-1.9-0.9V237.8z M438,229.6v-3.2
		c-0.5,0.6-1.6,1.8-3.8,3.2H438z M443,231.2h-8.5v1.2h8.5V231.2z M443,233.9h-8.5v1.2h8.5V233.9z M443,236.6h-8.5v1.2h8.5V236.6z
		 M443.6,229.6c-2.3-1.5-3.2-2.5-3.9-3.2v3.2H443.6z"/>
	<path class="st3" d="M449.9,224.2c3.1,3.8,3.2,7.3,3.2,8.3c0,1.1-0.2,4.6-3.2,8.4h-1.7c1.9-2.4,3.1-5.3,3.1-8.4c0-3-1.2-6-3.1-8.3
		H449.9z"/>
</g>
<g>
	<path class="st3" d="M208.6,270.5H204v-1.8h11v1.8h-4.6v2.6h5.6v1.8h-5.6v3.3c0.5,0.1,0.9,0.1,1.2,0.1h6.5l-0.4,1.8h-6.9
		c-1.9,0-4-0.4-6.2-3.2c-0.5,1.1-1.2,2.4-2.6,3.5l-1.2-1.7c1.7-1.4,3-4.2,3.3-7.2l1.9,0.3c-0.2,1.5-0.4,2.4-0.7,3.3
		c1.2,1.6,2.1,2.3,3.2,2.6V270.5z M210.5,263.5v1.6h7.1v4.1h-1.9v-2.3h-12.3v2.3h-1.9v-4.1h7v-1.6H210.5z"/>
	<path class="st3" d="M220.9,267.1c0,1.4-0.1,4.2-0.5,5.9l-1.5-0.7c0.5-1.3,0.6-4.1,0.6-5.2H220.9z M221.4,263.6h1.8v16.9h-1.8
		V263.6z M227.7,269.2c-0.4,1.2-0.9,2.3-1.6,3.2l-1.4-1.2c0.3-0.4,0.6-0.9,1.1-2.1l-1.3,0.7c-0.1-0.4-0.5-1.7-1.1-2.8l1.3-0.7
		c0.3,0.4,0.8,1.6,1.2,2.7c0.7-1.9,1-3.9,1-4.6l1.9,0.3c-0.1,0.7-0.2,1.6-0.5,2.8h1.7v-3.9h1.8v3.9h4v1.7h-4v3.3h3.6v1.7h-3.6v3.8
		h4.3v1.7h-11.5v-1.7h5.3v-3.8h-3.6v-1.7h3.6v-3.3H227.7z"/>
	<path class="st3" d="M243.2,266.8v1.6h-6.1v-1.6H243.2z M242.7,280.2h-5.1v-5.6h5.1v4.2c0.8-1.8,1-4.1,1-6v-8.6h9.7v14.5
		c0,1-0.1,1.8-1.5,1.8h-2.7l-0.3-1.8h2.2c0.5,0,0.6-0.3,0.6-0.6v-12.3h-6.2v7.1c0,2.6-0.4,5.3-1.5,7.6l-1.2-0.8V280.2z M242.7,264.2
		v1.5h-5.1v-1.5H242.7z M242.7,269.3v1.6h-5.1v-1.6H242.7z M242.7,271.9v1.6h-5.1v-1.6H242.7z M241,276.2h-1.7v2.4h1.7V276.2z
		 M249.4,267.4h1.8v1.5h-1.8v1.5h1.8v1.5h-5.3v-1.5h2v-1.5h-2v-1.5h2v-1h1.5V267.4z M250.9,273v4.9h-4.8V273H250.9z M249.4,274.5
		h-1.8v1.9h1.8V274.5z"/>
	<path class="st3" d="M269.5,278.2h2.5v1.7h-16.9v-1.7h2.4v-7.4c-0.6,0.3-1,0.4-1.9,0.7l-0.8-1.9c0.8-0.2,3.2-0.8,5.6-2.9h-5.1v-1.7
		h7.5v-1.5h1.8v1.5h7.4v1.7h-5c0.7,0.6,2.7,2.2,5.5,3l-1,1.8c-0.6-0.2-1-0.4-1.9-0.9V278.2z M262.7,270v-3.2
		c-0.5,0.6-1.6,1.8-3.8,3.2H262.7z M267.7,271.6h-8.5v1.2h8.5V271.6z M267.7,274.3h-8.5v1.2h8.5V274.3z M267.7,277h-8.5v1.2h8.5V277
		z M268.4,270c-2.3-1.5-3.2-2.5-3.9-3.2v3.2H268.4z"/>
	<path class="st3" d="M276.3,276.3v2.6h-2.6v-2.6H276.3z"/>
	<path class="st3" d="M281.3,276.3v2.6h-2.6v-2.6H281.3z"/>
	<path class="st3" d="M286.4,276.3v2.6h-2.6v-2.6H286.4z"/>
	<path class="st3" d="M291.4,276.3v2.6h-2.6v-2.6H291.4z"/>
	<path class="st3" d="M296.4,276.3v2.6h-2.6v-2.6H296.4z"/>
	<path class="st3" d="M299.5,278.1c7.1-1.3,9.7-5.4,10.6-10.5h-5.9c-1.1,1.7-2.4,3.2-4.5,4.6l-1.3-1.5c1.3-0.9,3.2-2.4,4.4-5h7.2
		l1.9,2.5c-1.1,4.7-3.3,10-11.7,11.7L299.5,278.1z M311.4,263.6c0.9,1.1,1.3,1.8,2.1,3.3l-1.2,0.8c-0.6-1.4-1.1-2.2-2-3.3
		L311.4,263.6z M313.8,262.9c0.9,1.1,1.3,1.9,2,3.3l-1.2,0.8c-0.6-1.4-1-2.1-1.9-3.4L313.8,262.9z"/>
	<path class="st3" d="M321.2,269.4c0,6.3-1.8,8.8-3.4,10.4l-1.5-1.5c1.8-1.8,2.9-3.7,2.9-8.7v-4.5h2V269.4z M326,276.9
		c2-0.7,4.1-1.5,4.9-6.6l1.9,0.8c-0.8,3.7-2.4,7.8-8.9,8.3v-14.8h2V276.9z"/>
	<path class="st3" d="M350.3,271v2.1h-15.4V271H350.3z"/>
	<path class="st3" d="M363.8,265.8l2.3,2.7c-0.5,2.7-1.1,4.8-2.9,6.9c-1.1,1.3-3.5,3.5-7.8,4.2l-0.9-1.9c7.1-1.2,8.9-5.3,9.6-9.9
		h-10.9v-2H363.8z M369.8,265.4c0,1.4-1.1,2.5-2.5,2.5s-2.5-1.1-2.5-2.5c0-1.4,1.1-2.5,2.5-2.5S369.8,264,369.8,265.4z M365.9,265.4
		c0,0.7,0.6,1.3,1.3,1.3s1.3-0.6,1.3-1.3s-0.6-1.3-1.3-1.3C366.5,264.1,365.9,264.7,365.9,265.4z"/>
	<path class="st3" d="M380.7,279.7h-2.1v-8c-3,1.9-4.9,2.6-6.7,3.3l-1-1.8c5.1-1.6,9.5-4.7,12.9-8.9l1.8,1.2
		c-1.4,1.7-2.6,2.8-4.9,4.7V279.7z"/>
	<path class="st3" d="M395.1,269.8c-1.2-0.8-2.9-1.8-5.6-2.6l1-1.8c3,0.9,4.8,2,5.7,2.5L395.1,269.8z M389.9,277.1
		c7.1-0.5,10.8-3.9,12.8-10.8l1.8,1.3c-1,2.9-3.6,10.9-14.2,11.7L389.9,277.1z"/>
	<path class="st3" d="M407.2,270.6c2.2-1.3,3.7-3,4.7-5.4h9.6c-0.3,2.9-1.2,11.7-12.1,14.5l-1-1.8c4.5-1,6.9-3.3,7.6-4.1
		c-1.5-1.2-2.9-2.2-5.3-3.4c-0.5,0.5-1,1-2.2,1.7L407.2,270.6z M413.2,267.1c-0.6,1.1-1,1.5-1.4,2c0.8,0.4,3.2,1.5,5.3,3.3
		c0.9-1.4,1.6-2.9,1.9-5.3H413.2z"/>
	<path class="st3" d="M428.5,270.2c1.9-0.5,4.6-1.1,8-2.9l0.9,1.9c-4.2,1.9-7.5,2.7-8.9,3v3.7c0,1.2,0.3,1.3,2,1.3h4.6
		c1.2,0,2.9-0.1,4-0.3l0.1,2.1c-1.1,0.2-2.6,0.2-3.7,0.2h-5.4c-2.4,0-3.8-0.4-3.8-2.8v-11.4h2.1V270.2z M437.3,263.8
		c0.8,1.1,1.3,2,1.8,3.4l-1.3,0.7c-0.5-1.4-0.9-2.2-1.7-3.5L437.3,263.8z M439.9,262.9c0.8,1,1.2,2,1.8,3.4l-1.3,0.7
		c-0.6-1.5-0.9-2.2-1.7-3.5L439.9,262.9z"/>
	<path class="st3" d="M457,277v1.8h-12.8V277h7.5c0.5-2.6,0.6-3.7,0.8-6.5h-6.6v-1.8h8.7c-0.1,3-0.4,5.8-0.9,8.3H457z"/>
	<path class="st3" d="M476.3,271v2.1h-15.4V271H476.3z"/>
	<path class="st3" d="M484.3,266.8v1.6h-6.1v-1.6H484.3z M483.8,280.2h-5.1v-5.6h5.1v4.2c0.8-1.8,1-4.1,1-6v-8.6h9.7v14.5
		c0,1-0.1,1.8-1.5,1.8h-2.7l-0.3-1.8h2.2c0.5,0,0.6-0.3,0.6-0.6v-12.3h-6.2v7.1c0,2.6-0.4,5.3-1.5,7.6l-1.2-0.8V280.2z M483.8,264.2
		v1.5h-5.1v-1.5H483.8z M483.8,269.3v1.6h-5.1v-1.6H483.8z M483.8,271.9v1.6h-5.1v-1.6H483.8z M482.1,276.2h-1.7v2.4h1.7V276.2z
		 M490.5,267.4h1.8v1.5h-1.8v1.5h1.8v1.5H487v-1.5h2v-1.5h-2v-1.5h2v-1h1.5V267.4z M492,273v4.9h-4.8V273H492z M490.5,274.5h-1.8
		v1.9h1.8V274.5z"/>
	<path class="st3" d="M510.6,278.2h2.5v1.7h-16.9v-1.7h2.4v-7.4c-0.6,0.3-1,0.4-1.9,0.7l-0.8-1.9c0.8-0.2,3.2-0.8,5.6-2.9h-5.1v-1.7
		h7.5v-1.5h1.8v1.5h7.4v1.7h-5c0.7,0.6,2.7,2.2,5.5,3l-1,1.8c-0.6-0.2-1-0.4-1.9-0.9V278.2z M503.8,270v-3.2
		c-0.5,0.6-1.6,1.8-3.8,3.2H503.8z M508.8,271.6h-8.5v1.2h8.5V271.6z M508.8,274.3h-8.5v1.2h8.5V274.3z M508.8,277h-8.5v1.2h8.5V277
		z M509.5,270c-2.3-1.5-3.2-2.5-3.9-3.2v3.2H509.5z"/>
	<path class="st3" d="M301.9,309c4.9-0.8,5.9-2.8,6-6.5h-6.8v-1.9h14.7v1.9H310c-0.2,5.7-2.9,7.5-7.2,8.3L301.9,309z M312.4,296v1.9
		h-9.9V296H312.4z M314,294.5c0.6,1.2,0.8,2.2,1.1,3.7l-1.4,0.5c-0.2-1.5-0.5-2.4-1-3.7L314,294.5z M316.5,294.1
		c0.6,1.2,0.8,2.2,1.1,3.7l-1.4,0.5c-0.2-1.5-0.5-2.3-1-3.7L316.5,294.1z"/>
	<path class="st3" d="M329.7,296.8l2.3,2.7c-0.5,2.7-1.1,4.8-2.9,6.9c-1.1,1.3-3.5,3.5-7.8,4.2l-0.9-1.9c7.1-1.2,8.9-5.3,9.6-9.9
		h-10.9v-2H329.7z M335.6,296.4c0,1.4-1.1,2.5-2.5,2.5s-2.5-1.1-2.5-2.5c0-1.4,1.1-2.5,2.5-2.5S335.6,295,335.6,296.4z M331.8,296.4
		c0,0.7,0.6,1.3,1.3,1.3s1.3-0.6,1.3-1.3s-0.6-1.3-1.3-1.3C332.4,295.1,331.8,295.7,331.8,296.4z"/>
	<path class="st3" d="M349.6,296.3c-0.8,3.7-2.2,5.8-3.3,7.4c1,0.8,3.3,2.6,6,5.2l-1.7,1.6c-0.8-0.9-2.4-2.6-5.5-5.4
		c-2.5,2.7-5,4.4-7.2,5.4l-1.2-1.7c2.1-0.9,7.6-3.6,10.2-10.7h-9.3v-1.9H349.6z"/>
	<path class="st3" d="M364.6,310.7h-2.1v-8c-3,1.9-4.9,2.6-6.7,3.3l-1-1.8c5.1-1.6,9.5-4.7,12.9-8.9l1.8,1.2
		c-1.4,1.7-2.6,2.8-4.9,4.7V310.7z"/>
	<path class="st3" d="M379,300.8c-1.2-0.8-2.9-1.8-5.6-2.6l1-1.8c3,0.9,4.8,2,5.7,2.5L379,300.8z M373.8,308.1
		c7.1-0.5,10.8-3.9,12.8-10.8l1.8,1.3c-1,2.9-3.6,10.9-14.2,11.7L373.8,308.1z"/>
	<path class="st3" d="M391,301.6c2.2-1.3,3.7-3,4.7-5.4h9.6c-0.3,2.9-1.2,11.7-12.1,14.5l-1-1.8c4.5-1,6.9-3.3,7.6-4.1
		c-1.5-1.2-2.9-2.2-5.3-3.4c-0.5,0.5-1,1-2.2,1.7L391,301.6z M397.1,298.1c-0.6,1.1-1,1.5-1.4,2c0.8,0.4,3.2,1.5,5.3,3.3
		c0.9-1.4,1.6-2.9,1.9-5.3H397.1z"/>
	<path class="st3" d="M412.4,301.2c1.9-0.5,4.6-1.1,8-2.9l0.9,1.9c-4.2,1.9-7.5,2.7-8.9,3v3.7c0,1.2,0.3,1.3,2,1.3h4.6
		c1.2,0,2.9-0.1,4-0.3l0.1,2.1c-1.1,0.2-2.6,0.2-3.7,0.2h-5.4c-2.4,0-3.8-0.4-3.8-2.8v-11.4h2.1V301.2z M421.1,294.8
		c0.8,1.1,1.3,2,1.8,3.4l-1.3,0.7c-0.5-1.4-0.9-2.2-1.7-3.5L421.1,294.8z M423.8,293.9c0.8,1,1.2,2,1.8,3.4l-1.3,0.7
		c-0.6-1.5-0.9-2.2-1.7-3.5L423.8,293.9z"/>
	<path class="st3" d="M440.9,308v1.8h-12.8V308h7.5c0.5-2.6,0.6-3.7,0.8-6.5h-6.6v-1.8h8.7c-0.1,3-0.4,5.8-0.9,8.3H440.9z"/>
	<path class="st3" d="M460.2,302v2.1h-15.4V302H460.2z"/>
	<path class="st3" d="M468.2,297.8v1.6h-6.1v-1.6H468.2z M467.7,311.2h-5.1v-5.6h5.1v4.2c0.8-1.8,1-4.1,1-6v-8.6h9.7v14.5
		c0,1-0.1,1.8-1.5,1.8h-2.7l-0.3-1.8h2.2c0.5,0,0.6-0.3,0.6-0.6v-12.3h-6.2v7.1c0,2.6-0.4,5.3-1.5,7.6l-1.2-0.8V311.2z M467.7,295.2
		v1.5h-5.1v-1.5H467.7z M467.7,300.3v1.6h-5.1v-1.6H467.7z M467.7,302.9v1.6h-5.1v-1.6H467.7z M466,307.2h-1.7v2.4h1.7V307.2z
		 M474.4,298.4h1.8v1.5h-1.8v1.5h1.8v1.5h-5.3v-1.5h2v-1.5h-2v-1.5h2v-1h1.5V298.4z M475.9,304v4.9h-4.8V304H475.9z M474.4,305.5
		h-1.8v1.9h1.8V305.5z"/>
	<path class="st3" d="M494.5,309.2h2.5v1.7h-16.9v-1.7h2.4v-7.4c-0.6,0.3-1,0.4-1.9,0.7l-0.8-1.9c0.8-0.2,3.2-0.8,5.6-2.9h-5.1v-1.7
		h7.5v-1.5h1.8v1.5h7.4v1.7h-5c0.7,0.6,2.7,2.2,5.5,3l-1,1.8c-0.6-0.2-1-0.4-1.9-0.9V309.2z M487.7,301v-3.2
		c-0.5,0.6-1.6,1.8-3.8,3.2H487.7z M492.7,302.6h-8.5v1.2h8.5V302.6z M492.7,305.3h-8.5v1.2h8.5V305.3z M492.7,308h-8.5v1.2h8.5V308
		z M493.4,301c-2.3-1.5-3.2-2.5-3.9-3.2v3.2H493.4z"/>
</g>
<g>
	<path class="st3" d="M218.8,391.4c-1.9-0.6-4.2-1.5-6.5-3.6v3.8h-1.8v-3.8c-1.2,1-2.7,2.2-6.5,3.5l-0.9-1.6
		c3.7-1.1,5.3-2.2,6.1-2.8H203v-1.5h7.5v-1.1h-6.2V383h6.2v-1.1h-6.6v-1.5h3.7c-0.1-0.3-0.3-1.1-0.5-1.4H203v-1.5h2.8
		c-0.1-0.3-0.7-1.5-1-2.2l1.9-0.5c0.5,0.9,0.7,1.6,1.1,2.8h1.1v-2.6h1.8v2.6h1.6v-2.6h1.8v2.6h1.2c0.3-0.7,0.8-2,1-2.8l1.9,0.5
		c-0.1,0.2-0.5,1.3-1,2.2h2.8v1.5h-4.1c-0.1,0.2-0.4,1.2-0.5,1.4h3.9v1.5h-6.8v1.1h6.3v1.4h-6.3v1.1h7.5v1.5h-6.1
		c2.1,1.6,4,2.2,6.2,2.8L218.8,391.4z M213.2,380.4c0.1-0.3,0.3-0.7,0.4-1.4h-4.7c0.1,0.2,0.4,1.2,0.5,1.4H213.2z"/>
	<path class="st3" d="M221.8,390c2.3-0.5,4.2-1.8,3.9-5.2c-1.7,1.2-2.9,1.7-4.1,2.1l-0.8-1.8c2.4-0.7,3.7-1.4,5-2.7h-3.5v-7.2h14.2
		v7.2h-3.4c0.9,1,2.8,2.1,5,2.7l-0.8,1.8c-1.3-0.5-2.6-1-4.1-2.1v6.8h-1.9v-7.3h1.3c-0.9-0.8-1.4-1.3-1.8-1.9H228
		c-0.3,0.4-0.6,1-1.7,1.9l1.4,0.1c-0.1,3.3-0.6,5.7-4.6,7.2L221.8,390z M224.1,376.9v1.4h4.3v-1.4H224.1z M224.1,379.6v1.4h4.3v-1.4
		H224.1z M230.2,376.9v1.4h4.5v-1.4H230.2z M230.2,379.6v1.4h4.5v-1.4H230.2z"/>
	<path class="st3" d="M246.5,375.5c4.1,0,7.4,3,7.4,7.4c0,4.4-3.3,7.4-7.4,7.4c-4,0-7.4-2.9-7.4-7.4
		C239.1,378.4,242.5,375.5,246.5,375.5z M246.5,388.4c3.2,0,5.3-2.7,5.3-5.5c0-2.8-2.1-5.5-5.3-5.5s-5.3,2.6-5.3,5.5
		C241.3,385.8,243.3,388.4,246.5,388.4z"/>
	<path class="st3" d="M261,375.8c1.1,0,1.9,0.2,2.4,0.4c1.2,0.5,2,1.7,2,3.3c0,2-1.1,2.7-1.7,3.1c0.7,0.4,2.2,1.2,2.2,3.5
		c0,4-3.8,4-5.1,4h-4.9v-14.3H261z M258.1,377.7v4h2.9c1,0,2.3-0.4,2.3-2c0-2-1.8-2-2.6-2H258.1z M258.1,383.6v4.6h2.7
		c1.2,0,3-0.1,3-2.3c0-2.2-2-2.3-2.6-2.3H258.1z"/>
	<path class="st3" d="M270.9,391.1c-1-1.5-2.1-2.8-3.2-4l1.7-1.2c1.2,1.1,2.7,2.8,3.4,3.8L270.9,391.1z"/>
	<path class="st3" d="M285.8,380c1.1,0.4,2.1,1.1,2.9,1.7l-1.1,1.5c-1-0.9-2.5-1.6-2.8-1.7L285.8,380z M289.4,385.7
		c-0.8,2.1-2.2,4.5-3.2,5.9l-1.3-1.5c1.1-1.4,2.2-3.3,3-5.5L289.4,385.7z M286.7,375.1c0.9,0.4,1.9,1,2.7,1.7l-1.1,1.6
		c-0.9-0.8-1.6-1.2-2.7-1.8L286.7,375.1z M292.8,383.3c-0.1,4.2-0.6,6.4-3,8.5l-1.4-1.4c2.2-1.6,2.7-3.2,2.7-7.1H292.8z
		 M300.6,383.3c-0.2-0.4-0.4-0.6-1-1.5c-2.3,0.3-3,0.3-9.5,0.6l-0.2-1.7c0.4,0,1.6,0,2.1-0.1c0.6-1.2,0.9-1.7,1.3-2.7h-3.4v-1.7h5
		v-1.4h1.9v1.4h5.2v1.7h-6.7c-0.3,0.6-0.6,1.3-1.4,2.7c1.9,0,3-0.1,4.6-0.2c-0.4-0.5-0.6-0.8-1-1.2l1.4-0.9c0.5,0.5,1.9,1.8,3.3,4
		L300.6,383.3z M296.1,383.4v7.8h-1.8v-7.8H296.1z M299.5,383.3v6.1c0,0.1,0,0.4,0.3,0.4h0.4c0.3,0,0.3-0.1,0.3-0.4
		c0-0.1,0.1-1,0.1-2l1.6,0.5c0,1.1-0.2,2.7-0.3,3c-0.2,0.8-0.8,0.8-1,0.8h-2.1c-0.7,0-1-0.6-1-0.9v-7.4H299.5z"/>
	<path class="st3" d="M303.2,381.7h3.7v4.8c0,2.3,2.3,3,4,3h9.3l-0.4,1.8h-9c-1.4,0-3.3-0.4-4.3-2.1c-0.4,0.5-1.2,1.6-2.6,2.6l-1-2
		c0.8-0.4,1.5-1,2.2-1.6v-4.7h-1.9V381.7z M304.8,375c0.8,0.8,1.9,2,2.7,3.2l-1.6,1.2c-0.9-1.5-1.7-2.4-2.6-3.3L304.8,375z
		 M311.3,376.9h-3v-1.5h10.5v1.5c-0.5,0.4-1.2,0.9-3.3,1.9h3.8v8.5c0,1.3-0.7,1.5-1.5,1.5h-2.1l-0.3-1.7h1.8c0.4,0,0.5-0.2,0.5-0.5
		v-0.9h-2.9v2.9H313v-2.9h-2.8v3.1h-1.7v-10h3.4c-0.6-0.4-0.8-0.5-1.4-0.8L311.3,376.9z M310.2,380.2v1.3h2.8v-1.3H310.2z
		 M310.2,382.9v1.3h2.8v-1.3H310.2z M311.7,376.9c0.7,0.4,1.4,0.9,2,1.4c0.3-0.1,1.4-0.6,2.4-1.4H311.7z M314.7,380.2v1.3h2.9v-1.3
		H314.7z M314.7,382.9v1.3h2.9v-1.3H314.7z"/>
	<path class="st3" d="M327.8,376.6c-0.9,7.9-3.5,12.1-4.5,13.8l-2-1c2.6-4,3.9-8.3,4.4-13.1L327.8,376.6z M334.6,390.1
		c-1.1-6.3-2.7-9.8-4.2-13l1.9-0.8c1.6,2.9,3.6,7.4,4.6,13.3L334.6,390.1z M334.5,375.1c0.8,1.2,1.3,2.3,1.8,3.4l-1.3,0.7
		c-0.5-1.5-0.9-2.3-1.7-3.5L334.5,375.1z M336.9,374.1c0.7,1,1.2,1.9,1.8,3.4l-1.3,0.7c-0.5-1.4-0.9-2.2-1.7-3.5L336.9,374.1z"/>
	<path class="st3" d="M349.6,390.8h-2.1v-8c-3,1.9-4.9,2.6-6.7,3.3l-1-1.8c5.1-1.6,9.5-4.7,12.9-8.9l1.8,1.2
		c-1.4,1.7-2.6,2.8-4.9,4.7V390.8z"/>
	<path class="st3" d="M366,390.7l-2.1,0.2l-1.5-9.6l-4.3,0.6l-0.3-2l4.3-0.6l-0.6-3.7l2.1-0.3l0.6,3.7l8.9-1.2
		c-0.3,5.1-2.7,7-4.7,8.4l-1.5-1.4c0.7-0.4,3.1-1.8,3.7-4.8l-6.2,0.9L366,390.7z"/>
	<path class="st3" d="M391.3,382.2v2.1h-15.4v-2.1H391.3z"/>
	<path class="st3" d="M396.9,391.1c-1-1.5-2.1-2.8-3.2-4l1.7-1.2c1.2,1.1,2.7,2.8,3.4,3.8L396.9,391.1z"/>
	<path class="st3" d="M426.9,391.4c-1.9-0.6-4.2-1.5-6.5-3.6v3.8h-1.8v-3.8c-1.2,1-2.7,2.2-6.5,3.5l-0.9-1.6
		c3.7-1.1,5.3-2.2,6.1-2.8h-6.1v-1.5h7.5v-1.1h-6.2V383h6.2v-1.1H412v-1.5h3.7c-0.1-0.3-0.3-1.1-0.5-1.4h-4.1v-1.5h2.8
		c-0.1-0.3-0.7-1.5-1-2.2l1.9-0.5c0.5,0.9,0.7,1.6,1.1,2.8h1.1v-2.6h1.8v2.6h1.6v-2.6h1.8v2.6h1.2c0.3-0.7,0.8-2,1-2.8l1.9,0.5
		c-0.1,0.2-0.5,1.3-1,2.2h2.8v1.5h-4.1c-0.1,0.2-0.4,1.2-0.5,1.4h3.9v1.5h-6.8v1.1h6.3v1.4h-6.3v1.1h7.5v1.5h-6.1
		c2.1,1.6,4,2.2,6.2,2.8L426.9,391.4z M421.4,380.4c0.1-0.3,0.3-0.7,0.4-1.4h-4.7c0.1,0.2,0.4,1.2,0.5,1.4H421.4z"/>
	<path class="st3" d="M430,390c2.3-0.5,4.2-1.8,3.9-5.2c-1.7,1.2-2.9,1.7-4.1,2.1l-0.8-1.8c2.4-0.7,3.7-1.4,5-2.7h-3.5v-7.2h14.2
		v7.2h-3.4c0.9,1,2.8,2.1,5,2.7l-0.8,1.8c-1.3-0.5-2.6-1-4.1-2.1v6.8h-1.9v-7.3h1.3c-0.9-0.8-1.4-1.3-1.8-1.9h-2.8
		c-0.3,0.4-0.6,1-1.7,1.9l1.4,0.1c-0.1,3.3-0.6,5.7-4.6,7.2L430,390z M432.3,376.9v1.4h4.3v-1.4H432.3z M432.3,379.6v1.4h4.3v-1.4
		H432.3z M438.4,376.9v1.4h4.5v-1.4H438.4z M438.4,379.6v1.4h4.5v-1.4H438.4z"/>
	<path class="st3" d="M453.2,377.8v1.6h-6.1v-1.6H453.2z M452.7,375.2v1.6h-5.1v-1.6H452.7z M452.7,380.4v1.6h-5.1v-1.6H452.7z
		 M452.7,383.1v1.6h-5.1v-1.6H452.7z M455.7,386c-0.2,1.2-0.6,3.3-1.6,4.9l-1.4-0.9v1.4h-5.1v-5.6h5.1v3.8c0.1-0.3,0.9-1.5,1.3-3.9
		L455.7,386z M451.2,387.3h-2v2.5h2V387.3z M463.6,381.3v1.8H454v-1.8h3.9v-2.7h-4.3v-1.7h4.3v-2.1h1.8v2.1h4.3v1.7h-4.3v2.7H463.6z
		 M459.4,386.6c-1-0.6-2.5-1.4-3.5-1.8l0.8-1.4c0.6,0.2,2.4,0.8,3.5,1.7L459.4,386.6z M457.9,389.3c0,0.5,0.1,0.5,0.4,0.5h1.1
		c0.3,0,0.4,0,0.5-0.3c0.1-0.3,0.1-0.6,0.1-1.2l1.7,0.4c-0.2,2.8-0.8,2.8-1.9,2.8h-2c-1.5,0-1.5-1-1.5-1.5v-4.2h1.7V389.3z
		 M462.5,390.8c-0.3-2-0.7-3.2-1.5-5l1.7-0.5c0.8,1.5,1.4,3.4,1.6,4.8L462.5,390.8z"/>
	<path class="st3" d="M464.9,382.6c0.2,0,1.1,0,1.3,0c0.1-0.2,0.8-1.2,1-1.5c-0.8-1-1.2-1.4-2.4-2.4l0.9-1.5
		c0.3,0.2,0.4,0.3,0.6,0.5c0.3-0.5,0.8-1.5,1.3-3l1.7,0.5c-0.7,1.8-1.6,3.3-1.9,3.6c0.2,0.2,0.4,0.4,0.6,0.7
		c0.3-0.5,0.7-1.2,1.5-2.8l1.6,0.6c-1.4,2.4-1.4,2.5-3.3,5.1c0.5,0,1,0,1.6-0.1c-0.1-0.3-0.2-0.5-0.4-1.2l1.5-0.4
		c0.2,0.6,0.7,2.2,1,3.3l-1.5,0.5c-0.1-0.2-0.1-0.3-0.2-0.7c-0.2,0-0.3,0.1-0.8,0.1v7.7h-1.7v-7.6c-1.1,0.1-1.8,0.1-2.4,0.1
		L464.9,382.6z M466.9,385.3c0,3.3-0.2,4.3-0.4,5.1l-1.6-0.6c0.3-0.8,0.5-2,0.6-4.7L466.9,385.3z M469.8,390.6
		c0.4-0.5,0.9-1.1,1.3-2.2l-1.2,0.1c-0.1-1.3-0.1-2.1-0.3-3.3l1.3-0.2c0.2,1,0.3,2.3,0.3,3.2c0.1-0.2,0.6-1.6,0.6-3.7v-6.6h9.4v4
		h-7.8v1h8v7.6c0,0.7-0.1,1.2-1,1.2h-1l-0.4-1.9h0.5c0.4,0,0.4-0.1,0.4-0.5v-1.5h-1.1v3.4h-1.1v-3.4h-1v3.4h-1.1v-3.4h-1v3.9h-1.4
		v-5.3c-0.4,3-1.4,4.5-2.1,5.5L469.8,390.6z M482,375.3v1.5h-11.2v-1.5H482z M473.4,379.2v1.2h6.3v-1.2H473.4z M474.6,384.4v2h1v-2
		H474.6z M476.7,384.4v2h1v-2H476.7z M478.9,384.4v2h1.1v-2H478.9z"/>
	<path class="st3" d="M499.3,391.2c-1.2-0.3-4.1-1.1-6.9-3.3v3.8h-1.8v-3.7c-2.1,1.7-4.2,2.7-6.9,3.3l-0.9-1.9c2.6-0.4,4.5-1,6.1-2
		h-5.9v-1.5h7.5v-1.1H485V380c-0.4,0.4-0.7,0.6-1,0.9l-1.1-1.6c2.4-2,3.1-3.3,3.6-4.6l2,0.3c-0.2,0.5-0.4,0.8-0.6,1.3h3.3
		c0.3-1,0.4-1,0.6-1.6l1.9,0.2c-0.2,0.4-0.4,1-0.6,1.5h6v1.4h-6.2v1h5.7v1.2h-5.7v1h5.7v1.2h-5.7v1.1h6.7v1.4h-7.1v1.1h7.5v1.5h-5.8
		c1.7,1,3.4,1.6,6,2L499.3,391.2z M486.9,377.7c0,0-0.2,0.2-0.2,0.3v0.8h4.3v-1H486.9z M491,380h-4.3v1h4.3V380z M491,382.2h-4.3
		v1.1h4.3V382.2z"/>
	<path class="st3" d="M501.1,389.7c0.1,0,1.9-0.1,2.2-0.2v-4.9h-2.2v-1.6h2.2v-7.8h13.3v1.7h-11.3v1.1H516v1.4h-10.6v1.1H516v1.4
		h-10.6v1.1h12.5v1.6H516l1,0.9c-1.2,0.9-2.4,1.7-3.8,2.4c0.8,0.4,2.5,1.3,5.1,1.7l-0.9,2c-2.9-0.8-7.9-2.6-10-7h-2.1v4.7
		c1.7-0.1,2.8-0.2,4.8-0.6v1.7c-2.5,0.6-7.5,1-8.6,1L501.1,389.7z M509.3,384.7c0.3,0.5,0.7,1.2,2.3,2.3c0.9-0.5,2.5-1.6,3.3-2.3
		H509.3z"/>
	<path class="st3" d="M522.9,391.1c-1-1.5-2.1-2.8-3.2-4l1.7-1.2c1.2,1.1,2.7,2.8,3.4,3.8L522.9,391.1z"/>
	<path class="st3" d="M551.7,385.9c-1.2-0.8-3.7-2.4-7.6-3.8v8.8h-2.2v-15.4h2.2v4.4c4,1.3,7.1,3,8.6,3.8L551.7,385.9z"/>
	<path class="st3" d="M559.9,388.4c4.6-0.5,7.7-2.4,9.6-8.4l1.8,1.1c-2.2,6.1-5.5,9.2-13.6,9.6v-14.8h2.1V388.4z"/>
	<path class="st3" d="M580,381c-1.2-0.8-2.9-1.8-5.6-2.6l1-1.8c3,0.9,4.8,2,5.7,2.5L580,381z M574.8,388.3
		c7.1-0.5,10.8-3.9,12.8-10.8l1.8,1.3c-1,2.9-3.6,10.9-14.2,11.7L574.8,388.3z"/>
	<path class="st3" d="M605.4,385.9c-2.9-1.8-4.8-2.8-7.6-3.8v8.8h-2.2v-15.4h2.2v4.5c4.2,1.3,7.5,3.1,8.6,3.8L605.4,385.9z
		 M602.5,376.1c0.8,1.1,1.4,2.1,1.9,3.4l-1.4,0.8c-0.5-1.4-1-2.3-1.9-3.5L602.5,376.1z M605.1,374.9c0.8,1,1.3,1.9,2,3.4l-1.4,0.8
		c-0.6-1.5-1-2.2-1.9-3.5L605.1,374.9z"/>
	<path class="st3" d="M203.9,412.8l-0.1-2l3.8-0.3v-3.9h2v3.7l9.2-0.8c-0.4,3.8-2,6.1-5.4,7.7l-1.2-1.6c2.9-1.1,3.6-2.6,4.1-4.1
		l-6.7,0.6v5.6c0,1.5,0.5,1.7,2,1.7h3.8c0.9,0,2.1-0.1,3.1-0.3l0,2c-0.6,0.1-1.4,0.2-3,0.2h-4.1c-3.4,0-3.8-1.7-3.8-3.4v-5.6
		L203.9,412.8z"/>
	<path class="st3" d="M224.7,415.8c-0.3-1.7-0.8-3.1-1.4-4.4l1.7-0.5c0.8,1.6,1.3,3.3,1.5,4.5L224.7,415.8z M224.6,420.5
		c5.8-1.2,8-3.7,9.1-10l2,0.4c-1.1,5.4-3,9.4-9.8,11.1L224.6,420.5z M228.7,415c-0.2-1-0.5-2.5-1.2-4.4l1.6-0.4
		c0.6,1.3,1.1,3.1,1.3,4.3L228.7,415z"/>
	<path class="st3" d="M239.9,412.8c2.2-1.3,3.7-3,4.7-5.4h9.6c-0.3,2.9-1.2,11.7-12.1,14.5l-1-1.8c4.5-1,6.9-3.3,7.6-4.1
		c-1.5-1.2-2.9-2.2-5.3-3.4c-0.5,0.5-1,1-2.2,1.7L239.9,412.8z M246,409.3c-0.6,1.1-1,1.5-1.4,2c0.8,0.4,3.2,1.5,5.3,3.3
		c0.9-1.4,1.6-2.9,1.9-5.3H246z"/>
	<path class="st3" d="M273.1,413.2v2.1h-15.4v-2.1H273.1z"/>
	<path class="st3" d="M290.3,419.5c-2-1.6-3.9-3.5-6.4-6c-2.1-2.1-2.3-2.1-2.7-2.1c-0.4,0-0.7,0.1-1.6,1.2c-0.9,1-2.2,2.7-3.1,3.7
		l-1.4-1.8c0.7-0.6,3.4-3.5,4-4.1c0.7-0.6,1.3-1,2.2-1c1.2,0,2,0.6,3.7,2.3c0.9,0.9,3.3,3,4.4,3.9c1.3,1.1,2,1.6,2.4,1.9
		L290.3,419.5z"/>
	<path class="st3" d="M301.2,419.7c1.9-0.2,5.9-0.8,5.9-5.7c0-2-0.8-5-4.9-5.2c-0.6,8-3,11.3-5.4,11.3c-2.1,0-3.4-2.4-3.4-5.2
		c0-5.1,3.7-8.1,8.4-8.1c5.6,0,7.5,3.7,7.5,7.1c0,6.8-6.1,7.4-7.4,7.5L301.2,419.7z M295.4,415.2c0,1,0.4,3,1.5,3
		c0.7,0,1.2-0.6,1.6-1.4c1.2-2.2,1.6-5,1.8-7.7C297.1,409.6,295.4,412.2,295.4,415.2z"/>
	<path class="st3" d="M314.1,422.7h-1.8v-8.6c-0.3,0.5-0.5,0.8-1,1.4l-0.9-2.3c2.1-2.6,2.7-5.6,2.9-7.4l1.9,0.2
		c-0.4,2.7-0.8,3.6-1.1,4.7V422.7z M327.2,422.3h-11.6v-15.9h11.6V422.3z M325.4,408h-8.1v12.7h8.1V408z M322.2,410.4h2.7v1.6h-2.7
		v1.6h2.3v5.9h-6.1v-5.9h2.2v-1.6h-2.7v-1.6h2.7v-1.8h1.7V410.4z M322.9,415h-3v3.1h3V415z"/>
	<path class="st3" d="M333.1,415.9c-0.3,2.5-0.8,4.5-2.8,6.7l-1.4-1.5c2.1-2,2.5-4.3,2.7-8.8h-2.1v-5.9h8.6v5.9h-4.6
		c-0.1,0.8-0.1,1.1-0.1,1.7h4.6c0,1.3-0.3,6.4-0.7,7.3c-0.1,0.4-0.5,1.2-2.1,1.2h-1.7l-0.4-1.7h1.7c0.7,0,0.8-0.2,0.9-0.6
		c0.1-0.4,0.3-2.4,0.3-4.4H333.1z M331.2,408.1v2.6h5v-2.6H331.2z M339.7,406.8h1.8v11.6h-1.8V406.8z M343.4,405.7h1.8v15.4
		c0,1.4-1,1.5-1.7,1.5h-2.7l-0.4-1.9h2.5c0.4,0,0.4-0.3,0.4-0.6V405.7z"/>
	<path class="st3" d="M361.5,410.7c-1.5,0.8-5,2.4-10.2,3.6v3.7c0,1.2,0.3,1.3,2,1.3h4.6c1.3,0,2.9-0.1,4-0.3l0.1,2.1
		c-1.1,0.2-2.6,0.2-3.7,0.2H353c-2.4,0-3.8-0.4-3.8-2.8v-11.4h2.1v5.3c4.8-1.2,7.7-2.7,8.9-3.4L361.5,410.7z"/>
	<path class="st3" d="M380.9,407.2c-0.6,4.5-2.7,6.3-5.5,7.8l-1.3-1.5c3.1-1.3,3.9-2.8,4.4-4.3h-12.5v-1.9H380.9z M366.1,420.2
		c4.9-2.1,5.6-5.4,5.5-9.3l2.1,0c-0.1,3.6-0.4,8.2-6.3,11L366.1,420.2z"/>
	<path class="st3" d="M387.9,416.7h-2.1v-9.7h2.1V416.7z M396.8,414.4c0,6.1-5,7.1-9.5,7.4l-0.7-1.9c4.8-0.3,8.1-1,8.1-5.3v-7.7h2.1
		V414.4z"/>
	<path class="st3" d="M407.8,412c-1.2-0.8-2.9-1.8-5.6-2.6l1-1.8c3,0.9,4.8,2,5.7,2.5L407.8,412z M402.6,419.3
		c7.1-0.5,10.8-3.9,12.8-10.8l1.8,1.3c-1,2.9-3.6,10.9-14.2,11.7L402.6,419.3z"/>
	<path class="st3" d="M420.2,420.2c7.1-1.3,9.7-5.4,10.6-10.5H425c-1.1,1.7-2.4,3.2-4.5,4.6l-1.3-1.5c1.3-0.9,3.2-2.4,4.4-5h7.2
		l1.9,2.5c-1.1,4.7-3.3,10-11.7,11.7L420.2,420.2z M432.1,405.8c0.9,1.1,1.3,1.8,2.1,3.3l-1.2,0.8c-0.6-1.4-1.1-2.2-2-3.3
		L432.1,405.8z M434.5,405.1c0.9,1.1,1.3,1.9,2,3.3l-1.2,0.8c-0.6-1.4-1-2.1-1.9-3.4L434.5,405.1z"/>
</g>
<g>
	<path d="M20.5,29.8v15.5H5V29.8H20.5z"/>
	<path d="M27.6,39.3c0.4,0.5,1.4,1.7,3.2,2.7c1.8-1.1,2.9-2.4,3.3-3h-9v-1.7h11.2V39c-0.4,0.7-1.4,2.5-3.5,3.9
		c2.8,0.9,5.3,1.1,6.5,1.2l-0.7,2c-3.7-0.4-6.3-1.3-7.8-2.1c-2.7,1.2-5.3,1.7-7.7,2l-0.8-1.9c3.8-0.4,5.7-0.9,6.6-1.2
		c-1.7-1.3-2.4-2.3-3-3.1L27.6,39.3z M25.3,34.2c-0.2-0.5-0.7-1.6-1-2.1l0.9-0.3c-0.8,0-1.5,0-2,0l-0.4-1.6c1,0,1.9,0.1,3.3,0.1
		c5.8,0,9.6-0.7,11.6-1.1l1,1.6c-0.8,0.2-1.6,0.3-2.8,0.5l1.5,0.5c-0.6,1.4-0.7,1.7-1.3,2.6h2.7v4.6h-1.9v-2.9H24.5v2.9h-1.9v-4.6
		H25.3z M30,34.2c-0.5-1.5-0.6-1.8-0.9-2.5c-0.6,0-1.7,0-3,0c0.4,0.8,0.7,1.6,1,2.5H30z M34.1,34.2c0.7-1.2,1.2-2.6,1.3-3
		c-1.1,0.1-1.4,0.2-4.2,0.4c0.4,1,0.6,1.7,0.8,2.6H34.1z"/>
	<path d="M54.9,45.7H42.5v-5.6c-0.5,0.2-0.7,0.3-1.5,0.5l-0.8-1.9c4.3-0.8,6.4-2.5,7.7-3.7h1.9c1.7,1.6,4,3,7.7,3.7l-0.8,1.8
		c-0.9-0.3-1.1-0.3-1.6-0.5V45.7z M49.7,29.1v1.3h7v3.9h-1.9v-2.2H42.7v2.2h-1.9v-3.9h7v-1.3H49.7z M40.9,35.4
		c1.6-0.5,3.3-1.2,5-2.8l1.4,1.1c-1.9,1.9-3.8,2.8-5.5,3.4L40.9,35.4z M53.1,41h-8.7v3h8.7V41z M53.1,39.4c-2.1-0.9-3.5-2.1-4.4-2.9
		c-0.8,0.7-2,1.8-4.3,2.9H53.1z M51.5,32.6c1.8,1.5,3.1,2.1,5.2,2.6L55.8,37c-2.3-0.8-3.9-1.6-5.8-3.3L51.5,32.6z"/>
	<path d="M60.1,32.6c0,1.4-0.1,4.2-0.5,5.9l-1.5-0.7c0.5-1.3,0.6-4.1,0.6-5.2H60.1z M60.7,29.1h1.8v16.9h-1.8V29.1z M66.9,34.7
		C66.5,35.9,66,37,65.3,38l-1.4-1.2c0.3-0.4,0.6-0.9,1.1-2.1l-1.3,0.7c-0.1-0.4-0.5-1.7-1.1-2.8l1.3-0.7c0.3,0.4,0.8,1.6,1.2,2.7
		c0.7-1.9,1-3.9,1-4.6l1.9,0.3c-0.1,0.7-0.2,1.6-0.5,2.8h1.7v-3.9h1.8V33h4v1.7h-4V38h3.6v1.7h-3.6v3.8h4.3v1.7H63.7v-1.7h5.3v-3.8
		h-3.6V38h3.6v-3.3H66.9z"/>
	<path d="M84.9,33.6c-1,0.8-1.4,1-2,1.3L82,33.3v1h-1.5v0.9c0.3,0.7,1.1,2,2.3,3.1L81.8,40c-0.9-1.3-1-1.5-1.4-2.4v8.4h-1.7V38
		c-0.5,1.8-1,2.8-2,4.5l-0.8-2.4c1-1.3,1.9-2.8,2.6-5.9h-2.3v-1.8h2.5v-3.3h1.7v3.3H82v0.8c2.3-1.2,3.5-2.4,4.6-4.1h2.3
		c1.6,2.1,2.5,2.9,4.7,4.1l-1,1.6c-0.5-0.3-1-0.6-1.8-1.2v0.8h-2.2v1.4h4v5.3h-3.5c0.5,1.1,1.3,2.2,4.4,3.2l-0.8,1.7
		c-1-0.3-3.5-1.2-4.8-4c-1.3,2.6-3.2,3.6-4.9,4.1l-0.9-1.7c1-0.3,3.4-0.9,4.4-3.4h-3.5v-5.3h4v-1.4h-2V33.6z M86.8,39.5
		c0.1-0.7,0.1-1,0.1-2.1h-2.3v2.1H86.8z M89.9,32.8c-1.2-1.1-1.8-1.9-2.2-2.4c-0.5,0.6-1.1,1.4-2.1,2.4H89.9z M90.9,39.5v-2.1h-2.3
		c0,1.1,0,1.4-0.1,2.1H90.9z"/>
	<path d="M101.3,32.3v1.6h-7.1v-1.6H101.3z M100.7,29.7v1.6h-5.9v-1.6H100.7z M100.7,34.8v1.6h-5.9v-1.6H100.7z M100.7,37.5v1.6
		h-5.9v-1.6H100.7z M100.7,40.1v5.5h-5.9v-5.5H100.7z M98.9,41.7h-2.3v2.4h2.3V41.7z M104.1,34v9.7h2V31.5h-4.5v-1.8h9.4v1.8H108
		v4.7h2.7v1.8H108v5.8h3.3v1.7h-10v-1.7h1V34H104.1z"/>
	<path d="M118.4,32.3v1.6h-6.1v-1.6H118.4z M118,45.7h-5.1v-5.6h5.1v4.2c0.8-1.8,1-4.1,1-6v-8.6h9.7v14.5c0,1-0.1,1.8-1.5,1.8h-2.7
		l-0.3-1.8h2.2c0.5,0,0.6-0.3,0.6-0.6V31.4h-6.2v7.1c0,2.6-0.4,5.3-1.5,7.6l-1.2-0.8V45.7z M118,29.7v1.5h-5.1v-1.5H118z M118,34.9
		v1.6h-5.1v-1.6H118z M118,37.4v1.6h-5.1v-1.6H118z M116.3,41.7h-1.7v2.4h1.7V41.7z M124.7,32.9h1.8v1.5h-1.8v1.5h1.8v1.5h-5.3v-1.5
		h2v-1.5h-2v-1.5h2v-1h1.5V32.9z M126.2,38.5v4.9h-4.8v-4.9H126.2z M124.7,40h-1.8v1.9h1.8V40z"/>
	<path d="M144.8,43.7h2.5v1.7h-16.9v-1.7h2.4v-7.4c-0.6,0.3-1,0.4-1.9,0.7l-0.8-1.9c0.8-0.2,3.2-0.8,5.6-2.9h-5.1v-1.7h7.5v-1.5h1.8
		v1.5h7.4v1.7h-5c0.7,0.6,2.7,2.2,5.5,3l-1,1.8c-0.6-0.2-1-0.4-1.9-0.9V43.7z M138,35.5v-3.2c-0.5,0.6-1.6,1.8-3.8,3.2H138z
		 M143,37.2h-8.5v1.2h8.5V37.2z M143,39.8h-8.5v1.2h8.5V39.8z M143,42.5h-8.5v1.2h8.5V42.5z M143.6,35.5c-2.3-1.5-3.2-2.5-3.9-3.2
		v3.2H143.6z"/>
</g>
</svg>
