<?xml version="1.0" encoding="utf-8"?>
<!-- Generator: Adobe Illustrator 26.5.2, SVG Export Plug-In . SVG Version: 6.00 Build 0)  -->
<svg version="1.1" id="レイヤー_1" xmlns="http://www.w3.org/2000/svg" xmlns:xlink="http://www.w3.org/1999/xlink" x="0px"
	 y="0px" viewBox="0 0 640 660" style="enable-background:new 0 0 640 660;" xml:space="preserve">
<style type="text/css">
	.st0{fill:#EFEFEA;}
	.st1{fill:none;stroke:#000000;stroke-miterlimit:10;}
	.st2{fill:#FFFFFF;stroke:#000000;stroke-miterlimit:10;}
	.st3{fill:#6E6E6E;}
</style>
<rect x="4.6" y="80.1" class="st0" width="211.9" height="536.7"/>
<rect x="4.6" y="80.1" class="st1" width="630.9" height="536.7"/>
<line class="st2" x1="216.5" y1="80.1" x2="216.5" y2="616.8"/>
<g>
	<g>
		<path class="st3" d="M38,123.2c0,4.7-3.8,8.5-8.5,8.5c-4.7,0-8.5-3.8-8.5-8.5c0-4.8,3.9-8.5,8.5-8.5S38,118.4,38,123.2z
			 M21.5,123.2c0,4.4,3.5,7.9,7.9,7.9c4.4,0,7.9-3.5,7.9-7.9c0-4.4-3.6-7.9-7.9-7.9S21.5,118.8,21.5,123.2z M29.1,118.2h1.5v9.9H29
			v-8.2l-1.9,1.3l-0.2-1.5L29.1,118.2z"/>
		<path class="st3" d="M50.8,116.9l2.3,2.7c-0.5,2.5-1,4.7-2.9,7c-1.3,1.5-3.8,3.5-7.8,4.1l-0.9-1.9c7-1.2,8.9-5.2,9.6-9.9H40.1v-2
			H50.8z M51.9,114.6c0.9,1,1.4,1.9,2.1,3.2l-1.2,0.8c-0.7-1.4-1.1-2.1-2.1-3.3L51.9,114.6z M54.5,114c0.8,1,1.3,1.9,2,3.3l-1.2,0.8
			c-0.6-1.4-1-2.1-1.9-3.3L54.5,114z"/>
		<path class="st3" d="M72.5,120.3c-0.8,7.1-4.1,9.6-11.6,10.4l-0.6-1.9c3.1-0.2,5.3-0.8,6.7-1.7c1-0.6,2.6-2.2,3.1-4.9H58.2v-1.9
			H72.5z M71.4,116.1v1.9H59.5v-1.9H71.4z"/>
		<path class="st3" d="M81.9,120.9c-1.2-0.8-2.9-1.8-5.6-2.6l1-1.8c3,0.9,4.8,2,5.7,2.5L81.9,120.9z M76.7,128.2
			c7.1-0.5,10.8-3.9,12.8-10.8l1.8,1.3c-1,2.9-3.6,10.9-14.2,11.7L76.7,128.2z"/>
		<path class="st3" d="M107.3,125.9c-2.9-1.8-4.8-2.8-7.6-3.8v8.8h-2.2v-15.4h2.2v4.5c4.2,1.3,7.5,3.1,8.6,3.8L107.3,125.9z
			 M104.4,116c0.8,1.1,1.4,2.1,1.9,3.4l-1.4,0.8c-0.5-1.4-1-2.3-1.9-3.5L104.4,116z M107,114.8c0.8,1,1.3,1.9,2,3.4l-1.4,0.8
			c-0.6-1.5-1-2.2-1.9-3.5L107,114.8z"/>
		<path class="st3" d="M126.9,116.1c-0.6,4.5-2.7,6.3-5.5,7.8l-1.3-1.5c3.1-1.4,3.9-2.8,4.4-4.3h-12.5v-1.9H126.9z M112.1,129.1
			c4.9-2.1,5.6-5.4,5.5-9.3l2.1,0c-0.1,3.6-0.4,8.2-6.3,11L112.1,129.1z"/>
		<path class="st3" d="M139.5,130.8h-2.1v-8c-3,1.9-4.9,2.6-6.7,3.3l-1-1.8c5.1-1.6,9.5-4.7,12.9-8.9l1.8,1.2
			c-1.4,1.7-2.6,2.8-4.9,4.7V130.8z"/>
		<path class="st3" d="M161.8,117v12.5h-13v-2h10.8V119H149V117H161.8z"/>
		<path class="st3" d="M171.9,120.9c-1.2-0.8-2.9-1.8-5.6-2.6l1-1.8c3,0.9,4.8,2,5.7,2.5L171.9,120.9z M166.7,128.2
			c7.1-0.5,10.8-3.9,12.8-10.8l1.8,1.3c-1,2.9-3.6,10.9-14.2,11.7L166.7,128.2z"/>
		<path class="st3" d="M191.3,128.7c1.9-0.2,5.9-0.8,5.9-5.7c0-2-0.8-5-4.9-5.2c-0.6,8-3,11.3-5.4,11.3c-2.1,0-3.4-2.4-3.4-5.2
			c0-5.1,3.7-8.1,8.4-8.1c5.6,0,7.5,3.7,7.5,7.1c0,6.8-6.1,7.4-7.4,7.5L191.3,128.7z M185.4,124.1c0,1,0.4,3,1.5,3
			c0.7,0,1.2-0.6,1.6-1.4c1.2-2.2,1.6-5,1.8-7.7C187.2,118.6,185.4,121.1,185.4,124.1z"/>
		<path class="st3" d="M39.7,135.3h6.8v6.1h-5.1v10.2h-1.8V135.3z M41.5,136.6v1.1h3.3v-1.1H41.5z M41.5,138.9v1.1h3.3v-1.1H41.5z
			 M44.7,145.8c0-0.1,0-0.2,0-0.3v-1.6h-2v-1.5h9.6v1.5h-1.8v1.9h2.1v1.5h-2.1v4h-1.7v-4h-2.6c-0.2,0.9-0.8,2.7-2.6,4l-1.2-1.3
			c0.6-0.4,1.6-1.3,2-2.7h-2.1v-1.5H44.7z M48.8,145.8v-1.9h-2.4v1.9H48.8z M48.3,135.3h6.9V150c0,0.3,0,1.5-1.4,1.5h-2.5l-0.3-1.8
			h2c0.3,0,0.4-0.1,0.4-0.4v-8h-5.1V135.3z M50.1,136.6v1.1h3.3v-1.1H50.1z M50.1,138.9v1.1h3.3v-1.1H50.1z"/>
		<path class="st3" d="M73.8,137c-0.4,0.5-1,1.3-2.4,2.5c0.7,0.4,1.4,0.8,2.8,1.3l-0.7,1.7c-1-0.5-1.5-0.7-2.6-1.3v1.2h-2.3v2h5v1.7
			h-5v2.9c0,0.4,0.2,0.4,0.5,0.4h2.3c0.8,0,0.8-0.5,0.9-2.2l1.8,0.2c-0.3,2.5-0.4,3.7-2,3.7h-3.8c-0.8,0-1.6-0.2-1.6-1.2v-3.9h-2.8
			c-0.6,3.3-3.3,4.8-5.9,5.4l-0.9-1.8c2.8-0.3,4.7-1.9,5-3.6h-4.6v-1.7h4.8v-2h-2.1v-1.1c-0.9,0.5-1.5,0.8-2.4,1.3l-0.9-1.7
			c1-0.3,1.7-0.7,3.1-1.5c-0.3-0.3-1.2-1.1-2.1-1.8l1-0.9h-0.2v-1.5h7.8c0.5,0.7,0.7,1.1,1.2,1.6c0.9-0.8,1.5-1.4,2.1-2.1l1.4,0.9
			c-0.7,0.8-1.5,1.6-2.3,2.4c0.4,0.3,0.6,0.4,1,0.8c1-0.9,1.8-1.7,2.4-2.5L73.8,137z M59.3,136.8c1,0.7,2,1.6,2.1,1.7
			c0.9-0.6,1.3-1,1.9-1.7H59.3z M69.9,140.7c-2.1-1.3-3.8-3.1-4.4-3.9c-0.6,0.8-1.7,2.1-4.3,3.9H69.9z M66.6,142.4H64v2h2.7V142.4z"
			/>
	</g>
</g>
<g>
	<g>
		<path class="st3" d="M38.7,240.5c0,4.7-3.8,8.5-8.5,8.5c-4.7,0-8.5-3.8-8.5-8.5c0-4.8,3.9-8.5,8.5-8.5S38.7,235.7,38.7,240.5z
			 M22.2,240.5c0,4.4,3.5,7.9,7.9,7.9c4.4,0,7.9-3.5,7.9-7.9c0-4.4-3.6-7.9-7.9-7.9S22.2,236.1,22.2,240.5z M33.6,244v1.4h-7.3
			c1.6-1.7,2.8-2.9,3.9-4.3c1-1.3,1.4-2,1.4-2.8c0-0.8-0.5-1.5-1.5-1.5c-1.5,0-2.3,1.3-2.5,1.6l-0.7-1.5c1-1.3,2.2-1.6,3.2-1.6
			c1.6,0,3.1,1,3.1,3c0,1.8-1.1,3-3.6,5.7H33.6z"/>
		<path class="st3" d="M52.5,233.1v8.4c0,1.5,0,6.2-6.1,6.2c-5.7,0-6.1-4.2-6.1-6.2v-8.4h2.2v8.2c0,1.5,0,4.4,3.9,4.4
			c3.9,0,3.9-2.9,3.9-4.4v-8.2H52.5z"/>
		<path class="st3" d="M62,235.7c-0.8-0.6-1.7-0.9-2.8-0.9c-1.5,0-2.5,0.9-2.5,2.1c0,1.3,0.9,1.7,2.4,2.2c2,0.7,4.1,1.4,4.1,4.2
			c0,2.5-2,4.3-5,4.3c-1.5,0-2.9-0.4-4.2-1.2l0.6-1.9c1,0.7,2.2,1.2,3.4,1.2c1.6,0,3-0.8,3-2.2c0-1.4-1.1-2-2.8-2.5
			c-2.4-0.8-3.7-1.8-3.7-4c0-2.4,1.9-4.2,4.5-4.2c1.7,0,2.8,0.6,3.3,0.9L62,235.7z"/>
		<path class="st3" d="M69.7,233.1c2.7,0,4.6,1.5,4.6,4.4c0,3.5-2.6,4.3-5,4.3h-1.8v5.6h-2.1v-14.3H69.7z M69.1,239.8
			c1.2,0,3,0,3-2.3c0-2.4-1.8-2.4-3-2.4h-1.6v4.8H69.1z"/>
		<path class="st3" d="M83.8,246c1.9-0.2,5.9-0.8,5.9-5.7c0-2-0.8-5-4.9-5.2c-0.6,8-3,11.3-5.4,11.3c-2.1,0-3.4-2.4-3.4-5.2
			c0-5.1,3.7-8.1,8.4-8.1c5.6,0,7.5,3.7,7.5,7.1c0,6.8-6.1,7.4-7.4,7.5L83.8,246z M78,241.5c0,1,0.4,3,1.5,3c0.7,0,1.2-0.6,1.6-1.4
			c1.2-2.2,1.6-5,1.8-7.7C79.7,235.9,78,238.5,78,241.5z"/>
		<path class="st3" d="M100.1,246h-6.3v-13.2h6.3V246z M98.4,234.6h-2.7v3.9h2.7V234.6z M98.4,240.2h-2.7v4.1h2.7V240.2z
			 M109.9,247.4c0,1.4-1.3,1.6-1.6,1.6h-2.4l-0.4-1.9h2c0.4,0,0.6,0,0.6-0.7v-3.3h-4.7c-0.3,1.8-0.9,4.1-3.8,5.8l-1.3-1.6
			c1.8-0.9,3.4-2.1,3.4-6.7v-8.2h8.2V247.4z M108.1,234.2h-4.5v2.7h4.5V234.2z M108.1,238.6h-4.5v2.8h4.5V238.6z"/>
		<path class="st3" d="M119.3,235v2h-1.7v-3.6h3.9c0.1-0.5,0.2-0.8,0.3-1.5l1.9,0.3c-0.1,0.4-0.1,0.5-0.3,1.2h4.8v3.6h-1.7v-2h-3.7
			c-0.5,1.3-0.8,1.9-1.2,2.7h1.4c0.4-0.7,0.4-0.9,1-2.3l1.7,0.4c-0.1,0.4-0.3,0.7-0.9,1.9h3.3v1.5h-3.3v1.5h2.7v1.4h-2.7v1.6h2.7
			v1.4h-2.7v1.8h3.6v1.6h-9.6v-7.1c-0.1,0.1-0.2,0.2-0.6,0.5l-1-1.4v7.7h-4.7v-5.9c-0.3,0.5-0.4,0.6-0.6,1l-0.6-2.6
			c1.2-1.7,1.7-4.2,1.8-6.1h-1.5v-1.8h5.6v1.8h-2.3c-0.1,1.2-0.3,2-0.6,3.3h3v2.4c1.6-1.3,2.9-3.2,3.7-5.4H119.3z M115.6,239.7h-1.5
			v6.9h1.5V239.7z M120.7,239.2c-0.1,0.1-0.1,0.1-0.2,0.3v1.3h2.7v-1.5H120.7z M123.2,242.2h-2.7v1.6h2.7V242.2z M123.2,245.2h-2.7
			v1.8h2.7V245.2z"/>
		<path class="st3" d="M139,235v1.9h-3.9c-0.7,3.3-1.7,6.3-3,9.2l-2.1-0.8c1.6-2.8,2.4-5.6,3-8.4h-2.8V235h3.2
			c0.1-0.8,0.2-1.4,0.3-2.3l2.1,0.1c-0.2,1.1-0.2,1.5-0.3,2.2H139z M142.4,242.2c1.5,0.7,2.9,1.8,3.7,2.6l-1.2,1.8
			c-1-1.2-1.8-1.8-2.6-2.2v0.6c0,2.3-1.8,3.2-3.7,3.2c-2.8,0-4.1-1.5-4.1-3.3c0-1.5,1.2-3.4,4.3-3.4c0.8,0,1.3,0.1,1.6,0.2l-0.1-3.7
			h2L142.4,242.2z M140.5,243.4c-0.4-0.1-0.8-0.3-1.7-0.3c-1.6,0-2.4,0.7-2.4,1.7c0,0.3,0.1,1.6,2.3,1.6c1.4,0,1.8-0.7,1.8-1.9
			V243.4z M144.9,238.2c-1.9-1.1-3.1-1.7-4.9-2.4l0.8-1.7c1.9,0.6,3.1,1.2,5,2.3L144.9,238.2z"/>
		<path class="st3" d="M154.4,235.2v1.6h-6.8v-1.6H154.4z M153.7,232.5v1.6h-5.6v-1.6H153.7z M153.7,237.7v1.6h-5.6v-1.6H153.7z
			 M153.7,240.4v1.6h-5.6v-1.6H153.7z M153.7,243.1v5.5h-5.6v-5.5H153.7z M152.1,244.7h-2.4v2.4h2.4V244.7z M160.3,238.9h-3.2v1.8
			c0,5.5-1.2,7.5-1.7,8.4l-1.5-1.4c0.6-0.9,1.5-2.3,1.5-7.1V233c0.9,0,4.5,0,7.8-1.1l0.7,1.6c-2.3,0.8-5.7,1-6.8,1.1v2.5h7.2v1.8
			h-2.3v3.8c1.3,1.1,1.8,1.5,2.3,2l-1.2,1.5c-0.4-0.4-0.6-0.6-1.1-1.1v3.9h-1.7v-5.4c-1.2-0.9-1.9-1.4-2.8-1.9l1-1.4
			c0.6,0.3,1,0.6,1.8,1.1V238.9z"/>
		<path class="st3" d="M172.3,244.2c-1.3,0.9-4.1,2.5-6,3.4l-0.9-1.8c1.9-0.8,5-2.5,6.2-3.3L172.3,244.2z M181.7,238.5
			c-1.1,1.4-2.4,2.7-3.9,3.9c1.8,2.1,3.6,3.2,4.7,3.8l-1.1,1.8c-4.7-3.2-5.8-5.6-6.6-7.4v6.6c0,1.1-0.5,1.8-1.7,1.8H170l-0.3-1.9
			h2.9c0.4,0,0.5-0.2,0.5-0.4v-9.9h-7.5v-1.8h7.5v-2.8h1.9v2.8h4.1c-1.2-1-2.3-1.4-2.7-1.6l1.1-1.4c1.5,0.6,3,1.7,3.2,1.8l-0.9,1.2
			h2.7v1.8h-7.5c0,0.5,0.7,2.4,1.9,4.2c1.2-1,2.3-2.2,3.3-3.5L181.7,238.5z M168.1,237.5c0.9,0.7,2.2,2.2,2.9,3.3l-1.5,1.2
			c-0.8-1.2-1.8-2.3-2.9-3.3L168.1,237.5z"/>
	</g>
</g>
<g>
	<g>
		<path class="st3" d="M38.7,352.4c0,4.7-3.8,8.5-8.5,8.5c-4.7,0-8.5-3.8-8.5-8.5c0-4.8,3.9-8.5,8.5-8.5S38.7,347.6,38.7,352.4z
			 M22.2,352.4c0,4.4,3.5,7.9,7.9,7.9c4.4,0,7.9-3.5,7.9-7.9c0-4.4-3.6-7.9-7.9-7.9S22.2,348,22.2,352.4z M27.1,355.3
			c1.2,0.7,2.3,0.7,2.6,0.7c1.8,0,2.4-1,2.4-1.7c0-0.3-0.1-1.6-2.3-1.6h-0.9v-1.3h0.8c0.9,0,1.8-0.5,1.8-1.4c0-1-1-1.3-1.6-1.3
			c-0.3,0-1.3,0-2.4,1.1l-0.5-1.4c0.9-0.8,1.9-1.2,3-1.2c1.9,0,3.1,1.2,3.1,2.6c0,1.4-0.8,1.8-1.3,2.1c1.9,0.7,1.9,2.2,1.9,2.5
			c0,1.5-1.1,3-4,3c-1.3,0-2.2-0.3-3.1-0.8L27.1,355.3z"/>
		<path class="st3" d="M55.9,351.2c-4.2-1.7-6.9-4.7-7.8-5.8c-1.9,2.4-4.8,4.6-7.9,5.8l-0.9-1.8c3.5-1.2,6.5-3.5,7.9-5.5h2
			c1,1.4,2.9,3.6,7.7,5.5L55.9,351.2z M55,352.1v1.8h-5.7v4.6h6.8v1.8H40v-1.8h2.2v-7.2h1.9v7.2h3.3v-9.8h1.9v3.5H55z"/>
		<path class="st3" d="M73.5,360.5c-1.9-0.6-4.2-1.5-6.5-3.6v3.8h-1.8V357c-1.2,1-2.7,2.2-6.5,3.5l-0.9-1.6c3.7-1.1,5.3-2.2,6.1-2.8
			h-6.1v-1.5h7.5v-1.1H59v-1.4h6.2v-1.1h-6.6v-1.5h3.7c-0.1-0.3-0.3-1.1-0.5-1.4h-4.1v-1.5h2.8c-0.1-0.3-0.7-1.5-1-2.2l1.9-0.5
			c0.5,0.9,0.7,1.6,1.1,2.8h1.1V344h1.8v2.6h1.6V344h1.8v2.6h1.2c0.3-0.7,0.8-2,1-2.8l1.9,0.5c-0.1,0.2-0.4,1.3-1,2.2h2.8v1.5h-4.1
			c-0.1,0.2-0.4,1.2-0.5,1.4h3.9v1.5H67v1.1h6.3v1.4H67v1.1h7.5v1.5h-6.1c2.1,1.6,4,2.2,6.2,2.8L73.5,360.5z M68,349.6
			c0.1-0.3,0.3-0.7,0.4-1.4h-4.7c0.1,0.2,0.4,1.2,0.5,1.4H68z"/>
		<path class="st3" d="M78.9,360.9h-1.8v-8.4c-0.3,0.5-0.5,0.6-0.8,1.1l-0.8-2.2c1.1-1.4,2.1-3.2,2.6-7.4l1.9,0.2
			c-0.2,1.8-0.5,3-1,4.7V360.9z M92.6,346.2h-3.9v3H92v11.2H80.4v-11.2h3.3v-3h-3.5v-1.7h12.4V346.2z M83.7,350.9h-1.6v7.8h1.6
			V350.9z M87,346.2h-1.6v3H87V346.2z M87,350.9h-1.6v7.8H87V350.9z M90.3,350.9h-1.6v7.8h1.6V350.9z"/>
		<path class="st3" d="M96.8,360.8H95v-8.5c-0.3,0.4-0.4,0.6-0.9,1.3l-0.9-2.4c0.6-0.8,2-2.6,2.7-7.2l1.9,0.1
			c-0.4,2.1-0.6,3-1.1,4.3V360.8z M105.2,343.9v1.3h5.4v1.5h-5.4v1.2h4.5v9.8h-8.4V348h2.1v-1.2h-5.1v-1.5h5.1v-1.3H105.2z
			 M110.6,360.5H98.3V348h1.7v10.9h10.6V360.5z M108,349.5h-5.1v1.2h5.1V349.5z M108,352.2h-5.1v1.3h5.1V352.2z M108,354.9h-5.1v1.4
			h5.1V354.9z"/>
		<path class="st3" d="M120,357.9c1.9-0.2,5.9-0.8,5.9-5.7c0-2-0.8-5-4.9-5.2c-0.6,8-3,11.3-5.4,11.3c-2.1,0-3.4-2.4-3.4-5.2
			c0-5.1,3.7-8.1,8.4-8.1c5.6,0,7.5,3.7,7.5,7.1c0,6.8-6.1,7.4-7.4,7.5L120,357.9z M114.1,353.3c0,1,0.4,3,1.5,3
			c0.7,0,1.2-0.6,1.6-1.4c1.2-2.2,1.6-5,1.8-7.7C115.8,347.8,114.1,350.3,114.1,353.3z"/>
		<path class="st3" d="M129.5,358.8c1.6-1.8,2.7-4.1,3.3-5.4l1.5,1.2c-1,2.6-2.7,5.1-3.7,6.2L129.5,358.8z M132.5,352.3
			c-1.2-0.9-1.9-1.4-2.9-1.8l0.9-1.6c0.9,0.3,2.2,1.1,3,1.8L132.5,352.3z M133.3,347.3c-1.1-0.9-2.7-1.7-3-1.9l1-1.5
			c1.1,0.5,2.1,1.1,3.1,1.8L133.3,347.3z M141.6,348.6h5v1.7h-5v2.6h4.2v7.5h-10.2v-7.5h4.2v-2.6h-5.1v-1.7h5.1v-2.1
			c-0.5,0-2.2,0.1-4.5,0.1l-0.3-1.7c6.4,0,8.9-0.6,10.5-1l0.6,1.7c-1.4,0.4-2.6,0.6-4.5,0.8V348.6z M144,354.6h-6.6v4.2h6.6V354.6z"
			/>
		<path class="st3" d="M163.6,359.3c0,0.5-0.1,1.5-1.5,1.5h-2.4l-0.2-1.9h1.8c0.1,0,0.4,0,0.4-0.4v-3.2h-4.5v5.3h-1.8v-5.3H151
			c-0.2,1.6-0.5,3.4-1.9,5.4l-1.5-1.7c0.5-0.6,1.8-2.4,1.8-5.8v-8.6h14.2V359.3z M155.4,346.5h-4.2v2.6h4.2V346.5z M155.4,351h-4.2
			v2.6h4.2V351z M161.7,346.5h-4.5v2.6h4.5V346.5z M161.7,351h-4.5v2.6h4.5V351z"/>
	</g>
</g>
<g>
	<g>
		<path class="st3" d="M38.7,448.4c0,4.7-3.8,8.5-8.5,8.5c-4.7,0-8.5-3.8-8.5-8.5c0-4.8,3.9-8.5,8.5-8.5S38.7,443.6,38.7,448.4z
			 M22.2,448.4c0,4.4,3.5,7.9,7.9,7.9c4.4,0,7.9-3.5,7.9-7.9c0-4.4-3.6-7.9-7.9-7.9S22.2,444,22.2,448.4z M30.5,453.1v-2.1H26v-1.3
			l4.5-6.5H32v6.4h1.3v1.4H32v2.1H30.5z M27.6,449.6h2.8v-4.1L27.6,449.6z"/>
		<path class="st3" d="M40.7,446.9c2.2-1.3,3.7-3,4.7-5.4H55c-0.3,2.9-1.2,11.7-12.1,14.5l-1-1.8c4.5-1,6.9-3.3,7.6-4.1
			c-1.5-1.2-2.9-2.2-5.3-3.4c-0.5,0.5-1,1-2.2,1.7L40.7,446.9z M46.7,443.4c-0.6,1.1-1,1.5-1.4,2c0.8,0.4,3.2,1.5,5.3,3.3
			c0.9-1.4,1.6-2.9,1.9-5.3H46.7z"/>
		<path class="st3" d="M73.9,447.3v2.1H58.4v-2.1H73.9z"/>
		<path class="st3" d="M77.9,454.3c3.6-0.7,7-1.9,7.4-8.5h-4.5c-0.7,1.3-1.5,2.5-3.1,3.8l-1.5-1.4c2.9-2.1,3.8-5.1,4.2-7.5l2.1,0.2
			c-0.3,1.1-0.4,1.8-0.9,3.1h10.1v1.9h-4.2c-0.5,5.6-2.4,9-8.6,10.3L77.9,454.3z M88.7,439.5c0.6,1.1,0.9,2.1,1.3,3.5l-1.4,0.4
			c-0.3-1.4-0.6-2.3-1.2-3.6L88.7,439.5z M91.5,439.2c0.7,1.2,1,2.2,1.3,3.6l-1.4,0.4c-0.3-1.3-0.6-2.3-1.3-3.6L91.5,439.2z"/>
		<path class="st3" d="M97.5,450c-0.3-1.7-0.8-3.1-1.4-4.4l1.7-0.5c0.8,1.6,1.3,3.3,1.5,4.5L97.5,450z M97.3,454.6
			c5.8-1.2,8-3.7,9.1-10l2,0.4c-1.1,5.4-3,9.4-9.8,11.1L97.3,454.6z M101.4,449.1c-0.2-1-0.5-2.5-1.2-4.4l1.6-0.4
			c0.6,1.3,1.1,3.1,1.3,4.3L101.4,449.1z"/>
		<path class="st3" d="M126.3,451c-1.2-0.8-3.7-2.4-7.6-3.8v8.8h-2.2v-15.4h2.2v4.4c4,1.3,7.1,3,8.6,3.8L126.3,451z"/>
		<path class="st3" d="M134,441.1c-0.3,1.3-0.8,3.7-0.8,8.2c0,2.1,0.1,4.3,0.5,6.4l-2.1,0.2c-0.2-1.1-0.5-2.8-0.5-6.2
			c0-2.9,0.2-5.8,0.7-8.7L134,441.1z M138.6,448.9c-0.5,0.8-0.9,1.6-0.9,2.3c0,1.5,1.8,1.7,3.5,1.7c1.4,0,2.9-0.1,4.2-0.2v2.1
			c-1,0.1-2.1,0.2-3.3,0.2c-3,0-6.2-0.3-6.2-3.5c0-0.6,0.1-1.7,0.9-3.1L138.6,448.9z M145,442.3v2h-8.6v-2H145z"/>
		<path class="st3" d="M163.6,446.8c-0.9-0.4-1.5-0.7-2.7-1.4v1.4h-9.4v-1.5c-1.1,0.6-1.7,1-2.9,1.5l-1.1-1.9c2.8-0.9,5.8-2.8,7.7-5
			h1.8c1.6,1.7,3.4,3.2,7.7,5L163.6,446.8z M162.8,448.6v7.8h-13.4v-7.8H162.8z M160.9,450.3h-9.6v4.5h9.6V450.3z M160.5,445.1
			c-2.7-1.8-3.6-2.7-4.4-3.6c-1.2,1.4-2.6,2.5-4.2,3.6H160.5z"/>
		<path class="st3" d="M171.5,453.7c1.9,0,6.9-0.1,6.9-4c0-1.8-1.3-2.9-3.1-2.9c-1.9,0-6,1-7.3,1.3l-0.3-2c0.7-0.1,3.9-0.7,4.5-0.8
			c1.1-0.2,2.3-0.3,3.2-0.3c3.3,0,5,2.2,5,4.6c0,0.6-0.1,3.9-3.9,5.1c-1,0.3-3.1,0.6-4.4,0.6L171.5,453.7z"/>
		<path class="st3" d="M184.3,455.5c1.7-3.6,2.7-8.7,3-10.7h-2.5v-1.9h2.8c0.1-1.2,0.1-1.5,0.2-2.3l2.1,0.1
			c-0.1,1.1-0.2,1.5-0.3,2.2h4.6v1.9h-4.9c-0.9,4.9-1.9,8.9-3,11.4L184.3,455.5z M193,450.9c-0.3,0.4-0.6,0.9-0.6,1.5
			c0,1.3,1.7,1.5,3.9,1.5c0.6,0,2.2,0,3.4-0.1l0,2c-1.1,0-2.3,0-3.4,0c-2.3,0-3.4-0.2-4.3-0.7c-0.8-0.4-1.4-1.3-1.4-2.4
			c0-1.1,0.6-2,0.9-2.5L193,450.9z M199.4,447.4c-0.5,0-1-0.1-1.9-0.1c-2.2,0-3.6,0.3-4.8,0.8l-0.7-1.7c1.8-0.7,3.3-1.1,7.4-1V447.4
			z"/>
		<path class="st3" d="M55.7,476.9c-3.2-1.2-6.2-4.3-7.6-8.2c-0.3,0.4-1.2,1.3-2.7,2.4v3.4c1.4-0.2,2.8-0.5,4.7-1v1.6
			c-2.1,0.5-7,1.4-9.1,1.6l-0.4-1.7c0.9-0.1,1.9-0.2,3-0.3v-2.6c-0.7,0.3-1.6,0.8-3.5,1.4l-0.7-1.8c3.9-0.9,6-2.8,6.5-3.3h-6.2v-1.6
			h7.6v-1.3h-6.3v-1.5h6.3V463H40v-1.6h7.2v-1.5h1.8v1.5h7.1v1.6h-7.1v1.2h6.2v1.5h-6.2v1.3h7.5v1.6h-6.7c0.2,0.5,0.5,1.4,1.4,2.6
			c0.3-0.2,1.6-1,3-2.4l1.4,1.3c-1.2,1-2.5,2-3.2,2.4c1.9,1.9,3.6,2.5,4.3,2.8L55.7,476.9z"/>
		<path class="st3" d="M57.4,473.2c0.5-0.1,1-0.2,2.1-0.6v-4.4h-1.7v-1.8h1.7v-3.9h-1.9v-1.8h5.7v1.8h-2v3.9H63v1.8h-1.7v3.8
			c1.1-0.4,1.5-0.6,2-0.8l0.4,1.7c-1.6,0.8-4.1,1.6-5.9,2.1L57.4,473.2z M64.1,460.5h10v10.3H71v3.4c0,0.5,0.1,0.7,0.6,0.7h0.9
			c0.3,0,0.4-0.1,0.5-0.5c0.1-0.5,0.1-1.6,0.1-2l1.7,0.3c-0.1,2.7-0.3,4-1.5,4h-2.6c-0.8,0-1.5-0.1-1.5-1.6v-4.3h-1.2
			c-0.8,3.8-2.7,5.1-5.7,6.1l-0.9-1.8c4.2-1.1,4.6-3.5,4.8-4.3h-2V460.5z M65.9,462.1v1.4h6.3v-1.4H65.9z M65.9,464.9v1.4h6.3v-1.4
			H65.9z M65.9,467.8v1.4h6.3v-1.4H65.9z"/>
	</g>
</g>
<g>
	<g>
		<path class="st3" d="M38.7,557.4c0,4.7-3.8,8.5-8.5,8.5c-4.7,0-8.5-3.8-8.5-8.5c0-4.8,3.9-8.5,8.5-8.5S38.7,552.6,38.7,557.4z
			 M22.2,557.4c0,4.4,3.5,7.9,7.9,7.9c4.4,0,7.9-3.5,7.9-7.9c0-4.4-3.6-7.9-7.9-7.9S22.2,553,22.2,557.4z M32.9,553.9h-4.1v2.4
			c0.3-0.1,0.7-0.3,1.5-0.3c1.6,0,3.4,1,3.4,3.2c0,1.8-1.3,3.4-3.9,3.4c-1.6,0-2.5-0.5-3.1-0.8l0.4-1.4c1.3,0.7,2.3,0.7,2.6,0.7
			c1.7,0,2.4-0.9,2.4-1.9c0-1.1-0.8-1.8-1.9-1.8c-0.1,0-1,0-1.5,0.6h-1.3v-5.6h5.6V553.9z"/>
		<path class="st3" d="M40.4,563.4c4.3-2.6,5-5.9,5.5-8.6h-4.8v-1.9h5c0.1-1.2,0.1-1.9,0.1-3.2l2.1,0c0,1.2-0.1,1.7-0.2,3.2h6.7v3
			c0,0.5,0,5.5-0.7,7.3c-0.7,1.6-2.4,1.6-3.2,1.6c-1.4,0-2.2-0.1-2.8-0.2l-0.1-2c0.8,0.1,1.6,0.3,2.6,0.3c1.2,0,1.5-0.4,1.7-1.1
			c0.3-1,0.4-3.8,0.4-5.5v-1.5h-4.9c-0.4,2.5-1.3,7.1-6.2,10.1L40.4,563.4z"/>
		<path class="st3" d="M59.6,563.3c4.6-0.8,5.9-2.5,6-6.5h-6.8v-1.9h14.7v1.9h-5.8c-0.1,5.3-2.4,7.4-7.2,8.3L59.6,563.3z M72,550.3
			v1.9H60.2v-1.9H72z"/>
		<path class="st3" d="M87.6,551.4l2.3,2.6v9.9H77.3v-2h10.5v-8.5H77.4v-2H87.6z M88.6,549.1c0.9,1,1.4,1.7,2.3,3.1l-1.2,0.9
			c-0.8-1.4-1.2-2-2.2-3.2L88.6,549.1z M91,548.2c0.9,1,1.5,2,2.2,3.2l-1.2,0.9c-0.7-1.4-1.2-2.1-2.2-3.2L91,548.2z"/>
		<path class="st3" d="M98.6,559.9h-2.1v-9.7h2.1V559.9z M107.6,557.5c0,6.1-5,7.1-9.5,7.4l-0.7-1.9c4.8-0.3,8.1-1,8.1-5.3v-7.7h2.1
			V557.5z"/>
		<path class="st3" d="M127.9,556.3v2.1h-15.4v-2.1H127.9z"/>
		<path class="st3" d="M134,550.1c-0.3,1.3-0.8,3.7-0.8,8.2c0,2.1,0.1,4.3,0.5,6.4l-2.1,0.2c-0.2-1.1-0.5-2.8-0.5-6.2
			c0-2.9,0.2-5.8,0.7-8.7L134,550.1z M138.6,557.9c-0.5,0.8-0.9,1.6-0.9,2.3c0,1.5,1.8,1.7,3.5,1.7c1.4,0,2.9-0.1,4.2-0.2v2.1
			c-1,0.1-2.1,0.2-3.3,0.2c-3,0-6.2-0.3-6.2-3.5c0-0.6,0.1-1.7,0.9-3.1L138.6,557.9z M145,551.3v2h-8.6v-2H145z"/>
		<path class="st3" d="M163.6,555.8c-0.9-0.4-1.5-0.7-2.7-1.4v1.4h-9.4v-1.5c-1.1,0.6-1.7,1-2.9,1.5l-1.1-1.9c2.8-0.9,5.8-2.8,7.7-5
			h1.8c1.6,1.7,3.4,3.2,7.7,5L163.6,555.8z M162.8,557.6v7.8h-13.4v-7.8H162.8z M160.9,559.3h-9.6v4.5h9.6V559.3z M160.5,554.1
			c-2.7-1.8-3.6-2.7-4.4-3.6c-1.2,1.4-2.6,2.5-4.2,3.6H160.5z"/>
		<path class="st3" d="M171.5,562.7c1.9,0,6.9-0.1,6.9-4c0-1.8-1.3-2.9-3.1-2.9c-1.9,0-6,1-7.3,1.3l-0.3-2c0.7-0.1,3.9-0.7,4.5-0.8
			c1.1-0.2,2.3-0.3,3.2-0.3c3.3,0,5,2.2,5,4.6c0,0.6-0.1,3.9-3.9,5.1c-1,0.3-3.1,0.6-4.4,0.6L171.5,562.7z"/>
		<path class="st3" d="M184.3,564.5c1.7-3.6,2.7-8.7,3-10.7h-2.5v-1.9h2.8c0.1-1.2,0.1-1.5,0.2-2.3l2.1,0.1
			c-0.1,1.1-0.2,1.5-0.3,2.2h4.6v1.9h-4.9c-0.9,4.9-1.9,8.9-3,11.4L184.3,564.5z M193,559.9c-0.3,0.4-0.6,0.9-0.6,1.5
			c0,1.3,1.7,1.5,3.9,1.5c0.6,0,2.2,0,3.4-0.1l0,2c-1.1,0-2.3,0-3.4,0c-2.3,0-3.4-0.2-4.3-0.7c-0.8-0.4-1.4-1.3-1.4-2.4
			c0-1.1,0.6-2,0.9-2.5L193,559.9z M199.4,556.4c-0.5,0-1-0.1-1.9-0.1c-2.2,0-3.6,0.3-4.8,0.8l-0.7-1.7c1.8-0.7,3.3-1.1,7.4-1V556.4
			z"/>
		<path class="st3" d="M55.7,585.9c-3.2-1.2-6.2-4.3-7.6-8.2c-0.3,0.4-1.2,1.3-2.7,2.4v3.4c1.4-0.2,2.8-0.5,4.7-1v1.6
			c-2.1,0.5-7,1.4-9.1,1.6l-0.4-1.7c0.9-0.1,1.9-0.2,3-0.3v-2.6c-0.7,0.3-1.6,0.8-3.5,1.4l-0.7-1.8c3.9-0.9,6-2.8,6.5-3.3h-6.2v-1.6
			h7.6v-1.3h-6.3v-1.5h6.3V572H40v-1.6h7.2v-1.5h1.8v1.5h7.1v1.6h-7.1v1.2h6.2v1.5h-6.2v1.3h7.5v1.6h-6.7c0.2,0.5,0.5,1.4,1.4,2.6
			c0.3-0.2,1.6-1,3-2.4l1.4,1.3c-1.2,1-2.5,2-3.2,2.4c1.9,1.9,3.6,2.5,4.3,2.8L55.7,585.9z"/>
		<path class="st3" d="M57.4,582.2c0.5-0.1,1-0.2,2.1-0.6v-4.4h-1.7v-1.8h1.7v-3.9h-1.9v-1.8h5.7v1.8h-2v3.9H63v1.8h-1.7v3.8
			c1.1-0.4,1.5-0.6,2-0.8l0.4,1.7c-1.6,0.8-4.1,1.6-5.9,2.1L57.4,582.2z M64.1,569.5h10v10.3H71v3.4c0,0.5,0.1,0.7,0.6,0.7h0.9
			c0.3,0,0.4-0.1,0.5-0.5c0.1-0.5,0.1-1.6,0.1-2l1.7,0.3c-0.1,2.7-0.3,4-1.5,4h-2.6c-0.8,0-1.5-0.1-1.5-1.6v-4.3h-1.2
			c-0.8,3.8-2.7,5.1-5.7,6.1l-0.9-1.8c4.2-1.1,4.6-3.5,4.8-4.3h-2V569.5z M65.9,571.1v1.4h6.3v-1.4H65.9z M65.9,573.9v1.4h6.3v-1.4
			H65.9z M65.9,576.8v1.4h6.3v-1.4H65.9z"/>
	</g>
</g>
<line class="st2" x1="4.6" y1="187.4" x2="635.5" y2="187.4"/>
<line class="st2" x1="4.6" y1="294.7" x2="635.5" y2="294.7"/>
<line class="st2" x1="4.6" y1="402.1" x2="635.5" y2="402.1"/>
<g>
	<path class="st3" d="M245.3,121c-2.2-1.4-4.1-1.9-5.2-2.2l0.8-1.7c1.1,0.3,2.8,0.7,5.2,2.1L245.3,121z M241.1,125.3
		c7.2-0.7,10.1-3.4,12.2-10l1.7,1.3c-2.6,7.7-6.3,10-13.5,11L241.1,125.3z M246.8,116.7c-2-1.2-3.8-1.7-5.3-2.1l0.8-1.7
		c2,0.5,3.4,1,5.4,1.9L246.8,116.7z"/>
	<path class="st3" d="M263.9,118c-1.2-0.8-2.9-1.8-5.6-2.6l1-1.8c3,0.9,4.8,2,5.7,2.5L263.9,118z M258.7,125.2
		c7.1-0.5,10.8-3.9,12.8-10.8l1.8,1.3c-1,2.9-3.6,10.9-14.2,11.7L258.7,125.2z"/>
	<path class="st3" d="M275.8,125.4c0.6-0.6,2.3-2.3,2.7-6.4l1.9,0.2c-0.2,1.9-0.6,5.1-3,7.7L275.8,125.4z M284.4,127.8h-2.1v-10.4
		h-6.1v-1.9h6.1v-3h2.1v3h6.1v1.9h-6.1V127.8z M288.3,119c0.4,2.1,0.8,4.3,2.7,6.6l-1.7,1.3c-1.6-1.9-2.3-3.9-2.9-7.6L288.3,119z
		 M287.9,111.1c0.5,0.7,1,1.7,1.6,3.4l-1.4,0.5c-0.4-1.4-0.8-2.2-1.5-3.4L287.9,111.1z M290.9,111.1c0.7,1.1,1.1,2,1.5,3.4L291,115
		c-0.4-1.4-0.7-2.1-1.4-3.4L290.9,111.1z"/>
	<path class="st3" d="M298,117.5c0,6.3-1.8,8.8-3.4,10.4l-1.5-1.5c1.8-1.8,2.9-3.7,2.9-8.7v-4.5h2V117.5z M302.7,125
		c2-0.7,4.1-1.5,4.9-6.6l1.9,0.8c-0.8,3.7-2.4,7.8-8.9,8.3v-14.8h2V125z"/>
	<path class="st3" d="M314.8,128c-1-1.5-2.1-2.8-3.2-4l1.7-1.2c1.2,1.1,2.7,2.8,3.4,3.8L314.8,128z"/>
	<path class="st3" d="M343.7,114.9l0.1,1.9l-5.8,0.6l0.3,3.3l6.7-0.6l0.1,1.9l-6.6,0.6l0.5,5.3l-2.1,0.1l-0.5-5.2l-6.7,0.6l-0.2-1.9
		l6.7-0.6l-0.3-3.3l-5.8,0.6l-0.1-1.9l5.7-0.6l-0.3-3l2.1-0.2l0.3,3L343.7,114.9z"/>
	<path class="st3" d="M363.1,119.1v2.1h-15.4v-2.1H363.1z"/>
	<path class="st3" d="M365.7,126.2c4.3-2.6,5-5.9,5.5-8.6h-4.8v-1.9h5c0.1-1.2,0.1-1.9,0.1-3.2l2.1,0c0,1.2-0.1,1.7-0.2,3.2h6.7v3
		c0,0.5,0,5.5-0.7,7.3c-0.7,1.6-2.4,1.6-3.2,1.6c-1.4,0-2.2-0.1-2.8-0.2l-0.1-2c0.8,0.1,1.6,0.3,2.6,0.3c1.2,0,1.5-0.4,1.7-1.1
		c0.3-1,0.4-3.8,0.4-5.5v-1.5h-4.9c-0.4,2.5-1.3,7.1-6.2,10.1L365.7,126.2z"/>
	<path class="st3" d="M398.4,117.4c-0.8,7.1-4.1,9.6-11.6,10.4l-0.6-1.9c3.1-0.2,5.3-0.8,6.7-1.7c1-0.6,2.6-2.2,3.1-4.9h-11.9v-1.9
		H398.4z M397.3,113.1v1.9h-11.9v-1.9H397.3z"/>
	<path class="st3" d="M417.1,119.1v2.1h-15.4v-2.1H417.1z"/>
	<path class="st3" d="M422.8,128c-1-1.5-2.1-2.8-3.2-4l1.7-1.2c1.2,1.1,2.7,2.8,3.4,3.8L422.8,128z"/>
	<path class="st3" d="M451.7,114.9l0.1,1.9l-5.8,0.6l0.3,3.3l6.7-0.6l0.1,1.9l-6.6,0.6l0.5,5.3l-2.1,0.1l-0.5-5.2l-6.7,0.6l-0.2-1.9
		l6.7-0.6l-0.3-3.3l-5.8,0.6l-0.1-1.9l5.7-0.6l-0.3-3l2.1-0.2l0.3,3L451.7,114.9z"/>
	<path class="st3" d="M471.1,119.1v2.1h-15.4v-2.1H471.1z"/>
	<path class="st3" d="M477.3,118.4c1.9-0.5,4.6-1.1,8-2.9l0.9,1.9c-4.2,1.9-7.5,2.7-8.9,3v3.7c0,1.2,0.3,1.3,2,1.3h4.6
		c1.2,0,2.9-0.1,4-0.3l0.1,2.1c-1.1,0.2-2.6,0.2-3.7,0.2H479c-2.4,0-3.8-0.4-3.8-2.8V113h2.1V118.4z M486,111.9
		c0.8,1.1,1.3,2,1.8,3.4l-1.3,0.7c-0.5-1.4-0.9-2.2-1.7-3.5L486,111.9z M488.7,111.1c0.8,1,1.2,2,1.8,3.4l-1.3,0.7
		c-0.6-1.5-0.9-2.2-1.7-3.5L488.7,111.1z"/>
	<path class="st3" d="M497.4,121c-2.2-1.3-4.3-1.9-5.2-2.2l0.7-1.7c1.7,0.4,3.7,1.1,5.3,2L497.4,121z M493.1,125.4
		c6.9-0.7,9.9-3,11.9-9.5l1.7,1.3c-2.5,6.8-5.9,9.4-13.2,10.4L493.1,125.4z M498.8,116.7c-1.7-0.9-3.2-1.5-5.3-2.1l0.8-1.7
		c1.8,0.4,3.6,1.1,5.4,1.9L498.8,116.7z M503.7,111.4c0.7,1.1,1.1,1.9,1.7,3.5l-1.3,0.7c-0.5-1.5-0.8-2.2-1.6-3.5L503.7,111.4z
		 M506.7,111.3c0.8,1.2,1.2,2.2,1.6,3.5l-1.3,0.6c-0.5-1.5-0.7-2.2-1.5-3.5L506.7,111.3z"/>
	<path class="st3" d="M523.8,125.1v1.8H511v-1.8h7.5c0.5-2.6,0.6-3.7,0.8-6.5h-6.6v-1.8h8.7c-0.1,3-0.4,5.8-0.9,8.3H523.8z"/>
	<path class="st3" d="M542.9,113.2c-0.6,4.5-2.7,6.3-5.5,7.8l-1.3-1.5c3.1-1.3,3.9-2.8,4.4-4.3h-12.5v-1.9H542.9z M528.1,126.1
		c4.9-2.1,5.6-5.4,5.5-9.3l2.1,0c-0.1,3.6-0.4,8.2-6.3,11L528.1,126.1z"/>
	<path class="st3" d="M550,117.5c0,6.3-1.8,8.8-3.4,10.4l-1.5-1.5c1.8-1.8,2.9-3.7,2.9-8.7v-4.5h2V117.5z M554.7,125
		c2-0.7,4.1-1.5,4.9-6.6l1.9,0.8c-0.8,3.7-2.4,7.8-8.9,8.3v-14.8h2V125z"/>
	<path class="st3" d="M566.8,128c-1-1.5-2.1-2.8-3.2-4l1.7-1.2c1.2,1.1,2.7,2.8,3.4,3.8L566.8,128z"/>
	<path class="st3" d="M254.4,144.7c-0.3,5.5-1.8,12-11.5,14l-0.8-1.9c8.1-1.5,9.6-6,10.1-10.1h-11.6v-2H254.4z"/>
	<path class="st3" d="M259.4,150.6v-1.7h6.8l0-2.4h1.8l0,2.4h3.4v1.7H268l0.1,6.1c0,2.2-1.7,2.2-2.6,2.2c-0.1,0-1,0-1.8-0.1
		l-0.3-1.7c0.7,0.1,2.1,0.2,2.2,0.2c0.5,0,0.6-0.1,0.6-0.7l0-4.2c-2.2,2.9-4.6,4.5-6.2,5.3l-1.1-1.5c2.7-1.2,5-3.2,6.8-5.6H259.4z"
		/>
	<path class="st3" d="M280,148.5c0,6.3-1.8,8.8-3.4,10.4l-1.5-1.5c1.8-1.8,2.9-3.7,2.9-8.7v-4.5h2V148.5z M284.7,156
		c2-0.7,4.1-1.5,4.9-6.6l1.9,0.8c-0.8,3.7-2.4,7.8-8.9,8.3v-14.8h2V156z"/>
	<path class="st3" d="M293.8,156c0.1,0,1.5,0,1.7,0c2.1-5.5,3.4-10.6,3.8-12.4l2.2,0.4c-1.5,6-3.1,9.9-4,12c3.2-0.1,5-0.2,8.2-0.5
		c-1-1.8-1.3-2.5-2.9-4.7l1.7-0.9c2.1,2.7,3.3,4.8,4.6,8l-2,0.9c-0.2-0.5-0.3-0.8-0.6-1.6c-3.6,0.4-6.6,0.7-12.5,1L293.8,156z"/>
	<path class="st3" d="M314.8,159c-1-1.5-2.1-2.8-3.2-4l1.7-1.2c1.2,1.1,2.7,2.8,3.4,3.8L314.8,159z"/>
	<path class="st3" d="M328.7,153.4c0.6-0.8,1.4-1.8,2.4-5.7h-2.1V146h2.2v-3.3h1.7v3.3h2v1.7h-2v0.8c0.7,1.7,1.5,2.6,2.2,3.2
		l-0.9,1.6c-0.8-1-1-1.4-1.3-2.3v8.5h-1.7v-7.9c-0.6,2.5-1.4,3.6-1.8,4.2L328.7,153.4z M337.2,146.8v-1.3h-2.3v-1.6h2.3v-1.2h1.7
		v1.2h3v-1.2h1.8v1.2h2.2v1.6h-2.2v1.3h1.5v6.3h-4.4c0,0.3,0,0.5-0.1,0.9h5.1v1.7H342c0.9,1.1,1.9,1.8,4.2,2.3l-0.8,1.7
		c-2-0.6-4.1-1.6-5.3-3.8c-0.4,0.8-1.7,2.9-5.3,3.8L334,158c2.6-0.5,3.8-1.7,4.2-2.3h-3.5v-1.7h4.3c0.1-0.4,0.1-0.5,0.1-0.9h-3.6
		v-6.3H337.2z M337.2,148.3v1h6.2v-1H337.2z M337.2,150.6v1.1h6.2v-1.1H337.2z M341.9,146.8v-1.3h-3v1.3H341.9z"/>
	<path class="st3" d="M346.7,153.3c1.7-2.2,2.3-5.1,2.4-5.6h-2.1V146h2.2v-3.3h1.7v3.3h1.6v1.7h-1.6v0.7c0.5,1.5,1.2,2.3,1.9,3
		l-1,1.4c-0.5-0.7-0.6-0.9-1-1.9v8.7h-1.7v-8.2c-0.1,0.4-0.7,2.7-1.9,4.3L346.7,153.3z M356.8,156.5c-1,0.8-2.9,1.8-4.5,2.5
		l-0.6-1.5c1.9-0.7,2.9-1.3,4.8-2.6L356.8,156.5z M363.1,159.1c-1.8-1-3-2.1-3.9-3.6v2.6c0,0.9-0.3,1.6-1.5,1.6h-2.2l-0.3-1.8h1.6
		c0.4,0,0.6-0.1,0.6-0.6v-5.3h-4.6v-1.6h4.6V149h-3.8v-1.6h3.8v-1.2h-4.3v-1.6h2.1c-0.4-1.1-0.5-1.3-0.7-1.7l1.7-0.2
		c0.5,0.9,0.7,1.7,0.8,2h2.6c0.1-0.3,0.5-1.2,0.7-2l1.8,0.2c-0.2,0.7-0.5,1.4-0.7,1.7h2.1v1.6h-4.3v1.2h3.9v1.6h-3.9v1.3h4.6v1.6
		h-4.6v0.6c0.3,1,1.9,3.8,4.8,5L363.1,159.1z M355,155.3c-0.5-0.6-1.4-1.5-2.1-1.9l1.2-1.3c0.5,0.4,1.6,1.3,2.2,1.9L355,155.3z
		 M363.9,153.1c-0.6,0.9-1.1,1.4-1.8,2l-1.3-1c0.1-0.1,1.1-0.8,1.8-2L363.9,153.1z"/>
	<path class="st3" d="M374.5,145.6v1.9h-3.9c-0.7,3.3-1.7,6.3-3,9.2l-2.1-0.8c1.6-2.8,2.4-5.6,3-8.4h-2.8v-1.9h3.2
		c0.1-0.8,0.2-1.4,0.3-2.3l2.1,0.1c-0.2,1.1-0.2,1.5-0.3,2.2H374.5z M377.8,152.9c1.5,0.7,2.9,1.8,3.7,2.6l-1.2,1.8
		c-1-1.2-1.8-1.8-2.6-2.2v0.6c0,2.3-1.8,3.2-3.7,3.2c-2.8,0-4.1-1.5-4.1-3.3c0-1.5,1.2-3.4,4.3-3.4c0.8,0,1.3,0.1,1.6,0.2l-0.1-3.7
		h2L377.8,152.9z M375.9,154.1c-0.4-0.1-0.8-0.3-1.7-0.3c-1.6,0-2.4,0.7-2.4,1.7c0,0.3,0.1,1.6,2.3,1.6c1.4,0,1.8-0.7,1.8-1.9V154.1
		z M380.4,148.8c-1.9-1.1-3.1-1.7-4.9-2.4l0.8-1.7c1.9,0.6,3.1,1.2,5,2.3L380.4,148.8z"/>
	<path class="st3" d="M397.6,149.7c-0.8,0.1-10.8,1.1-10.8,4.9c0,1.9,2.1,2.1,5.5,2.1c3,0,4.9-0.2,5.9-0.3l0,2.1
		c-1.1,0.1-2.6,0.2-5.2,0.2c-3.1,0-8.3,0-8.3-4c0-3,3.5-4.6,4.8-5.1c-0.6-1.1-0.7-2.3-0.7-6h2.2c0,0.6,0,1.1,0,2
		c0,2,0.1,2.6,0.4,3.3c1.6-0.5,3.3-0.8,6-1.3L397.6,149.7z M395.4,142.7c0.7,1.1,1.2,2.2,1.6,3.5l-1.4,0.7c-0.4-1.5-0.8-2.3-1.5-3.6
		L395.4,142.7z M398.2,142.3c0.3,0.5,0.9,1.5,1.6,3.5l-1.4,0.6c-0.5-1.5-0.8-2.3-1.5-3.6L398.2,142.3z"/>
	<path class="st3" d="M409.3,156.7c1.9-0.2,5.9-0.8,5.9-5.7c0-2-0.8-5-4.9-5.2c-0.6,8-3,11.3-5.4,11.3c-2.1,0-3.4-2.4-3.4-5.2
		c0-5.1,3.7-8.1,8.4-8.1c5.6,0,7.5,3.7,7.5,7.1c0,6.8-6.1,7.4-7.4,7.5L409.3,156.7z M403.4,152.1c0,1,0.4,3,1.5,3
		c0.7,0,1.2-0.6,1.6-1.4c1.2-2.2,1.6-5,1.8-7.7C405.1,146.6,403.4,149.2,403.4,152.1z"/>
	<path class="st3" d="M419.6,143.3h6.8v6.1h-5.1v10.2h-1.8V143.3z M421.4,144.6v1.1h3.3v-1.1H421.4z M421.4,146.9v1.1h3.3v-1.1
		H421.4z M424.6,153.9c0-0.1,0-0.2,0-0.3V152h-2v-1.5h9.6v1.5h-1.8v1.9h2.1v1.5h-2.1v4h-1.7v-4h-2.6c-0.2,0.9-0.8,2.7-2.6,4
		l-1.2-1.3c0.6-0.4,1.6-1.3,2-2.7h-2.1v-1.5H424.6z M428.7,153.9V152h-2.4v1.9H428.7z M428.3,143.3h6.9v14.8c0,0.3,0,1.5-1.3,1.5
		h-2.5l-0.3-1.8h2c0.3,0,0.4-0.1,0.4-0.4v-8h-5.2V143.3z M430,144.6v1.1h3.3v-1.1H430z M430,146.9v1.1h3.3v-1.1H430z"/>
	<path class="st3" d="M453.7,145c-0.4,0.5-1,1.3-2.4,2.5c0.7,0.4,1.4,0.8,2.8,1.3l-0.7,1.7c-1-0.5-1.5-0.7-2.6-1.3v1.2h-2.3v2h5v1.7
		h-5v2.9c0,0.4,0.2,0.4,0.5,0.4h2.3c0.8,0,0.8-0.5,0.9-2.2l1.8,0.2c-0.3,2.5-0.4,3.7-2,3.7h-3.8c-0.8,0-1.6-0.2-1.6-1.2v-3.9h-2.8
		c-0.6,3.3-3.3,4.8-5.9,5.4l-0.9-1.8c2.8-0.3,4.7-1.9,5-3.6h-4.6v-1.7h4.8v-2h-2.1v-1.1c-0.9,0.5-1.5,0.8-2.4,1.3l-0.9-1.7
		c1-0.3,1.7-0.7,3.1-1.5c-0.3-0.3-1.2-1.1-2.1-1.8l1-0.9h-0.2v-1.5h7.8c0.5,0.7,0.7,1.1,1.2,1.6c0.9-0.8,1.5-1.4,2.1-2.1l1.4,0.9
		c-0.7,0.8-1.5,1.6-2.3,2.4c0.4,0.3,0.6,0.4,1,0.8c1-0.9,1.8-1.7,2.4-2.5L453.7,145z M439.3,144.8c1,0.7,2,1.6,2.1,1.7
		c0.9-0.6,1.3-1,1.9-1.7H439.3z M449.8,148.8c-2.1-1.3-3.8-3.1-4.4-3.9c-0.6,0.8-1.7,2.1-4.3,3.9H449.8z M446.6,150.5h-2.7v2h2.7
		V150.5z"/>
</g>
<g>
	<path class="st3" d="M240.7,226.8c-0.5,0.8-0.9,1.2-1.2,1.5l-0.9-2.2c1.8-2.1,2.8-4.7,3.2-7.4l1.9,0.2c-0.2,0.9-0.5,2.4-1.2,4.3
		v12.4h-1.8V226.8z M246.7,223.9l2.4-0.6v-4.6h1.8v4.2l4.3-1c0,4.4,0,6.6-0.4,7.8c-0.3,0.9-0.7,1.1-1.9,1.1h-1.2l-0.3-1.8h1
		c0.5,0,0.7,0,0.8-0.7c0-0.1,0.2-1.7,0.1-4.1l-2.5,0.6v7h-1.8v-6.6l-2.4,0.6v6.6c0,1,0.1,1.1,1,1.1h5.1c0.6,0,0.9,0,1-0.4
		c0.1-0.2,0.2-1.4,0.2-1.9l1.7,0.5c-0.2,3.5-1,3.7-2.4,3.7h-6.3c-2.3,0-2.3-0.8-2.3-2.1v-7l-1.6,0.4l-0.2-1.9l1.9-0.4v-4h1.8V223.9z
		"/>
	<path class="st3" d="M261.3,219.9c-0.3,1.3-0.8,3.7-0.8,8.2c0,2.1,0.1,4.3,0.5,6.4l-2.1,0.2c-0.2-1.1-0.5-2.8-0.5-6.2
		c0-2.9,0.2-5.8,0.7-8.7L261.3,219.9z M265.9,227.7c-0.5,0.8-0.9,1.6-0.9,2.3c0,1.5,1.8,1.7,3.5,1.7c1.4,0,2.9-0.1,4.2-0.2v2.1
		c-1,0.1-2.1,0.2-3.3,0.2c-3,0-6.2-0.3-6.2-3.5c0-0.6,0.1-1.7,0.9-3.1L265.9,227.7z M272.3,221.2v2h-8.6v-2H272.3z"/>
	<path class="st3" d="M284.5,221.6v1.9h-3.9c-0.7,3.3-1.7,6.3-3,9.2l-2.1-0.8c1.6-2.8,2.4-5.6,3-8.4h-2.8v-1.9h3.2
		c0.1-0.8,0.2-1.4,0.3-2.3l2.1,0.1c-0.2,1.1-0.2,1.5-0.3,2.2H284.5z M287.8,228.9c1.5,0.7,2.9,1.8,3.7,2.6l-1.2,1.8
		c-1-1.2-1.8-1.8-2.6-2.2v0.6c0,2.3-1.8,3.2-3.7,3.2c-2.8,0-4.1-1.5-4.1-3.3c0-1.5,1.2-3.4,4.3-3.4c0.8,0,1.3,0.1,1.6,0.2l-0.1-3.7
		h2L287.8,228.9z M285.9,230.1c-0.4-0.1-0.8-0.3-1.7-0.3c-1.6,0-2.4,0.7-2.4,1.7c0,0.3,0.1,1.6,2.3,1.6c1.4,0,1.8-0.7,1.8-1.9V230.1
		z M290.4,224.8c-1.9-1.1-3.1-1.7-4.9-2.4l0.8-1.7c1.9,0.6,3.1,1.2,5,2.3L290.4,224.8z"/>
	<path class="st3" d="M296.5,220.5c-0.2,1.2-0.4,2.9-0.4,5.3c0,2.3,0.2,6.2,2,6.2c0.6,0,1-0.4,1.3-0.9c0.4-0.6,1-1.7,1.4-2.9l1.6,1
		c-0.5,1.3-1.2,3-2.4,4.2c-0.7,0.7-1.4,0.9-2.1,0.9c-3.2,0-3.9-4.7-3.9-8.7c0-1.8,0.2-3.7,0.3-5.3L296.5,220.5z M306.8,232.6
		c0-3.2,0.1-8-3.2-10.7l1.6-1.1c2.8,2.5,3.8,5.1,3.8,11.7L306.8,232.6z"/>
	<path class="st3" d="M322.9,218.6h5v1.7h-3.3v15.1h-1.7V218.6z"/>
	<path class="st3" d="M335.7,228.5c-0.3,4.5-1.8,5.9-6.2,7.3l-0.9-1.8c3.4-0.8,5.1-1.7,5-5.6L335.7,228.5z M328.9,220.1h7.6v-1.3
		h1.9v1.3h7.5v1.8h-7.5v1.4h6.5v1.6h-15v-1.6h6.5v-1.4h-7.6V220.1z M329.3,226h16.1v3.5h-1.9v-1.9h-12.3v1.9h-1.9V226z M345.9,231.6
		c-0.1,1.3-0.2,2.2-0.5,2.7c-0.5,1-1.2,1.1-1.5,1.1h-3.8c-0.5,0-1.6-0.2-1.6-1.4v-5.6h1.9v4.8c0,0.3,0,0.4,0.3,0.4h2.7
		c0.1,0,0.3-0.1,0.4-0.5c0.1-0.4,0.2-1.7,0.2-2L345.9,231.6z"/>
	<path class="st3" d="M352.4,219.9c-0.2,1-0.7,3-0.7,6.1c0.6-1,0.9-1.5,1.2-2.1l1.2,1c-0.5,0.7-1,1.5-1.7,2.7
		c-0.5,1.1-0.6,1.6-0.6,2.2l-1.9,0.1c-0.1-0.7-0.3-2.2-0.3-4.2c0-2.9,0.4-5,0.6-6L352.4,219.9z M360.7,219.8c0.3,3.3,0.3,5.5,0.3,6
		c0,4.2-0.5,7.5-6.8,9.2l-1.5-1.5c6.2-1.5,6.2-4.3,6.2-7.9c0-2.5-0.2-4.8-0.3-5.8H360.7z"/>
	<path class="st3" d="M369.9,235.8h-5V234h3.3v-15.1h1.7V235.8z"/>
	<path class="st3" d="M397.7,221.1v1.7h-7.8c-0.4,1-0.6,1.5-1,2.3c1.1-0.6,1.7-0.9,2.6-0.9c1.5,0,2.4,0.6,2.8,2
		c0.8-0.3,2.9-1.1,4.3-1.6l0.5,1.9c-2.5,0.6-4.3,1.3-4.5,1.4c0.1,0.8,0.1,1.7,0.1,1.9c0,0.6,0,0.9-0.1,1.3h-1.9
		c0.1-1.2,0.1-2.1,0.1-2.5c-1.9,0.9-3.1,1.8-3.1,2.9c0,1.4,1.8,1.4,3.7,1.4c0.4,0,2.6,0,4.7-0.3l0.1,1.9c-1.2,0.1-2.8,0.1-4.2,0.1
		c-2.1,0-6.3,0-6.3-3c0-2.5,3.4-4.2,4.9-4.8c-0.2-0.6-0.4-1.1-1.4-1.1c-1.1,0-2.3,0.7-3.2,1.6c-0.1,0.1-2.2,2.9-2.7,3.3l-1.4-1.4
		c2.1-2,3.1-3.9,4.1-6.4h-3.5v-1.7h4c0.2-0.7,0.3-1.2,0.4-1.9l2.1,0.1c-0.1,0.7-0.2,1-0.4,1.8H397.7z"/>
	<path class="st3" d="M405.4,234.2V229h7.9v4.8h1.2c0.4,0,0.5-0.2,0.5-0.5v-6.1c-0.3,1.2-0.9,1.2-1.5,1.2h-2.3c-0.6,0-1.6,0-1.6-1.2
		v-2h-1.2c-0.5,2.1-1.9,3-3.8,3.8l-0.9-1.5v8.2h-1.9v-12h3.6c-0.1-1-0.4-1.7-0.5-2.1h-4v-1.6h7.5v-1.1h2v1.1h7.5v1.6H414
		c-0.1,0.3-0.3,1.1-0.7,2.1h3.6v10.7c0,0.6-0.2,1.4-1.3,1.4H413l-0.3-1.5H405.4z M403.7,227.4c1.2-0.3,2.4-0.6,2.9-2.2h-2.9V227.4z
		 M411.4,223.6c0.4-0.9,0.6-1.8,0.6-2.1h-5.2c0.3,1,0.4,1.3,0.5,2.1H411.4z M411.5,230.5h-4.4v2.1h4.4V230.5z M415,226.2v-1.1h-3.6
		v1.4c0,0.2,0.1,0.4,0.4,0.4h0.9c0.6,0,0.7-0.1,0.8-1.1L415,226.2z"/>
	<path class="st3" d="M426.5,227.2v8.1h-7v-8.1H426.5z M433.5,219.3v6.4h-12.3v-6.4H433.5z M421.2,228.8v4.8h3.6v-4.8H421.2z
		 M423,221v3.1h8.8V221H423z M435.2,227.2v8.1h-7.3v-8.1H435.2z M429.7,228.8v4.8h3.8v-4.8H429.7z"/>
	<path class="st3" d="M443.3,235.1c-0.3-1.7-0.8-4.5-2.1-9.2c-1.4,0.5-2,0.8-2.9,1.3l-0.7-2c0.5-0.1,2.6-0.9,3.1-1.1
		c-0.4-1.5-0.7-2.4-1.2-3.5l2.1-0.5c0.2,0.6,0.4,1.1,1.1,3.4c1.2-0.4,2.7-0.9,3.2-1c-0.4-0.8-0.8-1.4-1.4-2.3l1.7-0.7
		c0.8,1,1.1,1.7,1.6,2.5c0.3-0.1,0.7-0.1,1.3-0.1c2.9,0,4.2,2.1,4.2,4.1c0,2.6-2,4.2-4.8,4.2c-1.2,0-2.2-0.3-2.5-0.4l0.1-1.9
		c0.5,0.2,1.1,0.5,2.2,0.5c1.5,0,3-0.8,3-2.4c0-1-0.6-2.2-2.4-2.2c-1.5,0-3.5,0.7-5.8,1.5c0.7,2.4,1.5,5.5,2.5,9.4L443.3,235.1z"/>
	<path class="st3" d="M469.7,221.9l0.1,1.9l-5.8,0.6l0.3,3.3l6.7-0.6l0.1,1.9l-6.6,0.6l0.5,5.3l-2.1,0.1l-0.5-5.2l-6.7,0.6l-0.2-1.9
		l6.7-0.6l-0.3-3.3l-5.8,0.6l-0.1-1.9l5.7-0.6l-0.3-3l2.1-0.2l0.3,3L469.7,221.9z"/>
	<path class="st3" d="M482,234.9l-1.9,0.2l-1.2-7.8l-3.5,0.5l-0.2-1.8l3.5-0.5l-0.4-3l1.9-0.2l0.5,2.9l7.2-1c-0.1,3-1.2,5.2-3.7,7.1
		l-1.4-1.3c1.7-1.1,2.4-2.3,2.9-3.8l-4.7,0.7L482,234.9z"/>
	<path class="st3" d="M494.8,228.8c-0.3-1.7-0.8-3.1-1.4-4.4l1.7-0.5c0.8,1.6,1.3,3.3,1.5,4.5L494.8,228.8z M494.6,233.4
		c5.8-1.2,8-3.7,9.1-10l2,0.4c-1.1,5.4-3,9.4-9.8,11.1L494.6,233.4z M498.7,228c-0.2-1-0.5-2.5-1.2-4.4l1.6-0.4
		c0.6,1.3,1.1,3.1,1.3,4.3L498.7,228z"/>
	<path class="st3" d="M519.1,225.3h5.7v1.9h-5.7c-0.4,5.4-4,6.9-7.6,7.7l-0.9-1.8c5.2-1,6.2-2.8,6.4-5.9H510v-1.9h7.2v-2.5
		c-3.3,0.4-5.1,0.4-6.1,0.4l-0.4-1.8c4.2,0,8.4-0.5,11.8-1.7l1,1.8c-1.8,0.5-2.9,0.8-4.4,1V225.3z"/>
	<path class="st3" d="M541.7,221.1v12.5h-13v-2h10.8V223h-10.7v-1.9H541.7z"/>
	<path class="st3" d="M549.3,225.4c1.9-0.5,4.6-1.1,8-2.9l0.9,1.9c-4.2,1.9-7.5,2.7-8.9,3v3.7c0,1.2,0.3,1.3,2,1.3h4.6
		c0.4,0,2.3,0,4-0.3l0.1,2.1c-1.1,0.2-2.6,0.2-3.7,0.2H551c-2.4,0-3.8-0.4-3.8-2.8V220h2.1V225.4z M562.5,220.5
		c0,1.4-1.1,2.5-2.5,2.5c-1.3,0-2.5-1.1-2.5-2.5s1.1-2.5,2.5-2.5C561.4,218.1,562.5,219.2,562.5,220.5z M558.7,220.5
		c0,0.7,0.6,1.3,1.3,1.3s1.3-0.6,1.3-1.3c0-0.8-0.6-1.3-1.3-1.3C559.3,219.2,558.7,219.8,558.7,220.5z"/>
	<path class="st3" d="M579.1,226.1v2.1h-15.4v-2.1H579.1z"/>
	<path class="st3" d="M584.8,235c-1-1.5-2.1-2.8-3.2-4l1.7-1.2c1.2,1.1,2.7,2.8,3.4,3.8L584.8,235z"/>
	<path class="st3" d="M243.3,256.4c1.9-0.5,4.6-1.1,8-2.9l0.9,1.9c-4.2,1.9-7.5,2.7-8.9,3v3.7c0,1.2,0.3,1.3,2,1.3h4.6
		c1.2,0,2.9-0.1,4-0.3l0.1,2.1c-1.1,0.2-2.6,0.2-3.7,0.2H245c-2.4,0-3.8-0.4-3.8-2.8V251h2.1V256.4z M252,249.9
		c0.8,1.1,1.3,2,1.8,3.4l-1.3,0.7c-0.5-1.4-0.9-2.2-1.7-3.5L252,249.9z M254.7,249.1c0.8,1,1.2,2,1.8,3.4l-1.3,0.7
		c-0.6-1.5-0.9-2.2-1.7-3.5L254.7,249.1z"/>
	<path class="st3" d="M263.4,259c-2.2-1.3-4.3-1.9-5.2-2.2l0.7-1.7c1.7,0.4,3.7,1.1,5.3,2L263.4,259z M259.1,263.4
		c6.9-0.7,9.9-3,11.9-9.5l1.7,1.3c-2.5,6.8-5.9,9.4-13.2,10.4L259.1,263.4z M264.8,254.7c-1.7-0.9-3.2-1.5-5.3-2.1l0.8-1.7
		c1.8,0.4,3.6,1.1,5.4,1.9L264.8,254.7z M269.7,249.4c0.7,1.1,1.1,1.9,1.7,3.5l-1.3,0.7c-0.5-1.5-0.8-2.2-1.6-3.5L269.7,249.4z
		 M272.7,249.3c0.8,1.2,1.2,2.2,1.6,3.5l-1.4,0.6c-0.5-1.5-0.7-2.2-1.5-3.5L272.7,249.3z"/>
	<path class="st3" d="M289.8,263.1v1.8H277v-1.8h7.5c0.5-2.6,0.6-3.7,0.8-6.5h-6.6v-1.8h8.7c-0.1,3-0.4,5.8-0.9,8.3H289.8z"/>
	<path class="st3" d="M308.9,251.2c-0.6,4.5-2.7,6.3-5.5,7.8l-1.3-1.5c3.1-1.3,3.9-2.8,4.4-4.3h-12.5v-1.9H308.9z M294.1,264.1
		c4.9-2.1,5.6-5.4,5.5-9.3l2.1,0c-0.1,3.6-0.4,8.2-6.3,11L294.1,264.1z"/>
	<path class="st3" d="M316,255.5c0,6.3-1.8,8.8-3.4,10.4l-1.5-1.5c1.8-1.8,2.9-3.7,2.9-8.7v-4.5h2V255.5z M320.7,263
		c2-0.7,4.1-1.5,4.9-6.6l1.9,0.8c-0.8,3.7-2.4,7.8-8.9,8.3v-14.8h2V263z"/>
	<path class="st3" d="M338.5,252.6v1.9h-3.9c-0.7,3.3-1.7,6.3-3,9.2l-2.1-0.8c1.6-2.8,2.4-5.6,3-8.4h-2.8v-1.9h3.2
		c0.1-0.8,0.2-1.4,0.3-2.3l2.1,0.1c-0.2,1.1-0.2,1.5-0.3,2.2H338.5z M341.8,259.9c1.5,0.7,2.9,1.8,3.7,2.6l-1.2,1.8
		c-1-1.2-1.8-1.8-2.6-2.2v0.6c0,2.3-1.8,3.2-3.7,3.2c-2.8,0-4.1-1.5-4.1-3.3c0-1.5,1.2-3.4,4.3-3.4c0.8,0,1.3,0.1,1.6,0.2l-0.1-3.7
		h2L341.8,259.9z M339.9,261.1c-0.4-0.1-0.8-0.3-1.7-0.3c-1.6,0-2.4,0.7-2.4,1.7c0,0.3,0.1,1.6,2.3,1.6c1.4,0,1.8-0.7,1.8-1.9V261.1
		z M344.4,255.8c-1.9-1.1-3.1-1.7-4.9-2.4l0.8-1.7c1.9,0.6,3.1,1.2,5,2.3L344.4,255.8z"/>
	<path class="st3" d="M361.6,256.7c-0.8,0.1-10.8,1.1-10.8,4.9c0,1.9,2.1,2.1,5.5,2.1c3,0,4.9-0.2,5.9-0.3l0,2.1
		c-1.1,0.1-2.6,0.2-5.2,0.2c-3.1,0-8.3,0-8.3-4c0-3,3.5-4.6,4.8-5.1c-0.6-1.1-0.7-2.3-0.7-6h2.2c0,0.6,0,1.1,0,2
		c0,2,0.1,2.6,0.4,3.3c1.6-0.5,3.3-0.8,6-1.3L361.6,256.7z M359.4,249.7c0.7,1.1,1.2,2.2,1.6,3.5l-1.4,0.7c-0.4-1.5-0.8-2.3-1.5-3.6
		L359.4,249.7z M362.2,249.3c0.3,0.5,0.9,1.5,1.6,3.5l-1.4,0.6c-0.5-1.5-0.8-2.3-1.5-3.6L362.2,249.3z"/>
	<path class="st3" d="M380.9,253.4c-0.7,0-1.2-0.1-1.7-0.1c-0.8,0-1.3,0-1.9,0.2c-2.6,0.8-5.9,3.6-5.9,6.5c0,2.3,1.8,2.8,3.5,3.2
		c1.2,0.2,3,0.3,4.5,0.3l-0.4,2.2c-3.6-0.1-9.7-0.3-9.7-5.5c0-3.5,3.2-5.7,4.8-6.7c-1.9,0.1-6.5,0.5-8.2,0.6l-0.1-2.2
		c1.3,0,6.2-0.3,7.3-0.4c2.8-0.1,4.7-0.2,7.8-0.2L380.9,253.4z M377.2,255.4c0.8,1.1,1.4,2.1,2,3.4l-1.4,0.8
		c-0.6-1.4-1.1-2.3-1.9-3.5L377.2,255.4z M379.8,254.3c0.8,1.1,1.4,2,2,3.4l-1.4,0.8c-0.6-1.5-1-2.2-1.9-3.4L379.8,254.3z"/>
	<path class="st3" d="M399,266.8c-3.2-1.2-6.2-4.3-7.6-8.2c-0.3,0.4-1.2,1.3-2.7,2.4v3.4c1.4-0.2,2.8-0.5,4.7-1v1.6
		c-2.1,0.5-7,1.4-9.1,1.6l-0.4-1.7c0.9-0.1,1.9-0.2,3-0.3V262c-0.7,0.3-1.6,0.8-3.5,1.4l-0.7-1.8c3.9-0.9,6-2.8,6.5-3.3h-6.2v-1.6
		h7.6v-1.3h-6.3V254h6.3v-1.2h-7.2v-1.6h7.2v-1.5h1.8v1.5h7.1v1.6h-7.1v1.2h6.2v1.5h-6.2v1.3h7.5v1.6h-6.7c0.2,0.5,0.5,1.4,1.4,2.6
		c0.3-0.2,1.6-1,3-2.4l1.3,1.3c-1.2,1-2.5,2-3.2,2.4c1.9,1.9,3.6,2.5,4.3,2.8L399,266.8z"/>
	<path class="st3" d="M400.7,263.1c0.5-0.1,1-0.2,2.1-0.6v-4.4h-1.7v-1.8h1.7v-3.9h-1.9v-1.8h5.7v1.8h-2v3.9h1.7v1.8h-1.7v3.8
		c1.1-0.4,1.5-0.6,2-0.8l0.4,1.7c-1.6,0.8-4.1,1.6-5.9,2.1L400.7,263.1z M407.4,250.3h10v10.3h-3.1v3.4c0,0.5,0.1,0.7,0.6,0.7h0.9
		c0.3,0,0.4-0.1,0.4-0.5c0.1-0.5,0.1-1.6,0.1-2l1.7,0.3c-0.1,2.7-0.3,4-1.5,4h-2.6c-0.8,0-1.5-0.1-1.5-1.6v-4.3h-1.2
		c-0.8,3.8-2.7,5.1-5.7,6.1l-0.9-1.8c4.2-1.1,4.6-3.5,4.8-4.3h-2V250.3z M409.2,251.9v1.4h6.3v-1.4H409.2z M409.2,254.8v1.4h6.3
		v-1.4H409.2z M409.2,257.6v1.4h6.3v-1.4H409.2z"/>
</g>
<g>
	<path class="st3" d="M250.9,327.6h5v1.7h-3.3v15.1h-1.7V327.6z"/>
	<path class="st3" d="M259.1,335.4c-0.8,1-1.1,1.3-1.5,1.7l-1-2.1c2.2-2.4,3.3-4.4,4-7.2l1.9,0.2c-0.2,0.8-0.6,2.1-1.5,4.1v12.5
		h-1.9V335.4z M266.6,327.8v6.3c0.8-0.3,3.4-1.4,5.7-3.2l1.3,1.7c-2,1.4-5.1,2.8-7,3.5v5.7c0,0.5,0,0.7,0.7,0.7h3.9
		c0.5,0,0.6-0.2,0.7-0.4c0.1-0.3,0.2-2.4,0.2-2.8l1.9,0.5c0,0.8-0.1,3.1-0.5,3.7c-0.4,0.7-0.9,0.9-1.7,0.9h-5.1
		c-0.5,0-1.8,0-1.8-1.7v-14.9H266.6z"/>
	<path class="st3" d="M277.6,338c-0.5,1.4-1,2.3-2.2,3.8l-0.8-2.1c0.6-0.7,1.7-2,2.8-4.6H275v-1.7h2.7v-5.7h1.7v5.7h2.2v1.7h-2.2
		c0.1,0.1,0.8,1.6,2.4,3.3l-0.9,1.8c-0.5-0.7-1-1.3-1.6-2.7v7.1h-1.7V338z M276.3,328.6c0.6,2,0.6,3.1,0.7,3.6l-1.4,0.3
		c0-0.6-0.1-1.3-0.6-3.7L276.3,328.6z M282.3,328.8c-0.2,1.6-0.7,3.1-0.9,3.8l-1.4-0.3c0.5-1.4,0.7-3,0.8-3.7L282.3,328.8z
		 M286.4,327.7h1.8v2h3.7v1.8h-7.7v4.5c0,3.7-0.5,6.5-1.9,8.6l-1.5-1.4c1.6-2.3,1.6-5.6,1.6-7.2v-6.2h4V327.7z M291.5,335.4v1.8
		h-2.6v5.1h3v1.8H284v-1.8h3.1v-5.1h-2.5v-1.8h2.5v-3.2h1.8v3.2H291.5z"/>
	<path class="st3" d="M300.5,336.2v8.1h-7v-8.1H300.5z M307.5,328.3v6.4h-12.3v-6.4H307.5z M295.2,337.8v4.8h3.6v-4.8H295.2z
		 M297,330v3.1h8.8V330H297z M309.2,336.2v8.1h-7.3v-8.1H309.2z M303.7,337.8v4.8h3.8v-4.8H303.7z"/>
	<path class="st3" d="M314.7,333.4c-1.4,0.9-2.2,1.2-3,1.5l-1.1-1.7c2.9-1,6.3-3.2,7.8-5.5h2.1c1.3,2.1,4.2,4.1,7.8,5.5l-1.2,1.8
		c-0.8-0.4-1.8-0.9-2.9-1.6v1h-9.6V333.4z M325.4,344.8c-0.2-0.4-0.3-0.6-0.7-1.2c-2.5,0.3-6.5,0.5-12.8,0.7l-0.3-1.9
		c0.4,0,2,0,2.6,0c0.5-0.9,1.4-2.8,1.7-4.2h-4.6v-1.7h16.2v1.7h-9.4c-0.6,1.5-1.3,3-1.9,4.1c3.4-0.1,3.7-0.1,7.3-0.3
		c-0.9-1.2-1.3-1.8-2.1-2.6l1.5-0.9c0.6,0.5,2.6,2.6,4.2,5.2L325.4,344.8z M323.2,332.6c-1.9-1.4-3.3-2.9-3.7-3.4
		c-0.7,0.9-1.7,2-3.7,3.4H323.2z"/>
	<path class="st3" d="M333.6,344.6h-1.9v-7c-1.1,1-1.6,1.3-2.2,1.7l-0.8-1.8c2.3-1.4,4.1-3.3,4.9-5.3H329v-1.8h2.7v-2.8h1.9v2.8h2.1
		v1.8c-0.3,0.7-0.7,1.6-1.8,3c0.9,1,1.4,1.4,2.5,2.2l-0.9,1.7c-0.8-0.7-1.3-1.2-1.9-1.9V344.6z M339.7,327.7h1.9v5.1h3.9v1.9h-3.9
		v7.4h4.3v1.9h-10.7v-1.9h4.5v-7.4h-3.8v-1.9h3.8V327.7z"/>
	<path class="st3" d="M347.4,342.7c2-3.4,2.8-7.7,3.1-9.1l-2.8,0v-1.9h3.1c0.2-1.1,0.2-1.9,0.3-3.3l2.1,0.2
		c-0.1,1.3-0.2,1.9-0.4,3.1h1.7c2.6,0,3.7,1.1,3.7,4.8c0,6.8-2.2,7.1-3.8,7.1c-0.9,0-1.5-0.1-2.1-0.2l-0.1-2
		c0.5,0.1,1.2,0.3,1.8,0.3c0.9,0,1.6-0.4,1.9-1.7c0.4-1.7,0.5-3.6,0.5-3.9c0-1.4-0.1-2.6-1.9-2.6l-2,0c-0.7,3.5-1.5,7-3.2,10.1
		L347.4,342.7z M360.3,338.8c-0.2-2.6-0.9-5.2-2.7-7.1l1.4-1c0.9,1,2.7,3,3.4,7.8L360.3,338.8z M360.3,328.3c1,1.1,1.6,2.2,2.2,3.2
		l-1.2,0.8c-0.7-1.4-1.2-2.1-2.1-3.3L360.3,328.3z M362.4,327.1c0.9,1,1.4,1.8,2.2,3.2l-1.2,0.8c-0.7-1.4-1.1-2.1-2.1-3.3
		L362.4,327.1z"/>
	<path class="st3" d="M380.5,336.3c-3.1,0.9-6.3,1.2-9.5,1.5c-0.3,0.6-0.3,0.7-0.4,0.9h9.7c-0.2,4.7-0.8,5.9-2.9,5.9H374l-0.4-1.9
		h3.7c0.9,0,0.9-0.5,1.1-2.3h-10.7c0.7-1,1.2-2.1,1.7-3.3c-1,0.5-1.8,0.8-3.9,1.5l-0.7-1.7c1.7-0.5,3.9-1.3,6.9-2.8h-6.7v-1.7h6.2
		v-1.6h-4.9v-1.7h4.9v-1.5h1.8v1.5h4v1.2c1-0.9,1.6-1.6,2.5-2.8l1.6,0.8c-0.4,0.6-1.5,2.1-3.9,4.1h4.7v1.7h-7
		c-0.3,0.2-1.6,1.1-3.1,1.8c-0.1,0.1-0.1,0.2-0.1,0.3c0.3,0,4.7-0.5,7.9-1.5L380.5,336.3z M374.4,332.4c0.6-0.4,1-0.7,2.1-1.6H373
		v1.6H374.4z"/>
	<path class="st3" d="M395.4,332.3v1.7c-1.4,1.1-2.6,2.1-3.8,3.2c0.3-0.1,0.5-0.1,0.8-0.1c1.6,0,1.6,1.5,1.6,2.4v0.7
		c0,1.3,0.1,1.7,2.6,1.7c0.8,0,1.7-0.1,2.3-0.1l0.1,2c-0.6,0-1.3,0.1-2.5,0.1c-2.1,0-4.3,0-4.3-2.7v-1.1c0-0.8,0-1.4-0.9-1.4
		c-0.6,0-1.3,0.4-1.9,0.8c-0.9,0.8-1.4,1.3-4.3,4.4l-1.4-1.5c0.3-0.3,2.8-2.6,3.4-3.2c3.6-3.3,4.1-3.8,5.3-4.8l-7.5,0.1v-1.9
		L395.4,332.3z M395.6,331.2c-1.5-0.4-4-1.1-8.4-1.2l0.2-1.7c1.9,0,5,0.1,8.6,1.1L395.6,331.2z"/>
	<path class="st3" d="M401.6,343.3c1.7-3.6,2.7-8.7,3-10.7H402v-1.9h2.8c0.1-1.2,0.1-1.5,0.2-2.3l2.1,0.1c-0.1,1.1-0.2,1.5-0.3,2.2
		h4.6v1.9h-4.9c-0.9,4.9-1.9,8.9-3,11.4L401.6,343.3z M410.3,338.8c-0.3,0.4-0.6,0.9-0.6,1.5c0,1.3,1.7,1.5,3.9,1.5
		c0.6,0,2.2,0,3.4-0.1l0,2c-1.1,0-2.3,0-3.4,0c-2.3,0-3.4-0.2-4.3-0.7c-0.8-0.4-1.4-1.3-1.4-2.4c0-1.1,0.6-2,0.9-2.5L410.3,338.8z
		 M416.6,335.2c-0.5,0-1-0.1-1.9-0.1c-2.2,0-3.6,0.3-4.8,0.8l-0.7-1.7c1.8-0.7,3.3-1.1,7.4-1V335.2z"/>
	<path class="st3" d="M433.5,338.5c0.3-0.3,0.3-0.3,0.5-0.5l1.4,1.2c-1.3,1.2-2.7,2.1-3.7,2.7c1.2,0.5,2.2,0.8,4,1.1l-0.8,1.8
		c-3.2-0.7-6.4-2-9.2-5.7H423v3.4c1.7-0.2,3.4-0.4,5-0.6l0.1,1.7c-1.5,0.3-3.1,0.5-8.7,1.1l-0.3-1.9c0.7,0,1.1,0,1.9-0.1v-9.4
		c-0.7,0.3-1,0.4-1.6,0.6l-1-1.8c3.5-0.8,6.2-2.7,7.8-4.3h2.3c2.1,2.4,4.3,3.6,7.6,4.4l-1,1.8c-0.9-0.3-1.2-0.4-1.7-0.6V338.5z
		 M431.7,333.8H423v1.1h8.7V333.8z M431.7,336.3H423v1.2h8.7V336.3z M431.6,332.3c-1.2-0.6-2.4-1.5-4.2-3.2c-1.8,1.7-3.9,3-4.4,3.2
		h3.4v-1.7h1.8v1.7H431.6z M427.8,339c0.7,0.8,1.2,1.3,2.3,2c1.5-0.9,2.5-1.7,2.8-2H427.8z"/>
	<path class="st3" d="M444.5,336.2v8.1h-7v-8.1H444.5z M451.5,328.3v6.4h-12.3v-6.4H451.5z M439.2,337.8v4.8h3.6v-4.8H439.2z
		 M441,330v3.1h8.8V330H441z M453.2,336.2v8.1h-7.3v-8.1H453.2z M447.7,337.8v4.8h3.8v-4.8H447.7z"/>
	<path class="st3" d="M459.9,344.8h-5V343h3.3v-15.1h1.7V344.8z"/>
	<path class="st3" d="M484.9,327.6h5v1.7h-3.3v15.1h-1.7V327.6z"/>
	<path class="st3" d="M507.4,328.3v1.8h-13.9v12.4h14.3v1.7h-16.2v-15.9H507.4z M506.6,335.6v1.7h-4.7c0.7,1.3,2.8,2.4,5.2,2.9
		l-1,1.7c-3.6-1-5-2.5-5.7-3.9c-1.1,2.3-3.4,3.3-5.2,3.9l-1-1.7c1-0.2,3.6-0.8,4.6-2.9h-4.5v-1.7h5c0.1-0.5,0.2-1,0.2-1.9h-2.6
		c-0.5,0.6-0.9,1-1.5,1.5l-1.5-1.2c0.5-0.4,2.2-1.7,2.8-3.6l1.9,0.3c-0.2,0.5-0.4,0.8-0.6,1.3h8.1v1.7h-4.8c0,0.8,0,1.2-0.1,1.9
		H506.6z"/>
	<path class="st3" d="M510.1,330.5c0.3,0.5,0.7,1.4,1,3.3l-1.5,0.7c-0.3-1.7-0.4-2.1-0.9-3.3L510.1,330.5z M514.4,337.2l-0.6,0.4
		l-0.8-1.2c-0.4,4.9-1.2,6.4-2.5,8.3l-1.5-1.1c0.8-1.1,1.6-2.3,2-5c-0.8,0.4-1.1,0.5-1.9,0.9l-0.4-1.8c1.4-0.4,1.7-0.5,2.5-0.8
		c0-0.5,0.1-1.3,0.1-1.6v-6h6.1v-1.4h1.9v1.4h6.6v1.6H513v4.4c0,0.4,0,0.6,0,0.9c0.3-0.1,0.6-0.3,1.3-0.7c-0.5-0.5-0.5-0.6-0.8-0.8
		l1-0.9c0.1,0.1,0.6,0.6,0.9,0.9c0.4-0.3,0.8-0.7,1.3-1.2h-3.2V332h4.1c0.2-0.3,0.3-0.6,0.4-1l1.8,0.2c-0.2,0.4-0.3,0.6-0.4,0.8h6.4
		v1.4h-3.9c0.3,0.4,0.7,0.9,1.4,1.4c0.6-0.6,0.8-0.9,1-1.2l1.2,0.7c-0.4,0.5-0.9,1-1.1,1.2c0.6,0.3,1,0.5,1.5,0.6l-0.8,1.4
		c-0.4-0.2-0.7-0.3-1.1-0.6v4h-4v2.4c0,1.1-0.7,1.2-1.2,1.2h-2.1l-0.3-1.6h1.6c0.3,0,0.4-0.1,0.4-0.3V341h-3.9V337.2z M516.8,342.3
		c-1.5,1.3-3,1.9-3.8,2.2l-0.9-1.5c2.2-0.6,3-1.3,3.4-1.7L516.8,342.3z M516.1,336.5v0.9h6.4v-0.9H516.1z M516.1,338.7v1.1h6.4v-1.1
		H516.1z M521.7,335.3c-0.9-0.8-1.3-1.4-1.7-1.9h-1.5c-0.7,1-1.4,1.6-1.7,1.9H521.7z M525.1,344.5c-0.4-0.2-2.2-0.9-3.8-2.2l1.2-1.2
		c0.9,0.8,1.8,1.3,3.6,1.9L525.1,344.5z"/>
	<path class="st3" d="M531.5,331.3c2.5,1.3,4.6,2.8,5.1,3.2c1.7-2.8,2.3-4.9,2.6-5.9l2.1,0.6c-0.6,1.7-1.5,3.8-3.2,6.5
		c1.6,1.3,2.2,1.9,3.9,3.5l-1.6,1.7c-1.7-1.9-3.3-3.3-3.5-3.5c-3,3.7-6.2,5.3-8,6.1l-1.2-1.7c1.7-0.8,5-2.2,7.7-5.7
		c-1.2-0.9-3-2.2-5.2-3.4L531.5,331.3z"/>
	<path class="st3" d="M561.1,335.1v2.1h-15.4v-2.1H561.1z"/>
	<path class="st3" d="M563.7,342.2c4.3-2.6,5-5.9,5.5-8.6h-4.8v-1.9h5c0.1-1.2,0.1-1.9,0.1-3.2l2.1,0c0,1.2-0.1,1.7-0.2,3.2h6.7v3
		c0,0.5,0,5.5-0.7,7.3c-0.7,1.6-2.4,1.6-3.2,1.6c-1.4,0-2.2-0.1-2.8-0.2l-0.1-2c0.8,0.1,1.6,0.3,2.6,0.3c1.2,0,1.5-0.4,1.7-1.1
		c0.3-1,0.4-3.8,0.4-5.5v-1.5h-4.9c-0.4,2.5-1.3,7.1-6.2,10.1L563.7,342.2z"/>
	<path class="st3" d="M597.1,335.1v2.1h-15.4v-2.1H597.1z"/>
	<path class="st3" d="M246.5,367.2v8.1h-7v-8.1H246.5z M253.5,359.3v6.4h-12.3v-6.4H253.5z M241.2,368.8v4.8h3.6v-4.8H241.2z
		 M243,361v3.1h8.8V361H243z M255.2,367.2v8.1h-7.3v-8.1H255.2z M249.7,368.8v4.8h3.8v-4.8H249.7z"/>
	<path class="st3" d="M272.1,365.2v7.8H269c1.9,0.8,3.1,1,4.8,1.1l-0.7,1.6c-0.8-0.1-3.1-0.2-5.5-1.6l0.9-1.1h-6.4l1,1.1
		c-1.9,0.9-3,1.2-5.5,1.5L257,374c2.2-0.2,3.5-0.5,4.8-1.1h-3.1v-7.6c-0.2,0.2-0.3,0.3-0.5,0.6l-1.3-1.2c0.4-0.5,1.3-1.5,1.3-3v-2.5
		c3.2,0,4.8-0.2,6.5-0.6l0.5,1.4c-1.1,0.2-2.3,0.5-5.3,0.5v0.8h5.4v1.3H263v2.2h-1.7v-2.2h-1.5c-0.1,0.6-0.2,1.5-0.9,2.6H272.1z
		 M270.3,366.6h-9.8v0.9h9.8V366.6z M270.3,368.5h-9.8v1h9.8V368.5z M270.3,370.5h-9.8v1h9.8V370.5z M267.8,361.3h6.1v1.3h-2.6v2.2
		h-1.7v-2.2h-2.1c-0.3,1.1-0.6,1.7-1.4,2.4l-1.3-1.2c0.6-0.5,1.3-1.1,1.3-2.7v-1.9c2.7,0,4.7-0.1,6.8-0.6l0.6,1.4
		c-1.5,0.4-4.2,0.6-5.7,0.6V361.3z"/>
	<path class="st3" d="M279.9,375.8h-5V374h3.3v-15.1h1.7V375.8z"/>
	<path class="st3" d="M302.5,361.6v1.9h-3.9c-0.7,3.3-1.7,6.3-3,9.2l-2.1-0.8c1.6-2.8,2.4-5.6,3-8.4h-2.8v-1.9h3.2
		c0.1-0.8,0.2-1.4,0.3-2.3l2.1,0.1c-0.2,1.1-0.2,1.5-0.3,2.2H302.5z M305.8,368.9c1.5,0.7,2.9,1.8,3.7,2.6l-1.2,1.8
		c-1-1.2-1.8-1.8-2.6-2.2v0.6c0,2.3-1.8,3.2-3.7,3.2c-2.8,0-4.1-1.5-4.1-3.3c0-1.5,1.2-3.4,4.3-3.4c0.8,0,1.3,0.1,1.6,0.2l-0.1-3.7
		h2L305.8,368.9z M303.9,370.1c-0.4-0.1-0.8-0.3-1.7-0.3c-1.6,0-2.4,0.7-2.4,1.7c0,0.3,0.1,1.6,2.3,1.6c1.4,0,1.8-0.7,1.8-1.9V370.1
		z M308.4,364.8c-1.9-1.1-3.1-1.7-4.9-2.4l0.8-1.7c1.9,0.6,3.1,1.2,5,2.3L308.4,364.8z"/>
	<path class="st3" d="M325.6,365.7c-0.8,0.1-10.8,1.1-10.8,4.9c0,1.9,2.1,2.1,5.5,2.1c3,0,4.9-0.2,5.9-0.3l0,2.1
		c-1.1,0.1-2.6,0.2-5.2,0.2c-3.1,0-8.3,0-8.3-4c0-3,3.5-4.6,4.8-5.1c-0.6-1.1-0.7-2.3-0.7-6h2.2c0,0.6,0,1.1,0,2
		c0,2,0.1,2.6,0.4,3.3c1.6-0.5,3.3-0.8,6-1.3L325.6,365.7z M323.4,358.7c0.7,1.1,1.2,2.2,1.6,3.5l-1.4,0.7c-0.4-1.5-0.8-2.3-1.5-3.6
		L323.4,358.7z M326.2,358.3c0.3,0.5,0.9,1.5,1.6,3.5l-1.4,0.6c-0.5-1.5-0.8-2.3-1.5-3.6L326.2,358.3z"/>
</g>
<g>
	<path class="st3" d="M242.8,445.4c-0.1,0.6-0.6,3.3-2.1,5.5l-1.9-1c0.5-0.6,1.4-1.9,2.1-5L242.8,445.4z M248.4,434.7v2h7.4v1.8
		h-7.4v2.6h6.4v1.8H240v-1.8h6.5v-2.6H239v-1.8h7.4v-2H248.4z M243.7,445.4h1.8v3.6c0,0.3,0,0.5,0.5,0.5h3.4c0.6,0,0.7-0.2,0.9-2.2
		l1.9,0.5c-0.4,3.1-0.9,3.5-2.3,3.5h-4.7c-0.9,0-1.4-0.5-1.4-1.3V445.4z M246.3,443.1c1.2,0.6,2.8,1.9,3.5,2.5l-1.3,1.5
		c-1-1-2.2-1.9-3.5-2.7L246.3,443.1z M253.4,444.6c1,1.4,2.1,3.4,2.8,5.4l-1.9,0.8c-0.7-2.3-2-4.5-2.6-5.3L253.4,444.6z"/>
	<path class="st3" d="M271.2,438.7h-11.5v13h-2v-14.7h5.3c0.3-0.7,0.6-1.5,0.8-2.4l2,0.4c-0.2,0.9-0.7,1.9-0.8,2.1h8V450
		c0,1.3-0.5,1.6-1.6,1.6h-2.8l-0.3-2h2.3c0.4,0,0.4-0.3,0.4-0.6V438.7z M269.6,440.8v7.5h-8.3v-7.5H269.6z M263,442.4v4.2h4.8v-4.2
		H263z"/>
	<path class="st3" d="M276.8,438.2c0,1.4-0.1,4.2-0.5,5.9l-1.5-0.7c0.5-1.3,0.6-4.1,0.6-5.2H276.8z M277.3,434.7h1.8v16.9h-1.8
		V434.7z M283.6,440.3c-0.4,1.2-0.9,2.3-1.6,3.2l-1.4-1.2c0.3-0.4,0.6-0.9,1.1-2.1l-1.3,0.7c-0.1-0.4-0.5-1.7-1.1-2.8l1.3-0.7
		c0.3,0.4,0.8,1.6,1.2,2.7c0.7-1.9,1-3.9,1-4.6l1.9,0.3c-0.1,0.7-0.2,1.6-0.5,2.8h1.7v-3.9h1.8v3.9h4v1.7h-4v3.3h3.6v1.7h-3.6v3.8
		h4.3v1.7h-11.5v-1.7h5.3v-3.8h-3.6v-1.7h3.6v-3.3H283.6z"/>
	<path class="st3" d="M299.3,451.1c-0.3-1.7-0.8-4.5-2.1-9.2c-1.4,0.5-2,0.8-2.9,1.3l-0.7-2c0.5-0.1,2.6-0.9,3.1-1.1
		c-0.4-1.5-0.7-2.4-1.2-3.5l2.1-0.5c0.2,0.6,0.4,1.1,1.1,3.4c1.2-0.4,2.7-0.9,3.2-1c-0.4-0.8-0.8-1.4-1.4-2.3l1.7-0.7
		c0.8,1,1.1,1.7,1.6,2.5c0.3-0.1,0.7-0.1,1.3-0.1c2.9,0,4.2,2.1,4.2,4.1c0,2.6-2,4.2-4.8,4.2c-1.2,0-2.2-0.3-2.5-0.4l0.1-1.9
		c0.5,0.2,1.1,0.5,2.3,0.5c1.5,0,3-0.8,3-2.4c0-1-0.6-2.2-2.4-2.2c-1.5,0-3.5,0.7-5.8,1.5c0.7,2.4,1.5,5.5,2.5,9.4L299.3,451.1z"/>
	<path class="st3" d="M313,443.4c0,1,0,1.5-0.1,2.3c0.2,0.3,0.4,0.7,0.8,1.4v-5.1h-2.9v-1.7h2.9v-1.9h-2.5v-1.7h2.5v-2h1.6v2h1.3
		v-1.4h6.9v1.1h3.9c0,1.2-0.1,4.7-1.2,7.8c0.7,1.4,1.3,1.9,1.8,2.4l-0.8,1.9c-0.5-0.5-1-1.2-1.7-2.4c-0.7,1.3-1.2,2-1.7,2.6
		l-1.2-1.3v1.5h-1.5v-1.9c-1.3,0.5-3.4,1.2-3.8,1.4l-0.5-1.7c0.3-0.1,0.8-0.2,1-0.2v-9.7H317v1.5h-1.5v1.9h1.8v1.7h-1.8v2.1h1.5v1.7
		h-1.5v2.9c1.3,0.7,2.6,0.7,3.1,0.7h9.5l-0.3,1.8h-8.9c-3.8,0-5.2-2-6-3.1c-0.3,2.1-0.7,3-1,3.5l-1.1-1.8c0.8-1.9,0.9-4.9,0.9-6.6
		L313,443.4z M319.3,436.9v1.8h1.8v-1.8H319.3z M319.3,440.3v1.9h1.8v-1.9H319.3z M321.1,443.7h-1.8v2.5c0.2-0.1,1.4-0.4,1.8-0.6
		V443.7z M324.7,438.8c0.1,0.8,0.3,1.7,0.7,3.2c0.5-1.6,0.5-3,0.6-3.8h-2.7v-1.3h-0.6v10.3c0.6-0.7,1.3-1.6,1.9-3
		c-0.4-1-0.9-2.5-1.3-5.2L324.7,438.8z"/>
	<path class="st3" d="M335.3,443.5v-1.7h4.2V439h-3.8v-1.8h3.8v-2.5h1.8v2.5h4.2v1.8h-4.2v2.7h4.6v1.7h-4.4c0.8,1.7,2.2,3.8,4.7,5.6
		l-1.1,1.8c-2-1.7-3.2-3.6-3.8-4.8v5.5h-1.8v-5.5c-0.3,0.5-1.7,3-4.1,4.8l-1.1-1.6h-4.8v-13.4h5.4v12.8c2-1.5,3.5-3.5,4.4-5.3H335.3
		z M333.1,437.6h-2v9.9h2V437.6z"/>
	<path class="st3" d="M348.8,438.2c0,1.4-0.1,4.2-0.5,5.9l-1.5-0.7c0.5-1.3,0.6-4.1,0.6-5.2H348.8z M349.3,434.7h1.8v16.9h-1.8
		V434.7z M355.6,440.3c-0.4,1.2-0.9,2.3-1.6,3.2l-1.4-1.2c0.3-0.4,0.6-0.9,1.1-2.1l-1.3,0.7c-0.1-0.4-0.5-1.7-1.1-2.8l1.3-0.7
		c0.3,0.4,0.8,1.6,1.2,2.7c0.7-1.9,1-3.9,1-4.6l1.9,0.3c-0.1,0.7-0.2,1.6-0.5,2.8h1.7v-3.9h1.8v3.9h4v1.7h-4v3.3h3.6v1.7h-3.6v3.8
		h4.3v1.7h-11.5v-1.7h5.3v-3.8h-3.6v-1.7h3.6v-3.3H355.6z"/>
	<path class="st3" d="M369.3,435.9c-0.3,1.3-0.8,3.7-0.8,8.2c0,2.1,0.1,4.3,0.5,6.4l-2.1,0.2c-0.2-1.1-0.4-2.8-0.4-6.2
		c0-2.9,0.2-5.8,0.7-8.7L369.3,435.9z M373.9,443.7c-0.5,0.8-0.9,1.6-0.9,2.3c0,1.5,1.8,1.7,3.5,1.7c1.4,0,2.9-0.1,4.2-0.2v2.1
		c-1,0.1-2.1,0.2-3.3,0.2c-3,0-6.2-0.3-6.2-3.5c0-0.6,0.1-1.7,0.9-3.1L373.9,443.7z M380.3,437.2v2h-8.6v-2H380.3z"/>
	<path class="st3" d="M398.4,436.7c-0.3,5.5-1.8,12-11.5,14l-0.8-1.9c8.1-1.5,9.6-6,10.1-10.1h-11.6v-2H398.4z"/>
	<path class="st3" d="M411.1,450.9h-1.9v-6.3c-2,1.3-3.6,2-5.4,2.6l-0.8-1.7c5.5-1.6,9.2-5.5,10.5-7.2l1.6,1.2
		c-1.2,1.4-2.5,2.6-4,3.8V450.9z"/>
	<path class="st3" d="M422.8,444.8c-0.3-1.7-0.8-3.1-1.4-4.4l1.7-0.5c0.8,1.6,1.3,3.3,1.5,4.5L422.8,444.8z M422.6,449.4
		c5.8-1.2,8-3.7,9.1-10l2,0.4c-1.1,5.4-3,9.4-9.8,11.1L422.6,449.4z M426.7,444c-0.2-1-0.5-2.5-1.2-4.4l1.6-0.4
		c0.6,1.3,1.1,3.1,1.3,4.3L426.7,444z"/>
	<path class="st3" d="M451.6,445.8c-1.2-0.8-3.7-2.4-7.6-3.8v8.8h-2.2v-15.4h2.2v4.4c4,1.3,7.1,3,8.6,3.8L451.6,445.8z"/>
	<path class="st3" d="M471,437.3v1.9h-4.7v3.6c0.1,0.5,0.3,1.3,0.3,2.4c0,5.1-4.8,5.6-7.5,5.7l-0.6-1.8c5.2,0.1,5.9-1.8,6.1-3.1
		c-0.4,0.9-1.2,1.4-2.5,1.4c-2.2,0-3.4-1.7-3.4-3.5c0-2.2,1.6-3.7,3.7-3.7c0.9,0,1.4,0.3,1.8,0.6l0-1.6h-8.6v-1.9h8.6l0-1.9h2.1v1.9
		H471z M464.4,443.3c-0.2-0.9-0.7-1.5-1.8-1.5c-1,0-2,0.6-2,2c0,1.2,0.8,2.1,1.8,2.1c1.2,0,1.9-0.8,1.9-1.9V443.3z"/>
	<path class="st3" d="M485.5,437.5c-1.4,1.1-3.2,2.4-4.7,3.7c0.7-0.2,1.6-0.5,2.7-0.5c2.5,0,4.9,1.4,4.9,4.6c0,3.5-3,5.5-6.5,5.5
		c-3.1,0-4.7-1.4-4.7-3.1c0-1.5,1.4-2.7,3.2-2.7c1.4,0,3.6,0.8,4.3,3.3c1.3-0.7,1.7-2,1.7-3c0-1.3-0.7-3-3.6-3
		c-3.1,0-5.3,1.8-7.8,4.1l-1.2-1.7c0.5-0.4,3.8-2.9,8.4-7c-2.1,0.2-3.5,0.2-6.5,0.3v-2c4.2,0,5.9,0,9.8-0.2V437.5z M480.3,446.6
		c-1,0-1.4,0.6-1.4,1c0,0.8,0.9,1.6,2.8,1.6c0.4,0,0.9-0.1,1.3-0.1C482.6,447.7,481.8,446.6,480.3,446.6z"/>
	<path class="st3" d="M494.8,451c-1-1.5-2.1-2.8-3.2-4l1.7-1.2c1.2,1.1,2.7,2.8,3.4,3.8L494.8,451z"/>
	<path class="st3" d="M512.2,451.7h-1.8v-8.4c-0.3,0.5-0.5,0.6-0.8,1.1l-0.8-2.2c1.1-1.4,2.1-3.2,2.6-7.4l1.9,0.2
		c-0.2,1.8-0.5,3-1,4.7V451.7z M525.8,437h-3.9v3h3.4v11.2h-11.6v-11.2h3.3v-3h-3.5v-1.7h12.4V437z M517,441.7h-1.6v7.8h1.6V441.7z
		 M520.2,437h-1.6v3h1.6V437z M520.2,441.7h-1.6v7.8h1.6V441.7z M523.5,441.7h-1.6v7.8h1.6V441.7z"/>
	<path class="st3" d="M532.7,446.2c-0.4-0.7-1-1.5-1.4-2.7v8.1h-1.7v-8.5c-0.8,2.5-1.8,4-2.2,4.6l-0.7-2.4c1.5-2,2.2-3.5,2.8-5.6
		H527V438h2.6v-3.3h1.7v3.3h1.8v1.7h-1.8v1c0.7,1.9,2,3.5,2.4,4L532.7,446.2z M543.1,437.8c-0.8,1.3-1.5,2.1-2.8,3.2
		c1,0.6,1.9,1,3.8,1.6l-0.8,1.8c-2.1-0.8-3.2-1.4-4.5-2.2c-1.2,0.8-2.5,1.6-4.8,2.4l-0.8-1.6c1.3-0.3,2.4-0.7,4.3-1.9
		c-0.5-0.4-1.5-1.2-2-2.1c-0.6,0.4-0.8,0.6-1.2,0.9l-1-1.5c1.4-0.8,2.6-1.9,3.5-3.5l1.9,0.3c-0.2,0.5-0.3,0.7-0.6,1.2h5.1V437.8z
		 M542.8,451.3h-8.4v-6.8h8.4V451.3z M541,446.2h-4.8v3.4h4.8V446.2z M536.7,437.8L536.7,437.8c0.7,1.1,1.6,1.8,2.1,2.2
		c1.2-0.9,1.6-1.4,2.1-2.2H536.7z"/>
	<path class="st3" d="M547,445.5c0,1.1-0.2,3.4-0.6,5l-1.6-0.5c0.3-0.7,0.6-1.8,0.7-4.6L547,445.5z M544.8,442.5c0.4,0,0.7,0,1.3,0
		c0.3-0.5,0.7-1,1.1-1.4c-0.4-0.5-1.5-1.6-2.5-2.4l0.9-1.5c0.2,0.2,0.3,0.2,0.6,0.5c0.2-0.3,1-1.5,1.6-3.1l1.6,0.6
		c-0.8,1.8-1.8,3.2-2.1,3.5c0.5,0.5,0.6,0.7,0.8,0.8c0.9-1.3,1.4-2.3,1.8-3l1.7,0.7c-1.7,2.8-3.3,4.8-3.5,5.1c0.3,0,1.5-0.1,1.8-0.1
		c-0.2-0.5-0.3-0.8-0.5-1l1.4-0.5c0.6,1,1,2.1,1.2,2.7v-6.1h3.6v-2.7h1.7v2.7h3.8v12.9c0,1.2-0.6,1.4-1.3,1.4h-2.7l-0.5-1.9h2.2
		c0.6,0,0.6-0.2,0.6-0.6v-2.7l-1.1,1.2c-1.2-2.1-1.6-4.4-1.8-5.4c-0.3,2.7-0.9,4.1-1.6,5.4l-1.2-1.1v5.1h-1.7V444l-1.4,0.6
		c-0.1-0.3-0.1-0.4-0.2-0.7c-0.4,0.1-0.8,0.1-1.3,0.1v7.7h-1.7v-7.5c-0.6,0-1.4,0.1-2.8,0.1L544.8,442.5z M551.2,445.2
		c0.3,1.6,0.4,3.5,0.4,3.9l-1.4,0.4c0-1.1-0.1-2.8-0.3-4.1L551.2,445.2z M553.9,439.1v6.9c0.9-1.2,1.7-3.5,1.9-6.9H553.9z
		 M559.6,439.1h-2c0.1,4,1.5,6.1,2,6.8V439.1z"/>
	<path class="st3" d="M562.6,438.5c1-0.6,2.4-1.8,3.3-3.9l1.6,0.7c-1.1,2.3-2.8,4.1-4.2,5L562.6,438.5z M567.9,439.5
		c-0.2,0.5-0.5,1.5-1.5,3v9.1h-1.8v-6.8c-0.6,0.5-0.8,0.7-1,0.9l-0.7-2c1.8-1.3,2.9-3.5,3.5-4.8L567.9,439.5z M579.5,442.6v1.5h-1.9
		v1h2.3v1.6h-2.3v3.3c0,1-0.2,1.6-1.6,1.6h-2.5l-0.3-1.8h2.1c0.5,0,0.5-0.2,0.5-0.6v-2.5h-8.4v-1.6h8.4v-1h-7.8v-1.5H579.5z
		 M578.8,435.3v6.4h-10.1v-6.4H578.8z M570.8,450.7c-0.5-0.7-1.5-2-2.2-2.8l1.5-1c1,1.1,1.5,1.6,2.2,2.7L570.8,450.7z M570.3,436.8
		v1.1h6.7v-1.1H570.3z M570.3,439.2v1.1h6.7v-1.1H570.3z"/>
	<path class="st3" d="M240.8,469.2c0,1.4-0.1,4.2-0.5,5.9l-1.5-0.7c0.5-1.3,0.6-4.1,0.6-5.2H240.8z M241.3,465.7h1.8v16.9h-1.8
		V465.7z M247.6,471.3c-0.4,1.2-0.9,2.3-1.6,3.2l-1.4-1.2c0.3-0.4,0.6-0.9,1.1-2.1l-1.3,0.7c-0.1-0.4-0.5-1.7-1.1-2.8l1.3-0.7
		c0.3,0.4,0.8,1.6,1.2,2.7c0.7-1.9,1-3.9,1-4.6l1.9,0.3c-0.1,0.7-0.2,1.6-0.5,2.8h1.7v-3.9h1.8v3.9h4v1.7h-4v3.3h3.6v1.7h-3.6v3.8
		h4.3v1.7h-11.5v-1.7h5.3v-3.8h-3.6v-1.7h3.6v-3.3H247.6z"/>
	<path class="st3" d="M265.3,479.7c1.9-0.2,5.9-0.8,5.9-5.7c0-2-0.8-5-4.9-5.2c-0.6,8-3,11.3-5.4,11.3c-2.1,0-3.4-2.4-3.4-5.2
		c0-5.1,3.7-8.1,8.4-8.1c5.6,0,7.5,3.7,7.5,7.1c0,6.8-6.1,7.4-7.4,7.5L265.3,479.7z M259.4,475.1c0,1,0.4,3,1.5,3
		c0.7,0,1.2-0.6,1.6-1.4c1.2-2.2,1.6-5,1.8-7.7C261.1,469.6,259.4,472.2,259.4,475.1z"/>
	<path class="st3" d="M281.9,471.6c0.6-0.1,1.2-0.2,2.4-0.2c4.7,0,6.7,2.5,6.7,5.3c0,4.6-5,5-6.6,5.1l-0.5-1.8
		c1.8-0.1,5.1-0.4,5.1-3.5c0-2.3-1.7-2.8-2.9-3.2c-1.3,5.2-4.6,7.6-7.2,7.6c-1.9,0-3.1-1.4-3.1-3.4c0-2.8,2.1-4.6,4.2-5.4
		c0-0.8,0-1.4,0-2V470h-3.6v-1.8h3.6l0-1.7l2,0l0,1.7h8.4v1.8H282L281.9,471.6z M280.1,474c-1.2,0.6-2.5,1.8-2.5,3.4
		c0,0.8,0.3,1.7,1.4,1.7c0.9,0,1.5-0.4,1.9-0.6C280.5,477.1,280.2,475.2,280.1,474z M284.4,473.1c-1.1,0-1.7,0.1-2.4,0.3
		c0.1,1.3,0.2,2.5,0.5,3.8C283.4,476,283.9,474.4,284.4,473.1z"/>
	<path class="st3" d="M305.5,468.5c-1.4,1.1-3.2,2.4-4.7,3.7c0.7-0.2,1.6-0.5,2.7-0.5c2.5,0,4.9,1.4,4.9,4.6c0,3.5-3,5.5-6.5,5.5
		c-3.1,0-4.7-1.4-4.7-3.1c0-1.5,1.4-2.7,3.2-2.7c1.4,0,3.6,0.8,4.3,3.3c1.3-0.7,1.7-2,1.7-3c0-1.3-0.7-3-3.6-3
		c-3.1,0-5.3,1.8-7.8,4.1l-1.2-1.7c0.5-0.4,3.8-2.9,8.4-7c-2.1,0.2-3.5,0.2-6.5,0.3v-2c4.2,0,5.9,0,9.8-0.2V468.5z M300.3,477.6
		c-1,0-1.4,0.6-1.4,1c0,0.8,0.9,1.6,2.8,1.6c0.4,0,0.9-0.1,1.3-0.1C302.6,478.7,301.8,477.6,300.3,477.6z"/>
	<path class="st3" d="M327,482.8c-3.2-1.2-6.2-4.3-7.6-8.2c-0.3,0.4-1.2,1.3-2.7,2.4v3.4c1.4-0.2,2.8-0.5,4.7-1v1.6
		c-2.1,0.5-7,1.4-9.1,1.6l-0.4-1.7c0.9-0.1,1.9-0.2,3-0.3V478c-0.7,0.3-1.6,0.8-3.5,1.4l-0.7-1.8c3.9-0.9,6-2.8,6.5-3.3h-6.2v-1.6
		h7.6v-1.3h-6.3V470h6.3v-1.2h-7.2v-1.6h7.2v-1.5h1.8v1.5h7.1v1.6h-7.1v1.2h6.2v1.5h-6.2v1.3h7.5v1.6h-6.7c0.2,0.5,0.5,1.4,1.4,2.6
		c0.3-0.2,1.6-1,3-2.4l1.3,1.3c-1.2,1-2.5,2-3.2,2.4c1.9,1.9,3.6,2.5,4.3,2.8L327,482.8z"/>
	<path class="st3" d="M328.7,479.1c0.5-0.1,1-0.2,2.1-0.6v-4.4h-1.7v-1.8h1.7v-3.9h-1.9v-1.8h5.7v1.8h-2v3.9h1.7v1.8h-1.7v3.8
		c1.1-0.4,1.5-0.6,2-0.8l0.4,1.7c-1.6,0.8-4.1,1.6-5.9,2.1L328.7,479.1z M335.4,466.3h10v10.3h-3.1v3.4c0,0.5,0.1,0.7,0.6,0.7h0.9
		c0.3,0,0.4-0.1,0.4-0.5c0.1-0.5,0.1-1.6,0.1-2l1.7,0.3c-0.1,2.7-0.3,4-1.5,4h-2.6c-0.8,0-1.5-0.1-1.5-1.6v-4.3h-1.2
		c-0.8,3.8-2.7,5.1-5.7,6.1l-0.9-1.8c4.2-1.1,4.6-3.5,4.8-4.3h-2V466.3z M337.2,467.9v1.4h6.3v-1.4H337.2z M337.2,470.8v1.4h6.3
		v-1.4H337.2z M337.2,473.6v1.4h6.3v-1.4H337.2z"/>
</g>
<g>
	<path class="st3" d="M250.9,539.6h5v1.7h-3.3v15.1h-1.7V539.6z"/>
	<path class="st3" d="M273.6,547.9c-1.8,2.3-4.4,2.3-4.7,2.3c-1.5,0-2.4-0.5-3.9-1.3c-1.6-0.9-2.3-1.1-3.2-1.1c-0.5,0-2.2,0-3.5,1.8
		l-1.2-1.1c1.9-2.3,4.2-2.3,4.7-2.3c1.6,0,2.7,0.6,3.9,1.3c1.3,0.7,2,1.1,3.1,1.1c2,0,3.1-1.3,3.5-1.8L273.6,547.9z"/>
	<path class="st3" d="M280,543.4c-0.3,1.1-0.5,2.1-0.5,4.6c1.8-1.3,3.7-2,5.9-2c4.2,0,5,2.8,5,4.3c0,3.9-3.2,5.3-8.2,5.3
		c-1.7,0-2.7-0.1-3.4-0.2l-0.2-1.9c0.8,0.1,1.9,0.3,3.5,0.3c4.6,0,6.2-1.4,6.2-3.5c0-1.2-0.8-2.4-3-2.4c-2.2,0-4.5,1-5.7,2.4
		c0,0.2,0,0.3-0.1,0.4l-2-0.1c0.1-4.8,0.1-5.5,0.5-7.4L280,543.4z M287.5,543.6c-1.8-0.7-4.2-1.2-7.4-1.4l0.4-1.9
		c4.3,0.2,6.4,0.8,7.6,1.1L287.5,543.6z"/>
	<path class="st3" d="M298.3,540.7c-0.2,3.8-0.3,7.8-0.3,8.8c0,2.2,0.2,4.3,3.3,4.3c4.5,0,5-3.3,5.5-5.8l1.9,0.8c-0.6,3.3-2,7-7.4,7
		c-4.9,0-5.4-3.1-5.4-6.3c0-1.4,0.1-7.5,0.1-8.8L298.3,540.7z"/>
	<path class="st3" d="M322.9,550.7c-1.4-1.6-2.3-3.6-3.1-5.5c-0.7,0-2.1,0-2.2,0l-5.5,0v-1.9l5.6,0.1c0.7,0,1.1,0,1.5,0
		c-0.3-0.9-0.5-1.8-0.7-2.8l2.1-0.2c0.1,0.7,0.4,2,0.6,2.9c2.3-0.1,3.8-0.3,5.2-0.7l0.4,1.9c-1.8,0.4-2.9,0.5-4.9,0.6
		c0.7,1.6,1.6,3.2,2.8,4.5L322.9,550.7z M316.6,549.4c-0.4,0.2-1.8,0.9-1.8,2.2c0,2.1,3,2.1,5.1,2.1c2.4,0,3.6-0.1,4.8-0.3v2
		c-0.7,0.1-2.1,0.2-4.6,0.2c-3.1,0-5-0.3-6.3-1.5c-0.8-0.7-1.1-1.6-1.1-2.5c0-1.6,1.1-2.8,2.8-3.6L316.6,549.4z"/>
	<path class="st3" d="M333.9,556.8h-5V555h3.3v-15.1h1.7V556.8z"/>
	<path class="st3" d="M362.5,548.3c-3.1,0.9-6.3,1.2-9.5,1.5c-0.3,0.6-0.3,0.7-0.4,0.9h9.7c-0.2,4.7-0.8,5.9-2.9,5.9H356l-0.4-1.9
		h3.7c0.9,0,0.9-0.5,1.1-2.3h-10.7c0.7-1,1.2-2.1,1.7-3.3c-1,0.5-1.8,0.8-3.9,1.5l-0.7-1.7c1.7-0.5,3.9-1.3,6.9-2.8h-6.7v-1.7h6.2
		v-1.6h-4.9v-1.7h4.9v-1.5h1.8v1.5h4v1.2c1-0.9,1.6-1.6,2.5-2.8l1.6,0.8c-0.4,0.6-1.5,2.1-3.9,4.1h4.7v1.7h-7
		c-0.3,0.2-1.6,1.1-3.1,1.8c-0.1,0.1-0.1,0.2-0.1,0.3c0.3,0,4.7-0.5,7.9-1.5L362.5,548.3z M356.4,544.4c0.6-0.4,1-0.7,2.1-1.6H355
		v1.6H356.4z"/>
	<path class="st3" d="M372,544.4v-0.9h-4v6.5c0,4.1-1.4,6.2-2,7l-1.4-1.4c1.4-2.1,1.5-4.1,1.5-5.6v-7.7h5.8v-2.5h1.8v0.7h6.7v1.2
		h-6.7v0.6h7.8c0,0.6,0,1.6-0.3,3l-1.5-0.2c-0.1,0.9-0.3,1.9-1.3,1.9H373c-0.8,0-1-0.5-1-1.1v-0.5l-3.1,0.2l0-0.9L372,544.4z
		 M370.5,553.3c-0.4,1.4-1.1,2.6-2,3.4l-1.3-1.1c0.8-0.9,1.3-1.6,1.8-2.9L370.5,553.3z M373.6,552.1h-4.9v-4.7h12v4.7h-6.6
		c0.7,0.4,0.9,0.6,1.7,1.2l-1.1,1.3c-0.7-0.6-1.1-0.9-2.1-1.5L373.6,552.1z M370.4,548.5v0.8h3.4v-0.8H370.4z M370.4,550.2v0.9h3.4
		v-0.9H370.4z M370.9,553.5h1.7v1.2c0,0.4,0.2,0.4,0.4,0.4h3.2c0.3,0,0.4-0.2,0.6-1.3l1.6,0.5c-0.3,1.9-0.8,2.2-1.4,2.2H372
		c-0.8,0-1.1-0.3-1.1-1V553.5z M377.6,544.1l0,0.9l-3.9,0.2c0,0.3,0,0.5,0.4,0.5h3.7c0.4,0,0.4-0.1,0.6-1.2l1.4,0.2
		c0.2-0.6,0.2-1,0.2-1.3h-6.3v0.8L377.6,544.1z M375.4,548.5v0.8h3.7v-0.8H375.4z M375.4,550.2v0.9h3.7v-0.9H375.4z M379.6,552.5
		c0.6,0.6,1.3,1.4,2.3,3l-1.5,0.9c-0.3-0.5-1-1.8-2.2-3.1L379.6,552.5z"/>
	<path class="st3" d="M386.8,556c-1-1.5-2.1-2.8-3.2-4l1.7-1.2c1.2,1.1,2.7,2.8,3.4,3.8L386.8,556z"/>
	<path class="st3" d="M400.5,547.3c2.3-2.4,3-4.5,3.6-7.5l1.8,0.1c-0.1,0.6-0.2,1.2-0.4,2.1h5.1c-0.6,6.5-2.7,10.9-8.5,14.8
		l-1.3-1.6c3.1-2,4.6-3.6,5.5-5c-1-1.3-1.9-2.2-3.1-3.1c-0.6,0.9-1,1.3-1.4,1.7L400.5,547.3z M404.9,543.7c-0.1,0.4-0.4,1-0.8,1.8
		c1.2,0.8,1.4,1.1,3.2,3c0.9-1.8,1.2-3.5,1.4-4.8H404.9z M411.8,544.5c0.3,0.5,0.6,1.1,1.4,1.9v-6.7h1.9v8.4
		c1.3,0.9,2.3,1.4,3.1,1.7l-0.6,2.1c-0.6-0.3-1.4-0.7-2.5-1.4v6.1h-1.9v-7.7c-1.7-1.6-2.4-2.8-2.8-3.4L411.8,544.5z"/>
	<path class="st3" d="M424.3,540.7c-0.2,3.8-0.3,7.8-0.3,8.8c0,2.2,0.2,4.3,3.3,4.3c4.5,0,5-3.3,5.5-5.8l1.9,0.8c-0.6,3.3-2,7-7.4,7
		c-4.9,0-5.4-3.1-5.4-6.3c0-1.4,0.1-7.5,0.1-8.8L424.3,540.7z"/>
	<path class="st3" d="M453,542.3v1.9h-4.7v3.6c0.1,0.5,0.3,1.3,0.3,2.4c0,5.1-4.8,5.6-7.5,5.7l-0.6-1.8c5.2,0.1,5.9-1.8,6.1-3.1
		c-0.4,0.9-1.2,1.4-2.5,1.4c-2.2,0-3.4-1.7-3.4-3.5c0-2.2,1.6-3.7,3.7-3.7c0.9,0,1.4,0.3,1.8,0.6l0-1.6h-8.6v-1.9h8.6l0-1.9h2.1v1.9
		H453z M446.4,548.3c-0.2-0.9-0.7-1.5-1.8-1.5c-1,0-2,0.6-2,2c0,1.2,0.8,2.1,1.8,2.1c1.2,0,1.9-0.8,1.9-1.9V548.3z"/>
	<path class="st3" d="M470.8,547.4c-1.5,0.3-2.9,0.4-4.6,0.5c0.5,0.9,1,1.7,1.8,2.7l-1.8,1.2c-0.9-1.1-1.6-2.4-2.2-3.7
		c-0.7,0-1.2,0-1.7,0l-6.3,0v-1.7l6,0h1.5c-0.2-0.6-0.3-1-0.5-1.9h-6.3v-1.8h4.8c0.7,0,0.8,0,1.2,0c-0.1-0.8-0.2-1.4-0.2-2.1l2.1,0
		c0.1,1.2,0.1,1.5,0.2,2.1c1.6-0.1,2.1-0.1,2.9-0.3l0.3,1.8c-1.1,0.1-1.7,0.2-2.9,0.3c0.1,0.7,0.3,1.3,0.5,1.9
		c1.4-0.1,3.3-0.2,5.1-0.6L470.8,547.4z M460.3,550.5c-0.4,0.4-0.8,0.9-0.8,1.5c0,1.5,2.5,1.8,5.2,1.8c2.1,0,3.5-0.1,4.4-0.2l0.1,2
		c-0.9,0.1-1.6,0.1-3.7,0.1c-3.4,0-4.8-0.2-5.9-0.7c-0.9-0.4-2-1.3-2-2.7c0-0.6,0.1-1.4,1.3-2.7L460.3,550.5z M468.3,540
		c0.8,1.1,1.3,2.1,1.8,3.4l-1.3,0.7c-0.5-1.4-0.9-2.2-1.7-3.5L468.3,540z M470.7,539.1c0.8,1.1,1.2,2.1,1.8,3.4l-1.3,0.7
		c-0.5-1.4-0.9-2.2-1.7-3.5L470.7,539.1z"/>
	<path class="st3" d="M485.5,542.5c-1.4,1.1-3.2,2.4-4.7,3.7c0.7-0.2,1.6-0.5,2.7-0.5c2.5,0,4.9,1.4,4.9,4.6c0,3.5-3,5.5-6.5,5.5
		c-3.1,0-4.7-1.4-4.7-3.1c0-1.5,1.4-2.7,3.2-2.7c1.4,0,3.6,0.8,4.3,3.3c1.3-0.7,1.7-2,1.7-3c0-1.3-0.7-3-3.6-3
		c-3.1,0-5.3,1.8-7.8,4.1l-1.2-1.7c0.5-0.4,3.8-2.9,8.4-7c-2.1,0.2-3.5,0.2-6.5,0.3v-2c4.2,0,5.9,0,9.8-0.2V542.5z M480.3,551.6
		c-1,0-1.4,0.6-1.4,1c0,0.8,0.9,1.6,2.8,1.6c0.4,0,0.9-0.1,1.3-0.1C482.6,552.7,481.8,551.6,480.3,551.6z"/>
	<path class="st3" d="M505.6,546.7c-0.8,0.1-10.8,1.1-10.8,4.9c0,1.9,2.1,2.1,5.5,2.1c3,0,4.9-0.2,5.9-0.3l0,2.1
		c-1.1,0.1-2.6,0.2-5.2,0.2c-3.1,0-8.3,0-8.3-4c0-3,3.5-4.6,4.8-5.1c-0.6-1.1-0.7-2.3-0.7-6h2.2c0,0.6,0,1.1,0,2
		c0,1.9,0.1,2.6,0.4,3.3c1.8-0.5,3.3-0.8,6-1.3L505.6,546.7z"/>
	<path class="st3" d="M509,546.6h3.7v5.1c0.2,0.7,0.3,1.4,1.5,2c1.1,0.6,2.1,0.6,3.3,0.6h8.6l-0.4,1.7H517c-1.8,0-3.7-0.5-4.7-2.1
		c-0.7,1-1.6,1.8-2.6,2.5l-1-1.9c0.6-0.3,1.7-1,2.1-1.6v-4.6H509V546.6z M510.6,540c1.3,1.2,2.2,2.5,2.7,3.2l-1.5,1.2
		c-0.8-1.3-2.1-2.6-2.6-3.2L510.6,540z M513.2,540.2h5.4v3.3h-3.5v0.8c0,0.3,0.1,0.3,0.4,0.3h1.5c0.5,0,0.5-0.1,0.6-0.8l1.6,0.2
		c-0.2,1.6-0.5,1.9-1.2,1.9h-3.3c-1.3,0-1.3-0.9-1.3-1.2v-2.4h3.5v-0.8h-3.8V540.2z M513.9,552.5c1.5-0.4,2.4-0.8,3.2-1.2h-3.9v-1.5
		h3v-1.3h-2.5V547h2.5v-0.7h1.7v0.7h3v-0.7h1.8v0.7h2.6v1.5h-2.6v1.3h3v1.5h-3.5c1.7,0.8,2.1,1,3.5,1.4l-1,1.4
		c-1.5-0.5-2.6-1-4.1-1.9l1.2-0.9h-4.8l1.4,0.9c-1.1,0.8-2.6,1.4-3.5,1.8L513.9,552.5z M518,548.5v1.3h3v-1.3H518z M523.4,541.5
		h-3.9v-1.3h5.6v3.3h-3.9v0.7c0,0.3,0.2,0.3,0.5,0.3h2c0.4,0,0.4-0.1,0.5-0.8l1.7,0.2c-0.1,1.2-0.4,1.9-1.2,1.9h-3.5
		c-0.4,0-1.5,0-1.5-1.1v-2.5h3.8V541.5z"/>
	<path class="st3" d="M526.8,549.4c0.5-0.1,1-0.3,2.6-0.7v-4.2h-2.5v-1.7h2.5v-3.1h1.8v3.1h1.9v1.7h-1.9v3.6c1.1-0.3,1.5-0.5,2-0.7
		l0.1,1.7c-0.5,0.2-0.8,0.4-2.1,0.8v5.1c0,0.8-0.3,1.5-1.6,1.5h-2.4l-0.3-1.8h1.9c0.5,0,0.5,0,0.5-0.4v-3.8
		c-0.4,0.1-2.1,0.7-2.3,0.7L526.8,549.4z M543.3,540.5v7.5H540c0.3,3.8,2.8,5.8,4.1,6.8l-1.1,1.8c-2.5-2.1-4.3-4.5-4.7-8.6h-2.6
		c-0.2,5.3-1.6,7.4-2.7,8.7l-1.5-1.4c2.3-2.2,2.5-5.7,2.5-7.3v-7.4H543.3z M535.7,542.2v4.1h5.8v-4.1H535.7z"/>
	<path class="st3" d="M545.6,554.8c1.2-2.2,2.3-5.5,3.1-9.3l-2.7,0v-1.9h3c0.2-1,0.3-1.9,0.4-3.2l2.1,0.1c-0.2,1.4-0.3,1.9-0.5,3.1
		h1.8c2.4,0,3.9,0.8,3.9,4.9c0,1.5-0.3,4-0.9,5.4c-0.6,1.4-1.7,1.8-3.2,1.8c-1,0-1.8-0.1-2.1-0.1l-0.1-2c0.4,0.1,1.1,0.2,1.9,0.2
		c1.2,0,1.6-0.5,1.9-1.5c0.3-1,0.5-2.5,0.5-3.9c0-2.5-0.7-2.8-2.7-2.8l-1.4,0c-0.6,3.2-1.6,7.1-3.1,10.2L545.6,554.8z M559.3,550.2
		c-0.1-1.5-0.4-4.6-2.4-7.2l1.7-0.9c0.6,0.7,2.4,2.7,2.8,7.7L559.3,550.2z"/>
	<path class="st3" d="M568,543.4c-0.3,1.1-0.5,2.1-0.5,4.6c1.8-1.3,3.7-2,5.9-2c4.2,0,5,2.8,5,4.3c0,3.9-3.2,5.3-8.2,5.3
		c-1.7,0-2.7-0.1-3.4-0.2l-0.2-1.9c0.8,0.1,1.9,0.3,3.5,0.3c4.6,0,6.2-1.4,6.2-3.5c0-1.2-0.8-2.4-3-2.4c-2.2,0-4.5,1-5.7,2.4
		c0,0.2,0,0.3-0.1,0.4l-2-0.1c0.1-4.8,0.1-5.5,0.5-7.4L568,543.4z M575.5,543.6c-1.8-0.7-4.2-1.2-7.4-1.4l0.4-1.9
		c4.3,0.2,6.4,0.8,7.6,1.1L575.5,543.6z"/>
	<path class="st3" d="M242.6,581.3c-0.2,0.8-1.4,4.4-2.5,6.1l-1.5-1.5c1.1-1.7,2.2-4.8,2.4-5.5L242.6,581.3z M239.6,575.7
		c0.6,0.3,2,1,2.8,1.7l-1.2,1.5c-0.6-0.5-1.8-1.3-2.6-1.8L239.6,575.7z M240.4,570.9c0.9,0.4,1.7,0.8,2.8,1.7l-1.2,1.6
		c-0.8-0.7-2.1-1.4-2.7-1.8L240.4,570.9z M245.1,576.4h10.8v1.5h-4.7v1h4.1v7.3c0,0.9-0.5,1.3-1.2,1.3H252l-0.3-1.7h1.6
		c0.3,0,0.3-0.1,0.3-0.4v-1.4l-0.7,1c-0.7-0.6-1.2-1-1.7-1.4v3.6h-1.5v-3.1l-0.8,0.9c-0.3-0.3-0.9-0.8-1.7-1.3v3.6h-1.6V579h4.1v-1
		h-4.5v1c0,5.3-1.4,7.7-2,8.8l-1.5-1.3c0.6-0.9,1.8-2.9,1.8-7.6v-7.4h11.9v4.1h-10.2V576.4z M245.1,572.7v1.3h8.4v-1.3H245.1z
		 M249.6,582l-0.8,0.9c-0.5-0.5-1.3-1.1-1.5-1.2l0.7-0.9C248.6,581.2,249.3,581.7,249.6,582v-1.7h-2.5v3.6l0.6-0.9
		c0.7,0.4,1.4,0.9,1.9,1.2V582z M253.6,582l-0.7,0.9c-0.3-0.3-1.1-0.9-1.6-1.3l0.7-0.9C252.5,581.1,252.9,581.4,253.6,582v-1.6h-2.4
		v3.5l0.7-0.9c0.8,0.5,1.2,0.8,1.8,1.2V582z"/>
	<path class="st3" d="M257.4,582.2c1.9-1.7,2.9-3.4,3.6-4.8v-1.3l-3.1,0.1v-1.9h3.1v-2.7h2.1c-0.1,1.3-0.1,3.3-0.1,4
		c0.7-0.7,2.8-2.8,5.4-2.8c1.3,0,2.7,0.8,2.7,3.1c0,0.2,0,0.5,0,1l-0.1,2.7c0,0.5-0.1,2.3-0.1,2.7c0,1.3,0,2.1,2.6,2l-0.5,2
		c-3.8-0.1-4.2-1.3-4.2-3.7c0-1.2,0.1-2.6,0.1-3l0.1-2.6c0-0.8,0.1-2.1-1.2-2.1c-1.9,0-4,2.2-4.9,3.3c0,1.1,0,4.2,0,5
		c0,1.4,0,2.8,0,3.7h-2c0-0.8,0.1-5.1,0.1-6c-0.6,1-1.1,2-2.4,3.5L257.4,582.2z"/>
	<path class="st3" d="M287.5,573.5c-1.4,1.1-3.2,2.4-4.7,3.7c0.7-0.2,1.6-0.5,2.7-0.5c2.5,0,4.9,1.4,4.9,4.6c0,3.5-3,5.5-6.5,5.5
		c-3.1,0-4.7-1.4-4.7-3.1c0-1.5,1.4-2.7,3.2-2.7c1.4,0,3.6,0.8,4.3,3.3c1.3-0.7,1.7-2,1.7-3c0-1.3-0.7-3-3.6-3
		c-3.1,0-5.3,1.8-7.8,4.1l-1.2-1.7c0.5-0.4,3.8-2.9,8.4-7c-2.1,0.2-3.5,0.2-6.5,0.3v-2c4.2,0,5.9,0,9.8-0.2V573.5z M282.3,582.6
		c-1,0-1.4,0.6-1.4,1c0,0.8,0.9,1.6,2.8,1.6c0.4,0,0.9-0.1,1.3-0.1C284.6,583.7,283.8,582.6,282.3,582.6z"/>
	<path class="st3" d="M299.3,584.2c0,1.5-1.2,2.8-2.8,2.8c-1.5,0-2.8-1.2-2.8-2.8c0-1.5,1.3-2.8,2.8-2.8
		C298,581.4,299.3,582.6,299.3,584.2z M294.7,584.2c0,1,0.8,1.8,1.8,1.8c1,0,1.8-0.8,1.8-1.8c0-1-0.8-1.8-1.8-1.8
		C295.5,582.4,294.7,583.2,294.7,584.2z"/>
	<path class="st3" d="M312,576.1v-1.9h2.7l0-2.6h2c-0.1,3.1-0.1,3.6-0.1,5c1.4-1.1,2.8-2.2,5.3-2.2c3.1,0,5.1,2.3,5.1,5.5
		c0,5.2-4.1,6.4-7.6,6.6l-0.6-1.9c1.9-0.1,6.1-0.2,6.1-4.6c0-1.7-0.7-3.7-3.5-3.7c-2.1,0-3.9,1.4-5,2.4c0,1.5,0,2.1,0,8.1h-2
		l0.1-5.7c-0.9,1.7-1.8,2.6-2.2,3l-1-2c1.7-1.7,2.5-2.9,3.2-4.4l0-1.6L312,576.1z"/>
	<path class="st3" d="M340.9,581.8c-1.6-1.8-2.6-4.4-3.1-5.4c-1.8,0-2,0-2.3,0H330v-1.9l5.6,0.1h1.6c-0.3-1.1-0.4-1.4-0.7-3l2.1-0.2
		c0.2,1.3,0.5,2.5,0.7,3.1c1.3,0,3-0.1,5-0.2l0.1,1.9c-2.3,0.1-3.3,0.2-4.5,0.2c0.8,1.7,1.7,3.2,2.7,4.3L340.9,581.8z M334.6,580.5
		c-0.4,0.2-1.8,0.9-1.8,2.2c0,2.1,3,2.1,5.1,2.1c2.4,0,3.8-0.2,4.8-0.3v2c-0.6,0.1-2.1,0.2-4.4,0.2c-3.1,0-4.4-0.3-5.7-0.9
		c-1.1-0.6-1.9-1.7-1.9-3c0-1.5,0.9-2.8,2.8-3.7L334.6,580.5z M341.7,570.2c0.8,1,1.1,1.8,1.8,3.2l-1.3,0.7c-0.5-1.4-0.9-2-1.7-3.2
		L341.7,570.2z M344.8,570.1c0.8,1.1,1.1,1.9,1.7,3.4l-1.3,0.7c-0.5-1.4-0.9-2.2-1.7-3.4L344.8,570.1z"/>
	<path class="st3" d="M361.6,577.7c-0.8,0.1-10.8,1.1-10.8,4.9c0,1.9,2.1,2.1,5.5,2.1c3,0,4.9-0.2,5.9-0.3l0,2.1
		c-1.1,0.1-2.6,0.2-5.2,0.2c-3.1,0-8.3,0-8.3-4c0-3,3.5-4.6,4.8-5.1c-0.6-1.1-0.7-2.3-0.7-6h2.2c0,0.6,0,1.1,0,2
		c0,1.9,0.1,2.6,0.4,3.3c1.8-0.5,3.3-0.8,6-1.3L361.6,577.7z"/>
	<path class="st3" d="M364.5,578.3c2.3-2.4,3-4.5,3.6-7.5l1.8,0.1c-0.1,0.6-0.2,1.2-0.4,2.1h5.1c-0.6,6.5-2.7,10.9-8.5,14.8
		l-1.3-1.6c3.1-2,4.6-3.6,5.5-5c-1-1.3-1.9-2.2-3.1-3.1c-0.6,0.9-1,1.3-1.4,1.7L364.5,578.3z M368.9,574.7c-0.1,0.4-0.4,1-0.8,1.8
		c1.2,0.8,1.4,1.1,3.2,3c0.9-1.8,1.2-3.5,1.4-4.8H368.9z M375.8,575.5c0.3,0.5,0.6,1.1,1.4,1.9v-6.7h1.9v8.4
		c1.3,0.9,2.3,1.4,3.1,1.7l-0.6,2.1c-0.6-0.3-1.4-0.7-2.5-1.4v6.1h-1.9v-7.7c-1.7-1.6-2.4-2.8-2.8-3.4L375.8,575.5z"/>
	<path class="st3" d="M399,573.3v1.9h-4.7v3.6c0.1,0.5,0.3,1.3,0.3,2.4c0,5.1-4.8,5.6-7.5,5.7l-0.6-1.8c5.2,0.1,5.9-1.8,6.1-3.1
		c-0.4,0.9-1.2,1.4-2.5,1.4c-2.2,0-3.4-1.7-3.4-3.5c0-2.2,1.6-3.7,3.7-3.7c0.9,0,1.4,0.3,1.8,0.6l0-1.6h-8.6v-1.9h8.6l0-1.9h2.1v1.9
		H399z M392.4,579.3c-0.2-0.9-0.7-1.5-1.8-1.5c-1,0-2,0.6-2,2c0,1.2,0.8,2.1,1.8,2.1c1.2,0,1.9-0.8,1.9-1.9V579.3z"/>
	<path class="st3" d="M408.5,581.9c-1.4,1.2-2.4,1.6-3,1.8l-0.4-0.6c-2.3,1-3.4,1.3-4.2,1.6l-0.2-2c0.4-0.1,1.7-0.5,1.9-0.5v-5.9
		h-1.8v-1.8h1.8v-3.7h1.8v3.7h1.4v1.8h-1.4v5.4c0.8-0.3,0.9-0.3,1.4-0.5l0.1,0.8c1.7-0.8,2.4-1.7,3-2.5h-3V578h12.1v1.4h-7.3
		c-0.2,0.4-0.4,0.6-0.7,1h7.4c0,0.2-0.1,5-0.6,6.1c-0.5,1-1.2,1-1.7,1h-2.4l-0.4-1.8h2.4c0.5,0,0.6-0.2,0.7-0.7
		c0.1-0.7,0.2-2.8,0.3-3.3h-0.9c-1.5,3.3-3.8,4.9-5.7,5.9l-1.1-1.4c2.4-1,3.7-2.1,5.2-4.4h-1.3c-2,2.7-4.3,3.8-6.2,4.5l-0.9-1.3
		c1.1-0.3,3.3-1,5.3-3.2H408.5z M406.7,571.3h10v5.9h-10V571.3z M408.4,572.7v1h6.6v-1H408.4z M408.4,574.8v1.1h6.6v-1.1H408.4z"/>
	<path class="st3" d="M434.9,577.6c-0.9-0.4-1.5-0.7-2.7-1.4v1.4h-9.4v-1.5c-1.1,0.6-1.7,1-2.9,1.5l-1.1-1.9c2.8-0.9,5.8-2.8,7.7-5
		h1.8c1.6,1.7,3.4,3.2,7.7,5L434.9,577.6z M434.1,579.4v7.9h-13.4v-7.9H434.1z M432.2,581.1h-9.6v4.5h9.6V581.1z M431.7,575.9
		c-2.7-1.8-3.6-2.7-4.4-3.6c-1.2,1.4-2.6,2.5-4.2,3.6H431.7z"/>
	<path class="st3" d="M448.8,573.8v1.8h-5.5l-0.1,3h2.1c1.4,0,2.5-0.1,3.2-0.3l0.1,1.8c-0.7,0.2-2.2,0.3-3.3,0.3h-2.1
		c-0.1,3.7,0,4.3,3.4,4.3c2,0,4.2-0.1,4.2-3.1c0-1.4-0.4-2.5-1-3.9l1.8-0.5c0.8,1.4,1.2,2.9,1.2,4.6c0,4.9-4,4.9-6.3,4.9
		c-2.4,0-4-0.3-4.9-2c-0.5-0.9-0.5-2.3-0.5-4.2h-3.2v-1.9h3.3l0.1-3h-3.1v-1.8h3.2l0-2.3l2.1,0l-0.1,2.3H448.8z"/>
</g>
<g>
	<path d="M19,38.4v15.5H3.5V38.4H19z"/>
	<path d="M27.5,39.6c-0.9,7.9-3.5,12.1-4.5,13.8l-2-1c2.6-3.9,3.9-8.4,4.4-13.1L27.5,39.6z M34.4,53c-1.1-6.3-2.7-9.8-4.2-13
		l1.9-0.8c1.6,2.9,3.6,7.4,4.6,13.3L34.4,53z M38.4,39.5c0,1.4-1.1,2.5-2.5,2.5s-2.5-1.1-2.5-2.5c0-1.4,1.1-2.5,2.5-2.5
		S38.4,38.1,38.4,39.5z M34.6,39.5c0,0.7,0.6,1.3,1.3,1.3s1.3-0.6,1.3-1.3s-0.6-1.3-1.3-1.3C35.2,38.2,34.6,38.8,34.6,39.5z"/>
	<path d="M42.6,47.8c-0.3-1.7-0.8-3.1-1.4-4.4l1.7-0.5c0.8,1.6,1.3,3.3,1.5,4.5L42.6,47.8z M42.5,52.4c5.8-1.2,8-3.7,9.1-10l2,0.4
		c-1.1,5.4-3,9.4-9.8,11.1L42.5,52.4z M46.6,46.9c-0.2-1-0.5-2.5-1.2-4.4l1.6-0.4c0.6,1.3,1.1,3.1,1.3,4.3L46.6,46.9z"/>
	<path d="M59.1,52.1c3.8-0.8,7-2,7.4-8.5H62c-0.6,1.1-1.4,2.4-3.2,3.8l-1.5-1.4c2.5-1.9,3.7-4.4,4.2-7.5l2.1,0.2
		c-0.3,1.1-0.4,1.8-0.9,3h10.1v1.9h-4.2c-0.5,5.5-2.3,9.1-8.6,10.3L59.1,52.1z"/>
	<path d="M91,45.1v2.1H75.6v-2.1H91z"/>
	<path d="M99.2,47c-2.2-1.3-4.3-1.9-5.2-2.2l0.7-1.7c1.7,0.4,3.7,1.1,5.3,2L99.2,47z M95,51.3c6.9-0.7,9.9-3,11.9-9.5l1.7,1.3
		c-2.5,6.8-5.9,9.4-13.2,10.4L95,51.3z M100.7,42.7c-1.7-0.9-3.2-1.5-5.3-2.1l0.8-1.7c1.8,0.4,3.6,1.1,5.4,1.9L100.7,42.7z
		 M105.6,37.4c0.7,1.1,1.1,1.9,1.7,3.5l-1.3,0.7c-0.5-1.5-0.8-2.2-1.6-3.5L105.6,37.4z M108.5,37.3c0.8,1.2,1.2,2.2,1.6,3.5
		l-1.4,0.6c-0.5-1.5-0.7-2.2-1.5-3.5L108.5,37.3z"/>
	<path d="M112.7,52.1c4.9-0.8,5.9-2.8,6-6.5h-6.8v-1.9h14.7v1.9h-5.8c-0.2,5.7-2.9,7.5-7.2,8.3L112.7,52.1z M123.2,39.1V41h-9.9
		v-1.9H123.2z M124.7,37.6c0.6,1.2,0.8,2.2,1.1,3.7l-1.4,0.5c-0.2-1.5-0.5-2.4-1-3.7L124.7,37.6z M127.3,37.2
		c0.6,1.2,0.8,2.2,1.1,3.7l-1.4,0.5c-0.2-1.5-0.5-2.3-1-3.7L127.3,37.2z"/>
	<path d="M134.3,48.5h-2v-4.6h-2.8V42h2.8v-3.3h2V42h5.3v-3.4h1.8l0.1,3.4h3.2v1.9h-3.1V46c0,3-0.8,7-8.1,7.9l-0.8-1.9
		c6.8-0.6,6.8-4.4,6.8-6.1v-2.1h-5.3V48.5z M143,37.3c0.5,1.3,0.7,2.2,0.9,3.7l-1.4,0.3c-0.2-1.5-0.3-2.3-0.8-3.7L143,37.3z
		 M145.5,37c0.5,1.3,0.7,2.3,0.9,3.7l-1.4,0.3c-0.2-1.5-0.4-2.4-0.8-3.7L145.5,37z"/>
	<path d="M157.3,53.8h-2.1v-8c-3,1.9-4.9,2.6-6.7,3.3l-1-1.8c5.1-1.6,9.5-4.7,12.9-8.9l1.8,1.2c-1.4,1.7-2.6,2.8-4.9,4.7V53.8z"/>
	<path d="M171.8,43.9c-1.2-0.8-2.9-1.8-5.6-2.6l1-1.8c3,0.9,4.8,2,5.7,2.5L171.8,43.9z M166.6,51.2c7.1-0.5,10.8-3.9,12.8-10.8
		l1.8,1.3c-1,2.9-3.6,10.9-14.2,11.7L166.6,51.2z"/>
	<path d="M183.5,38.3h6.8v6.1h-5.1v10.2h-1.8V38.3z M185.3,39.6v1.1h3.3v-1.1H185.3z M185.3,41.9V43h3.3v-1.1H185.3z M188.5,48.8
		c0-0.1,0-0.2,0-0.3v-1.6h-2v-1.5h9.6v1.5h-1.8v1.9h2.1v1.5h-2.1v4h-1.7v-4H190c-0.2,0.9-0.8,2.7-2.6,4l-1.2-1.3
		c0.6-0.4,1.6-1.3,2-2.7h-2.1v-1.5H188.5z M192.6,48.8v-1.9h-2.4v1.9H192.6z M192.2,38.3h6.9V53c0,0.3,0,1.5-1.4,1.5h-2.5l-0.3-1.8
		h2c0.3,0,0.4-0.1,0.4-0.4v-8h-5.1V38.3z M193.9,39.6v1.1h3.3v-1.1H193.9z M193.9,41.9V43h3.3v-1.1H193.9z"/>
	<path d="M217.6,40c-0.4,0.5-1,1.3-2.4,2.5c0.7,0.4,1.4,0.8,2.8,1.3l-0.7,1.7c-1-0.5-1.5-0.7-2.6-1.3v1.2h-2.3v2h5v1.7h-5v2.9
		c0,0.4,0.2,0.4,0.5,0.4h2.3c0.8,0,0.8-0.5,0.9-2.2l1.8,0.2c-0.3,2.5-0.4,3.7-2,3.7h-3.8c-0.8,0-1.6-0.2-1.6-1.2v-3.9h-2.8
		c-0.6,3.3-3.3,4.8-5.9,5.4l-0.9-1.8c2.8-0.3,4.7-1.9,5-3.6h-4.6v-1.7h4.8v-2H204v-1.1c-0.9,0.5-1.5,0.8-2.4,1.3l-0.9-1.7
		c1-0.3,1.7-0.7,3.1-1.5c-0.3-0.3-1.2-1.1-2.1-1.8l1-0.9h-0.2v-1.5h7.8c0.5,0.7,0.7,1.1,1.2,1.6c0.9-0.8,1.5-1.4,2.1-2.1l1.4,0.9
		c-0.7,0.8-1.5,1.6-2.3,2.4c0.4,0.3,0.6,0.4,1,0.8c1-0.9,1.8-1.7,2.4-2.5L217.6,40z M203.1,39.8c1,0.7,2,1.6,2.1,1.7
		c0.9-0.6,1.3-1,1.9-1.7H203.1z M213.7,43.7c-2.1-1.3-3.8-3.1-4.4-3.9c-0.6,0.8-1.7,2.1-4.3,3.9H213.7z M210.5,45.4h-2.7v2h2.7V45.4
		z"/>
	<path d="M227.1,51.7c1.9-0.2,5.9-0.8,5.9-5.7c0-2-0.8-5-4.9-5.2c-0.6,8-3,11.3-5.4,11.3c-2.1,0-3.4-2.4-3.4-5.2
		c0-5.1,3.7-8.1,8.4-8.1c5.6,0,7.5,3.7,7.5,7.1c0,6.8-6.1,7.4-7.4,7.5L227.1,51.7z M221.3,47.1c0,1,0.4,3,1.5,3
		c0.7,0,1.2-0.6,1.6-1.4c1.2-2.2,1.6-5,1.8-7.7C223,41.6,221.3,44.1,221.3,47.1z"/>
	<path d="M246.1,40.7h-6v3.7c0.5-0.2,1-0.4,2.1-0.4c3.1,0,5,2,5,4.6c0,2.3-1.6,4.7-5.6,4.7c-1.6,0-3-0.4-4.4-1.1l0.6-2
		c1.2,0.8,2.4,1.1,3.8,1.1c2.8,0,3.5-1.6,3.5-2.8c0-1.7-1.4-2.7-3-2.7c-0.7,0-1.5,0.2-2.1,0.7h-1.9v-7.8h8V40.7z"/>
	<path d="M254.1,50.8c2.2,0,8.6,0,8.6-5.1c0-1.7-0.8-3.7-4-3.7c-1.6,0-4.3,0.5-9,1.6l-0.5-2.2c0.7-0.1,4.3-0.7,4.8-0.8
		c1.9-0.3,3.4-0.6,4.8-0.6c4.1,0,6,2.6,6,5.6c0,1.4-0.4,4.5-4.3,6.1c-1.1,0.5-3,0.9-5.9,1L254.1,50.8z"/>
	<path d="M275,51.7c1.9-0.2,5.9-0.8,5.9-5.7c0-2-0.8-5-4.9-5.2c-0.6,8-3,11.3-5.4,11.3c-2.1,0-3.4-2.4-3.4-5.2
		c0-5.1,3.7-8.1,8.4-8.1c5.6,0,7.5,3.7,7.5,7.1c0,6.8-6.1,7.4-7.4,7.5L275,51.7z M269.2,47.1c0,1,0.4,3,1.5,3c0.7,0,1.2-0.6,1.6-1.4
		c1.2-2.2,1.6-5,1.8-7.7C270.9,41.6,269.2,44.1,269.2,47.1z"/>
	<path d="M285.5,51.5c1.7-1.7,2.5-4,2.7-6.4l1.9,0.2c-0.2,2-0.7,5.1-3,7.7L285.5,51.5z M297.6,41.5c-0.6-0.7-0.6-1.3-0.6-1.5
		c0-1.4,1.1-2.5,2.5-2.5c1.4,0,2.5,1.1,2.5,2.5c0,1.1-0.8,2.1-1.8,2.4v1.1h-6.1v10.4h-2.1V43.4H286v-1.9h6.1v-2.9h2.1v2.9H297.6z
		 M298.1,45c0.4,2.2,0.9,4.3,2.7,6.6l-1.7,1.3c-1.6-2-2.3-3.9-2.9-7.6L298.1,45z M298.2,40c0,0.7,0.6,1.3,1.3,1.3
		c0.7,0,1.3-0.6,1.3-1.3c0-0.8-0.6-1.3-1.3-1.3S298.2,39.2,298.2,40z"/>
	<path d="M313.2,53.8h-2.1v-8c-3,1.9-4.9,2.6-6.7,3.3l-1-1.8c5.1-1.6,9.5-4.7,12.9-8.9l1.8,1.2c-1.4,1.7-2.6,2.8-4.9,4.7V53.8z"/>
	<path d="M327.6,43.9c-1.2-0.8-2.9-1.8-5.6-2.6l1-1.8c3,0.9,4.8,2,5.7,2.5L327.6,43.9z M322.4,51.2c7.1-0.5,10.8-3.9,12.8-10.8
		l1.8,1.3c-1,2.9-3.6,10.9-14.2,11.7L322.4,51.2z"/>
	<path d="M353.3,48.8c-1.2-0.8-3.7-2.4-7.6-3.8v8.8h-2.2V38.4h2.2v4.4c4,1.3,7.1,3,8.6,3.8L353.3,48.8z"/>
</g>
<line class="st2" x1="4.6" y1="509.4" x2="635.5" y2="509.4"/>
<line class="st1" x1="4.6" y1="80.1" x2="635.5" y2="80.1"/>
<line class="st1" x1="635.5" y1="616.8" x2="4.6" y2="616.8"/>
</svg>
