<svg xmlns="http://www.w3.org/2000/svg" xmlns:xlink="http://www.w3.org/1999/xlink" width="640" height="410" viewBox="0 0 640 410"><defs><clipPath id="a"><rect width="640" height="410" fill="none"/></clipPath></defs><rect width="639.167" height="50" transform="translate(0.417 0.417)" fill="#f0f0eb"/><rect width="139.167" height="359.583" transform="translate(0.417 50.417)" fill="#f0f0eb"/><g clip-path="url(#a)"><path d="M128.446,12.678h1.121v1.948h4.988v9.283a.986.986,0,0,1-1.107,1.135h-2.267l-.174-1.121,2.068.013c.174,0,.373-.013.373-.347V15.666h-3.814c.147,1.108.653,3.229,3.694,5.229l-.733.934a9.408,9.408,0,0,1-3.575-4.562,8.776,8.776,0,0,1-3.681,4.508l-.681-.96a6.805,6.805,0,0,0,3.7-5.15h-3.828v9.378H123.4V14.626h5.042Z" transform="translate(-20.567 -2.113)" fill="#646464"/><path d="M149.275,24.825h-8.923V20.636c-.441.173-.708.268-1.321.454l-.507-1.068a11.327,11.327,0,0,0,5.749-2.988h1.12a11.262,11.262,0,0,0,5.723,2.948l-.507,1.068c-.641-.2-.881-.28-1.334-.441Zm-3.908-12.178v1.107h5.283v2.828h-1.094v-1.8h-9.47v1.8h-1.107V13.754h5.283V12.647Zm-6.229,4.788a8.359,8.359,0,0,0,3.6-2.161l.8.627A10.422,10.422,0,0,1,139.7,18.41Zm9.324,2.841a11.476,11.476,0,0,1-3.615-2.4,11.412,11.412,0,0,1-3.615,2.4Zm-.28.974h-6.736v2.588h6.736Zm-1.334-5.963a9.877,9.877,0,0,0,3.681,2.134l-.573.988a12.235,12.235,0,0,1-3.975-2.468Z" transform="translate(-23.087 -2.108)" fill="#646464"/><path d="M298.363,32.548a11.774,11.774,0,0,0,3.455-4.228l.947.48a15,15,0,0,1-1.414,2.321V38.03h-1.133V32.468a11.889,11.889,0,0,1-1.428,1.307Zm.04-3.908a8.2,8.2,0,0,0,3.027-3.122l.948.441a10.255,10.255,0,0,1-3.388,3.748Zm12.578,2.334h-2.147v5.963c0,.76-.24,1.093-1.187,1.093h-2.294l-.2-1.213,2.161.027c.28,0,.4-.053.4-.374v-5.5h-4.8V29.893h8.07Zm-.52-3.708h-6.989V26.225h6.989Z" transform="translate(-49.727 -4.253)" fill="#646464"/><path d="M338.052,29.466V28.4h1.2V25.678h1.081V28.4h2.427c0,1.841-.04,6.149-.253,7.736-.214,1.548-.574,1.908-1.641,1.908h-1.348l-.213-1.08,1.308.027c.52.013.68-.213.747-.748a63.163,63.163,0,0,0,.347-6.776h-1.373a21.751,21.751,0,0,1-.574,4.923,8.551,8.551,0,0,1-1.813,3.668l-.961-.68c.093-.107.213-.28.28-.347-1.374.253-4.482.573-6.5.68l-.133-1c.547-.013,1.481-.053,3.134-.187V35.429h-2.8V34.6h2.8v-.84h-2.681V29.386h2.681v-.76h-3.108v-.841h3.108v-.8c-1.627.093-2.254.107-2.774.12l-.187-.827a26.792,26.792,0,0,0,6.083-.6l.44.814a20.929,20.929,0,0,1-2.614.413v.88h3.055v.841h-3.055v.76h2.721v4.375h-2.721v.84H337.6v.828h-2.881v1.013c.933-.08,2-.227,2.881-.347v.453a8.813,8.813,0,0,0,1.4-4.041,19.408,19.408,0,0,0,.253-3.042Zm-4.283.708h-1.708v1.041h1.708Zm0,1.76h-1.708v1.054h1.708Zm2.682-1.76h-1.734v1.041h1.734Zm0,1.76h-1.734v1.054h1.734Z" transform="translate(-55.105 -4.28)" fill="#646464"/><path d="M64.1,155.414a17.27,17.27,0,0,0-1.641-2.267,12.9,12.9,0,0,1-3.2,3.642l-.748-.987a10.506,10.506,0,0,0,3.148-3.561,20.3,20.3,0,0,0-2.641-2.415l.773-.773A25.73,25.73,0,0,1,62.15,151.2a11.459,11.459,0,0,0,.787-3.455H58.654v-1.067h2.681v-2.014h1.108v2.014h2.494v1.067H64.07a14.021,14.021,0,0,1-1.08,4.335,15.985,15.985,0,0,1,2.028,2.642Zm2.534-1.614a15.03,15.03,0,0,0-1.761-3.562l1-.533a17.931,17.931,0,0,1,1.841,3.575Zm3.161-6.576H71.02v1.108H69.792v7.576c0,.721-.307,1.147-1.36,1.147H66.4l-.281-1.147,2.107.013c.321,0,.428.013.428-.307v-7.283H65.2v-1.108h3.455v-2.561h1.133Z" transform="translate(-9.751 -24.11)" fill="#646464"/><path d="M74.348,150.452a9.913,9.913,0,0,0,2.734-5.776l1.081.053a13,13,0,0,1-.361,1.68h3.842a12.984,12.984,0,0,1-6.256,10.752l-.8-.934a12.015,12.015,0,0,0,4.094-3.735,16.565,16.565,0,0,0-2.441-2.6,8.836,8.836,0,0,1-1.12,1.361Zm3.12-3.015a11.343,11.343,0,0,1-.706,1.587,18.8,18.8,0,0,1,2.494,2.494,12.353,12.353,0,0,0,1.2-4.082Zm9.312,6.123a11.576,11.576,0,0,1-1.961-1.147v4.642H83.671v-5.563a10.517,10.517,0,0,1-2.174-2.628l.827-.614a8.751,8.751,0,0,0,1.347,1.761v-5.348h1.148v6.363a10.985,10.985,0,0,0,2.347,1.334Z" transform="translate(-12.391 -24.11)" fill="#646464"/><path d="M98.745,144.778a11.272,11.272,0,0,1-.44,1.841h4.468c-.067,6.1-.067,6.429-.307,8.323s-.908,2.108-2,2.108H98.6l-.213-1.148,1.934.013c.533,0,.827-.027,1.027-.933a49.562,49.562,0,0,0,.333-7.323H97.931a10.806,10.806,0,0,1-1.6,2.761l-.747-.667v6.416H91.115v-9.55h1.4a8.668,8.668,0,0,0,.52-1.948l1.094.12a11.265,11.265,0,0,1-.547,1.828h2v2.868a9.946,9.946,0,0,0,2.053-4.855Zm-4.2,2.854H92.156v3.148h2.388Zm0,4.122H92.156v3.388h2.388Zm4.722,1.8a16.463,16.463,0,0,0-1.961-3.522l.908-.573a17.8,17.8,0,0,1,2.094,3.468Z" transform="translate(-15.186 -24.105)" fill="#646464"/><path d="M40.014,185.163a9.486,9.486,0,0,1,0-12.645h1.054a9.9,9.9,0,0,0,0,12.645Z" transform="translate(-6.267 -28.753)" fill="#646464"/><path d="M47.011,178.689a7.8,7.8,0,0,0,.36-.987l.868.147c-.053.147-.28.667-.36.84h1.173v.761h-1.24v1.013h1.121v.721H47.811v1.027h1.121v.72H47.811V184.1h1.281v.28a7.277,7.277,0,0,0,2.014-1.641l.733.628a8.29,8.29,0,0,1-2.107,1.8l-.641-.773v.507H44.824v-4.148a3.606,3.606,0,0,1-.321.467l-.359-.561a8.762,8.762,0,0,1-1.014,4.1l-.733-.893c.32-.654.787-1.561.787-4.9V174.9h5.589v2.534H44.2v1.6c0,.48-.013.693-.027,1.053a9.183,9.183,0,0,0,1.053-2.521l.8.253a6.774,6.774,0,0,1-.253.867Zm1.934-4.575H42.609v-.908h6.336Zm-1.187,1.534H44.2v1.027h3.562Zm-.8,3.8H45.729v1.013h1.228Zm0,1.734H45.729v1.027h1.228Zm0,1.747H45.729V184.1h1.228Zm8.07-9.724v.948h-2.6c-.093.36-.213.773-.333,1.148h2.4v7.229H49.705V175.3h1.414a8.354,8.354,0,0,0,.292-1.148H49.425v-.948Zm-1.534,2.988H50.733v1.188h2.761Zm0,2.041H50.733v1.187h2.761Zm0,2.054H50.733V181.6h2.761Zm-.267,2.428a7.5,7.5,0,0,0,2,1.614l-.613.853a8.742,8.742,0,0,1-2.121-1.788Z" transform="translate(-7.066 -28.867)" fill="#646464"/><path d="M58.588,180.335a20.115,20.115,0,0,0,5.242-1.454,10.628,10.628,0,0,1-1.787-1.521,11.694,11.694,0,0,1-2.522,1.454l-.467-.934a9.17,9.17,0,0,0,4.175-3.054l1.08.24c-.2.28-.293.414-.506.667h4.708v.827a8.515,8.515,0,0,1-2.654,2.348,18.139,18.139,0,0,0,5.229,1.374l-.373,1.093c-.453-.08-.641-.12-1.348-.28v3.748H60.281v-3.722c-.373.093-.6.133-1.32.28Zm6.776-7.657v1.014H70.62v2.8H69.512v-1.8H60.136v1.8H59.055v-2.8h5.2v-1.014Zm3.068,8.177a18.345,18.345,0,0,1-3.6-1.361,19.659,19.659,0,0,1-3.548,1.361Zm-.133.907H61.336V183.9H68.3Zm-5.363-5.136c-.027.027-.12.107-.173.147a9.786,9.786,0,0,0,2.068,1.614,7.1,7.1,0,0,0,2.268-1.761Z" transform="translate(-9.765 -28.779)" fill="#646464"/><path d="M77.41,186.335a19.4,19.4,0,0,0-2.214-2.761l1.013-.747a20.917,20.917,0,0,1,2.374,2.681Z" transform="translate(-12.533 -30.471)" fill="#646464"/><path d="M93.821,185.07h-1.08v-5.4a12.476,12.476,0,0,1-1.828,1.414l-.454-1.094a9.646,9.646,0,0,0,3.908-4.134H90.632v-1h2.108v-2.175h1.08v2.175h1.721v1.013a9.363,9.363,0,0,1-1.454,2.361,9.651,9.651,0,0,0,1.921,1.748l-.6.974a9.079,9.079,0,0,1-1.588-1.6Zm5.909-12.392v3.854h2.934v1.094H99.73V183.5h3.242v1.093H95.195V183.5h3.414v-5.869H95.822v-1.094h2.787v-3.854Z" transform="translate(-15.076 -28.779)" fill="#646464"/><path d="M116.341,177.345h-7.057V176.6a15.375,15.375,0,0,1-2.374,1.241l-.547-1.081a11.862,11.862,0,0,0,5.829-4.255h1.187a12.917,12.917,0,0,0,5.83,4.3l-.588,1.067a14.427,14.427,0,0,1-2.281-1.254Zm-1.173,3.161a19.524,19.524,0,0,1,3.268,3.962l-.96.64c-.213-.36-.374-.613-.654-1.027-2.228.32-7.669.56-9.724.56l-.12-1.093h1.841a22.829,22.829,0,0,0,1.641-3.455H106.8v-1.028h11.912v1.028h-6.963a36.425,36.425,0,0,1-1.721,3.428c.333-.013,1.828-.053,2.108-.067,1.628-.066,3-.186,3.988-.28a24.7,24.7,0,0,0-1.841-2.068Zm.747-4.175a13.651,13.651,0,0,1-3.122-2.882,12.4,12.4,0,0,1-3.094,2.882Z" transform="translate(-17.727 -28.75)" fill="#646464"/><path d="M122.427,185.163a9.9,9.9,0,0,0,0-12.645h1.054a9.486,9.486,0,0,1,0,12.645Z" transform="translate(-20.404 -28.753)" fill="#646464"/><path d="M240.921,171.02c-1.012.113-7.763.876-7.763,3.65,0,1.45,1.526,1.588,4.213,1.588a34.754,34.754,0,0,0,3.938-.188l.025,1.175c-.813.05-1.913.125-3.713.125-2.163,0-5.625,0-5.625-2.663,0-2.137,2.575-3.212,3.451-3.588-.413-.812-.426-1.387-.476-4.2H236.2c-.013.337-.025.687-.025,1.3a5.469,5.469,0,0,0,.325,2.525,29.113,29.113,0,0,1,4.313-.926Zm-1.575-4.574a11.009,11.009,0,0,1,1.163,2.4l-.9.475a10.144,10.144,0,0,0-1.1-2.45Zm1.988-.412a11.02,11.02,0,0,1,1.162,2.412l-.887.475a10.411,10.411,0,0,0-1.113-2.45Z" transform="translate(-38.665 -27.672)" fill="#646464"/><path d="M248.706,176.685c2.288-.038,5.963-.149,5.963-3.387,0-1.938-1.2-2.175-2.212-2.175a43.916,43.916,0,0,0-4.888.638l-.137-1.225c.8-.063,4.325-.462,5.038-.462,1.6,0,3.413.337,3.413,3.137,0,4.374-4.525,4.512-6.863,4.575Zm5.938-7.8a19.444,19.444,0,0,0-5.813-.887l.137-1.05a22,22,0,0,1,5.975.838Z" transform="translate(-41.238 -27.824)" fill="#646464"/><path d="M262.934,167.9a24.517,24.517,0,0,0-.262,3.575c0,1.938.151,4.675,1.551,4.675.562,0,1.212-.513,2.074-2.763l.924.525a7.91,7.91,0,0,1-1.687,2.913,1.955,1.955,0,0,1-1.4.6c-2.025,0-2.587-2.8-2.587-6.05,0-1.363.125-2.725.2-3.575Zm7.65,8.338c.025-.325.05-.7.05-1.275,0-3.263-.975-5.063-2.276-6.125l.863-.663c1.487,1.25,2.776,3.013,2.6,8.013Z" transform="translate(-43.591 -27.967)" fill="#646464"/><path d="M278.706,176.685c2.287-.038,5.963-.149,5.963-3.387,0-1.938-1.2-2.175-2.213-2.175a43.916,43.916,0,0,0-4.888.638l-.137-1.225c.8-.063,4.325-.462,5.038-.462,1.6,0,3.413.337,3.413,3.137,0,4.374-4.525,4.512-6.862,4.575Zm5.938-7.8a19.445,19.445,0,0,0-5.813-.887l.138-1.05a22,22,0,0,1,5.975.838Z" transform="translate(-46.238 -27.824)" fill="#646464"/><path d="M302.148,168.266H296.9v.712h4.175v2.413H296.9v.65h4.462v1.55h.863v.85h-.863v1.6H296.9v.988a.977.977,0,0,1-1.088,1.1h-2.038l-.15-1.012,1.85.012c.35,0,.413-.138.413-.4v-.688h-4.55v-.787h4.55v-.825h-5.3v-.812h5.3V172.8h-4.513v-.762h4.513v-.65h-4.15v-2.413h4.15v-.712h-5.175v-.85h5.175v-.887H296.9v.887h5.25Zm-6.262,1.45h-3.125v.938h3.125Zm4.15,0H296.9v.938h3.137Zm.288,3.088H296.9v.813h3.425Zm.013,1.625H296.9v.825h3.438Z" transform="translate(-48.43 -27.754)" fill="#646464"/><path d="M316.585,177.931a11.071,11.071,0,0,1-4.662-2.688V178.1h-1v-2.849a11.5,11.5,0,0,1-4.675,2.649l-.562-.9a10.828,10.828,0,0,0,4.487-2.225h-4.512v-.85h5.263v-.912h-4.388v-.8h4.388v-.875h-4.712v-.825H308.9a8.593,8.593,0,0,0-.362-1.2h-2.875v-.85H307.7a12.857,12.857,0,0,0-.788-1.588l1.013-.337a9.113,9.113,0,0,1,.825,1.925h1.038v-1.913h.975v1.913H312.1v-1.913h.962v1.913h1a13.469,13.469,0,0,0,.837-1.925l1.025.337a11.243,11.243,0,0,1-.812,1.588H317.2v.85h-2.913c-.162.563-.175.613-.375,1.2H316.7v.825h-4.775v.875h4.438v.8h-4.438v.912H317.2v.85h-4.513a10.08,10.08,0,0,0,4.5,2.213Zm-3.7-7.413a8,8,0,0,0,.35-1.2h-3.65c.1.35.288.938.363,1.2Z" transform="translate(-50.943 -27.757)" fill="#646464"/><path d="M330.9,168.243v1h-5.512a10.428,10.428,0,0,1-.825,1.8,3.725,3.725,0,0,1,2-.737,1.7,1.7,0,0,1,1.9,1.463c.288-.113,2-.8,3.125-1.188l.3,1.087c-1.012.288-1.9.563-3.275,1.088.037.437.05.975.05,1.425,0,.174,0,.55-.037.95h-1.088c.026-.288.063-.75.063-1.2,0-.213,0-.425-.026-.75-.962.45-2.474,1.25-2.474,2.275,0,1.1,1.387,1.1,2.762,1.1a30.787,30.787,0,0,0,3.3-.175l.038,1.075c-.712.05-1.8.125-2.988.125-1.412,0-4.238,0-4.238-2.012,0-1.7,2.238-2.825,3.475-3.375-.138-.737-.488-.987-1.062-.987a3.725,3.725,0,0,0-2.474,1.275c-.575.787-1.4,1.888-1.8,2.3l-.775-.837a10.841,10.841,0,0,0,2.9-4.7h-2.573v-1h2.874a9.107,9.107,0,0,0,.263-1.4l1.2.05a11.657,11.657,0,0,1-.312,1.35Z" transform="translate(-53.555 -27.807)" fill="#646464"/><path d="M335.346,172.966A11.023,11.023,0,0,0,338.583,169l.888.45a14.165,14.165,0,0,1-1.325,2.175V178.1h-1.062v-5.213a11.146,11.146,0,0,1-1.338,1.225Zm.037-3.663a7.692,7.692,0,0,0,2.838-2.925l.887.413a9.614,9.614,0,0,1-3.175,3.512Zm11.788,2.188h-2.012v5.588c0,.713-.226,1.025-1.112,1.025H341.9l-.188-1.138,2.025.025c.262,0,.375-.05.375-.35v-5.15h-4.5v-1.012h7.563Zm-.487-3.475h-6.55v-.975h6.55Z" transform="translate(-55.89 -27.729)" fill="#646464"/><path d="M353.706,176.685c2.288-.038,5.963-.149,5.963-3.387,0-1.938-1.2-2.175-2.212-2.175a43.915,43.915,0,0,0-4.888.638l-.138-1.225c.8-.063,4.325-.462,5.038-.462,1.6,0,3.413.337,3.413,3.137,0,4.374-4.525,4.512-6.863,4.575Zm5.938-7.8a19.444,19.444,0,0,0-5.813-.887l.138-1.05a22,22,0,0,1,5.975.838Z" transform="translate(-58.738 -27.824)" fill="#646464"/><path d="M371.434,176.553c1.288-.138,4.324-.5,4.324-4.075a3.568,3.568,0,0,0-3.737-3.85c-.113,1.45-.363,4.525-1.65,6.588a2.569,2.569,0,0,1-2.1,1.45c-1.225,0-2.25-1.45-2.25-3.513a5.421,5.421,0,0,1,5.775-5.575c4.049,0,5.138,2.8,5.138,4.913a5.038,5.038,0,0,1-1.675,3.913,6.494,6.494,0,0,1-3.45,1.237Zm-2.587-7.075a4.505,4.505,0,0,0-1.738,3.7c0,.85.313,2.288,1.2,2.288.525,0,.9-.462,1.225-1.012a14.479,14.479,0,0,0,1.375-5.775,4.715,4.715,0,0,0-2.062.8" transform="translate(-61.003 -27.929)" fill="#646464"/><path d="M381.172,177.091a27.443,27.443,0,0,0,2.162-6.725l-1.987.012V169.3h2.175c.124-.787.187-1.275.287-2.25l1.212.05c-.148.987-.2,1.275-.362,2.2h1.35c1.488,0,2.726.325,2.726,3.225a11.293,11.293,0,0,1-.6,3.774,2.064,2.064,0,0,1-2.176,1.25,12.153,12.153,0,0,1-1.474-.087l-.05-1.15a6.884,6.884,0,0,0,1.363.15c.837,0,1.174-.275,1.437-1.113a10.231,10.231,0,0,0,.376-2.875c0-2.088-.688-2.163-2.2-2.138l-.948.012a31.6,31.6,0,0,1-2.2,7.225Zm9.662-3.375a8.443,8.443,0,0,0-1.776-4.975l.926-.513a8.707,8.707,0,0,1,2.05,5.275Z" transform="translate(-63.528 -27.842)" fill="#646464"/><path d="M398.886,168.215a3.973,3.973,0,0,1,2.788-1.088,2.925,2.925,0,0,1,3.2,2.75c0,1.163-.737,1.762-1.675,2.525-.85.688-.913.988-.913,2.325h-1.112c0-1.413.05-2.013,1.262-3.025.963-.8,1.288-1.087,1.288-1.825a1.841,1.841,0,0,0-2.038-1.712,3.4,3.4,0,0,0-2.425,1.1Zm2.188,7.575h1.337v1.387h-1.337Z" transform="translate(-66.48 -27.854)" fill="#646464"/><path d="M245.661,195.356c.476-.575,2.5-3.125,2.938-3.637.563-.675.975-.838,1.413-.838a2.434,2.434,0,0,1,1.713.95l5.488,5.563-.888,1.025-5.525-5.838a1.215,1.215,0,0,0-.8-.438.923.923,0,0,0-.6.363c-.362.425-.862,1.113-2.85,3.85Zm8.125-5.488a10.573,10.573,0,0,1,1.625,2.2l-.812.637a10.446,10.446,0,0,0-1.562-2.25Zm1.75-1.025a10.64,10.64,0,0,1,1.613,2.2l-.8.638a11.624,11.624,0,0,0-1.562-2.25Z" transform="translate(-40.943 -31.473)" fill="#646464"/><path d="M265.9,189.038h1.125v1.725h3.45v.962a17.869,17.869,0,0,1-3.45,3.238v4.775H265.9v-4.025a18.813,18.813,0,0,1-4.374,1.938l-.5-1.038A15.792,15.792,0,0,0,269,191.8H261.87v-1.037H265.9Zm5.488,8.588a18.905,18.905,0,0,0-3.576-2.125l.613-.838a23.116,23.116,0,0,1,3.549,1.938Z" transform="translate(-43.503 -31.506)" fill="#646464"/><path d="M286.491,190.118c-.288,3.975-1.425,8.2-7.963,9.587l-.462-1.05c5.062-1.024,6.724-3.638,7.137-7.424h-8.312v-1.113Z" transform="translate(-46.148 -31.686)" fill="#646464"/><path d="M297.791,200.193h-1.038v-4.55a15.809,15.809,0,0,1-3.925,2.013l-.488-.95a14.814,14.814,0,0,0,7.238-5.088l.925.637a17.927,17.927,0,0,1-2.712,2.613Z" transform="translate(-48.723 -31.936)" fill="#646464"/><path d="M308.7,196.1a10.928,10.928,0,0,0-1-3.05l.938-.262a12.812,12.812,0,0,1,1.063,3.063Zm-.075,3.363c3.875-.8,5.625-2.5,6.337-6.988l1.088.225c-.825,4.275-2.425,6.588-6.725,7.613Zm2.813-3.938a13.564,13.564,0,0,0-.825-2.988l.925-.213a17.048,17.048,0,0,1,.9,2.963Z" transform="translate(-51.283 -32.053)" fill="#646464"/><path d="M331.451,196.088a27.722,27.722,0,0,0-5.513-2.675v6.313h-1.212V189.039h1.212v3.2a34.234,34.234,0,0,1,6.1,2.687Z" transform="translate(-54.12 -31.506)" fill="#646464"/><path d="M338.246,189.306a27.99,27.99,0,0,0-.538,5.738,19.615,19.615,0,0,0,.387,4.363l-1.125.15a23.624,23.624,0,0,1-.35-4.6,32.778,32.778,0,0,1,.462-5.738Zm8.438,2.05v1.075h-2.338l.038,3.3a9.254,9.254,0,0,1,2.512,1.825l-.737,1.012a6.8,6.8,0,0,0-1.813-1.625v.463c0,.712-.012,2.125-2.4,2.125-1.95,0-2.675-1.138-2.675-2.15,0-1.3,1.15-2.187,2.738-2.187a4.009,4.009,0,0,1,1.288.188l-.05-2.95h-3.775v-1.075h3.75l-.038-2.113h1.138l.025,2.113Zm-3.388,5.05a2.837,2.837,0,0,0-1.275-.275c-.838,0-1.75.325-1.75,1.262,0,.963.95,1.2,1.612,1.2,1.362,0,1.413-.738,1.413-1.413Z" transform="translate(-56.103 -31.536)" fill="#646464"/><path d="M352.781,200.111h-1.013v-6.4a6.017,6.017,0,0,1-.862,1.187l-.5-1.112a12.439,12.439,0,0,0,2.15-5.363l1.037.15a18.238,18.238,0,0,1-.812,2.938Zm9.4-10.213h-.975v9.075c0,.813-.326,1.137-1.125,1.137h-2.025l-.175-1.075h1.95c.237,0,.35-.037.35-.388V189.9h-6.3v-.975h8.3Zm-3.4,7.075h-4.625v-5.55h4.625Zm-.962-4.663h-2.675v3.763h2.675Z" transform="translate(-58.4 -31.403)" fill="#646464"/><path d="M366.172,199.091a27.443,27.443,0,0,0,2.162-6.725l-1.987.013V191.3h2.175c.124-.788.187-1.275.287-2.25l1.212.05c-.148.988-.2,1.275-.363,2.2h1.35c1.487,0,2.726.325,2.726,3.225a11.293,11.293,0,0,1-.6,3.774,2.064,2.064,0,0,1-2.176,1.25,12.157,12.157,0,0,1-1.474-.087l-.05-1.15a6.886,6.886,0,0,0,1.363.15c.837,0,1.174-.275,1.437-1.113a10.231,10.231,0,0,0,.376-2.875c0-2.088-.688-2.162-2.2-2.137l-.948.012a31.6,31.6,0,0,1-2.2,7.225Zm9.662-3.375a8.442,8.442,0,0,0-1.776-4.975l.926-.512a8.707,8.707,0,0,1,2.05,5.275Z" transform="translate(-61.028 -31.508)" fill="#646464"/><path d="M383.886,190.215a3.973,3.973,0,0,1,2.787-1.087,2.925,2.925,0,0,1,3.2,2.75c0,1.163-.738,1.763-1.675,2.525-.85.688-.912.988-.912,2.325h-1.112c0-1.413.05-2.013,1.262-3.025.963-.8,1.288-1.088,1.288-1.825a1.841,1.841,0,0,0-2.038-1.712,3.4,3.4,0,0,0-2.425,1.1Zm2.188,7.575h1.338v1.388h-1.338Z" transform="translate(-63.98 -31.521)" fill="#646464"/><path d="M226.069,210.54V222.1h-1v-3.888a11.4,11.4,0,0,1-1.9,1.262l-.262-1.175a10.227,10.227,0,0,0,2.163-1.35V210.54Zm-2.275,4.575a9.555,9.555,0,0,0-.812-2.713l.9-.325a10.158,10.158,0,0,1,.85,2.688Zm2.85-3.75a26.432,26.432,0,0,0,6.85-.913l.6.838a33.35,33.35,0,0,1-7.2,1.038Zm8.038,5.85h-1.6v3.837c0,.3,0,1.051-1.187,1.051h-1.8l-.2-1.062,1.725.012c.313,0,.413-.012.413-.387v-3.45h-5.288v-.975h5.288v-.762h1.05v.762h1.6Zm-6.938-1.725a10.947,10.947,0,0,0-.812-2.375l.912-.312a9.564,9.564,0,0,1,.863,2.425Zm1.388,4.987a10.623,10.623,0,0,0-1.538-2.262l.825-.562a9.085,9.085,0,0,1,1.625,2.25Zm1.012-5.4a10.348,10.348,0,0,0-.713-2.375l.975-.288a9.779,9.779,0,0,1,.738,2.413Zm1.762-.175a13.438,13.438,0,0,0,1.438-2.912l1.038.4a22.055,22.055,0,0,1-1.575,2.95Z" transform="translate(-37.151 -35.075)" fill="#646464"/><path d="M243.344,211.809v-1.25h1.025v1.25h4.887v.974h-4.887V216h5.313v.975h-4.638a11.843,11.843,0,0,0,4.825,3.637l-.588.988a13.527,13.527,0,0,1-4.913-4.113v4.638h-1.025v-4.575a13.881,13.881,0,0,1-4.788,4.05l-.65-.937a12.585,12.585,0,0,0,4.837-3.688h-4.637V216h5.237v-3.212h-4.775v-.974Zm-2.675,3.949a12.286,12.286,0,0,0-.95-2.263l.975-.4a11.442,11.442,0,0,1,.975,2.3Zm5.375-.425a9.212,9.212,0,0,0,.975-2.188l1.037.338a8.34,8.34,0,0,1-1.062,2.25Z" transform="translate(-39.65 -35.093)" fill="#646464"/><path d="M256.089,211.453a24.026,24.026,0,0,0-.562,5.663,18.578,18.578,0,0,0,.387,4.438l-1.212.1a24.951,24.951,0,0,1-.325-4.363,28.609,28.609,0,0,1,.525-5.938Zm3.188,5.363a3.016,3.016,0,0,0-.625,1.688c0,1.137,1.275,1.288,2.612,1.288a26.828,26.828,0,0,0,2.862-.15v1.175c-.425.038-1.3.113-2.362.113-1.85,0-4.163-.175-4.163-2.325a4.187,4.187,0,0,1,.663-2.1Zm4.587-3.35h-5.875v-1.1h5.875Z" transform="translate(-42.395 -35.225)" fill="#646464"/><path d="M279.721,221.818H268.147v-.95h11.574Zm-.237-9.813H268.4v-.937h11.088Zm-1.025,7.375H269.4v-6.2h9.063Zm-8.038-3.575h7.038v-1.725h-7.038Zm0,2.662h7.038v-1.8h-7.038Z" transform="translate(-44.691 -35.178)" fill="#646464"/><path d="M291.834,212.411c-.275.2-.663.512-.975.762-1.6,1.287-1.775,1.425-2.6,2.075a6.659,6.659,0,0,1,2.237-.425,3,3,0,0,1,3.313,3.138c0,2.45-2.1,3.712-4.437,3.712-1.988,0-3.225-.887-3.225-2.075a1.921,1.921,0,0,1,2.113-1.763,3.054,3.054,0,0,1,2.987,2.45,2.409,2.409,0,0,0,1.45-2.3c0-.663-.2-2.225-2.6-2.225-2.213,0-3.838,1.238-5.55,2.863l-.649-.938c.962-.75,3.824-3.05,6.174-5.163-2.125.15-2.863.175-4.9.213v-1.075c2.65,0,3.675-.012,6.663-.187Zm-3.612,6.337c-.763,0-1.088.487-1.088.825,0,.613.8,1.212,2.2,1.212a3.648,3.648,0,0,0,.975-.112,2.15,2.15,0,0,0-2.087-1.925" transform="translate(-47.316 -35.245)" fill="#646464"/><path d="M309.648,212.266H304.4v.713h4.175v2.412H304.4v.65h4.462v1.55h.862v.85h-.862v1.6H304.4v.988a.977.977,0,0,1-1.088,1.1h-2.038l-.15-1.013,1.85.012c.35,0,.413-.138.413-.4v-.688h-4.55v-.787h4.55v-.825h-5.3v-.812h5.3V216.8h-4.513v-.762h4.513v-.65h-4.15v-2.412h4.15v-.713h-5.175v-.85h5.175v-.888H304.4v.888h5.25Zm-6.262,1.45h-3.125v.938h3.125Zm4.15,0H304.4v.938h3.137Zm.287,3.088H304.4v.813h3.425Zm.013,1.625H304.4v.825h3.438Z" transform="translate(-49.68 -35.088)" fill="#646464"/><path d="M324.085,221.931a11.071,11.071,0,0,1-4.662-2.688V222.1h-1v-2.849a11.5,11.5,0,0,1-4.675,2.649l-.562-.9a10.828,10.828,0,0,0,4.487-2.225h-4.512v-.85h5.263v-.913h-4.388v-.8h4.388v-.875h-4.712v-.825H316.4a8.593,8.593,0,0,0-.363-1.2h-2.875v-.85H315.2a12.858,12.858,0,0,0-.788-1.588l1.013-.337a9.115,9.115,0,0,1,.825,1.925h1.038v-1.913h.975v1.913H319.6v-1.913h.962v1.913h1a13.469,13.469,0,0,0,.837-1.925l1.025.337a11.239,11.239,0,0,1-.813,1.588H324.7v.85h-2.913c-.162.563-.175.613-.375,1.2H324.2v.825h-4.775v.875h4.438v.8h-4.438v.913H324.7v.85h-4.512a10.079,10.079,0,0,0,4.5,2.212Zm-3.7-7.413a8,8,0,0,0,.35-1.2h-3.65c.1.35.288.938.363,1.2Z" transform="translate(-52.193 -35.09)" fill="#646464"/><path d="M338.7,218.04a28.11,28.11,0,0,0-5.5-2.675v6.313h-1.212V210.991H333.2V214.2a33.686,33.686,0,0,1,6.087,2.675Zm-2.15-6.65a11.4,11.4,0,0,1,1.35,2.375l-.875.538a10.72,10.72,0,0,0-1.3-2.413Zm1.813-.863a10.388,10.388,0,0,1,1.35,2.375l-.875.537a10.456,10.456,0,0,0-1.3-2.412Z" transform="translate(-55.33 -35.088)" fill="#646464"/><path d="M346.254,213.126a25.859,25.859,0,0,1,3.662,2.363,17.486,17.486,0,0,0,1.95-4.3l1.188.375a22.547,22.547,0,0,1-2.238,4.625,27.729,27.729,0,0,1,2.788,2.525l-.887.95a23.72,23.72,0,0,0-2.588-2.5,14.266,14.266,0,0,1-5.663,4.4l-.675-.95a12.744,12.744,0,0,0,5.475-4.163,27.521,27.521,0,0,0-3.687-2.475Z" transform="translate(-57.298 -35.198)" fill="#646464"/><path d="M365.361,221.7h-1.2v-5.825a19.89,19.89,0,0,1-4.925,2.5l-.55-1.038a18.646,18.646,0,0,0,8.963-6.3l1.05.687a22.841,22.841,0,0,1-3.337,3.262Z" transform="translate(-59.78 -35.173)" fill="#646464"/><path d="M378.091,214.858a14.917,14.917,0,0,0-3.85-1.8l.563-1a15.686,15.686,0,0,1,3.913,1.75Zm-3.587,5.425c6.325-.337,8.188-4.762,9.05-7.563l.975.725c-.6,1.775-2.6,7.613-9.8,8.088Z" transform="translate(-62.373 -35.343)" fill="#646464"/><path d="M390.746,211.305a27.99,27.99,0,0,0-.538,5.738,19.613,19.613,0,0,0,.387,4.363l-1.125.15a23.624,23.624,0,0,1-.35-4.6,32.778,32.778,0,0,1,.462-5.738Zm8.438,2.05v1.075h-2.338l.038,3.3a9.255,9.255,0,0,1,2.513,1.825l-.738,1.012a6.8,6.8,0,0,0-1.812-1.625v.462c0,.713-.012,2.125-2.4,2.125-1.95,0-2.675-1.138-2.675-2.15,0-1.3,1.15-2.188,2.738-2.188a4.009,4.009,0,0,1,1.288.188l-.05-2.95h-3.775v-1.075h3.75l-.037-2.113h1.137l.025,2.113Zm-3.388,5.05a2.837,2.837,0,0,0-1.275-.275c-.837,0-1.75.325-1.75,1.262,0,.962.95,1.2,1.613,1.2,1.363,0,1.413-.738,1.413-1.413Z" transform="translate(-64.853 -35.203)" fill="#646464"/><path d="M406.386,212.215a3.973,3.973,0,0,1,2.788-1.087,2.925,2.925,0,0,1,3.2,2.75c0,1.163-.737,1.762-1.675,2.525-.85.688-.913.988-.913,2.325h-1.112c0-1.413.05-2.013,1.262-3.025.963-.8,1.288-1.087,1.288-1.825a1.841,1.841,0,0,0-2.037-1.713,3.4,3.4,0,0,0-2.425,1.1Zm2.188,7.575h1.338v1.388h-1.338Z" transform="translate(-67.73 -35.188)" fill="#646464"/><path d="M541.33,172.3a5.925,5.925,0,1,1-5.925-5.925,5.922,5.922,0,0,1,5.925,5.925m-11.413,0a5.487,5.487,0,1,0,5.488-5.488,5.494,5.494,0,0,0-5.488,5.488m3.088,0c0-.675,0-3.562,2.4-3.562s2.4,2.887,2.4,3.563-.013,3.55-2.4,3.55-2.4-2.863-2.4-3.55m3.888,0c0-1.312-.25-2.725-1.487-2.725-1.3,0-1.488,1.563-1.488,2.725,0,1.225.213,2.725,1.488,2.725,1.237,0,1.487-1.425,1.487-2.725" transform="translate(-88.246 -27.729)" fill="#646464"/><path d="M550.432,176.553c1.288-.138,4.324-.5,4.324-4.075a3.568,3.568,0,0,0-3.737-3.85c-.112,1.45-.362,4.525-1.65,6.588a2.569,2.569,0,0,1-2.1,1.45c-1.225,0-2.25-1.45-2.25-3.513a5.421,5.421,0,0,1,5.775-5.575c4.049,0,5.137,2.8,5.137,4.913a5.038,5.038,0,0,1-1.675,3.913,6.494,6.494,0,0,1-3.45,1.237Zm-2.587-7.075a4.505,4.505,0,0,0-1.737,3.7c0,.85.313,2.288,1.2,2.288.525,0,.9-.462,1.225-1.012a14.479,14.479,0,0,0,1.375-5.775,4.715,4.715,0,0,0-2.062.8" transform="translate(-90.835 -27.929)" fill="#646464"/><path d="M571.148,168.266H565.9v.712h4.175v2.413H565.9v.65h4.463v1.55h.862v.85h-.862v1.6H565.9v.988a.977.977,0,0,1-1.087,1.1h-2.038l-.15-1.012,1.85.012c.35,0,.413-.138.413-.4v-.688h-4.55v-.787h4.55v-.825h-5.3v-.812h5.3V172.8h-4.513v-.762h4.513v-.65h-4.15v-2.413h4.15v-.712H559.71v-.85h5.175v-.887H565.9v.887h5.25Zm-6.263,1.45H561.76v.938h3.125Zm4.15,0H565.9v.938h3.138Zm.287,3.088H565.9v.813h3.425Zm.013,1.625H565.9v.825h3.438Z" transform="translate(-93.263 -27.754)" fill="#646464"/><path d="M585.584,177.931a11.071,11.071,0,0,1-4.662-2.688V178.1h-1v-2.849a11.5,11.5,0,0,1-4.675,2.649l-.562-.9a10.828,10.828,0,0,0,4.488-2.225H574.66v-.85h5.262v-.912h-4.387v-.8h4.387v-.875H575.21v-.825H577.9a8.593,8.593,0,0,0-.362-1.2H574.66v-.85H576.7a12.86,12.86,0,0,0-.787-1.588l1.013-.337a9.114,9.114,0,0,1,.825,1.925h1.038v-1.913h.975v1.913H581.1v-1.913h.962v1.913h1a13.457,13.457,0,0,0,.838-1.925l1.025.337a11.223,11.223,0,0,1-.812,1.588H586.2v.85h-2.913c-.163.563-.175.613-.375,1.2H585.7v.825h-4.775v.875h4.438v.8h-4.437v.912H586.2v.85h-4.513a10.08,10.08,0,0,0,4.5,2.213Zm-3.7-7.413a8.01,8.01,0,0,0,.35-1.2h-3.65c.1.35.288.938.362,1.2Z" transform="translate(-95.775 -27.757)" fill="#646464"/><path d="M592.245,167.305a27.986,27.986,0,0,0-.537,5.738,19.615,19.615,0,0,0,.387,4.363l-1.125.15a23.619,23.619,0,0,1-.35-4.6,32.767,32.767,0,0,1,.463-5.738Zm8.438,2.05v1.075h-2.338l.037,3.3a9.255,9.255,0,0,1,2.513,1.825l-.738,1.013a6.8,6.8,0,0,0-1.812-1.625v.462c0,.713-.012,2.125-2.4,2.125-1.95,0-2.675-1.137-2.675-2.15,0-1.3,1.15-2.188,2.738-2.188a4.01,4.01,0,0,1,1.288.188l-.05-2.95H593.47v-1.075h3.75l-.037-2.113h1.137l.025,2.113Zm-3.387,5.05a2.838,2.838,0,0,0-1.275-.275c-.837,0-1.75.325-1.75,1.262,0,.962.95,1.2,1.612,1.2,1.363,0,1.413-.738,1.413-1.413Z" transform="translate(-98.435 -27.869)" fill="#646464"/><path d="M606.78,178.111h-1.013v-6.4a6.019,6.019,0,0,1-.862,1.187l-.5-1.113a12.438,12.438,0,0,0,2.15-5.363l1.038.15a18.24,18.24,0,0,1-.812,2.938Zm9.4-10.213h-.975v9.075c0,.813-.325,1.137-1.125,1.137h-2.025l-.175-1.075h1.95c.237,0,.35-.037.35-.387V167.9h-6.3v-.975h8.3Zm-3.4,7.075h-4.625v-5.55h4.625Zm-.963-4.663h-2.675v3.763h2.675Z" transform="translate(-100.733 -27.737)" fill="#646464"/><path d="M625.432,176.553c1.288-.138,4.324-.5,4.324-4.075a3.568,3.568,0,0,0-3.737-3.85c-.112,1.45-.362,4.525-1.65,6.588a2.569,2.569,0,0,1-2.1,1.45c-1.225,0-2.25-1.45-2.25-3.513a5.421,5.421,0,0,1,5.775-5.575c4.049,0,5.138,2.8,5.138,4.913a5.038,5.038,0,0,1-1.675,3.913,6.494,6.494,0,0,1-3.45,1.237Zm-2.587-7.075a4.505,4.505,0,0,0-1.737,3.7c0,.85.313,2.288,1.2,2.288.525,0,.9-.462,1.225-1.012a14.479,14.479,0,0,0,1.375-5.775,4.715,4.715,0,0,0-2.062.8" transform="translate(-103.335 -27.929)" fill="#646464"/><path d="M635.066,177.406a29,29,0,0,0,2.149-7.625H635.39v-1.062h1.962c.088-.875.088-.925.15-1.65l1.212.038c-.075.637-.1.825-.2,1.613h3.438v1.063h-3.588a38.6,38.6,0,0,1-2.137,8.013Zm5.837-3.225a1.915,1.915,0,0,0-.425,1.137c0,1.1,1.45,1.15,2.9,1.15.425,0,1.362-.025,2.4-.1l.013,1.137c-.312.013-1.95.038-2.35.038-1.475,0-4.025,0-4.025-2.125a3.037,3.037,0,0,1,.588-1.65Zm4.6-2.65c-.338-.012-.713-.037-1.275-.037a9.6,9.6,0,0,0-3.425.525l-.362-.962a11.625,11.625,0,0,1,5.063-.65Z" transform="translate(-105.843 -27.844)" fill="#646464"/><path d="M652.267,167.668a14.288,14.288,0,0,0,.425,2.275,6.76,6.76,0,0,1,3.087-.888,18.088,18.088,0,0,0,.125-1.988l1.15.075c-.075,1.063-.113,1.4-.187,1.925a4.082,4.082,0,0,1,3.9,4.288c0,3.974-4.075,4.175-5.062,4.212l-.3-1.038c1.138-.05,4.25-.162,4.25-3.212a3.075,3.075,0,0,0-2.95-3.275,13.02,13.02,0,0,1-1.437,4.525,3.667,3.667,0,0,1-2.925,2.163c-1.638,0-2.113-1.6-2.113-2.663a4.733,4.733,0,0,1,1.638-3.55,21.221,21.221,0,0,1-.588-2.675Zm-.075,3.9a3.953,3.953,0,0,0-.937,2.55c0,1.237.637,1.575,1.138,1.575a2.17,2.17,0,0,0,1.512-.9,9.5,9.5,0,0,1-1.712-3.224m3.5-1.55a5.847,5.847,0,0,0-2.725.9,9.783,9.783,0,0,0,1.463,3.113,12.6,12.6,0,0,0,1.262-4.013" transform="translate(-108.37 -27.844)" fill="#646464"/><path d="M667.587,167.453a24.031,24.031,0,0,0-.562,5.663,18.574,18.574,0,0,0,.388,4.438l-1.213.1a24.952,24.952,0,0,1-.325-4.363,28.611,28.611,0,0,1,.525-5.938Zm3.188,5.363a3.016,3.016,0,0,0-.625,1.687c0,1.138,1.275,1.288,2.612,1.288a26.83,26.83,0,0,0,2.863-.15v1.175c-.425.038-1.3.113-2.363.113-1.85,0-4.162-.175-4.162-2.325a4.187,4.187,0,0,1,.662-2.1Zm4.588-3.35h-5.875v-1.1h5.875Z" transform="translate(-110.978 -27.892)" fill="#646464"/><path d="M679.345,172.966A11.023,11.023,0,0,0,682.582,169l.888.45a14.164,14.164,0,0,1-1.325,2.175V178.1h-1.063v-5.213a11.146,11.146,0,0,1-1.337,1.225Zm.037-3.663a7.692,7.692,0,0,0,2.838-2.925l.888.413a9.614,9.614,0,0,1-3.175,3.512Zm11.788,2.188h-2.013v5.588c0,.713-.225,1.025-1.112,1.025H685.9l-.188-1.138,2.025.025c.263,0,.375-.05.375-.35v-5.15h-4.5v-1.012h7.563Zm-.487-3.475h-6.55v-.975h6.55Z" transform="translate(-113.223 -27.729)" fill="#646464"/><path d="M697.705,176.685c2.287-.038,5.962-.149,5.962-3.387,0-1.938-1.2-2.175-2.212-2.175a43.913,43.913,0,0,0-4.888.638l-.138-1.225c.8-.063,4.325-.462,5.038-.462,1.6,0,3.413.337,3.413,3.137,0,4.374-4.525,4.512-6.862,4.575Zm5.938-7.8A19.445,19.445,0,0,0,697.83,168l.138-1.05a22,22,0,0,1,5.975.838Z" transform="translate(-116.07 -27.824)" fill="#646464"/><path d="M602.932,198.553c1.287-.138,4.324-.5,4.324-4.075a3.568,3.568,0,0,0-3.737-3.85c-.112,1.45-.362,4.525-1.65,6.588a2.569,2.569,0,0,1-2.1,1.45c-1.225,0-2.25-1.45-2.25-3.512a5.421,5.421,0,0,1,5.775-5.575c4.049,0,5.138,2.8,5.138,4.913a5.038,5.038,0,0,1-1.675,3.913,6.494,6.494,0,0,1-3.45,1.237Zm-2.588-7.075a4.505,4.505,0,0,0-1.737,3.7c0,.85.313,2.287,1.2,2.287.525,0,.9-.462,1.225-1.012a14.479,14.479,0,0,0,1.375-5.775,4.715,4.715,0,0,0-2.062.8" transform="translate(-99.585 -31.596)" fill="#646464"/><path d="M612.671,199.091a27.445,27.445,0,0,0,2.162-6.725l-1.987.013V191.3h2.175c.124-.788.188-1.275.287-2.25l1.213.05c-.149.988-.2,1.275-.363,2.2h1.35c1.487,0,2.725.325,2.725,3.225a11.273,11.273,0,0,1-.6,3.774,2.062,2.062,0,0,1-2.175,1.25,12.161,12.161,0,0,1-1.475-.087l-.05-1.15a6.9,6.9,0,0,0,1.363.15c.837,0,1.174-.275,1.437-1.113a10.268,10.268,0,0,0,.375-2.875c0-2.088-.687-2.162-2.2-2.137l-.949.012a31.556,31.556,0,0,1-2.2,7.225Zm9.662-3.375a8.441,8.441,0,0,0-1.775-4.975l.925-.512a8.7,8.7,0,0,1,2.05,5.275Z" transform="translate(-102.11 -31.508)" fill="#646464"/><path d="M630.385,190.215a3.972,3.972,0,0,1,2.787-1.087,2.925,2.925,0,0,1,3.2,2.75c0,1.163-.737,1.763-1.675,2.525-.85.688-.912.988-.912,2.325h-1.112c0-1.413.05-2.013,1.263-3.025.962-.8,1.287-1.088,1.287-1.825a1.841,1.841,0,0,0-2.037-1.712,3.4,3.4,0,0,0-2.425,1.1Zm2.188,7.575h1.337v1.388h-1.337Z" transform="translate(-105.063 -31.521)" fill="#646464"/><path d="M547.585,222.141h-1.013v-5.063a11.639,11.639,0,0,1-1.713,1.325l-.424-1.025A9.048,9.048,0,0,0,548.1,213.5h-3.5v-.937h1.974v-2.038h1.013v2.038H549.2v.95a8.752,8.752,0,0,1-1.363,2.213,9.021,9.021,0,0,0,1.8,1.637l-.562.912a8.438,8.438,0,0,1-1.487-1.5Zm5.537-11.613v3.613h2.75v1.025h-2.75v5.5h3.037v1.025h-7.287v-1.025h3.2v-5.5H549.46v-1.025h2.612v-3.613Z" transform="translate(-90.738 -35.088)" fill="#646464"/><path d="M568.7,214.9h-6.612v-.7a14.507,14.507,0,0,1-2.225,1.163l-.513-1.013a11.119,11.119,0,0,0,5.463-3.987h1.112a12.1,12.1,0,0,0,5.463,4.025l-.55,1a13.5,13.5,0,0,1-2.138-1.175Zm-1.1,2.963a18.283,18.283,0,0,1,3.062,3.712l-.9.6c-.2-.338-.35-.575-.613-.963-2.088.3-7.187.526-9.113.526l-.112-1.025h1.725a21.384,21.384,0,0,0,1.537-3.238h-3.425v-.962H570.92v.962H564.4a33.991,33.991,0,0,1-1.613,3.213c.313-.013,1.713-.05,1.975-.062,1.525-.062,2.813-.176,3.737-.263a23.206,23.206,0,0,0-1.725-1.937Zm.7-3.913a12.8,12.8,0,0,1-2.925-2.7,11.626,11.626,0,0,1-2.9,2.7Z" transform="translate(-93.223 -35.06)" fill="#646464"/><path d="M582.2,210.62a10.525,10.525,0,0,1-.412,1.725h4.188c-.062,5.713-.062,6.025-.287,7.8s-.85,1.975-1.875,1.975h-1.75l-.2-1.075,1.813.012c.5,0,.775-.025.962-.875a46.408,46.408,0,0,0,.313-6.863h-3.512a10.14,10.14,0,0,1-1.5,2.587l-.7-.625V221.3H575.05v-8.95h1.313a8.113,8.113,0,0,0,.487-1.825l1.025.113a10.535,10.535,0,0,1-.512,1.712h1.875v2.688a9.319,9.319,0,0,0,1.925-4.55Zm-3.937,2.675h-2.238v2.95h2.238Zm0,3.863h-2.238v3.175h2.238Zm4.425,1.688a15.456,15.456,0,0,0-1.838-3.3l.85-.538a16.643,16.643,0,0,1,1.963,3.25Z" transform="translate(-95.84 -35.08)" fill="#646464"/><path d="M596.256,212.661v1.05h-2.838a25.639,25.639,0,0,1-2.187,6.5l-1.151-.5a19.577,19.577,0,0,0,2.213-6h-2.112v-1.05h2.312c.138-.863.175-1.138.225-1.638l1.188.05c-.1.6-.112.675-.274,1.588Zm2.174,4.963a8.43,8.43,0,0,1,2.663,1.913l-.687.987a7.2,7.2,0,0,0-2.025-1.7v.512c0,1.849-1.262,2.3-2.5,2.3-1.875,0-2.8-1.037-2.8-2.2,0-.937.725-2.325,2.937-2.325a5.393,5.393,0,0,1,1.3.15l-.075-2.675h1.125Zm-1.087.675a3.558,3.558,0,0,0-1.325-.237c-1.274,0-1.875.637-1.875,1.337,0,1.262,1.537,1.262,1.775,1.262,1.238,0,1.425-.675,1.425-1.524Zm3.013-3.663a17.955,17.955,0,0,0-3.325-1.625l.438-.925a19.351,19.351,0,0,1,3.412,1.55Z" transform="translate(-98.345 -35.17)" fill="#646464"/><path d="M609.055,211.618a20.752,20.752,0,0,1-3.175,9.487l-1.1-.588a19.385,19.385,0,0,0,3.087-9.074Zm5.1,9.262a28.668,28.668,0,0,0-3-9l1.05-.5a29.386,29.386,0,0,1,3.188,9.2Zm2.65-9.274a1.738,1.738,0,1,1-1.737-1.738,1.734,1.734,0,0,1,1.737,1.738m-2.7,0a.963.963,0,1,0,.963-.962.971.971,0,0,0-.963.962" transform="translate(-100.796 -34.978)" fill="#646464"/><rect width="10.749" height="1.187" transform="translate(516.785 180.64)" fill="#646464"/><path d="M639.055,211.618a20.753,20.753,0,0,1-3.175,9.487l-1.1-.588a19.385,19.385,0,0,0,3.088-9.074Zm5.1,9.262a28.668,28.668,0,0,0-3-9l1.05-.5a29.39,29.39,0,0,1,3.188,9.2Zm2.65-9.274a1.737,1.737,0,1,1-1.738-1.738,1.734,1.734,0,0,1,1.738,1.738m-2.7,0a.962.962,0,1,0,.962-.962.971.971,0,0,0-.962.962" transform="translate(-105.795 -34.978)" fill="#646464"/><path d="M658.968,211.893a13.488,13.488,0,0,1-2.387,5.138,48.879,48.879,0,0,1,4.25,3.75l-.95.9a44.358,44.358,0,0,0-3.987-3.8,15.478,15.478,0,0,1-5.063,3.849l-.675-.925a13.136,13.136,0,0,0,4.675-3.374,12.86,12.86,0,0,0,2.663-4.475H650.78v-1.063Z" transform="translate(-108.358 -35.315)" fill="#646464"/><path d="M667.245,211.305a27.985,27.985,0,0,0-.538,5.738,19.608,19.608,0,0,0,.388,4.363l-1.125.15a23.619,23.619,0,0,1-.35-4.6,32.784,32.784,0,0,1,.462-5.738Zm8.438,2.05v1.075h-2.337l.038,3.3a9.255,9.255,0,0,1,2.513,1.825l-.738,1.012a6.8,6.8,0,0,0-1.812-1.625v.462c0,.713-.013,2.125-2.4,2.125-1.95,0-2.675-1.138-2.675-2.15,0-1.3,1.15-2.188,2.737-2.188a4.009,4.009,0,0,1,1.288.188l-.05-2.95H668.47v-1.075h3.75l-.038-2.113h1.138l.025,2.113Zm-3.387,5.05a2.837,2.837,0,0,0-1.275-.275c-.838,0-1.75.325-1.75,1.262,0,.962.95,1.2,1.612,1.2,1.362,0,1.413-.738,1.413-1.413Z" transform="translate(-110.935 -35.203)" fill="#646464"/><path d="M682.885,212.215a3.972,3.972,0,0,1,2.787-1.087,2.925,2.925,0,0,1,3.2,2.75c0,1.163-.738,1.762-1.675,2.525-.85.688-.912.988-.912,2.325h-1.113c0-1.413.05-2.013,1.263-3.025.962-.8,1.287-1.087,1.287-1.825a1.841,1.841,0,0,0-2.038-1.713,3.4,3.4,0,0,0-2.425,1.1Zm2.188,7.575h1.338v1.388h-1.338Z" transform="translate(-113.813 -35.188)" fill="#646464"/><path d="M246.081,387.3a5.925,5.925,0,1,1-5.925-5.925,5.922,5.922,0,0,1,5.925,5.925m-11.413,0a5.488,5.488,0,1,0,5.488-5.488,5.495,5.495,0,0,0-5.488,5.488m7.825,2.563v.825h-4.912c1.1-1.125,2-2.1,2.663-2.9a3.32,3.32,0,0,0,1.037-2.062,1.142,1.142,0,0,0-1.175-1.175,2.111,2.111,0,0,0-1.75,1.087l-.387-.862a2.6,2.6,0,0,1,2.125-1.062,1.952,1.952,0,0,1,2.1,1.987c0,1.188-.675,1.988-2.7,4.163Z" transform="translate(-39.038 -63.562)" fill="#646464"/><path d="M255.183,391.553c1.288-.137,4.324-.5,4.324-4.075a3.568,3.568,0,0,0-3.737-3.85c-.113,1.45-.363,4.525-1.65,6.588a2.569,2.569,0,0,1-2.1,1.45c-1.225,0-2.25-1.45-2.25-3.513a5.421,5.421,0,0,1,5.775-5.575c4.049,0,5.138,2.8,5.138,4.913a5.038,5.038,0,0,1-1.675,3.912,6.494,6.494,0,0,1-3.45,1.237Zm-2.587-7.075a4.505,4.505,0,0,0-1.738,3.7c0,.85.313,2.287,1.2,2.287.525,0,.9-.462,1.225-1.012a14.479,14.479,0,0,0,1.375-5.775,4.715,4.715,0,0,0-2.062.8" transform="translate(-41.628 -63.762)" fill="#646464"/><path d="M268.376,390.845a33.536,33.536,0,0,1-4.013,1.3l-.163-1.025c.438-.1,1.125-.3,1.7-.45v-3.65h-1.412v-.975H265.9v-2.862h-1.537v-.963h4v.963H266.9v2.862h1.237v.975H266.9v3.337c.612-.212,1-.362,1.462-.537Zm7.2-8.912v5.875h-2.9v1.425H275.7v.924h-3.025v1.763h3.249v.938h-7.937v-.937H271.7v-1.763h-3v-.924h3v-1.425h-2.913v-5.875Zm-3.874.9h-1.95v1.612h1.95Zm0,2.449h-1.95v1.638h1.95Zm2.913-2.449h-1.937v1.612h1.938Zm0,2.449h-1.937v1.638h1.938Z" transform="translate(-44.033 -63.655)" fill="#646464"/><path d="M284,386.9a10.8,10.8,0,0,1-1.3-1.649v3.513h-.913v-3.65a10.565,10.565,0,0,1-2.012,2.674l-.512-.887a10.5,10.5,0,0,0,2.5-3.1h-2.325v-.9h2.349v-1.362h.913V382.9h1.937v.9H282.7v.313a8.763,8.763,0,0,0,1.862,1.988Zm-4.7,5.225a5.736,5.736,0,0,0,1.362-2.612l.949.262a7.332,7.332,0,0,1-1.524,3.025Zm4.012-2.313V391.5c0,.45.075.55.65.55h2.35c.687,0,.687-.062.938-1.488l.95.275c-.187,1.363-.375,2.163-1.412,2.163h-3.538a.806.806,0,0,1-.949-.837v-2.35Zm2.425,1.125a9.655,9.655,0,0,0-2.062-1.737l.649-.725a10.863,10.863,0,0,1,2.112,1.725Zm4.675-2.337h-5.15v-6.687h5.15Zm-.95-5.825h-3.25v1.063h3.25Zm0,1.851h-3.25v1.1h3.25Zm0,1.887h-3.25v1.238h3.25Zm.725,6.175a10.918,10.918,0,0,0-1.837-2.875l.775-.487a11.672,11.672,0,0,1,1.925,2.737Z" transform="translate(-46.543 -63.59)" fill="#646464"/><path d="M296.539,393.132h-1V386.72a6.882,6.882,0,0,1-.8,1.1l-.538-1.176a10.794,10.794,0,0,0,2.175-5.162l1.025.163a15.553,15.553,0,0,1-.862,3.012Zm.537-2.962a9.048,9.048,0,0,0,3.775-1.8c-.187-.237-.3-.35-.375-.438a10.15,10.15,0,0,1-3.15,1.338l-.312-.812a8.167,8.167,0,0,0,3.538-1.537h-2.663v-2.113c-.137.087-.225.138-.5.288l-.488-.812a6.6,6.6,0,0,0,2.875-2.788l1.012.175a6.125,6.125,0,0,1-.362.612h3.488v.825a10.292,10.292,0,0,1-.862.887h2.474v2.925h-2.912a9.177,9.177,0,0,0,.525,1.374,10.17,10.17,0,0,0,1.612-1.125l.713.651a8.9,8.9,0,0,1-1.925,1.224,8.059,8.059,0,0,0,2.425,2.65l-.538.95a10.808,10.808,0,0,1-3.625-5.724h-.05a7.2,7.2,0,0,1-.612.549,5.415,5.415,0,0,1,1.612,3.75c0,1.05-.375,1.875-1.675,1.875h-1.2l-.175-.95,1.25.012c.425,0,.862-.05.862-1.012a4.881,4.881,0,0,0-.062-.725,12.806,12.806,0,0,1-4.475,2.287l-.325-.788a12,12,0,0,0,4.575-2.324,3.225,3.225,0,0,0-.275-.6,10.8,10.8,0,0,1-3.875,1.975Zm4.175-5.4h-2.463v1.363h2.463Zm-1.413-1.687a9.94,9.94,0,0,1-.875.912h2.875a6.6,6.6,0,0,0,.863-.912Zm4.775,1.687h-2.488v1.363h2.488Z" transform="translate(-49.033 -63.58)" fill="#646464"/><path d="M315.184,391.553c1.288-.137,4.324-.5,4.324-4.075a3.568,3.568,0,0,0-3.737-3.85c-.112,1.45-.362,4.525-1.65,6.588a2.569,2.569,0,0,1-2.1,1.45c-1.225,0-2.25-1.45-2.25-3.513a5.421,5.421,0,0,1,5.775-5.575c4.049,0,5.138,2.8,5.138,4.913a5.038,5.038,0,0,1-1.675,3.912,6.494,6.494,0,0,1-3.45,1.237Zm-2.587-7.075a4.505,4.505,0,0,0-1.738,3.7c0,.85.313,2.287,1.2,2.287.525,0,.9-.462,1.225-1.012a14.479,14.479,0,0,0,1.375-5.775,4.715,4.715,0,0,0-2.062.8" transform="translate(-51.628 -63.762)" fill="#646464"/><path d="M326.008,385.565v-.887h3.6v-.887h1.013v.887H334.3v.887h-3.675v1.075h4.125v.863H330.6a6.858,6.858,0,0,1-.187,1.137h5.525v.925h-4.65c.65.975,1.675,2,4.663,2.575l-.4,1.037c-2.875-.675-4.525-1.962-5.337-3.612h-.125c-.375.825-1.275,2.613-5.313,3.575l-.45-1.025c2.45-.488,3.975-1.275,4.675-2.55h-4.588v-.925h4.95a5.535,5.535,0,0,0,.212-1.137h-3.987v-.863h4.024v-1.075Zm4.7-4.037v.95h4.95v2.6h-1.037v-1.65h-8.913v1.65h-1.024v-2.6h4.924v-.95Z" transform="translate(-54.053 -63.587)" fill="#646464"/><path d="M343.466,390.542A25.484,25.484,0,0,1,339.4,391.8l-.187-1.012a12.023,12.023,0,0,0,1.537-.375v-3.324h-1.325v-.962h1.325v-2.937h-1.387v-.95h3.888v.95h-1.5v2.938h1.275v.962h-1.275v3.038a12.809,12.809,0,0,0,1.538-.538Zm7.088-8.549v7.049h-2.113v2.675c0,.275.025.4.388.4h.725c.2,0,.337-.062.387-.238a10.7,10.7,0,0,0,.138-1.574l.975.2c-.113,2.25-.375,2.6-1.125,2.6h-1.55c-.487,0-.95-.1-.95-1v-3.063h-1.075c-.45,2.325-1.562,3.413-4.013,4.213l-.487-.988c2.675-.75,3.3-1.962,3.488-3.225h-1.525v-7.049Zm-1.013.888h-4.725v1.2h4.725Zm0,2.037h-4.725v1.188h4.725Zm0,2.024h-4.725v1.212h4.725Z" transform="translate(-56.535 -63.665)" fill="#646464"/><path d="M357.339,382.453a24.021,24.021,0,0,0-.562,5.662,18.573,18.573,0,0,0,.387,4.438l-1.212.1a24.945,24.945,0,0,1-.325-4.363,28.6,28.6,0,0,1,.525-5.937Zm3.188,5.362a3.02,3.02,0,0,0-.625,1.688c0,1.137,1.275,1.287,2.612,1.287a26.6,26.6,0,0,0,2.863-.15v1.175c-.425.038-1.3.113-2.363.113-1.85,0-4.162-.175-4.162-2.325a4.186,4.186,0,0,1,.662-2.1Zm4.588-3.35h-5.875v-1.1h5.875Z" transform="translate(-59.27 -63.725)" fill="#646464"/><path d="M380.581,392c0,.887-.413,1.1-1.2,1.1h-1.85l-.163-1.075,1.725.013c.362,0,.425-.15.425-.463v-7.537h-8.463V393.1h-1.075V383.073h3.813a8.666,8.666,0,0,0,.575-1.725l1.112.212a10.557,10.557,0,0,1-.575,1.512h5.675Zm-2.55-1.35h-5.55V385.66h5.55Zm-.962-4.087h-3.613v3.175h3.613Z" transform="translate(-61.663 -63.557)" fill="#646464"/><path d="M387.023,382.329a34.036,34.036,0,0,0-.437,5.425,20.869,20.869,0,0,0,.438,4.587l-1.175.15a22.564,22.564,0,0,1-.388-4.675,41.445,41.445,0,0,1,.375-5.562Zm1.15,3.438v-1.05h4.449c-.012-.562-.037-1.925-.049-2.575h1.15c0,.413.038,2.2.05,2.575l2.024-.012v1.063h-2.013c.063,3.825-.149,6.513-4.324,7.038l-.413-1.025c3.025-.487,3.674-1.5,3.587-6.013Z" transform="translate(-64.243 -63.689)" fill="#646464"/><path d="M401.951,394.324a18.114,18.114,0,0,0-2.075-2.587l.95-.7a19.713,19.713,0,0,1,2.225,2.512Z" transform="translate(-66.645 -65.172)" fill="#646464"/><path d="M233.586,415.141h-1.012v-5.062a11.637,11.637,0,0,1-1.713,1.325l-.424-1.025A9.048,9.048,0,0,0,234.1,406.5h-3.5v-.937h1.974v-2.037h1.012v2.037H235.2v.95a8.752,8.752,0,0,1-1.363,2.212,9.017,9.017,0,0,0,1.8,1.638l-.562.913a8.441,8.441,0,0,1-1.488-1.5Zm5.538-11.613v3.612h2.75v1.025h-2.75v5.5h3.038v1.025h-7.288v-1.025h3.2v-5.5h-2.612v-1.025h2.612v-3.612Z" transform="translate(-38.406 -67.254)" fill="#646464"/><path d="M249.791,413.857a12.132,12.132,0,0,1-3.75,1.375l-.5-.975a9.534,9.534,0,0,0,3.575-1.125Zm6.538-.8h-9.838v-5.513h9.838Zm-.388-6.288h-9.025v-2.763h9.025Zm-8.45,2.375h7.837v-.825h-7.837Zm0,1.538h7.837v-.837h-7.837Zm0,1.575h7.837v-.85h-7.837Zm.438-6.262h7v-1.187h-7Zm5.7,7.137a9.207,9.207,0,0,0,3.687,1.088l-.487,1a11.21,11.21,0,0,1-3.875-1.388Z" transform="translate(-40.923 -67.334)" fill="#646464"/><path d="M266.434,413.553c1.288-.137,4.324-.5,4.324-4.075a3.568,3.568,0,0,0-3.737-3.85c-.112,1.45-.362,4.525-1.65,6.588a2.569,2.569,0,0,1-2.1,1.45c-1.225,0-2.25-1.45-2.25-3.513a5.421,5.421,0,0,1,5.775-5.575c4.049,0,5.138,2.8,5.138,4.912a5.038,5.038,0,0,1-1.675,3.913,6.494,6.494,0,0,1-3.45,1.237Zm-2.587-7.075a4.505,4.505,0,0,0-1.738,3.7c0,.85.313,2.287,1.2,2.287.525,0,.9-.462,1.225-1.012a14.479,14.479,0,0,0,1.375-5.775,4.714,4.714,0,0,0-2.062.8" transform="translate(-43.503 -67.429)" fill="#646464"/><path d="M277.761,415.135h-1V408.76a7.331,7.331,0,0,1-.812,1.124l-.513-1.15a10.031,10.031,0,0,0,2.038-5.237l1.05.138a13.307,13.307,0,0,1-.762,3.013Zm9.45-10.238h-2.75v2.251h2.325v7.737h-7.8v-7.737h2.287V404.9h-2.5v-.949h8.438Zm-5.938,3.176h-1.312v5.863h1.313Zm2.25-3.176h-1.312v2.25h1.313Zm0,3.176h-1.312v5.863h1.313Zm2.287,0h-1.35v5.863h1.35Z" transform="translate(-45.905 -67.249)" fill="#646464"/><path d="M292.681,415.14h-.988V408.7a9.22,9.22,0,0,1-.812,1.187l-.55-1.237a11.162,11.162,0,0,0,2.075-5.1l1.037.1a21.535,21.535,0,0,1-.762,2.849Zm5.7-11.612v1.062h3.813v.876h-3.812v1.012h3.137v6.574h-5.7v-6.574h1.563v-1.012h-3.625v-.876h3.625v-1.062Zm3.813,11.374h-8.35v-8.412h.962v7.524h7.388Zm-1.613-7.6h-3.837v1.025h3.837Zm0,1.863h-3.837v1.087h3.837Zm0,1.863h-3.837v1.2h3.837Z" transform="translate(-48.388 -67.254)" fill="#646464"/><path d="M311.279,404.41v.813h-2a9.018,9.018,0,0,1-.4,1.087H311.5v.826h-3.025a9.576,9.576,0,0,1-.875,1.362h1.275a6.164,6.164,0,0,0,.55-1.112l.888.251a6.006,6.006,0,0,1-.488.862h1.45v.75h-1.663v1.088h1.375v.724h-1.375v1.125h1.375v.725h-1.375v1.175H311.1v.825h-4.675V409.8c-.287.262-.4.349-.65.55l-.312-1a6.668,6.668,0,0,0,2.013-2.212h-1.888v-.826h2.325a10.526,10.526,0,0,0,.413-1.087h-.95a5.705,5.705,0,0,1-.788,1.075l-.75-.637a6.541,6.541,0,0,0,1.35-2.237l.925.237a5.215,5.215,0,0,1-.3.75Zm-2.525,4.837h-1.413v1.088h1.413Zm0,1.813h-1.413v1.125h1.413Zm0,1.85h-1.413v1.175h1.413Zm7.962-1.938h-1.3v2.75c0,.2,0,.313.212.313h.275a.246.246,0,0,0,.275-.2,5.367,5.367,0,0,0,.1-1.413l.875.2c-.05,2.287-.487,2.375-1.038,2.375h-.851c-.662,0-.812-.263-.812-.812v-3.213h-.713c-.225,2.375-.875,3.387-2,4.125l-.538-.888c.538-.325,1.487-1.075,1.6-3.238h-.837v-7.112h4.75Zm-.963-6.237H312.9v1.188h2.849Zm0,2.013H312.9v1.225h2.849Zm0,2.038H312.9v1.325h2.849Z" transform="translate(-50.91 -67.236)" fill="#646464"/><path d="M325.2,414.817a56.9,56.9,0,0,0-1.537-6.512,20.488,20.488,0,0,0-2.125.912l-.413-1.15c.363-.112,1.913-.663,2.237-.774-.5-1.575-.55-1.75-.85-2.512l1.15-.312c.163.475.225.675.762,2.462.113-.037,1.275-.437,2.538-.787a12.588,12.588,0,0,0-1.013-1.675l.975-.4a9.61,9.61,0,0,1,1.138,1.825,6.509,6.509,0,0,1,1.025-.087,2.707,2.707,0,0,1,2.8,2.762c0,1.8-1.424,2.838-3.237,2.838a5.112,5.112,0,0,1-1.85-.35l.125-1.062a4.184,4.184,0,0,0,1.663.337,1.938,1.938,0,0,0,2.162-1.837,1.657,1.657,0,0,0-1.812-1.687,14.8,14.8,0,0,0-4.225,1.1c.487,1.662.612,2.162,1.737,6.624Z" transform="translate(-53.52 -67.344)" fill="#646464"/><path d="M335.346,409.965A11.027,11.027,0,0,0,338.583,406l.888.45a14.143,14.143,0,0,1-1.325,2.174V415.1h-1.062v-5.212a11.2,11.2,0,0,1-1.338,1.224Zm.037-3.663a7.69,7.69,0,0,0,2.838-2.924l.887.412a9.621,9.621,0,0,1-3.175,3.513Zm11.788,2.188h-2.012v5.588c0,.712-.226,1.025-1.112,1.025H341.9l-.188-1.138,2.025.025c.262,0,.375-.05.375-.35v-5.15h-4.5v-1.012h7.563Zm-.487-3.474h-6.55v-.975h6.55Z" transform="translate(-55.89 -67.229)" fill="#646464"/><path d="M357.551,407.077v-1h1.125v-2.55h1.013v2.55h2.275c0,1.724-.038,5.762-.238,7.249-.2,1.45-.537,1.788-1.538,1.788h-1.262l-.2-1.013,1.225.025c.488.013.638-.2.7-.7a59.161,59.161,0,0,0,.325-6.35h-1.287a20.406,20.406,0,0,1-.538,4.613,8.018,8.018,0,0,1-1.7,3.437l-.9-.637c.088-.1.2-.263.263-.325-1.288.237-4.2.538-6.087.638l-.125-.937c.512-.013,1.387-.05,2.938-.175v-1.025h-2.625v-.775h2.625V411.1h-2.513V407h2.513v-.713h-2.913V405.5h2.913v-.75c-1.525.088-2.113.1-2.6.112l-.175-.775a25.1,25.1,0,0,0,5.7-.562l.413.762a19.487,19.487,0,0,1-2.45.387v.826h2.862v.787h-2.862V407h2.55v4.1h-2.55v.788h2.7v.775h-2.7v.95c.875-.075,1.875-.212,2.7-.325v.425a8.269,8.269,0,0,0,1.313-3.788,18.17,18.17,0,0,0,.237-2.85Zm-4.013.663h-1.6v.975h1.6Zm0,1.649h-1.6v.988h1.6Zm2.512-1.649h-1.625v.975h1.625Zm0,1.649h-1.625v.988h1.625Z" transform="translate(-58.433 -67.254)" fill="#646464"/><path d="M368.246,404.3a27.99,27.99,0,0,0-.538,5.738,19.611,19.611,0,0,0,.388,4.363l-1.125.15a23.624,23.624,0,0,1-.35-4.6,32.781,32.781,0,0,1,.462-5.737Zm8.438,2.05v1.075h-2.338l.038,3.3a9.254,9.254,0,0,1,2.513,1.825l-.737,1.013a6.8,6.8,0,0,0-1.813-1.625v.462c0,.713-.012,2.125-2.4,2.125-1.95,0-2.675-1.138-2.675-2.15,0-1.3,1.15-2.187,2.738-2.187a4.008,4.008,0,0,1,1.288.188l-.05-2.95h-3.775v-1.075h3.75l-.037-2.112h1.137l.025,2.112ZM373.3,411.4a2.838,2.838,0,0,0-1.275-.275c-.838,0-1.75.325-1.75,1.262,0,.963.95,1.2,1.613,1.2,1.363,0,1.413-.738,1.413-1.413Z" transform="translate(-61.103 -67.369)" fill="#646464"/><path d="M390.921,408.02c-1.013.113-7.763.876-7.763,3.65,0,1.45,1.526,1.588,4.213,1.588a34.749,34.749,0,0,0,3.937-.188l.025,1.175c-.812.05-1.912.125-3.712.125-2.163,0-5.625,0-5.625-2.663,0-2.137,2.575-3.212,3.451-3.587-.413-.813-.426-1.388-.476-4.2H386.2c-.012.337-.025.688-.025,1.3a5.468,5.468,0,0,0,.325,2.525,29.121,29.121,0,0,1,4.313-.926Zm-1.575-4.574a11.008,11.008,0,0,1,1.162,2.4l-.9.475a10.146,10.146,0,0,0-1.1-2.45Zm1.987-.413a11.022,11.022,0,0,1,1.163,2.413l-.887.475a10.411,10.411,0,0,0-1.113-2.45Z" transform="translate(-63.665 -67.171)" fill="#646464"/><path d="M398.706,413.685c2.287-.037,5.962-.149,5.962-3.387,0-1.937-1.2-2.175-2.212-2.175a43.917,43.917,0,0,0-4.888.637l-.138-1.225c.8-.062,4.325-.463,5.038-.463,1.6,0,3.413.338,3.413,3.138,0,4.374-4.525,4.512-6.863,4.575Zm5.938-7.8a19.443,19.443,0,0,0-5.812-.888l.137-1.05a22,22,0,0,1,5.975.837Z" transform="translate(-66.238 -67.324)" fill="#646464"/><path d="M280.426,429.68a8.661,8.661,0,0,1,1.813-.187c3.038,0,4.55,1.587,4.55,3.65,0,3.225-3.45,3.413-4.625,3.475l-.288-1.037c1.825-.05,3.775-.475,3.775-2.538,0-1.825-1.5-2.25-2.313-2.488-1.425,5.188-4.275,5.463-4.949,5.463a2.059,2.059,0,0,1-2.038-2.275,4.085,4.085,0,0,1,3-3.75c-.013-.375-.013-.675-.013-1.65H276.7v-1.025h2.637v-1.25h1.1v1.25h5.975v1.025h-5.988Zm-1.037,1.337a3.192,3.192,0,0,0-2.024,2.65,1.161,1.161,0,0,0,1.113,1.312,2.626,2.626,0,0,0,1.5-.525,14.1,14.1,0,0,1-.587-3.438m2.962-.587a5.985,5.985,0,0,0-1.913.225,12.678,12.678,0,0,0,.388,3.013,9.01,9.01,0,0,0,1.525-3.238" transform="translate(-46.058 -71.01)" fill="#646464"/><path d="M299.334,427.41c-.275.2-.662.512-.975.762-1.6,1.288-1.775,1.425-2.6,2.075a6.658,6.658,0,0,1,2.237-.425,3,3,0,0,1,3.312,3.138c0,2.45-2.1,3.713-4.437,3.713-1.987,0-3.225-.888-3.225-2.075a1.921,1.921,0,0,1,2.113-1.762,3.054,3.054,0,0,1,2.987,2.45,2.409,2.409,0,0,0,1.45-2.3c0-.663-.2-2.225-2.6-2.225-2.213,0-3.838,1.237-5.55,2.863l-.649-.937c.962-.75,3.824-3.05,6.174-5.163-2.125.15-2.863.175-4.9.213V426.66c2.65,0,3.675-.013,6.662-.187Zm-3.612,6.337c-.763,0-1.087.487-1.087.825,0,.612.8,1.212,2.2,1.212a3.647,3.647,0,0,0,.975-.113,2.151,2.151,0,0,0-2.088-1.925" transform="translate(-48.566 -71.078)" fill="#646464"/><path d="M316.434,435.058a58.082,58.082,0,0,1-4.6-4.325c-1.212-1.225-1.512-1.375-1.888-1.375-.4,0-.687.225-1.187.825-.175.2-1.562,1.912-2.187,2.675l-.851-1.012c.451-.437,2.288-2.475,2.7-2.863a2.1,2.1,0,0,1,1.563-.762c.888,0,1.375.487,2.462,1.538.638.625,2.275,2.125,3.063,2.8a21.438,21.438,0,0,0,1.75,1.387ZM313.7,426.92a11.088,11.088,0,0,1,1.675,2.163l-.8.65a10.14,10.14,0,0,0-1.625-2.2Zm1.713-1.062a11.531,11.531,0,0,1,1.675,2.163l-.8.662a10.151,10.151,0,0,0-1.613-2.212Z" transform="translate(-50.953 -70.975)" fill="#646464"/><path d="M331.7,430.784a30.121,30.121,0,0,1-3.375.35,9.5,9.5,0,0,0,1.337,2.087l-.975.675a10.974,10.974,0,0,1-1.575-2.712c-.337.025-1.3.037-1.738.037l-3.95-.025v-1.012l3.8.05c.375,0,.788,0,1.525-.025a14.626,14.626,0,0,1-.412-1.488c-.45.013-.888.025-1.338.025l-3.125-.012v-1.012l3,.012c.4,0,.487,0,1.262-.012a14.888,14.888,0,0,1-.2-1.538l1.2-.013c.038.563.075.938.163,1.5a30,30,0,0,0,3.375-.351l.1,1.05a30.653,30.653,0,0,1-3.288.313,11.2,11.2,0,0,0,.438,1.487,21.126,21.126,0,0,0,3.65-.425Zm-7.45,2.238a1.782,1.782,0,0,0-.625,1.125c0,1.287,2.175,1.413,3.975,1.413,1.438,0,2.25-.075,2.85-.125l.025,1.1c-.613.05-1.1.087-2.538.087-2.425,0-3.338-.175-4.075-.5a2.1,2.1,0,0,1-1.388-1.812,2.51,2.51,0,0,1,.925-1.85Z" transform="translate(-53.57 -71.028)" fill="#646464"/><path d="M336.172,436.091a27.44,27.44,0,0,0,2.162-6.725l-1.987.013V428.3h2.175c.124-.787.187-1.275.287-2.25l1.212.05c-.148.987-.2,1.275-.362,2.2h1.35c1.487,0,2.726.325,2.726,3.225a11.292,11.292,0,0,1-.6,3.774,2.064,2.064,0,0,1-2.176,1.25,12.158,12.158,0,0,1-1.474-.087l-.05-1.15a6.886,6.886,0,0,0,1.362.15c.837,0,1.174-.275,1.437-1.112a10.232,10.232,0,0,0,.376-2.875c0-2.087-.688-2.162-2.2-2.137l-.948.013a31.606,31.606,0,0,1-2.2,7.225Zm9.662-3.375a8.442,8.442,0,0,0-1.776-4.975l.926-.512a8.707,8.707,0,0,1,2.05,5.275Z" transform="translate(-56.028 -71.008)" fill="#646464"/><path d="M353.886,427.216a3.972,3.972,0,0,1,2.787-1.088,2.924,2.924,0,0,1,3.2,2.749c0,1.163-.738,1.763-1.675,2.525-.85.688-.912.988-.912,2.325h-1.113c0-1.413.05-2.013,1.263-3.025.962-.8,1.288-1.087,1.288-1.825a1.84,1.84,0,0,0-2.038-1.712,3.4,3.4,0,0,0-2.425,1.1Zm2.188,7.574h1.337v1.388h-1.337Z" transform="translate(-58.98 -71.02)" fill="#646464"/><path d="M517.58,387.3a5.925,5.925,0,1,1-5.925-5.925,5.922,5.922,0,0,1,5.925,5.925m-11.413,0a5.488,5.488,0,1,0,5.488-5.487,5.494,5.494,0,0,0-5.488,5.487m5.325-3.425h.85v6.85h-.912v-5.85l-1.313.9-.125-.875Z" transform="translate(-84.287 -63.562)" fill="#646464"/><path d="M526.683,391.553c1.287-.137,4.324-.5,4.324-4.075a3.568,3.568,0,0,0-3.737-3.85c-.112,1.45-.362,4.525-1.65,6.588a2.569,2.569,0,0,1-2.1,1.45c-1.225,0-2.25-1.45-2.25-3.513a5.421,5.421,0,0,1,5.775-5.575c4.049,0,5.137,2.8,5.137,4.913a5.038,5.038,0,0,1-1.675,3.912,6.494,6.494,0,0,1-3.45,1.237Zm-2.588-7.075a4.505,4.505,0,0,0-1.737,3.7c0,.85.313,2.287,1.2,2.287.525,0,.9-.462,1.225-1.012a14.479,14.479,0,0,0,1.375-5.775,4.716,4.716,0,0,0-2.063.8" transform="translate(-86.877 -63.762)" fill="#646464"/><path d="M538.175,393.167h-1.013V386.6a5.886,5.886,0,0,1-.937,1.25l-.525-1.15a10.441,10.441,0,0,0,2.188-5.237l1.05.162a14.638,14.638,0,0,1-.763,2.85Zm5.538-8.413h3.237v3.813h-3.362a6.544,6.544,0,0,1-.7,2.125,12.019,12.019,0,0,0,4.675,1.425l-.462,1.075a12.562,12.562,0,0,1-4.825-1.687,6.684,6.684,0,0,1-3.263,1.663l-.425-.988a5.662,5.662,0,0,0,2.8-1.3,6.841,6.841,0,0,1-1.488-1.525l.85-.513a7.38,7.38,0,0,0,1.263,1.25,5.037,5.037,0,0,0,.537-1.525h-3.062v-3.812H542.7v-1.112h-3.662v-.937H542.7v-1.188h1.013v1.188h3.737v.938h-3.737Zm-1.013.9h-2.225v2.025h2.188c.013-.238.037-.538.037-1.05Zm1.013.975c0,.512-.025.813-.037,1.05h2.262v-2.025h-2.225Z" transform="translate(-89.282 -63.577)" fill="#646464"/><path d="M550.626,385.026a12.4,12.4,0,0,0,5.549-3.513h.987a12.275,12.275,0,0,0,5.463,3.524l-.513,1a15.015,15.015,0,0,1-5.463-3.625,15.48,15.48,0,0,1-5.525,3.625Zm5.187,6.949h-4.15V386.8h4.15Zm-.975-4.275h-2.2v3.375h2.2Zm-1.087-2.925h5.75v.913h-5.75Zm4.275,8.35h-1V386.8h4.487v4.087c0,.388,0,1.125-1.013,1.125h-1.575l-.163-1.025,1.362.013c.263,0,.4-.075.4-.363v-2.912h-2.5Z" transform="translate(-91.77 -63.585)" fill="#646464"/><path d="M576.148,383.243v1h-5.513a10.365,10.365,0,0,1-.824,1.8,3.723,3.723,0,0,1,2-.737,1.705,1.705,0,0,1,1.9,1.463c.287-.112,2-.8,3.125-1.187l.3,1.087c-1.013.288-1.9.563-3.275,1.088.037.438.05.975.05,1.425,0,.174,0,.55-.037.95h-1.088c.025-.288.063-.75.063-1.2,0-.213,0-.425-.026-.75-.963.45-2.474,1.25-2.474,2.275,0,1.1,1.387,1.1,2.761,1.1a30.8,30.8,0,0,0,3.3-.175l.037,1.075c-.712.05-1.8.125-2.987.125-1.412,0-4.237,0-4.237-2.013,0-1.7,2.237-2.825,3.474-3.375-.137-.737-.487-.987-1.062-.987a3.724,3.724,0,0,0-2.474,1.275c-.575.787-1.4,1.887-1.8,2.3l-.775-.838a10.848,10.848,0,0,0,2.9-4.7h-2.574v-1h2.875a9.218,9.218,0,0,0,.263-1.4l1.2.05a11.309,11.309,0,0,1-.312,1.35Z" transform="translate(-94.43 -63.64)" fill="#646464"/><path d="M592.032,392.922a11.243,11.243,0,0,1-4.874-3.45v3.737h-1.013V389.4c-.725.988-1.837,2.188-4.875,3.513l-.525-.962a9.4,9.4,0,0,0,4.663-2.976h-4.55v-.937h5.287v-1.025H581.87v-5.063h9.588v5.063h-4.3v1.025h5.3v.937h-4.625a10.043,10.043,0,0,0,4.75,2.925Zm-5.887-10.1H582.9v1.225h3.25Zm0,2.038H582.9v1.288h3.25Zm4.288-2.038h-3.275v1.225h3.275Zm0,2.038h-3.275v1.288h3.275Z" transform="translate(-96.79 -63.657)" fill="#646464"/><path d="M596.316,392.406a28.991,28.991,0,0,0,2.149-7.625H596.64v-1.062H598.6c.088-.875.088-.925.15-1.65l1.213.038c-.075.637-.1.825-.2,1.613H603.2v1.063h-3.587a38.6,38.6,0,0,1-2.137,8.013Zm5.837-3.225a1.915,1.915,0,0,0-.425,1.138c0,1.1,1.45,1.15,2.9,1.15.425,0,1.362-.025,2.4-.1l.013,1.137c-.312.013-1.95.038-2.35.038-1.475,0-4.025,0-4.025-2.125a3.038,3.038,0,0,1,.587-1.65Zm4.6-2.65c-.338-.013-.713-.038-1.275-.038a9.6,9.6,0,0,0-3.425.525l-.363-.962a11.624,11.624,0,0,1,5.063-.65Z" transform="translate(-99.385 -63.677)" fill="#646464"/><path d="M614.81,382.217c-.112,3.375-.162,4.862-.162,6.05,0,1.6.075,3.275,2.425,3.275,3.238,0,3.65-2.25,4-4.15l1.05.387c-.4,2.263-1.212,4.837-5.012,4.837-3.425,0-3.65-2.287-3.65-4.462,0-.937.075-5.088.087-5.937Z" transform="translate(-102.242 -63.702)" fill="#646464"/><path d="M636.918,384.058c-.425-.037-.788-.05-1.275-.05a3.471,3.471,0,0,0-1.262.15c-1.8.6-4.25,2.538-4.25,4.688,0,1.624,1.2,2.138,2.525,2.413a14,14,0,0,0,3.15.225l-.225,1.212c-2.463-.1-6.612-.275-6.612-3.775,0-2.374,2.188-4.012,3.662-4.874-.363.012-4.687.275-6.05.438l-.1-1.225c.749-.025,2.749-.112,3.387-.15,2.8-.15,3.95-.175,7.025-.2Z" transform="translate(-104.412 -63.817)" fill="#646464"/><path d="M643.183,382.9a24.63,24.63,0,0,0-.263,3.575c0,1.938.151,4.675,1.551,4.675.563,0,1.212-.512,2.074-2.762l.925.525a7.923,7.923,0,0,1-1.687,2.913,1.951,1.951,0,0,1-1.4.6c-2.025,0-2.588-2.8-2.588-6.05,0-1.363.125-2.725.2-3.575Zm7.65,8.338c.025-.325.05-.7.05-1.275,0-3.263-.975-5.063-2.275-6.125l.863-.663c1.487,1.25,2.775,3.012,2.6,8.013Z" transform="translate(-106.965 -63.799)" fill="#646464"/><path d="M665.035,392.775a38.83,38.83,0,0,0-5.7-3.888c-1.15-.687-1.625-.974-1.625-1.549,0-.6.425-.925,1.312-1.562a34.817,34.817,0,0,0,4.813-3.962l1.2.675a34.628,34.628,0,0,1-5.237,4.062c-.5.338-.737.563-.737.7,0,.175.137.249.525.474s2.075,1.137,2.412,1.337a27.775,27.775,0,0,1,4.1,2.837Z" transform="translate(-109.617 -63.635)" fill="#646464"/><path d="M671.316,392.406a29,29,0,0,0,2.149-7.625H671.64v-1.062H673.6c.087-.875.087-.925.15-1.65l1.213.038c-.075.637-.1.825-.2,1.613H678.2v1.063h-3.588a38.6,38.6,0,0,1-2.137,8.013Zm5.837-3.225a1.915,1.915,0,0,0-.425,1.138c0,1.1,1.45,1.15,2.9,1.15.425,0,1.362-.025,2.4-.1l.013,1.137c-.312.013-1.95.038-2.35.038-1.475,0-4.025,0-4.025-2.125a3.037,3.037,0,0,1,.588-1.65Zm4.6-2.65c-.338-.013-.713-.038-1.275-.038a9.6,9.6,0,0,0-3.425.525l-.362-.962a11.624,11.624,0,0,1,5.063-.65Z" transform="translate(-111.885 -63.677)" fill="#646464"/><path d="M688.517,382.668a14.281,14.281,0,0,0,.425,2.275,6.76,6.76,0,0,1,3.087-.888,18.057,18.057,0,0,0,.125-1.988l1.15.075c-.075,1.063-.113,1.4-.187,1.925a4.082,4.082,0,0,1,3.9,4.288c0,3.974-4.075,4.175-5.062,4.212l-.3-1.038c1.138-.05,4.25-.162,4.25-3.212a3.075,3.075,0,0,0-2.95-3.275,13.021,13.021,0,0,1-1.437,4.525,3.667,3.667,0,0,1-2.925,2.163c-1.638,0-2.112-1.6-2.112-2.663a4.733,4.733,0,0,1,1.638-3.55,21.23,21.23,0,0,1-.588-2.675Zm-.075,3.9a3.953,3.953,0,0,0-.937,2.55c0,1.237.637,1.575,1.137,1.575a2.17,2.17,0,0,0,1.513-.9,9.5,9.5,0,0,1-1.712-3.224m3.5-1.55a5.848,5.848,0,0,0-2.725.9,9.783,9.783,0,0,0,1.463,3.113,12.6,12.6,0,0,0,1.262-4.013" transform="translate(-114.412 -63.677)" fill="#646464"/><path d="M703.837,382.453a24.033,24.033,0,0,0-.562,5.662,18.574,18.574,0,0,0,.387,4.438l-1.212.1a24.943,24.943,0,0,1-.325-4.363,28.6,28.6,0,0,1,.525-5.937Zm3.188,5.362a3.019,3.019,0,0,0-.625,1.688c0,1.137,1.275,1.287,2.612,1.287a26.6,26.6,0,0,0,2.862-.15v1.175c-.425.038-1.3.113-2.362.113-1.85,0-4.163-.175-4.163-2.325a4.187,4.187,0,0,1,.663-2.1Zm4.587-3.35h-5.875v-1.1h5.875Z" transform="translate(-117.019 -63.725)" fill="#646464"/><path d="M718.45,394.324a18.124,18.124,0,0,0-2.075-2.587l.95-.7a19.717,19.717,0,0,1,2.225,2.512Z" transform="translate(-119.394 -65.172)" fill="#646464"/><path d="M513.625,412.845a33.527,33.527,0,0,1-4.013,1.3l-.162-1.025c.438-.1,1.125-.3,1.7-.45v-3.65h-1.412v-.975h1.412v-2.862h-1.538v-.962h4v.962H512.15v2.862h1.238v.975H512.15v3.338c.613-.213,1-.363,1.463-.537Zm7.2-8.912v5.875h-2.9v1.425h3.025v.924h-3.025v1.762h3.249v.938h-7.937v-.937h3.713v-1.762h-3v-.924h3v-1.425h-2.912v-5.875Zm-3.875.9H515v1.612h1.95Zm0,2.449H515v1.638h1.95Zm2.913-2.449h-1.938v1.612h1.938Zm0,2.449h-1.938v1.638h1.938Z" transform="translate(-84.907 -67.321)" fill="#646464"/><path d="M529.248,408.9a10.8,10.8,0,0,1-1.3-1.649v3.513h-.913v-3.65a10.545,10.545,0,0,1-2.012,2.674l-.512-.888a10.5,10.5,0,0,0,2.5-3.1h-2.325v-.9h2.349v-1.362h.913V404.9h1.937v.9h-1.937v.313a8.786,8.786,0,0,0,1.862,1.987Zm-4.7,5.225a5.735,5.735,0,0,0,1.362-2.613l.949.262a7.332,7.332,0,0,1-1.524,3.025Zm4.012-2.313V413.5c0,.45.075.55.65.55h2.35c.688,0,.688-.063.938-1.487l.95.275c-.187,1.363-.375,2.163-1.413,2.163H528.5a.806.806,0,0,1-.949-.837v-2.35Zm2.425,1.125a9.653,9.653,0,0,0-2.062-1.737l.649-.725a10.859,10.859,0,0,1,2.112,1.725Zm4.675-2.337h-5.15v-6.687h5.15Zm-.95-5.825h-3.25v1.063h3.25Zm0,1.851h-3.25v1.1h3.25Zm0,1.887h-3.25v1.237h3.25Zm.725,6.175a10.917,10.917,0,0,0-1.838-2.875l.775-.487a11.671,11.671,0,0,1,1.925,2.737Z" transform="translate(-87.417 -67.256)" fill="#646464"/><path d="M547.2,403.62a10.552,10.552,0,0,1-.412,1.725h4.187c-.062,5.712-.062,6.025-.287,7.8s-.85,1.975-1.875,1.975h-1.75l-.2-1.075,1.813.012c.5,0,.775-.025.962-.875a46.418,46.418,0,0,0,.313-6.863h-3.512a10.143,10.143,0,0,1-1.5,2.588l-.7-.625v6.013H540.05v-8.95h1.313a8.117,8.117,0,0,0,.488-1.825l1.025.113a10.518,10.518,0,0,1-.513,1.712h1.875v2.687a9.318,9.318,0,0,0,1.925-4.55Zm-3.937,2.675h-2.238v2.95h2.238Zm0,3.862h-2.238v3.175h2.238Zm4.425,1.688a15.457,15.457,0,0,0-1.838-3.3l.85-.538a16.649,16.649,0,0,1,1.962,3.25Z" transform="translate(-90.007 -67.246)" fill="#646464"/><path d="M561.256,405.66v1.05h-2.838a25.638,25.638,0,0,1-2.187,6.5l-1.151-.5a19.577,19.577,0,0,0,2.213-6h-2.113v-1.05h2.312c.138-.862.175-1.138.225-1.637l1.188.05c-.1.6-.112.675-.274,1.587Zm2.174,4.963a8.429,8.429,0,0,1,2.663,1.913l-.687.987a7.2,7.2,0,0,0-2.025-1.7v.513c0,1.849-1.262,2.3-2.5,2.3-1.875,0-2.8-1.037-2.8-2.2,0-.937.725-2.325,2.937-2.325a5.4,5.4,0,0,1,1.3.15l-.075-2.675h1.125Zm-1.087.675a3.558,3.558,0,0,0-1.325-.237c-1.274,0-1.875.637-1.875,1.338,0,1.262,1.538,1.262,1.775,1.262,1.237,0,1.425-.675,1.425-1.524Zm3.013-3.662a17.96,17.96,0,0,0-3.325-1.625l.438-.925a19.353,19.353,0,0,1,3.412,1.55Z" transform="translate(-92.512 -67.336)" fill="#646464"/><path d="M578.7,407.9h-6.612v-.7a14.505,14.505,0,0,1-2.225,1.163l-.513-1.012a11.12,11.12,0,0,0,5.463-3.988h1.112a12.1,12.1,0,0,0,5.462,4.025l-.55,1a13.507,13.507,0,0,1-2.138-1.175Zm-1.1,2.963a18.282,18.282,0,0,1,3.063,3.712l-.9.6c-.2-.338-.35-.575-.613-.963-2.088.3-7.187.526-9.113.526l-.112-1.025h1.725a21.392,21.392,0,0,0,1.538-3.238h-3.425v-.962H580.92v.962H574.4a34,34,0,0,1-1.613,3.212c.313-.012,1.713-.05,1.975-.062,1.525-.062,2.813-.176,3.737-.263a23.18,23.18,0,0,0-1.725-1.937Zm.7-3.913a12.8,12.8,0,0,1-2.925-2.7,11.627,11.627,0,0,1-2.9,2.7Z" transform="translate(-94.89 -67.226)" fill="#646464"/><path d="M587.585,415.141h-1.013v-5.062a11.641,11.641,0,0,1-1.712,1.325l-.424-1.025A9.048,9.048,0,0,0,588.1,406.5h-3.5v-.937h1.974v-2.037h1.013v2.037H589.2v.95a8.752,8.752,0,0,1-1.362,2.212,9.016,9.016,0,0,0,1.8,1.638l-.562.913a8.442,8.442,0,0,1-1.487-1.5Zm5.537-11.613v3.612h2.75v1.025h-2.75v5.5h3.038v1.025h-7.288v-1.025h3.2v-5.5H589.46v-1.025h2.612v-3.612Z" transform="translate(-97.405 -67.254)" fill="#646464"/><path d="M601.788,415.132h-1V408.72a6.88,6.88,0,0,1-.8,1.1l-.537-1.176a10.793,10.793,0,0,0,2.175-5.162l1.025.163a15.555,15.555,0,0,1-.862,3.012Zm.537-2.962a9.048,9.048,0,0,0,3.775-1.8c-.187-.237-.3-.35-.375-.438a10.15,10.15,0,0,1-3.15,1.338l-.312-.812a8.167,8.167,0,0,0,3.538-1.537h-2.662v-2.113c-.138.088-.225.138-.5.288l-.487-.812a6.6,6.6,0,0,0,2.875-2.788l1.013.175a6.124,6.124,0,0,1-.363.612h3.488v.825a10.287,10.287,0,0,1-.862.887h2.474v2.925h-2.912a9.189,9.189,0,0,0,.525,1.374A10.171,10.171,0,0,0,610,409.17l.713.651a8.9,8.9,0,0,1-1.925,1.224,8.06,8.06,0,0,0,2.425,2.65l-.537.95a10.808,10.808,0,0,1-3.625-5.724H607a7.2,7.2,0,0,1-.612.549A5.415,5.415,0,0,1,608,413.22c0,1.05-.375,1.875-1.675,1.875h-1.2l-.175-.95,1.25.013c.425,0,.863-.05.863-1.013a4.885,4.885,0,0,0-.062-.725,12.806,12.806,0,0,1-4.475,2.288l-.325-.788a12,12,0,0,0,4.575-2.324,3.224,3.224,0,0,0-.275-.6,10.8,10.8,0,0,1-3.875,1.975Zm4.175-5.4h-2.463v1.362H606.5Zm-1.412-1.687a9.954,9.954,0,0,1-.875.912h2.875a6.609,6.609,0,0,0,.863-.912Zm4.775,1.687h-2.487v1.362h2.487Z" transform="translate(-99.907 -67.246)" fill="#646464"/><path d="M617.245,404.3a27.99,27.99,0,0,0-.537,5.738,19.611,19.611,0,0,0,.388,4.363l-1.125.15a23.624,23.624,0,0,1-.35-4.6,32.784,32.784,0,0,1,.462-5.737Zm8.438,2.05v1.075h-2.338l.038,3.3a9.254,9.254,0,0,1,2.513,1.825l-.738,1.013a6.8,6.8,0,0,0-1.812-1.625v.462c0,.713-.012,2.125-2.4,2.125-1.95,0-2.675-1.138-2.675-2.15,0-1.3,1.15-2.187,2.737-2.187a4.008,4.008,0,0,1,1.288.188l-.05-2.95H618.47v-1.075h3.75l-.038-2.112h1.138l.025,2.112Zm-3.388,5.05a2.837,2.837,0,0,0-1.275-.275c-.838,0-1.75.325-1.75,1.262,0,.963.95,1.2,1.612,1.2,1.362,0,1.413-.738,1.413-1.413Z" transform="translate(-102.602 -67.369)" fill="#646464"/><path d="M639.92,408.02c-1.013.113-7.763.876-7.763,3.65,0,1.45,1.526,1.588,4.213,1.588a34.751,34.751,0,0,0,3.938-.188l.025,1.175c-.813.05-1.913.125-3.713.125-2.162,0-5.625,0-5.625-2.663,0-2.137,2.575-3.212,3.451-3.587-.413-.813-.426-1.388-.476-4.2H635.2c-.013.337-.025.688-.025,1.3a5.467,5.467,0,0,0,.325,2.525,29.119,29.119,0,0,1,4.313-.926Zm-1.575-4.574a11,11,0,0,1,1.163,2.4l-.9.475a10.152,10.152,0,0,0-1.1-2.45Zm1.988-.413a11.023,11.023,0,0,1,1.162,2.413l-.888.475a10.408,10.408,0,0,0-1.112-2.45Z" transform="translate(-105.164 -67.171)" fill="#646464"/><path d="M647.705,413.685c2.287-.037,5.962-.149,5.962-3.387,0-1.937-1.2-2.175-2.212-2.175a43.914,43.914,0,0,0-4.888.637l-.138-1.225c.8-.062,4.325-.463,5.037-.463,1.6,0,3.413.338,3.413,3.138,0,4.374-4.525,4.512-6.862,4.575Zm5.938-7.8A19.444,19.444,0,0,0,647.83,405l.138-1.05a22,22,0,0,1,5.975.837Z" transform="translate(-107.737 -67.324)" fill="#646464"/><path d="M666.256,405.66v1.05h-2.838a25.641,25.641,0,0,1-2.187,6.5l-1.151-.5a19.579,19.579,0,0,0,2.213-6h-2.112v-1.05h2.312c.138-.862.175-1.138.225-1.637l1.188.05c-.1.6-.113.675-.274,1.587Zm2.174,4.963a8.429,8.429,0,0,1,2.663,1.913l-.687.987a7.2,7.2,0,0,0-2.025-1.7v.513c0,1.849-1.263,2.3-2.5,2.3-1.875,0-2.8-1.037-2.8-2.2,0-.937.725-2.325,2.937-2.325a5.4,5.4,0,0,1,1.3.15l-.075-2.675h1.125Zm-1.087.675a3.559,3.559,0,0,0-1.325-.237c-1.274,0-1.875.637-1.875,1.338,0,1.262,1.537,1.262,1.775,1.262,1.237,0,1.425-.675,1.425-1.524Zm3.012-3.662a17.958,17.958,0,0,0-3.325-1.625l.438-.925a19.358,19.358,0,0,1,3.413,1.55Z" transform="translate(-110.012 -67.336)" fill="#646464"/><path d="M683.333,405.41c-.275.2-.663.512-.975.762-1.6,1.288-1.775,1.425-2.6,2.075a6.659,6.659,0,0,1,2.237-.425,3,3,0,0,1,3.313,3.138c0,2.45-2.1,3.713-4.437,3.713-1.987,0-3.225-.888-3.225-2.075a1.922,1.922,0,0,1,2.113-1.762,3.054,3.054,0,0,1,2.987,2.45,2.409,2.409,0,0,0,1.45-2.3c0-.662-.2-2.225-2.6-2.225-2.213,0-3.838,1.238-5.55,2.863l-.649-.937c.962-.75,3.824-3.05,6.174-5.163-2.125.15-2.862.175-4.9.213V404.66c2.65,0,3.675-.012,6.663-.187Zm-3.612,6.337c-.763,0-1.088.487-1.088.825,0,.613.8,1.213,2.2,1.213a3.649,3.649,0,0,0,.975-.112,2.15,2.15,0,0,0-2.087-1.925" transform="translate(-112.565 -67.411)" fill="#646464"/><path d="M690.171,414.091a27.444,27.444,0,0,0,2.162-6.725l-1.987.012V406.3h2.175c.124-.788.188-1.275.287-2.25l1.213.05c-.149.988-.2,1.275-.363,2.2h1.35c1.488,0,2.725.325,2.725,3.225a11.273,11.273,0,0,1-.6,3.774,2.062,2.062,0,0,1-2.175,1.25,12.171,12.171,0,0,1-1.475-.087l-.05-1.15a6.9,6.9,0,0,0,1.363.15c.837,0,1.174-.275,1.437-1.112a10.268,10.268,0,0,0,.375-2.875c0-2.087-.687-2.163-2.2-2.138l-.949.013a31.559,31.559,0,0,1-2.2,7.225Zm9.662-3.375a8.441,8.441,0,0,0-1.775-4.975l.925-.513a8.7,8.7,0,0,1,2.05,5.275Z" transform="translate(-115.027 -67.341)" fill="#646464"/><path d="M707.885,405.216a3.972,3.972,0,0,1,2.787-1.088,2.924,2.924,0,0,1,3.2,2.749c0,1.163-.737,1.763-1.675,2.525-.85.688-.912.988-.912,2.325h-1.113c0-1.413.05-2.013,1.263-3.025.963-.8,1.288-1.087,1.288-1.825a1.84,1.84,0,0,0-2.038-1.712,3.4,3.4,0,0,0-2.425,1.1Zm2.188,7.574h1.338v1.387h-1.338Z" transform="translate(-117.979 -67.354)" fill="#646464"/><path d="M64.1,371.413a17.269,17.269,0,0,0-1.641-2.267,12.9,12.9,0,0,1-3.2,3.642l-.748-.988a10.506,10.506,0,0,0,3.148-3.561,20.3,20.3,0,0,0-2.641-2.415l.773-.773A25.724,25.724,0,0,1,62.15,367.2a11.466,11.466,0,0,0,.787-3.455H58.654v-1.067h2.681v-2.014h1.108v2.014h2.494v1.067H64.07a14.021,14.021,0,0,1-1.08,4.335,15.983,15.983,0,0,1,2.028,2.642Zm2.534-1.614a15.03,15.03,0,0,0-1.761-3.562l1-.533a17.931,17.931,0,0,1,1.841,3.575Zm3.161-6.576H71.02v1.107H69.792v7.576c0,.721-.307,1.148-1.36,1.148H66.4l-.281-1.148,2.107.013c.321,0,.428.013.428-.307V364.33H65.2v-1.107h3.455v-2.561h1.133Z" transform="translate(-9.751 -60.11)" fill="#646464"/><path d="M80.446,360.678h1.121v1.947h4.988v9.283a.986.986,0,0,1-1.108,1.134H83.181l-.174-1.121,2.068.013c.174,0,.373-.013.373-.347v-7.923H81.633c.147,1.107.653,3.228,3.694,5.229l-.733.933a9.4,9.4,0,0,1-3.575-4.562,8.773,8.773,0,0,1-3.681,4.508l-.681-.96a6.8,6.8,0,0,0,3.7-5.149H76.524v9.378H75.4V362.625h5.042Z" transform="translate(-12.567 -60.112)" fill="#646464"/><path d="M98.745,360.777a11.273,11.273,0,0,1-.44,1.841h4.468c-.067,6.1-.067,6.429-.307,8.323s-.908,2.108-2,2.108H98.6l-.213-1.148,1.934.013c.533,0,.827-.027,1.027-.933a49.561,49.561,0,0,0,.333-7.323H97.931a10.806,10.806,0,0,1-1.6,2.761l-.747-.667v6.416H91.115v-9.55h1.4a8.669,8.669,0,0,0,.52-1.948l1.094.12a11.265,11.265,0,0,1-.547,1.828h2v2.867a9.946,9.946,0,0,0,2.053-4.855Zm-4.2,2.854H92.156v3.148h2.388Zm0,4.122H92.156v3.388h2.388Zm4.722,1.8a16.463,16.463,0,0,0-1.961-3.522l.908-.573a17.8,17.8,0,0,1,2.094,3.468Z" transform="translate(-15.186 -60.104)" fill="#646464"/><path d="M24.014,401.163a9.486,9.486,0,0,1,0-12.645h1.054a9.9,9.9,0,0,0,0,12.645Z" transform="translate(-3.6 -64.752)" fill="#646464"/><path d="M29.821,401.07h-1.08v-5.4a12.473,12.473,0,0,1-1.828,1.414l-.454-1.094a9.646,9.646,0,0,0,3.908-4.134H26.632v-1h2.108v-2.174h1.08v2.174h1.721v1.013a9.362,9.362,0,0,1-1.454,2.362,9.647,9.647,0,0,0,1.921,1.747l-.6.974a9.042,9.042,0,0,1-1.588-1.6Zm5.909-12.392v3.854h2.934v1.094H35.73V399.5h3.242v1.093H31.195V399.5h3.414v-5.869H31.822v-1.094h2.788v-3.854Z" transform="translate(-4.41 -64.779)" fill="#646464"/><path d="M48.446,388.678h1.121v1.948h4.988v9.283a.986.986,0,0,1-1.108,1.134H51.181l-.174-1.121,2.068.013c.174,0,.373-.013.373-.347v-7.923H49.633c.147,1.108.653,3.228,3.694,5.229l-.733.933a9.4,9.4,0,0,1-3.575-4.562,8.773,8.773,0,0,1-3.681,4.508l-.681-.96a6.8,6.8,0,0,0,3.7-5.149H44.524v9.378H43.4V390.625h5.042Z" transform="translate(-7.234 -64.779)" fill="#646464"/><path d="M61.41,402.333a19.4,19.4,0,0,0-2.214-2.761l1.013-.747a20.915,20.915,0,0,1,2.374,2.681Z" transform="translate(-9.866 -66.47)" fill="#646464"/><path d="M76.977,388.678v3.134h1.268v1.054H76.977v8.19H75.884v-8.19h-1.2v-1.054h1.2v-3.134Zm4.923,6.6c0,1.241-.093,4.388-.481,5.136a1.06,1.06,0,0,1-1.08.64h-.947l-.187-1.014.693.013c.267,0,.454.014.628-.347a16.115,16.115,0,0,0,.347-3.441h-1a8.162,8.162,0,0,1-1.814,4.788l-.814-.707a6.844,6.844,0,0,0,1.561-4.082H77.7v-.987h1.187c.027-.48.04-.733.053-1.041h1.068c-.013.361-.027.574-.054,1.041Zm4.362-5.455c-.16,2.974-.213,3.962-1.814,3.962H83.02l-.24-1.107,1.494.027c.613.013.773,0,.853-1.894H82.486a5.652,5.652,0,0,1-3.522,3.335l-.667-.921a5.135,5.135,0,0,0,3.067-2.414H78.4v-.987h3.281a7.651,7.651,0,0,0,.16-1.148h1.108a10.608,10.608,0,0,1-.173,1.148Zm.493,5.455c-.053,3.388-.08,4.789-.533,5.389a1.158,1.158,0,0,1-.974.387H84.22l-.186-1.027.773.013c.493.013.6-.146.68-.427a17.228,17.228,0,0,0,.227-3.347H84.621a6.725,6.725,0,0,1-2.028,4.815l-.84-.653a5.9,5.9,0,0,0,1.854-4.162H82.54v-.987h1.133c.013-.36.013-.56,0-1.093h1.054c-.013.6-.013.787-.027,1.093Z" transform="translate(-12.447 -64.779)" fill="#646464"/><path d="M95.512,388.662h1.174v1.508c0,.307-.013.693-.053,1.347h6.029a59.628,59.628,0,0,1-.574,7.937,2.019,2.019,0,0,1-2.028,1.614H98.047l-.187-1.188h1.921a1.023,1.023,0,0,0,1.081-.773,36.107,36.107,0,0,0,.587-6.5H96.527c-.4,3.322-1.268,6.2-5.323,8.417L90.524,400c3.948-2.173,4.522-4.762,4.842-7.389H90.844v-1.094h4.615c.027-.307.053-.747.053-1.4Z" transform="translate(-15.087 -64.776)" fill="#646464"/><path d="M116.341,393.344h-7.057V392.6a15.376,15.376,0,0,1-2.374,1.241l-.547-1.081a11.862,11.862,0,0,0,5.829-4.255h1.187a12.918,12.918,0,0,0,5.83,4.3l-.588,1.067a14.425,14.425,0,0,1-2.281-1.254Zm-1.173,3.161a19.523,19.523,0,0,1,3.268,3.962l-.96.64c-.213-.36-.374-.613-.654-1.027-2.228.32-7.669.56-9.724.56l-.12-1.093h1.841a22.831,22.831,0,0,0,1.641-3.455H106.8v-1.027h11.912v1.027h-6.963a36.424,36.424,0,0,1-1.721,3.427c.333-.012,1.828-.053,2.108-.067,1.628-.066,3-.186,3.988-.28a24.7,24.7,0,0,0-1.841-2.068Zm.747-4.175a13.651,13.651,0,0,1-3.122-2.882,12.4,12.4,0,0,1-3.094,2.882Z" transform="translate(-17.727 -64.749)" fill="#646464"/><path d="M125.821,401.07h-1.08v-5.4a12.472,12.472,0,0,1-1.828,1.414l-.454-1.094a9.646,9.646,0,0,0,3.908-4.134h-3.735v-1h2.108v-2.174h1.08v2.174h1.721v1.013a9.361,9.361,0,0,1-1.454,2.362,9.647,9.647,0,0,0,1.921,1.747l-.6.974a9.042,9.042,0,0,1-1.588-1.6Zm5.909-12.392v3.854h2.934v1.094H131.73V399.5h3.242v1.093h-7.777V399.5h3.414v-5.869h-2.787v-1.094h2.787v-3.854Z" transform="translate(-20.41 -64.779)" fill="#646464"/><path d="M138.427,401.163a9.9,9.9,0,0,0,0-12.645h1.054a9.486,9.486,0,0,1,0,12.645Z" transform="translate(-23.071 -64.752)" fill="#646464"/><path d="M609.191,37.873H598.867V26.335h10.324Zm-9.2-8.123h8.07V27.362h-8.07Zm0,3.455h8.07V30.723h-8.07Zm0,3.615h8.07V34.192h-8.07Z" transform="translate(-99.81 -4.389)" fill="#646464"/><path d="M637.744,25.778a11.269,11.269,0,0,1-.44,1.841h4.468c-.067,6.1-.067,6.429-.307,8.323s-.908,2.108-2,2.108H637.6l-.213-1.148,1.934.013c.533,0,.827-.027,1.027-.933a49.565,49.565,0,0,0,.333-7.323H636.93a10.807,10.807,0,0,1-1.6,2.761l-.747-.667v6.416h-4.469v-9.55h1.4a8.662,8.662,0,0,0,.52-1.948l1.094.12a11.262,11.262,0,0,1-.547,1.828h2v2.868a9.946,9.946,0,0,0,2.053-4.855Zm-4.2,2.854h-2.388v3.148h2.388Zm0,4.122h-2.388v3.388h2.388Zm4.722,1.8a16.463,16.463,0,0,0-1.961-3.522l.908-.573a17.8,17.8,0,0,1,2.094,3.468Z" transform="translate(-105.018 -4.272)" fill="#646464"/><path d="M22.1,44.414a17.27,17.27,0,0,0-1.641-2.268,12.9,12.9,0,0,1-3.2,3.642l-.748-.988a10.506,10.506,0,0,0,3.148-3.561,20.3,20.3,0,0,0-2.641-2.415l.773-.773A25.73,25.73,0,0,1,20.15,40.2a11.459,11.459,0,0,0,.787-3.455H16.654V35.677h2.681V33.663h1.108v2.014h2.494v1.067H22.07a14.022,14.022,0,0,1-1.08,4.335,15.984,15.984,0,0,1,2.028,2.642ZM24.631,42.8a15.03,15.03,0,0,0-1.761-3.562l1-.533a17.931,17.931,0,0,1,1.841,3.575Zm3.161-6.576H29.02v1.108H27.792v7.576c0,.721-.307,1.148-1.36,1.148H24.4l-.281-1.148,2.108.013c.321,0,.427.013.427-.307V37.331H23.2V36.224h3.455V33.663h1.133Z" transform="translate(-2.751 -5.61)" fill="#646464"/><path d="M32.551,44.72a15.783,15.783,0,0,0,6.709-2.534,3.045,3.045,0,0,0-.267-.6,16.464,16.464,0,0,1-5.976,2.281l-.36-.973a14.242,14.242,0,0,0,5.8-1.974,3,3,0,0,0-.481-.427,16.354,16.354,0,0,1-4.868,1.493l-.333-.933a15.163,15.163,0,0,0,5.176-1.574H33.632V36.864c-.414.187-.428.187-.708.307l-.48-.934a8.335,8.335,0,0,0,4.108-2.654l1.174.227c-.2.253-.308.373-.508.6h4.869v.868a8.39,8.39,0,0,1-1.028.988h3.028v3.214H40.314a9.065,9.065,0,0,0,.84,1.6A8.379,8.379,0,0,0,43.235,39.6l.84.708A14.822,14.822,0,0,1,41.7,41.839a8.523,8.523,0,0,0,3.468,2.641l-.627,1.028a10.3,10.3,0,0,1-5.123-5.923,4.787,4.787,0,0,1-.68.467,4.685,4.685,0,0,1,1.868,3.9c0,1.694-.507,2.094-1.734,2.094H37.526L37.3,44.974h1.347c.667,0,.908-.133.908-1.041a5.455,5.455,0,0,0-.081-.853,18.916,18.916,0,0,1-6.563,2.614ZM38.327,37.1H34.672v1.508h3.655Zm-2.041-1.841a10.88,10.88,0,0,1-1.454,1h4.655a5.674,5.674,0,0,0,1.081-1ZM43.035,37.1h-3.7v1.508h3.7Z" transform="translate(-5.407 -5.597)" fill="#646464"/><path d="M234.33,122.483A9.481,9.481,0,1,1,224.849,113a9.475,9.475,0,0,1,9.481,9.481m-18.262,0a8.781,8.781,0,1,0,8.781-8.78,8.792,8.792,0,0,0-8.781,8.78m4.72,0c0-3.5,1.261-5.76,4.061-5.76,4.06,0,4.06,4.8,4.06,5.76,0,1,0,5.761-4.06,5.761s-4.061-4.74-4.061-5.761m5.741,0c0-2.2-.46-3.58-1.68-3.58-1.3,0-1.68,1.58-1.68,3.58,0,2.2.46,3.581,1.68,3.581,1.28,0,1.68-1.581,1.68-3.581" transform="translate(-35.894 -18.833)" fill="#67cbca"/><path d="M245.957,114.2a7.416,7.416,0,0,1,2.76.46,3.96,3.96,0,0,1,2.5,3.761,4.014,4.014,0,0,1-1.66,3.38,4.21,4.21,0,0,1,2.12,3.9c0,4.58-4.44,4.58-5.881,4.58h-5.66V114.2Zm-2.441,3.1v3.26h2.461a1.67,1.67,0,0,0,1.86-1.64c0-.58-.28-1.62-2.021-1.62Zm0,6.04v3.84h2.461c.52,0,2.32,0,2.32-1.9a1.89,1.89,0,0,0-2.121-1.94Z" transform="translate(-40.022 -19.033)" fill="#67cbca"/><path d="M266.049,119.123V131.1h-3v-1.161a3.859,3.859,0,0,1-3.22,1.481,3.732,3.732,0,0,1-3.481-1.96,7.805,7.805,0,0,1-.54-3.6v-6.741h3.14v6.84c0,1.081.02,2.581,1.8,2.581.34,0,2.16-.08,2.16-2.581v-6.84Z" transform="translate(-42.634 -19.854)" fill="#67cbca"/><path d="M277.488,122.459a5.128,5.128,0,0,0-2.64-.84c-.84,0-1.381.32-1.381.96,0,.661.36.76,2.6,1.48,1.4.44,2.9,1.221,2.9,3.42,0,2.721-2.34,3.881-5.06,3.881a8.068,8.068,0,0,1-4.181-1.1l1.06-2.78a5.763,5.763,0,0,0,3.241,1c1.34,0,1.8-.541,1.8-1.04,0-.7-.4-.821-2.521-1.481-1.58-.48-2.98-1.36-2.98-3.46,0-2.12,1.66-3.761,4.4-3.761a8.127,8.127,0,0,1,3.6.9Z" transform="translate(-44.954 -19.789)" fill="#67cbca"/><path d="M286.3,116.846h-3.4v-3.22h3.4Zm-.14,13.342h-3.121V118.207h3.121Z" transform="translate(-47.15 -18.937)" fill="#67cbca"/><path d="M289.79,131.04V119.059h3v1.16a4.147,4.147,0,0,1,6.7.48,7.818,7.818,0,0,1,.539,3.6v6.741h-3.14V124.2c0-1.08-.02-2.58-1.8-2.58-.339,0-2.159.08-2.159,2.58v6.841Z" transform="translate(-48.298 -19.789)" fill="#67cbca"/><path d="M307.259,126.02c.08.76.3,2.6,3.22,2.6a7.61,7.61,0,0,0,3.76-.96v2.94a9.995,9.995,0,0,1-3.9.76c-5.26,0-6.221-4.041-6.221-6.221,0-3.759,2.3-6.4,5.581-6.4a5.141,5.141,0,0,1,4.9,3.28,10.929,10.929,0,0,1,.6,4Zm4.82-2.26a2.313,2.313,0,0,0-2.38-2.321,2.444,2.444,0,0,0-2.4,2.321Z" transform="translate(-50.686 -19.79)" fill="#67cbca"/><path d="M326.351,122.459a5.122,5.122,0,0,0-2.64-.84c-.84,0-1.38.32-1.38.96,0,.661.36.76,2.6,1.48,1.4.44,2.9,1.221,2.9,3.42,0,2.721-2.339,3.881-5.06,3.881a8.07,8.07,0,0,1-4.181-1.1l1.061-2.78a5.76,5.76,0,0,0,3.24,1c1.34,0,1.8-.541,1.8-1.04,0-.7-.4-.821-2.52-1.481-1.58-.48-2.981-1.36-2.981-3.46,0-2.12,1.66-3.761,4.4-3.761a8.13,8.13,0,0,1,3.6.9Z" transform="translate(-53.098 -19.789)" fill="#67cbca"/><path d="M338.351,122.459a5.122,5.122,0,0,0-2.64-.84c-.84,0-1.38.32-1.38.96,0,.661.36.76,2.6,1.48,1.4.44,2.9,1.221,2.9,3.42,0,2.721-2.339,3.881-5.06,3.881a8.07,8.07,0,0,1-4.181-1.1l1.061-2.78a5.76,5.76,0,0,0,3.24,1c1.34,0,1.8-.541,1.8-1.04,0-.7-.4-.821-2.52-1.481-1.58-.48-2.981-1.36-2.981-3.46,0-2.12,1.66-3.761,4.4-3.761a8.13,8.13,0,0,1,3.6.9Z" transform="translate(-55.098 -19.789)" fill="#67cbca"/><path d="M367.408,114.339,350.187,131.5l-.66-.641L366.748,113.7Z" transform="translate(-58.254 -18.949)" fill="#67cbca"/><path d="M391.688,116.074h-7.9v.741h6.361v3.96h-6.361v.66h6.781v2.3h1.259v2.3h-1.259v2.58h-6.781v1.46c0,1.42-.8,1.9-1.641,1.9h-4.34l-.52-2.381h3.06c.5,0,.54-.22.54-.539v-.441h-6.981v-1.9h6.981v-.741h-8.081v-2.039h8.081v-.741h-6.941v-1.76h6.941v-.66h-6.26v-3.96h6.26v-.741h-7.86v-2.1h7.86v-1.021h2.9v1.021h7.9Zm-10.8,2.3h-3.4v.88h3.4Zm6.381,0h-3.48v.88h3.48Zm.32,4.82h-3.8v.82h3.8Zm.02,2.721h-3.82v.8h3.82Z" transform="translate(-62.134 -18.825)" fill="#67cbca"/><path d="M414.492,131.76a17.393,17.393,0,0,1-6.641-3.56v3.72h-2.96v-3.561a15.745,15.745,0,0,1-6.661,3.4l-1.4-2.66a19.234,19.234,0,0,0,6-2.161H396.95v-2.32h7.941v-.82h-6.6v-1.9h6.6v-.8h-7.16v-2.24h3.96a8.87,8.87,0,0,0-.4-1.021H396.95v-2.48h2.5a13.767,13.767,0,0,0-.881-1.82l2.9-.56a12.8,12.8,0,0,1,.86,2.38h.84v-2.32h2.66v2.32h1.12v-2.32h2.641v2.32h.819a16.97,16.97,0,0,0,.861-2.38l2.9.56c-.22.541-.5,1.2-.82,1.82h2.4v2.48h-4.281c-.12.32-.26.761-.38,1.021h3.961v2.24h-7.2v.8h6.661v1.9h-6.661v.82h7.9v2.32h-5.741a18.118,18.118,0,0,0,5.96,2.061Zm-6.36-12.9a6.1,6.1,0,0,0,.32-1.021h-4.1c.06.161.38.981.4,1.021Z" transform="translate(-66.137 -18.829)" fill="#67cbca"/><path d="M534.885,122.483A9.481,9.481,0,1,1,525.4,113a9.475,9.475,0,0,1,9.481,9.481m-18.262,0a8.781,8.781,0,1,0,8.781-8.78,8.793,8.793,0,0,0-8.781,8.78m8.2-5.54h2.14v11.081h-2.4v-8.54l-1.961,1.36-.279-2.2Z" transform="translate(-85.986 -18.833)" fill="#67cbca"/><path d="M550.832,130.284h-3.381l-3.32-10.761-1.2,10.761h-3.44l2.12-16.082h3.98l3.541,11.4,3.56-11.4h3.98l2.121,16.082h-3.441l-1.2-10.761Z" transform="translate(-89.914 -19.033)" fill="#67cbca"/><path d="M567.755,116.846h-3.4v-3.22h3.4Zm-.14,13.342h-3.12V118.207h3.12Z" transform="translate(-94.058 -18.937)" fill="#67cbca"/><path d="M578.042,122.459a5.122,5.122,0,0,0-2.64-.84c-.84,0-1.38.32-1.38.96,0,.661.36.76,2.6,1.48,1.4.44,2.9,1.221,2.9,3.42,0,2.721-2.339,3.881-5.06,3.881a8.072,8.072,0,0,1-4.181-1.1l1.06-2.78a5.767,5.767,0,0,0,3.241,1c1.34,0,1.8-.541,1.8-1.04,0-.7-.4-.821-2.52-1.481-1.58-.48-2.98-1.36-2.98-3.46,0-2.12,1.66-3.761,4.4-3.761a8.13,8.13,0,0,1,3.6.9Z" transform="translate(-95.046 -19.789)" fill="#67cbca"/><path d="M590.042,122.459a5.121,5.121,0,0,0-2.64-.84c-.84,0-1.38.32-1.38.96,0,.661.36.76,2.6,1.48,1.4.44,2.9,1.221,2.9,3.42,0,2.721-2.339,3.881-5.06,3.881a8.07,8.07,0,0,1-4.181-1.1l1.061-2.78a5.762,5.762,0,0,0,3.24,1c1.34,0,1.8-.541,1.8-1.04,0-.7-.4-.821-2.52-1.481-1.58-.48-2.981-1.36-2.981-3.46,0-2.12,1.66-3.761,4.4-3.761a8.13,8.13,0,0,1,3.6.9Z" transform="translate(-97.046 -19.789)" fill="#67cbca"/><path d="M598.859,116.846h-3.4v-3.22h3.4Zm-.14,13.342H595.6V118.207h3.121Z" transform="translate(-99.242 -18.937)" fill="#67cbca"/><path d="M607.738,118.739a6.323,6.323,0,1,1-5.92,6.3,5.945,5.945,0,0,1,5.92-6.3m0,9.741c1.82,0,2.8-1.441,2.8-3.44,0-3.42-2.58-3.42-2.8-3.42-.96,0-2.781.579-2.781,3.42,0,2,.981,3.44,2.781,3.44" transform="translate(-100.302 -19.79)" fill="#67cbca"/><path d="M618.113,131.04V119.059h3v1.16a4.147,4.147,0,0,1,6.7.48,7.819,7.819,0,0,1,.539,3.6v6.741h-3.14V124.2c0-1.08-.02-2.58-1.8-2.58-.339,0-2.159.08-2.159,2.58v6.841Z" transform="translate(-103.017 -19.789)" fill="#67cbca"/><path d="M656.85,114.339,639.629,131.5l-.66-.641L656.19,113.7Z" transform="translate(-106.493 -18.949)" fill="#67cbca"/><path d="M663.673,123.219a8.376,8.376,0,0,1-1.019,1.04l-.741-4.28a14.109,14.109,0,0,0,2.721-7.121l2.919.26a16.192,16.192,0,0,1-1.019,4.78V131.94h-2.861Zm12.022-6.1v1h4.86v6.741h-5.16a8.756,8.756,0,0,1-.921,2.74,18.818,18.818,0,0,0,6.862,1.42l-1.1,3.04a21.426,21.426,0,0,1-7.641-2.22,11.847,11.847,0,0,1-4.8,2.18l-1.141-2.84a10.444,10.444,0,0,0,3.3-1.081,8.55,8.55,0,0,1-1.94-2.18l1.9-1.059h-1.92v-6.741h4.8v-1h-5.261V114.4h5.261V113h2.9v1.4h5.48v2.721Zm-5.221,7.741a8.733,8.733,0,0,0,1.46,1.339,4.923,4.923,0,0,0,.52-1.339Zm2.321-4.381h-2.021V122.4h2c0-.3.021-.6.021-1.3Zm2.9.62c0,.54-.02,1.04-.041,1.3h2.08v-1.921h-2.039Z" transform="translate(-110.317 -18.809)" fill="#67cbca"/><path d="M700.418,120.367h-9.441v-1.34a26.141,26.141,0,0,1-3.7,1.72l-1.46-3c5.68-1.8,7.28-3.62,8.2-4.72h3.439c1.8,1.9,3.542,3.18,8.142,4.759l-1.56,3a23.154,23.154,0,0,1-3.621-1.76Zm-5.5,9.781h-7.541v-9.042h7.541Zm-2.78-6.381h-1.961v3.681h1.961Zm6.3-6a16.978,16.978,0,0,1-2.741-2.42,19.7,19.7,0,0,1-2.759,2.42Zm.46,14.2h-2.8V121.107h7.82v7.421c0,1.22-.419,1.9-1.739,1.9h-2.241l-.64-2.9h1.22c.28,0,.6-.1.6-.46v-3.28H698.9Z" transform="translate(-114.301 -18.838)" fill="#67cbca"/><path d="M237.918,332.483A9.481,9.481,0,1,1,228.437,323a9.475,9.475,0,0,1,9.481,9.481m-18.261,0a8.78,8.78,0,1,0,8.78-8.78,8.792,8.792,0,0,0-8.78,8.78m5.46,2.741a5.353,5.353,0,0,0,2.94.84c1.241,0,2.241-.48,2.241-1.541,0-.46-.22-1.339-2.06-1.339H227v-1.961h1.06c.981,0,1.641-.44,1.641-1.22,0-.86-.881-1.1-1.44-1.1a3.445,3.445,0,0,0-2.621,1.24l-.82-2.02a5.071,5.071,0,0,1,3.6-1.4c2.36,0,3.661,1.46,3.661,3.1a2.464,2.464,0,0,1-1.2,2.16,2.887,2.887,0,0,1,1.8,2.78c0,1.741-1.28,3.481-4.6,3.481a7.024,7.024,0,0,1-3.64-.92Z" transform="translate(-36.492 -53.833)" fill="#67cbca"/><path d="M246.364,324.2l4.26,12.761,4.261-12.761h3.72l-5.8,16.082h-4.361l-5.8-16.082Z" transform="translate(-40.44 -54.033)" fill="#67cbca"/><path d="M263.848,329.859a8.65,8.65,0,0,1,4.281-1.121,5.426,5.426,0,0,1,4.3,1.66,4.514,4.514,0,0,1,.88,3.122V338a7.347,7.347,0,0,0,.46,3.04h-2.98a2.664,2.664,0,0,1-.22-1.08,4.919,4.919,0,0,1-3.561,1.4c-2.22,0-4.06-1.34-4.06-3.76,0-3.061,2.64-3.741,4.821-4.08,2.1-.321,2.46-.381,2.46-.961,0-.5-.5-1.04-2-1.04a7.521,7.521,0,0,0-4.121,1.32Zm6.441,5.52a7.749,7.749,0,0,1-2.46.54c-1.24.161-1.961.56-1.961,1.561a1.24,1.24,0,0,0,1.4,1.26,3.551,3.551,0,0,0,3.021-1.781Z" transform="translate(-43.824 -54.789)" fill="#67cbca"/><path d="M283.572,340.136h-1.42c-3.16,0-3.58-1.18-3.58-3.64V323.314h3.16v12.921c0,.721.16,1.021,1.021,1.021h.819Z" transform="translate(-46.428 -53.885)" fill="#67cbca"/><path d="M296.445,329.123V341.1h-3v-1.161a3.859,3.859,0,0,1-3.221,1.481,3.733,3.733,0,0,1-3.48-1.96,7.806,7.806,0,0,1-.54-3.6v-6.741h3.14v6.84c0,1.081.021,2.581,1.8,2.581.34,0,2.159-.08,2.159-2.581v-6.84Z" transform="translate(-47.7 -54.853)" fill="#67cbca"/><path d="M303.672,336.019c.08.76.3,2.6,3.22,2.6a7.61,7.61,0,0,0,3.76-.96v2.94a9.994,9.994,0,0,1-3.9.76c-5.26,0-6.221-4.041-6.221-6.221,0-3.759,2.3-6.4,5.581-6.4a5.141,5.141,0,0,1,4.9,3.28,10.93,10.93,0,0,1,.6,4Zm4.82-2.26a2.313,2.313,0,0,0-2.38-2.321,2.444,2.444,0,0,0-2.4,2.321Z" transform="translate(-50.088 -54.789)" fill="#67cbca"/><path d="M339.821,324.338,322.6,341.5l-.66-.641L339.161,323.7Z" transform="translate(-53.656 -53.949)" fill="#67cbca"/><path d="M349.3,341.992h-2.84v-8.541a10.094,10.094,0,0,1-.84.92l-.76-4.36c.639-.861,2.02-2.7,2.579-7.081l2.941.2a25.988,25.988,0,0,1-1.08,4.861Zm14.841-15.6h-4.16v2.2h3.6v12.881h-13.2V328.59h3.541v-2.2H350.34V323.57h13.8Zm-10.1,4.92h-1.08v7.38h1.08Zm3.44-4.92H356.4v2.2h1.08Zm0,4.92H356.4v7.38h1.08Zm3.481,0h-1.1v7.38h1.1Z" transform="translate(-57.476 -53.821)" fill="#67cbca"/><path d="M373.26,341.956H370.5v-8.6c-.28.32-.441.5-.9,1.02l-.739-4.461a13.05,13.05,0,0,0,2.619-6.96l2.9.2a25.225,25.225,0,0,1-1.12,4.86Zm9.481-18.942v1.5h5.4v2.581h-5.4v.7h4.62v10.582H378.1V327.794h1.679v-.7H374.4v-2.581h5.38v-1.5Zm5.4,18.662H374.4V328.335h2.7v10.721h11.041Zm-3.48-11.781H380.8v.88h3.86Zm0,2.74H380.8v.9h3.86Zm0,2.7H380.8v.94h3.86Z" transform="translate(-61.476 -53.825)" fill="#67cbca"/><path d="M403.472,335.483V323.522h8.241v11.961h-1.959v3.26c0,.261.039.34.419.34.16,0,.22-.079.26-.4.04-.461.06-1.221.081-1.781l1.919.52c-.14,4.061-.8,4.441-1.919,4.441h-1.821c-.96,0-1.4-.46-1.4-1.5v-4.881h-.76c-.2,3.581-1.2,5.06-3.06,6.481l-.92-1.62v1.32h-8.341V334.7c-.24.179-.32.24-.62.439l-.66-3.041a9.81,9.81,0,0,0,2.42-2.259h-2.12V327.5h1.64l-1.8-1.561a8.429,8.429,0,0,0,2.38-3.181l2.7.321c-.22.54-.3.76-.5,1.16h5.021v2.3h-2.841c-.12.439-.16.539-.3.96h3.46v2.34h-1.059a6.555,6.555,0,0,1-.641,1.3h1.341v2.08h-1.881v.821h1.6v1.9h-1.6v.82h1.6v1.881h-1.6v.84h1.38a4.646,4.646,0,0,0,2.1-4Zm-6.66-7.98a5.7,5.7,0,0,0,.379-.96h-1.04a9.331,9.331,0,0,1-.879.96Zm1.56,5.72h-1.541v.82h1.541Zm0,2.72h-1.541v.82h1.541Zm0,2.7h-1.541v.84h1.541Zm.06-8.8a15.332,15.332,0,0,1-.84,1.3h1.14a5.746,5.746,0,0,0,.54-1.3Zm10.5-3.841h-2.821v1.06h2.821Zm0,2.921h-2.821v1.059h2.821Zm0,2.96h-2.821v1.1h2.821Z" transform="translate(-65.488 -53.793)" fill="#67cbca"/><path d="M530.768,332.482A9.48,9.48,0,1,1,521.289,323a9.474,9.474,0,0,1,9.479,9.481m-18.26,0a8.78,8.78,0,1,0,8.781-8.78,8.791,8.791,0,0,0-8.781,8.78m12.861,3.241v2.18h-8.6c1.359-1.46,3.18-3.46,4.46-5.1,1.1-1.44,1.321-2.021,1.321-2.62a1.334,1.334,0,0,0-1.362-1.4,3.26,3.26,0,0,0-2.679,1.86l-1.06-2.2a4.549,4.549,0,0,1,3.761-1.841,3.432,3.432,0,0,1,3.719,3.52c0,1.921-1.159,3.241-3.24,5.6Z" transform="translate(-85.3 -53.833)" fill="#67cbca"/><path d="M539.215,324.2l4.26,12.761,4.261-12.761h3.72l-5.8,16.082H541.3L535.5,324.2Z" transform="translate(-89.248 -54.033)" fill="#67cbca"/><path d="M559.871,326.846h-3.4v-3.22h3.4Zm-.14,13.342h-3.12V328.207h3.12Z" transform="translate(-92.744 -53.937)" fill="#67cbca"/><path d="M570.16,332.459a5.128,5.128,0,0,0-2.64-.84c-.84,0-1.381.32-1.381.96,0,.661.36.76,2.6,1.48,1.4.44,2.9,1.221,2.9,3.42,0,2.721-2.34,3.881-5.06,3.881a8.068,8.068,0,0,1-4.181-1.1l1.06-2.78a5.763,5.763,0,0,0,3.241,1c1.34,0,1.8-.541,1.8-1.04,0-.7-.4-.821-2.521-1.481-1.58-.48-2.98-1.36-2.98-3.46,0-2.12,1.66-3.761,4.4-3.761a8.126,8.126,0,0,1,3.6.9Z" transform="translate(-93.732 -54.789)" fill="#67cbca"/><path d="M578.976,326.846h-3.4v-3.22h3.4Zm-.14,13.342h-3.121V328.207h3.121Z" transform="translate(-95.928 -53.937)" fill="#67cbca"/><path d="M587.855,328.738a6.323,6.323,0,1,1-5.92,6.3,5.945,5.945,0,0,1,5.92-6.3m0,9.741c1.821,0,2.8-1.441,2.8-3.44,0-3.42-2.58-3.42-2.8-3.42-.959,0-2.78.579-2.78,3.42,0,2,.981,3.44,2.78,3.44" transform="translate(-96.988 -54.789)" fill="#67cbca"/><path d="M598.23,341.04V329.059h3v1.16a4.147,4.147,0,0,1,6.7.48,7.82,7.82,0,0,1,.539,3.6v6.741h-3.14V334.2c0-1.08-.02-2.58-1.8-2.58-.339,0-2.159.08-2.159,2.58v6.841Z" transform="translate(-99.704 -54.789)" fill="#67cbca"/><path d="M636.967,324.338,619.746,341.5l-.66-.641L636.307,323.7Z" transform="translate(-103.18 -53.949)" fill="#67cbca"/><path d="M648.382,339.023a57.7,57.7,0,0,1-5.92,1.741l-.36-3.12c.1-.021,1.98-.461,2.32-.541v-4.4h-1.8v-2.76h1.8v-3.16h-2.04v-2.84h6.561v2.84H647.3v3.16h1.5v2.76h-1.5v3.68c.881-.259,1.221-.4,1.641-.539l-.14,2.92h4.82v-1.42h-4.141V334.9h4.141v-1.36h-4.16V323.6h11.3v9.941h-4.3v1.36h4.5v2.441h-4.5v1.42h4.881v2.74H648.382Zm3.741-11.44h1.64V326.2h-1.64Zm0,3.479h1.64v-1.5h-1.64Zm4.28-3.479h1.641V326.2H656.4Zm0,3.479h1.641v-1.5H656.4Z" transform="translate(-107.016 -53.933)" fill="#67cbca"/><path d="M666.006,330.687a18.885,18.885,0,0,0,3.3-3.24h-2.94v-2.84h3.24v-1.581h2.86v1.581h2.581v2.84h-2.581v.1a17.481,17.481,0,0,0,2.861,2.4l-1.26,2.48a19.533,19.533,0,0,1-1.6-1.6v4h-2.86v-4a13.678,13.678,0,0,1-2.46,2.92Zm4.62,5.481a14.264,14.264,0,0,1-2.02,5.44l-2.52-1.94a9.708,9.708,0,0,0,1.74-4.16Zm.261.28h2.959v2.08c0,.44.161.5.52.5h2.841c.78,0,.8-.179,1.04-1.639l2.881.68c-.28,2.139-.6,3.66-2.341,3.66h-6.161a1.663,1.663,0,0,1-1.739-1.7Zm3.88-2.721a8.466,8.466,0,0,1,.96.48V323.526h9.02v11.181h-8.18a11.516,11.516,0,0,1,2,1.421l-1.96,2.16a16.266,16.266,0,0,0-3.78-2.581Zm3.74-6.781h3.4v-.92h-3.4Zm0,2.621h3.4v-.96h-3.4Zm0,2.66h3.4v-.96h-3.4Zm4.241,2.96a21.067,21.067,0,0,1,2.84,4.821l-2.8,1.56a19.456,19.456,0,0,0-2.56-5.02Z" transform="translate(-110.999 -53.837)" fill="#67cbca"/><path d="M707.887,341.32a14.432,14.432,0,0,1-3.74-5.641,8.391,8.391,0,0,1,.5,2.881c0,.66,0,3.38-2.921,3.38h-2.279l-.421-1.94a20.975,20.975,0,0,1-3.54,1.38l-.8-2.14a24.844,24.844,0,0,0,7.021-3.041c-.1-.259-.12-.3-.221-.579a19.8,19.8,0,0,1-6,2.66l-.639-1.96a17.309,17.309,0,0,0,5.7-2.26c-.219-.281-.259-.34-.34-.44a20.721,20.721,0,0,1-4.64,1.84l-.78-2.141a21.7,21.7,0,0,0,4.3-1.38h-3.261v-3.18a.924.924,0,0,1-.26.14l-.92-1.72c-.12.4-.16.5-.22.7V341.94h-2.84v-8.721c-.42.541-.58.72-.84,1.021l-.74-4.341a14.278,14.278,0,0,0,2.7-7.04l2.86.24a26.579,26.579,0,0,1-.66,3.16,9.654,9.654,0,0,0,3.621-3.381l2.84.34c-.24.44-.28.52-.34.641h5.54v1.98a11.293,11.293,0,0,1-.819.9h3.139v5.2h-1.4l1.58,1.62a15.017,15.017,0,0,1-2.441,2,11.187,11.187,0,0,0,2.841,3.34Zm-6.8-12.641h-2.541v1.26h2.541Zm-1.5-2.84a11.353,11.353,0,0,1-.881.9h3.761a5.221,5.221,0,0,0,.8-.9Zm1.4,13.9c.86,0,1.08-.52,1.06-1.54a19.17,19.17,0,0,1-2.5,1.54Zm1.66-7.8c-.3.26-.4.34-.56.461a6.9,6.9,0,0,1,1.78,2.579c-.22-.6-.64-1.8-.98-3.04Zm3.521-3.26h-2.581v1.26h2.581Zm-1.161,3.26c.221.7.34.981.58,1.58a11.64,11.64,0,0,0,1.521-1.58Z" transform="translate(-114.999 -53.809)" fill="#67cbca"/><path d="M-.5-.5H639.667V409.667H-.5ZM638.667.5H.5V408.667H638.667Z" transform="translate(0.417 0.417)" fill="#646464"/><path d="M.5,409.167h-1V0h1Z" transform="translate(140.417 0.417)" fill="#646464"/><path d="M639.167.5H0v-1H639.167Z" transform="translate(0.417 50.417)" fill="#646464"/><path d="M139,49.638-.167.471.167-.471,139.334,48.7Z" transform="translate(0.417 0.417)" fill="#646464"/><path d="M639.167.5H0v-1H639.167Z" transform="translate(0.417 219.583)" fill="#646464"/><path d="M.5,409.167h-1V0h1Z" transform="translate(386.25 0.417)" fill="#646464"/></g></svg>