<?xml version="1.0" encoding="utf-8"?>
<!-- Generator: Adobe Illustrator 26.5.3, SVG Export Plug-In . SVG Version: 6.00 Build 0)  -->
<svg version="1.1" xmlns="http://www.w3.org/2000/svg" xmlns:xlink="http://www.w3.org/1999/xlink" x="0px" y="0px"
	 viewBox="0 0 880 550" style="enable-background:new 0 0 880 550;" xml:space="preserve">
<style type="text/css">
	.st0{fill:#FFFFFF;}
</style>
<g id="デザイン">
	<g>
		<g>
			<path class="st0" d="M417.4,427.1h4.1v3.6h0.1c1.3-2.6,4.3-4.2,7.5-4.2c5.9,0,8.6,3.7,8.6,9.9v13.6h-4.2v-11.9
				c0-5.4-1.2-8-4.9-8.2c-4.8,0-7,3.9-7,9.4v10.6h-4.2V427.1z"/>
			<path class="st0" d="M448.1,422h-4.8v-4.8h4.8V422z M443.6,427.1h4.2v22.9h-4.2V427.1z"/>
			<path class="st0" d="M454.6,427.1h4v3.3h0.1c1.6-2.7,3.9-3.9,7.3-3.9c2.7,0,5.3,1.3,6.5,4.5c1.6-3.3,5-4.5,7.1-4.5
				c5.9,0,8,3.8,8,8.8v14.7h-4.2v-13.7c0-2.8-0.7-6.4-4.1-6.4c-4.3,0-6,4.2-6,8.5v11.6H469v-13.7c0-2.8-0.7-6.4-4.1-6.4
				c-4.3,0-6,4.2-6,8.5v11.6h-4.2V427.1z"/>
			<path class="st0" d="M492.9,416.3h4.2v13.9h0.1c1.3-2.1,3.6-3.7,7.6-3.7c6.7,0,9.9,5.4,9.9,11.6c0,6.3-2.9,12.4-9.9,12.4
				c-4.1,0-6.7-2.1-7.8-3.8h-0.1v3.2h-4V416.3z M503.9,430c-4.6,0-6.8,4.4-6.8,8.6c0,3.8,2,8.6,6.7,8.6c4.5,0,6.4-5.1,6.3-8.7
				C510.3,434.4,508.5,430,503.9,430z"/>
			<path class="st0" d="M519.1,416.3h4.2v33.7h-4.2V416.3z"/>
			<path class="st0" d="M546.9,449.1c-1.6,0.6-3.5,1.5-7.2,1.5c-8.1,0-11.9-5-11.9-12.4c0-6.8,4.3-11.6,10.8-11.6
				c7.6,0,10.1,5.6,10.1,13h-16.4c0,4.5,3.6,7.7,7.6,7.7c2.8,0,6-1.4,7.1-2.3V449.1z M544.1,436.4c0-3.5-2.1-6.4-5.7-6.4
				c-4.1,0-5.8,3.4-6.2,6.4H544.1z"/>
			<path class="st0" d="M566.1,428.7c2.1-1.3,4.6-2.2,7.6-2.2c6.6,0,9.2,3.2,9.2,9.5v9.5c0,2.6,0.1,3.8,0.2,4.5h-4v-3H579
				c-1,1.4-3.2,3.5-7.1,3.5c-4.9,0-8.4-2.2-8.4-7.2c0-5.8,6.3-7.6,10.7-7.6c1.7,0,2.8,0,4.5,0.1c0-4-1.4-6-5.7-6
				c-2.4,0-4.9,0.9-6.7,2.3L566.1,428.7z M578.7,439.1c-0.9,0-1.8-0.1-2.7-0.1c-2.3,0-8,0.4-8,4.4c0,2.4,2.3,3.7,4.3,3.7
				c4.2,0,6.4-2.6,6.4-6V439.1z"/>
			<path class="st0" d="M588.2,427.1h4v3.6h0.1c1.1-2.4,3.6-4.1,6-4.1c1.3,0,1.9,0.1,2.8,0.3v3.8c-0.8-0.3-1.6-0.4-2.3-0.4
				c-3.8,0-6.3,3.6-6.3,9.4v10.4h-4.2V427.1z"/>
			<path class="st0" d="M618.8,430.5h-6.1v12.6c0,2.7,1.6,4.1,3.6,4.1c1.3,0,2.2-0.4,2.9-0.8v3.6c-0.9,0.3-2.2,0.6-3.6,0.6
				c-4.4,0-7.1-2.1-7.1-6.7v-13.4h-5.2v-3.4h5.2v-5.3l4.2-1.4v6.7h6.1V430.5z"/>
			<path class="st0" d="M637.9,429.7h-5l3.9-11h4L637.9,429.7z M646.4,429.7h-4.9l3.8-11h4L646.4,429.7z"/>
			<path class="st0" d="M656.4,418.7h9.3c9.3,0,16.7,5.8,16.7,15.4c0,10.5-6.4,16-16.7,16h-9.3V418.7z M660.9,446.1h4.7
				c7.7,0,12-3.7,12-11.8c0-7.3-5-11.7-11.5-11.7h-5.3V446.1z"/>
			<path class="st0" d="M687.6,418.7h17.6v4h-13.1v9.2H704v4h-11.9v10.3h13.1v4h-17.6V418.7z"/>
			<path class="st0" d="M725.8,423.4c-2.3-0.9-3.6-1.3-5.9-1.3c-2.5,0-5.5,0.9-5.5,4.2c0,6,13.5,4.6,13.5,15c0,6.7-5.2,9.4-11.5,9.4
				c-2.2,0-4.4-0.6-6.4-1.3l0.5-4.2c1.5,0.6,4.2,1.5,6.5,1.5c2.6,0,6.2-1.4,6.2-5.1c0-7-13.5-5.1-13.5-14.8c0-5.6,4.4-8.5,10.1-8.5
				c2.1,0,4.5,0.4,6.7,1.1L725.8,423.4z"/>
			<path class="st0" d="M743,418.7h4.7l13.3,31.4h-4.9l-3.2-7.9h-15.4l-3.2,7.9h-4.7L743,418.7z M745.2,422.9l-6.3,15.6h12.5
				L745.2,422.9z"/>
			<path class="st0" d="M763.5,418.7h7.7c6.2,0,12.2,1,12.2,8.5c0,3.8-2.8,6.5-6.5,7.2v0.1c1.4,0.5,2.1,1.2,3.1,3.1l5.9,12.5h-5.1
				l-4.8-10.9c-1.4-3.1-2.9-3.1-5.3-3.1H768v13.9h-4.5V418.7z M768,432.2h3.8c4.3,0,6.8-1.9,6.8-4.9c0-2.8-2.2-4.6-6.3-4.6H768
				V432.2z"/>
			<path class="st0" d="M795.7,422.6H786v-4h24v4h-9.8v27.4h-4.5V422.6z"/>
			<path class="st0" d="M815.8,418.7h5l-3.8,11h-4L815.8,418.7z M824.4,418.7h5l-3.8,11h-4L824.4,418.7z"/>
			<path class="st0" d="M676.3,473.1h4.2V487h0.1c1.3-2.1,3.6-3.7,7.6-3.7c6.7,0,9.9,5.4,9.9,11.6c0,6.3-2.9,12.4-9.9,12.4
				c-4.1,0-6.7-2.1-7.8-3.8h-0.1v3.2h-4V473.1z M687.3,486.7c-4.6,0-6.8,4.4-6.8,8.6c0,3.8,2,8.6,6.7,8.6c4.5,0,6.4-5.1,6.3-8.7
				C693.7,491.1,691.9,486.7,687.3,486.7z"/>
			<path class="st0" d="M701.1,513c0.5,0.2,1.3,0.4,2,0.4c3.8,0,5-5.2,5-5.7c0-0.5-0.5-1.7-0.8-2.4l-7.8-21.4h4.6l6.2,19h0.1l6.3-19
				h4.3l-8.5,23.4c-1.6,4.4-3.2,9.5-8.8,9.5c-1.3,0-2.1-0.2-2.9-0.3L701.1,513z"/>
			<path class="st0" d="M740.9,479.4h-9.8v-4h24v4h-9.8v27.4h-4.5V479.4z"/>
			<path class="st0" d="M780.5,480.6c-2-1.2-4.2-1.8-6.5-1.8c-7.2,0-12.1,5.2-12.1,12.3c0,7.4,5.3,12.3,11.8,12.3
				c2.2,0,5.3-0.6,6.8-1.5l0.3,4.4c-2.4,1-5.3,1.1-7.2,1.1c-9.9,0-16.6-6.4-16.6-16.4c0-9.7,7-16.1,16.6-16.1c2.4,0,4.8,0.4,7.1,1.4
				L780.5,480.6z"/>
			<path class="st0" d="M785.1,475.4h9.3c9.3,0,16.7,5.8,16.7,15.4c0,10.5-6.4,16-16.7,16h-9.3V475.4z M789.6,502.9h4.7
				c7.7,0,12-3.7,12-11.8c0-7.3-5-11.7-11.5-11.7h-5.3V502.9z"/>
		</g>
	</g>
</g>
<g id="レイヤ表示">
</g>
</svg>
