<?xml version="1.0" encoding="utf-8"?>
<!-- Generator: Adobe Illustrator 26.5.3, SVG Export Plug-In . SVG Version: 6.00 Build 0)  -->
<svg version="1.1" id="レイヤー_1" xmlns="http://www.w3.org/2000/svg" xmlns:xlink="http://www.w3.org/1999/xlink" x="0px"
	 y="0px" viewBox="0 0 640 363" style="enable-background:new 0 0 640 363;" xml:space="preserve">
<style type="text/css">
	.st0{fill:#DC0000;}
</style>
<g>
	<g>
		<path d="M6.5,166.9c-1.4,0.8-2.1,1.7-2.1,2.7c0,0.4,0,0.5,0.9,0.7c0.8,0.2,1.3,0.8,1.3,1.6c0,1-0.8,1.8-1.9,1.8
			c-1.2,0-2.1-1.1-2.1-2.5c0-2.1,1.3-3.9,3.4-5L6.5,166.9z M12,166.9c-1.4,0.8-2.1,1.7-2.1,2.7c0,0.4,0,0.5,0.9,0.7
			c0.8,0.2,1.3,0.8,1.3,1.6c0,1-0.8,1.8-1.9,1.8c-1.2,0-2.1-1.1-2.1-2.5c0-2.1,1.3-3.9,3.4-5L12,166.9z"/>
		<path d="M15.3,176.7c1.2,0.2,1.8,0.2,3.7,0.2h16.5c0.8-1.1,1.1-1.4,1.9-2.4c1.4,1.1,1.9,1.5,3.2,2.7c0.1,0.1,0.1,0.1,0.1,0.2
			c0,0.1-0.1,0.2-0.3,0.2H19c-1.7,0-2.2,0-3.5,0.2L15.3,176.7z"/>
		<path d="M42.8,189.3c2.6-1.8,3.9-3.1,5.3-5c2.5-3.3,4.2-7.1,5.1-11.4c0.4-2.1,0.6-4.2,0.6-6c0-0.6,0-0.9-0.1-1.6
			c3.1,0.4,3.4,0.5,3.4,0.8c0,0.2-0.1,0.3-1.2,0.7c0,0.4,0,0.6,0,0.9c0,4.1,1.5,8.9,3.9,12.3c1.5,2.2,3.5,4,5.7,5.4
			c1.1,0.7,1.7,1,3.2,1.5v0.3c-0.1,0-0.2,0-0.2,0c-0.6,0-1.1,0.2-1.4,0.6c-0.3,0.3-0.4,0.6-0.8,1.4c-2.8-1.8-4.9-3.9-6.7-6.8
			c-1.3-2.1-2.5-5-3.2-7.8c-0.3-1.2-0.5-2.1-0.7-4.1c-0.8,5.2-2.1,8.8-4.5,12.1c-2.2,3.1-4.5,5-8.2,6.9L42.8,189.3z"/>
		<path d="M72.4,171.5c0.4,0.4,0.7,0.5,1.3,0.5c0.8,0,1.5-0.1,7.8-1.7c1-0.3,2.6-0.6,4.5-1c2-0.4,2.9-0.6,3.8-0.9
			c0.6-0.2,0.8-0.2,1-0.2c0.3,0,1,0.3,1.5,0.6c0.6,0.3,0.8,0.7,0.8,1.1c0,0.4-0.3,0.7-0.9,0.7c-0.1,0-0.3,0-0.5,0
			c-0.3-0.1-0.5-0.1-0.8-0.1c-4.8,0-9.4,4.6-9.4,9.4c0,2.5,1.3,4.5,3.7,5.5c0.9,0.4,2,0.6,2.8,0.7c0.6,0,0.8,0.1,1.2,0.4
			c0.5,0.5,0.8,1,0.8,1.3c0,0.4-0.4,0.8-1,0.8c-1.6,0-4.1-0.9-5.7-2c-2.1-1.5-3.2-3.7-3.2-6.3c0-2.3,1.1-4.8,3.1-6.8
			c1.1-1.2,2.2-2,4.6-3.2c-3.5,0.4-9.9,2.3-12.5,3.8c-0.6,0.3-0.8,0.4-1.1,0.4c-0.7,0-1.5-0.6-2.2-1.7c-0.4-0.7-0.7-1.4-0.7-1.9
			c0-0.2,0.1-0.4,0.3-0.8C71.7,170.7,72,171.1,72.4,171.5z M89,174c1,0.6,1.8,1.1,2.5,1.7c1,0.9,1.4,1.6,1.4,2.2s-0.4,1.2-0.9,1.2
			c-0.4,0-0.4,0-1.2-1.8c-0.5-1-1.4-2.2-2.2-3L89,174z M91.9,172.4c1,0.4,1.8,1,2.7,1.6c1.1,0.8,1.4,1.4,1.4,2.2
			c0,0.7-0.3,1.1-0.7,1.1c-0.3,0-0.4-0.1-0.6-0.5c-1-1.8-1.5-2.5-3.1-4L91.9,172.4z"/>
		<path d="M102.3,169.6c0.7,1,1.1,1.5,1.9,2c1,0.6,1.8,0.9,3.3,1.2c0.8-3.9,0.9-4.3,0.9-5c0-1-0.4-1.5-1.5-2.3
			c0.2-0.1,0.3-0.1,0.5-0.1c0.5,0,1.2,0.3,2.1,0.9c0.9,0.6,1.5,1.4,1.5,2c0,0.3-0.1,0.5-0.4,0.8c-0.5,0.7-0.8,1.4-1.5,3.9
			c0.6,0.2,0.8,0.3,1.1,0.6c0.2,0.3,0.4,0.6,0.4,0.9c0,0.4-0.3,0.6-0.9,0.6c-0.3,0-0.6-0.1-1.1-0.1c-0.6,1.9-0.9,3.5-1.1,5.2
			c0.7,0.1,1.1,0.2,1.4,0.2c0.1,0,0.1,0,0.2,0c0.2,0,0.3,0,0.3,0c0.7,0,1.7,0.9,1.7,1.5c0,0.4-0.4,0.6-1,0.6c-0.8,0-2-0.2-3-0.5
			c-0.1,0.7-0.1,1-0.1,1.4c0,2.9,1.6,4.5,4.4,4.5c1.9,0,3.6-0.7,4.4-1.9c0.6-0.8,0.9-1.8,0.9-2.9c0-2.3-1.6-5-4.2-7l0.3-0.4
			c4.1,2.5,5.9,4.9,5.9,7.7c0,3.4-2.9,6-6.8,6c-1.5,0-2.9-0.4-3.8-1.1c-1.5-1.1-2.2-2.8-2.2-5.2c0-0.3,0-0.7,0.1-1.4
			c-1.1-0.5-1.7-0.8-2.2-1.4c-0.8-0.8-1.2-1.8-1.2-2.8c0-0.6,0.3-1.3,0.9-1.9c0.7-0.7,1.4-1.1,2.7-1.5c-1.1-0.4-1.9-0.9-2.7-1.7
			c-0.6-0.6-0.9-1.2-1.5-2.5L102.3,169.6z M103.9,175.8c-0.4,0.4-0.6,0.9-0.6,1.4c0,1.2,1,2,2.9,2.6c0.1-1.4,0.4-3,0.8-5.1
			C105.4,174.9,104.6,175.2,103.9,175.8z"/>
		<path d="M138.8,167.7c0.5-0.6,0.6-0.8,1.2-1.3c0.9,0.7,1.2,0.9,2.1,1.5c0.1,0.1,0.2,0.2,0.2,0.3c0,0.3-0.4,0.4-1.5,0.7
			c-3,4.1-5.2,6.4-8.6,8.5c-2.8,1.8-5.2,2.8-8.7,3.7l-0.1-0.4c3.7-1.5,6.3-2.9,9-5.1c2.9-2.2,4.6-4.3,6.6-7.3h-6.1
			c-0.8,0.9-1.6,1.7-2.6,2.5c1.1,0.5,1.9,0.9,2.6,1.3c0.4,0.3,0.6,0.7,0.6,1.1c0,0.6-0.4,1.4-0.8,1.4c-0.2,0-0.3-0.1-0.4-0.4
			c-0.1-0.3-0.7-1.2-1-1.7c-0.4-0.6-0.7-1-1.3-1.5c-1.9,1.6-3.5,2.5-6,3.6l-0.2-0.3c2.6-1.7,4.6-3.4,6.5-5.5c1.5-1.7,2.4-3.1,3-4.7
			c1,0.3,2.4,0.8,2.8,1c0.1,0.1,0.2,0.1,0.2,0.2c0,0.1-0.1,0.2-0.1,0.2c-0.1,0.1-0.2,0.1-0.4,0.1c-0.4,0.1-0.4,0.1-0.8,0.2
			c-0.6,0.8-0.8,1-1.4,1.7h5.2V167.7z M137.7,177.6c-1,0.9-1.6,1.5-2.5,2.2c1.3,0.8,2.1,1.2,2.4,1.4c0.8,0.6,1,0.9,1,1.5
			s-0.5,1.6-0.9,1.6c-0.1,0-0.2-0.1-0.4-0.4c-0.2-0.4-0.8-1.5-1.1-2.1c-0.4-0.6-0.8-1.1-1.3-1.7c-2.4,1.8-4.6,2.9-7.8,4.1l-0.2-0.3
			c5.5-3.1,9.7-6.8,11.6-10.4c2.1,0.5,2.7,0.8,2.7,1c0,0.2-0.3,0.4-1.3,0.6c-0.7,0.8-0.9,1.1-1.6,1.8h6c0.5-0.6,0.7-0.8,1.3-1.3
			c0.9,0.6,1.2,0.8,2.1,1.5c0.1,0.1,0.2,0.1,0.2,0.2c0,0.2,0,0.2-1.5,0.7c-1.5,2.4-2.6,3.8-4.5,5.5c-2.9,2.6-6.2,4.4-10.4,5.5
			c-1.8,0.5-3.4,0.8-6.3,1.2l-0.1-0.4c4.6-1.1,8.3-2.4,11.1-4c2.4-1.4,4.6-3.3,6.3-5.4c0.7-0.8,1-1.4,1.8-2.8L137.7,177.6
			L137.7,177.6z"/>
		<path d="M160.5,165.5c0.8,0,2.3,0.7,3.1,1.5c0.4,0.4,0.6,0.7,0.6,1.1c0,0.4-0.1,0.5-1.6,1.7c-1.5,1.3-4.3,3.8-5.2,4.8
			c-1,1.1-1.3,1.7-1.3,2.3c0,0.4,0.3,0.9,0.8,1.5c0.4,0.4,0.4,0.4,2,1.8c3.1,2.8,4.5,4.4,5.2,5.7c0.3,0.6,0.4,1.1,0.4,1.8
			c0,1.1-0.4,1.7-1,1.7c-0.4,0-0.5-0.1-1-1.1c-0.5-1.1-1.4-2.6-2.4-3.9c-1-1.5-1.2-1.7-4.1-5.1c-0.8-0.9-1.1-1.6-1.1-2.4
			c0-0.9,0.4-1.7,2.2-3.8c3.4-4.1,4.2-5.3,4.2-6c0-0.5-0.4-0.9-1.5-1.7C160.1,165.5,160.3,165.5,160.5,165.5z"/>
		<path d="M185.7,187.6c3-0.9,5-2,6.6-3.9c1.7-1.9,2.5-4.2,2.5-6.7c0-2.7-1.1-4.9-3.2-6.2c-1.2-0.8-3.1-1.3-4.8-1.3
			c-0.3,0-0.5,0-1,0.1c0.7,1,0.9,1.5,0.9,2.3c0,2.2-1.6,6.3-3.7,9.7c-1.8,2.8-3.1,4.2-4.2,4.2c-0.5,0-0.9-0.2-1.2-0.6
			c-0.3-0.3-0.3-0.4-0.8-1.8c-0.3-0.7-0.4-1.1-1.2-2.6c-0.4-0.9-0.6-1.7-0.6-2.5c0-1.8,1-3.8,2.5-5.5c2.3-2.4,6-3.9,9.6-3.9
			c2.8,0,5.4,0.9,7.2,2.6c1.8,1.7,2.7,3.9,2.7,6.6c0,3.5-2,6.6-5.6,8.5c-1.6,0.9-3.1,1.3-5.5,1.7L185.7,187.6z M176.5,178.9
			c0,1.3,0.4,2.7,1.1,3.7c0.4,0.5,0.8,0.8,1.1,0.8c0.6,0,2-1.5,3.3-3.7c2.1-3.3,3.6-6.9,3.6-8.7c0-0.4-0.1-0.7-0.4-1.4
			C180.3,170.5,176.5,174.6,176.5,178.9z"/>
		<path d="M217.6,165.5h-6.7v13.9h-1.2v-15.1h7.9V165.5z"/>
		<path d="M223.4,188.7c2.1-1.7,3.8-4.2,5.1-7.1c0.9-2.1,1.7-4.9,1.7-6.1c0-0.8-0.5-1.3-1.7-1.8c0.2-0.2,0.4-0.3,0.6-0.3
			c0.4,0,1.3,0.4,2.2,0.8c0.7,0.4,1,0.6,1.2,1c1.3-0.8,3.8-2.8,5-4c0.6-0.6,0.9-0.9,0.9-1.1c0-0.3-0.3-0.4-1.7-0.4
			c-1.8,0-6.6,0.8-9.7,1.5c-1.1,0.3-2,0.6-2.9,1c-0.2,0.1-0.4,0.1-0.6,0.1c-0.6,0-1.6-0.8-2.2-1.9c-0.3-0.5-0.5-1.2-0.5-1.5
			c0-0.2,0.1-0.4,0.2-0.6c0.5,1.1,1.4,1.7,2.8,1.7c1,0,1.5-0.1,6.7-0.7c0.3,0,0.9-0.1,1.9-0.2c4.3-0.5,4.6-0.6,5.2-0.8
			c0.2-0.1,0.2-0.1,0.4-0.1c0.3,0,0.8,0.3,1.5,0.8c1.2,0.9,2,1.9,2,2.4c0,0.4-0.2,0.5-1,0.8c-0.4,0.1-0.8,0.3-1.4,0.6
			c-2.3,1.3-3.6,2-6.6,3.4c-0.2,0.5-0.2,0.5-0.4,1.3c-1.3,3.8-2.4,6-4,8c-1.4,1.6-2.8,2.8-4.3,3.8L223.4,188.7z"/>
		<path d="M245.9,176c0.7,0.5,1.2,0.7,2.7,0.7c0.3,0,0.3,0,3.4-0.1c1.1,0,10-0.2,10.9-0.2c2.5,0,3.1,0.1,3.6,0.3
			c0.3,0.1,0.4,0.3,0.4,0.6s-0.3,0.6-0.6,0.8c-0.8,0.3-1.4,0.3-6.7,0.3c-2.6,0-9,0.2-10,0.3c-1.3,0.1-1.6,0.1-2,0.4
			c-0.1,0-0.3,0.1-0.4,0.1c-0.4,0-0.9-0.3-1.3-0.9c-0.6-0.7-1.1-1.9-1.1-2.6c0-0.4,0-0.4,0.2-0.6C245.4,175.6,245.5,175.8,245.9,176
			z"/>
		<path d="M276.6,166.1c0.6,0,1.2,0.1,2.1,0.5c1.2,0.4,1.8,1,1.8,1.5c0,0.2,0,0.2-0.2,0.6c-0.3,0.8-0.5,2.9-0.5,6.1
			c2.1,0.2,4.9,0.9,6.5,1.6c1.3,0.6,1.7,1.1,1.7,2.2c0,0.8-0.3,1.3-0.7,1.3c-0.3,0-0.3,0-1-0.7c-1.8-1.7-4-2.9-6.6-3.6
			c0,1.8,0,2.6,0,3.5c0,0.7,0,1.1,0,1.7c0,1.3,0,1.7,0,2.4c0,0.8,0,0.8,0.1,3.2c0,0.6,0,1.1,0,1.5c0,0.5,0,0.8-0.1,1
			c-0.1,0.1-0.3,0.3-0.5,0.3c-0.7,0-1.8-1.5-1.8-2.4c0-0.3,0-0.4,0.1-0.8c0.4-1.3,0.6-5,0.6-12.1c0-2-0.1-4.1-0.2-4.8
			c-0.2-1.3-0.8-2-2.1-2.5C276.2,166.1,276.3,166.1,276.6,166.1z"/>
		<path d="M300.4,176.9c-0.3,4.2-2,7.9-3.6,7.9c-0.5,0-0.9-0.7-0.9-1.7c0-0.5,0.1-0.7,0.7-1.1c1.5-0.9,2.8-3.1,3.2-5.2L300.4,176.9z
			 M297.2,171.6c1.3,1.5,1.8,1.7,3.2,1.7c1.2,0,2.9-0.2,5-0.5v-0.4c0-2.9-0.1-3.6-0.3-4.1c-0.3-0.6-0.8-0.8-2-1.1
			c0.3-0.3,0.6-0.4,1-0.4c0.8,0,2.1,0.3,2.9,0.7c0.7,0.3,0.9,0.6,0.9,1.1c0,0.2,0,0.3-0.2,0.6c-0.4,0.9-0.6,1.7-0.6,3.3
			c0.5-0.1,0.5-0.1,2.4-0.5c1.1-0.2,1.9-0.6,2.5-0.9c0.2-0.1,0.3-0.2,0.5-0.2c0.3,0,1,0.2,1.5,0.4c0.7,0.3,1.1,0.6,1.1,1
			s-0.3,0.5-1.3,0.6c-1.5,0.1-5.2,0.7-6.7,0.9c0,1.6,0,1.8,0,2.4c0,2.6,0.1,5.1,0.3,7.5c0.1,0.5,0.1,0.7,0.1,1
			c0,0.8-0.1,1.5-0.5,2.2c-0.3,0.7-0.6,1-1.1,1c-0.4,0-0.6-0.3-0.8-0.9c-0.3-0.8-0.6-1.1-2.9-2.5c-0.4-0.3-0.8-0.5-1.4-0.9l0.1-0.3
			c1.9,0.6,3.2,1,4.6,1.2c0.1-0.8,0.1-4.4,0.2-10.6c-1.5,0.2-3.6,0.4-4.5,0.4C299.2,174.3,298.3,173.7,297.2,171.6L297.2,171.6z
			 M310.9,176.5c2.4,1.5,3.5,2.4,4.4,3.5c0.6,0.7,0.8,1.4,0.8,2.1c0,1.1-0.5,2.2-1.1,2.2c-0.3,0-0.4-0.1-0.9-1.5
			c-0.8-2.3-2-4.4-3.6-6L310.9,176.5z"/>
		<path d="M322.8,187.1c1.5-1.4,2.7-3.1,3.8-5.3c1.1-2.2,1.9-5.7,1.9-7.6c0-1.1-0.5-1.7-1.9-2.2c0.3-0.2,0.4-0.3,0.8-0.3
			c0.6,0,1.3,0.2,2.1,0.7c1,0.6,1.5,1.1,1.5,1.5c0,0.2-0.1,0.4-0.4,1.3c0,0.1,0,0.1-0.3,1c-0.9,2.9-1.1,3.6-1.9,5.2
			c-1.3,2.7-2.9,4.5-5.3,6L322.8,187.1z M346.7,175.9c-0.9,1.5-1.6,2.4-3.1,3.9c-1.6,1.7-4.2,4-5.9,5.1c-0.5,0.4-1.3,1-1.6,1.3
			c-0.2,0.2-0.4,0.3-0.6,0.3c-0.6,0-1.7-1.5-1.7-2.3c0-0.1,0.1-0.3,0.2-0.9c0.2-0.6,0.3-3.1,0.3-7.6c0-6.4-0.1-6.7-2.2-7.2
			c0.3-0.3,0.5-0.4,0.9-0.4c0.7,0,1.5,0.3,2.5,0.9c0.8,0.5,1.1,0.9,1.1,1.3c0,0.1,0,0.3-0.2,0.8c-0.1,0.4-0.3,1.3-0.4,2.7
			c-0.1,1.2-0.4,7.4-0.4,8.4c0,0.4,0,0.7,0.1,1.3c3.2-1.3,7.4-4.4,10.6-7.9L346.7,175.9z"/>
		<path d="M352.6,189.3c4-2.5,7.4-5.6,9.9-9c-0.4-0.1-0.6-0.2-1.2-1.1c-1.1-1.7-2.2-2.9-3.9-4.2c-1.7,1.7-3.5,3.2-5.2,4.2l-0.3-0.4
			c2-1.7,3.7-3.5,5.4-5.8c1.8-2.4,2.8-4.1,2.8-4.9c0-0.6-0.5-1.1-1.8-1.7c0.3-0.1,0.4-0.1,0.6-0.1c0.6,0,1.7,0.3,2.5,0.8
			c0.8,0.4,1.1,0.8,1.1,1.2c0,0.4-0.3,0.8-1.3,2.2c0.3,0.1,0.5,0.1,0.8,0.1c0.6,0,1.6-0.2,3.7-0.6c1.4-0.3,1.7-0.4,2.2-0.8
			c0.1-0.1,0.3-0.1,0.4-0.1l0,0c0.6,0.1,2.2,1.7,2.2,2.3c0,0.2-0.1,0.3-0.4,0.6c-0.3,0.3-0.5,0.5-0.9,1.3c-2.8,5.2-5.8,9-9.4,12
			c-2.4,2-5.1,3.7-7.2,4.5L352.6,189.3z M363.4,171.6c-0.5,0.2-0.6,0.2-0.9,0.2c-0.5,0-1-0.2-1.7-0.8c-1,1.3-1.9,2.4-3,3.5
			c2.5,1.1,3.3,1.5,4.3,2.4c0.8,0.9,1.1,1.5,1.2,2.3c1.8-2.4,4.1-6.5,4.8-8.7C367.1,170.6,365.5,171,363.4,171.6z M369.4,165.3
			c1,0.6,1.8,1.1,2.4,1.7c1,0.9,1.4,1.6,1.4,2.2c0,0.7-0.3,1.2-0.8,1.2c-0.4,0-0.4,0-1.3-1.8c-0.5-1-1.4-2.2-2.1-2.9L369.4,165.3z
			 M372.1,163.7c1,0.5,1.8,1,2.7,1.6c1.1,0.8,1.4,1.4,1.4,2.2c0,0.7-0.3,1.1-0.7,1.1c-0.3,0-0.4-0.1-0.6-0.6c-1-1.8-1.5-2.5-3.1-4
			L372.1,163.7z"/>
		<path d="M380.3,176c0.7,0.5,1.2,0.7,2.7,0.7c0.3,0,0.3,0,3.4-0.1c1.1,0,10-0.2,10.9-0.2c2.5,0,3.1,0.1,3.6,0.3
			c0.3,0.1,0.4,0.3,0.4,0.6s-0.3,0.6-0.6,0.8c-0.8,0.3-1.4,0.3-6.7,0.3c-2.6,0-9,0.2-10,0.3c-1.3,0.1-1.6,0.1-2,0.4
			c-0.1,0-0.3,0.1-0.4,0.1c-0.4,0-0.9-0.3-1.3-0.9c-0.6-0.7-1.1-1.9-1.1-2.6c0-0.4,0-0.4,0.2-0.6C379.8,175.6,379.9,175.8,380.3,176
			z"/>
		<path class="st0" d="M411.7,167.7c0.3-0.3,0.5-0.4,0.8-0.4c0.5,0,1.3,1,1.3,1.7c0,0.4-0.3,0.5-1.6,0.9c-1,0.4-2,0.8-3.1,1.3
			c1,0.5,1,0.5,3.1,1.3c1.4,0.5,1.4,0.5,1.4,1c0,0.6-0.7,1.4-1.2,1.4c-0.3,0-0.6-0.3-1.3-0.9c-0.6-0.6-1.3-1.2-2.3-2.1
			c0.3,1.9,0.4,2.7,0.5,3.2s0.3,1,0.3,1.3c0,0.4-0.5,0.8-1.3,0.8s-1.2-0.3-1.2-0.8c0-0.1,0.1-0.6,0.3-1.2c0.3-1.2,0.3-1.6,0.4-3.2
			c-0.6,0.7-1.8,1.8-2.6,2.6c-0.4,0.5-0.6,0.7-0.9,0.7c-0.5,0-1.3-0.9-1.3-1.4c0-0.4,0.1-0.5,0.8-0.8c1.3-0.5,2.6-1.2,3.6-1.7
			c-0.3-0.1-0.3-0.1-1-0.5c-0.5-0.3-1.8-0.8-2.9-1c-0.4-0.1-0.7-0.4-0.7-0.7c0-0.7,0.7-1.6,1.2-1.6c0.3,0,0.6,0.3,1.2,0.8
			c0.6,0.7,1.7,1.6,2.5,2.1c-0.1-1.2-0.4-2.9-0.5-3.4c-0.1-0.4-0.1-0.8-0.1-1c0-0.4,0.5-0.8,1.2-0.8c0.8,0,1.3,0.3,1.3,0.7
			c0,0.3-0.1,0.6-0.3,1.2c-0.3,0.8-0.4,1.6-0.5,3.2C410,169.2,410.2,169.2,411.7,167.7z"/>
		<path class="st0" d="M267.8,16.5c0.3-0.3,0.5-0.4,0.8-0.4c0.5,0,1.3,1,1.3,1.7c0,0.4-0.3,0.5-1.6,0.9c-1,0.4-2,0.8-3.1,1.3
			c1,0.5,1,0.5,3.1,1.3c1.4,0.5,1.4,0.5,1.4,1c0,0.6-0.7,1.4-1.2,1.4c-0.3,0-0.6-0.3-1.3-0.9c-0.6-0.6-1.3-1.2-2.3-2.1
			c0.3,1.9,0.4,2.7,0.5,3.2s0.3,1,0.3,1.3c0,0.4-0.5,0.8-1.3,0.8s-1.2-0.3-1.2-0.8c0-0.1,0.1-0.6,0.3-1.2c0.3-1.2,0.3-1.6,0.4-3.2
			c-0.6,0.7-1.8,1.8-2.6,2.6c-0.4,0.5-0.6,0.7-0.9,0.7c-0.5,0-1.3-0.9-1.3-1.4c0-0.4,0.1-0.5,0.8-0.8c1.3-0.5,2.6-1.2,3.6-1.7
			c-0.3-0.1-0.3-0.1-1-0.5c-0.5-0.3-1.8-0.8-2.9-1c-0.4-0.1-0.7-0.4-0.7-0.7c0-0.7,0.7-1.6,1.2-1.6c0.3,0,0.6,0.3,1.2,0.8
			c0.6,0.7,1.7,1.6,2.5,2.1c-0.1-1.2-0.4-2.9-0.5-3.4c-0.1-0.4-0.1-0.8-0.1-1c0-0.4,0.5-0.8,1.2-0.8c0.8,0,1.3,0.3,1.3,0.7
			c0,0.3-0.1,0.6-0.3,1.2c-0.3,0.8-0.4,1.6-0.5,3.2C266.1,18,266.3,18,267.8,16.5z"/>
		<path d="M415.7,189.5h6.7v-13.8h1.2v15.1h-7.9L415.7,189.5L415.7,189.5z"/>
		<path d="M432.2,169.7c1.3,1.1,2,1.3,3.5,1.3c0.9,0,1.7-0.1,3-0.4c0.6-1.2,1-2.2,1-2.9c0-0.8-0.5-1.2-2-1.6
			c0.5-0.3,0.7-0.3,1.3-0.3c0.6,0,1.5,0.2,2.2,0.5s1,0.6,1,0.9c0,0.2-0.1,0.4-0.4,0.8c-0.3,0.3-0.6,0.8-0.8,1.1
			c-0.5,0.8-0.5,0.8-0.7,1.1c2.4-0.7,3.1-1,4-1.8c0.2-0.1,0.3-0.2,0.5-0.2c1.1,0,1.9,0.4,1.9,0.9c0,0.3-0.4,0.6-1.2,0.9
			c-2.5,0.8-3.8,1.1-6.1,1.6c-0.5,0.7-0.8,1.2-1.5,2.2c-0.8,1.2-1,1.5-1.5,2.2c1.6-0.8,2.5-1.1,3.6-1.1c1.7,0,2.9,1.1,3.1,2.8
			c0.5-0.2,0.5-0.2,2.7-1.4c2.8-1.4,3.4-1.8,3.4-2.4c0-0.5-0.5-1-1.3-1.3c0.3-0.1,0.4-0.2,0.6-0.2c1.2,0,3.2,1.7,3.2,2.8
			c0,0.5-0.2,0.7-1,0.9c-1.7,0.4-5.3,1.8-7.5,2.9c0,0.9,0,1.1,0,2.3c0,1.3-0.1,2.1-0.2,2.4c-0.1,0.3-0.4,0.5-0.8,0.5
			c-0.5,0-0.9-0.4-0.9-0.8c0-0.1,0-0.3,0-0.5c0.1-0.8,0.2-1.8,0.2-3c-1.7,1-2.5,1.5-3.3,2.2c-0.9,0.9-1.4,1.8-1.4,2.6
			c0,1.5,1.5,2.2,4.7,2.2c2,0,3.9-0.3,5.6-0.8c0.2-0.1,0.4-0.1,0.5-0.1c0.9,0,2,0.8,2,1.4c0,0.4-0.3,0.6-0.9,0.8
			c-1.1,0.2-3.3,0.4-5,0.4c-2.6,0-4.6-0.3-5.7-0.8c-1.4-0.7-2.1-1.6-2.1-3c0-1.3,0.6-2.5,2-3.8c0.7-0.7,1.6-1.3,3.5-2.5
			c0-1.2-0.1-1.6-0.4-2.2c-0.3-0.5-0.8-0.8-1.4-0.8c-1.8,0-4.1,1.5-6.1,4.1c-0.5,0.7-0.8,0.9-1,0.9c-0.4,0-0.8-0.6-0.8-1.5
			c0-0.6,0-0.6,0.8-1.3c2-1.6,3.2-3,5.2-6c-0.9,0.1-1.3,0.2-1.9,0.2c-1.9,0-2.9-0.5-4.2-2.2L432.2,169.7z"/>
		<path d="M468.9,172v-4c0-1.1-0.1-2-0.2-2.8c2.5,0.2,3.3,0.3,3.3,0.6c0,0.2-0.2,0.4-1.1,0.8v5.4h5.3c0.6-0.9,0.8-1.2,1.5-2.1
			c1.3,1,1.7,1.3,2.9,2.4c0.1,0.1,0.1,0.2,0.1,0.2c0,0.1-0.1,0.2-0.3,0.2h-9.6v6.6h4.8c0.6-0.9,0.8-1.2,1.5-2.1
			c1.2,1,1.6,1.3,2.8,2.3c0.1,0.1,0.1,0.2,0.1,0.2c0,0.1-0.1,0.2-0.4,0.2h-8.8v7.9h6.7c0.8-0.9,1-1.2,1.8-2.2c1.3,1,1.8,1.3,3.1,2.4
			c0.1,0.1,0.1,0.2,0.1,0.2c0,0.1-0.2,0.2-0.3,0.2h-21.8c-1.1,0-1.8,0.1-2.7,0.2l-0.3-1.1c1.1,0.2,1.7,0.3,3,0.3h8.5v-7.9h-6
			c-0.8,0-1.7,0.1-2.2,0.2l-0.2-1c1.2,0.2,1.7,0.2,2.5,0.2h6v-6.6h-6.2c-1.5,2.5-2.7,4.1-4.7,6.1l-0.3-0.3c1.8-2.5,2.9-4.6,4.1-7.7
			c0.7-1.8,1-2.7,1.2-4c2.7,0.8,3.2,1.1,3.2,1.3c0,0.3-0.3,0.4-1.3,0.4c-0.7,1.5-1,2.2-1.8,3.4h5.7L468.9,172L468.9,172z"/>
		<path d="M496.6,189.1c2-1.7,3-2.6,4-4c1-1.4,1.7-2.7,2.5-4.8c-2.4-1.3-4.8-1.9-8-2c-1.7,3.1-2.4,4.3-3.4,5.5
			c-1,1.3-1.9,1.9-2.7,1.9c-1.2,0-2.2-1.3-2.2-3c0-1.4,0.7-2.9,1.9-3.9c1.2-1,3.1-1.7,5.3-1.8c0.4-0.7,0.4-0.9,2-4.4
			c0.9-2.1,1-2.4,1.5-3.9c-0.7,0.2-2.6,0.8-4,1.3c-0.4,0.1-0.7,0.2-0.9,0.2c-0.9,0-1.8-1.4-1.8-2.7c0-0.3,0.1-0.4,0.3-0.6
			c0.6,1.3,1.1,1.7,2.1,1.7c0.7,0,1.6-0.1,3-0.5c0.7-0.2,0.8-0.3,1.2-0.6c0.2-0.2,0.3-0.3,0.6-0.3c0.6,0,2,1.5,2,2.2
			c0,0.2-0.1,0.4-0.4,0.6c-0.6,0.5-0.9,0.9-2.8,4.8c-0.8,1.5-0.9,1.7-1.1,2.3c2.8,0.1,5.3,0.6,8,1.6c0.5-1.5,0.9-3.6,0.9-4.5
			c0-0.8-0.4-1.3-1.5-1.9c0.2-0.1,0.3-0.2,0.5-0.2c0.5,0,1.1,0.2,2,0.6s1.3,0.9,1.3,1.4c0,0.3,0,0.4-0.3,1c-0.1,0.2-0.3,0.8-0.7,2.1
			c-0.1,0.5-0.3,0.8-0.6,2.1c3.4,1.7,4.3,2.5,4.3,4c0,0.6-0.3,1-0.6,1c-0.3,0-0.4-0.1-1-0.6c-0.9-0.9-1.8-1.6-3.3-2.6
			c-1.2,2.7-2.1,4-3.6,5.5c-1.3,1.2-2.4,2-4.2,2.9L496.6,189.1z M488,182.1c0,1,0.6,2,1.2,2c0.9,0,2.1-1.6,4.3-5.9
			C489.9,178.6,488,180,488,182.1z"/>
		<path d="M524.8,168.3c0-1.4,0-1.5-0.1-3.4c2.9,0.3,3.2,0.4,3.2,0.8c0,0.3-0.3,0.4-1.1,0.6v9h6.9v-5c0-0.7,0-0.8-0.1-2
			c0-0.6,0-0.6-0.1-1.1c2.7,0.3,3.1,0.4,3.1,0.8c0,0.2-0.2,0.4-1,0.6c-0.1,3.5-0.1,3.5-0.1,4.3c0,1,0,2.1,0.1,4.1
			c0,0.4-0.1,0.4-0.3,0.5c-0.2,0-0.8,0.1-1.2,0.1s-0.5-0.1-0.5-0.5V176h-6.9v11.5h8v-5.1c0-1.1-0.1-2.2-0.1-2.9
			c2.7,0.3,3.1,0.4,3.1,0.8c0,0.3-0.3,0.4-1,0.6c0,0.7,0,1.2,0,1.7c0,1.8,0,4,0.1,7.2c0,0.3-0.1,0.4-0.3,0.4
			c-0.3,0.1-0.7,0.1-1.1,0.1c-0.6,0-0.6-0.1-0.7-0.4v-1.7H517v1.5c0,0.3-0.1,0.4-0.4,0.4c-0.3,0-0.8,0.1-1.1,0.1
			c-0.4,0-0.6-0.1-0.6-0.4v-0.1c0.1-2.3,0.2-3.3,0.2-5.6c0-2,0-3.1-0.1-4.6c3.2,0.4,3.2,0.4,3.2,0.8c0,0.3-0.1,0.3-1.1,0.6v6.6h7.7
			V176h-6.5v1c0,0.3-0.1,0.4-0.3,0.4c-0.2,0.1-0.8,0.1-1.2,0.1s-0.5-0.1-0.5-0.4l0.1-4.1c0-3.3,0-5.1-0.1-5.9
			c1.9,0.2,2.9,0.3,3.1,0.4c0.1,0,0.1,0.2,0.1,0.3c0,0.3,0,0.3-1.2,0.7v6.8h6.5L524.8,168.3L524.8,168.3z"/>
		<path d="M563.4,183.1c-2.7,3.6-6.4,5.8-9.8,5.8c-2.1,0-3.8-0.9-4.6-2.4c-0.6-1-0.8-2.4-0.8-4.7c0-1.5,0.1-4.2,0.2-6.7
			c0.2-3,0.2-3.8,0.2-4.8c0-2.4-0.3-2.9-2.3-3.7c0.3-0.2,0.5-0.3,0.8-0.3c0.6,0,1.7,0.3,2.5,0.6c1.1,0.5,1.6,1.1,1.6,1.7
			c0,0.2,0,0.4-0.3,1c-0.5,1.7-1.5,10.2-1.5,13.4c0,1.7,0.3,2.7,1.1,3.4c0.6,0.5,1.5,0.8,2.5,0.8c1.9,0,4.3-0.7,6.4-1.8
			c1.3-0.7,2.1-1.3,3.6-2.5L563.4,183.1z"/>
		<path d="M570.8,171.8c1.1,1.2,1.9,1.5,3.1,1.5c1.1,0,2.3-0.2,3.6-0.5c0.6-1.8,1-3.8,1-4.7s-0.4-1.2-2-1.8c0.4-0.2,0.5-0.3,0.9-0.3
			c0.6,0,1.6,0.2,2.4,0.5c0.8,0.3,1.3,0.7,1.3,1.1c0,0.2,0,0.2-0.3,0.7c-0.4,0.5-1,2-1.7,4c1.6-0.6,2.6-1.1,3.2-1.7
			c0.4-0.4,0.6-0.5,0.8-0.5c0.4,0,1,0.1,1.5,0.3c0.3,0.1,0.4,0.3,0.4,0.5c0,0.5-0.4,0.8-1.6,1.4c-1.3,0.6-3.1,1.2-4.9,1.6
			c-0.3,1-0.3,1-1.2,3.6c-0.6,1.7-0.6,1.7-2.1,6.2c-1.1,3.3-1.5,4-2.1,4c-0.3,0-0.5-0.2-0.6-0.6c-0.2-0.4-0.4-1.1-0.4-1.6
			c0-0.4,0-0.5,0.6-1.4c1.4-2,2.5-4.5,4.4-10c-1.1,0.2-1.9,0.3-2.7,0.3c-1.7,0-2.8-0.7-3.8-2.5L570.8,171.8z M582,181.4
			c0,0.4,0,0.8,0,0.9c0,1.6,0.8,2.8,2.1,3.4c0.8,0.3,1.9,0.5,3,0.5s1.8-0.1,2.7-0.4c0.2-0.1,0.4-0.1,0.5-0.1c0.3,0,1,0.3,1.4,0.7
			c0.3,0.3,0.5,0.5,0.5,0.8c0,0.6-1.1,0.9-3.3,0.9s-3.9-0.3-5.2-0.9c-1.5-0.7-2.4-2.2-2.4-4.1c0-0.6,0.1-1.1,0.3-1.8L582,181.4z
			 M582.8,176.2c2-1.2,4.3-1.9,6.5-1.9c0.6,0,1.3,0.2,1.8,0.5c0.3,0.2,0.4,0.5,0.4,0.8c0,0.4-0.3,0.6-1.1,0.6
			c-1,0.1-1.4,0.1-2.2,0.6c-0.6,0.3-0.6,0.3-1.5,1c-0.5,0.3-0.5,0.3-1,0.6l-0.2-0.3c0.3-0.3,0.3-0.3,1.3-1.3
			c0.3-0.2,0.5-0.4,1.4-1.3c-1.8,0-3.3,0.3-5.3,1L582.8,176.2z"/>
		<path d="M608.6,177c-2,4.7-2.6,6.4-2.6,7.5c0,0.2,0,0.2,0.2,1c0,0.1,0.1,0.3,0.1,0.4c0,0.4-0.3,0.7-0.6,0.7
			c-0.8,0-2.2-1.1-3.1-2.4c-1-1.4-1.6-3.4-1.9-5.6c-0.2-1.2-0.2-1.9-0.2-4.9c0-2.6-0.2-3.2-1.4-4.8c0.1,0,0.1,0,0.3,0
			c0.4,0,1.3,0.5,2.1,1.4c0.8,0.8,1.3,1.6,1.3,2.2c0,0.2,0,0.4-0.1,0.7c-0.3,1.7-0.5,3-0.5,4.2c0,1.5,0.2,2.9,0.6,4.1
			s0.8,1.7,1.5,2.2c0.3-0.4,0.3-0.4,0.9-1.5c0.9-1.5,0.9-1.5,2.4-3.9c0.4-0.7,0.4-0.7,0.8-1.3L608.6,177z M614.6,172
			c3.5,0.8,6.3,4.5,6.3,8.4c0,1.3-0.6,2.2-1.4,2.2c-0.3,0-0.4-0.1-0.8-0.3c-0.4-0.3-0.9-0.3-2.1-0.3c-0.6,0-1.2,0-2.1,0.1l-0.1-0.4
			c2.3-0.6,3.5-1,3.8-1.1c0.6-0.2,0.6-0.3,0.6-0.8c0-1-0.4-2.7-0.9-3.7c-0.8-1.6-1.9-2.8-3.5-3.7L614.6,172z"/>
		<path d="M625.9,173.4c1.4-0.8,2.1-1.7,2.1-2.7c0-0.4,0-0.5-0.9-0.7c-0.8-0.2-1.3-0.8-1.3-1.6c0-1,0.8-1.8,1.9-1.8
			c1.3,0,2.1,1,2.1,2.5c0,2-1.3,3.9-3.4,4.9L625.9,173.4z M631.3,173.4c1.4-0.8,2.1-1.7,2.1-2.7c0-0.4,0-0.5-0.9-0.7
			c-0.8-0.2-1.3-0.8-1.3-1.6c0-1,0.8-1.8,1.9-1.8c1.3,0,2.1,1,2.1,2.5c0,2-1.3,3.9-3.4,4.9L631.3,173.4z"/>
		<path d="M285.2,217.4c0.3,0.2,0.6,0.3,1.1,0.3s2.3-0.4,4.3-1c1.1-0.3,1.8-0.5,2.2-0.7c0.2-0.1,0.2-0.1,0.6-0.4
			c0.1-0.1,0.3-0.2,0.5-0.2c0.8,0,2.5,1.8,2.5,2.6c0,0.3-0.1,0.4-0.7,0.6c-0.4,0.2-1.6,1.1-3.7,2.8c-2.1,1.8-5.3,4.2-8.1,6.3
			c3.1-1.2,5.2-1.9,10.9-3.5c1.1-0.3,2-0.6,2.6-0.8c0.7-0.3,0.9-0.3,1.1-0.3c0.4,0,1,0.3,1.5,0.7c0.4,0.3,0.5,0.5,0.5,0.8
			s-0.2,0.5-0.6,0.5c-0.2,0.1-0.3,0.1-1.8,0.1c-1.5,0.1-3.6,0.6-5,1.4c-2.4,1.3-3.8,3.2-3.8,5.2c0,1.6,1,2.9,2.8,3.5
			c0.7,0.3,1.2,0.3,2.5,0.3c0.2,0,0.4,0,0.5,0c0.2,0,0.4-0.1,0.4-0.1c0.6,0,1.7,1,1.7,1.6c0,0.5-0.4,0.8-1.4,0.8
			c-4.5,0-7.6-2.4-7.6-5.6c0-1.4,0.6-2.8,1.7-4c0.9-1,1.6-1.5,3.2-2.4c-3.2,0.9-8.3,3-10,4.1c-0.4,0.3-0.5,0.3-0.7,0.3
			c-0.6,0-1.6-0.9-1.6-1.5c0-0.4,0.2-0.6,0.8-0.7c1.5-0.4,4-2.4,7.9-6.1c3.1-2.9,4.5-4.5,4.5-4.9c0-0.2-0.2-0.4-0.4-0.4
			c-0.3,0-0.6,0.1-3.1,1.1c-1.6,0.6-2.6,1.1-3.4,1.6c-0.4,0.2-0.6,0.3-0.8,0.3c-0.6,0-1.2-0.6-1.7-1.5c-0.3-0.6-0.5-1.2-0.5-1.6
			c0-0.1,0-0.3,0.2-0.5C284.4,216.7,284.7,217,285.2,217.4z"/>
		<path d="M328.4,232.1c-2.7,3.6-6.4,5.8-9.8,5.8c-2.1,0-3.8-0.9-4.6-2.4c-0.6-1-0.8-2.4-0.8-4.7c0-1.5,0.1-4.2,0.2-6.7
			c0.2-3,0.2-3.8,0.2-4.8c0-2.4-0.3-2.9-2.3-3.7c0.3-0.2,0.5-0.3,0.8-0.3c0.6,0,1.7,0.3,2.5,0.6c1.1,0.5,1.6,1.1,1.6,1.7
			c0,0.2,0,0.4-0.3,1c-0.5,1.7-1.5,10.2-1.5,13.4c0,1.7,0.3,2.7,1.1,3.4c0.6,0.5,1.5,0.8,2.5,0.8c1.9,0,4.3-0.7,6.4-1.8
			c1.3-0.7,2.1-1.3,3.6-2.5L328.4,232.1z"/>
		<path d="M336.8,220.3c0.4,0.4,0.7,0.5,1.3,0.5c0.8,0,1.5-0.1,7.8-1.7c1.2-0.3,2.7-0.6,4.5-1c2.1-0.4,2.9-0.6,3.8-0.9
			c0.6-0.2,0.8-0.2,1-0.2c0.3,0,1,0.3,1.5,0.6c0.6,0.4,0.8,0.7,0.8,1.1c0,0.4-0.3,0.7-0.9,0.7c-0.1,0-0.3,0-0.5,0
			c-0.4-0.1-0.5-0.1-0.8-0.1c-4.8,0-9.4,4.6-9.4,9.3c0,2.6,1.3,4.5,3.7,5.5c0.9,0.4,2,0.6,2.9,0.7c0.6,0,0.8,0.1,1.2,0.4
			c0.5,0.5,0.8,1,0.8,1.3c0,0.5-0.4,0.8-1,0.8c-1.6,0-4.1-0.9-5.7-2c-2.1-1.5-3.2-3.7-3.2-6.3c0-2.3,1.1-4.8,3.1-6.8
			c1.1-1.2,2.2-2,4.6-3.2c-2.5,0.4-4.8,0.9-8,1.9c-1.8,0.6-3.6,1.3-4.5,1.8c-0.6,0.3-0.8,0.4-1.1,0.4c-0.7,0-1.5-0.6-2.2-1.7
			c-0.4-0.7-0.7-1.4-0.7-1.9c0-0.2,0.1-0.4,0.3-0.7C336.1,219.6,336.3,219.9,336.8,220.3z"/>
		<path d="M8.6,264.9c-1.4,0.8-2.1,1.7-2.1,2.7c0,0.4,0,0.5,0.9,0.7c0.8,0.2,1.3,0.8,1.3,1.6c0,1-0.8,1.8-1.9,1.8
			c-1.2,0-2.1-1.1-2.1-2.5c0-2.1,1.3-3.9,3.4-5L8.6,264.9z M14.1,264.9c-1.4,0.8-2.1,1.7-2.1,2.7c0,0.4,0,0.5,0.9,0.7
			c0.8,0.2,1.3,0.8,1.3,1.6c0,1-0.8,1.8-1.9,1.8c-1.2,0-2.1-1.1-2.1-2.5c0-2.1,1.3-3.9,3.4-5L14.1,264.9z"/>
		<path d="M29.6,276.5c0.8,2.2,1.5,3.1,3.2,5c1.5-0.8,1.9-1.1,3.6-2.5c1.5-1.3,1.5-1.3,2-2c2.3,1.1,2.7,1.3,2.7,1.6
			c0,0.2-0.2,0.3-0.6,0.3c-0.1,0-0.2,0-0.3,0s-0.3,0-0.6,0c-0.3,0.2-0.3,0.2-2,1.1c-0.6,0.3-0.6,0.3-3.5,1.7
			c-0.1,0.1-0.3,0.1-0.8,0.4c0.7,0.7,1.4,1.1,2.7,1.7c2,0.9,3.9,1.5,6.6,1.9l-0.1,0.3c-1.4,0.4-1.5,0.6-2.2,2
			c-2.9-1.1-4.1-1.8-5.6-2.8c-2.3-1.7-4.1-3.9-5.1-6.6c-0.2-0.5-0.4-0.9-0.7-1.9h-4.8v7.8c3.2-0.6,4.3-0.9,6.7-1.7L31,283
			c-1.7,0.9-3.3,1.5-6,2.4c-3.3,1.1-3.6,1.2-4.8,1.7c-0.1,0.2-0.1,0.4-0.1,0.5c-0.1,0.5-0.2,0.8-0.4,0.8c-0.3,0-0.6-0.8-1.2-3.1
			c1.3-0.1,1.3-0.1,3.8-0.6v-14.9c0-1.7,0-3.5-0.1-4.4c1,0.5,1.3,0.7,2.3,1.3h4.6V265c-0.1-1.2-0.1-1.9-0.2-2
			c2.5,0.2,3.3,0.4,3.3,0.7c0,0.3-0.3,0.4-1.2,0.7v2.3h4.6c0.4-0.6,0.5-0.8,1-1.3c0.8,0.6,1.1,0.8,1.9,1.5c0.1,0.1,0.2,0.2,0.2,0.3
			c0,0.2-0.3,0.4-1,0.9v4.6c0,3.3,0,3.3,0,4.1c0,0.5,0,0.5-1.6,0.6c-0.2,0-0.3-0.1-0.3-0.4v-0.5H29.6L29.6,276.5z M35.9,271v-3.8
			H24.2v3.8H35.9z M24.2,271.7v4.2h11.7v-4.2H24.2z"/>
		<path d="M53.9,268.1c0,1.3,0,2.3,0,3.1c0,0.1,0,0.2,0,0.3c0,0.1,0,0.2,0,0.3c0,0.2,0,0.3-0.1,0.4c-0.1,0.1-0.6,0.1-1.2,0.1
			c-0.3,0-0.4-0.1-0.4-0.3c0,0,0,0,0-0.1c0.1-1.1,0.1-1.1,0.1-3.9h-3.6c-0.4,2.6-1.5,4.2-3.8,5.9l-0.3-0.3c1.1-1.1,1.7-2.2,2.1-3.8
			c0.3-1.1,0.4-2.3,0.4-4.2c0-0.7,0-1-0.1-1.8c1,0.5,1.2,0.7,2.1,1.3c1.2-0.3,2.5-0.8,3.9-1.5c0.7-0.3,1-0.5,1.6-1
			c1.8,1.1,2.3,1.5,2.3,1.7c0,0.2-0.2,0.3-0.5,0.3c-0.2,0-0.4,0-0.9-0.1c-2,0.5-4.2,1-6.7,1.3c0,0.1,0,0.2,0,0.3c0,0.4,0,0.9,0,1.3
			h5.7c0.6-0.6,0.7-0.8,1.3-1.4c0.8,0.7,1.1,1,1.9,1.8l0.1,0.1c0,0.1-0.1,0.2-0.2,0.2L53.9,268.1L53.9,268.1z M45.3,287.8
			c3.8-0.9,7.1-2.3,8.5-3.6c2.2,0.6,2.7,0.9,2.7,1.2c0,0.1-0.2,0.3-0.6,0.3h-0.3c-0.2,0-0.3,0-0.6,0c-3.1,1.4-5.8,2.2-9.7,2.6
			L45.3,287.8z M51.7,284c0,0.2-0.1,0.3-0.2,0.3c-0.2,0.1-0.8,0.2-1.4,0.2c-0.3,0-0.4-0.1-0.5-0.3c0.1-2.3,0.1-4.6,0.1-8.3
			c0-2,0-2.6-0.1-3.9c1,0.4,1.3,0.6,2.2,1h11.7c0.3-0.4,0.4-0.6,0.8-1c0.7,0.5,1,0.6,1.7,1.1c0.2,0.1,0.3,0.3,0.3,0.3
			c0,0.2-0.3,0.4-0.9,0.8c0,4.4,0,7.6,0.1,9.7l0,0c0,0.3-0.1,0.3-0.3,0.4c-0.3,0.1-0.9,0.1-1.3,0.1c-0.3,0-0.3-0.1-0.4-0.2v-0.7
			H51.7V284z M63.6,276.1v-2.4H51.7v2.4H63.6z M51.7,276.7v2.7h11.8v-2.7H51.7z M51.7,280v2.8h11.8V280H51.7z M60,268.1
			c-0.2,0.8-0.4,1.2-0.8,1.8c-0.8,1.3-1.9,2-3.6,2.7l-0.2-0.3c1.7-1.3,2.2-2,2.6-3.3c0.3-1,0.5-2.8,0.5-4.3c0-0.4,0-0.5,0-1
			c1,0.5,1.3,0.7,2.1,1.3c1.1-0.2,2.8-0.8,4.7-1.6c1-0.4,1.2-0.6,1.7-1c1.7,1,2.4,1.5,2.4,1.8c0,0.1-0.1,0.3-0.3,0.3
			c-0.2,0-0.2,0-1.1-0.2c-2.2,0.6-3.6,0.9-7.7,1.4c0,0.2,0,0.4,0,0.5c-0.1,0.7-0.1,0.9-0.2,1.3H67c0.6-0.7,0.6-0.7,1.4-1.5
			c0.9,0.7,1.2,1,2,1.7c0.1,0.1,0.1,0.1,0.1,0.2s-0.1,0.2-0.2,0.2h-5.2c0,0.4,0,1.5,0,3.1c0,0.1,0,0.2-0.1,0.3s-0.8,0.2-1.3,0.2
			c-0.2,0-0.3-0.1-0.4-0.3c0-0.8,0-0.8,0-2.1c0-0.4,0-0.7,0-0.8c0-0.1,0-0.2,0-0.3L60,268.1L60,268.1z M59.8,284.4
			c3.8,0.4,6.7,0.9,7.3,1.1c0.8,0.3,1.3,1.2,1.3,2c0,0.4-0.2,0.6-0.6,0.6c-0.3,0-0.3,0-1.1-0.6c-0.7-0.4-2.7-1.4-4-1.9
			c-0.5-0.2-1.1-0.4-3-1L59.8,284.4z"/>
		<path d="M74.5,268.6c1.3,1.3,2.1,1.6,3.5,1.6c0.7,0,1.5-0.1,2.5-0.3c0.7-1.8,1-3,1-4c0-0.9-0.4-1.5-1.8-2.2
			c0.3-0.2,0.4-0.2,0.7-0.2c0.6,0,1.4,0.3,2.2,0.6c1,0.5,1.3,0.8,1.3,1.2c0,0.2-0.1,0.4-0.3,0.7c-0.1,0.2-0.7,1.4-1.7,3.4
			c2.1-0.7,2.3-0.9,3.1-1.5c0.2-0.2,0.3-0.2,0.6-0.2c1.1,0,1.9,0.4,1.9,0.8c0,0.7-1.7,1.4-6.2,2.5c-0.3,0.6-0.7,1.7-1.5,3.4
			c-0.8,1.9-3,6.6-3.2,7.1c-0.4,0.8-0.7,1-1,1c-0.5,0-0.9-0.9-0.9-2c0-0.6,0.1-0.7,0.3-1c0.6-0.7,1-1.1,1.3-1.7
			c1.4-2,2.4-3.9,3.5-6.6c-0.6,0.1-0.9,0.1-1.3,0.1c-1,0-1.8-0.2-2.5-0.6c-0.8-0.5-1.5-1.1-2-2L74.5,268.6z M89.4,270.1
			c1.9,0.2,3.5,0.7,4.8,1.5c1.1,0.7,1.8,1.5,1.8,2.2c0,0.5-0.3,0.8-0.7,0.8c-0.2,0-0.4-0.1-0.6-0.2c-0.8-0.5-1.3-0.6-2.7-0.6
			c-2.2,0-2.9,0.6-2.9,2.5c0,0.8,0.1,2,0.6,4.8c1.7,0.5,3.2,1.2,4,1.8c0.8,0.6,1.1,1.3,1.1,2.2c0,0.6-0.2,1-0.6,1
			c-0.3,0-0.4-0.1-1-0.7c-1-1.1-1.9-1.8-3.4-2.5c0,0.2,0,0.4,0,0.5c0,1.1-0.2,1.8-0.8,2.4c-0.8,0.8-2.1,1.2-3.6,1.2
			c-2.5,0-4.3-1.2-4.3-3c0-2,2.1-3.3,5.2-3.3c0.6,0,1,0,1.7,0.1c-0.1-2.2-0.1-2.4-0.1-2.8c0-2.3,0.2-3.2,1-4c0.6-0.6,1.3-1,2.7-1.3
			c0.4-0.1,0.5-0.1,1.5-0.4c-0.8-0.8-1.6-1.3-3.6-1.9L89.4,270.1z M87.8,282.4c-0.9-0.3-1.5-0.3-2.4-0.3c-2.4,0-3.8,0.8-3.8,2.1
			c0,1,1.1,1.7,2.8,1.7c2.3,0,3.4-0.9,3.4-2.7V282.4z"/>
		<path d="M104.5,286.7c2.1-1.7,3.8-4.2,5.1-7.1c0.9-2.1,1.7-4.9,1.7-6.1c0-0.8-0.5-1.3-1.7-1.8c0.2-0.2,0.4-0.3,0.6-0.3
			c0.4,0,1.3,0.4,2.2,0.8c0.7,0.4,1,0.6,1.2,1c1.3-0.8,3.8-2.8,5-4c0.6-0.6,0.9-0.9,0.9-1.1c0-0.3-0.3-0.4-1.7-0.4
			c-1.8,0-6.6,0.8-9.7,1.5c-1.1,0.3-2,0.6-2.9,1c-0.2,0.1-0.4,0.1-0.6,0.1c-0.6,0-1.6-0.8-2.2-1.9c-0.3-0.5-0.5-1.2-0.5-1.5
			c0-0.2,0.1-0.4,0.2-0.6c0.5,1.1,1.4,1.7,2.8,1.7c1,0,1.5-0.1,6.7-0.7c0.3,0,0.9-0.1,1.9-0.2c4.3-0.5,4.6-0.6,5.2-0.8
			c0.2-0.1,0.2-0.1,0.4-0.1c0.3,0,0.8,0.3,1.5,0.8c1.2,0.9,2,1.9,2,2.4c0,0.4-0.2,0.5-1,0.8c-0.4,0.1-0.8,0.3-1.4,0.6
			c-2.3,1.3-3.6,2-6.6,3.4c-0.2,0.5-0.2,0.5-0.4,1.3c-1.3,3.8-2.4,6-4,8c-1.4,1.6-2.8,2.8-4.3,3.8L104.5,286.7z"/>
		<path d="M128.2,274c0.7,0.5,1.2,0.7,2.7,0.7c0.3,0,0.3,0,3.4-0.1c1.1,0,10-0.2,10.9-0.2c2.5,0,3.1,0.1,3.6,0.3
			c0.3,0.1,0.4,0.3,0.4,0.6c0,0.3-0.3,0.6-0.6,0.8c-0.8,0.3-1.4,0.3-6.7,0.3c-2.6,0-9,0.2-10,0.3c-1.3,0.1-1.6,0.1-2,0.4
			c-0.1,0-0.3,0.1-0.4,0.1c-0.4,0-0.9-0.3-1.3-0.9c-0.6-0.7-1.1-1.9-1.1-2.6c0-0.4,0-0.4,0.2-0.6C127.7,273.6,127.8,273.8,128.2,274
			z"/>
		<path d="M159.4,264.1c0.6,0,1.2,0.1,2.1,0.5c1.2,0.4,1.8,1,1.8,1.5c0,0.2,0,0.2-0.2,0.6c-0.3,0.8-0.5,2.9-0.5,6.1
			c2.1,0.2,4.9,0.9,6.5,1.6c1.3,0.6,1.7,1.1,1.7,2.2c0,0.8-0.3,1.3-0.7,1.3c-0.3,0-0.3,0-1-0.7c-1.8-1.7-4-2.9-6.6-3.6
			c0,1.8,0,2.6,0,3.5c0,0.7,0,1.1,0,1.7c0,1.3,0,1.7,0,2.4c0,0.8,0,0.8,0.1,3.2c0,0.6,0,1.1,0,1.5c0,0.5,0,0.8-0.1,1
			c-0.1,0.1-0.3,0.3-0.5,0.3c-0.7,0-1.8-1.5-1.8-2.4c0-0.3,0-0.4,0.1-0.8c0.4-1.3,0.6-5,0.6-12.1c0-2-0.1-4.1-0.2-4.8
			c-0.2-1.3-0.8-2-2.1-2.5C159,264.1,159.1,264.1,159.4,264.1z"/>
		<path d="M181.9,275.9c-0.1,0.3-0.5,2-1.3,5.3c-0.4,1.7-0.5,2.1-0.5,3c0,0.8,0,1-0.1,1.2c-0.1,0.3-0.4,0.5-0.7,0.5
			c-0.5,0-0.9-0.4-1.2-1.1c-0.6-1.5-1-3.7-1-6c0-0.8,0.1-1.9,0.2-3c0.2-1.6,0.2-1.6,1-5.3c0.3-1.3,0.4-2,0.4-2.6
			c0-0.9-0.2-1.6-0.8-2.6c0.6,0,1.1,0.4,1.9,1.4c0.7,0.9,1,1.6,1,2.2c0,0.4,0,0.6-0.6,1.7c-0.6,1.2-1.2,3.1-1.5,4.5
			c-0.3,1.1-0.4,2.3-0.4,3.5c0,1.5,0.1,2.5,0.5,3.7c0.5-1,0.7-1.5,1-2.4l1.5-3.9L181.9,275.9z M185.4,277.3
			c-0.1,0.6-0.1,0.8-0.1,1.2c0,3.1,1.8,4.3,6.1,4.3c0.8,0,1.6-0.1,2.4-0.2c0.6-0.1,0.6-0.1,1.5-0.4c0.2-0.1,0.3-0.1,0.4-0.1
			c0.7,0,1.8,1,1.8,1.7c0,0.3-0.2,0.6-0.6,0.7c-0.6,0.2-1.9,0.3-3.5,0.3c-3.5,0-6-0.6-7.3-1.7c-1-0.9-1.5-2.1-1.5-3.6
			c0-0.7,0.1-1.3,0.3-2.2H185.4z M185.3,268.4c1,0.6,1.6,0.8,2.6,0.8c1.7,0,4.5-0.6,5.6-1.3c0.4-0.2,0.4-0.2,0.6-0.2
			c0.2,0,0.6,0.1,1,0.4c0.6,0.3,0.9,0.7,0.9,1c0,0.4-0.2,0.5-0.8,0.6c-1.8,0.3-2.9,0.5-4,1c-0.9,0.4-2.5,1.3-3.6,2l-0.3-0.3
			c1.3-1.1,2.2-1.8,2.7-2.2c-0.6,0-0.9,0.1-1.1,0.1c-1.6,0-2.6-0.4-3.8-1.6L185.3,268.4z"/>
		<path d="M220.9,266.8c0.4-0.6,0.6-0.8,1-1.4c0.8,0.6,1.1,0.7,1.8,1.3c0.2,0.1,0.3,0.3,0.3,0.4c0,0.2-0.2,0.3-1,0.9
			c-0.1,1-0.1,1-0.4,5.7c-0.2,2.1-0.5,4.6-0.9,5.8c-0.2,0.8-0.7,1.4-1.3,1.7c-0.4,0.2-0.9,0.3-2.1,0.4c0-1.1-0.3-1.3-2.6-1.9
			l0.1-0.4c1.4,0.2,2.5,0.3,3.1,0.3c0.7,0,0.9-0.3,1.1-1.2c0.5-2.7,0.8-6.4,0.9-10.9h-13.7c-1.7,2.9-3.5,5.1-6.3,7.5l-0.4-0.4
			c2.1-2.5,3.7-4.9,5.1-8c0.6-1.3,1-2.3,1.4-3.9c2.7,0.6,3.3,0.8,3.3,1.1c0,0.2-0.4,0.4-1.5,0.5c-0.6,1.2-0.8,1.6-1.3,2.5
			L220.9,266.8L220.9,266.8z M213.6,272.2h-6c-0.5,0-1,0-1.8,0.1l-0.1-0.9c0.8,0.1,1.3,0.2,2.1,0.2h5.6c0.4-0.5,0.6-0.7,1-1.2
			c0.8,0.5,1,0.7,1.7,1.2c0.2,0.2,0.3,0.3,0.3,0.4c0,0.2-0.2,0.3-0.8,0.6c0,4,0,4.3,0,5.8c0,0.3-0.1,0.4-0.3,0.6
			c-0.2,0.1-0.8,0.2-1.2,0.2c-0.3,0-0.4-0.1-0.4-0.4v-0.7h-7.1v6.7c0,0.4,0.2,0.6,0.7,0.6c0.8,0.1,3.4,0.1,7.1,0.1
			c0.1,0,0.5,0,0.8,0c2.2,0,4,0,4.8,0c0.2,0,0.4,0,0.4,0c0.1,0,0.2,0,0.3,0c1.3,0,2-0.1,2.3-0.3c0.2-0.2,0.4-0.6,0.6-1.2
			c0.3-0.8,0.3-0.8,1.4-4.7l0.4,0.1l-0.4,4.8c0,0.3-0.1,0.5-0.1,0.6c0,0.3,0.1,0.3,0.3,0.4c0.6,0.2,1,0.5,1,1c0,0.3-0.3,0.7-0.8,0.9
			c-0.8,0.2-2.8,0.3-9.2,0.3c-7.2,0-9.4-0.1-10.3-0.3c-0.9-0.2-1.2-0.7-1.3-2l0.1-3.5v-2.7c0-1,0-1.5,0-2.5c0.9,0.4,1.2,0.6,2.1,1.1
			h6.9v-5.3L213.6,272.2L213.6,272.2z"/>
		<path d="M231.9,268.2c1.5,1.2,2.4,1.5,4.5,1.5c1.2,0,2.3-0.1,4-0.3c-0.1-4.3-0.3-4.7-2.4-5c0.4-0.4,0.6-0.4,1.4-0.4
			c0.8,0,1.7,0.1,2.4,0.4c0.7,0.2,1,0.5,1,0.9c0,0.2,0,0.2-0.4,1c-0.3,0.5-0.4,1.5-0.5,3c2.8-0.5,4.3-1,5.2-1.7
			c0.1-0.1,0.3-0.1,0.3-0.1c0.3,0,1.1,0.3,1.5,0.5c0.3,0.2,0.5,0.4,0.5,0.7c0,0.4-0.4,0.6-2.2,1c-1.9,0.4-3.7,0.8-5.3,1
			c0,0.7,0,1.1,0,1.8c0,0.8,0,1.3,0,2.5c1.1-0.2,2.2-0.4,3.2-0.8c0.7-0.3,0.9-0.3,1.4-0.7c0.1-0.1,0.3-0.1,0.4-0.1
			c0.4,0,1.1,0.2,1.4,0.4c0.2,0.1,0.3,0.3,0.3,0.5c0,0.5-0.4,0.7-2.2,1.2c-1.4,0.4-3.2,0.7-4.6,0.8c0.1,1.1,0.1,1.5,0.1,2.5
			c0.1,1.1,0.1,1.5,0.2,2.2c2.6,0.5,5,1.4,6.2,2.4c0.5,0.5,0.8,1.1,0.8,1.8c0,0.6-0.3,1-0.6,1s-0.4-0.1-1.1-0.8
			c-0.5-0.4-1.5-1.3-2.4-1.7c-1-0.6-1.7-0.9-2.8-1.2c0.1,0.6,0.1,0.9,0.1,1.2c0,1.1-0.3,1.8-1,2.4c-0.8,0.6-2.2,1-3.8,1
			c-2.8,0-4.7-1.2-4.7-3c0-2,2.6-3.4,6.3-3.4c0.4,0,0.7,0,1.4,0c0-1.3,0-1.5,0-1.9c0-0.1,0-0.3,0-0.4c0-0.7,0-1.1,0-1.3
			c0-0.1,0-0.4,0-0.7c-1.1,0.1-1.7,0.1-2.1,0.1c-1.8,0-3.1-0.2-3.7-0.6c-0.8-0.5-1.3-1.3-1.3-2.1c0-0.2,0-0.5,0.1-0.8h0.4
			c0,0.9,0.2,1.3,0.6,1.6c0.4,0.4,1.7,0.6,3.3,0.6c0.8,0,1.5-0.1,2.7-0.2c0-0.2,0-0.3,0-0.3v-1.6l-0.1-2v-0.3
			c-1.5,0.1-2.7,0.2-3.6,0.2c-2.7,0-3.8-0.5-5.2-2.4L231.9,268.2z M238.1,282c-1.1,0-2.2,0.2-3.1,0.5c-1,0.4-1.5,1-1.5,1.7
			c0,1,1.1,1.6,3.1,1.6c1.4,0,2.5-0.4,3.2-1c0.4-0.3,0.5-0.8,0.6-1.5c0-0.2,0.1-0.8,0.1-1.1c0-0.1,0-0.1,0-0.1
			C239.4,282,238.9,282,238.1,282z"/>
		<path d="M262,273.3c0-0.4,0-0.4,0.1-1.2c0.1-0.6,0.1-0.6,0.1-1c-0.8,0.6-2.3,1.6-2.8,1.9c-0.5,0.4-0.7,0.4-1,0.4
			c-0.7,0-2.1-1.7-2.1-2.5c0-0.1,0-0.3,0.1-0.5c0.6,0.9,1.2,1.3,1.8,1.3c0.6,0,2.4-0.8,4-1.7c0.1-1.2,0.2-2,0.2-3
			c0-1.6-0.3-2.1-1.6-3.1c0.2-0.1,0.2-0.1,0.4-0.1c0.4,0,1.1,0.3,1.8,0.8c0.9,0.6,1.5,1.3,1.5,1.8c0,0.3,0,0.3-0.3,1.1
			c-0.2,0.5-0.4,1.4-0.5,2.2c0.6,0.6,0.8,0.9,0.8,1.1s0,0.2-0.4,0.8c-0.3,0.6-0.6,1.1-0.9,1.8c-0.1,0.5-0.1,0.6-0.1,1
			c2.7-2.6,3.7-3.4,4.9-4.3c2-1.4,3.3-2,4.5-2c0.9,0,1.7,0.4,2.2,1s0.8,1.4,0.8,2.5s0,1.3-0.6,4.1c-0.3,1.8-0.5,3.4-0.5,4.6
			c0,1.1,0.2,1.7,0.7,2.1c0.4,0.3,0.9,0.4,1.4,0.4c1.4,0,3.4-0.7,5.2-2l0.2,0.3c-2,2.1-4.2,3.2-6.2,3.2c-2.1,0-3.3-1.4-3.3-3.9
			c0-1,0.3-2.8,0.7-5c0.6-3,0.7-3.4,0.7-4.4c0-1.4-0.6-2.2-1.7-2.2c-1.2,0-2.7,0.8-4.9,2.8c-1.5,1.3-2.8,2.7-4.3,4.4
			c0,0.7,0,1,0,1.5c0,1.5,0.1,2.9,0.3,5c0.1,0.7,0.1,0.9,0.1,1.3c0,1.6-0.5,2.9-1.2,2.9c-0.3,0-0.5-0.2-0.7-0.8
			c-0.1-0.3-0.4-1.1-0.5-1.3c-0.3-0.6-1.2-1.7-2.5-3.1c-0.6,1.3-0.7,1.5-1,1.5s-0.5-0.2-0.6-0.6c-0.2-0.4-0.3-1.1-0.3-1.5
			c0-0.3,0-0.4,0.5-0.8c0.4-0.4,0.9-1,1.8-2.5L262,273.3z M260.3,278.5c-0.6,1.2-1,1.8-1.5,3c1.7,1.4,2.2,1.8,3,2.3
			c0.1-1.1,0.1-1.1,0.1-5.2c0-1.4,0-2,0.1-3.2C261.6,276.2,261.6,276.2,260.3,278.5z"/>
		<path d="M284.6,269.8c1.1,1.2,1.9,1.5,3.1,1.5c1.1,0,2.3-0.2,3.6-0.5c0.6-1.8,1-3.8,1-4.7s-0.4-1.2-2-1.8c0.4-0.2,0.5-0.3,0.9-0.3
			c0.6,0,1.6,0.2,2.4,0.5s1.3,0.7,1.3,1.1c0,0.2,0,0.2-0.3,0.7c-0.4,0.5-1,2-1.7,4c1.6-0.6,2.6-1.1,3.2-1.7c0.4-0.4,0.6-0.5,0.8-0.5
			c0.4,0,1,0.1,1.5,0.3c0.3,0.1,0.4,0.3,0.4,0.5c0,0.5-0.4,0.8-1.6,1.4c-1.3,0.6-3.1,1.2-4.9,1.6c-0.3,1-0.3,1-1.2,3.6
			c-0.6,1.7-0.6,1.7-2.1,6.2c-1.1,3.3-1.5,4-2.1,4c-0.3,0-0.5-0.2-0.6-0.6c-0.2-0.4-0.4-1.1-0.4-1.6c0-0.4,0-0.5,0.6-1.4
			c1.4-2,2.5-4.5,4.4-10c-1.1,0.2-1.9,0.3-2.7,0.3c-1.7,0-2.8-0.7-3.8-2.5L284.6,269.8z M295.8,279.4c0,0.4,0,0.8,0,0.9
			c0,1.6,0.8,2.8,2.1,3.4c0.8,0.3,1.9,0.5,3,0.5s1.8-0.1,2.7-0.4c0.2-0.1,0.4-0.1,0.5-0.1c0.3,0,1,0.3,1.4,0.7
			c0.3,0.3,0.5,0.5,0.5,0.8c0,0.6-1.1,0.9-3.3,0.9c-2.2,0-3.9-0.3-5.2-0.9c-1.5-0.7-2.4-2.2-2.4-4.1c0-0.6,0.1-1.1,0.3-1.8
			L295.8,279.4z M296.6,274.2c2-1.2,4.3-1.9,6.5-1.9c0.6,0,1.3,0.2,1.8,0.5c0.3,0.2,0.4,0.5,0.4,0.8c0,0.4-0.3,0.6-1.1,0.6
			c-1,0.1-1.4,0.1-2.2,0.6c-0.6,0.3-0.6,0.3-1.5,1c-0.5,0.3-0.5,0.3-1,0.6l-0.2-0.3c0.3-0.3,0.3-0.3,1.3-1.3
			c0.3-0.2,0.5-0.4,1.4-1.3c-1.8,0-3.3,0.3-5.3,1L296.6,274.2z"/>
		<path d="M316.4,274.8c1.3,0.3,2.7,0.8,3.8,1.5c0.9,0.5,1.3,1.1,1.3,2c0,0.7-0.3,1.3-0.6,1.3c0,0-0.2-0.1-0.3-0.2
			c-0.2-0.1-0.2-0.2-0.7-0.9c-0.9-1.2-1.9-2.2-3.4-3.2v6c0,5.1,0,5.1,0.1,6.4c-0.1,0.4-0.3,0.5-1,0.5c-0.1,0-0.2,0-0.2,0
			c-0.1,0-0.1,0-0.1,0c-0.4,0-0.5-0.1-0.6-0.3c0-0.3,0-2.5,0.1-6.5v-4.9c-1.4,1.4-2.5,2.3-4.4,3.6l-0.3-0.4c1.8-1.5,3.1-2.9,4.7-5
			c1.6-2.1,2.5-3.6,3.4-5.7h-5.6c-0.6,0-1,0-2,0.1l-0.2-1c0.8,0.2,1.5,0.3,2.2,0.3h2.2v-2.9c0-1.1,0-1.5-0.2-2.4
			c0.6,0.1,1.1,0.1,1.4,0.1c1.3,0.1,1.7,0.2,1.7,0.5c0,0.2-0.2,0.4-1.1,0.6v4.1h1.6c0.6-0.6,0.8-0.8,1.3-1.4c0.8,0.6,1,0.8,1.7,1.4
			c0.3,0.3,0.3,0.4,0.3,0.4c0,0.2-0.1,0.3-1.4,0.6c-1.2,2.1-1.9,3.2-3.5,5.1v0.3L316.4,274.8L316.4,274.8z M322.2,273.3
			c-0.6,0-1.1,0.1-2.2,0.2l-0.2-1.1c1.1,0.2,1.6,0.2,2.5,0.2h4v-6.3c0-1.5,0-2.2-0.2-3.5c0.6,0.1,1.2,0.1,1.5,0.2
			c1.5,0.1,1.8,0.3,1.8,0.5c0,0.2-0.3,0.4-1.1,0.7v8.4h2.9l1.6-2.1c1.2,1,1.5,1.3,2.7,2.3c0.1,0.1,0.1,0.2,0.1,0.2
			c0,0.1-0.1,0.2-0.3,0.2h-7V286h3.4c0.8-0.9,1-1.2,1.9-2.2c1.1,1,1.5,1.3,2.6,2.4c0.1,0.1,0.1,0.2,0.1,0.2c0,0.1-0.1,0.2-0.3,0.2
			h-14.6c-1.1,0-1.6,0-2.7,0.2l-0.3-1.1c1,0.1,1.9,0.2,2.9,0.2h5v-12.7h-4.1L322.2,273.3L322.2,273.3z"/>
		<path d="M337.5,275.4c1.6-1.1,2.5-1.8,4.1-3.3c2.6-2.5,4.5-5,6.2-7.6c0.5-0.8,0.7-1.2,0.9-2c3.1,0.7,3.3,0.8,3.3,1
			c0,0.3-0.4,0.5-1.1,0.5c1.7,2.7,3.4,4.3,6.1,6c2.2,1.4,3.8,2.1,6.7,2.8v0.3c-1.1,0.3-1.5,0.7-2,2.3c-2.3-1.1-4.3-2.6-6.2-4.5
			c-1.3-1.3-2.8-3-3.9-4.6c-0.5-0.8-0.7-1.1-1.2-2.1c-1.7,2.6-3.6,4.8-6,7c-2.1,1.9-3.9,3.1-6.6,4.5L337.5,275.4z M349.6,278.4
			c-2.8,4.2-3.1,4.6-4.8,6.5c4.4-0.1,8.6-0.3,11.4-0.6c-1.2-1.8-2.2-2.9-3.6-4.3l0.2-0.3c1.8,1.1,3.8,2.5,5.6,4.2
			c0.7,0.7,1.1,1.3,1.1,2c0,0.5-0.2,1.4-0.4,1.7c-0.1,0.2-0.3,0.3-0.5,0.3s-0.3-0.1-0.5-0.4c-0.5-1-1.1-2-1.5-2.5
			c-4.5,0.9-10.6,1.8-15,2.2c-0.3,0.8-0.4,1-0.6,1s-0.2-0.1-0.3-0.5c-0.2-0.8-0.4-1.9-0.6-2.7c0.7,0,0.7,0,2.3,0.1
			c0.5,0,0.8,0,1.2,0c0.1,0,0.3,0,0.5,0c1.2-2.1,1.6-2.9,3-6.5h-5.7c-0.9,0-1.2,0-2,0.2l-0.2-1c0.8,0.2,1.3,0.2,2.2,0.2h16.2
			c0.7-0.9,0.9-1.1,1.5-2c1.2,0.9,1.6,1.2,2.7,2.2c0.1,0.1,0.1,0.2,0.1,0.3c0,0.1-0.1,0.2-0.3,0.2h-12L349.6,278.4L349.6,278.4z
			 M343.3,272.9c0.7,0.1,1.6,0.2,2.3,0.2h7.1c0.7-0.8,0.9-1.1,1.6-1.9c1.1,0.9,1.5,1.2,2.6,2.1c0.1,0.1,0.2,0.2,0.2,0.3
			s-0.1,0.2-0.4,0.2h-11.1c-0.5,0-0.9,0-1.9,0.1L343.3,272.9z"/>
		<path d="M377.8,285.6c3-0.9,5-2,6.6-3.9c1.7-1.9,2.5-4.2,2.5-6.7c0-2.7-1.1-4.9-3.2-6.2c-1.2-0.8-3.1-1.3-4.8-1.3
			c-0.3,0-0.5,0-1,0.1c0.7,1,0.9,1.5,0.9,2.3c0,2.2-1.6,6.3-3.7,9.7c-1.8,2.8-3.1,4.2-4.2,4.2c-0.5,0-0.9-0.2-1.2-0.6
			c-0.3-0.3-0.3-0.4-0.8-1.8c-0.3-0.7-0.4-1.1-1.2-2.6c-0.4-0.9-0.6-1.7-0.6-2.5c0-1.8,1-3.8,2.5-5.5c2.3-2.4,6-3.9,9.6-3.9
			c2.8,0,5.4,0.9,7.2,2.6c1.8,1.7,2.7,3.9,2.7,6.6c0,3.5-2,6.6-5.6,8.5c-1.6,0.9-3.1,1.3-5.5,1.7L377.8,285.6z M368.5,276.9
			c0,1.3,0.4,2.7,1.1,3.7c0.4,0.5,0.8,0.8,1.1,0.8c0.6,0,2-1.5,3.3-3.7c2.1-3.3,3.6-6.9,3.6-8.7c0-0.4-0.1-0.7-0.4-1.4
			C372.3,268.5,368.5,272.6,368.5,276.9z"/>
		<path d="M398.7,271.9c-0.5,0-0.7,0-2.5,0.1l-0.3-1c0.6,0.1,0.6,0.1,2.7,0.2h5.5c0-0.4,0-0.4,0-1.4c0-0.8,0-1.2-0.1-2
			c3,0.3,3,0.3,3,0.6c0,0.1-0.1,0.2-0.3,0.4c0,0-0.1,0.1-0.3,0.2c-0.1,0.1-0.2,0.1-0.3,0.2c0,1.2,0,1.2,0,2h4.9l1.5-1.7
			c1.1,0.8,1.4,1.1,2.5,2c0.1,0.1,0.1,0.1,0.1,0.2c0,0.1-0.1,0.2-0.3,0.2h-8.7c0,1.1-0.1,1.7-0.1,3h5l1.5-1.8
			c1.1,0.9,1.4,1.2,2.5,2.2l0.1,0.1c0,0.1-0.1,0.2-0.3,0.2h-8.9c-0.1,1.3-0.2,2-0.4,3.1h7.3c0.8-0.9,1-1.2,1.8-2
			c1.2,0.9,1.5,1.2,2.7,2.2c0.1,0.1,0.2,0.2,0.2,0.3c0,0.1-0.1,0.1-0.2,0.1h-11.5c1.1,1.6,2.3,2.7,4.3,3.8c2.2,1.3,4.9,2,8.5,2.2
			v0.3c-1,0.4-1.5,1-1.8,2.2c-3.3-0.8-5.8-2-8.1-4.1c-1.6-1.4-2.5-2.5-3.4-4.1c-0.6,1.7-1.5,3.1-3,4.3c-2.5,2.2-5.3,3.4-9.7,4.2
			l-0.1-0.4c3.2-1,5.4-2.2,7.5-3.9c1.8-1.5,2.8-2.9,3.4-4.6h-6.9c-1.3,0-1.7,0-2.7,0.2l-0.3-1.1c0.9,0.1,2.2,0.2,2.9,0.2h7.1
			c0.3-1.1,0.4-1.7,0.5-3.1h-5.2c-0.6,0-1.1,0-2.4,0.1l-0.3-1c0.6,0.1,2.4,0.2,2.7,0.2h5.2c0.1-1.3,0.1-1.7,0.1-3h-5.4L398.7,271.9
			L398.7,271.9z M414.3,266.3l1.3-1.5c1.1,0.7,1.4,0.9,2.4,1.6c0.3,0.2,0.4,0.4,0.4,0.5c0,0.1-0.1,0.2-0.1,0.2
			c-0.1,0.1-0.4,0.1-0.7,0.2c-0.6,0.2-1,0.3-1,0.3c-1.1,1-1.6,1.4-2.8,2.3l-0.3-0.2c0.6-1.1,0.8-1.7,1.3-2.9h-18.3
			c-0.2,2.1-1.4,4.3-2.3,4.3c-0.4,0-0.9-0.9-0.9-1.6c0-0.3,0.1-0.6,0.6-0.9c1.3-0.9,1.6-1.6,2.1-3.8h0.5c0,1,0,1,0,1.5h7.8v-1.8
			c0-0.6,0-1-0.1-1.9c1.2,0.1,2.5,0.3,2.9,0.4c0.3,0.1,0.4,0.1,0.4,0.3s0,0.2-1.2,0.8v2.2L414.3,266.3L414.3,266.3z"/>
		<path d="M425.8,272.4h1c0.5-0.7,0.7-0.9,1.2-1.6c0.9,0.8,1.1,1,1.9,1.8c0.1,0.1,0.1,0.1,0.1,0.2c0,0.1-0.1,0.2-0.3,0.2h-3.9v7.1
			c1.5-0.6,2.4-1,4.2-1.8l0.2,0.4c-1.8,1.3-3.2,2.1-8.3,4.9c-0.1,1-0.2,1.3-0.4,1.3c-0.2,0-0.4-0.4-1.4-2.9c1.5-0.4,2.2-0.6,3.9-1.2
			V273h-1.8c-0.8,0-1.1,0-1.7,0.1l-0.2-1c0.8,0.2,1.3,0.3,1.9,0.3h1.8v-6.9h-2.1c-0.6,0-1,0-1.7,0.1l-0.2-1c0.8,0.2,1.3,0.3,1.8,0.3
			h4.8c0.5-0.8,0.7-1,1.2-1.7c0.9,0.8,1.2,1.1,2,2c0.1,0.1,0.1,0.2,0.1,0.2c0,0.1-0.1,0.1-0.2,0.1h-4.1v6.9L425.8,272.4L425.8,272.4
			z M439.7,285.4c0,0.5,0,0.5,1.8,0.5c1.7,0,1.8-0.1,2.1-0.6c0.2-0.5,0.3-0.9,1.2-4.8h0.4l-0.1,4.2v0.1c0,0.5,0.1,0.6,0.6,0.7
			c0.4,0.1,0.6,0.4,0.6,0.7s-0.2,0.6-0.5,0.8c-0.4,0.2-1.9,0.4-4,0.4c-2.3,0-3.1-0.1-3.4-0.4c-0.3-0.3-0.4-0.7-0.4-1.5v-7.2h-1.9
			c-0.4,2.7-1.2,4.5-2.9,6c-1.2,1.1-3.1,2.1-5.3,2.8c-1,0.3-1.6,0.4-3,0.6l-0.2-0.4c2-0.4,3.2-0.9,4.6-1.8c3-1.8,4.5-4.1,4.8-7.1
			h-1.4v0.9c0,0.4-0.3,0.5-1.5,0.5c-0.4,0-0.5-0.1-0.5-0.4l0,0c0.1-3,0.1-5.8,0.1-11.6c0-1.8,0-3.2-0.1-4.8c1,0.5,1.3,0.7,2.2,1.3
			h8.4c0.5-0.6,0.6-0.7,1.1-1.3c0.8,0.6,1,0.7,1.7,1.3c0.2,0.2,0.3,0.3,0.3,0.4c0,0.2-0.1,0.2-1,0.8c0,10,0,10,0.1,13.5
			c0,0.2-0.1,0.3-0.2,0.3s-0.8,0.1-1.3,0.1c-0.4,0-0.5-0.1-0.5-0.3v-0.8h-1.8L439.7,285.4L439.7,285.4z M441.5,264.9h-8.8v3.9h8.8
			V264.9z M441.5,269.4h-8.8v3.8h8.8V269.4z M441.5,273.8h-8.8v3.9h8.8V273.8z"/>
		<path d="M450.7,267.7c1.3,1.1,2,1.3,3.5,1.3c0.9,0,1.7-0.1,3-0.4c0.6-1.2,1-2.2,1-2.9c0-0.8-0.5-1.2-2-1.6
			c0.5-0.3,0.7-0.3,1.3-0.3c0.6,0,1.5,0.2,2.2,0.5c0.7,0.3,1,0.6,1,0.9c0,0.2-0.1,0.4-0.4,0.8c-0.3,0.3-0.6,0.8-0.8,1.1
			c-0.5,0.8-0.5,0.8-0.7,1.1c2.4-0.7,3.1-1,4-1.8c0.2-0.1,0.3-0.2,0.5-0.2c1.1,0,1.9,0.4,1.9,0.9c0,0.3-0.4,0.6-1.2,0.9
			c-2.5,0.8-3.8,1.1-6.1,1.6c-0.5,0.7-0.8,1.2-1.5,2.2c-0.8,1.2-1,1.5-1.5,2.2c1.6-0.8,2.5-1.1,3.6-1.1c1.7,0,2.9,1.1,3.1,2.8
			c0.5-0.2,0.5-0.2,2.7-1.4c2.8-1.4,3.4-1.8,3.4-2.4c0-0.5-0.5-1-1.3-1.3c0.3-0.1,0.4-0.2,0.6-0.2c1.2,0,3.2,1.7,3.2,2.8
			c0,0.5-0.2,0.7-1,0.9c-1.7,0.4-5.3,1.8-7.5,2.9c0,0.9,0,1.1,0,2.3c0,1.3-0.1,2.1-0.2,2.4s-0.4,0.5-0.8,0.5c-0.5,0-0.9-0.4-0.9-0.8
			c0-0.1,0-0.3,0-0.5c0.1-0.8,0.2-1.8,0.2-3c-1.7,1-2.5,1.5-3.3,2.2c-0.9,0.9-1.4,1.8-1.4,2.6c0,1.5,1.5,2.2,4.7,2.2
			c2,0,3.9-0.3,5.6-0.8c0.2-0.1,0.4-0.1,0.5-0.1c0.9,0,2,0.8,2,1.4c0,0.4-0.3,0.6-0.9,0.8c-1.1,0.2-3.3,0.4-5,0.4
			c-2.6,0-4.6-0.3-5.7-0.8c-1.4-0.7-2.1-1.6-2.1-3c0-1.3,0.6-2.5,2-3.8c0.7-0.7,1.6-1.3,3.5-2.5c0-1.2-0.1-1.6-0.4-2.2
			c-0.3-0.5-0.8-0.8-1.4-0.8c-1.8,0-4.1,1.5-6.1,4.1c-0.5,0.7-0.8,0.9-1,0.9c-0.4,0-0.8-0.6-0.8-1.5c0-0.6,0-0.6,0.8-1.3
			c2-1.6,3.2-3,5.2-6c-0.9,0.1-1.3,0.2-1.9,0.2c-1.9,0-2.9-0.5-4.2-2.2L450.7,267.7z"/>
		<path d="M479.6,287.6c-0.1,0.2-0.1,0.3-0.3,0.3c-0.3,0.1-1,0.1-1.3,0.1s-0.4-0.1-0.5-0.3c0.1-5,0.2-8.3,0.2-13.8
			c0-4.7,0-7.3-0.2-10.4c1.1,0.6,1.5,0.8,2.6,1.6h12.2c0.6-0.6,0.6-0.6,1.3-1.3c0.7,0.6,1,0.8,1.7,1.3c0.2,0.2,0.3,0.3,0.3,0.4
			c0,0.2-0.2,0.3-0.9,0.8c0,16.8,0,16.8,0.2,21.1c-0.1,0.3-0.1,0.3-0.3,0.4c-0.1,0.1-0.8,0.1-1.5,0.1c-0.3,0-0.3-0.1-0.4-0.3v-1.9
			h-12.9v1.9L479.6,287.6L479.6,287.6z M492.5,265.8h-12.9v5.8h12.9V265.8z M479.6,272.2v5.8h12.9v-5.8H479.6z M479.6,278.7v6.4
			h12.9v-6.4H479.6z"/>
		<path d="M507.8,268.9c0.6-0.7,0.8-1,1.4-1.7c0.8,0.8,1.1,1,1.9,1.8c0,0.1,0.1,0.2,0.1,0.3c0,0.1-0.1,0.2-0.3,0.2h-3.8v5.8
			c1.1-0.4,1.1-0.4,3.8-1.5l0.2,0.5c-1.5,0.9-2,1.2-4,2.2v9.2c0,0.9-0.2,1.3-0.8,1.7c-0.4,0.3-0.8,0.4-2.1,0.8
			c-0.3-1.5-0.4-1.6-3.1-2.2v-0.4c2.1,0.1,2.3,0.1,3.7,0.2c0.3,0,0.4-0.1,0.4-0.4v-8c-0.6,0.3-0.7,0.4-1.4,0.6
			c-0.6,0.2-0.9,0.4-1.1,0.4c-0.1,0.8-0.2,1.1-0.4,1.1c-0.2,0-0.2,0-1.1-2.7c1.8-0.3,2.7-0.5,4.1-1v-6.4h-1.8c-1.1,0-1.3,0-2.1,0.2
			l-0.2-1.1c0.9,0.2,1.5,0.3,2.3,0.3h1.8V266c0-1.6,0-2.2-0.1-3.2c0.6,0.1,1.2,0.2,1.5,0.3c1.4,0.2,1.8,0.3,1.8,0.6
			c0,0.2-0.4,0.4-1.2,0.6v4.7h0.5L507.8,268.9L507.8,268.9z M513.6,268.3c2-0.7,2.3-0.8,3.6-1.3c2.5-1.1,3.8-1.8,4.9-2.7
			c2.6,1.4,2.6,1.4,2.6,1.7c0,0.1-0.3,0.3-0.4,0.3H524h-0.4c-0.1,0-0.3,0-0.5-0.1c-4,1.5-6.4,2.2-9.6,2.7v2c0,0.4,0,0.5,0.2,0.6
			c0.3,0.1,0.8,0.2,3.5,0.2c2.5,0,4.7-0.1,5.2-0.1c0.4-0.1,0.5-0.2,0.8-0.8s0.6-1.5,1.2-3.2h0.4l-0.2,3v0.2c0,0.1,0,0.1,0,0.2v0.1
			c0,0.3,0,0.3,0.5,0.5c0.3,0.1,0.5,0.4,0.5,0.6c0,1.1-0.8,1.1-9.8,1.1c-3.6,0-4-0.2-4.2-1.6v-6.1c0-1.4,0-1.6-0.1-2.5
			c2.9,0.4,3.1,0.5,3.1,0.8c0,0.2-0.1,0.3-1.1,0.6L513.6,268.3L513.6,268.3z M513.7,287.5c0,0.2-0.1,0.3-0.2,0.4
			c-0.1,0.1-0.9,0.1-1.3,0.1c-0.3,0-0.4-0.1-0.4-0.3c0.1-2.7,0.1-3.9,0.1-6.9c0-4.2,0-5.2-0.1-6.5c1.1,0.6,1.4,0.8,2.4,1.5h7.2
			c0.4-0.5,0.6-0.6,1.1-1.1c0.7,0.6,1,0.7,1.6,1.3c0.2,0.2,0.3,0.3,0.3,0.4c0,0.2-0.3,0.4-1,0.8v4.4c0,2.6,0,2.6,0.1,6
			c0,0.4-0.2,0.4-0.9,0.5c-0.3,0-0.5,0-0.6,0.1h-0.1c-0.3,0-0.4-0.1-0.4-0.4v-1.3h-7.8L513.7,287.5L513.7,287.5z M521.6,276.5h-7.8
			v4h7.8V276.5z M513.7,281.2v4.6h7.8v-4.6H513.7z"/>
		<path d="M549.9,281.1c-2.7,3.6-6.4,5.8-9.8,5.8c-2.1,0-3.8-0.9-4.6-2.4c-0.6-1-0.8-2.4-0.8-4.7c0-1.5,0.1-4.2,0.2-6.7
			c0.2-3,0.2-3.8,0.2-4.8c0-2.4-0.3-2.9-2.3-3.7c0.3-0.2,0.5-0.3,0.8-0.3c0.6,0,1.7,0.3,2.5,0.6c1.1,0.5,1.6,1.1,1.6,1.7
			c0,0.2,0,0.4-0.3,1c-0.5,1.7-1.5,10.2-1.5,13.4c0,1.7,0.3,2.7,1.1,3.4c0.6,0.5,1.5,0.8,2.5,0.8c1.9,0,4.3-0.7,6.4-1.8
			c1.3-0.7,2.1-1.3,3.6-2.5L549.9,281.1z"/>
		<path d="M555.3,269.8c1.1,1.2,1.9,1.5,3.1,1.5c1.1,0,2.3-0.2,3.6-0.5c0.6-1.8,1-3.8,1-4.7s-0.4-1.2-2-1.8c0.4-0.2,0.5-0.3,0.9-0.3
			c0.6,0,1.6,0.2,2.4,0.5c0.8,0.3,1.3,0.7,1.3,1.1c0,0.2,0,0.2-0.3,0.7c-0.4,0.5-1,2-1.7,4c1.6-0.6,2.6-1.1,3.2-1.7
			c0.4-0.4,0.6-0.5,0.8-0.5c0.4,0,1,0.1,1.5,0.3c0.3,0.1,0.4,0.3,0.4,0.5c0,0.5-0.4,0.8-1.6,1.4c-1.3,0.6-3.1,1.2-4.9,1.6
			c-0.3,1-0.3,1-1.2,3.6c-0.6,1.7-0.6,1.7-2.1,6.2c-1.1,3.3-1.5,4-2.1,4c-0.3,0-0.5-0.2-0.6-0.6c-0.2-0.4-0.4-1.1-0.4-1.6
			c0-0.4,0-0.5,0.6-1.4c1.4-2,2.5-4.5,4.4-10c-1.1,0.2-1.9,0.3-2.7,0.3c-1.7,0-2.8-0.7-3.8-2.5L555.3,269.8z M566.5,279.4
			c0,0.4,0,0.8,0,0.9c0,1.6,0.8,2.8,2.1,3.4c0.8,0.3,1.9,0.5,3,0.5s1.8-0.1,2.7-0.4c0.2-0.1,0.4-0.1,0.5-0.1c0.3,0,1,0.3,1.4,0.7
			c0.3,0.3,0.5,0.5,0.5,0.8c0,0.6-1.1,0.9-3.3,0.9s-3.9-0.3-5.2-0.9c-1.5-0.7-2.4-2.2-2.4-4.1c0-0.6,0.1-1.1,0.3-1.8L566.5,279.4z
			 M567.2,274.2c2-1.2,4.3-1.9,6.5-1.9c0.6,0,1.3,0.2,1.8,0.5c0.3,0.2,0.4,0.5,0.4,0.8c0,0.4-0.3,0.6-1.1,0.6
			c-1,0.1-1.4,0.1-2.2,0.6c-0.6,0.3-0.6,0.3-1.5,1c-0.5,0.3-0.5,0.3-1,0.6l-0.2-0.3c0.3-0.3,0.3-0.3,1.3-1.3
			c0.3-0.2,0.5-0.4,1.4-1.3c-1.8,0-3.3,0.3-5.3,1L567.2,274.2z"/>
		<path d="M592.5,275c-2,4.7-2.6,6.4-2.6,7.5c0,0.2,0,0.2,0.2,1c0,0.1,0.1,0.3,0.1,0.4c0,0.4-0.3,0.7-0.6,0.7
			c-0.8,0-2.2-1.1-3.1-2.4c-1-1.4-1.6-3.4-1.9-5.6c-0.2-1.2-0.2-1.9-0.2-4.9c0-2.6-0.2-3.2-1.4-4.8c0.1,0,0.1,0,0.3,0
			c0.4,0,1.3,0.5,2.1,1.4c0.8,0.8,1.3,1.6,1.3,2.2c0,0.2,0,0.4-0.1,0.7c-0.3,1.7-0.5,3-0.5,4.2c0,1.5,0.2,2.9,0.6,4.1
			s0.8,1.7,1.5,2.2c0.3-0.4,0.3-0.4,0.9-1.5c0.9-1.5,0.9-1.5,2.4-3.9c0.4-0.7,0.4-0.7,0.8-1.3H592.5z M598.5,270
			c3.5,0.8,6.3,4.5,6.3,8.4c0,1.3-0.6,2.2-1.4,2.2c-0.3,0-0.4-0.1-0.8-0.3c-0.4-0.3-0.9-0.3-2.1-0.3c-0.6,0-1.2,0-2.1,0.1l-0.1-0.4
			c2.3-0.6,3.5-1,3.8-1.1c0.6-0.2,0.6-0.3,0.6-0.8c0-1-0.4-2.7-0.9-3.7c-0.8-1.6-1.9-2.8-3.5-3.7L598.5,270z"/>
		<path d="M609.2,271.4c1.4-0.8,2.1-1.7,2.1-2.7c0-0.4,0-0.5-0.9-0.7c-0.8-0.2-1.3-0.8-1.3-1.6c0-1,0.8-1.8,1.9-1.8
			c1.3,0,2.1,1,2.1,2.5c0,2-1.3,3.9-3.4,4.9L609.2,271.4z M614.7,271.4c1.4-0.8,2.1-1.7,2.1-2.7c0-0.4,0-0.5-0.9-0.7
			c-0.8-0.2-1.3-0.8-1.3-1.6c0-1,0.8-1.8,1.9-1.8c1.3,0,2.1,1,2.1,2.5c0,2-1.3,3.9-3.4,4.9L614.7,271.4z"/>
		<path class="st0" d="M634.9,265.7c0.3-0.3,0.5-0.4,0.8-0.4c0.5,0,1.3,1,1.3,1.7c0,0.4-0.3,0.5-1.6,0.9c-1,0.4-2,0.8-3.1,1.3
			c1,0.5,1,0.5,3.1,1.3c1.4,0.5,1.4,0.5,1.4,1c0,0.7-0.6,1.4-1.2,1.4c-0.3,0-0.7-0.3-1.3-0.9c-0.6-0.7-1.3-1.2-2.3-2.1
			c0.3,2,0.4,2.7,0.5,3.2s0.3,1,0.3,1.3c0,0.4-0.5,0.8-1.3,0.8s-1.2-0.3-1.2-0.8c0-0.1,0.1-0.6,0.3-1.2c0.3-1.2,0.3-1.6,0.4-3.2
			c-0.7,0.6-1.8,1.8-2.6,2.6c-0.4,0.5-0.7,0.7-0.9,0.7c-0.5,0-1.3-0.9-1.3-1.4c0-0.4,0.1-0.5,0.8-0.8c1.3-0.5,2.6-1.2,3.6-1.7
			c-0.3-0.1-0.3-0.1-1-0.5c-0.5-0.3-1.8-0.8-2.9-1c-0.4-0.1-0.7-0.4-0.7-0.6c0-0.7,0.7-1.6,1.2-1.6c0.3,0,0.6,0.3,1.2,0.8
			c0.6,0.7,1.7,1.6,2.5,2.1c-0.1-1.2-0.4-2.9-0.5-3.4c-0.1-0.4-0.1-0.8-0.1-1c0-0.4,0.5-0.8,1.2-0.8c0.8,0,1.3,0.3,1.3,0.7
			c0,0.3-0.1,0.6-0.3,1.2c-0.3,0.8-0.4,1.6-0.5,3.2C633.2,267.2,633.3,267.2,634.9,265.7z"/>
	</g>
</g>
<g>
	<path d="M3.9,19.5c0-2,0.5-2.7,2.3-3.4l0.8,1.2c-1.4,0.4-1.7,0.8-1.7,2.2h1.9v3.3H3.9V19.5z M8.5,19.5c0-2,0.5-2.7,2.3-3.4l0.8,1.2
		c-1.4,0.4-1.7,0.8-1.7,2.2h1.9v3.3H8.5V19.5z"/>
	<path d="M20.6,34.4c0.1-1,0.2-1.7,0.2-3v-7.2c0-1.3,0-2-0.2-3h3.1v1.2c0,0.3,0,0.4,0,1c1.4-1.8,2.6-2.4,4.7-2.4
		c1.8,0,3.1,0.6,3.9,1.7c0.5,0.8,0.8,1.7,0.8,3.2v5.5c0,1.3,0,2.1,0.2,3h-3.3c0.1-1,0.2-1.8,0.2-3v-5.1c0-1-0.1-1.6-0.4-2
		c-0.4-0.6-1-0.9-1.9-0.9c-1.6,0-3,1.1-4,3.4v4.6c0,1.1,0,2,0.2,3H20.6z"/>
	<path d="M39.3,16.3v2.9h-3.4v-2.9H39.3z M39.3,21.4c-0.1,0.8-0.2,1.6-0.2,3v7.1c0,1.3,0,2,0.2,3h-3.3c0.1-1,0.2-1.8,0.2-3v-7.2
		c0-1.3,0-2-0.2-3H39.3z"/>
	<path d="M42.1,34.4c0.1-1,0.2-1.7,0.2-3v-7.2c0-1.4,0-2.1-0.2-3h3.1v1.2c0,0.1,0,0.5,0,0.8c0.7-1.4,2.3-2.3,4.2-2.3
		c1.2,0,2.2,0.3,2.9,1c0.4,0.4,0.6,0.7,0.9,1.4c0.8-1,1.2-1.4,1.9-1.8c0.8-0.4,1.5-0.6,2.6-0.6c1.5,0,2.6,0.5,3.4,1.3
		c0.8,0.8,1.1,1.8,1.1,3.5v5.6c0,1.3,0,2,0.2,3H59c0.1-0.9,0.2-1.6,0.2-3v-5.1c0-2-0.7-2.9-2.2-2.9c-0.8,0-1.3,0.2-1.9,0.7
		c-0.8,0.7-1.2,1.4-1.4,2.8v4.5c0,1.3,0,2,0.2,3h-3.3c0.1-1,0.2-1.7,0.2-3v-5.1c0-1.9-0.7-2.9-2.2-2.9c-1,0-1.7,0.4-2.3,1.2
		c-0.5,0.7-0.7,1.2-1,2.3v4.5c0,1.2,0,1.9,0.2,3H42.1z"/>
	<path d="M65.1,34.4c0.1-1,0.2-1.7,0.2-3.1v-12c0-1.2,0-2-0.2-3.1h3.2c-0.1,1-0.2,1.7-0.2,3.1v2.3c0,0.4,0,0.9,0,1.7
		c1.2-1.6,2.6-2.3,4.7-2.3c3.8,0,6.1,2.5,6.1,6.7c0,2.2-0.6,4.1-1.9,5.3c-1.1,1.1-2.5,1.6-4.4,1.6c-2.1,0-3.4-0.7-4.5-2.3
		c0,0.3,0,0.5,0,0.8v1.1H65.1z M72.5,23.5c-1.3,0-2.3,0.4-3.1,1.3c-0.7,0.8-1.1,2-1.1,3.2c0,1.4,0.6,2.9,1.5,3.6
		c0.7,0.5,1.6,0.8,2.4,0.8c2.3,0,3.8-1.8,3.8-4.5C76,25.2,74.6,23.5,72.5,23.5z"/>
	<path d="M84.6,16.3c-0.1,0.9-0.2,1.6-0.2,3v12.2c0,1.2,0,2,0.2,3h-3.3c0.1-1,0.2-1.6,0.2-3V19.3c0-1.4,0-2.1-0.2-3H84.6z"/>
	<path d="M89.8,28.7c0.1,1.3,0.3,1.9,0.8,2.6c0.7,0.8,1.7,1.3,2.8,1.3c1.1,0,2.1-0.4,2.7-1.1c0.3-0.3,0.4-0.6,0.7-1.2l2.7,0.9
		c-0.5,1.1-0.8,1.5-1.4,2.1c-1.2,1.2-2.8,1.8-4.7,1.8c-4,0-6.6-2.7-6.6-7c0-4.2,2.5-7,6.4-7c2.7,0,4.8,1.3,5.7,3.6
		c0.4,1.1,0.6,1.9,0.7,3.5c0,0,0,0.1,0,0.6H89.8z M96.7,26.4c-0.2-1-0.4-1.6-1-2.2c-0.6-0.6-1.4-0.9-2.5-0.9c-1.8,0-3.1,1.2-3.4,3.1
		H96.7z"/>
	<path d="M118.2,33c-0.9,0.9-1.5,1.2-2.4,1.4c-0.7,0.2-1.4,0.3-2.1,0.3c-2.8,0-4.5-1.4-4.5-3.8c0-1.6,1-3,2.6-3.7
		c1.5-0.6,3.2-0.8,6.4-0.9v-1.2c0-1.3-0.9-2-2.6-2c-0.9,0-1.8,0.3-2.4,0.7c-0.4,0.3-0.6,0.6-0.9,1.5l-2.9-0.5
		c0.5-1.3,0.9-1.9,1.8-2.5c1.1-0.8,2.4-1.2,4.4-1.2c2.2,0,3.5,0.4,4.5,1.3c0.8,0.7,1.1,1.6,1.1,3.1v6.1c0,1.2,0,1.8,0.2,2.9h-3.1V33
		z M118.2,28.2c-4.4,0.1-6.1,0.8-6.1,2.6c0,1.1,0.8,1.7,2.1,1.7c1.2,0,2.4-0.5,3.2-1.2c0.5-0.5,0.8-1.2,0.8-2V28.2z"/>
	<path d="M132.8,24.2c-1-0.3-1.4-0.4-2-0.4c-1.1,0-2,0.4-2.6,1.1c-0.6,0.7-0.8,1.2-0.9,2.3v4.2c0,1.2,0,1.9,0.2,3H124
		c0.1-1.1,0.2-1.8,0.2-3v-7.2c0-1.4,0-2-0.2-3h3.1v2.1c0.8-1.6,2.2-2.4,4.3-2.4c0.5,0,1.1,0.1,2.1,0.3L132.8,24.2z"/>
	<path d="M140,17.8c-0.1,0.8-0.2,1.8-0.2,2.8v0.7h1c1.1,0,1.6,0,2.3-0.1v2.7c-0.8-0.1-1.2-0.1-2.2-0.1h-1v7.1c0,1.1,0.4,1.5,1.5,1.5
		c0.6,0,1-0.1,1.7-0.5l0.4,2.4c-1,0.4-1.7,0.5-2.9,0.5c-2.6,0-3.7-0.9-3.7-3.3v-7.7H136c-0.8,0-1.3,0-2,0.1v-2.7
		c0.7,0.1,1.1,0.1,2.1,0.1h0.8v-0.7c0-1-0.1-2-0.2-2.8H140z"/>
	<path d="M153.1,19.2c0-1.3,0-2-0.2-3c0.9,0,1.5,0.1,2.9,0.1h4.1c2.9,0,4.7,0.6,6.2,2c1.7,1.6,2.5,3.9,2.5,6.9
		c0,3.1-0.9,5.6-2.7,7.3c-1.5,1.4-3.3,2-6,2h-4.2c-1.4,0-2,0-2.9,0.1c0.1-0.9,0.2-1.6,0.2-3V19.2z M159.7,31.8c1.9,0,3.1-0.4,4-1.5
		c1.1-1.2,1.7-2.9,1.7-5.1c0-2.2-0.5-3.8-1.6-4.9c-0.9-1-2.1-1.4-4.1-1.4h-3.6v12.8H159.7z"/>
	<path d="M184.2,34.6c-0.8-0.1-1.6-0.2-2.9-0.2h-7.1c-1.4,0-2,0-2.9,0.1c0.1-0.9,0.2-1.7,0.2-3V19.2c0-1.2,0-1.9-0.2-2.9
		c0.9,0,1.5,0.1,2.9,0.1h6.9c1.1,0,1.9,0,2.9-0.2v3c-0.9-0.1-1.6-0.2-2.9-0.2h-6.6v4.7h5.5c1.2,0,2,0,3-0.2v3
		c-0.9-0.1-1.6-0.2-3-0.2h-5.6v5.4h6.8c1.3,0,1.9,0,2.9-0.2V34.6z"/>
	<path d="M189.6,28.8c0.1,1,0.2,1.5,0.6,2c0.7,0.9,1.8,1.3,3.3,1.3c2.3,0,3.6-1,3.6-2.7c0-0.9-0.4-1.7-1.1-2.1
		c-0.7-0.4-0.8-0.4-4-1.1c-1.7-0.4-2.6-0.8-3.4-1.4c-1.2-0.9-1.8-2.2-1.8-3.7c0-3.2,2.6-5.2,6.5-5.2c2.6,0,4.6,0.8,5.7,2.3
		c0.6,0.8,0.8,1.4,1.1,2.6l-3.3,0.4c-0.1-0.8-0.3-1.2-0.7-1.6c-0.6-0.7-1.6-1.1-2.9-1.1c-2,0-3.3,1-3.3,2.5c0,1,0.5,1.6,1.6,2.1
		c0.5,0.2,0.7,0.3,3.2,0.8c1.8,0.4,2.9,0.8,3.7,1.4c1.3,1,1.9,2.2,1.9,3.9c0,1.6-0.5,2.9-1.4,3.9c-1.2,1.2-3,1.7-5.4,1.7
		c-1.9,0-3.7-0.5-4.8-1.2c-0.9-0.6-1.6-1.5-2-2.6c-0.2-0.5-0.3-1-0.4-1.9L189.6,28.8z"/>
	<path d="M216,34.4c-0.1-0.8-0.4-1.7-0.6-2.4l-0.9-2.5h-7.3l-0.9,2.5c-0.4,1.1-0.5,1.4-0.7,2.4h-3.7c0.3-0.6,0.8-1.6,1.2-2.7l5-13.2
		c0.4-1.1,0.6-1.7,0.7-2.3h4c0.1,0.5,0.3,0.9,0.8,2.3l5.1,13.2c0.6,1.5,0.8,2.1,1.2,2.7H216z M211.2,20.2c-0.1-0.3-0.2-0.5-0.4-1.3
		c-0.4,1.1-0.4,1.1-0.4,1.3l-2.4,6.7h5.7L211.2,20.2z"/>
	<path d="M233.2,34.4c0-0.5-0.4-1.7-1.2-3.6c-1.2-3.1-2-4-3.8-4h-3.4v4.7c0,1.4,0,2.1,0.2,3h-3.4c0.1-1,0.2-1.6,0.2-3V19.2
		c0-1.2,0-1.9-0.2-3c1,0,1.7,0.1,2.9,0.1h5.5c3.5,0,5.4,1.7,5.4,4.7c0,1.5-0.4,2.6-1.2,3.4c-0.6,0.7-1.2,1-2.5,1.3
		c1.4,0.5,1.9,1.1,4.1,6.4c0.2,0.4,0.8,1.6,1.1,2.3H233.2z M229.4,24.2c0.8,0,1.6-0.3,2.2-0.8c0.5-0.5,0.7-1.1,0.7-2
		c0-1.6-0.9-2.5-2.8-2.5h-4.7v5.3H229.4z"/>
	<path d="M247.3,31.5c0,1.2,0,2,0.2,3H244c0.1-1,0.2-1.7,0.2-3V19h-3.1c-1.3,0-2.3,0-3.1,0.2v-3.1c0.8,0.1,1.8,0.2,3.1,0.2h9
		c1.6,0,2.5,0,3.4-0.2v3.1c-0.8-0.1-1.7-0.2-3.4-0.2h-2.8V31.5z"/>
	<path d="M279.5,19.6c0,2-0.5,2.7-2.3,3.4l-0.8-1.2c1.4-0.4,1.7-0.8,1.7-2.2h-1.9v-3.3h3.4V19.6z M284.2,19.6c0,2-0.5,2.7-2.3,3.4
		l-0.8-1.2c1.4-0.4,1.7-0.8,1.7-2.2h-1.9v-3.3h3.4V19.6z"/>
	<path d="M300.9,28.9c-1.3,2.9-2.8,4.3-4.6,4.3c-2.6,0-4.5-2.6-4.5-6.3c0-2.5,0.9-4.9,2.5-6.6c1.9-2.1,4.6-3.2,7.8-3.2
		c5.5,0,9,3.3,9,8.5c0,3.9-2.1,7.1-5.5,8.5c-1.1,0.5-2,0.7-3.6,1c-0.4-1.2-0.7-1.7-1.4-2.7c2.1-0.3,3.5-0.6,4.5-1.3
		c2-1.1,3.2-3.3,3.2-5.7c0-2.2-1-4-2.8-5.1c-0.7-0.4-1.3-0.6-2.3-0.7C302.8,23.1,302,26.3,300.9,28.9z M297.5,20.7
		c-1.9,1.4-3.1,3.7-3.1,6.2c0,1.9,0.8,3.4,1.8,3.4c0.8,0,1.5-1,2.3-2.9c0.9-2.1,1.6-5.1,1.9-7.7C299.3,19.7,298.4,20,297.5,20.7z"/>
	<path d="M328.3,33.3c0.8,0.1,1.4,0.1,2.4,0.1c1.4,0,2.6,0,3.8-0.2c-0.3,0.9-0.5,1.4-0.6,2.4c-0.8,0-1.6,0-2.3,0
		c-3.3,0-5.1-0.3-6.5-1c-0.9-0.5-1.8-1.2-2.6-2.1c-0.8,1.5-1.2,2.1-2.4,3.5c-0.7-0.8-0.8-0.9-1.7-1.6c-0.2,1-0.8,1.4-2.7,1.4
		c-0.5,0-1.1,0-1.9-0.1c-0.1-1-0.2-1.5-0.5-2.3c0.9,0.1,1.4,0.1,1.9,0.1c0.7,0,0.8-0.1,0.8-0.7v-5.1c-0.5,0.2-0.8,0.3-1.2,0.4
		c-0.5,0.2-0.9,0.3-1.2,0.5l-0.4-2.5c0.6-0.1,1.5-0.3,2.8-0.7v-4.1h-1c-0.5,0-1,0-1.6,0.1v-2.4c0.6,0.1,1,0.1,1.7,0.1h0.9v-1.8
		c0-1.1,0-1.6-0.1-2.3h2.7c-0.1,0.7-0.1,1.2-0.1,2.3v1.8h0.8c0.9,0,0.9,0,1,0c0,0,0.1,0,0.2,0c0,0,0.1,0,0.2,0v2.4
		c-0.5,0-0.8-0.1-1.3-0.1h-0.8v3.2c0.8-0.3,1.1-0.4,2-0.8v1c0.5,0.1,1.1,0.1,1.9,0.1h9.5c0.9,0,1.5,0,2.1-0.1v2.3
		c-0.6-0.1-1.2-0.1-2.1-0.1h-3.6v1.9h2.9c0.9,0,1.5,0,2-0.1V31c-0.6-0.1-1.1-0.1-2-0.1h-2.9V33.3z M324.2,28.3
		c-0.1,0.2-0.2,0.5-0.4,1.3c-0.1,0.3-0.2,0.5-0.3,0.9c0.6,1,1.3,1.6,2.4,2.1V27h-3.7c-0.8,0-1.3,0-1.8,0.1v-0.9
		c-0.8,0.3-1,0.5-1.9,0.8v6.8c0,0.2,0,0.3,0,0.6c0.9-0.8,1.4-1.5,2-2.5c0.7-1.2,1.1-2.6,1.3-4L324.2,28.3z M323.4,23.8
		c-0.9,0-1.3,0-1.9,0c0-0.3,0-1.1,0.1-2.3v-3.6c0-0.9,0-1.6-0.1-2.1c0.7,0.1,1.3,0.1,2.2,0.1h6.8c0.9,0,1.5,0,2.2-0.1
		c-0.1,0.5-0.1,1.2-0.1,2.1v3.8c0,0.8,0,0.9,0.1,2.3c-0.6,0-1.3-0.1-2.3-0.1H323.4z M323.9,18.9h6.4v-1h-6.4V18.9z M323.9,21.8h6.4
		v-1.1h-6.4V21.8z"/>
	<path d="M354.2,28.3c1.1,0,1.8,0,2.6-0.1v2.3c-0.7-0.1-1.5-0.1-2.6-0.1h-4.7c2.6,1.8,4.6,2.6,7.8,3.3c-0.5,0.6-0.9,1.3-1.3,2.3
		c-2.3-0.7-3.5-1.2-5.1-2.1c-1.3-0.7-2-1.3-3.4-2.5c0,0.7,0.1,1.5,0.1,1.8v1c0,0.9,0,1.6,0.1,1.9h-2.6c0.1-0.6,0.1-1,0.1-1.9v-1
		c0-0.3,0-0.4,0-0.7c0-0.3,0-0.3,0-0.6c0-0.1,0-0.2,0-0.5c-2.1,2-4.3,3.2-8.1,4.6c-0.4-1-0.8-1.5-1.4-2.2c3-0.8,5.7-2,7.5-3.4h-4.2
		c-1.2,0-1.8,0-2.6,0.1v-2.3c0.8,0.1,1.5,0.1,2.5,0.1h6.2v-0.2c0-0.6,0-1-0.1-1.5h2.6c-0.1,0.5-0.1,0.8-0.1,1.5v0.2H354.2z
		 M352,22.1c-0.7,1-1.2,1.4-2.1,2.1c2.8,0.7,4,1,5.8,1.7l-1.5,1.8c-1.8-0.8-3.5-1.3-6.6-2.2c-2.5,1.1-5.5,1.7-9.9,1.9
		c-0.3-0.8-0.5-1.3-1-2c0.3,0,0.5,0,0.7,0c2.1,0,4.7-0.3,6.6-0.7c-0.8-0.1-1.2-0.2-4.4-0.6c0.8-0.7,1.2-1.1,2.1-2h-2.7
		c-1,0-1.8,0-2.5,0.1v-2.1c0.5,0.1,1.1,0.1,2.3,0.1h4.4c0.6-0.9,1-1.4,1.2-1.9l2.4,0.6c-0.2,0.2-0.2,0.2-0.5,0.6
		c0,0-0.1,0.2-0.3,0.4c0,0.1-0.1,0.2-0.3,0.3h8.2c1.3,0,1.6,0,2.3-0.1v2.1c-0.7-0.1-1.4-0.1-2.5-0.1H352z M345.3,16.3
		c0-0.7,0-1-0.1-1.5h2.8c-0.1,0.5-0.1,0.8-0.1,1.5h6.1c1.1,0,1.7,0,2.5-0.1c-0.1,0.5-0.1,0.9-0.1,1.6v0.7c0,0.5,0,1,0.1,1.3h-2.4
		v-1.6h-14.4v1.5H337c0.1-0.4,0.1-0.8,0.1-1.3v-0.7c0-0.6,0-1-0.1-1.6c0.8,0.1,1.5,0.1,2.5,0.1H345.3z M344.5,22.1
		c-0.3,0.3-0.4,0.4-0.8,0.8c1.7,0.3,2.1,0.4,3.5,0.7c0.9-0.5,1.4-0.9,2-1.5H344.5z"/>
</g>
</svg>
