<?xml version="1.0" encoding="utf-8"?>
<!-- Generator: Adobe Illustrator 26.5.2, SVG Export Plug-In . SVG Version: 6.00 Build 0)  -->
<svg version="1.1" id="レイヤー_1" xmlns="http://www.w3.org/2000/svg" xmlns:xlink="http://www.w3.org/1999/xlink" x="0px"
	 y="0px" viewBox="0 0 640 520" style="enable-background:new 0 0 640 520;" xml:space="preserve">
<style type="text/css">
	.st0{fill:#5A96DC;}
	.st1{opacity:0.107;enable-background:new    ;}
	.st2{fill:#64C8C8;}
	.st3{fill:#828282;}
	.st4{fill:none;stroke:#64C8C8;stroke-width:2;stroke-miterlimit:10;}
	.st5{fill:none;stroke:#5A96DC;stroke-width:2;stroke-miterlimit:10;}
	.st6{fill:none;stroke:#64C8C8;stroke-width:4;stroke-miterlimit:10;}
	.st7{fill:#EFEFEA;}
</style>
<g>
	<path class="st0" d="M434.5,122.8h-2.1v-8c-3,1.9-4.9,2.6-6.7,3.3l-1-1.8c5.1-1.6,9.5-4.7,12.9-8.9l1.8,1.2
		c-1.4,1.7-2.6,2.8-4.9,4.7V122.8z"/>
	<path class="st0" d="M446.5,110.3c2.5,1.3,4.6,2.8,5.1,3.2c1.7-2.8,2.3-4.9,2.6-5.9l2.1,0.6c-0.6,1.7-1.5,3.8-3.2,6.5
		c1.6,1.3,2.2,1.9,3.9,3.5l-1.6,1.7c-1.7-1.9-3.3-3.3-3.5-3.5c-3,3.7-6.2,5.3-8,6.1l-1.2-1.7c1.7-0.8,5-2.2,7.7-5.7
		c-1.2-0.9-3-2.2-5.2-3.4L446.5,110.3z"/>
	<path class="st0" d="M476.1,114.1v2.1h-15.4v-2.1H476.1z"/>
	<path class="st0" d="M484.4,116c-2.2-1.3-4.3-1.9-5.2-2.2l0.7-1.7c1.7,0.4,3.7,1.1,5.3,2L484.4,116z M480.1,120.3
		c6.9-0.7,9.9-3,11.9-9.5l1.7,1.3c-2.5,6.8-5.9,9.4-13.2,10.4L480.1,120.3z M485.9,111.7c-1.7-0.9-3.2-1.5-5.3-2.1l0.8-1.7
		c1.8,0.4,3.6,1.1,5.4,1.9L485.9,111.7z M490.7,106.4c0.7,1.1,1.1,1.9,1.7,3.5l-1.3,0.7c-0.5-1.5-0.8-2.2-1.6-3.5L490.7,106.4z
		 M493.7,106.3c0.8,1.2,1.2,2.2,1.6,3.5l-1.4,0.6c-0.4-1.5-0.7-2.2-1.5-3.5L493.7,106.3z"/>
	<path class="st0" d="M510.7,109.8l0.1,1.9l-5.8,0.6l0.3,3.3l6.7-0.6l0.1,1.9l-6.6,0.6l0.5,5.3l-2.1,0.1l-0.5-5.2l-6.7,0.6l-0.2-1.9
		l6.7-0.6l-0.3-3.3l-5.8,0.6l-0.1-1.9l5.7-0.6l-0.3-3l2.1-0.2l0.3,3L510.7,109.8z"/>
	<path class="st0" d="M530.1,114.1v2.1h-15.4v-2.1H530.1z"/>
	<path class="st0" d="M547.2,108.4v1.9c0,5.3-1.3,11-10.8,12.4l-0.8-1.9c3-0.3,5.9-1.5,7.4-3.1c1.9-2.1,2-5.2,2.1-7.4h-9.4v4.9h-2.1
		v-6.8H547.2z"/>
	<path class="st0" d="M566.1,114.1v2.1h-15.4v-2.1H566.1z"/>
	<path class="st0" d="M582.3,117.8c-2.9-1.8-4.8-2.8-7.6-3.8v8.8h-2.2v-15.4h2.2v4.5c4.2,1.3,7.5,3.1,8.6,3.8L582.3,117.8z
		 M579.4,108c0.8,1.1,1.4,2.1,1.9,3.4l-1.4,0.8c-0.5-1.4-1-2.3-1.9-3.5L579.4,108z M582,106.8c0.8,1,1.3,1.9,2,3.4l-1.4,0.8
		c-0.6-1.5-1-2.2-1.9-3.5L582,106.8z"/>
	<path class="st0" d="M600.7,109.1v1.7h-7.8c-0.4,1-0.6,1.5-1,2.3c1.1-0.6,1.7-0.9,2.6-0.9c1.5,0,2.4,0.6,2.8,2
		c0.8-0.3,2.9-1.1,4.3-1.6l0.5,1.9c-2.5,0.6-4.3,1.3-4.5,1.4c0.1,0.8,0.1,1.7,0.1,1.9c0,0.6,0,0.9-0.1,1.3h-1.9
		c0.1-1.2,0.1-2.1,0.1-2.5c-1.9,0.9-3.1,1.8-3.1,2.9c0,1.4,1.8,1.4,3.7,1.4c0.4,0,2.6,0,4.7-0.3l0.1,1.9c-1.2,0.1-2.8,0.1-4.2,0.1
		c-2.1,0-6.3,0-6.3-3c0-2.5,3.4-4.2,4.9-4.8c-0.2-0.6-0.4-1.1-1.4-1.1c-1.1,0-2.3,0.7-3.2,1.6c-0.1,0.1-2.2,2.9-2.7,3.3l-1.4-1.4
		c2.1-2,3.1-3.9,4.1-6.4h-3.5v-1.7h4c0.2-0.7,0.3-1.2,0.4-1.9l2.1,0.1c-0.1,0.7-0.2,1-0.4,1.8H600.7z"/>
	<path class="st0" d="M501.9,140.9c-0.6,0.3-0.9,0.5-2,0.9v5.5c0,1.2-1,1.4-1.4,1.4h-2.2l-0.3-1.9h1.5c0.4,0,0.5,0,0.5-0.4v-3.9
		c-0.9,0.3-1.4,0.4-2.1,0.6l-0.2-1.9c0.6-0.1,1.1-0.2,2.3-0.6v-3.9h-2.2v-1.7h2.2v-3.2h1.8v3.2h1.9v1.7h-1.9v3.3
		c0.6-0.2,1-0.3,1.9-0.7L501.9,140.9z M508.2,131.7v2.8h4.2v13.7h-10v-13.7h4.1v-2.8H508.2z M506.4,136.3H504v4.2h2.4V136.3z
		 M506.4,142.2H504v4.4h2.4V142.2z M510.7,136.3h-2.5v4.2h2.5V136.3z M510.7,142.2h-2.5v4.4h2.5V142.2z"/>
	<path class="st0" d="M517.1,133v4.9h4.3v-6.2h1.9v6.2h4.3V133h1.9v6.7h-6.3v6.7h4.9v-5.6h1.9v7.4h-15.6v-7.4h1.9v5.6h4.9v-6.7h-6.2
		V133H517.1z"/>
</g>
<g>
	<path class="st0" d="M451,293.1c-0.7-0.8-1.7-1.4-2-1.5c-0.3,2.2-0.9,3.1-1.5,4l-1.3-1.3c1.1-1.4,1.2-2.5,1.3-5.2h-0.6v-1.3
		l-0.7,1.2c-0.3-0.5-0.5-0.9-0.8-1.8v8.5h-1.7v-7.1c-0.3,1.2-0.5,1.8-1.1,3.2l-0.9-2.4c1-1.7,1.6-3.6,1.9-5.5H442V282h1.8v-3.3h1.7
		v3.3h1.2v1.7h-1.2v0.6c0.2,0.5,0.6,1.6,1.7,3h4.9c-0.3-2.1-0.6-5.3-0.6-8.7h1.8c0,0.8,0,1.3,0,2.4l0.9-1c0.2,0.2,0.2,0.2,0.3,0.3
		c0.4-0.5,0.7-1,1-1.7l1.4,0.5c-0.3,0.5-0.6,1.1-1.5,2.1c0.2,0.2,0.4,0.4,0.6,0.7c0.7-1,1-1.4,1.2-1.7l1.2,0.6
		c-1.2,1.7-1.4,1.9-3,3.7c1,0,1.4-0.1,1.9-0.1c-0.2-0.4-0.2-0.6-0.4-0.9l1.2-0.4c0.7,1.4,0.9,2.3,1,2.8l-1.3,0.5
		c-0.1-0.5-0.2-0.6-0.2-0.8c-0.5,0.1-1,0.1-1.4,0.1c0.4,0.2,0.5,0.3,1.3,0.9l-0.7,0.8h2.1v1.6h-4.8c0.2,0.9,0.4,1.7,0.6,2.2
		c0.9-0.9,1.2-1.4,1.5-1.9l1.6,0.7c-0.3,0.6-1,1.7-2.4,2.9c0.2,0.4,0.6,0.9,1.1,0.9s0.9-1.3,1.1-2.1l1.4,1.2
		c-0.6,2.1-1.3,2.6-2.4,2.6c-1.3,0-2-0.5-2.6-1.6c-1.6,1-2.7,1.3-3.5,1.5l-0.7-1.6c0.7-0.2,1.9-0.5,3.4-1.5c-0.3-0.7-0.7-1.9-1-3.4
		h-3.1c0,0.4,0,0.7,0,1c1.4,0.5,2.2,1.1,2.8,1.5L451,293.1z M446.6,284.8c0.3-0.4,0.7-0.8,1.4-1.7c-0.3-0.3-1-1.2-1.9-2l1-1.1
		c0.2,0.1,0.3,0.2,0.4,0.3c0.4-0.5,0.7-1,1.1-1.7l1.3,0.5c-0.3,0.5-0.7,1.2-1.5,2.1c0.2,0.2,0.4,0.4,0.6,0.7
		c0.6-0.8,0.9-1.2,1.2-1.7l1.2,0.7c-1.1,1.6-3,3.7-3.1,3.8c0.4,0,1.1,0,1.6-0.1c-0.1-0.3-0.2-0.5-0.3-0.8l1.2-0.4
		c0.5,1,0.7,1.9,0.9,2.7l-1.3,0.5c0-0.3-0.1-0.5-0.1-0.8c-0.1,0-3.4,0.3-3.7,0.3l-0.2-1.4H446.6z M455,283c-0.6-0.8-1.2-1.3-1.8-1.8
		c0,0.8,0.1,2.4,0.2,3.4h0.2C454.5,283.7,454.8,283.3,455,283z M455.3,285.8c-0.2,0-1.6,0.1-1.7,0.1c0.1,0.6,0.2,1.4,0.2,1.6h2.4
		c-0.6-0.5-0.9-0.6-1.5-1L455.3,285.8z"/>
	<path class="st0" d="M467.1,284.2c-0.1-0.3-0.2-0.5-0.5-1.2c-1.1,0.2-4.3,0.6-6.5,0.7l-0.1-1.6c0.5,0,0.6,0,1.2,0
		c0.5-1.1,1-2.3,1.2-3.3l1.8,0.2c-0.3,0.9-0.5,1.4-1.3,3c0.2,0,2-0.1,3-0.2c-0.4-0.7-0.7-1.1-1-1.6l1.5-0.8c1.5,2.1,2,2.9,2.4,4
		L467.1,284.2z M460.7,284.6h6.9v9.5c0,1.2-1,1.5-1.4,1.5h-2.3l-0.3-1.8h1.9c0.2,0,0.4-0.1,0.4-0.3v-1.4h-3.5v3.5h-1.7V284.6z
		 M462.4,286.2v1.5h3.5v-1.5H462.4z M462.4,289.1v1.5h3.5v-1.5H462.4z M471.3,278.7v2.5c0.6-0.2,2.7-1,4.2-1.9l1,1.5
		c-1.2,0.7-3.2,1.6-5.2,2.1v1.7c0,0.1,0,0.4,0.5,0.4h2.5c0.5,0,0.8,0,0.8-2.1l1.7,0.5c-0.1,2.4-0.5,3.2-2,3.2h-3.8
		c-1.6,0-1.7-1.2-1.7-1.5v-6.4H471.3z M469.4,287.1h1.8v2.4c0.8-0.3,2.8-1.2,4-2l1,1.5c-1.6,1-3.7,1.8-5.1,2.2v2
		c0,0.4,0.3,0.5,0.5,0.5h2.5c0.6,0,0.6,0,0.8-2.4l1.7,0.5c-0.3,3-0.5,3.6-2.2,3.6H471c-1.6,0-1.6-1.3-1.6-1.7V287.1z"/>
	<path class="st0" d="M492.7,281.8l0.1,1.9l-5.8,0.6l0.3,3.3l6.7-0.6l0.1,1.9l-6.6,0.6l0.5,5.3l-2.1,0.1l-0.5-5.2l-6.7,0.6l-0.2-1.9
		l6.7-0.6l-0.3-3.3l-5.8,0.6l-0.1-1.9l5.7-0.6l-0.3-3l2.1-0.2l0.3,3L492.7,281.8z"/>
	<path class="st0" d="M512.1,286.1v2.1h-15.4v-2.1H512.1z"/>
	<path class="st0" d="M529.2,280.4v1.9c0,5.3-1.3,11-10.8,12.4l-0.8-1.9c3-0.3,5.9-1.5,7.4-3.1c1.9-2.1,2-5.2,2.1-7.4h-9.4v4.9h-2.1
		v-6.8H529.2z"/>
	<path class="st0" d="M548.1,286.1v2.1h-15.4v-2.1H548.1z"/>
	<path class="st0" d="M564.3,289.8c-2.9-1.8-4.8-2.8-7.6-3.8v8.8h-2.2v-15.4h2.2v4.5c4.2,1.3,7.5,3.1,8.6,3.8L564.3,289.8z
		 M561.4,280c0.8,1.1,1.4,2.1,1.9,3.4l-1.4,0.8c-0.5-1.4-1-2.3-1.9-3.5L561.4,280z M564,278.8c0.8,1,1.3,1.9,2,3.4l-1.4,0.8
		c-0.6-1.5-1-2.2-1.9-3.5L564,278.8z"/>
	<path class="st0" d="M582.7,281.1v1.7h-7.8c-0.4,1-0.6,1.5-1,2.3c1.1-0.6,1.7-0.9,2.6-0.9c1.5,0,2.4,0.6,2.8,2
		c0.8-0.3,2.9-1.1,4.3-1.6l0.5,1.9c-2.5,0.6-4.3,1.3-4.5,1.4c0.1,0.8,0.1,1.7,0.1,1.9c0,0.6,0,0.9-0.1,1.3h-1.9
		c0.1-1.2,0.1-2.1,0.1-2.5c-1.9,0.9-3.1,1.8-3.1,2.9c0,1.4,1.8,1.4,3.7,1.4c0.4,0,2.6,0,4.7-0.3l0.1,1.9c-1.2,0.1-2.8,0.1-4.2,0.1
		c-2.1,0-6.3,0-6.3-3c0-2.5,3.4-4.2,4.9-4.8c-0.2-0.6-0.4-1.1-1.4-1.1c-1.1,0-2.3,0.7-3.2,1.6c-0.1,0.1-2.2,2.9-2.7,3.3l-1.4-1.4
		c2.1-2,3.1-3.9,4.1-6.4h-3.5v-1.7h4c0.2-0.7,0.3-1.2,0.4-1.9l2.1,0.1c-0.1,0.7-0.2,1-0.4,1.8H582.7z"/>
	<path class="st0" d="M501.9,312.9c-0.6,0.3-0.9,0.5-2,0.9v5.5c0,1.2-1,1.4-1.4,1.4h-2.2l-0.3-1.9h1.5c0.4,0,0.5,0,0.5-0.4v-3.9
		c-0.9,0.3-1.4,0.4-2.1,0.6l-0.2-1.9c0.6-0.1,1.1-0.2,2.3-0.6v-3.9h-2.2v-1.7h2.2v-3.2h1.8v3.2h1.9v1.7h-1.9v3.3
		c0.6-0.2,1-0.3,1.9-0.7L501.9,312.9z M508.2,303.7v2.8h4.2v13.7h-10v-13.7h4.1v-2.8H508.2z M506.4,308.3H504v4.2h2.4V308.3z
		 M506.4,314.2H504v4.4h2.4V314.2z M510.7,308.3h-2.5v4.2h2.5V308.3z M510.7,314.2h-2.5v4.4h2.5V314.2z"/>
	<path class="st0" d="M517.1,305v4.9h4.3v-6.2h1.9v6.2h4.3V305h1.9v6.7h-6.3v6.7h4.9v-5.6h1.9v7.4h-15.6v-7.4h1.9v5.6h4.9v-6.7h-6.2
		V305H517.1z"/>
</g>
<g>
	<path class="st0" d="M171.4,462.4h2v2.4h4.8v1.7c-0.8,1-2.3,2.7-4.8,4.6v6.8h-2v-5.5c-2.8,1.6-4.7,2.2-6,2.6l-0.9-1.9
		c4-1,8.1-3.1,11.1-6.5h-9.9v-1.9h5.6V462.4z M179.4,475c-0.5-0.4-2.2-1.8-5-3.1l1.1-1.5c1.6,0.7,3.6,1.8,5,2.8L179.4,475z"/>
	<path class="st0" d="M198.1,469.1v2.1h-15.4v-2.1H198.1z"/>
	<path class="st0" d="M214.6,477.8c-3.9-1.2-7-1.9-13.4-2.4l0.4-1.9c4.6,0.2,9.2,0.9,13.6,2.2L214.6,477.8z M213.2,471.7
		c-3.7-1.1-6.6-1.6-10.9-1.9l0.4-1.8c5.4,0.4,8.4,1.1,11,1.8L213.2,471.7z M214.2,466.4c-2.8-0.7-6.1-1.5-11.8-1.8l0.3-1.9
		c4.8,0.3,7.7,0.7,11.8,1.6L214.2,466.4z"/>
	<path class="st0" d="M224.9,467.9c-1.2-0.8-2.9-1.8-5.6-2.6l1-1.8c3,0.9,4.8,2,5.7,2.5L224.9,467.9z M219.7,475.2
		c7.1-0.5,10.8-3.9,12.8-10.8l1.8,1.3c-1,2.9-3.6,10.9-14.2,11.7L219.7,475.2z"/>
	<path class="st0" d="M237.3,476.2c7.1-1.3,9.7-5.4,10.6-10.5H242c-1.1,1.7-2.4,3.2-4.5,4.6l-1.3-1.5c1.3-0.9,3.2-2.4,4.4-5h7.2
		l1.9,2.5c-1.1,4.7-3.3,10-11.7,11.7L237.3,476.2z M249.1,461.7c0.9,1.1,1.3,1.8,2.1,3.3l-1.2,0.8c-0.6-1.4-1.1-2.2-2-3.3
		L249.1,461.7z M251.6,461c0.9,1.1,1.3,1.9,2,3.3l-1.2,0.8c-0.6-1.4-1-2.1-1.9-3.4L251.6,461z"/>
	<path class="st0" d="M263.8,462.4c-0.5,1.1-1,2-1.5,2.7h0.7v7.5h-3.3v1.4h3.9v1.7h-3.9v2.9H258v-2.9h-4V474h4v-1.4h-3.3v-7.5h5.8
		c0.5-0.8,1.2-2.1,1.5-3.3L263.8,462.4z M255.7,461.8c0.5,0.7,1,1.7,1.3,2.4l-1.7,0.7c-0.4-1.1-0.7-1.6-1.2-2.5L255.7,461.8z
		 M256.3,466.5v1.6h1.8v-1.6H256.3z M256.3,469.4v1.7h1.8v-1.7H256.3z M259.4,461.6c0.3,1,0.5,1.6,0.7,2.8l-1.8,0.2
		c-0.1-0.9-0.2-1.5-0.6-2.8L259.4,461.6z M259.7,466.5v1.6h1.8v-1.6H259.7z M259.7,469.4v1.7h1.8v-1.7H259.7z M265.3,466.5
		c-0.1-3.7-0.1-4.1-0.1-4.8h1.7c0,1.8,0,3.2,0.1,4.7l3.9-0.3v1.8l-3.8,0.3c0.1,1.3,0.2,2.6,0.4,3.9c0.8-1.2,1.2-2.3,1.5-3.2l1.6,0.8
		c-0.7,1.8-1.4,3.1-2.5,4.5c0.1,0.3,0.7,2,1,2c0.2,0,0.3-0.3,0.3-0.5c0.1-0.3,0.3-1.5,0.4-1.7l1.5,0.9c-0.3,1.7-0.8,3.8-1.9,3.8
		c-1.4,0-2.3-2.1-2.6-2.9c-1.3,1.3-2.5,2.1-3.3,2.6l-1.3-1.5c0.9-0.4,2.4-1.2,4-2.9c-0.2-0.9-0.6-2.9-0.7-5.6l-1.9,0.1v-1.8
		L265.3,466.5z M268.8,461.9c0.5,0.5,1.6,2.2,1.8,2.9l-1.5,0.9c-0.3-0.7-1.6-2.7-1.7-3L268.8,461.9z"/>
	<path class="st0" d="M287.8,463.4v1.7c-1.1,1.6-1.9,2.3-2.5,2.9c1,0.6,2,1.1,3.7,1.5l-0.7,1.8c-1.6-0.5-3-1.2-4.4-2.2
		c-0.8,0.6-1.9,1.3-4.2,2.2l-0.8-1.6v7.7h-6.6v-15h6.6v2.8c1.7-1,2.6-1.9,3.4-3.6l1.8,0.3c-0.2,0.4-0.3,0.8-0.7,1.4H287.8z
		 M274.9,464.1h-1v4.9h1V464.1z M274.9,470.6h-1v5.1h1V470.6z M277.4,464.1h-1.1v4.9h1.1V464.1z M277.4,470.6h-1.1v5.1h1.1V470.6z
		 M278.9,469.6c1.9-0.5,3.1-1.2,3.6-1.5c-0.8-0.7-1.2-1.2-1.7-1.9c-0.3,0.3-0.6,0.5-1,0.8l-0.9-1.1V469.6z M287.8,478.2h-7.8v-6.8
		h7.8V478.2z M286.1,473.1h-4.4v3.5h4.4V473.1z M282.1,465c-0.1,0.1-0.1,0.1-0.1,0.1c0.5,0.6,0.8,1,1.9,1.9c0.7-0.6,1.2-1.1,1.9-2.1
		H282.1z"/>
	<path class="st0" d="M300.6,470.2c0,1.2-0.9,2.1-2.1,2.1c-1.2,0-2.1-1-2.1-2.1c0-1.2,1-2.1,2.1-2.1
		C299.6,468,300.6,469,300.6,470.2z"/>
	<path class="st0" d="M308.6,462.3h6.8v6.1h-5.1v10.2h-1.8V462.3z M310.4,463.6v1.1h3.3v-1.1H310.4z M310.4,465.9v1.1h3.3v-1.1
		H310.4z M313.6,472.8c0-0.1,0-0.2,0-0.3v-1.6h-2v-1.5h9.6v1.5h-1.8v1.9h2.1v1.5h-2.1v4h-1.7v-4h-2.6c-0.2,0.9-0.8,2.7-2.6,4
		l-1.2-1.3c0.6-0.4,1.6-1.3,2-2.7h-2.1v-1.5H313.6z M317.7,472.8v-1.9h-2.4v1.9H317.7z M317.3,462.3h6.9V477c0,0.3,0,1.5-1.4,1.5
		h-2.5l-0.3-1.8h2c0.3,0,0.4-0.1,0.4-0.4v-8h-5.2V462.3z M319,463.6v1.1h3.3v-1.1H319z M319,465.9v1.1h3.3v-1.1H319z"/>
	<path class="st0" d="M342.8,464c-0.4,0.5-1,1.3-2.4,2.5c0.7,0.4,1.4,0.8,2.8,1.3l-0.7,1.7c-1-0.5-1.5-0.7-2.6-1.3v1.2h-2.3v2h5v1.7
		h-5v2.9c0,0.4,0.2,0.4,0.5,0.4h2.3c0.8,0,0.8-0.5,0.9-2.2l1.8,0.2c-0.3,2.5-0.4,3.7-2,3.7h-3.8c-0.8,0-1.6-0.2-1.6-1.2v-3.9h-2.8
		c-0.6,3.3-3.3,4.8-5.9,5.4l-0.9-1.8c2.8-0.3,4.7-1.9,5-3.6h-4.6v-1.7h4.8v-2h-2.1v-1.1c-0.9,0.5-1.5,0.8-2.4,1.3l-0.9-1.7
		c1-0.3,1.7-0.7,3.1-1.5c-0.3-0.3-1.2-1.1-2.1-1.8l1-0.9h-0.2v-1.5h7.8c0.5,0.7,0.7,1.1,1.2,1.6c0.9-0.8,1.5-1.4,2.1-2.1l1.4,0.9
		c-0.7,0.8-1.5,1.6-2.3,2.4c0.4,0.3,0.6,0.4,1,0.8c1-0.9,1.8-1.7,2.4-2.5L342.8,464z M328.3,463.8c1,0.7,2,1.6,2.1,1.7
		c0.9-0.6,1.3-1,1.9-1.7H328.3z M338.8,467.7c-2.1-1.3-3.8-3.1-4.4-3.9c-0.6,0.8-1.7,2.1-4.3,3.9H338.8z M335.6,469.4h-2.7v2h2.7
		V469.4z"/>
	<path class="st0" d="M360.5,462.7L345,478.2l-0.6-0.6l15.5-15.4L360.5,462.7z"/>
	<path class="st0" d="M363.8,476c4.9-0.8,5.9-2.8,6-6.5H363v-1.9h14.7v1.9h-5.8c-0.2,5.7-2.9,7.5-7.2,8.3L363.8,476z M374.3,463.1
		v1.9h-9.9v-1.9H374.3z M375.9,461.6c0.6,1.2,0.8,2.2,1.1,3.7l-1.4,0.5c-0.2-1.5-0.5-2.4-1-3.7L375.9,461.6z M378.4,461.2
		c0.6,1.2,0.8,2.2,1.1,3.7l-1.4,0.5c-0.2-1.5-0.5-2.3-1-3.7L378.4,461.2z"/>
	<path class="st0" d="M385.4,472.5h-2v-4.6h-2.8V466h2.8v-3.3h2v3.3h5.3v-3.4h1.8l0.1,3.4h3.2v1.9h-3.1v2.1c0,3-0.8,7-8.1,7.9
		L384,476c6.8-0.6,6.8-4.4,6.8-6.1v-2.1h-5.3V472.5z M394.1,461.3c0.5,1.3,0.7,2.3,0.9,3.7l-1.4,0.3c-0.2-1.5-0.3-2.3-0.8-3.7
		L394.1,461.3z M396.6,461c0.5,1.3,0.7,2.3,0.9,3.7l-1.4,0.3c-0.2-1.5-0.4-2.4-0.8-3.7L396.6,461z"/>
	<path class="st0" d="M408.5,477.8h-2.1v-8c-3,1.9-4.9,2.6-6.7,3.3l-1-1.8c5.1-1.6,9.5-4.7,12.9-8.9l1.8,1.2
		c-1.4,1.7-2.6,2.8-4.9,4.7V477.8z"/>
	<path class="st0" d="M422.9,467.9c-1.2-0.8-2.9-1.8-5.6-2.6l1-1.8c3,0.9,4.8,2,5.7,2.5L422.9,467.9z M417.7,475.2
		c7.1-0.5,10.8-3.9,12.8-10.8l1.8,1.3c-1,2.9-3.6,10.9-14.2,11.7L417.7,475.2z"/>
	<path class="st0" d="M443.8,462.4c-0.5,1.1-1,2-1.5,2.7h0.7v7.5h-3.3v1.4h3.9v1.7h-3.9v2.9H438v-2.9h-4V474h4v-1.4h-3.3v-7.5h5.8
		c0.5-0.8,1.2-2.1,1.5-3.3L443.8,462.4z M435.7,461.8c0.5,0.7,1,1.7,1.3,2.4l-1.7,0.7c-0.4-1.1-0.7-1.6-1.2-2.5L435.7,461.8z
		 M436.3,466.5v1.6h1.8v-1.6H436.3z M436.3,469.4v1.7h1.8v-1.7H436.3z M439.4,461.6c0.3,1,0.5,1.6,0.7,2.8l-1.8,0.2
		c-0.1-0.9-0.2-1.5-0.6-2.8L439.4,461.6z M439.7,466.5v1.6h1.8v-1.6H439.7z M439.7,469.4v1.7h1.8v-1.7H439.7z M445.3,466.5
		c-0.1-3.7-0.1-4.1-0.1-4.8h1.7c0,1.8,0,3.2,0.1,4.7l3.9-0.3v1.8l-3.8,0.3c0.1,1.3,0.2,2.6,0.4,3.9c0.8-1.2,1.2-2.3,1.5-3.2l1.6,0.8
		c-0.7,1.8-1.4,3.1-2.5,4.5c0.1,0.3,0.7,2,1,2c0.2,0,0.3-0.3,0.3-0.5c0.1-0.3,0.3-1.5,0.4-1.7l1.5,0.9c-0.3,1.7-0.8,3.8-1.9,3.8
		c-1.4,0-2.3-2.1-2.6-2.9c-1.3,1.3-2.5,2.1-3.3,2.6l-1.3-1.5c0.9-0.4,2.4-1.2,4-2.9c-0.2-0.9-0.6-2.9-0.7-5.6l-1.9,0.1v-1.8
		L445.3,466.5z M448.8,461.9c0.5,0.5,1.6,2.2,1.8,2.9l-1.5,0.9c-0.3-0.7-1.6-2.7-1.7-3L448.8,461.9z"/>
	<path class="st0" d="M467.8,463.4v1.7c-1.1,1.6-1.9,2.3-2.5,2.9c1,0.6,2,1.1,3.7,1.5l-0.7,1.8c-1.6-0.5-3-1.2-4.4-2.2
		c-0.8,0.6-1.9,1.3-4.2,2.2l-0.8-1.6v7.7h-6.6v-15h6.6v2.8c1.7-1,2.6-1.9,3.4-3.6l1.8,0.3c-0.2,0.4-0.3,0.8-0.7,1.4H467.8z
		 M454.9,464.1h-1v4.9h1V464.1z M454.9,470.6h-1v5.1h1V470.6z M457.4,464.1h-1.1v4.9h1.1V464.1z M457.4,470.6h-1.1v5.1h1.1V470.6z
		 M458.9,469.6c1.9-0.5,3.1-1.2,3.6-1.5c-0.8-0.7-1.2-1.2-1.7-1.9c-0.3,0.3-0.6,0.5-1,0.8l-0.9-1.1V469.6z M467.8,478.2h-7.8v-6.8
		h7.8V478.2z M466.1,473.1h-4.4v3.5h4.4V473.1z M462.1,465c-0.1,0.1-0.1,0.1-0.1,0.1c0.5,0.6,0.8,1,1.9,1.9c0.7-0.6,1.2-1.1,1.9-2.1
		H462.1z"/>
	<path class="st0" d="M480.6,470.2c0,1.2-0.9,2.1-2.1,2.1c-1.2,0-2.1-1-2.1-2.1c0-1.2,1-2.1,2.1-2.1
		C479.6,468,480.6,469,480.6,470.2z"/>
	<path class="st0" d="M488.6,462.3h6.8v6.1h-5.1v10.2h-1.8V462.3z M490.4,463.6v1.1h3.3v-1.1H490.4z M490.4,465.9v1.1h3.3v-1.1
		H490.4z M493.6,472.8c0-0.1,0-0.2,0-0.3v-1.6h-2v-1.5h9.6v1.5h-1.8v1.9h2.1v1.5h-2.1v4h-1.7v-4h-2.6c-0.2,0.9-0.8,2.7-2.6,4
		l-1.2-1.3c0.6-0.4,1.6-1.3,2-2.7h-2.1v-1.5H493.6z M497.7,472.8v-1.9h-2.4v1.9H497.7z M497.3,462.3h6.9V477c0,0.3,0,1.5-1.4,1.5
		h-2.5l-0.3-1.8h2c0.3,0,0.4-0.1,0.4-0.4v-8h-5.1V462.3z M499,463.6v1.1h3.3v-1.1H499z M499,465.9v1.1h3.3v-1.1H499z"/>
	<path class="st0" d="M522.8,464c-0.4,0.5-1,1.3-2.4,2.5c0.7,0.4,1.4,0.8,2.8,1.3l-0.7,1.7c-1-0.5-1.5-0.7-2.6-1.3v1.2h-2.3v2h5v1.7
		h-5v2.9c0,0.4,0.2,0.4,0.5,0.4h2.3c0.8,0,0.8-0.5,0.9-2.2l1.8,0.2c-0.3,2.5-0.4,3.7-2,3.7h-3.8c-0.8,0-1.6-0.2-1.6-1.2v-3.9h-2.8
		c-0.6,3.3-3.3,4.8-5.9,5.4l-0.9-1.8c2.8-0.3,4.7-1.9,5-3.6h-4.6v-1.7h4.8v-2h-2.1v-1.1c-0.9,0.5-1.5,0.8-2.4,1.3l-0.9-1.7
		c1-0.3,1.7-0.7,3.1-1.5c-0.3-0.3-1.2-1.1-2.1-1.8l1-0.9h-0.2v-1.5h7.8c0.5,0.7,0.7,1.1,1.2,1.6c0.9-0.8,1.5-1.4,2.1-2.1l1.4,0.9
		c-0.7,0.8-1.5,1.6-2.3,2.4c0.4,0.3,0.6,0.4,1,0.8c1-0.9,1.8-1.7,2.4-2.5L522.8,464z M508.3,463.8c1,0.7,2,1.6,2.1,1.7
		c0.9-0.6,1.3-1,1.9-1.7H508.3z M518.8,467.7c-2.1-1.3-3.8-3.1-4.4-3.9c-0.6,0.8-1.7,2.1-4.3,3.9H518.8z M515.6,469.4h-2.7v2h2.7
		V469.4z"/>
</g>
<g class="st1">
	<polygon class="st2" points="182.1,41.3 92.7,231.7 271.5,231.7 	"/>
	<polygon class="st0" points="349.3,397.3 271.5,231.7 92.7,231.7 14.9,397.3 	"/>
</g>
<g>
	<g>
		<path class="st3" d="M169.5,346.1h14.8v3.5h-13v4c0,0.8-0.1,2.7-0.5,4.6c-0.3,2.1-0.9,3.3-1.3,4.1l-1.6-1.5
			c0.4-0.8,1.5-3.2,1.5-7.2V346.1z M171.3,347.3v1.1h11.3v-1.1H171.3z M180.9,360.5c-0.1-0.1-0.1-0.4-0.2-0.5
			c-0.7,0.1-4,0.5-6.4,0.5l-0.2-1.4c0.8,0,1.5,0,3.1-0.1v-1.4h-3.6v4.8H172v-6.1h5.3v-0.9h-4.6v-3.3h4.6v-0.8c-2.5,0-2.8,0-4.6,0.1
			l-0.2-1.1c5.4,0,8.5-0.1,10.8-0.6l0.5,1.2c-0.9,0.1-2.2,0.3-4.9,0.5v0.9h5v3.3h-5v0.9h5.7v4.8c0,1.3-1.1,1.3-1.3,1.3h-2.5
			l-0.4-1.6h2.1c0.3,0,0.3-0.2,0.3-0.4v-2.8h-4.1v1.3c0.4,0,0.9-0.1,1.3-0.1c-0.1-0.3-0.2-0.4-0.3-0.7l1.4-0.3c0.6,1,1,2.1,1.1,2.3
			L180.9,360.5z M174.3,353.2v1.2h3v-1.2H174.3z M178.9,353.2v1.2h3.3v-1.2H178.9z"/>
		<path class="st3" d="M188,348.9c0,1.4-0.1,4.2-0.5,5.9l-1.5-0.7c0.5-1.3,0.6-4.1,0.6-5.2H188z M188.6,345.5h1.8v16.9h-1.8V345.5z
			 M194.8,351.1c-0.4,1.2-0.9,2.3-1.6,3.2l-1.4-1.2c0.3-0.4,0.6-0.9,1.1-2.1l-1.3,0.7c-0.1-0.4-0.5-1.7-1.1-2.8l1.3-0.7
			c0.3,0.4,0.8,1.6,1.2,2.7c0.7-1.9,1-3.9,1-4.6l1.9,0.3c-0.1,0.7-0.2,1.6-0.5,2.8h1.7v-3.9h1.8v3.9h4v1.7h-4v3.3h3.6v1.7h-3.6v3.8
			h4.3v1.7h-11.5v-1.7h5.3v-3.8h-3.6v-1.7h3.6v-3.3H194.8z"/>
	</g>
</g>
<g>
	<g>
		<path class="st3" d="M150.3,279.2c-0.7-0.8-1.7-1.4-2-1.5c-0.3,2.2-0.9,3.1-1.5,4l-1.3-1.3c1.1-1.4,1.2-2.5,1.3-5.2h-0.6v-1.3
			l-0.7,1.2c-0.3-0.5-0.5-0.9-0.8-1.8v8.5H143v-7.1c-0.3,1.2-0.5,1.8-1.1,3.2l-0.9-2.4c1-1.7,1.6-3.6,1.9-5.5h-1.7v-1.7h1.8v-3.3
			h1.7v3.3h1.2v1.7h-1.2v0.6c0.2,0.5,0.6,1.6,1.7,3h4.9c-0.3-2.1-0.6-5.3-0.6-8.7h1.8c0,0.8,0,1.3,0,2.4l0.9-1
			c0.2,0.2,0.2,0.2,0.3,0.3c0.4-0.5,0.7-1,1-1.7l1.4,0.5c-0.3,0.5-0.6,1.1-1.5,2.1c0.2,0.2,0.4,0.4,0.6,0.7c0.7-1,1-1.4,1.2-1.7
			l1.2,0.6c-1.2,1.7-1.4,1.9-3,3.7c1,0,1.4-0.1,1.9-0.1c-0.2-0.4-0.2-0.6-0.4-0.9l1.2-0.4c0.7,1.4,0.9,2.3,1,2.8l-1.3,0.5
			c-0.1-0.5-0.2-0.6-0.2-0.8c-0.5,0.1-1,0.1-1.4,0.1c0.4,0.2,0.5,0.3,1.3,0.9l-0.7,0.8h2.1v1.6h-4.8c0.2,0.9,0.4,1.7,0.6,2.2
			c0.9-0.9,1.2-1.4,1.5-1.9l1.6,0.7c-0.3,0.6-1,1.7-2.4,2.9c0.2,0.4,0.6,0.9,1.1,0.9s0.9-1.3,1.1-2.1l1.4,1.2
			c-0.6,2.1-1.3,2.6-2.4,2.6c-1.3,0-2-0.5-2.6-1.6c-1.6,1-2.7,1.3-3.5,1.5l-0.7-1.6c0.7-0.2,1.9-0.5,3.4-1.5c-0.3-0.7-0.7-1.9-1-3.4
			h-3.1c0,0.4,0,0.7,0,1c1.4,0.5,2.2,1.1,2.8,1.5L150.3,279.2z M145.8,271c0.3-0.4,0.7-0.8,1.4-1.7c-0.3-0.3-1-1.2-1.9-2l1-1.1
			c0.2,0.1,0.3,0.2,0.4,0.3c0.4-0.5,0.7-1,1.1-1.7l1.3,0.5c-0.3,0.5-0.7,1.2-1.5,2.1c0.2,0.2,0.4,0.4,0.6,0.7
			c0.6-0.8,0.9-1.2,1.2-1.7l1.2,0.7c-1.1,1.6-3,3.7-3.1,3.8c0.4,0,1.1,0,1.6-0.1c-0.1-0.3-0.2-0.5-0.3-0.8l1.2-0.4
			c0.5,1,0.7,1.9,0.9,2.7l-1.3,0.5c0-0.3-0.1-0.5-0.1-0.8c-0.1,0-3.4,0.3-3.7,0.3l-0.2-1.4H145.8z M154.3,269.2
			c-0.6-0.8-1.2-1.3-1.8-1.8c0,0.8,0.1,2.4,0.2,3.4h0.2C153.7,269.9,154.1,269.4,154.3,269.2z M154.5,271.9c-0.2,0-1.6,0.1-1.7,0.1
			c0.1,0.6,0.2,1.4,0.2,1.6h2.4c-0.6-0.5-0.9-0.6-1.5-1L154.5,271.9z"/>
		<path class="st3" d="M166.3,270.3c-0.1-0.3-0.2-0.5-0.5-1.2c-1.1,0.2-4.3,0.6-6.5,0.7l-0.1-1.6c0.5,0,0.6,0,1.2,0
			c0.5-1.1,1-2.3,1.2-3.3l1.8,0.2c-0.3,0.9-0.5,1.4-1.3,3c0.2,0,2-0.1,3-0.2c-0.4-0.7-0.7-1.1-1-1.6l1.5-0.8c1.5,2.1,2,2.9,2.4,4
			L166.3,270.3z M159.9,270.8h6.9v9.5c0,1.2-1,1.5-1.4,1.5h-2.3l-0.3-1.8h1.9c0.2,0,0.4-0.1,0.4-0.3v-1.4h-3.5v3.5h-1.7V270.8z
			 M161.6,272.4v1.5h3.5v-1.5H161.6z M161.6,275.3v1.5h3.5v-1.5H161.6z M170.5,264.8v2.5c0.6-0.2,2.7-1,4.2-1.9l1,1.5
			c-1.2,0.7-3.2,1.6-5.2,2.1v1.7c0,0.1,0,0.4,0.5,0.4h2.5c0.5,0,0.8,0,0.8-2.1l1.7,0.5c-0.1,2.4-0.5,3.2-2,3.2h-3.8
			c-1.6,0-1.7-1.2-1.7-1.5v-6.4H170.5z M168.6,273.3h1.8v2.4c0.8-0.3,2.8-1.2,4-2l1,1.5c-1.6,1-3.7,1.8-5.1,2.2v2
			c0,0.4,0.3,0.5,0.5,0.5h2.5c0.6,0,0.6,0,0.8-2.4l1.7,0.5c-0.3,3-0.5,3.6-2.2,3.6h-3.6c-1.6,0-1.6-1.3-1.6-1.7V273.3z"/>
		<path class="st3" d="M188.4,265c-0.1,0.7-0.2,1.2-0.6,2.3h5.9c0,3.5-0.1,7.7-0.2,9c-0.3,4.7-0.7,5.4-3,5.4h-2.8l-0.3-1.9h2.9
			c0.6,0,1.1,0,1.2-1.1c0.4-2.5,0.4-7,0.4-9.5h-4.7c-0.8,1.9-1.4,2.7-2.2,3.8l-1-0.9v8.6h-6.2v-13.3h1.8c0.3-0.8,0.4-1.3,0.6-2.5
			l1.8,0.1c-0.2,1.1-0.3,1.4-0.7,2.4h2.6v3.6c1.5-1.9,2.2-3.7,2.6-6.2L188.4,265z M182.1,269.1h-2.7v3.9h2.7V269.1z M182.1,274.6
			h-2.7v4.2h2.7V274.6z M188.3,277.3c-0.6-1.8-1.2-3.2-2.3-5l1.6-0.9c1,1.4,1.7,2.7,2.6,4.8L188.3,277.3z"/>
		<path class="st3" d="M198.4,281.8h-1.8v-8.4c-0.3,0.5-0.5,0.6-0.8,1.1l-0.8-2.2c1.1-1.4,2.1-3.2,2.6-7.4l1.9,0.2
			c-0.2,1.8-0.5,3-1,4.7V281.8z M212.1,267.2h-3.9v3h3.4v11.2h-11.6v-11.2h3.3v-3h-3.5v-1.7h12.4V267.2z M203.2,271.8h-1.6v7.8h1.6
			V271.8z M206.5,267.2h-1.6v3h1.6V267.2z M206.5,271.8h-1.6v7.8h1.6V271.8z M209.8,271.8h-1.6v7.8h1.6V271.8z"/>
		<path class="st3" d="M216.3,281.7h-1.8v-8.5c-0.3,0.4-0.4,0.6-0.9,1.3l-0.9-2.4c0.6-0.8,2-2.6,2.7-7.2l1.9,0.1
			c-0.4,2.1-0.6,3-1.1,4.3V281.7z M224.7,264.9v1.3h5.4v1.5h-5.4v1.2h4.5v9.8h-8.4V269h2.1v-1.2h-5.1v-1.5h5.1v-1.3H224.7z
			 M230.1,281.4h-12.3V269h1.7v10.9h10.6V281.4z M227.5,270.4h-5.1v1.2h5.1V270.4z M227.5,273.1h-5.1v1.3h5.1V273.1z M227.5,275.8
			h-5.1v1.4h5.1V275.8z"/>
	</g>
</g>
<g>
	<g>
		<path class="st3" d="M140.9,191.2c0.5-1.2,0.6-3,0.5-4.4h1.4c0.1,3.4-0.2,4.5-0.5,5.2L140.9,191.2z M145.8,188.8
			c-0.1-0.3-0.2-0.8-0.6-1.7v13h-1.9v-16.9h1.9v3.4l1.1-0.5c0.3,0.7,0.6,1.4,0.8,2.2L145.8,188.8z M157.7,185.6h-4.5v1h4.2v1.3h-4.2
			v0.9h4.9v1.4h-11.5v-1.4h4.8v-0.9h-4v-1.3h4v-1h-4.5v-1.5h4.5v-1h1.8v1h4.5V185.6z M157.3,191.1v7c0,1.7-0.3,1.9-2,1.9h-1.9
			l-0.4-1.6h2.1c0.4,0,0.4-0.2,0.4-0.6V197h-6.4v3.1h-1.7v-9H157.3z M149.2,192.4v0.9h6.4v-0.9H149.2z M149.2,194.7v1h6.4v-1H149.2z
			"/>
		<path class="st3" d="M159,198.3c0.6-1.9,0.6-4.4,0.6-4.8l1.5,0.3c-0.1,1.7-0.2,3.4-0.6,5.1L159,198.3z M165.8,190.1v-1.7h3.6v-2.1
			h-2.8v-1.6h2.8v-1.5h1.7v1.5h2.2v1.4c0.3-0.6,0.6-1.2,1.1-2.6l1.6,0.8c-0.7,1.7-1.4,2.9-2.3,4.1h2.3v1.7h-3.7
			c-0.5,0.5-0.9,0.8-1.7,1.4h4.6v8.2h-8.3v-6c-0.1,0-0.5,0.3-0.8,0.4l-0.9-1.5l-0.6,0.2c-0.1-0.3-0.1-0.4-0.2-0.6
			c-0.5,0.1-0.8,0.1-1.2,0.1v7.7h-1.7v-7.6c-0.5,0-2.3,0.2-2.6,0.2l-0.1-1.6c0.8,0,0.9,0,1.1,0c0.4-0.5,0.6-0.7,1.1-1.6
			c-0.2-0.2-1.1-1.3-2.3-2.3l0.9-1.4c0.3,0.3,0.4,0.3,0.5,0.4c0.8-1.4,1-1.6,1.6-2.9l1.6,0.6c-0.5,1.2-1.2,2.2-2,3.5
			c0.2,0.2,0.3,0.3,0.7,0.7c1.3-2.1,1.5-2.4,1.7-2.9l1.6,0.7c-0.7,1.2-0.9,1.5-3.5,5.1c0.3,0,1.7-0.1,2-0.1
			c-0.2-0.5-0.3-0.7-0.5-1.1l1.4-0.5c0.2,0.5,0.7,1.4,1.2,3.1c1.4-0.6,2.7-1.2,3.9-2.2H165.8z M164.3,197.8c0-1.7-0.3-3.6-0.4-4.1
			l1.4-0.2c0.4,1.7,0.5,3.5,0.5,4L164.3,197.8z M173.6,193h-4.9v1.7h4.9V193z M173.6,196.2h-4.9v2h4.9V196.2z M171.8,188.4
			c0.7-0.9,0.9-1.2,1.5-2.1h-2.1v2.1H171.8z"/>
		<path class="st3" d="M188.4,183.3c-0.1,0.7-0.2,1.2-0.6,2.3h5.9c0,3.5-0.1,7.7-0.2,9c-0.3,4.7-0.7,5.4-3,5.4h-2.8l-0.3-1.9h2.9
			c0.6,0,1.1,0,1.2-1.1c0.4-2.5,0.4-7,0.4-9.5h-4.7c-0.8,1.9-1.4,2.7-2.2,3.8l-1-0.9v8.6h-6.2v-13.3h1.8c0.3-0.8,0.4-1.3,0.6-2.5
			l1.8,0.1c-0.2,1.1-0.3,1.4-0.7,2.4h2.6v3.6c1.5-1.9,2.2-3.7,2.6-6.2L188.4,183.3z M182.1,187.4h-2.7v3.9h2.7V187.4z M182.1,192.9
			h-2.7v4.2h2.7V192.9z M188.3,195.5c-0.6-1.8-1.2-3.2-2.3-5l1.6-0.9c1,1.4,1.7,2.7,2.6,4.8L188.3,195.5z"/>
		<path class="st3" d="M198.4,200.1h-1.8v-8.4c-0.3,0.5-0.5,0.6-0.8,1.1l-0.8-2.2c1.1-1.4,2.1-3.2,2.6-7.4l1.9,0.2
			c-0.2,1.8-0.5,3-1,4.7V200.1z M212.1,185.4h-3.9v3h3.4v11.2h-11.6v-11.2h3.3v-3h-3.5v-1.7h12.4V185.4z M203.2,190.1h-1.6v7.8h1.6
			V190.1z M206.5,185.4h-1.6v3h1.6V185.4z M206.5,190.1h-1.6v7.8h1.6V190.1z M209.8,190.1h-1.6v7.8h1.6V190.1z"/>
		<path class="st3" d="M216.3,200h-1.8v-8.5c-0.3,0.4-0.4,0.6-0.9,1.3l-0.9-2.4c0.6-0.8,2-2.6,2.7-7.2l1.9,0.1
			c-0.4,2.1-0.6,3-1.1,4.3V200z M224.7,183.1v1.3h5.4v1.5h-5.4v1.2h4.5v9.8h-8.4v-9.8h2.1V186h-5.1v-1.5h5.1v-1.3H224.7z
			 M230.1,199.7h-12.3v-12.4h1.7v10.9h10.6V199.7z M227.5,188.7h-5.1v1.2h5.1V188.7z M227.5,191.4h-5.1v1.3h5.1V191.4z M227.5,194.1
			h-5.1v1.4h5.1V194.1z"/>
	</g>
</g>
<g>
	<path class="st2" d="M182.1,46l164.1,349.3H18L182.1,46 M182.1,41.3l-167.2,356h334.4L182.1,41.3L182.1,41.3z"/>
</g>
<line class="st4" x1="133.3" y1="148" x2="229.8" y2="148"/>
<line class="st4" x1="93.6" y1="231.7" x2="269.3" y2="231.7"/>
<line class="st4" x1="54.1" y1="316.3" x2="309.3" y2="316.3"/>
<g>
	<g>
		<path class="st3" d="M140.4,116h-1.9v-7c-1.1,1-1.6,1.3-2.2,1.7l-0.8-1.8c2.3-1.4,4.1-3.3,4.9-5.3h-4.6v-1.8h2.7v-2.8h1.9v2.8h2.1
			v1.8c-0.3,0.7-0.7,1.6-1.8,3c0.9,1,1.4,1.4,2.5,2.2l-0.9,1.7c-0.8-0.7-1.3-1.2-1.9-1.9V116z M146.6,99.1h1.9v5.1h3.9v1.9h-3.9v7.4
			h4.3v1.9H142v-1.9h4.5v-7.4h-3.8v-1.9h3.8V99.1z"/>
		<path class="st3" d="M157.5,104.7c-1.4,0.9-2.2,1.2-3,1.5l-1.1-1.7c2.9-1,6.3-3.2,7.8-5.5h2.1c1.3,2.1,4.2,4.1,7.8,5.5l-1.2,1.8
			c-0.8-0.4-1.8-0.9-2.9-1.6v1h-9.6V104.7z M168.3,116.2c-0.2-0.4-0.3-0.6-0.7-1.2c-2.5,0.3-6.5,0.5-12.8,0.7l-0.3-1.9
			c0.4,0,2,0,2.6,0c0.5-0.9,1.4-2.8,1.7-4.2h-4.6v-1.7h16.2v1.7H161c-0.6,1.5-1.3,3-1.9,4.1c3.4-0.1,3.7-0.1,7.3-0.3
			c-0.9-1.2-1.3-1.8-2.1-2.6l1.5-0.9c0.6,0.5,2.6,2.6,4.2,5.2L168.3,116.2z M166.1,104c-1.9-1.4-3.3-2.9-3.7-3.4
			c-0.7,0.9-1.7,2-3.7,3.4H166.1z"/>
		<path class="st3" d="M183,99.3c-0.1,0.7-0.2,1.2-0.6,2.3h5.9c0,3.5-0.1,7.7-0.2,9c-0.3,4.7-0.7,5.4-3,5.4h-2.8l-0.3-1.9h2.9
			c0.6,0,1.1,0,1.2-1.1c0.4-2.5,0.4-7,0.4-9.5h-4.7c-0.8,1.9-1.4,2.7-2.2,3.8l-1-0.9v8.6h-6.2v-13.3h1.8c0.3-0.8,0.4-1.3,0.6-2.5
			l1.8,0.1c-0.2,1.1-0.3,1.4-0.7,2.4h2.6v3.6c1.5-1.9,2.2-3.7,2.6-6.2L183,99.3z M176.7,103.4H174v3.9h2.7V103.4z M176.7,108.9H174
			v4.2h2.7V108.9z M183,111.5c-0.6-1.8-1.2-3.2-2.3-5l1.6-0.9c1,1.4,1.7,2.7,2.6,4.8L183,111.5z"/>
		<path class="st3" d="M193.1,116.1h-1.8v-8.4c-0.3,0.5-0.5,0.6-0.8,1.1l-0.8-2.2c1.1-1.4,2.1-3.2,2.6-7.4l1.9,0.2
			c-0.2,1.8-0.5,3-1,4.7V116.1z M206.7,101.4h-3.9v3h3.4v11.2h-11.6v-11.2h3.3v-3h-3.5v-1.7h12.4V101.4z M197.9,106.1h-1.6v7.8h1.6
			V106.1z M201.1,101.4h-1.6v3h1.6V101.4z M201.1,106.1h-1.6v7.8h1.6V106.1z M204.4,106.1h-1.6v7.8h1.6V106.1z"/>
		<path class="st3" d="M211,116h-1.8v-8.5c-0.3,0.4-0.4,0.6-0.9,1.3l-0.9-2.4c0.6-0.8,2-2.6,2.7-7.2l1.9,0.1c-0.4,2.1-0.6,3-1.1,4.3
			V116z M219.4,99.1v1.3h5.4v1.5h-5.4v1.2h4.5v9.8h-8.4v-9.8h2.1V102h-5.1v-1.5h5.1v-1.3H219.4z M224.8,115.7h-12.3v-12.4h1.7v10.9
			h10.6V115.7z M222.2,104.7h-5.1v1.2h5.1V104.7z M222.2,107.4h-5.1v1.3h5.1V107.4z M222.2,110.1h-5.1v1.4h5.1V110.1z"/>
	</g>
</g>
<polyline class="st4" points="370.9,208.9 398.2,208.9 398.2,40.2 370.9,40.2 "/>
<polyline class="st5" points="370.9,392.2 398.2,392.2 398.2,223.6 370.9,223.6 "/>
<line class="st6" x1="494.9" y1="208.9" x2="528.9" y2="208.9"/>
<line class="st6" x1="511.9" y1="225.9" x2="511.9" y2="191.9"/>
<polygon class="st7" points="348.4,447.9 348.4,447.9 288.9,424.9 407.9,424.9 "/>
</svg>
