<?xml version="1.0" encoding="utf-8"?>
<!-- Generator: Adobe Illustrator 26.5.2, SVG Export Plug-In . SVG Version: 6.00 Build 0)  -->
<svg version="1.1" id="レイヤー_1" xmlns="http://www.w3.org/2000/svg" xmlns:xlink="http://www.w3.org/1999/xlink" x="0px"
	 y="0px" viewBox="0 0 640 500" style="enable-background:new 0 0 640 500;" xml:space="preserve">
<style type="text/css">
	.st0{opacity:0.107;fill:#67CAC9;enable-background:new    ;}
	.st1{fill:#EFEFEA;}
	.st2{fill:none;stroke:#000000;stroke-miterlimit:10;}
	.st3{fill:#FFFFFF;stroke:#000000;stroke-miterlimit:10;}
	.st4{fill:#64C8C8;}
	.st5{fill:#828282;}
	.st6{opacity:0.5;fill:none;stroke:#828282;stroke-miterlimit:10;}
</style>
<path class="st0" d="M306.7,213.4l-126-1c-3.8,0-6.9-3.1-6.9-6.9v-90.4c0-3.8,3.1-6.9,7-6.9l126,1c3.8,0,6.9,3.1,6.9,6.9v90.4
	C313.7,210.3,310.6,213.4,306.7,213.4z"/>
<path class="st0" d="M460.7,213.4l-126-1c-3.8,0-6.9-3.1-6.9-6.9v-90.4c0-3.8,3.1-6.9,7-6.9l126,1c3.8,0,6.9,3.1,6.9,6.9v90.4
	C467.7,210.3,464.6,213.4,460.7,213.4z"/>
<path class="st0" d="M614.7,213.4l-126-1c-3.8,0-6.9-3.1-6.9-6.9v-90.4c0-3.8,3.1-6.9,7-6.9l126,1c3.8,0,6.9,3.1,6.9,6.9v90.4
	C621.7,210.3,618.6,213.4,614.7,213.4z"/>
<path class="st0" d="M306.7,334.4l-126-1c-3.8,0-6.9-3.1-6.9-6.9v-90.4c0-3.8,3.1-6.9,7-6.9l126,1c3.8,0,6.9,3.1,6.9,6.9v90.4
	C313.7,331.3,310.6,334.4,306.7,334.4z"/>
<path class="st0" d="M460.7,334.4l-126-1c-3.8,0-6.9-3.1-6.9-6.9v-90.4c0-3.8,3.1-6.9,7-6.9l126,1c3.8,0,6.9,3.1,6.9,6.9v90.4
	C467.7,331.3,464.6,334.4,460.7,334.4z"/>
<path class="st0" d="M614.7,334.4l-126-1c-3.8,0-6.9-3.1-6.9-6.9v-90.4c0-3.8,3.1-6.9,7-6.9l126,1c3.8,0,6.9,3.1,6.9,6.9v90.4
	C621.7,331.3,618.6,334.4,614.7,334.4z"/>
<path class="st0" d="M306.7,455.4l-126-1c-3.8,0-6.9-3.1-6.9-6.9v-90.4c0-3.8,3.1-6.9,7-6.9l126,1c3.8,0,6.9,3.1,6.9,6.9v90.4
	C313.7,452.3,310.6,455.4,306.7,455.4z"/>
<path class="st0" d="M460.7,455.4l-126-1c-3.8,0-6.9-3.1-6.9-6.9v-90.4c0-3.8,3.1-6.9,7-6.9l126,1c3.8,0,6.9,3.1,6.9,6.9v90.4
	C467.7,452.3,464.6,455.4,460.7,455.4z"/>
<path class="st0" d="M614.7,455.4l-126-1c-3.8,0-6.9-3.1-6.9-6.9v-90.4c0-3.8,3.1-6.9,7-6.9l126,1c3.8,0,6.9,3.1,6.9,6.9v90.4
	C621.7,452.3,618.6,455.4,614.7,455.4z"/>
<rect x="4" y="96.5" class="st1" width="157.9" height="368.5"/>
<rect x="4" y="96.5" class="st2" width="630.9" height="368.5"/>
<line class="st3" x1="161.9" y1="96.5" x2="161.9" y2="465"/>
<g>
	<path class="st4" d="M42.7,135.4h4.6v1.4c-0.2,0.9-0.3,1.2-1.2,3.8c1.3,1.6,1.3,3.3,1.3,3.8c0,1-0.3,2.4-1.7,2.4h-0.9l-0.2-1.5h0.7
		c0.7,0,0.7-0.8,0.7-1.2c0-1.3-0.5-2.4-1.2-3.5c0.6-1.6,0.8-2.4,1.1-3.8h-1.5v13.1h-1.6V135.4z M49.1,146.1c-0.4,2-1.1,2.9-1.4,3.3
		l-1.3-0.7c0.5-0.7,0.9-1.4,1.4-3L49.1,146.1z M57,136.2c-2.5,0.5-7.4,0.7-9,0.7l-0.2-1.3c2.3,0,6.4-0.2,8.8-0.6L57,136.2z
		 M47.8,144.7v-1.3h7.4v-0.8h-7v-1.1h7v-0.8H48v-1.3h6.4c0.4-0.6,1-2,1.3-2.8l1.5,0.4c-0.3,0.8-0.8,1.6-1.2,2.3h1v5.3h-5.2
		c0.1,0.1,0.8,0.5,1.9,1.5l-0.9,1c-0.4-0.5-1.2-1.2-1.8-1.7l0.7-0.8H47.8z M49.4,137.1c0.4,0.6,0.7,1.3,0.8,1.9l-1.4,0.4
		c-0.2-0.7-0.5-1.5-0.8-1.9L49.4,137.1z M49.6,146.2H51v1.4c0,0.3,0,0.6,0.5,0.6h1.4c0.3,0,0.4,0,0.5-0.1c0.1-0.1,0.2-0.7,0.2-1
		l1.4,0.4c-0.4,2.1-0.8,2.1-1.8,2.1h-1.7c-0.8,0-1.8,0-1.8-1.2V146.2z M52.6,137c0.4,0.5,0.8,1.4,1,2l-1.4,0.4c-0.3-0.6-0.6-1.3-1-2
		L52.6,137z M55.9,145.4c0.9,1.3,1.5,2.7,1.7,3.3l-1.4,0.7c-0.3-0.8-1-2.5-1.5-3.3L55.9,145.4z"/>
	<path class="st4" d="M58.8,145.1c1.7-1.5,2.5-3,3.2-4.3v-1.1l-2.7,0V138H62v-2.4h1.9c-0.1,1.2-0.1,2.9-0.1,3.5
		c0.6-0.7,2.4-2.5,4.8-2.5c1.2,0,2.4,0.7,2.4,2.8c0,0.2,0,0.4,0,0.9l-0.1,2.4c0,0.4-0.1,2.1-0.1,2.4c0,1.2,0,1.9,2.4,1.8l-0.5,1.8
		c-3.3-0.1-3.7-1.2-3.7-3.3c0-1.1,0.1-2.3,0.1-2.7l0.1-2.3c0-0.8,0.1-1.9-1.1-1.9c-1.6,0-3.6,2-4.3,2.9c0,0.9,0,3.7,0,4.5
		c0,1.3,0,2.4,0,3.3h-1.8c0-0.8,0-4.5,0-5.3c-0.5,0.9-1,1.8-2.2,3.1L58.8,145.1z"/>
	<path class="st4" d="M88.5,138.1c-0.6,0-1.1-0.1-1.5-0.1c-0.8,0-1.2,0-1.7,0.2c-2.3,0.7-5.3,3.2-5.3,5.8c0,2,1.6,2.5,3.1,2.8
		c1.1,0.2,2.8,0.3,4,0.2l-0.3,1.9c-3.2-0.1-8.6-0.3-8.6-4.9c0-3.1,2.9-5.1,4.3-6c-1.7,0.1-5.8,0.4-7.3,0.6l-0.1-1.9
		c1,0,5.6-0.3,6.5-0.3c2.4-0.1,4.3-0.1,7-0.2L88.5,138.1z"/>
	<path class="st4" d="M93.5,136.4c-0.1,1-0.4,2.6-0.4,4.8c0,2.1,0.1,5.5,1.8,5.5c0.5,0,0.9-0.4,1.2-0.8c0.4-0.5,0.9-1.5,1.3-2.6
		l1.5,0.9c-0.4,1.2-1.1,2.7-2.1,3.8c-0.6,0.6-1.2,0.8-1.8,0.8c-2.8,0-3.4-4.1-3.4-7.7c0-1.6,0.1-3.3,0.3-4.7L93.5,136.4z
		 M102.7,147.2c0-2.8,0.1-7.1-2.8-9.5l1.4-1c2.5,2.2,3.4,4.5,3.4,10.4L102.7,147.2z"/>
	<path class="st4" d="M117.5,137.3c-1.3,0.9-2.8,2.2-4.2,3.3c0.6-0.2,1.4-0.4,2.4-0.4c2.2,0,4.3,1.2,4.3,4.1c0,3.1-2.6,4.9-5.8,4.9
		c-2.8,0-4.2-1.2-4.2-2.7c0-1.4,1.2-2.4,2.8-2.4c1.2,0,3.2,0.7,3.8,2.9c1.2-0.7,1.6-1.7,1.6-2.6c0-1.2-0.6-2.7-3.2-2.7
		c-2.7,0-4.7,1.6-6.9,3.7l-1-1.5c0.5-0.3,3.4-2.6,7.5-6.2c-1.9,0.1-3.1,0.2-5.8,0.3v-1.7c3.7,0,5.2,0,8.7-0.2V137.3z M112.9,145.4
		c-0.8,0-1.2,0.5-1.2,0.9c0,0.7,0.8,1.4,2.5,1.4c0.4,0,0.8-0.1,1.1-0.1C115,146.4,114.2,145.4,112.9,145.4z"/>
	<path class="st4" d="M63,182.6h-2.4v-11.2c-0.4,0.6-0.6,0.9-1.1,1.5l-1.1-2.9c1.4-1.9,2.8-4.2,3.5-9.9l2.6,0.2
		c-0.3,2.4-0.6,4-1.4,6.3V182.6z M81.1,163.1h-5.2v4h4.5v15H64.8v-15h4.4v-4h-4.6v-2.3h16.5V163.1z M69.3,169.4h-2.1v10.4h2.1V169.4
		z M73.7,163.1h-2.1v4h2.1V163.1z M73.7,169.4h-2.1v10.4h2.1V169.4z M78,169.4h-2.2v10.4H78V169.4z"/>
	<path class="st4" d="M86.8,182.6h-2.4v-11.3c-0.3,0.5-0.5,0.8-1.2,1.7l-1.2-3.2c0.9-1.1,2.7-3.5,3.6-9.6l2.6,0.2
		c-0.5,2.9-0.8,4.1-1.4,5.8V182.6z M98,160.1v1.8h7.2v2H98v1.7h6v13H92.7v-13h2.8v-1.7h-6.8v-2h6.8v-1.8H98z M105.1,182.1H88.8
		v-16.6h2.3V180h14.1V182.1z M101.7,167.5h-6.8v1.6h6.8V167.5z M101.7,171.1h-6.8v1.8h6.8V171.1z M101.7,174.7h-6.8v1.9h6.8V174.7z"
		/>
</g>
<g>
	<path class="st4" d="M43.4,254.7H48v1.4c-0.2,0.9-0.3,1.2-1.2,3.8c1.3,1.6,1.3,3.3,1.3,3.8c0,1-0.3,2.4-1.7,2.4h-0.9l-0.2-1.5h0.7
		c0.7,0,0.7-0.8,0.7-1.2c0-1.3-0.5-2.4-1.2-3.5c0.6-1.6,0.8-2.4,1.1-3.8H45v13.1h-1.6V254.7z M49.8,265.4c-0.4,2-1.1,2.9-1.4,3.3
		l-1.3-0.7c0.5-0.7,0.9-1.4,1.4-3L49.8,265.4z M57.7,255.6c-2.5,0.5-7.4,0.7-9,0.7l-0.2-1.3c2.3,0,6.4-0.2,8.8-0.6L57.7,255.6z
		 M48.5,264.1v-1.3H56V262h-7v-1.1h7V260h-7.3v-1.3H55c0.4-0.6,1-2,1.3-2.8l1.5,0.4c-0.3,0.8-0.8,1.6-1.2,2.3h1v5.3h-5.2
		c0.1,0.1,0.8,0.5,1.9,1.5l-0.9,1c-0.4-0.5-1.2-1.2-1.8-1.7l0.7-0.8H48.5z M50.1,256.4c0.4,0.6,0.7,1.3,0.8,1.9l-1.4,0.4
		c-0.2-0.7-0.5-1.5-0.8-1.9L50.1,256.4z M50.3,265.6h1.4v1.4c0,0.3,0,0.6,0.5,0.6h1.4c0.3,0,0.4,0,0.5-0.1c0.1-0.1,0.2-0.7,0.2-1
		l1.4,0.4c-0.4,2.1-0.8,2.1-1.8,2.1h-1.7c-0.8,0-1.8,0-1.8-1.2V265.6z M53.3,256.3c0.4,0.5,0.8,1.4,1,2l-1.4,0.4
		c-0.3-0.6-0.6-1.3-1-2L53.3,256.3z M56.6,264.7c0.9,1.3,1.5,2.7,1.7,3.3l-1.4,0.7c-0.3-0.8-1-2.5-1.5-3.3L56.6,264.7z"/>
	<path class="st4" d="M59.5,264.4c1.7-1.5,2.5-3,3.2-4.3V259l-2.7,0v-1.7h2.8v-2.4h1.9c-0.1,1.2-0.1,2.9-0.1,3.5
		c0.6-0.7,2.4-2.5,4.8-2.5c1.2,0,2.4,0.7,2.4,2.8c0,0.2,0,0.4,0,0.9l-0.1,2.4c0,0.4-0.1,2.1-0.1,2.4c0,1.2,0,1.9,2.4,1.8l-0.5,1.8
		c-3.3-0.1-3.7-1.2-3.7-3.3c0-1.1,0.1-2.3,0.1-2.7l0.1-2.3c0-0.8,0.1-1.9-1.1-1.9c-1.6,0-3.6,2-4.3,2.9c0,0.9,0,3.7,0,4.5
		c0,1.3,0,2.4,0,3.3h-1.8c0-0.8,0-4.5,0-5.3c-0.5,0.9-1,1.8-2.2,3.1L59.5,264.4z"/>
	<path class="st4" d="M89.2,257.4c-0.6,0-1.1-0.1-1.5-0.1c-0.8,0-1.2,0-1.7,0.2c-2.3,0.7-5.3,3.2-5.3,5.8c0,2,1.6,2.5,3.1,2.8
		c1.1,0.2,2.8,0.3,4,0.2l-0.3,1.9c-3.2-0.1-8.6-0.3-8.6-4.9c0-3.1,2.9-5.1,4.3-6c-1.7,0.1-5.8,0.4-7.3,0.6l-0.1-1.9
		c1,0,5.6-0.3,6.5-0.3c2.4-0.1,4.3-0.1,7-0.2L89.2,257.4z"/>
	<path class="st4" d="M94.2,255.7c-0.1,1-0.4,2.6-0.4,4.8c0,2.1,0.1,5.5,1.8,5.5c0.5,0,0.9-0.4,1.2-0.8c0.4-0.5,0.9-1.5,1.3-2.6
		l1.5,0.9c-0.4,1.2-1.1,2.7-2.1,3.8c-0.6,0.6-1.2,0.8-1.8,0.8c-2.8,0-3.4-4.1-3.4-7.7c0-1.6,0.1-3.3,0.3-4.7L94.2,255.7z
		 M103.4,266.5c0-2.8,0.1-7.1-2.8-9.5l1.4-1c2.5,2.2,3.4,4.5,3.4,10.4L103.4,266.5z"/>
	<path class="st4" d="M118.2,256.6c-1.3,0.9-2.8,2.2-4.2,3.3c0.6-0.2,1.4-0.4,2.4-0.4c2.2,0,4.3,1.2,4.3,4.1c0,3.1-2.6,4.9-5.8,4.9
		c-2.8,0-4.2-1.2-4.2-2.7c0-1.4,1.2-2.4,2.8-2.4c1.2,0,3.2,0.7,3.8,2.9c1.2-0.7,1.6-1.7,1.6-2.6c0-1.2-0.6-2.7-3.2-2.7
		c-2.7,0-4.7,1.6-6.9,3.7l-1-1.5c0.5-0.3,3.4-2.6,7.5-6.2c-1.9,0.1-3.1,0.2-5.8,0.3v-1.7c3.7,0,5.2,0,8.7-0.2V256.6z M113.6,264.7
		c-0.8,0-1.2,0.5-1.2,0.9c0,0.7,0.8,1.4,2.5,1.4c0.4,0,0.8-0.1,1.1-0.1C115.6,265.7,114.9,264.7,113.6,264.7z"/>
	<path class="st4" d="M69.1,288c-2.4,2.9-5.4,5.2-8.7,6.9l-1.4-2.5c7.7-3.5,9.8-7.8,10.8-9.8H59.3v-2.5h22.5v2.5h-9.2
		c-0.3,0.6-0.7,1.5-1.5,2.8h0.8v16.4h-2.6V288z M74.2,286c2.4,2.9,4.6,4.7,8,6.6l-1.8,2.4c-3.5-2.5-5-3.8-8.1-7.6L74.2,286z"/>
	<path class="st4" d="M84.1,286c2.3,1,3.2,1.8,3.8,2.3l-1.4,2c-1.4-1.2-2.8-1.9-3.7-2.3L84.1,286z M88.3,293.5
		c-0.7,2.2-2,5.8-3.6,8.2l-1.9-2c2-2.9,3.2-6.6,3.4-7.4L88.3,293.5z M85.2,279.6c1.1,0.5,2.5,1.3,3.6,2.1l-1.5,2.1
		c-1.5-1.2-3-2-3.5-2.3L85.2,279.6z M102.7,291.4h-4.2v5.2h1.2v-4h1.8v6H93v-6h1.9v4h1.3v-5.2h-4.4v10.5h-2.3v-12.6h6.7v-1.8h-6.9
		v-2.2h3v-2.1h-3.3v-2.2h3.3v-1.8h2.4v1.8h5.2v-1.8h2.4v1.8h3.4v2.2h-3.4v2.1h3.1v2.2h-6.9v1.8h6.6v10.6c0,0.6-0.3,2-2.2,2h-3.3
		l-0.4-2.4h2.7c0.6,0,0.8,0,0.8-0.6V291.4z M94.7,283.3v2.1h5.2v-2.1H94.7z"/>
</g>
<g>
	<path class="st4" d="M43.4,381.5H48v1.4c-0.2,0.9-0.3,1.2-1.2,3.8c1.3,1.6,1.3,3.3,1.3,3.8c0,1-0.3,2.4-1.7,2.4h-0.9l-0.2-1.5h0.7
		c0.7,0,0.7-0.8,0.7-1.2c0-1.3-0.5-2.4-1.2-3.5c0.6-1.6,0.8-2.4,1.1-3.8H45V396h-1.6V381.5z M49.8,392.2c-0.4,2-1.1,2.9-1.4,3.3
		l-1.3-0.7c0.5-0.7,0.9-1.4,1.4-3L49.8,392.2z M57.7,382.4c-2.5,0.5-7.4,0.7-9,0.7l-0.2-1.3c2.3,0,6.4-0.2,8.8-0.6L57.7,382.4z
		 M48.5,390.9v-1.3H56v-0.8h-7v-1.1h7v-0.8h-7.3v-1.3H55c0.4-0.6,1-2,1.3-2.8l1.5,0.4c-0.3,0.8-0.8,1.6-1.2,2.3h1v5.3h-5.2
		c0.1,0.1,0.8,0.5,1.9,1.5l-0.9,1c-0.4-0.5-1.2-1.2-1.8-1.7l0.7-0.8H48.5z M50.1,383.3c0.4,0.6,0.7,1.3,0.8,1.9l-1.4,0.4
		c-0.2-0.7-0.5-1.5-0.8-1.9L50.1,383.3z M50.3,392.4h1.4v1.4c0,0.3,0,0.6,0.5,0.6h1.4c0.3,0,0.4,0,0.5-0.1c0.1-0.1,0.2-0.7,0.2-1
		l1.4,0.4c-0.4,2.1-0.8,2.1-1.8,2.1h-1.7c-0.8,0-1.8,0-1.8-1.2V392.4z M53.3,383.1c0.4,0.5,0.8,1.4,1,2l-1.4,0.4
		c-0.3-0.6-0.6-1.3-1-2L53.3,383.1z M56.6,391.6c0.9,1.3,1.5,2.7,1.7,3.3l-1.4,0.7c-0.3-0.8-1-2.5-1.5-3.3L56.6,391.6z"/>
	<path class="st4" d="M59.5,391.2c1.7-1.5,2.5-3,3.2-4.3v-1.1l-2.7,0v-1.7h2.8v-2.4h1.9c-0.1,1.2-0.1,2.9-0.1,3.5
		c0.6-0.7,2.4-2.5,4.8-2.5c1.2,0,2.4,0.7,2.4,2.8c0,0.2,0,0.4,0,0.9l-0.1,2.4c0,0.4-0.1,2.1-0.1,2.4c0,1.2,0,1.9,2.4,1.8l-0.5,1.8
		c-3.3-0.1-3.7-1.2-3.7-3.3c0-1.1,0.1-2.3,0.1-2.7l0.1-2.3c0-0.8,0.1-1.9-1.1-1.9c-1.6,0-3.6,2-4.3,2.9c0,0.9,0,3.7,0,4.5
		c0,1.3,0,2.4,0,3.3h-1.8c0-0.8,0-4.5,0-5.3c-0.5,0.9-1,1.8-2.2,3.1L59.5,391.2z"/>
	<path class="st4" d="M89.2,384.3c-0.6,0-1.1-0.1-1.5-0.1c-0.8,0-1.2,0-1.7,0.2c-2.3,0.7-5.3,3.2-5.3,5.8c0,2,1.6,2.5,3.1,2.8
		c1.1,0.2,2.8,0.3,4,0.2l-0.3,1.9c-3.2-0.1-8.6-0.3-8.6-4.9c0-3.1,2.9-5.1,4.3-6c-1.7,0.1-5.8,0.4-7.3,0.6l-0.1-1.9
		c1,0,5.6-0.3,6.5-0.3c2.4-0.1,4.3-0.1,7-0.2L89.2,384.3z"/>
	<path class="st4" d="M94.2,382.6c-0.1,1-0.4,2.6-0.4,4.8c0,2.1,0.1,5.5,1.8,5.5c0.5,0,0.9-0.4,1.2-0.8c0.4-0.5,0.9-1.5,1.3-2.6
		l1.5,0.9c-0.4,1.2-1.1,2.7-2.1,3.8c-0.6,0.6-1.2,0.8-1.8,0.8c-2.8,0-3.4-4.1-3.4-7.7c0-1.6,0.1-3.3,0.3-4.7L94.2,382.6z
		 M103.4,393.3c0-2.8,0.1-7.1-2.8-9.5l1.4-1c2.5,2.2,3.4,4.5,3.4,10.4L103.4,393.3z"/>
	<path class="st4" d="M118.2,383.5c-1.3,0.9-2.8,2.2-4.2,3.3c0.6-0.2,1.4-0.4,2.4-0.4c2.2,0,4.3,1.2,4.3,4.1c0,3.1-2.6,4.9-5.8,4.9
		c-2.8,0-4.2-1.2-4.2-2.7c0-1.4,1.2-2.4,2.8-2.4c1.2,0,3.2,0.7,3.8,2.9c1.2-0.7,1.6-1.7,1.6-2.6c0-1.2-0.6-2.7-3.2-2.7
		c-2.7,0-4.7,1.6-6.9,3.7l-1-1.5c0.5-0.3,3.4-2.6,7.5-6.2c-1.9,0.1-3.1,0.2-5.8,0.3v-1.7c3.7,0,5.2,0,8.7-0.2V383.5z M113.6,391.6
		c-0.8,0-1.2,0.5-1.2,0.9c0,0.7,0.8,1.4,2.5,1.4c0.4,0,0.8-0.1,1.1-0.1C115.6,392.5,114.9,391.6,113.6,391.6z"/>
	<path class="st4" d="M30.5,409h7.7v-2.8h2.2v2.8h7.8v2.4h-7.8v3.7h8.9v2.4h-7.6c2.3,3.4,5.7,5.8,8,7l-1.3,2.5c-5-3.1-7-6.3-8-7.8
		v9.6h-2.2v-9.4c-2.5,3.8-5.1,6-8,7.7l-1.2-2.5c4.1-2.1,6.2-4.4,7.9-7h-7.6v-2.4h8.9v-3.7h-7.7V409z"/>
	<path class="st4" d="M69.3,419c-0.5-0.7-0.8-1.2-1.8-2.2c-0.7,0.1-2,0.3-2.7,0.3v8.3c0,0.4,0.3,0.4,0.6,0.4h2.2c0.5,0,0.8,0,1-0.8
		c0.1-0.4,0.3-1.3,0.3-3.4l2.2,0.6c-0.4,4.4-0.7,6-3,6H65c-1,0-2.4-0.1-2.4-1.7v-9.3c-1.6,0.1-1.7,0.2-3.4,0.2
		c-0.4,6.7-2.3,9.6-7.1,11.3l-1.2-2.4c5-1.5,5.8-4.2,6.2-8.8c-1.8,0.1-4.6,0.2-5.4,0.3l-0.1-2.5c0.4,0,2.5,0,3,0
		c0.3-0.4,2-3.1,2.6-4.6h-6.3v-2.4h9v-2.2h2.3v2.2h9.1v2.4H59.7c-0.8,1.4-2.1,3.7-2.6,4.5c3.8-0.1,4.5-0.1,8.1-0.5
		c-0.6-0.5-1.1-0.9-2.1-1.7l1.6-1.8c2.7,1.8,4.3,3.2,6.3,5.6L69.3,419z"/>
	<path class="st4" d="M78.5,417c-0.1,0.9-0.2,2-0.6,3.9c1.2,2.6,2.4,3.7,3.5,4.2v-9.7h-7.3V407H91v8.3h-7.5v3.4H92v2.3h-8.4v4.7
		c0.7,0.1,1.3,0.1,1.5,0.1H93l-0.6,2.4h-7.6c-1.3,0-2.2-0.3-3.2-0.5c-1.9-0.6-3.4-1.8-4.6-4.2c-1.2,3-2.6,4.4-3.3,5l-1.5-2.1
		c3.1-2.8,3.9-7.5,4.1-10L78.5,417z M76.3,409.3v3.8h12.6v-3.8H76.3z"/>
	<path class="st4" d="M107.4,413.5h2.2v2.5c0,6.1,3.8,9.5,4.9,10.5l-1.4,2.3c-2.9-2.9-3.8-5.5-4.4-7.9c-0.5,2.1-1.4,5.1-4.4,7.9
		l-1.2-1.4v1h-7.6v-9.1c-0.2,0.1-0.5,0.4-0.6,0.5l-1-2.4c2-1.5,3.7-3.6,4.8-5.9h2.2c1.3,3.3,3.6,5.3,4.3,5.9l-1.3,2
		c-0.2-0.1-0.4-0.4-0.6-0.6v7.8c2.1-1.9,4.4-5.2,4.4-10.3V413.5z M93.9,410.3c1.1-1.1,2.4-2.7,3.1-4.1l1.9,1c-1.7,3-2.9,4.1-3.5,4.8
		L93.9,410.3z M102.6,418.3c-1.8-1.9-2.5-3.3-3-4.5c-1.3,2.4-1.9,3.2-3.2,4.5H102.6z M101,420.5h-3.4v5.6h3.4V420.5z M101.7,406.2
		c0.4,0.6,1.6,2.3,3.3,3.8l-1.6,1.7c-0.9-0.8-1.6-1.6-3.5-4.3L101.7,406.2z M103.4,414.7c0.7-0.9,2.6-3.2,3.2-8.7l2.2,0.5
		c-0.2,1.3-0.4,2-0.7,3.4h6.1v2.4c-0.6,3.1-1.7,4.8-2.2,5.5l-1.8-1.4c0.8-1.2,1.6-2.8,1.8-4.2h-4.7c-0.8,2-1.4,3-2.3,4.1
		L103.4,414.7z"/>
	<path class="st4" d="M123.7,422.5c-1.6,1.2-4.9,3.3-7.2,4.6l-1-2.4c2.3-1,6-3.4,7.5-4.4L123.7,422.5z M135,414.8
		c-1.4,1.9-2.9,3.6-4.6,5.2c2.1,2.7,4.3,4.2,5.7,5.1l-1.4,2.4c-5.6-4.2-7-7.5-7.9-9.9v8.8c0,1.4-0.6,2.4-2.1,2.4H121l-0.4-2.5h3.4
		c0.5,0,0.5-0.3,0.5-0.6v-13.2h-8.9V410h8.9v-3.8h2.2v3.8h4.9c-1.5-1.3-2.7-1.9-3.3-2.1l1.3-1.8c1.9,0.9,3.6,2.2,3.9,2.4l-1.1,1.5
		h3.2v2.4h-9c0,0.7,0.8,3.2,2.3,5.6c1.5-1.4,2.8-3,3.9-4.7L135,414.8z M118.7,413.5c1.1,1,2.7,2.9,3.5,4.3l-1.8,1.6
		c-1-1.6-2.1-3.1-3.4-4.4L118.7,413.5z"/>
</g>
<line class="st3" x1="4" y1="220.9" x2="634.9" y2="220.9"/>
<line class="st3" x1="4" y1="342" x2="634.9" y2="342"/>
<g>
	<path class="st5" d="M187.4,64.5c5.4-2,8.3-5.1,10.3-11.6l2,0.5c-2,6-4.7,10.2-11.3,12.7L187.4,64.5z"/>
	<path class="st5" d="M208.5,57.4c-1-0.7-2.6-1.6-5-2.4l0.9-1.6c2.7,0.8,4.3,1.8,5.1,2.3L208.5,57.4z M203.8,63.8
		c6.4-0.5,9.6-3.5,11.4-9.6l1.6,1.1c-0.9,2.6-3.2,9.7-12.6,10.4L203.8,63.8z"/>
	<path class="st5" d="M232.6,63.1v1.8H219v-1.8h7.7c0.7-2.9,1-5.1,1.2-7.4H221v-1.8h9c-0.2,3.1-0.7,6.1-1.3,9.2H232.6z"/>
	<path class="st5" d="M248.7,58.4v1.9H235v-1.9H248.7z"/>
	<path class="st5" d="M255.2,61.4h-1.8v-4h-2.5v-1.7h2.5v-3h1.8v3h4.8v-3h1.6l0.1,3h2.9v1.7h-2.8v1.9c0,2.7-0.7,6.2-7.2,7.1
		l-0.7-1.7c6-0.5,6-3.9,6-5.4v-1.8h-4.8V61.4z M262.9,51.5c0.4,1.1,0.6,2,0.8,3.3l-1.2,0.3c-0.1-1.4-0.3-2-0.7-3.3L262.9,51.5z
		 M265.1,51.2c0.4,1.1,0.6,2,0.8,3.3l-1.2,0.3c-0.2-1.4-0.3-2.1-0.8-3.3L265.1,51.2z"/>
	<path class="st5" d="M280.7,58.4v1.9H267v-1.9H280.7z"/>
</g>
<g>
	<path class="st5" d="M372.5,41.1c-0.5,4-2.4,5.6-4.9,6.9l-1.2-1.4c2.8-1.2,3.5-2.5,3.9-3.8h-11.1v-1.7H372.5z M359.3,52.7
		c4.4-1.8,4.9-4.8,4.9-8.3l1.9,0c-0.1,3.2-0.4,7.3-5.6,9.7L359.3,52.7z"/>
	<path class="st5" d="M374.4,48.4c0.6-0.7,3.2-3.9,3.7-4.6c0.6-0.7,1.2-1.1,1.9-1.1c0.7,0,1.3,0.3,2.3,1.3l6.9,7.1l-1.4,1.6
		l-6.8-7.4c-0.3-0.3-0.6-0.6-1-0.6c-0.3,0-0.6,0.3-0.8,0.5c-0.6,0.7-3,4-3.5,4.7L374.4,48.4z M384.9,41.5c0.9,0.9,1.5,1.8,2.1,2.8
		l-1.1,0.9c-0.7-1.2-1.2-2-2-2.9L384.9,41.5z M387.1,40.2c0.8,0.8,1.4,1.7,2.1,2.8l-1.1,0.9c-0.7-1.2-1.1-1.9-2-2.9L387.1,40.2z"/>
	<path class="st5" d="M394.6,51.9c4-0.5,6.9-2.1,8.6-7.5l1.6,1c-2,5.4-4.8,8.2-12.1,8.5V40.8h1.9V51.9z"/>
	<path class="st5" d="M420.7,46.4v1.9H407v-1.9H420.7z"/>
	<path class="st5" d="M428,48.1c-2-1.1-3.8-1.7-4.6-1.9l0.7-1.5c1.5,0.4,3.3,1,4.7,1.8L428,48.1z M424.3,52
		c6.1-0.6,8.8-2.7,10.6-8.4l1.6,1.1c-2.2,6.1-5.3,8.4-11.7,9.2L424.3,52z M429.3,44.3c-1.5-0.8-2.8-1.3-4.7-1.8l0.7-1.5
		c1.6,0.4,3.2,1,4.8,1.7L429.3,44.3z M433.6,39.6c0.6,1,1,1.7,1.5,3.1l-1.2,0.6c-0.4-1.3-0.7-2-1.4-3.1L433.6,39.6z M436.3,39.5
		c0.7,1.1,1,2,1.4,3.1l-1.2,0.6c-0.4-1.3-0.6-1.9-1.3-3.2L436.3,39.5z"/>
	<path class="st5" d="M380.6,72.1v1.8H367v-1.8h7.7c0.7-2.9,1-5.1,1.2-7.4H369v-1.8h9c-0.2,3.1-0.7,6.1-1.3,9.2H380.6z"/>
	<path class="st5" d="M396.7,67.4v1.9H383v-1.9H396.7z"/>
	<path class="st5" d="M403.2,70.4h-1.8v-4h-2.5v-1.7h2.5v-3h1.8v3h4.8v-3h1.6l0.1,3h2.9v1.7h-2.8v1.9c0,2.7-0.7,6.2-7.2,7.1
		l-0.7-1.7c6-0.5,6-3.9,6-5.4v-1.8h-4.8V70.4z M410.9,60.5c0.4,1.1,0.6,2,0.8,3.3l-1.2,0.3c-0.1-1.4-0.3-2-0.7-3.3L410.9,60.5z
		 M413.1,60.2c0.4,1.1,0.6,2,0.8,3.3l-1.2,0.3c-0.2-1.4-0.3-2.1-0.8-3.3L413.1,60.2z"/>
	<path class="st5" d="M428.7,67.4v1.9H415v-1.9H428.7z"/>
</g>
<g>
	<path class="st5" d="M515.7,51.2h5.7V53h-13.3v-1.8h5.7v-7.7H509v-1.7h11.6v1.7h-4.9V51.2z"/>
	<path class="st5" d="M525.1,52.5c4.6-0.9,8.7-3.5,9.6-9.6h-5.3c-1.1,1.7-2.2,3-4.1,4.3l-1.1-1.3c1.9-1.2,3.1-2.7,4.1-4.6h8.6
		c-0.7,8.3-5.4,11.7-11,12.9L525.1,52.5z"/>
	<path class="st5" d="M551.4,41.3c-0.7,3.3-1.9,5.2-3,6.6c0.9,0.7,2.9,2.3,5.3,4.7l-1.5,1.5c-0.8-0.8-2.1-2.3-4.9-4.8
		c-2.2,2.4-4.4,3.9-6.4,4.8l-1-1.5c1.9-0.8,6.7-3.2,9.1-9.5h-8.2v-1.7H551.4z"/>
	<path class="st5" d="M568.3,49.7c-1.1-0.7-3.3-2.1-6.8-3.4v7.8h-1.9V40.5h1.9v4c3.6,1.1,6.3,2.6,7.7,3.4L568.3,49.7z"/>
	<path class="st5" d="M575.7,49.6h-1.9V41h1.9V49.6z M583.6,47.5c0,5.4-4.4,6.3-8.5,6.6l-0.6-1.7c4.2-0.2,7.2-0.9,7.2-4.7v-6.9h1.9
		V47.5z"/>
	<path class="st5" d="M601.7,46.4v1.9H588v-1.9H601.7z"/>
	<path class="st5" d="M604.1,51.7c0,0,1.3,0,1.5,0c1.9-4.9,3-9.4,3.4-11l1.9,0.3c-1.4,5.3-2.8,8.8-3.5,10.6c2.8-0.1,4.5-0.2,7.3-0.5
		c-0.9-1.6-1.2-2.2-2.5-4.2l1.5-0.8c1.8,2.4,2.9,4.3,4,7.1l-1.8,0.8c-0.2-0.5-0.3-0.7-0.6-1.4c-3.2,0.4-5.9,0.7-11.1,0.8L604.1,51.7
		z"/>
	<path class="st5" d="M545.6,72.1v1.8H532v-1.8h7.7c0.7-2.9,1-5.1,1.2-7.4H534v-1.8h9c-0.2,3.1-0.7,6.1-1.3,9.2H545.6z"/>
	<path class="st5" d="M561.7,67.4v1.9H548v-1.9H561.7z"/>
	<path class="st5" d="M568.2,70.4h-1.8v-4h-2.5v-1.7h2.5v-3h1.8v3h4.8v-3h1.6l0.1,3h2.9v1.7h-2.8v1.9c0,2.7-0.7,6.2-7.2,7.1
		l-0.7-1.7c6-0.5,6-3.9,6-5.4v-1.8h-4.8V70.4z M575.9,60.5c0.4,1.1,0.6,2,0.8,3.3l-1.2,0.3c-0.1-1.4-0.3-2-0.7-3.3L575.9,60.5z
		 M578.1,60.2c0.4,1.1,0.6,2,0.8,3.3l-1.2,0.3c-0.2-1.4-0.3-2.1-0.8-3.3L578.1,60.2z"/>
	<path class="st5" d="M593.7,67.4v1.9H580v-1.9H593.7z"/>
</g>
<line class="st6" x1="319.7" y1="88.5" x2="319.7" y2="28.5"/>
<line class="st6" x1="476.7" y1="88.5" x2="476.7" y2="28.5"/>
</svg>
