<?xml version="1.0" encoding="utf-8"?>
<!-- Generator: Adobe Illustrator 26.5.2, SVG Export Plug-In . SVG Version: 6.00 Build 0)  -->
<svg version="1.1" id="レイヤー_1" xmlns="http://www.w3.org/2000/svg" xmlns:xlink="http://www.w3.org/1999/xlink" x="0px"
	 y="0px" viewBox="0 0 640 410" style="enable-background:new 0 0 640 410;" xml:space="preserve">
<style type="text/css">
	.st0{opacity:0.107;enable-background:new    ;}
	.st1{fill:#64C8C8;}
	.st2{fill:#5A96DC;}
	.st3{fill:#6E6E6E;}
	.st4{fill:none;stroke:#64C8C8;stroke-width:2;stroke-miterlimit:10;}
	.st5{fill:none;stroke:#5A96DC;stroke-width:2;stroke-miterlimit:10;}
</style>
<g class="st0">
	<polygon class="st1" points="428.7,27.3 339.3,217.6 518.1,217.6 	"/>
	<polygon class="st2" points="595.9,383.3 518.1,217.6 339.3,217.6 261.5,383.3 	"/>
</g>
<g>
	<path class="st1" d="M54,109.8v20.9h-4.2v-20.9H54z"/>
	<path class="st1" d="M83.7,115.8c1.2,1.3,1.9,3,1.9,5.2v9.8h-4.2v-9.2c0-1.3-0.3-2.3-1-3s-1.6-1-2.7-1s-2,0.3-2.7,1s-1,1.7-1,3v9.2
		h-4.2v-9.2c0-1.3-0.3-2.3-1-3s-1.6-1-2.7-1c-1.2,0-2.1,0.3-2.7,1c-0.7,0.7-1,1.7-1,3v9.2h-4.2v-16.6h4.2v2c0.5-0.7,1.2-1.2,2.1-1.6
		c0.8-0.4,1.8-0.6,2.8-0.6c1.3,0,2.5,0.3,3.5,0.8c1,0.6,1.8,1.3,2.4,2.4c0.5-1,1.3-1.7,2.4-2.3c1-0.6,2.1-0.9,3.3-0.9
		C80.8,113.9,82.4,114.5,83.7,115.8z"/>
	<path class="st1" d="M89.5,117.9c0.7-1.3,1.6-2.3,2.7-3s2.4-1,3.9-1c1.2,0,2.3,0.2,3.3,0.8s1.7,1.1,2.2,1.9v-2.4h4.2v16.6h-4.2
		v-2.4c-0.5,0.8-1.3,1.4-2.2,1.9s-2,0.8-3.3,0.8c-1.4,0-2.7-0.4-3.8-1.1c-1.2-0.7-2.1-1.7-2.7-3c-0.7-1.3-1-2.8-1-4.5
		C88.5,120.7,88.8,119.2,89.5,117.9z M101,119.8c-0.4-0.7-0.9-1.3-1.6-1.7c-0.7-0.4-1.4-0.6-2.2-0.6s-1.5,0.2-2.2,0.6
		s-1.2,0.9-1.6,1.7s-0.6,1.6-0.6,2.6s0.2,1.9,0.6,2.6s1,1.3,1.6,1.7c0.7,0.4,1.4,0.6,2.1,0.6c0.8,0,1.5-0.2,2.2-0.6s1.2-1,1.6-1.7
		c0.4-0.7,0.6-1.6,0.6-2.6C101.6,121.4,101.4,120.6,101,119.8z"/>
	<path class="st1" d="M119.7,114.6c0.9,0.5,1.7,1.1,2.2,1.9v-2.4h4.2v16.7c0,1.5-0.3,2.9-0.9,4.1c-0.6,1.2-1.5,2.2-2.8,2.9
		s-2.7,1.1-4.5,1.1c-2.4,0-4.3-0.6-5.8-1.7c-1.5-1.1-2.4-2.6-2.6-4.5h4.2c0.2,0.8,0.7,1.4,1.4,1.8c0.7,0.4,1.6,0.7,2.7,0.7
		c1.2,0,2.2-0.4,3-1.1c0.8-0.7,1.1-1.8,1.1-3.3v-2.6c-0.5,0.8-1.3,1.4-2.2,2c-1,0.5-2,0.8-3.3,0.8c-1.4,0-2.7-0.4-3.8-1.1
		c-1.2-0.7-2.1-1.7-2.7-3c-0.7-1.3-1-2.8-1-4.5c0-1.7,0.3-3.2,1-4.5c0.7-1.3,1.6-2.3,2.7-3s2.4-1,3.9-1
		C117.6,113.9,118.7,114.1,119.7,114.6z M121.3,119.8c-0.4-0.7-0.9-1.3-1.6-1.7c-0.7-0.4-1.4-0.6-2.2-0.6s-1.5,0.2-2.2,0.6
		s-1.2,0.9-1.6,1.7s-0.6,1.6-0.6,2.6s0.2,1.9,0.6,2.6s1,1.3,1.6,1.7c0.7,0.4,1.4,0.6,2.1,0.6c0.8,0,1.5-0.2,2.2-0.6s1.2-1,1.6-1.7
		c0.4-0.7,0.6-1.6,0.6-2.6C121.9,121.4,121.7,120.6,121.3,119.8z"/>
	<path class="st1" d="M145.6,123.7h-12.2c0.1,1.2,0.5,2.1,1.3,2.8c0.7,0.7,1.7,1,2.7,1c1.6,0,2.7-0.7,3.3-2h4.5
		c-0.5,1.6-1.4,2.9-2.8,3.9c-1.4,1-3,1.5-5,1.5c-1.6,0-3-0.4-4.3-1.1c-1.3-0.7-2.3-1.7-3-3s-1.1-2.8-1.1-4.5c0-1.7,0.3-3.2,1-4.5
		s1.7-2.3,2.9-3c1.3-0.7,2.7-1,4.3-1c1.6,0,3,0.3,4.2,1c1.2,0.7,2.2,1.6,2.9,2.9c0.7,1.2,1,2.7,1,4.3
		C145.7,122.7,145.6,123.2,145.6,123.7z M141.3,120.9c0-1.1-0.4-1.9-1.2-2.6c-0.8-0.6-1.7-1-2.8-1c-1,0-1.9,0.3-2.6,0.9
		s-1.1,1.5-1.3,2.6H141.3z"/>
</g>
<g>
	<path class="st2" d="M59.2,288.5v3.4h-8.7v5.4h6.7v3.3h-6.7v8.8h-4.2v-20.9H59.2z"/>
	<path class="st2" d="M62.1,296.6c0.7-1.3,1.6-2.3,2.7-3s2.4-1,3.9-1c1.2,0,2.3,0.2,3.3,0.8s1.7,1.1,2.2,1.9v-2.4h4.2v16.6h-4.2V307
		c-0.5,0.8-1.3,1.4-2.2,1.9s-2,0.8-3.3,0.8c-1.4,0-2.7-0.4-3.8-1.1c-1.2-0.7-2.1-1.7-2.7-3c-0.7-1.3-1-2.8-1-4.5
		C61.1,299.4,61.4,297.9,62.1,296.6z M73.6,298.5c-0.4-0.7-0.9-1.3-1.6-1.7c-0.7-0.4-1.4-0.6-2.2-0.6s-1.5,0.2-2.2,0.6
		s-1.2,0.9-1.6,1.7s-0.6,1.6-0.6,2.6s0.2,1.9,0.6,2.6s1,1.3,1.6,1.7c0.7,0.4,1.4,0.6,2.1,0.6c0.8,0,1.5-0.2,2.2-0.6s1.2-1,1.6-1.7
		c0.4-0.7,0.6-1.6,0.6-2.6C74.2,300.1,74,299.2,73.6,298.5z"/>
	<path class="st2" d="M82.5,296.6c0.7-1.3,1.7-2.3,2.9-3c1.2-0.7,2.7-1.1,4.3-1.1c2.1,0,3.8,0.5,5.1,1.5c1.3,1,2.3,2.5,2.7,4.3H93
		c-0.2-0.7-0.6-1.3-1.2-1.7c-0.6-0.4-1.3-0.6-2.1-0.6c-1.2,0-2.1,0.4-2.8,1.3s-1,2.1-1,3.7c0,1.6,0.3,2.8,1,3.7s1.7,1.3,2.8,1.3
		c1.7,0,2.8-0.8,3.3-2.3h4.5c-0.5,1.8-1.4,3.2-2.7,4.3c-1.4,1.1-3.1,1.6-5.1,1.6c-1.6,0-3-0.4-4.3-1.1c-1.2-0.7-2.2-1.7-2.9-3
		s-1-2.8-1-4.5C81.4,299.4,81.8,297.9,82.5,296.6z"/>
	<path class="st2" d="M105.5,296.3v8c0,0.6,0.1,1,0.4,1.2c0.3,0.2,0.7,0.4,1.4,0.4h1.9v3.5h-2.6c-3.5,0-5.3-1.7-5.3-5.2v-8h-2v-3.5
		h2v-4.1h4.2v4.1h3.7v3.5H105.5z"/>
</g>
<g>
	<g>
		<path class="st3" d="M404.6,334.1h-7.5v0.9h6v3.5h-6v0.8h6.4v2.2h1.2v1.5h-1.2v2.2h-6.4v1.3c0,0.9-0.5,1.8-1.6,1.8h-3.3l-0.3-1.8
			h2.7c0.5,0,0.6-0.1,0.6-0.6v-0.8h-6.5v-1.3h6.5v-0.9h-7.6v-1.4h7.6v-0.9h-6.4v-1.4h6.4v-0.8h-5.9v-3.5h5.9v-0.9h-7.4v-1.5h7.4
			v-1.2h1.8v1.2h7.5V334.1z M395.3,336.2h-4v1h4V336.2z M401.3,336.2h-4.1v1h4.1V336.2z M401.6,340.6h-4.5v0.9h4.5V340.6z
			 M401.6,342.9h-4.5v0.9h4.5V342.9z"/>
		<path class="st3" d="M415,337.5v1.2h6v1.5h-6.1c-0.1,0.4-0.1,0.8-0.3,1.3h8v1.7h-6.3c1.5,1.9,4.2,2.7,6.3,3.1l-0.7,1.9
			c-4.3-1-6.6-3.2-7.5-5h-0.3c-0.6,1.4-1.9,3.8-7.6,5l-0.7-1.9c1.2-0.2,3.5-0.6,5.3-1.9c0.5-0.3,0.8-0.8,1-1.2h-6.2v-1.7h6.9
			c0.1-0.3,0.2-0.6,0.3-1.3h-5.6v-1.5h5.8v-1.2h-4.7v-1.6h4.7v-1.1h1.8v1.1h4.9v1.6H415z M413.3,331.4h2v1.3h7v3.9h-1.9v-2.2h-12.3
			v2.2h-1.8v-3.9h7V331.4z"/>
		<path class="st3" d="M434.4,339.8c0,1.2-0.9,2.1-2.1,2.1c-1.2,0-2.1-1-2.1-2.1c0-1.2,1-2.1,2.1-2.1
			C433.4,337.7,434.4,338.7,434.4,339.8z"/>
		<path class="st3" d="M443.9,336.7c-0.2,1.8-0.5,2.8-0.7,3.2l-1.6-0.7c0.6-2.1,0.8-4.1,0.8-6.6l1.7,0.1c0,0.6,0,1.2-0.1,2.2h0.8
			v-3.6h1.8v3.6h1.5v1.7h-1.5v4c0.5-0.1,0.8-0.3,1.5-0.5l0.1,1.8c-0.4,0.2-0.7,0.3-1.6,0.6v5.8h-1.8v-5.2c-0.7,0.2-2.3,0.7-2.9,0.8
			l-0.3-1.9c0.6-0.1,1.5-0.3,3.2-0.8v-4.5H443.9z M452.6,331.4h1.9v1.6h3.6v1.8h-3.6v2.1h4.2v1.8H457v1.7h1.6v1.7H457v3.7
			c0,2.3-0.4,2.4-2.1,2.4h-2.3l-0.3-1.9h2.2c0.6,0,0.6-0.3,0.6-0.8v-3.4h-6.5v-1.7h6.5v-1.7h-6.6v-1.8h4.1v-2.1h-3.6V333h3.6V331.4z
			 M450.6,342.4c0.8,0.7,2.1,2.3,2.2,2.6l-1.6,1.1c-0.3-0.5-1.1-1.5-2.3-2.7L450.6,342.4z"/>
		<path class="st3" d="M463.6,332c-0.6,1.4-1.7,3-3.2,4.1l-0.9-1.8c1.1-0.8,2-2.1,2.5-2.9L463.6,332z M469.4,346.9
			c0.3-0.2,0.6-0.4,1.1-0.8c-1.2,0.3-5.4,0.8-6.7,1l-0.1-1.8c0.1,0,2.4-0.3,2.6-0.3v-2.2h-2.3v-1.5h2.3v-1.6h-2.5v-1.6h6l-0.2-0.2
			c0.3-0.3,0.5-0.6,0.9-1.2h-6.6c-0.2,0.4-0.4,0.9-0.8,1.7v9.9h-1.8v-7.2c-0.5,0.6-0.8,0.9-1.1,1.2l-0.6-2.3c1.4-1.2,2.5-3.4,3-4.7
			l1.3,0.6v-3.6h1.6v2.8h1.1v-3.8h1.6v3.8h1.1v-2.8h1.6v3.8c1-1.8,1.4-3.9,1.5-4.7l1.7,0.2c-0.1,0.5-0.3,1.4-0.7,2.9h3.4v1.8h-0.5
			c-0.2,3.6-0.6,5.7-1.5,7.5c0.8,1.4,1.6,2.1,2.2,2.6l-1,1.8c-0.5-0.5-1.3-1.3-2.2-2.8c-1.2,1.6-2.3,2.4-3,2.9L469.4,346.9z
			 M470.6,338.8v0.9h-2.5v1.6h2.4v1.5h-2.4v2c0.5-0.1,2.5-0.3,2.8-0.4v1.4c1-0.9,1.6-1.7,1.9-2.1c-0.7-1.6-1.1-3.4-1.2-5.2
			c-0.2,0.3-0.3,0.4-0.5,0.7L470.6,338.8z M472.9,336.2c0.1,3,0.6,4.6,0.8,5.4c0.4-1.1,0.7-2.8,0.8-5.4H472.9z"/>
	</g>
</g>
<g>
	<g>
		<path class="st3" d="M396.9,265.2c-0.7-0.8-1.7-1.3-2-1.5c-0.3,2.2-0.9,3.1-1.5,4l-1.3-1.3c1.1-1.4,1.2-2.5,1.3-5.2h-0.6v-1.3
			l-0.7,1.2c-0.3-0.5-0.5-0.9-0.8-1.8v8.5h-1.7v-7.1c-0.3,1.2-0.5,1.8-1.1,3.2l-0.9-2.4c1-1.7,1.6-3.6,1.9-5.5h-1.7v-1.7h1.8v-3.3
			h1.7v3.3h1.2v1.7h-1.2v0.6c0.2,0.5,0.6,1.6,1.7,3h4.9c-0.3-2.1-0.6-5.3-0.6-8.7h1.8c0,0.8,0,1.3,0,2.4l0.9-1
			c0.2,0.2,0.2,0.2,0.3,0.3c0.4-0.5,0.7-1,1-1.7l1.3,0.5c-0.3,0.5-0.6,1.1-1.5,2.1c0.2,0.2,0.4,0.4,0.6,0.7c0.7-1,1-1.4,1.2-1.7
			l1.2,0.6c-1.2,1.7-1.4,1.9-3,3.7c1,0,1.4-0.1,1.9-0.1c-0.2-0.4-0.2-0.6-0.4-0.9l1.2-0.4c0.7,1.4,0.9,2.3,1,2.8l-1.3,0.5
			c-0.1-0.5-0.2-0.6-0.2-0.8c-0.5,0.1-1,0.1-1.4,0.1c0.4,0.2,0.5,0.3,1.3,0.9l-0.7,0.8h2.1v1.6H400c0.2,0.9,0.4,1.7,0.6,2.2
			c0.9-0.9,1.2-1.4,1.5-1.9l1.6,0.7c-0.3,0.6-1,1.7-2.4,2.9c0.2,0.4,0.6,0.9,1.1,0.9s0.9-1.3,1.1-2.1l1.4,1.2
			c-0.6,2.1-1.3,2.6-2.4,2.6c-1.3,0-2-0.5-2.6-1.6c-1.6,1-2.7,1.3-3.5,1.5l-0.7-1.6c0.7-0.2,1.9-0.5,3.4-1.5c-0.3-0.7-0.7-1.9-1-3.4
			h-3.1c0,0.4,0,0.7,0,1c1.4,0.5,2.2,1.1,2.8,1.5L396.9,265.2z M392.4,256.9c0.3-0.4,0.7-0.8,1.4-1.7c-0.3-0.3-1-1.2-1.9-2l1-1.1
			c0.2,0.1,0.3,0.2,0.4,0.3c0.4-0.5,0.7-1,1.1-1.7l1.4,0.5c-0.3,0.5-0.7,1.2-1.5,2.1c0.2,0.2,0.4,0.4,0.6,0.7
			c0.6-0.8,0.9-1.2,1.2-1.7l1.2,0.7c-1.1,1.6-3,3.7-3.1,3.8c0.5,0,1.1,0,1.6-0.1c-0.1-0.3-0.2-0.5-0.3-0.8l1.2-0.4
			c0.5,1,0.7,1.9,0.9,2.7l-1.3,0.5c0-0.3-0.1-0.5-0.1-0.8c-0.1,0-3.4,0.3-3.7,0.3l-0.2-1.4H392.4z M400.9,255.1
			c-0.6-0.8-1.2-1.3-1.8-1.8c0,0.8,0.1,2.4,0.2,3.4h0.2C400.3,255.8,400.7,255.3,400.9,255.1z M401.1,257.8c-0.2,0-1.6,0.1-1.7,0.1
			c0.1,0.6,0.2,1.3,0.2,1.6h2.4c-0.6-0.5-0.9-0.6-1.5-1L401.1,257.8z"/>
		<path class="st3" d="M412.9,256.2c-0.1-0.3-0.2-0.5-0.5-1.2c-1.1,0.2-4.3,0.6-6.5,0.7l-0.1-1.6c0.5,0,0.6,0,1.2,0
			c0.5-1.1,1-2.3,1.2-3.3l1.8,0.2c-0.3,0.9-0.5,1.4-1.3,3c0.2,0,2-0.1,3-0.2c-0.4-0.7-0.7-1.1-1-1.6l1.5-0.8c1.5,2.1,2,2.9,2.4,4
			L412.9,256.2z M406.5,256.7h6.9v9.5c0,1.2-1,1.5-1.4,1.5h-2.3l-0.3-1.8h1.9c0.2,0,0.4-0.1,0.4-0.3v-1.4h-3.5v3.5h-1.7V256.7z
			 M408.3,258.3v1.5h3.5v-1.5H408.3z M408.3,261.2v1.5h3.5v-1.5H408.3z M417.1,250.8v2.5c0.6-0.2,2.7-1,4.2-1.9l1,1.5
			c-1.2,0.7-3.2,1.6-5.2,2.1v1.7c0,0.1,0,0.4,0.5,0.4h2.5c0.5,0,0.8,0,0.8-2.1l1.7,0.5c-0.1,2.4-0.5,3.2-2,3.2h-3.8
			c-1.6,0-1.7-1.2-1.7-1.5v-6.4H417.1z M415.3,259.2h1.8v2.4c0.8-0.3,2.8-1.2,4-2l1,1.5c-1.6,1-3.7,1.8-5.1,2.2v2
			c0,0.4,0.3,0.5,0.5,0.5h2.5c0.6,0,0.6,0,0.8-2.4l1.7,0.5c-0.3,3-0.5,3.6-2.2,3.6h-3.6c-1.6,0-1.6-1.3-1.6-1.7V259.2z"/>
		<path class="st3" d="M435,251c-0.1,0.7-0.2,1.2-0.6,2.3h5.9c0,3.5-0.1,7.7-0.2,9c-0.3,4.7-0.7,5.4-3,5.4h-2.8l-0.3-1.9h2.9
			c0.6,0,1.1,0,1.2-1.1c0.4-2.5,0.4-7,0.4-9.5h-4.7c-0.8,1.9-1.4,2.7-2.2,3.8l-1-0.9v8.6h-6.2v-13.3h1.8c0.3-0.8,0.4-1.3,0.6-2.5
			l1.8,0.1c-0.2,1.1-0.3,1.4-0.7,2.4h2.6v3.6c1.5-1.9,2.2-3.7,2.6-6.2L435,251z M428.7,255H426v3.9h2.7V255z M428.7,260.6H426v4.2
			h2.7V260.6z M434.9,263.2c-0.6-1.8-1.2-3.2-2.3-5l1.6-0.9c1,1.4,1.7,2.7,2.6,4.8L434.9,263.2z"/>
		<path class="st3" d="M445.1,267.7h-1.8v-8.4c-0.3,0.5-0.5,0.6-0.8,1.1l-0.8-2.2c1.1-1.4,2.1-3.2,2.6-7.4l1.9,0.2
			c-0.2,1.8-0.5,3-1,4.7V267.7z M458.7,253.1h-3.9v3h3.4v11.2h-11.6v-11.2h3.3v-3h-3.5v-1.7h12.4V253.1z M449.8,257.8h-1.6v7.8h1.6
			V257.8z M453.1,253.1h-1.6v3h1.6V253.1z M453.1,257.8h-1.6v7.8h1.6V257.8z M456.4,257.8h-1.6v7.8h1.6V257.8z"/>
		<path class="st3" d="M462.9,267.7h-1.8v-8.5c-0.3,0.4-0.4,0.6-0.9,1.3l-0.9-2.4c0.6-0.8,2-2.6,2.7-7.2l1.9,0.1
			c-0.4,2.1-0.6,3-1.1,4.3V267.7z M471.3,250.8v1.3h5.4v1.5h-5.4v1.2h4.5v9.8h-8.4v-9.8h2.1v-1.2h-5.1v-1.5h5.1v-1.3H471.3z
			 M476.7,267.3h-12.3v-12.4h1.7v10.9h10.6V267.3z M474.1,256.4h-5.1v1.2h5.1V256.4z M474.1,259.1h-5.1v1.3h5.1V259.1z M474.1,261.7
			h-5.1v1.4h5.1V261.7z"/>
	</g>
</g>
<g>
	<g>
		<path class="st3" d="M387.6,177.2c0.5-1.2,0.6-3,0.5-4.4h1.4c0.1,3.4-0.2,4.5-0.5,5.2L387.6,177.2z M392.4,174.7
			c-0.1-0.3-0.2-0.8-0.6-1.7v13H390V169h1.9v3.4l1.1-0.5c0.3,0.7,0.6,1.4,0.8,2.2L392.4,174.7z M404.4,171.5h-4.5v1h4.2v1.3h-4.2
			v0.9h4.9v1.4h-11.5v-1.4h4.8v-0.9h-4v-1.3h4v-1h-4.5v-1.5h4.5v-1h1.8v1h4.5V171.5z M403.9,177v7c0,1.7-0.3,1.9-2,1.9H400l-0.4-1.6
			h2.1c0.4,0,0.4-0.2,0.4-0.6v-0.8h-6.4v3.1h-1.7v-9H403.9z M395.8,178.4v0.9h6.4v-0.9H395.8z M395.8,180.6v1h6.4v-1H395.8z"/>
		<path class="st3" d="M405.6,184.2c0.6-1.9,0.6-4.4,0.6-4.8l1.5,0.3c-0.1,1.7-0.2,3.4-0.6,5.1L405.6,184.2z M412.4,176v-1.7h3.6
			v-2.1h-2.8v-1.6h2.8V169h1.7v1.5h2.2v1.4c0.3-0.6,0.6-1.2,1.1-2.6l1.6,0.8c-0.7,1.7-1.4,2.9-2.3,4.1h2.3v1.7H419
			c-0.5,0.5-0.9,0.8-1.7,1.4h4.6v8.2h-8.3v-6c-0.1,0-0.5,0.3-0.8,0.4l-0.9-1.5l-0.6,0.2c-0.1-0.3-0.1-0.4-0.2-0.6
			c-0.5,0.1-0.8,0.1-1.2,0.1v7.7h-1.7v-7.6c-0.5,0-2.3,0.2-2.6,0.2l-0.1-1.6c0.8,0,0.9,0,1.1,0c0.4-0.5,0.6-0.7,1.1-1.6
			c-0.2-0.2-1.1-1.3-2.3-2.3l0.9-1.4c0.3,0.3,0.4,0.3,0.5,0.4c0.8-1.4,1-1.6,1.6-2.9l1.6,0.6c-0.5,1.2-1.2,2.2-2,3.5
			c0.2,0.2,0.3,0.3,0.7,0.7c1.3-2.1,1.5-2.4,1.7-2.9l1.6,0.7c-0.7,1.2-0.9,1.5-3.5,5.1c0.3,0,1.7-0.1,2-0.1
			c-0.2-0.5-0.3-0.7-0.5-1.1l1.4-0.5c0.2,0.5,0.7,1.4,1.2,3.1c1.4-0.6,2.7-1.2,3.9-2.2H412.4z M411,183.8c0-1.7-0.3-3.6-0.4-4.1
			l1.4-0.2c0.4,1.7,0.5,3.5,0.5,4L411,183.8z M420.2,178.9h-4.9v1.7h4.9V178.9z M420.2,182.1h-4.9v2h4.9V182.1z M418.4,174.4
			c0.7-0.9,0.9-1.2,1.5-2.1h-2.1v2.1H418.4z"/>
		<path class="st3" d="M435,169.3c-0.1,0.7-0.2,1.2-0.6,2.3h5.9c0,3.5-0.1,7.7-0.2,9c-0.3,4.7-0.7,5.4-3,5.4h-2.8l-0.3-1.9h2.9
			c0.6,0,1.1,0,1.2-1.1c0.4-2.5,0.4-7,0.4-9.5h-4.7c-0.8,1.9-1.4,2.7-2.2,3.8l-1-0.9v8.6h-6.2v-13.3h1.8c0.3-0.8,0.4-1.3,0.6-2.5
			l1.8,0.1c-0.2,1.1-0.3,1.4-0.7,2.4h2.6v3.6c1.5-1.9,2.2-3.7,2.6-6.2L435,169.3z M428.7,173.3H426v3.9h2.7V173.3z M428.7,178.9H426
			v4.2h2.7V178.9z M434.9,181.5c-0.6-1.8-1.2-3.2-2.3-5l1.6-0.9c1,1.4,1.7,2.7,2.6,4.8L434.9,181.5z"/>
		<path class="st3" d="M445.1,186h-1.8v-8.4c-0.3,0.5-0.5,0.6-0.8,1.1l-0.8-2.2c1.1-1.4,2.1-3.2,2.6-7.4l1.9,0.2
			c-0.2,1.8-0.5,3-1,4.7V186z M458.7,171.4h-3.9v3h3.4v11.2h-11.6v-11.2h3.3v-3h-3.5v-1.7h12.4V171.4z M449.8,176h-1.6v7.8h1.6V176z
			 M453.1,171.4h-1.6v3h1.6V171.4z M453.1,176h-1.6v7.8h1.6V176z M456.4,176h-1.6v7.8h1.6V176z"/>
		<path class="st3" d="M462.9,185.9h-1.8v-8.5c-0.3,0.4-0.4,0.6-0.9,1.3l-0.9-2.4c0.6-0.8,2-2.6,2.7-7.2l1.9,0.1
			c-0.4,2.1-0.6,3-1.1,4.3V185.9z M471.3,169.1v1.3h5.4v1.5h-5.4v1.2h4.5v9.8h-8.4v-9.8h2.1v-1.2h-5.1v-1.5h5.1v-1.3H471.3z
			 M476.7,185.6h-12.3v-12.4h1.7V184h10.6V185.6z M474.1,174.6h-5.1v1.2h5.1V174.6z M474.1,177.4h-5.1v1.3h5.1V177.4z M474.1,180
			h-5.1v1.4h5.1V180z"/>
	</g>
</g>
<g>
	<path class="st1" d="M428.7,32l164.1,349.3H264.7L428.7,32 M428.7,27.3l-167.2,356h334.4L428.7,27.3L428.7,27.3z"/>
</g>
<line class="st4" x1="379.9" y1="133.9" x2="476.4" y2="133.9"/>
<line class="st4" x1="340.2" y1="217.6" x2="515.9" y2="217.6"/>
<line class="st4" x1="300.7" y1="302.3" x2="555.9" y2="302.3"/>
<g>
	<g>
		<path class="st3" d="M385.8,90.5c-0.8,1.6-1.6,2.4-2.2,2.9l-1.4-1.4c0.7-0.7,2.4-2.4,3.4-6.7l1.9,0.4c-0.2,0.7-0.4,1.8-0.9,3h3.4
			V85h1.9v3.7h6.7v1.8H392v3.3h6.1v1.8H392v3.7h7.4v1.9h-16.9v-1.9h7.5v-3.7h-6.2v-1.8h6.2v-3.3H385.8z"/>
		<path class="st3" d="M400.3,99.9c1.6-1.8,2.7-4.1,3.3-5.4l1.5,1.2c-1,2.6-2.7,5.1-3.7,6.2L400.3,99.9z M403.3,93.4
			c-1.2-0.9-1.9-1.4-2.9-1.8l0.9-1.6c0.9,0.3,2.2,1.1,3,1.8L403.3,93.4z M404.1,88.4c-1.1-0.9-2.7-1.7-3-1.9l1-1.5
			c1.1,0.5,2.1,1.1,3.1,1.8L404.1,88.4z M412.4,89.8h5v1.7h-5v2.6h4.2v7.5h-10.2v-7.5h4.2v-2.6h-5.1v-1.7h5.1v-2.1
			c-0.5,0-2.2,0.1-4.5,0.1l-0.3-1.7c6.4,0,8.9-0.6,10.5-1l0.6,1.7c-1.4,0.4-2.6,0.6-4.5,0.8V89.8z M414.7,95.7h-6.6v4.2h6.6V95.7z"
			/>
		<path class="st3" d="M429.7,85.3c-0.1,0.7-0.2,1.2-0.6,2.3h5.9c0,3.5-0.1,7.7-0.2,9c-0.3,4.7-0.7,5.4-3,5.4h-2.8l-0.3-1.9h2.9
			c0.6,0,1.1,0,1.2-1.1c0.4-2.5,0.4-7,0.4-9.5h-4.7c-0.8,1.9-1.4,2.7-2.2,3.8l-1-0.9v8.6h-6.2V87.6h1.8c0.3-0.8,0.4-1.3,0.6-2.5
			l1.8,0.1c-0.2,1.1-0.3,1.4-0.7,2.4h2.6v3.6c1.5-1.9,2.2-3.7,2.6-6.2L429.7,85.3z M423.4,89.3h-2.7v3.9h2.7V89.3z M423.4,94.9h-2.7
			v4.2h2.7V94.9z M429.6,97.5c-0.6-1.8-1.2-3.2-2.3-5l1.6-0.9c1,1.4,1.7,2.7,2.6,4.8L429.6,97.5z"/>
		<path class="st3" d="M439.7,102h-1.8v-8.4c-0.3,0.5-0.5,0.6-0.8,1.1l-0.8-2.2c1.1-1.4,2.1-3.2,2.6-7.4l1.9,0.2
			c-0.2,1.8-0.5,3-1,4.7V102z M453.4,87.4h-3.9v3h3.4v11.2h-11.6V90.4h3.3v-3H441v-1.7h12.4V87.4z M444.5,92h-1.6v7.8h1.6V92z
			 M447.8,87.4h-1.6v3h1.6V87.4z M447.8,92h-1.6v7.8h1.6V92z M451.1,92h-1.6v7.8h1.6V92z"/>
		<path class="st3" d="M457.6,101.9h-1.8v-8.5c-0.3,0.4-0.4,0.6-0.9,1.3l-0.9-2.4c0.6-0.8,2-2.6,2.7-7.2l1.9,0.1
			c-0.4,2.1-0.6,3-1.1,4.3V101.9z M466,85.1v1.3h5.4v1.5H466v1.2h4.5v9.8h-8.4v-9.8h2.1v-1.2h-5.1v-1.5h5.1v-1.3H466z M471.4,101.6
			h-12.3V89.2h1.7V100h10.6V101.6z M468.8,90.6h-5.1v1.2h5.1V90.6z M468.8,93.4h-5.1v1.3h5.1V93.4z M468.8,96h-5.1v1.4h5.1V96z"/>
	</g>
</g>
<polyline class="st4" points="213.7,198.6 186.4,198.6 186.4,29.9 213.7,29.9 "/>
<polyline class="st5" points="213.7,381.9 186.4,381.9 186.4,213.2 213.7,213.2 "/>
</svg>
