<svg xmlns="http://www.w3.org/2000/svg" xmlns:xlink="http://www.w3.org/1999/xlink" width="640" height="370" viewBox="0 0 640 370">
  <defs>
    <clipPath id="clip-path">
      <rect id="長方形_2548" data-name="長方形 2548" width="640" height="370" transform="translate(0 0.189)" fill="none"/>
    </clipPath>
  </defs>
  <g id="service_img05" transform="translate(0 -0.189)">
    <g id="グループ_3068" data-name="グループ 3068" clip-path="url(#clip-path)">
      <path id="パス_2570" data-name="パス 2570" d="M381.864,204.822l-195.085-1.239a8.928,8.928,0,0,1-8.908-8.892V77.993A8.929,8.929,0,0,1,186.9,69.1L381.979,70.34a8.929,8.929,0,0,1,8.91,8.892v116.7a8.93,8.93,0,0,1-9.024,8.892" transform="translate(-0.389 -0.151)" fill="#95e9f1" opacity="0.107"/>
      <path id="パス_2571" data-name="パス 2571" d="M619.769,204.822l-195.085-1.239a8.928,8.928,0,0,1-8.909-8.892V77.993A8.929,8.929,0,0,1,424.8,69.1L619.884,70.34a8.929,8.929,0,0,1,8.909,8.892v116.7a8.93,8.93,0,0,1-9.024,8.892" transform="translate(-0.909 -0.151)" fill="#95e9f1" opacity="0.162"/>
      <path id="パス_2572" data-name="パス 2572" d="M619.769,361.2l-195.085-1.239a8.928,8.928,0,0,1-8.909-8.892v-116.7a8.929,8.929,0,0,1,9.024-8.892l195.084,1.239a8.929,8.929,0,0,1,8.909,8.892v116.7a8.93,8.93,0,0,1-9.024,8.892" transform="translate(-0.909 -0.493)" fill="#95e9f1" opacity="0.327"/>
      <path id="パス_2573" data-name="パス 2573" d="M381.864,361.2l-195.085-1.239a8.928,8.928,0,0,1-8.908-8.892v-116.7a8.929,8.929,0,0,1,9.024-8.892l195.084,1.239a8.929,8.929,0,0,1,8.91,8.892v116.7a8.93,8.93,0,0,1-9.024,8.892" transform="translate(-0.389 -0.493)" fill="#5ed2e1" opacity="0.539"/>
      <rect id="長方形_2545" data-name="長方形 2545" width="166.199" height="369.191" transform="translate(0.499 0.499)" fill="#f0f0eb"/>
      <rect id="長方形_2546" data-name="長方形 2546" width="472.402" height="56.698" transform="translate(166.698 0.499)" fill="#f0f0eb"/>
      <rect id="長方形_2547" data-name="長方形 2547" width="638.601" height="369.191" transform="translate(0.499 0.499)" fill="none" stroke="#000" stroke-miterlimit="10" stroke-width="1"/>
      <line id="線_53" data-name="線 53" y2="369.191" transform="translate(166.698 0.499)" fill="#fff"/>
      <line id="線_54" data-name="線 54" y2="369.191" transform="translate(166.698 0.499)" fill="none" stroke="#000" stroke-miterlimit="10" stroke-width="1"/>
      <line id="線_55" data-name="線 55" y2="369.191" transform="translate(639.1 0.499)" fill="#fff"/>
      <line id="線_56" data-name="線 56" y2="369.191" transform="translate(639.1 0.499)" fill="none" stroke="#000" stroke-miterlimit="10" stroke-width="1"/>
      <line id="線_57" data-name="線 57" x2="638.601" transform="translate(0.499 57.855)" fill="#fff"/>
      <line id="線_58" data-name="線 58" x2="638.601" transform="translate(0.499 57.855)" fill="none" stroke="#000" stroke-miterlimit="10" stroke-width="1"/>
      <path id="パス_2574" data-name="パス 2574" d="M58.08,133.584a25.947,25.947,0,0,1,2.539,2.316,14.4,14.4,0,0,0,.815-3.5h-4.87v-1.628H59.6v-2.428h1.692v2.428h2.8V132.4H63.16a21.081,21.081,0,0,1-1.309,4.807,20.273,20.273,0,0,1,2.331,3.131l-1.374,1.07a21.662,21.662,0,0,0-1.74-2.539,14.142,14.142,0,0,1-3.642,4.153l-1.149-1.47a12.282,12.282,0,0,0,3.609-4.072,20.459,20.459,0,0,0-3.034-2.779Zm7.412.75a19.608,19.608,0,0,1,2.139,4.249l-1.644.8a20.2,20.2,0,0,0-2.029-4.233Zm4.695-5.989V131.3H71.53v1.709H70.187v8.864c0,1.23-.671,1.454-1.9,1.454H65.842l-.43-1.629h2.508c.511,0,.542-.064.542-.4v-8.289h-3.88V131.3h3.88v-2.955Z" transform="translate(-0.123 -0.28)"/>
      <path id="パス_2575" data-name="パス 2575" d="M72.18,135.005a11.639,11.639,0,0,0,3.194-6.676l1.613.08a16.457,16.457,0,0,1-.384,1.9h4.553c-.528,5.8-2.4,9.63-7.538,13.128L72.435,142a14.723,14.723,0,0,0,4.871-4.44,14.954,14.954,0,0,0-2.748-2.763,8.2,8.2,0,0,1-1.277,1.518Zm3.9-3.115a15.733,15.733,0,0,1-.734,1.612,16.916,16.916,0,0,1,2.794,2.619,14.054,14.054,0,0,0,1.23-4.232Zm6.069.688a9.491,9.491,0,0,0,1.245,1.677v-5.926H85.1v7.443a14.972,14.972,0,0,0,2.715,1.5l-.527,1.886A14.321,14.321,0,0,1,85.1,137.9v5.4H83.391v-6.787a12.179,12.179,0,0,1-2.491-3.051Z" transform="translate(-0.158 -0.28)"/>
      <path id="パス_2576" data-name="パス 2576" d="M98.467,128.52a14.663,14.663,0,0,1-.526,2.045h5.223c0,3.083-.063,6.788-.144,7.954-.273,4.169-.609,4.793-2.7,4.793H97.813l-.3-1.709h2.539c.575,0,.959-.016,1.1-.99a74.428,74.428,0,0,0,.384-8.465H97.35a13.281,13.281,0,0,1-1.981,3.338l-.926-.766v7.634H88.932V130.564H90.56a10.15,10.15,0,0,0,.544-2.219l1.629.128a10.751,10.751,0,0,1-.591,2.091h2.3v3.227a11.883,11.883,0,0,0,2.349-5.495Zm-5.589,3.594H90.5v3.433h2.38Zm0,4.919H90.5v3.753h2.38Zm5.558,2.316a18.315,18.315,0,0,0-2.077-4.392l1.423-.8a18.1,18.1,0,0,1,2.266,4.3Z" transform="translate(-0.194 -0.28)"/>
      <path id="パス_2577" data-name="パス 2577" d="M58.08,291.524a25.947,25.947,0,0,1,2.539,2.316,14.4,14.4,0,0,0,.815-3.5h-4.87v-1.628H59.6v-2.428h1.692v2.428h2.8v1.628H63.16a21.081,21.081,0,0,1-1.309,4.807,20.272,20.272,0,0,1,2.331,3.131l-1.374,1.07a21.665,21.665,0,0,0-1.74-2.539,14.142,14.142,0,0,1-3.642,4.153l-1.149-1.47a12.282,12.282,0,0,0,3.609-4.072,20.459,20.459,0,0,0-3.034-2.779Zm7.412.75a19.609,19.609,0,0,1,2.139,4.249l-1.644.8a20.2,20.2,0,0,0-2.029-4.233Zm4.695-5.989v2.955H71.53v1.709H70.187v8.864c0,1.23-.671,1.454-1.9,1.454H65.842l-.43-1.629h2.508c.511,0,.542-.064.542-.4v-8.289h-3.88V289.24h3.88v-2.955Z" transform="translate(-0.123 -0.626)"/>
      <path id="パス_2578" data-name="パス 2578" d="M74.994,295.708a8.888,8.888,0,0,0,3-2.859,7.313,7.313,0,0,0,1.15-2.715H74.977v11.117H73.285v-12.73H79.21v-2.252h1.678v2.252h5.86v11.308a1.3,1.3,0,0,1-1.47,1.422H82.613l-.224-1.693h2.235c.193,0,.415,0,.415-.335v-3.4l-.99,1.422a9.91,9.91,0,0,1-3.993-5.143,12.282,12.282,0,0,1-4.04,5.079Zm10.045-5.574h-4.12c.145,1.518,1.261,3.8,4.12,5.638Z" transform="translate(-0.16 -0.626)"/>
      <path id="パス_2579" data-name="パス 2579" d="M98.467,286.461a14.664,14.664,0,0,1-.526,2.045h5.223c0,3.083-.063,6.788-.144,7.954-.273,4.169-.609,4.793-2.7,4.793H97.813l-.3-1.709h2.539c.575,0,.959-.016,1.1-.99a74.428,74.428,0,0,0,.384-8.465H97.35a13.282,13.282,0,0,1-1.981,3.338l-.926-.766v7.634H88.932V288.505H90.56a10.15,10.15,0,0,0,.544-2.219l1.629.128a10.752,10.752,0,0,1-.591,2.091h2.3v3.227a11.883,11.883,0,0,0,2.349-5.495Zm-5.589,3.594H90.5v3.433h2.38Zm0,4.919H90.5v3.753h2.38Zm5.558,2.316a18.315,18.315,0,0,0-2.077-4.392l1.423-.8a18.1,18.1,0,0,1,2.266,4.3Z" transform="translate(-0.194 -0.626)"/>
      <path id="パス_2580" data-name="パス 2580" d="M265.864,24.851a12,12,0,0,1-4.12,4.6l-.991-1.581a9.234,9.234,0,0,0,3.642-3.626Zm.463,3.371a21.1,21.1,0,0,1-1.676,2.811v8.417h-1.757V33.172a13.008,13.008,0,0,1-1.438,1.309l-.7-1.916a14.483,14.483,0,0,0,4.105-5.08Zm9.791,1.325v1.645h-2.46v6.836c0,1.277-.591,1.421-1.709,1.421h-2.875l-.3-1.708h2.666c.352,0,.511-.048.511-.432V31.192h-5.622V29.546Zm-.622-2.795H267V25.107h8.5Z" transform="translate(-0.57 -0.053)"/>
      <path id="パス_2581" data-name="パス 2581" d="M300.772,38.523c-2.908.351-5.51.463-7.507.543l-.16-1.469c.927,0,1.932,0,3.609-.1v-.958h-3.242V35.249h3.242v-.735h-3.146V28.892h3.146v-.718h-3.609V26.88h3.609v-.686c-1.517.064-2.46.064-3.242.064l-.192-1.246a32.346,32.346,0,0,0,7.554-.575l.527,1.246a14.584,14.584,0,0,1-3.21.431v.766h3.593v1.294h-3.593v.718h3.226v5.622h-3.226v.735h3.418v1.293h-3.418v.878c1.613-.095,2.523-.192,3.4-.287.7-1.149,1.676-2.907,1.772-7.906h-1.294V27.615h1.294V24.436h1.612v3.179h2.828c-.016,1.9-.064,9.295-.559,10.653a1.5,1.5,0,0,1-1.741,1.119H303.95l-.27-1.629h1.309c.591,0,.686-.287.734-.416a76.528,76.528,0,0,0,.415-8.113h-1.2c-.128,6.309-1.581,8.624-2.907,10.159Zm-5.8-7.411h1.74V30.074h-1.74Zm0,2.188h1.74V32.2h-1.74Zm3.178-2.188h1.821V30.074h-1.821Zm0,2.188h1.821V32.2h-1.821Z" transform="translate(-0.641 -0.053)"/>
      <path id="パス_2582" data-name="パス 2582" d="M513.183,39.035H500.6V25.108h12.585Zm-10.908-9.918h9.2V26.69h-9.2Zm0,4.041h9.2V30.587h-9.2Zm0,4.28h9.2V34.675h-9.2Z" transform="translate(-1.094 -0.055)"/>
      <path id="パス_2583" data-name="パス 2583" d="M541.349,24.644a14.837,14.837,0,0,1-.527,2.045h5.223c0,3.083-.064,6.788-.144,7.954-.272,4.169-.608,4.792-2.7,4.792h-2.508l-.3-1.709h2.539c.575,0,.959-.016,1.1-.99a74.421,74.421,0,0,0,.383-8.465h-4.185a13.253,13.253,0,0,1-1.98,3.338l-.927-.766v7.634h-5.51V26.688h1.628a10.153,10.153,0,0,0,.544-2.219l1.628.128a10.679,10.679,0,0,1-.591,2.091h2.3v3.227a11.884,11.884,0,0,0,2.349-5.495Zm-5.59,3.594h-2.38v3.433h2.38Zm0,4.919h-2.38V36.91h2.38Zm5.558,2.316a18.313,18.313,0,0,0-2.076-4.392l1.422-.8a18.055,18.055,0,0,1,2.267,4.3Z" transform="translate(-1.162 -0.053)"/>
      <line id="線_59" data-name="線 59" y2="369.191" transform="translate(402.899 0.499)" fill="#fff"/>
      <line id="線_60" data-name="線 60" y2="369.191" transform="translate(402.899 0.499)" fill="none" stroke="#000" stroke-miterlimit="10" stroke-width="1"/>
      <line id="線_61" data-name="線 61" x2="638.601" transform="translate(0.499 213.773)" fill="#fff"/>
      <line id="線_62" data-name="線 62" x2="638.601" transform="translate(0.499 213.773)" fill="none" stroke="#000" stroke-miterlimit="10" stroke-width="1"/>
      <line id="線_63" data-name="線 63" x2="638.601" transform="translate(0.499 369.69)" fill="#fff"/>
      <line id="線_64" data-name="線 64" x2="638.601" transform="translate(0.499 369.69)" fill="none" stroke="#000" stroke-miterlimit="10" stroke-width="1"/>
      <path id="パス_2584" data-name="パス 2584" d="M255.657,114.413a5.669,5.669,0,0,1,2.444.352,2.941,2.941,0,0,1,1.709,2.875,2.844,2.844,0,0,1-1.6,2.731,3.194,3.194,0,0,1,2.027,3.082c0,3.546-3.21,3.546-4.375,3.546h-4.2V114.413Zm-2.491,1.374v3.992h2.844c.43,0,2.331,0,2.331-1.98,0-2.013-1.676-2.013-2.715-2.013Zm0,5.334v4.5h2.57c1.5,0,2.987-.176,2.987-2.283a2.23,2.23,0,0,0-2.523-2.221Z" transform="translate(-0.55 -0.25)"/>
      <path id="パス_2585" data-name="パス 2585" d="M269.668,117.6v9.407h-1.436v-1.245a3.535,3.535,0,0,1-2.957,1.5,2.9,2.9,0,0,1-2.7-1.5,6.009,6.009,0,0,1-.4-2.86v-5.3H263.6v5.3c0,1.486,0,3.05,2.029,3.05.446,0,2.6-.112,2.6-3.05v-5.3Z" transform="translate(-0.573 -0.257)"/>
      <path id="パス_2586" data-name="パス 2586" d="M277.237,119.243a3.85,3.85,0,0,0-2.091-.575c-.894,0-1.918.319-1.918,1.342,0,.958.529,1.134,2.284,1.676,1.055.335,2.684.847,2.684,2.732,0,2.155-2.124,2.842-3.8,2.842a6.508,6.508,0,0,1-3.051-.75l.479-1.229a5.278,5.278,0,0,0,2.6.671c.335,0,2.332,0,2.332-1.518,0-1.054-1.07-1.357-2-1.629-1.47-.415-2.955-.894-2.955-2.747,0-1.74,1.534-2.714,3.323-2.714a5.576,5.576,0,0,1,2.475.591Z" transform="translate(-0.593 -0.256)"/>
      <path id="パス_2587" data-name="パス 2587" d="M281.789,116.17h-1.676v-1.757h1.676ZM281.679,127h-1.454v-9.407h1.454Z" transform="translate(-0.612 -0.25)"/>
      <path id="パス_2588" data-name="パス 2588" d="M284.241,127.006V117.6h1.421v1.244a3.5,3.5,0,0,1,2.956-1.5,2.887,2.887,0,0,1,2.7,1.5,6.1,6.1,0,0,1,.415,2.861v5.3h-1.439v-5.3c0-1.47,0-3.05-2.029-3.05-.446,0-2.6.128-2.6,3.05v5.3Z" transform="translate(-0.621 -0.256)"/>
      <path id="パス_2589" data-name="パス 2589" d="M295.069,122.821a3.044,3.044,0,0,0,3.37,3.13,5.29,5.29,0,0,0,2.957-.83v1.533a7.082,7.082,0,0,1-2.957.607c-3.8,0-4.775-2.842-4.775-4.9,0-3.049,1.885-5.014,4.313-5.014a3.881,3.881,0,0,1,3.721,2.539,8.036,8.036,0,0,1,.448,2.939Zm5.623-1.278a2.763,2.763,0,0,0-2.779-2.875,2.852,2.852,0,0,0-2.827,2.875Z" transform="translate(-0.642 -0.256)"/>
      <path id="パス_2590" data-name="パス 2590" d="M309.222,119.243a3.858,3.858,0,0,0-2.093-.575c-.894,0-1.916.319-1.916,1.342,0,.958.527,1.134,2.284,1.676,1.055.335,2.684.847,2.684,2.732,0,2.155-2.124,2.842-3.8,2.842a6.506,6.506,0,0,1-3.049-.75l.479-1.229a5.271,5.271,0,0,0,2.6.671c.335,0,2.331,0,2.331-1.518,0-1.054-1.071-1.357-2-1.629-1.47-.415-2.955-.894-2.955-2.747,0-1.74,1.532-2.714,3.321-2.714a5.567,5.567,0,0,1,2.475.591Z" transform="translate(-0.663 -0.256)"/>
      <path id="パス_2591" data-name="パス 2591" d="M317.222,119.243a3.858,3.858,0,0,0-2.093-.575c-.894,0-1.916.319-1.916,1.342,0,.958.527,1.134,2.284,1.676,1.055.335,2.684.847,2.684,2.732,0,2.155-2.124,2.842-3.8,2.842a6.506,6.506,0,0,1-3.049-.75l.479-1.229a5.271,5.271,0,0,0,2.6.671c.335,0,2.331,0,2.331-1.518,0-1.054-1.071-1.357-2-1.629-1.47-.415-2.955-.894-2.955-2.747,0-1.74,1.532-2.714,3.321-2.714a5.567,5.567,0,0,1,2.475.591Z" transform="translate(-0.68 -0.256)"/>
      <path id="パス_2592" data-name="パス 2592" d="M283.959,146.737H277.25v.91h5.336v3.082H277.25v.831h5.7v1.981h1.1v1.087h-1.1v2.044h-5.7v1.261a1.249,1.249,0,0,1-1.39,1.406h-2.6l-.191-1.294,2.364.017c.448,0,.528-.177.528-.512v-.878h-5.815v-1.006h5.815v-1.055h-6.772v-1.038h6.772v-1.039h-5.766v-.974h5.766v-.831h-5.3v-3.082h5.3v-.91h-6.613v-1.087h6.613v-1.134h1.292v1.134h6.708Zm-8,1.853h-3.993v1.2h3.993Zm5.3,0H277.25v1.2h4.009Zm.368,3.944H277.25v1.039h4.377Zm.015,2.076H277.25v1.055h4.392Z" transform="translate(-0.588 -0.316)"/>
      <path id="パス_2593" data-name="パス 2593" d="M299.223,159.083a14.155,14.155,0,0,1-5.955-3.434v3.657h-1.279v-3.642a14.694,14.694,0,0,1-5.973,3.387L285.3,157.9a13.812,13.812,0,0,0,5.733-2.844h-5.764v-1.086h6.723v-1.166h-5.607v-1.022h5.607v-1.118h-6.022v-1.055H289.4a11.086,11.086,0,0,0-.462-1.534h-3.674v-1.086h2.6a16.383,16.383,0,0,0-1.007-2.029l1.294-.431a11.729,11.729,0,0,1,1.054,2.46h1.325v-2.444h1.245v2.444h1.709v-2.444h1.23v2.444H296a17.344,17.344,0,0,0,1.07-2.46l1.31.431a14.21,14.21,0,0,1-1.039,2.029h2.667v1.086h-3.722c-.207.719-.223.783-.478,1.534h3.561v1.055h-6.1v1.118h5.669v1.022h-5.669v1.166h6.738v1.086H294.24a12.873,12.873,0,0,0,5.751,2.827Zm-4.726-9.471a10.213,10.213,0,0,0,.446-1.534H290.28c.129.447.367,1.2.464,1.534Z" transform="translate(-0.623 -0.316)"/>
      <path id="パス_2594" data-name="パス 2594" d="M496.894,114.413l3.594,11.244,3.577-11.244h2.364L508.09,127h-1.5l-1.47-11.308L501.51,127h-2.06l-3.61-11.308L494.371,127h-1.5l1.661-12.585Z" transform="translate(-1.077 -0.25)"/>
      <path id="パス_2595" data-name="パス 2595" d="M511.249,116.17h-1.677v-1.757h1.677ZM511.138,127h-1.453v-9.407h1.453Z" transform="translate(-1.114 -0.25)"/>
      <path id="パス_2596" data-name="パス 2596" d="M518.842,119.243a3.854,3.854,0,0,0-2.092-.575c-.894,0-1.917.319-1.917,1.342,0,.958.528,1.134,2.284,1.676,1.055.335,2.684.847,2.684,2.732,0,2.155-2.124,2.842-3.8,2.842a6.508,6.508,0,0,1-3.05-.75l.479-1.229a5.274,5.274,0,0,0,2.6.671c.335,0,2.332,0,2.332-1.518,0-1.054-1.071-1.357-2-1.629-1.47-.415-2.955-.894-2.955-2.747,0-1.74,1.533-2.714,3.322-2.714a5.572,5.572,0,0,1,2.475.591Z" transform="translate(-1.121 -0.256)"/>
      <path id="パス_2597" data-name="パス 2597" d="M526.842,119.243a3.854,3.854,0,0,0-2.092-.575c-.894,0-1.917.319-1.917,1.342,0,.958.528,1.134,2.284,1.676,1.055.335,2.684.847,2.684,2.732,0,2.155-2.124,2.842-3.8,2.842a6.507,6.507,0,0,1-3.05-.75l.479-1.229a5.275,5.275,0,0,0,2.6.671c.335,0,2.332,0,2.332-1.518,0-1.054-1.071-1.357-2-1.629-1.47-.415-2.955-.894-2.955-2.747,0-1.74,1.533-2.714,3.322-2.714a5.572,5.572,0,0,1,2.475.591Z" transform="translate(-1.139 -0.256)"/>
      <path id="パス_2598" data-name="パス 2598" d="M531.394,116.17h-1.677v-1.757h1.677ZM531.283,127H529.83v-9.407h1.453Z" transform="translate(-1.158 -0.25)"/>
      <path id="パス_2599" data-name="パス 2599" d="M537.948,117.343a4.97,4.97,0,1,1-4.632,4.967,4.646,4.646,0,0,1,4.632-4.967m0,8.608c1.374,0,3.211-.894,3.211-3.641s-1.837-3.642-3.2-3.642-3.21.879-3.21,3.642c0,2.747,1.852,3.641,3.194,3.641" transform="translate(-1.166 -0.256)"/>
      <path id="パス_2600" data-name="パス 2600" d="M544.517,127.006V117.6h1.421v1.244a3.494,3.494,0,0,1,2.956-1.5,2.886,2.886,0,0,1,2.7,1.5,6.1,6.1,0,0,1,.415,2.861v5.3H550.57v-5.3c0-1.47,0-3.05-2.029-3.05-.447,0-2.6.128-2.6,3.05v5.3Z" transform="translate(-1.19 -0.256)"/>
      <path id="パス_2601" data-name="パス 2601" d="M510.479,159.4h-1.294v-8.385a7.49,7.49,0,0,1-1.2,1.6l-.672-1.469a13.341,13.341,0,0,0,2.8-6.691l1.342.208a18.848,18.848,0,0,1-.975,3.641Zm7.076-10.748h4.137v4.871h-4.3a8.363,8.363,0,0,1-.9,2.715,15.349,15.349,0,0,0,5.974,1.821l-.591,1.373a16.044,16.044,0,0,1-6.165-2.156,8.527,8.527,0,0,1-4.169,2.124l-.542-1.261a7.229,7.229,0,0,0,3.576-1.661,8.73,8.73,0,0,1-1.9-1.949l1.086-.655a9.437,9.437,0,0,0,1.613,1.6,6.447,6.447,0,0,0,.687-1.949h-3.912v-4.871h4.1v-1.421h-4.679v-1.2h4.679v-1.518h1.294v1.518h4.776v1.2h-4.776Zm-1.294,1.15h-2.843v2.587h2.795c.016-.3.048-.687.048-1.342Zm1.294,1.245c0,.655-.032,1.038-.048,1.342H520.4V149.8h-2.843Z" transform="translate(-1.109 -0.316)"/>
      <path id="パス_2602" data-name="パス 2602" d="M523.235,148.989a15.845,15.845,0,0,0,7.092-4.488h1.262a15.692,15.692,0,0,0,6.979,4.5l-.656,1.277a19.176,19.176,0,0,1-6.979-4.632,19.766,19.766,0,0,1-7.06,4.632Zm6.63,8.88h-5.3v-6.613h5.3Zm-1.246-5.462h-2.811v4.313h2.811Zm-1.39-3.737h7.347v1.165h-7.347Zm5.463,10.669h-1.278v-8.082h5.734v5.224c0,.495,0,1.437-1.294,1.437h-2.013l-.208-1.309,1.74.015c.335,0,.512-.095.512-.463v-3.721h-3.194Z" transform="translate(-1.144 -0.316)"/>
      <path id="パス_2603" data-name="パス 2603" d="M263.333,272.354l4.233,11.291,4.218-11.291h1.66l-4.919,12.585h-1.933l-4.919-12.585Z" transform="translate(-0.572 -0.595)"/>
      <path id="パス_2604" data-name="パス 2604" d="M275.286,276.066a6.045,6.045,0,0,1,3.051-.782,4.225,4.225,0,0,1,3.161,1.181,3.307,3.307,0,0,1,.64,2.4v4.313a3.673,3.673,0,0,0,.35,1.772h-1.5a2.324,2.324,0,0,1-.254-1.166,4.465,4.465,0,0,1-3.37,1.422,2.671,2.671,0,0,1-2.973-2.747c0-2.811,2.859-3.146,4.488-3.338,1.343-.16,1.805-.208,1.805-.974,0-1.087-1.165-1.534-2.364-1.534a5.413,5.413,0,0,0-2.906.879Zm5.431,3.944a6.216,6.216,0,0,1-2,.384c-1.39.176-2.922.447-2.922,2.012a1.477,1.477,0,0,0,1.66,1.518,3.855,3.855,0,0,0,3.259-1.949Z" transform="translate(-0.6 -0.602)"/>
      <path id="パス_2605" data-name="パス 2605" d="M287.715,284.938h-.877c-2.077,0-2.077-1.087-2.077-2.092V271.762h1.454V282.8c0,.415,0,.831.766.831h.734Z" transform="translate(-0.622 -0.594)"/>
      <path id="パス_2606" data-name="パス 2606" d="M296.684,275.539v9.407h-1.438V283.7a3.532,3.532,0,0,1-2.955,1.5,2.9,2.9,0,0,1-2.7-1.5,6,6,0,0,1-.4-2.86v-5.3h1.421v5.3c0,1.486,0,3.05,2.029,3.05.448,0,2.6-.112,2.6-3.05v-5.3Z" transform="translate(-0.632 -0.602)"/>
      <path id="パス_2607" data-name="パス 2607" d="M300.021,280.761a3.044,3.044,0,0,0,3.37,3.13,5.293,5.293,0,0,0,2.957-.83v1.533a7.083,7.083,0,0,1-2.957.607c-3.8,0-4.775-2.842-4.775-4.9,0-3.049,1.885-5.014,4.313-5.014a3.881,3.881,0,0,1,3.721,2.539,8.036,8.036,0,0,1,.448,2.939Zm5.623-1.278a2.764,2.764,0,0,0-2.779-2.875,2.853,2.853,0,0,0-2.828,2.875Z" transform="translate(-0.653 -0.602)"/>
      <path id="パス_2608" data-name="パス 2608" d="M264,317.294h-1.278v-8.145a9.378,9.378,0,0,1-1.039,1.438l-.655-1.47a12.828,12.828,0,0,0,2.6-6.691l1.341.176A16.989,16.989,0,0,1,264,306.45Zm12.074-13.08h-3.513v2.876h2.971v9.885h-9.966V307.09h2.922v-2.876h-3.2V303h10.781Zm-7.586,4.056h-1.676v7.492h1.676Zm2.876-4.056H269.68v2.876h1.678Zm0,4.056H269.68v7.492h1.678Zm2.922,0h-1.725v7.492h1.725Z" transform="translate(-0.57 -0.661)"/>
      <path id="パス_2609" data-name="パス 2609" d="M279.915,317.294h-1.262V309.07a11.882,11.882,0,0,1-1.039,1.518l-.7-1.582a14.262,14.262,0,0,0,2.65-6.517l1.327.128a27.7,27.7,0,0,1-.975,3.642Zm7.283-14.837v1.358h4.87v1.119H287.2v1.292h4.009v8.4h-7.283v-8.4h2v-1.292h-4.633v-1.119h4.633v-1.358Zm4.87,14.535H281.4V306.243h1.229v9.615h9.438Zm-2.06-9.712h-4.9v1.309h4.9Zm0,2.38h-4.9v1.39h4.9Zm0,2.381h-4.9v1.533h4.9Z" transform="translate(-0.605 -0.661)"/>
      <path id="パス_2610" data-name="パス 2610" d="M300.483,303.606v1.039h-2.555a11.459,11.459,0,0,1-.511,1.39h3.355v1.055h-3.865a12.26,12.26,0,0,1-1.12,1.74h1.629a7.986,7.986,0,0,0,.7-1.422l1.133.319a7.623,7.623,0,0,1-.622,1.1h1.852v.959h-2.124v1.389h1.757v.926h-1.757v1.438h1.757v.926h-1.757v1.5h1.9v1.055h-5.973v-6.533c-.369.335-.513.447-.831.7l-.4-1.277a8.567,8.567,0,0,0,2.57-2.827h-2.411v-1.055h2.97a12.815,12.815,0,0,0,.526-1.39H295.5a7.224,7.224,0,0,1-1.007,1.373l-.959-.813a8.373,8.373,0,0,0,1.726-2.859l1.181.3a6.43,6.43,0,0,1-.384.957Zm-3.226,6.182h-1.805v1.39h1.805Zm0,2.315h-1.805v1.437h1.805Zm0,2.364h-1.805v1.5h1.805Zm10.173-2.475h-1.66v3.512c0,.256,0,.4.271.4h.352a.315.315,0,0,0,.351-.255,6.882,6.882,0,0,0,.129-1.805l1.117.255c-.065,2.924-.622,3.034-1.325,3.034h-1.086c-.848,0-1.039-.335-1.039-1.038v-4.1h-.91c-.288,3.034-1.119,4.328-2.555,5.269l-.687-1.134c.688-.415,1.9-1.374,2.044-4.136h-1.071V302.9h6.069Zm-1.229-7.971h-3.64v1.518h3.64Zm0,2.571h-3.64v1.566h3.64Zm0,2.6h-3.64v1.693h3.64Z" transform="translate(-0.64 -0.661)"/>
      <path id="パス_2611" data-name="パス 2611" d="M500.258,272.354l4.232,11.291,4.218-11.291h1.66l-4.919,12.585h-1.932l-4.92-12.585Z" transform="translate(-1.09 -0.595)"/>
      <path id="パス_2612" data-name="パス 2612" d="M513.473,274.11H511.8v-1.757h1.677Zm-.112,10.829h-1.453v-9.407h1.453Z" transform="translate(-1.119 -0.595)"/>
      <path id="パス_2613" data-name="パス 2613" d="M521.065,277.184a3.854,3.854,0,0,0-2.092-.575c-.894,0-1.917.319-1.917,1.342,0,.958.528,1.133,2.284,1.676,1.055.335,2.684.847,2.684,2.732,0,2.155-2.124,2.842-3.8,2.842a6.508,6.508,0,0,1-3.05-.75l.479-1.229a5.275,5.275,0,0,0,2.6.671c.335,0,2.332,0,2.332-1.518,0-1.054-1.071-1.357-2-1.629-1.47-.415-2.955-.894-2.955-2.747,0-1.74,1.533-2.714,3.322-2.714a5.571,5.571,0,0,1,2.475.591Z" transform="translate(-1.126 -0.602)"/>
      <path id="パス_2614" data-name="パス 2614" d="M525.617,274.11H523.94v-1.757h1.677Zm-.113,10.829h-1.453v-9.407H525.5Z" transform="translate(-1.145 -0.595)"/>
      <path id="パス_2615" data-name="パス 2615" d="M532.172,275.283a4.97,4.97,0,1,1-4.632,4.967,4.646,4.646,0,0,1,4.632-4.967m0,8.608c1.374,0,3.211-.894,3.211-3.641s-1.837-3.642-3.2-3.642-3.21.879-3.21,3.642c0,2.747,1.852,3.641,3.194,3.641" transform="translate(-1.153 -0.602)"/>
      <path id="パス_2616" data-name="パス 2616" d="M538.741,284.946v-9.407h1.421v1.245a3.494,3.494,0,0,1,2.956-1.5,2.884,2.884,0,0,1,2.7,1.5,6.1,6.1,0,0,1,.415,2.86v5.3h-1.438v-5.3c0-1.47,0-3.05-2.029-3.05-.447,0-2.6.128-2.6,3.05v5.3Z" transform="translate(-1.177 -0.602)"/>
      <path id="パス_2617" data-name="パス 2617" d="M503.308,302.489v14.774h-1.277V312.3a14.509,14.509,0,0,1-2.428,1.612l-.335-1.5a12.99,12.99,0,0,0,2.763-1.725v-8.193Zm-2.907,5.845a12.218,12.218,0,0,0-1.038-3.465l1.15-.415a13,13,0,0,1,1.085,3.433Zm3.642-4.79a33.738,33.738,0,0,0,8.752-1.166l.767,1.071a42.635,42.635,0,0,1-9.2,1.325Zm10.27,7.475h-2.044v4.9c0,.383,0,1.341-1.518,1.341h-2.3L508.2,315.9l2.2.017c.4,0,.527-.017.527-.495v-4.408h-6.755v-1.246h6.755V308.8h1.342v.975h2.044Zm-8.865-2.2a13.974,13.974,0,0,0-1.038-3.034l1.165-.4a12.119,12.119,0,0,1,1.1,3.1Zm1.773,6.373a13.6,13.6,0,0,0-1.964-2.892l1.053-.719a11.613,11.613,0,0,1,2.076,2.876Zm1.293-6.9a13.144,13.144,0,0,0-.91-3.034l1.246-.368a12.51,12.51,0,0,1,.942,3.082Zm2.252-.224a17.178,17.178,0,0,0,1.837-3.721l1.326.511a28.192,28.192,0,0,1-2.013,3.77Z" transform="translate(-1.091 -0.661)"/>
      <path id="パス_2618" data-name="パス 2618" d="M522.216,304.086v-1.6h1.309v1.6h6.245v1.246h-6.245v4.105h6.788v1.245h-5.925a15.128,15.128,0,0,0,6.164,4.648l-.75,1.262a17.3,17.3,0,0,1-6.277-5.254v5.924h-1.309v-5.845a17.744,17.744,0,0,1-6.117,5.176l-.831-1.2a16.066,16.066,0,0,0,6.18-4.712h-5.925v-1.245h6.692v-4.105h-6.1v-1.246Zm-3.418,5.048a15.722,15.722,0,0,0-1.214-2.892l1.245-.511a14.615,14.615,0,0,1,1.246,2.939Zm6.867-.544a11.755,11.755,0,0,0,1.246-2.795l1.325.431a10.647,10.647,0,0,1-1.357,2.876Z" transform="translate(-1.126 -0.661)"/>
      <path id="パス_2619" data-name="パス 2619" d="M534.3,317.294h-1.277V309.1A8.671,8.671,0,0,1,532,310.507l-.687-1.5a13.779,13.779,0,0,0,2.779-6.6l1.31.208a19.823,19.823,0,0,1-1.1,3.85Zm.687-3.785a11.558,11.558,0,0,0,4.823-2.3c-.239-.3-.382-.448-.479-.559a12.994,12.994,0,0,1-4.024,1.708l-.4-1.038a10.436,10.436,0,0,0,4.521-1.965h-3.4v-2.7c-.177.112-.288.176-.64.367l-.623-1.038a8.431,8.431,0,0,0,3.674-3.561l1.292.224a7.822,7.822,0,0,1-.462.782h4.455v1.054a12.883,12.883,0,0,1-1.1,1.135h3.162v3.737h-3.722a11.773,11.773,0,0,0,.672,1.757,13.137,13.137,0,0,0,2.06-1.438l.91.831a11.311,11.311,0,0,1-2.46,1.565,10.3,10.3,0,0,0,3.1,3.386l-.686,1.214a13.812,13.812,0,0,1-4.632-7.315h-.064a8.733,8.733,0,0,1-.782.7,6.92,6.92,0,0,1,2.06,4.792c0,1.342-.479,2.4-2.14,2.4h-1.534l-.224-1.213,1.6.016c.544,0,1.1-.064,1.1-1.294a6.247,6.247,0,0,0-.08-.926,16.342,16.342,0,0,1-5.719,2.923l-.415-1.006a15.327,15.327,0,0,0,5.846-2.97,4.108,4.108,0,0,0-.351-.767,13.829,13.829,0,0,1-4.951,2.524Zm5.335-6.9h-3.146v1.74h3.146Zm-1.8-2.156a12.911,12.911,0,0,1-1.12,1.166h3.674a8.451,8.451,0,0,0,1.1-1.166Zm6.1,2.156h-3.179v1.74h3.179Z" transform="translate(-1.161 -0.661)"/>
      <path id="パス_2620" data-name="パス 2620" d="M421.883,138.414,398.467,112.67v12.014H377.181v27.46h21.286v12.014Z" transform="translate(-0.824 -0.246)" fill="#aaa"/>
      <path id="パス_2621" data-name="パス 2621" d="M387.018,296.354,410.434,322.1V310.084H431.72v-27.46H410.434V270.611Z" transform="translate(-0.846 -0.591)" fill="#aaa"/>
      <path id="パス_2622" data-name="パス 2622" d="M523.276,234.141l25.744-23.416H537.006V189.439h-27.46v21.286H497.532Z" transform="translate(-1.087 -0.414)" fill="#aaa"/>
      <path id="パス_2623" data-name="パス 2623" d="M285,199.364l-25.744,23.416H271.27v21.286h27.46V222.779h12.014Z" transform="translate(-0.567 -0.436)" fill="#aaa"/>
    </g>
  </g>
</svg>
