<svg xmlns="http://www.w3.org/2000/svg" xmlns:xlink="http://www.w3.org/1999/xlink" width="640" height="279.896" viewBox="0 0 640 279.896"><defs><clipPath id="a"><rect width="640" height="279.896" fill="none"/></clipPath></defs><g clip-path="url(#a)"><path d="M140.2,278.907c-76.482,0-138.7-62.222-138.7-138.7S63.722,1.5,140.2,1.5s138.7,62.223,138.7,138.7-62.222,138.7-138.7,138.7" transform="translate(-0.255 -0.255)" fill="#faf8f7"/><path d="M139.949,2.489a137.459,137.459,0,0,1,97.2,234.658A137.459,137.459,0,1,1,42.75,42.75a136.56,136.56,0,0,1,97.2-40.26m0-2.489A139.948,139.948,0,1,0,279.9,139.949,139.95,139.95,0,0,0,139.949,0" transform="translate(0)" fill="#abd100"/><path d="M574.2,278.907c-76.482,0-138.7-62.222-138.7-138.7S497.721,1.5,574.2,1.5s138.7,62.223,138.7,138.7-62.222,138.7-138.7,138.7" transform="translate(-74.151 -0.255)" fill="#faf8f7"/><path d="M573.948,2.489a137.46,137.46,0,0,1,97.2,234.658,137.459,137.459,0,0,1-194.4-194.4,136.56,136.56,0,0,1,97.2-40.26m0-2.489A139.948,139.948,0,1,0,713.9,139.949,139.949,139.949,0,0,0,573.948,0" transform="translate(-73.896)" fill="#67cbca"/><path d="M144.216,38.542a11.589,11.589,0,0,0,4-4.462l1.812.718a13.671,13.671,0,0,1-4.979,5.676Zm6.194.5a16.965,16.965,0,0,1-1.772,3.5v10.4h-2.031V45.094a7.412,7.412,0,0,1-1.395,1.214l-.9-2.19a13.779,13.779,0,0,0,4.281-5.755Zm3.943,3.386a24.225,24.225,0,0,1-.577,4.74,7.137,7.137,0,0,0,2.229,2.649v-9.5h-5.1V38.363h7.15A24.313,24.313,0,0,0,159.949,34l2.111.658a21.474,21.474,0,0,1-1.772,3.7h3.068v1.951h-5.3v3.326h4.54v1.952h-4.54v4.779h5.516l-.319,2.072h-4.281a6.107,6.107,0,0,1-5.836-3.167A8.877,8.877,0,0,1,150.49,52.9l-1.474-1.594c1.274-1.174,3.166-3.266,3.226-9.021Zm-.8-8.3a21.337,21.337,0,0,1,1.813,3.166l-1.813.937a23.293,23.293,0,0,0-1.812-3.247Z" transform="translate(-24.555 -5.789)" fill="#abd100"/><path d="M169.391,36.161H176.9V34.289h2.011v1.872h7.726v1.971h-7.726v4.78h8.325v1.971h-6.93a17.759,17.759,0,0,0,7.249,5.357l-1.135,1.972a21.052,21.052,0,0,1-7.508-6.174V52.93H176.9V46.039a21.615,21.615,0,0,1-7.289,6.174L168.336,50.3a18.159,18.159,0,0,0,7.229-5.417h-6.851V42.912H176.9v-4.78h-7.508Zm3.7,2.33a15.454,15.454,0,0,1,1.594,3.565l-2.031.678a18,18,0,0,0-1.513-3.466Zm11.691.777a21.417,21.417,0,0,1-1.674,3.386l-1.971-.8a26.588,26.588,0,0,0,1.553-3.287Z" transform="translate(-28.662 -5.838)" fill="#abd100"/><path d="M581.668,49.153A20.416,20.416,0,0,0,584,48.515v-4.9h-1.892V41.664H584v-4.3h-2.091V35.391h6.273v1.971H586.01v4.3h1.832v1.952H586.01v4.222a23.147,23.147,0,0,0,2.171-.856l.438,1.872a35.389,35.389,0,0,1-6.512,2.27Zm7.409-14.12h11.014V46.444h-3.406v3.744c0,.558.1.738.657.738h1.036c.359,0,.438-.139.5-.5a15.051,15.051,0,0,0,.159-2.25l1.853.378c-.1,2.947-.3,4.382-1.633,4.382h-2.928c-.836,0-1.673-.08-1.673-1.733V46.444h-1.314c-.917,4.162-3.007,5.6-6.353,6.752L586.01,51.2c4.68-1.214,5.138-3.823,5.3-4.759h-2.231Zm1.992,3.286h6.991V36.805h-6.991Zm0,3.167h6.991V39.972h-6.991Zm0,3.186h6.991V43.159h-6.991Z" transform="translate(-99.039 -5.965)" fill="#67cbca"/><path d="M608.748,45.29A13.225,13.225,0,0,1,606.8,46.8l-1.056-1.972a15.634,15.634,0,0,0,5.538-6.213h-5.259V36.685h6.074a16.218,16.218,0,0,0,.679-2.469h2.249c-.179.637-.358,1.355-.757,2.469H624.68v1.932H613.467a23.143,23.143,0,0,1-2.649,4.421v9.938h-2.07ZM624,42.82v1.932h-4.82v5.735h5.457v1.932H611.656V50.487h5.5V44.752h-4.819V42.82h4.819v-3.5h2.031v3.5Z" transform="translate(-103.137 -5.826)" fill="#67cbca"/><path d="M78.963,122.809a29.883,29.883,0,0,1-4.507,2.974,23.879,23.879,0,0,0,5.134,1.533l-1.859,3.531c-5.646-1.789-7.806-3.671-8.759-4.484V128.9a83.744,83.744,0,0,1-11.221,1.65l-.441-3.462c1.278-.093,1.417-.093,1.882-.139V110.426h7.365v-1.812h3.531v1.812h7.458v11.128h-.163Zm-4.995-9.316H62.746v1.231H73.968Zm0,3.88H62.746v1.278H73.968Zm-11.221,9.27c2.091-.209,3.648-.395,5.715-.743a14.492,14.492,0,0,1-3.02-4.344H62.746Zm6.435-5.088a7.732,7.732,0,0,0,2.254,2.486,32.844,32.844,0,0,0,3.833-2.486Z" transform="translate(-9.758 -18.493)" fill="#abd100"/><path d="M100.6,123.739a28.062,28.062,0,0,1-3.926-6.923c-.836.023-1.162.023-1.487.023H87.1v-3.508l8.41.046c-.256-.929-.418-1.533-.743-3.206l3.88-.325a21.315,21.315,0,0,0,.651,3.415,41.466,41.466,0,0,0,6.435-.883l.651,3.578a36.786,36.786,0,0,1-5.831.7,19.686,19.686,0,0,0,3.322,5.111Zm-6.784-1.859c-.627.325-2.161,1.069-2.161,2.486,0,1.766,2.323,1.905,5.6,1.905a40.415,40.415,0,0,0,6.319-.372l-.023,3.647c-.79.07-2.486.186-5.436.186-4.414,0-6.133-.372-7.713-1.231a4.527,4.527,0,0,1-2.439-4.066c0-2.834,2.509-4.368,4.019-5.041Z" transform="translate(-14.831 -18.703)" fill="#abd100"/><path d="M129.436,121.311a3.485,3.485,0,1,1-3.485-3.485,3.48,3.48,0,0,1,3.485,3.485" transform="translate(-20.852 -20.062)" fill="#abd100"/><path d="M141.384,109.4h7.109v8.364h-3.3c-.023.279-.116,1.6-.163,1.905h3.787c0,1.278-.139,8.038-.79,9.525a2.41,2.41,0,0,1-2.509,1.6h-3.16l-.6-3.485,2.439.046c.348,0,.6.023.79-.395.3-.674.348-1.51.511-3.973h-4.159a55.653,55.653,0,0,0,.79-8.387h3.206v-1.975h-3.95Zm13.335,6.552c-4.623.209-5.134.232-5.483.232l-.348-3.136c.209,0,1.673-.023,2.044-.023a19.854,19.854,0,0,0,1.859-4.414l3.555.418a41.031,41.031,0,0,1-2.044,3.926c1.58-.023,3.043-.07,4.461-.186a15.77,15.77,0,0,0-1.185-1.882l2.9-1.231a33.486,33.486,0,0,1,3.253,5.924l-3.23,1.347c-.115-.372-.231-.7-.487-1.371-.348.046-.86.116-2.161.209V117.3h4.972v7.6H157.67v2.091c.372-.023.72-.023,1.58-.116a5.63,5.63,0,0,0-.488-1.162l2.927-.72a33.314,33.314,0,0,1,2.021,5.251l-3.392.72c-.07-.418-.139-.72-.3-1.394-2.184.3-7.69.79-10.9.929l-.465-3.16c.86,0,5.088-.163,6.064-.186V124.9h-4.972v-7.6h4.972Zm-1.812,5.948h1.812v-1.719h-1.812Zm4.949,0h1.812v-1.719h-1.812Z" transform="translate(-24.065 -18.493)" fill="#abd100"/><path d="M179.369,127.617c3.623-2.044,4.252-4.066,4.739-5.6a18.728,18.728,0,0,0-3.485-.929c-.813,3.206-2.044,7.643-6.11,7.643a4.088,4.088,0,0,1-4.252-4.414c0-3.485,2.788-6.342,7.388-6.668.209-1.208.418-3.229.441-3.671l-6.435.093v-3.555h10.571c-.441,3.369-.488,3.787-.953,7.225a20.964,20.964,0,0,1,3.555.72c.256-1.882.395-3.369.465-4.577l3.9.3c-.139,1.789-.348,3.74-.651,5.529a13.918,13.918,0,0,1,2.625,1.324l-1.208,3.833c-1.417-.836-1.7-1-2.323-1.324a10.977,10.977,0,0,1-5.878,6.761Zm-5.9-3.508c0,.6.209,1.138,1,1.138.86,0,1.673-.627,2.6-4.344-2.416.163-3.6,1.742-3.6,3.206" transform="translate(-28.99 -18.818)" fill="#abd100"/><path d="M213.436,121.311a3.485,3.485,0,1,1-3.485-3.485,3.481,3.481,0,0,1,3.485,3.485" transform="translate(-35.154 -20.062)" fill="#abd100"/><path d="M225.146,122.461c1.138-.209,3.369-.86,4.3-1.138V116.49H228.4a13.968,13.968,0,0,1-.952,4l-2.416-2.3c.651-2,.952-3.531.976-7.992l2.718.07c0,.953,0,1.928-.047,2.834h.767v-4.344h3.345V113.1h1.441v3.392h-1.441v3.764c.233-.07,1.372-.441,1.511-.488v3.485c-.326.139-.511.232-1.511.6v6.97h-3.345v-5.831c-1.069.348-2.9.929-3.81,1.138Zm11.662,1.045h-2.137v-3.253h7.365v-1.533h-7.527V115.4h4.554v-1.7h-3.833v-3.16h3.833v-1.789h3.508v1.789h4.135v3.16h-4.135v1.7h4.785v3.322H245.52v1.533h1.626v3.253H245.52v4.485c0,1.6-.092,2.834-2.439,2.834h-4.019l-.511-3.043-1.278.767a17.723,17.723,0,0,0-2.695-3.764Zm2.394,3.88h2.161c.674,0,.674-.418.674-.86v-3.02h-4.02a16.641,16.641,0,0,1,2.371,3.183Z" transform="translate(-38.315 -18.517)" fill="#abd100"/><path d="M266.821,128.733c-5.181.767-6.065.906-8.132,1.045l-.232-3.717c.441-.023,2.578-.163,3.066-.186V124.11h-2.695v-2.834h2.695v-1.324h-2.834v-2.532c-.418.743-.65,1.115-.836,1.417v11.942h-3.228v-8.062c-.535.465-.72.627-1.115.929l-.675-4.53a15.023,15.023,0,0,0,3.974-5.134l1.835,1.162v-5.32h2.278v3.02h.975v-4.135h2.58v4.135h.976v-3.02h2.392v4.252a15.521,15.521,0,0,0,1.372-5.46l3.253.279a31.117,31.117,0,0,1-.627,3.183h3.438v3.415h-.464a27.445,27.445,0,0,1-1.743,8.9,18.748,18.748,0,0,0,2.51,2.625L274,130.778a20.59,20.59,0,0,1-2.718-3.276,15.291,15.291,0,0,1-3.253,3.345Zm-8.039-19.306a16.565,16.565,0,0,1-4.878,6.2l-1.07-3.787a9.663,9.663,0,0,0,2.834-3.229Zm.651,6.366c-.209.511-.279.651-.535,1.208h7.273l-.187-.325a9.7,9.7,0,0,0,.79-.883Zm8.131,3.531v.627h-2.9v1.324h2.811v2.834h-2.811v1.533c1.905-.163,2.58-.279,3.183-.372v1.185a9.9,9.9,0,0,0,1.835-2.068,22.38,22.38,0,0,1-1.254-5.2c-.209.209-.373.418-.582.6Zm3.16-3.833c-.07.186-.162.372-.232.558a24.043,24.043,0,0,0,.789,4.786,20.709,20.709,0,0,0,.813-5.343Z" transform="translate(-43.049 -18.493)" fill="#abd100"/><path d="M500.963,127.366a67.326,67.326,0,0,1-6.877,2.021l-.418-3.624c.116-.023,2.3-.534,2.7-.627v-5.111h-2.091v-3.206h2.091v-3.671h-2.37v-3.3h7.62v3.3h-1.905v3.671h1.742v3.206h-1.742V124.3c1.022-.3,1.417-.465,1.905-.627l-.163,3.392h5.6v-1.65h-4.809V122.58h4.809V121h-4.832V109.454h13.126V121h-4.995v1.58h5.227v2.834h-5.227v1.65h5.669v3.183H500.963Zm4.344-13.289h1.905v-1.6h-1.905Zm0,4.042h1.905v-1.742h-1.905Zm4.972-4.042h1.905v-1.6h-1.905Zm0,4.042h1.905v-1.742h-1.905Z" transform="translate(-84.055 -18.636)" fill="#67cbca"/><path d="M527.114,123.474a18.531,18.531,0,0,1-2.6,6.877l-2.788-2.254a13.722,13.722,0,0,0,2.254-5.46Zm.558-8.572a29.811,29.811,0,0,1-4.461,1.811l-1.464-3.6a20.557,20.557,0,0,0,9.363-4.414h3.647a25.136,25.136,0,0,0,9.572,4.623l-1.44,3.415a33.836,33.836,0,0,1-4.53-1.812v.836H527.672Zm3.136,5.575c.465.256.86.441,1.626.929a12.378,12.378,0,0,0,4.228-1.835H523.978v-2.927H541.8v2.927a23.391,23.391,0,0,1-6.435,3.926c.116.093.186.163.441.372l-2.393,2.23a17.551,17.551,0,0,0-4.507-3.369Zm-3.415,3.438h3.345v2.741c0,.279.023.674.6.674h3.183c.72,0,.767-.372.953-1.928l3.345.767c-.441,3-.906,4.344-2.834,4.344h-6.3c-1.278,0-2.3-.534-2.3-2.091Zm7.922-10.757a18,18,0,0,1-2.37-1.882,11.124,11.124,0,0,1-2.3,1.882Zm5.413,9.107a31.3,31.3,0,0,1,3.462,5.948l-3.113,2.068a31.756,31.756,0,0,0-3.253-6.366Z" transform="translate(-88.832 -18.508)" fill="#67cbca"/><path d="M566.1,121.311a3.485,3.485,0,1,1-3.485-3.485,3.48,3.48,0,0,1,3.485,3.485" transform="translate(-95.201 -20.062)" fill="#67cbca"/><path d="M587.7,116.786c-.883.186-1.789.3-2.6.395v2.346a1.775,1.775,0,0,1-1.789,1.975h-3.671l-.465-2.625h2.091a.434.434,0,0,0,.488-.465v-.883c-.651.046-3.253.3-3.485.3l-.232-3.136c.743,0,2.881-.116,3.717-.163v-1.324h-3.671v-2.9h3.671v-1.626h3.345V110.3h2.6v2.9h-2.6v1.045c.511-.046,2.393-.256,2.6-.3Zm10.269,13.475H580.146V122.2h17.819Zm-3.508-5.227h-10.8v2.277h10.8Zm-8.224-5.738A6.589,6.589,0,0,0,588.9,113.6v-4.135a39.672,39.672,0,0,0,9.386-1.022l1.278,2.974a36.649,36.649,0,0,1-7.341.883v1.185h7.806v3.02H597.8v5h-3.3v-5h-2.579c-.395,1.905-1,3.183-3.136,5.39Z" transform="translate(-98.419 -18.465)" fill="#67cbca"/><path d="M608.978,112.141a19.3,19.3,0,0,0-1.417-2.463l3.508-.906a14.8,14.8,0,0,1,1.766,3.369h2.834a18.507,18.507,0,0,0-1.3-2.741l3.531-.813a18.916,18.916,0,0,1,1.51,3.555h2.114a19.287,19.287,0,0,0,1.394-3.462l3.74.813a18.775,18.775,0,0,1-1.324,2.649h2.23v5.738h-2.951v1.255a26.715,26.715,0,0,1-4.809,2.788h8.317v3.16h-9.177V128.4a2.173,2.173,0,0,1-2.254,2.393h-5.018l-.581-3.369h3.346c.627,0,.836-.07.836-.883v-1.464H606v-3.16h9.27V120.76h.906a6.561,6.561,0,0,0,2.161-1.231h-8.805v-1.65h-2.974v-5.738Zm15.124,3.043H610.047v1.278H624.1Z" transform="translate(-103.182 -18.489)" fill="#67cbca"/><path d="M650.1,121.311a3.485,3.485,0,1,1-3.485-3.485,3.481,3.481,0,0,1,3.485,3.485" transform="translate(-109.504 -20.062)" fill="#67cbca"/><path d="M683.629,122.809a29.855,29.855,0,0,1-4.508,2.974,23.9,23.9,0,0,0,5.135,1.533l-1.859,3.531c-5.646-1.789-7.806-3.671-8.759-4.484V128.9a83.765,83.765,0,0,1-11.221,1.65l-.442-3.462c1.278-.093,1.417-.093,1.883-.139V110.426h7.365v-1.812h3.531v1.812h7.458v11.128h-.163Zm-4.995-9.316H667.413v1.231h11.221Zm0,3.88H667.413v1.278h11.221Zm-11.221,9.27c2.091-.209,3.647-.395,5.715-.743a14.491,14.491,0,0,1-3.02-4.344h-2.695Zm6.435-5.088a7.732,7.732,0,0,0,2.254,2.486,32.909,32.909,0,0,0,3.833-2.486Z" transform="translate(-112.712 -18.493)" fill="#67cbca"/><path d="M695.039,116.416c-.325,6.877-1.417,9.618-2.254,11.477l-3.23-2.579a24.263,24.263,0,0,0,1.975-9.27Zm1.371-7.69a42.273,42.273,0,0,1,9.8,2.765l-1.557,3.578A32.815,32.815,0,0,0,695.084,112Zm-.209,6.389h3.623V126.29c0,.581.139.651.582.651h2a.741.741,0,0,0,.743-.465,27.454,27.454,0,0,0,.4-3.764l3.577,1.092c-.58,6.157-1.6,6.691-3.74,6.691h-4.786c-2.092,0-2.393-1.324-2.393-2.532Zm12.592,0a45.732,45.732,0,0,1,3.322,11.872l-3.81.906a44.348,44.348,0,0,0-2.927-11.616Z" transform="translate(-117.408 -18.512)" fill="#67cbca"/><path d="M44.3,46.42-1.061,1.061,1.061-1.061,46.42,44.3Z" transform="translate(295.938 116.716)" fill="#67cbca"/><path d="M1.061,46.42-1.061,44.3,44.3-1.061,46.42,1.061Z" transform="translate(295.938 116.715)" fill="#abd100"/><path d="M49.125,186.6H48.2V180.6a8.407,8.407,0,0,1-.8,1.128l-.489-1.116a9.807,9.807,0,0,0,2-4.846l.953.139a12.51,12.51,0,0,1-.732,2.778Zm8.391-.232H50.159v-10.2h7.357ZM56.61,177H51.066v8.542H56.61Zm-2.348,1.72h1.929v.813H54.262v1.29h1.581v3.813H51.857v-3.813H53.39v-1.29H51.484v-.813H53.39v-1.313h.872Zm.756,2.835H52.693V183.9h2.325Z" transform="translate(-7.986 -29.926)" fill="#646464"/><path d="M68.742,186.345a23.265,23.265,0,0,0-4.625-3.707l.638-.756a27.039,27.039,0,0,1,2.232,1.558,15.9,15.9,0,0,0,3.51-4H65.418a20.167,20.167,0,0,1-3.1,3.475l-.709-.7a16.165,16.165,0,0,0,4.382-5.869l.988.325a15.065,15.065,0,0,1-.953,1.848H71.67v.907a17.075,17.075,0,0,1-3.952,4.591c.209.174.93.767,1.756,1.592Z" transform="translate(-10.489 -30.026)" fill="#646464"/><path d="M81.043,185.156c1.2-.129,4.022-.465,4.022-3.789a3.318,3.318,0,0,0-3.475-3.579c-.1,1.347-.337,4.207-1.534,6.125a2.391,2.391,0,0,1-1.953,1.348c-1.138,0-2.092-1.348-2.092-3.267a5.041,5.041,0,0,1,5.37-5.183c3.765,0,4.777,2.6,4.777,4.568a4.685,4.685,0,0,1-1.557,3.638,6.035,6.035,0,0,1-3.208,1.151Zm-2.405-6.579a4.188,4.188,0,0,0-1.615,3.44c0,.791.29,2.127,1.115,2.127.489,0,.837-.431,1.14-.942a13.469,13.469,0,0,0,1.278-5.369,4.385,4.385,0,0,0-1.918.743" transform="translate(-12.942 -30.105)" fill="#646464"/><path d="M100.595,177.446H95.713v.662H99.6v2.244H95.713v.6h4.149V182.4h.8v.791h-.8v1.488H95.713v.918a.908.908,0,0,1-1.011,1.023H92.808l-.139-.942,1.72.012c.325,0,.383-.128.383-.372v-.639H90.541v-.733h4.231v-.767H89.844v-.756h4.928v-.755h-4.2v-.709h4.2v-.6H90.913v-2.244h3.859v-.662H89.96v-.79h4.812v-.826h.941v.826h4.882Zm-5.823,1.348H91.866v.872h2.906Zm3.858,0H95.713v.872H98.63Zm.267,2.871H95.713v.756H98.9Zm.012,1.511h-3.2v.767h3.2Z" transform="translate(-15.297 -29.938)" fill="#646464"/><path d="M114.31,186.433a10.292,10.292,0,0,1-4.336-2.5v2.661h-.929v-2.649a10.693,10.693,0,0,1-4.347,2.463l-.523-.836a10.066,10.066,0,0,0,4.172-2.069h-4.2v-.791h4.894v-.848h-4.08v-.744h4.08v-.814h-4.382v-.767h2.5a8.025,8.025,0,0,0-.337-1.116h-2.673v-.79h1.9a12.1,12.1,0,0,0-.733-1.476l.943-.314a8.522,8.522,0,0,1,.766,1.791h.965v-1.778h.908v1.778h1.242v-1.778h.9v1.778h.929a12.488,12.488,0,0,0,.779-1.791l.953.314a10.673,10.673,0,0,1-.755,1.476h1.941v.79H112.17c-.15.524-.162.57-.348,1.116h2.593v.767h-4.441v.814H114.1v.744h-4.126v.848h4.905v.791h-4.2a9.369,9.369,0,0,0,4.184,2.057Zm-3.441-6.893a7.444,7.444,0,0,0,.325-1.116H107.8c.093.325.267.872.337,1.116Z" transform="translate(-17.733 -29.94)" fill="#646464"/><path d="M122.613,186.331a53.161,53.161,0,0,0-1.43-6.055,18.89,18.89,0,0,0-1.976.849l-.384-1.07c.337-.1,1.779-.616,2.081-.721-.465-1.464-.512-1.627-.791-2.336l1.07-.291c.151.442.209.628.709,2.29.1-.035,1.186-.407,2.36-.732a11.731,11.731,0,0,0-.942-1.558l.907-.372a8.988,8.988,0,0,1,1.058,1.7,6.033,6.033,0,0,1,.953-.082,2.519,2.519,0,0,1,2.6,2.569c0,1.674-1.325,2.639-3.01,2.639a4.751,4.751,0,0,1-1.72-.325l.116-.988a3.89,3.89,0,0,0,1.546.314,1.8,1.8,0,0,0,2.01-1.708,1.541,1.541,0,0,0-1.685-1.569,13.739,13.739,0,0,0-3.928,1.023c.453,1.546.569,2.01,1.615,6.16Z" transform="translate(-20.232 -30.024)" fill="#646464"/><path d="M139.066,186.035a46.24,46.24,0,0,1-5.347.5l-.081-.86c.453-.012.872-.023,1.72-.07v-1.162a14.707,14.707,0,0,1-2.522.721l-.349-.9a10.3,10.3,0,0,0,4.091-1.313h-3.94v-.8h5.01v-.743h-.7l-.174-.7.826.012c.139,0,.209-.035.209-.221v-.627H136.23v1.674h-.814v-1.674h-1.464v1.615h-.825v-2.255h2.289v-.616H132.6v-.686h2.813v-.674h-1.395a4.321,4.321,0,0,1-.558.627l-.651-.43a4.962,4.962,0,0,0,1.081-1.627l.826.186a4.119,4.119,0,0,1-.267.558h.964v-.743h.814v.743h2.312v.686H136.23v.674h2.778v.686H136.23v.616h2.348v1.36c0,.628-.349.72-.535.779h.57v.778h4.695v.8h-1.429l.7.512a13.7,13.7,0,0,1-1.755,1.255,8.465,8.465,0,0,0,2.6,1.011l-.431.894a7.914,7.914,0,0,1-5.067-3.638,7.826,7.826,0,0,1-1.732,1.1v1.453c.8-.046,2.057-.174,2.871-.29Zm-.187-3.08a4.255,4.255,0,0,0,1.2,1.255,13.162,13.162,0,0,0,1.651-1.255Zm1.674-3.1h-.9v-3.545h.9Zm2.266-4.022v4.823a.777.777,0,0,1-.883.837h-1.348l-.128-.9,1.115.012c.244,0,.3-.058.3-.314v-4.463Z" transform="translate(-22.558 -29.938)" fill="#646464"/><path d="M151.7,186.472h-4.452v-5.067H151.7Zm-3.556-.849H150.8v-3.37h-2.662Zm8.066-5.265h-7.822v-4.08h7.822Zm-6.893-.871h5.974v-2.36h-5.974Zm8,6.985h-4.591v-5.067h4.591Zm-3.7-.849h2.8v-3.37h-2.8Z" transform="translate(-25.071 -30.014)" fill="#646464"/><path d="M163.23,187.769a16.774,16.774,0,0,0-1.931-2.405l.884-.651a18.26,18.26,0,0,1,2.068,2.337Z" transform="translate(-27.464 -31.45)" fill="#646464"/><path d="M185.435,178.586v1h-2.01v1.476c0,4.277-3.731,4.963-5.475,5.172l-.383-1.011c3.289-.314,4.812-1.651,4.812-4.208v-1.43h-4.057v3.126h-1.057v-3.126H175.3v-1h1.965v-2.161h1.057v2.161h4.057v-2.208h1.046v2.208Z" transform="translate(-29.848 -30.031)" fill="#646464"/><rect width="9.995" height="1.104" transform="translate(157.278 150.728)" fill="#646464"/><path d="M206.163,180.131a21.985,21.985,0,0,0,5.417-1.918l.476.977a28.121,28.121,0,0,1-5.893,1.952v2.568c0,.837.209.93,1.534.93h2.987a14.907,14.907,0,0,0,2.6-.186l.057,1.045a18.355,18.355,0,0,1-2.545.152h-3.254c-1.732,0-2.453-.29-2.453-1.767v-7.356h1.07Zm5.8-4.37a10.678,10.678,0,0,1,1.186,2.186l-.791.465a10.077,10.077,0,0,0-1.139-2.231Zm1.779-.546a9.737,9.737,0,0,1,1.174,2.2l-.791.453A9.16,9.16,0,0,0,213,175.633Z" transform="translate(-34.92 -29.833)" fill="#646464"/><path d="M226.236,177.106a12.549,12.549,0,0,1-2.22,4.777,45.908,45.908,0,0,1,3.952,3.487l-.885.837a41.383,41.383,0,0,0-3.707-3.533,14.391,14.391,0,0,1-4.707,3.579l-.627-.86a12.214,12.214,0,0,0,4.347-3.137,11.97,11.97,0,0,0,2.475-4.161h-6.241v-.988Z" transform="translate(-37.125 -30.155)" fill="#646464"/><path d="M242.072,186.756a13.342,13.342,0,0,1-3.277-1.685,9.469,9.469,0,0,1-3.754,1.662l-.476-.953a8.857,8.857,0,0,0,3.428-1.313,9.642,9.642,0,0,1-2.871-4.533c-.232,2.847-.9,4.812-2.906,6.729l-.651-.836c1.964-1.872,2.72-3.917,2.743-8.531h-2.278v-.918h8.531a23,23,0,0,1-.953,2.951h2.278a8.752,8.752,0,0,1-2.336,5.09,11.318,11.318,0,0,0,3.185,1.348Zm-6.845-9.461a11.383,11.383,0,0,0,.407,1.592,9.332,9.332,0,0,0,3.116,4.963,6.644,6.644,0,0,0,1.929-3.579H238.2a20.571,20.571,0,0,0,1.046-2.975Z" transform="translate(-39.428 -30.031)" fill="#646464"/><path d="M250.544,176.912v.977a5.374,5.374,0,0,0-2.429,4.276,2.456,2.456,0,0,0,2.684,2.72c1.836,0,2.941-.965,2.941-3.115a9.668,9.668,0,0,0-.976-4.2,7.784,7.784,0,0,1-.512-1.034l.977-.314a5.9,5.9,0,0,0,3.51,3.627l-.383,1.057a4.859,4.859,0,0,1-2.127-1.65,8.235,8.235,0,0,1,.465,2.649c0,1.906-.733,4-3.847,4a3.4,3.4,0,0,1-3.719-3.569,5.609,5.609,0,0,1,2.127-4.416l-2.3.023v-1.035Zm4.3-1.29a9.722,9.722,0,0,1,.953,2.29l-.825.383a10.123,10.123,0,0,0-.907-2.337Zm1.674-.407a9.856,9.856,0,0,1,.965,2.3l-.837.373a9.918,9.918,0,0,0-.894-2.337Z" transform="translate(-42.048 -29.833)" fill="#646464"/><path d="M268.7,176.671v.9a35.8,35.8,0,0,1-4.5,2.836,39.8,39.8,0,0,1,6.5-.489l.012,1.046c-.592-.046-1.023-.07-1.488-.07a3.988,3.988,0,0,0-2.092.465c-.953.5-2.045,1.511-2.045,2.511,0,.8.6,1.534,4.16,1.464l-.128,1.034c-1.72-.035-5.114-.081-5.114-2.289,0-1.79,1.918-2.8,2.522-3.115-3.057.418-3.812.546-5.777.93l-.115-1.046a4.134,4.134,0,0,0,1.859-.431,28.916,28.916,0,0,0,4.626-2.824l-4.974.07-.023-.987Z" transform="translate(-44.377 -30.081)" fill="#646464"/><path d="M274.854,183.391a9.525,9.525,0,0,0,2.324-3.3c0-.2.012-.744.012-.883l-2.034.035v-1.011l2.034.012c.012-.675.012-.919.012-1.836h1.08c-.081.883-.081,2.069-.081,2.777,1.453-1.592,2.708-2.057,3.685-2.057A1.652,1.652,0,0,1,283.56,179c0,.221,0,.5-.012.721l-.082,1.662c-.046.918-.08,1.581-.08,1.929,0,.919,0,1.476,1.754,1.43l-.3,1.022c-2.347-.046-2.522-.929-2.522-2.3,0-.36.035-.826.093-2.115l.081-1.651c.046-.825-.035-1.545-.849-1.545-.662,0-1.848.418-3.463,2.336-.023,2.906-.035,5.01-.012,5.684H277.12c.012-.6.035-3.556.047-4.231a11.32,11.32,0,0,1-1.686,2.441Z" transform="translate(-46.798 -30.036)" fill="#646464"/><path d="M50.471,202.641a9.846,9.846,0,0,0-.361,3.266,6.223,6.223,0,0,1,4-1.43c2.7,0,3.2,1.732,3.2,2.7,0,2.79-2.684,3.417-5.172,3.417a14.259,14.259,0,0,1-2.231-.163l-.117-1.022a12.544,12.544,0,0,0,2.267.208,5.1,5.1,0,0,0,3.7-1.08,2.055,2.055,0,0,0,.454-1.372c0-.906-.616-1.743-2.15-1.743a5.015,5.015,0,0,0-3.882,1.674c-.035.116-.046.151-.059.209l-1.034-.035c0-.395.035-2.138.046-2.488a10.885,10.885,0,0,1,.3-2.324Zm5.032-.012a14.344,14.344,0,0,0-4.661-.836l.186-1a18.654,18.654,0,0,1,4.766.732Z" transform="translate(-8.356 -34.188)" fill="#646464"/><path d="M70.72,201.927v.93H65.6a9.761,9.761,0,0,1-.768,1.674,3.463,3.463,0,0,1,1.859-.685,1.586,1.586,0,0,1,1.767,1.359c.267-.1,1.859-.743,2.906-1.1l.278,1.011c-.941.267-1.766.523-3.044,1.011.035.407.046.906.046,1.325,0,.163,0,.511-.035.883H67.594c.023-.267.058-.7.058-1.115,0-.2,0-.4-.023-.7-.9.419-2.3,1.162-2.3,2.116,0,1.022,1.29,1.022,2.569,1.022a28.632,28.632,0,0,0,3.068-.163l.035,1c-.662.046-1.674.116-2.778.116-1.313,0-3.94,0-3.94-1.872,0-1.58,2.08-2.626,3.231-3.138-.128-.685-.454-.918-.988-.918a3.461,3.461,0,0,0-2.3,1.186c-.535.732-1.3,1.755-1.674,2.138l-.721-.778a10.078,10.078,0,0,0,2.7-4.37H62.131v-.93H64.8a8.478,8.478,0,0,0,.244-1.3l1.116.046a10.632,10.632,0,0,1-.29,1.255Z" transform="translate(-10.527 -34.16)" fill="#646464"/><path d="M85.445,210.515a12.267,12.267,0,0,1-4.486-3.254v3.882h-.942v-3.812a12.979,12.979,0,0,1-4.509,3.266l-.547-.953a12.278,12.278,0,0,0,4.324-2.7H75.972V203.4h4.044v-.965H75.089v-.918h4.928v-1.174h.942v1.174h4.951v.918H80.958v.965h4.033v3.545H81.726A12.077,12.077,0,0,0,86,209.55Zm-5.428-6.323H76.925v1.941h3.092Zm4.022,0h-3.08v1.941h3.08Z" transform="translate(-12.763 -34.112)" fill="#646464"/><path d="M89.549,207.719a10.585,10.585,0,0,0,2.186-3.324c0-.163.022-.43.035-.72l-2.035.035v-1.035h2.07c.011-.256.057-1.476.07-1.755h1.034c-.116,2.115-.128,2.347-.163,2.964a6.311,6.311,0,0,1,3.823-1.743,2.7,2.7,0,0,1,2.22,1.115,4.7,4.7,0,0,1,.6,2.766,7.445,7.445,0,0,1-.269,2.208,8.4,8.4,0,0,1,.815.93l-.652.93a5.557,5.557,0,0,0-.661-.826,2.585,2.585,0,0,1-2.36,1.209c-1.591,0-2.22-.9-2.22-1.767,0-1.058.906-1.7,2.045-1.7a3.908,3.908,0,0,1,2.151.639,6.742,6.742,0,0,0,.151-1.615c0-1.081-.081-2.952-1.954-2.952-1.487,0-2.7,1.07-3.754,2.081-.034.65-.046,1.022-.046,1.941,0,.743.036,2.464.046,3.556H91.642c.012-1.871.012-2.347.035-4.324a8.6,8.6,0,0,1-1.569,2.441Zm6.544.128c-.36,0-1.151.151-1.151.86,0,.894,1.023.894,1.232.894a1.832,1.832,0,0,0,1.777-1.034,2.925,2.925,0,0,0-1.859-.721" transform="translate(-15.247 -34.21)" fill="#646464"/><path d="M111.265,202.085c-.256.187-.616.477-.906.709-1.488,1.2-1.651,1.325-2.418,1.929a6.194,6.194,0,0,1,2.08-.395,2.787,2.787,0,0,1,3.08,2.917c0,2.278-1.952,3.452-4.125,3.452-1.848,0-3-.826-3-1.929a1.786,1.786,0,0,1,1.964-1.639,2.84,2.84,0,0,1,2.778,2.278,2.24,2.24,0,0,0,1.348-2.138c0-.616-.186-2.069-2.418-2.069-2.057,0-3.568,1.151-5.16,2.662l-.6-.871c.9-.7,3.556-2.836,5.742-4.8-1.976.139-2.662.163-4.556.2v-1c2.464,0,3.417-.012,6.195-.174Zm-3.359,5.893c-.709,0-1.011.453-1.011.768,0,.569.744,1.127,2.046,1.127a3.389,3.389,0,0,0,.906-.1,2,2,0,0,0-1.941-1.79" transform="translate(-17.688 -34.26)" fill="#646464"/><path d="M116.906,204.038a10.843,10.843,0,0,0,5.09-3.707h1.046a11.627,11.627,0,0,0,5.09,3.707l-.5.965a13.469,13.469,0,0,1-5.125-3.836,12.82,12.82,0,0,1-5.148,3.789Zm10.03,2.708H123.17v3.138h4.544v.93h-10.39v-.93h1.557v-4.777h.987v4.777h2.313v-6.474h.987v2.395h3.766Z" transform="translate(-19.905 -34.11)" fill="#646464"/><path d="M141.357,210.933a10.3,10.3,0,0,1-4.335-2.5v2.661h-.93v-2.649a10.688,10.688,0,0,1-4.347,2.463l-.523-.836A10.066,10.066,0,0,0,135.394,208h-4.2v-.791h4.893v-.848h-4.08v-.744h4.08v-.814H131.71v-.767h2.5a7.935,7.935,0,0,0-.338-1.116H131.2v-.79h1.894a11.95,11.95,0,0,0-.732-1.476l.941-.314a8.443,8.443,0,0,1,.768,1.791h.964v-1.778h.907v1.778h1.244v-1.778h.894v1.778h.93a12.514,12.514,0,0,0,.778-1.791l.953.314a10.492,10.492,0,0,1-.755,1.476h1.941v.79h-2.708c-.151.524-.163.57-.348,1.116h2.591v.767h-4.439v.814h4.126v.744h-4.126v.848h4.9V208h-4.2a9.369,9.369,0,0,0,4.184,2.057Zm-3.44-6.893a7.535,7.535,0,0,0,.326-1.116h-3.394c.093.325.268.872.337,1.116Z" transform="translate(-22.339 -34.112)" fill="#646464"/><path d="M150.567,209.656c1.2-.129,4.022-.465,4.022-3.789a3.318,3.318,0,0,0-3.475-3.579c-.1,1.347-.337,4.207-1.534,6.125a2.391,2.391,0,0,1-1.953,1.348c-1.138,0-2.092-1.348-2.092-3.267a5.041,5.041,0,0,1,5.37-5.183c3.765,0,4.777,2.6,4.777,4.568a4.685,4.685,0,0,1-1.557,3.638,6.035,6.035,0,0,1-3.208,1.151Zm-2.405-6.579a4.188,4.188,0,0,0-1.615,3.44c0,.791.29,2.127,1.115,2.127.489,0,.837-.431,1.14-.942a13.469,13.469,0,0,0,1.278-5.369,4.385,4.385,0,0,0-1.917.743" transform="translate(-24.78 -34.277)" fill="#646464"/><path d="M164.847,211.053v-10.89h3.161v.929h-2.231v9.961Z" transform="translate(-28.068 -34.081)" fill="#646464"/><path d="M179.923,207a13.788,13.788,0,0,1-3.15,1.8,10.127,10.127,0,0,0,3.545,1.337l-.558,1.011c-1.8-.546-5.1-1.755-6.183-4.788h-2.057v3.5c.581-.07,2.173-.267,3.591-.569l.012.86a45.793,45.793,0,0,1-5.416.849l-.174-.953c.418-.023.6-.035,1.045-.081v-8.589h3.836v-1.058h.964v1.058h3.836v4.974Zm-1.674-4.742h-6.729v1.174h6.729Zm0,2h-6.729v1.255h6.729Zm-3.719,2.1a4.441,4.441,0,0,0,1.464,1.871,15.762,15.762,0,0,0,3.161-1.871Z" transform="translate(-28.866 -34.107)" fill="#646464"/><path d="M191.459,207.342a12.486,12.486,0,0,1-2.046-3.615c-.709.012-1.6.023-1.778.023h-3.347v-1.011l3.394.059c.489.011,1.116,0,1.406-.012a17.453,17.453,0,0,1-.453-1.883l1.1-.082a13.305,13.305,0,0,0,.418,1.93,19,19,0,0,0,3.44-.419l.186,1a18.891,18.891,0,0,1-3.289.36,10.578,10.578,0,0,0,1.859,3.045Zm-4.405-.8c-1.139.558-1.2,1.279-1.2,1.5,0,1.418,1.883,1.569,3.545,1.569a21.962,21.962,0,0,0,3.114-.2l.012,1.035a28.139,28.139,0,0,1-3.034.139c-2.034,0-3.184-.232-4-.965a2.08,2.08,0,0,1-.686-1.569,2.569,2.569,0,0,1,1.686-2.267Z" transform="translate(-31.378 -34.193)" fill="#646464"/><path d="M204.955,206.585a1.2,1.2,0,1,1-1.2-1.2,1.2,1.2,0,0,1,1.2,1.2" transform="translate(-34.489 -34.971)" fill="#646464"/><path d="M214.9,200.684v3.592h-2.034c-.047.476-.093.86-.222,1.708H215a20.463,20.463,0,0,1-.43,4.417,1.228,1.228,0,0,1-1.348.709h-1.255l-.151-.953,1.348.012c.337,0,.465-.081.569-.349a9.123,9.123,0,0,0,.338-2.941h-2.5a24.194,24.194,0,0,0,.407-3.5h1.987v-1.813h-2.452v-.884Zm4.335,4.068H221.9v3.312h-2.661v1.674c.709-.058,1.208-.116,1.534-.163a7.483,7.483,0,0,0-.57-.884l.814-.36A11.816,11.816,0,0,1,222.4,210.8l-.872.349c-.2-.465-.267-.616-.372-.837-3.7.441-4.1.489-5.9.6l-.116-.907c1.534-.058,2.453-.128,3.2-.186v-1.755h-2.614v-3.312h2.614v-1.186c-.465.012-2.534.1-2.952.116l-.081-.849c.233,0,.3,0,.942-.022a18.275,18.275,0,0,0,1.255-2.522l.987.174a26.245,26.245,0,0,1-1.3,2.325c1.814-.046,2.395-.059,3.441-.163a11.871,11.871,0,0,0-.907-1.22l.721-.476a12.786,12.786,0,0,1,1.906,2.824l-.826.43c-.128-.256-.256-.511-.441-.825-.244.035-.79.093-1.836.163Zm-.907.8H216.62v1.7h1.708Zm2.662,0h-1.755v1.7h1.755Z" transform="translate(-36.014 -34.103)" fill="#646464"/><path d="M230.527,210.051a4.286,4.286,0,0,0,3.009-3.568,10.539,10.539,0,0,0-2.789-.685c-.628,2.591-1.139,4.253-2.894,4.253a1.846,1.846,0,0,1-1.93-1.987c0-.569.21-3.068,4.01-3.219.163-.836.314-1.871.383-2.7l-3.638.035v-1.011h4.812c-.151,1.162-.186,1.418-.569,3.707a11.267,11.267,0,0,1,2.8.616,23.147,23.147,0,0,0,.256-2.5l1.1.081c-.081.836-.174,1.848-.348,2.778a11.992,11.992,0,0,1,1.43.662l-.348,1.046a9.164,9.164,0,0,0-1.3-.675,5.082,5.082,0,0,1-3.347,3.964Zm-2.453-3.963a2.169,2.169,0,0,0-1.232,1.918c0,.221.058,1.128.941,1.128,1.046,0,1.361-.872,1.976-3.394a3.8,3.8,0,0,0-1.685.348" transform="translate(-38.467 -34.253)" fill="#646464"/><path d="M246.955,206.585a1.2,1.2,0,1,1-1.2-1.2,1.2,1.2,0,0,1,1.2,1.2" transform="translate(-41.64 -34.971)" fill="#646464"/><path d="M255.509,202.583v-2.266h.93v2.266h1.034v.872h-1.034V206.2c.581-.232.755-.314,1-.43l.082.918c-.291.139-.57.279-1.081.476v3.964h-.93V207.5c-.825.3-1.43.465-1.941.616l-.232-.976c1.151-.28,1.767-.477,2.173-.6v-3.08h-.8a9.332,9.332,0,0,1-.524,2.185l-.813-.43a13.259,13.259,0,0,0,.627-4.231l.872.046a15.375,15.375,0,0,1-.07,1.557Zm5.87-2.266v1.116h2.464v.894h-2.464v1.581h2.871v.894h-1.232v1.29h1.128v.894h-1.128v2.824c0,1.2-.267,1.313-1.267,1.313h-1.476l-.186-.988,1.488.012c.419,0,.489-.129.489-.512v-2.65h-4.277v-.894h4.277V204.8h-4.476v-.894h2.848v-1.581h-2.429v-.894h2.429v-1.116Zm-1.767,9.263a11.014,11.014,0,0,0-1.5-1.755l.791-.558A11.248,11.248,0,0,1,260.425,209Z" transform="translate(-43.135 -34.107)" fill="#646464"/><path d="M277.765,211.079a8.728,8.728,0,0,1-1.592-2.01,8.477,8.477,0,0,1-2.069,2.045l-.64-.743a8.47,8.47,0,0,0,2.244-2.255,11.984,11.984,0,0,1-.813-3.475c-.21.314-.256.383-.384.546l-.383-.395v.662H272.6v1.267h1.5v.8h-1.5v1.535c.767-.117,1.232-.209,1.743-.3l.023.8c-1.2.337-4.219.72-4.405.744l-.093-.884c.36-.035.8-.093,1.859-.232v-1.663h-1.557v-.8h1.557v-1.267h-1.72v-.8h3.975l-.174-.174a6.273,6.273,0,0,0,.6-.872h-4.335v-.279a9.764,9.764,0,0,1-.72,1.464v6.323h-.918v-4.951a5.025,5.025,0,0,1-.871.929L267.223,206a9.013,9.013,0,0,0,2.093-3.184l.767.395v-2.267h.814V202.8h.929V200.34h.826V202.8h.942v-1.859h.825v2.65a11.434,11.434,0,0,0,1.186-3.254l.906.1A10.31,10.31,0,0,1,276,202.3h2.232v.9h-.442a12.807,12.807,0,0,1-1.069,4.974,7.246,7.246,0,0,0,1.557,1.987Zm-10.065-7.8-.454-.919a5.72,5.72,0,0,0,1.72-2.045l.837.348a6.509,6.509,0,0,1-2.1,2.615m7.938-.081a.926.926,0,0,1-.046.1,13.369,13.369,0,0,0,.651,3.777,11.364,11.364,0,0,0,.7-3.882Z" transform="translate(-45.499 -34.107)" fill="#646464"/><path d="M284.511,200.373v10.89H281.35v-.93h2.231v-9.96Z" transform="translate(-47.904 -34.117)" fill="#646464"/><path d="M56.72,226.427v.93H51.6a9.762,9.762,0,0,1-.768,1.674,3.463,3.463,0,0,1,1.859-.685,1.586,1.586,0,0,1,1.767,1.359c.267-.1,1.859-.743,2.906-1.1l.278,1.011c-.941.267-1.766.523-3.044,1.011.035.407.046.906.046,1.325,0,.163,0,.511-.035.883H53.594c.023-.267.058-.7.058-1.115,0-.2,0-.4-.023-.7-.9.419-2.3,1.162-2.3,2.116,0,1.022,1.29,1.022,2.569,1.022a28.632,28.632,0,0,0,3.068-.163l.035,1c-.662.046-1.674.116-2.778.116-1.313,0-3.94,0-3.94-1.872,0-1.58,2.08-2.626,3.231-3.138-.128-.685-.454-.918-.988-.918a3.461,3.461,0,0,0-2.3,1.186c-.535.732-1.3,1.755-1.674,2.138l-.721-.778a10.078,10.078,0,0,0,2.7-4.37H48.131v-.93H50.8a8.477,8.477,0,0,0,.244-1.3l1.116.046a10.633,10.633,0,0,1-.29,1.255Z" transform="translate(-8.144 -38.331)" fill="#646464"/><path d="M63.365,235.621h-.953v-6.079a7.073,7.073,0,0,1-.953,1.209l-.441-1.023a10.686,10.686,0,0,0,2.244-4.939l.976.174a12.122,12.122,0,0,1-.871,2.778Zm6.625-4.846a17.106,17.106,0,0,1,1.859,4.568l-.988.325a8.235,8.235,0,0,0-.266-1.128c-1.523.279-4.371.582-6.358.721l-.151-.942c.29-.012.582-.035,1.128-.081a28.507,28.507,0,0,0,1.406-4.521H64.26v-.9h7.659v.9H67.654a38.591,38.591,0,0,1-1.418,4.44,36.31,36.31,0,0,0,4.079-.441,18.387,18.387,0,0,0-1.186-2.557Zm1.569-4.405H64.631v-.918h6.927Z" transform="translate(-10.389 -38.274)" fill="#646464"/><path d="M83.231,227.761v.894c-.826.663-1.778,1.464-2.58,2.186a1.451,1.451,0,0,1,.511-.094c1.058,0,1.058.988,1.058,1.64v.476c0,.964.139,1.232,1.708,1.232.57,0,1.162-.058,1.534-.093l.046,1.034c-.43.035-.86.081-1.662.081-1.221,0-2.615,0-2.615-1.767v-.767c0-.57,0-1.011-.592-1.011a2.522,2.522,0,0,0-1.267.535c-.569.511-1.057,1.022-2.882,2.951l-.743-.8c.081-.07,1.906-1.8,2.231-2.1,2.453-2.336,2.929-2.742,3.766-3.44l-5.219.035v-.977Zm.116-.8a19.2,19.2,0,0,0-5.393-.871l.128-.907a21.244,21.244,0,0,1,5.486.8Z" transform="translate(-12.897 -38.341)" fill="#646464"/><path d="M97.265,226.585c-.256.187-.616.477-.906.709-1.488,1.2-1.651,1.325-2.418,1.929a6.194,6.194,0,0,1,2.08-.395,2.787,2.787,0,0,1,3.08,2.917c0,2.278-1.952,3.452-4.125,3.452-1.848,0-3-.826-3-1.929a1.786,1.786,0,0,1,1.964-1.639,2.84,2.84,0,0,1,2.778,2.278,2.239,2.239,0,0,0,1.348-2.138c0-.616-.186-2.069-2.418-2.069-2.057,0-3.568,1.151-5.16,2.662l-.6-.871c.9-.7,3.556-2.836,5.742-4.8-1.976.139-2.662.163-4.556.2v-1c2.464,0,3.417-.012,6.195-.174Zm-3.359,5.893c-.709,0-1.011.453-1.011.768,0,.569.744,1.127,2.046,1.127a3.389,3.389,0,0,0,.906-.1,2,2,0,0,0-1.941-1.79" transform="translate(-15.304 -38.432)" fill="#646464"/><path d="M106.159,230.868a2.536,2.536,0,0,0-.569,1.511,1.467,1.467,0,0,0,.755,1.29,4.792,4.792,0,0,0,2.58.442,34.5,34.5,0,0,0,4.218-.233l.047,1.093c-.709.058-2.069.163-3.871.163-2.1,0-2.917-.209-3.614-.6a2.355,2.355,0,0,1-1.162-2.092,3.481,3.481,0,0,1,.767-2.093Zm6.311-3.649a10.513,10.513,0,0,0-3.847,1.441l-.743-.64a9.834,9.834,0,0,1,1.848-.825c-.465,0-4.417.081-4.591.093v-1.058c2.08.012,6.427.012,7.334,0Z" transform="translate(-17.8 -38.52)" fill="#646464"/><path d="M126.744,229.176c-.941.1-7.218.814-7.218,3.394,0,1.348,1.418,1.476,3.917,1.476a32.383,32.383,0,0,0,3.661-.174l.023,1.093c-.755.046-1.778.116-3.452.116-2.01,0-5.23,0-5.23-2.476,0-1.987,2.394-2.986,3.208-3.336-.384-.755-.407-1.43-.441-3.9h1.138c-.012.314-.023.639-.023,1.208a5.353,5.353,0,0,0,.3,2.348,27.168,27.168,0,0,1,4.009-.86Z" transform="translate(-20.167 -38.372)" fill="#646464"/><path d="M491.79,186.6h-.93V180.6a8.406,8.406,0,0,1-.8,1.128l-.489-1.116a9.807,9.807,0,0,0,2-4.846l.953.139a12.511,12.511,0,0,1-.732,2.778Zm8.391-.232h-7.357v-10.2h7.357ZM499.275,177h-5.544v8.542h5.544Zm-2.348,1.72h1.929v.813h-1.929v1.29h1.581v3.813h-3.986v-3.813h1.533v-1.29h-1.906v-.813h1.906v-1.313h.872Zm.756,2.835h-2.325V183.9h2.325Z" transform="translate(-83.357 -29.926)" fill="#646464"/><path d="M511.407,186.345a23.2,23.2,0,0,0-4.626-3.707l.64-.756a26.919,26.919,0,0,1,2.231,1.558,15.9,15.9,0,0,0,3.51-4h-5.079a20.118,20.118,0,0,1-3.1,3.475l-.709-.7a16.165,16.165,0,0,0,4.383-5.869l.987.325a15.178,15.178,0,0,1-.953,1.848h5.648v.907a17.086,17.086,0,0,1-3.951,4.591c.209.174.929.767,1.755,1.592Z" transform="translate(-85.86 -30.026)" fill="#646464"/><path d="M523.709,185.156c1.2-.129,4.022-.465,4.022-3.789a3.318,3.318,0,0,0-3.475-3.579c-.1,1.347-.337,4.207-1.534,6.125a2.391,2.391,0,0,1-1.953,1.348c-1.138,0-2.092-1.348-2.092-3.267a5.041,5.041,0,0,1,5.37-5.183c3.765,0,4.777,2.6,4.777,4.568a4.685,4.685,0,0,1-1.557,3.638,6.034,6.034,0,0,1-3.208,1.151Zm-2.405-6.579a4.188,4.188,0,0,0-1.615,3.44c0,.791.29,2.127,1.115,2.127.489,0,.837-.431,1.14-.942a13.471,13.471,0,0,0,1.278-5.369,4.385,4.385,0,0,0-1.918.743" transform="translate(-88.313 -30.105)" fill="#646464"/><path d="M543.26,177.446h-4.881v.662h3.881v2.244h-3.881v.6h4.149V182.4h.8v.791h-.8v1.488h-4.149v.918a.909.909,0,0,1-1.011,1.023h-1.894l-.139-.942,1.719.012c.326,0,.384-.128.384-.372v-.639h-4.231v-.733h4.231v-.767h-4.928v-.756h4.928v-.755h-4.2v-.709h4.2v-.6h-3.859v-2.244h3.859v-.662h-4.812v-.79h4.812v-.826h.942v.826h4.881Zm-5.823,1.348h-2.906v.872h2.906Zm3.858,0h-2.917v.872H541.3Zm.267,2.871h-3.185v.756h3.185Zm.012,1.511h-3.2v.767h3.2Z" transform="translate(-90.668 -29.938)" fill="#646464"/><path d="M556.975,186.433a10.294,10.294,0,0,1-4.335-2.5v2.661h-.93v-2.649a10.688,10.688,0,0,1-4.347,2.463l-.523-.836a10.065,10.065,0,0,0,4.172-2.069h-4.2v-.791h4.893v-.848h-4.08v-.744h4.08v-.814h-4.382v-.767h2.5a7.946,7.946,0,0,0-.338-1.116h-2.673v-.79h1.894a11.951,11.951,0,0,0-.732-1.476l.941-.314a8.438,8.438,0,0,1,.768,1.791h.964v-1.778h.907v1.778H552.8v-1.778h.894v1.778h.93a12.525,12.525,0,0,0,.778-1.791l.953.314a10.486,10.486,0,0,1-.755,1.476h1.941v.79h-2.708c-.151.524-.163.57-.349,1.116h2.591v.767H552.64v.814h4.126v.744H552.64v.848h4.9v.791h-4.2a9.369,9.369,0,0,0,4.184,2.057Zm-3.44-6.893a7.539,7.539,0,0,0,.326-1.116h-3.394c.093.325.268.872.337,1.116Z" transform="translate(-93.105 -29.94)" fill="#646464"/><path d="M565.278,186.331a53.161,53.161,0,0,0-1.43-6.055,18.89,18.89,0,0,0-1.976.849l-.384-1.07c.337-.1,1.779-.616,2.08-.721-.465-1.464-.511-1.627-.79-2.336l1.069-.291c.151.442.209.628.709,2.29.1-.035,1.186-.407,2.36-.732a11.719,11.719,0,0,0-.942-1.558l.907-.372a8.985,8.985,0,0,1,1.058,1.7,6.033,6.033,0,0,1,.953-.082,2.519,2.519,0,0,1,2.6,2.569c0,1.674-1.325,2.639-3.01,2.639a4.75,4.75,0,0,1-1.72-.325l.116-.988a3.89,3.89,0,0,0,1.546.314,1.8,1.8,0,0,0,2.01-1.708,1.541,1.541,0,0,0-1.685-1.569,13.739,13.739,0,0,0-3.928,1.023c.453,1.546.569,2.01,1.615,6.16Z" transform="translate(-95.603 -30.024)" fill="#646464"/><path d="M581.732,186.035a46.24,46.24,0,0,1-5.347.5l-.081-.86c.453-.012.872-.023,1.72-.07v-1.162a14.707,14.707,0,0,1-2.522.721l-.349-.9a10.3,10.3,0,0,0,4.091-1.313H575.3v-.8h5.01v-.743h-.7l-.174-.7.826.012c.139,0,.209-.035.209-.221v-.627H578.9v1.674h-.814v-1.674h-1.464v1.615h-.825v-2.255h2.289v-.616h-2.813v-.686h2.813v-.674h-1.395a4.317,4.317,0,0,1-.558.627l-.651-.43a4.963,4.963,0,0,0,1.081-1.627l.826.186a4.115,4.115,0,0,1-.267.558h.964v-.743h.814v.743h2.312v.686H578.9v.674h2.778v.686H578.9v.616h2.348v1.36c0,.628-.349.72-.535.779h.57v.778h4.695v.8h-1.429l.7.512a13.7,13.7,0,0,1-1.755,1.255,8.465,8.465,0,0,0,2.6,1.011l-.431.894a7.914,7.914,0,0,1-5.067-3.638,7.825,7.825,0,0,1-1.732,1.1v1.453c.8-.046,2.057-.174,2.871-.29Zm-.187-3.08a4.26,4.26,0,0,0,1.2,1.255,13.108,13.108,0,0,0,1.652-1.255Zm1.674-3.1h-.9v-3.545h.9Zm2.266-4.022v4.823a.777.777,0,0,1-.883.837h-1.348l-.128-.9,1.115.012c.244,0,.3-.058.3-.314v-4.463Z" transform="translate(-97.929 -29.938)" fill="#646464"/><path d="M594.361,186.472h-4.452v-5.067h4.452Zm-3.556-.849h2.662v-3.37H590.8Zm8.066-5.265h-7.822v-4.08h7.822Zm-6.893-.871h5.974v-2.36h-5.974Zm8,6.985h-4.591v-5.067h4.591Zm-3.7-.849h2.8v-3.37h-2.8Z" transform="translate(-100.442 -30.014)" fill="#646464"/><path d="M605.895,187.769a16.784,16.784,0,0,0-1.93-2.405l.884-.651a18.337,18.337,0,0,1,2.068,2.337Z" transform="translate(-102.835 -31.45)" fill="#646464"/><path d="M628.1,178.586v1h-2.01v1.476c0,4.277-3.731,4.963-5.475,5.172l-.383-1.011c3.289-.314,4.812-1.651,4.812-4.208v-1.43h-4.057v3.126H619.93v-3.126h-1.965v-1h1.965v-2.161h1.057v2.161h4.057v-2.208h1.046v2.208Z" transform="translate(-105.219 -30.031)" fill="#646464"/><rect width="9.995" height="1.104" transform="translate(524.572 150.728)" fill="#646464"/><path d="M648.828,180.131a21.985,21.985,0,0,0,5.417-1.918l.476.977a28.122,28.122,0,0,1-5.893,1.952v2.568c0,.837.209.93,1.534.93h2.987a14.907,14.907,0,0,0,2.6-.186l.057,1.045a18.356,18.356,0,0,1-2.545.152h-3.254c-1.732,0-2.453-.29-2.453-1.767v-7.356h1.07Zm5.8-4.37a10.676,10.676,0,0,1,1.187,2.186l-.791.465a10.08,10.08,0,0,0-1.139-2.231Zm1.779-.546a9.735,9.735,0,0,1,1.174,2.2l-.791.453a9.16,9.16,0,0,0-1.127-2.231Z" transform="translate(-110.291 -29.833)" fill="#646464"/><path d="M668.9,177.106a12.534,12.534,0,0,1-2.22,4.777,45.637,45.637,0,0,1,3.952,3.487l-.884.837a41.391,41.391,0,0,0-3.707-3.533,14.393,14.393,0,0,1-4.707,3.579l-.627-.86a12.2,12.2,0,0,0,4.346-3.137,11.96,11.96,0,0,0,2.476-4.161h-6.241v-.988Z" transform="translate(-112.496 -30.155)" fill="#646464"/><path d="M679.851,185.156c1.2-.129,4.022-.465,4.022-3.789a3.318,3.318,0,0,0-3.475-3.579c-.1,1.347-.337,4.207-1.534,6.125a2.391,2.391,0,0,1-1.953,1.348c-1.138,0-2.092-1.348-2.092-3.267a5.041,5.041,0,0,1,5.37-5.183c3.765,0,4.777,2.6,4.777,4.568a4.685,4.685,0,0,1-1.557,3.638,6.035,6.035,0,0,1-3.208,1.151Zm-2.405-6.579a4.188,4.188,0,0,0-1.615,3.44c0,.791.29,2.127,1.115,2.127.489,0,.837-.431,1.14-.942a13.47,13.47,0,0,0,1.278-5.369,4.385,4.385,0,0,0-1.918.743" transform="translate(-114.899 -30.105)" fill="#646464"/><path d="M692.3,176.675V175.8h.941v3.94H692.3v-.651c-.512.117-2.1.454-3.476.616l-.128-.907a36.071,36.071,0,0,0,3.6-.488v-.8h-3.452v-.836Zm-2.278,9.949v-6.346h8.125v5.463c0,.395-.059.883-.826.883H695l-.163-.918,2.093.023c.2,0,.256-.081.256-.267v-1.035h-6.218v2.2Zm.953-4.637h6.218v-.9h-6.218Zm0,1.674h6.218v-.906h-6.218Zm8.159-6.973a11.913,11.913,0,0,1-3.5.965v.964c0,.093,0,.221.221.221h2.3c.221,0,.361,0,.431-1.115l.906.186c-.151,1.65-.453,1.755-1.011,1.755h-2.941c-.314,0-.849,0-.849-.744V175.8h.942v1.011a10.053,10.053,0,0,0,2.975-.9Z" transform="translate(-117.261 -29.933)" fill="#646464"/><path d="M706,176.081a8.626,8.626,0,0,1-2.8,3.138l-.395-.907a7,7,0,0,0,2.371-2.58Zm-3.2,5.544a8.7,8.7,0,0,0,2.591-3.371l.8.349a11.953,11.953,0,0,1-1.081,1.964v6.008h-.93v-4.823a9.506,9.506,0,0,1-.964.884Zm9.217-4.778a43.487,43.487,0,0,1-3.057,3.534c.29,0,2.127-.094,3.126-.2-.372-.534-.628-.848-.837-1.1l.743-.454a11.9,11.9,0,0,1,1.779,2.627l-.814.5c-.151-.314-.244-.511-.407-.8-1.174.139-2.347.209-3.533.256a7.178,7.178,0,0,1-.453.7h3.974v.767a7.1,7.1,0,0,1-2.057,2.161,10.647,10.647,0,0,0,3.336.872l-.36.9a12.2,12.2,0,0,1-3.882-1.232,12.74,12.74,0,0,1-3.8,1.208l-.291-.906a10.365,10.365,0,0,0,3.232-.86,8.623,8.623,0,0,1-1.477-1.475,6.306,6.306,0,0,1-1.3.894l-.5-.814a5.954,5.954,0,0,0,2.568-2.185c-.36,0-1.917.046-2.243.046l-.07-.837c.5,0,1.069,0,2-.022.348-.338.558-.558.756-.791a13.7,13.7,0,0,0-2.244-1.6l.5-.7a7.587,7.587,0,0,1,.686.407,11.459,11.459,0,0,0,1.313-2l.929.372a21.375,21.375,0,0,1-1.546,2.115,8.535,8.535,0,0,1,.942.756c1.337-1.592,1.488-1.767,2.068-2.569Zm-4.138,5.87-.035.035a8.879,8.879,0,0,0,1.755,1.581,8.076,8.076,0,0,0,1.813-1.616Z" transform="translate(-119.664 -29.921)" fill="#646464"/><path d="M719.924,176.694a22.362,22.362,0,0,0-.523,5.265,17.286,17.286,0,0,0,.36,4.126l-1.128.093a23.226,23.226,0,0,1-.3-4.057,26.607,26.607,0,0,1,.488-5.52Zm2.964,4.987a2.8,2.8,0,0,0-.581,1.569c0,1.057,1.185,1.2,2.429,1.2a25.006,25.006,0,0,0,2.662-.14V185.4c-.395.035-1.209.1-2.2.1-1.72,0-3.87-.163-3.87-2.161a3.894,3.894,0,0,1,.616-1.952Zm4.266-3.115h-5.463v-1.023h5.463Z" transform="translate(-122.308 -30.069)" fill="#646464"/><path d="M494.3,204.195a8.049,8.049,0,0,1,1.685-.174c2.824,0,4.231,1.476,4.231,3.394,0,3-3.209,3.173-4.3,3.231l-.267-.965c1.7-.046,3.51-.441,3.51-2.359,0-1.7-1.395-2.093-2.151-2.313-1.324,4.824-3.974,5.08-4.6,5.08a1.915,1.915,0,0,1-1.9-2.116,3.8,3.8,0,0,1,2.79-3.487c-.012-.348-.012-.628-.012-1.534h-2.453V202h2.453v-1.162h1.023V202h5.555v.953H494.3Zm-.965,1.244a2.968,2.968,0,0,0-1.883,2.463,1.08,1.08,0,0,0,1.035,1.221,2.441,2.441,0,0,0,1.394-.488,13.127,13.127,0,0,1-.546-3.2m2.755-.547a5.564,5.564,0,0,0-1.778.209,11.8,11.8,0,0,0,.36,2.8,8.4,8.4,0,0,0,1.418-3.01" transform="translate(-83.517 -34.195)" fill="#646464"/><path d="M511.93,202.085c-.255.187-.616.477-.905.709-1.489,1.2-1.652,1.325-2.419,1.929a6.2,6.2,0,0,1,2.081-.395,2.788,2.788,0,0,1,3.08,2.917c0,2.278-1.953,3.452-4.126,3.452-1.847,0-3-.826-3-1.929a1.786,1.786,0,0,1,1.964-1.639,2.84,2.84,0,0,1,2.778,2.278,2.238,2.238,0,0,0,1.348-2.138c0-.616-.186-2.069-2.417-2.069-2.057,0-3.569,1.151-5.161,2.662l-.6-.871c.9-.7,3.556-2.836,5.742-4.8-1.976.139-2.662.163-4.556.2v-1c2.464,0,3.418-.012,6.195-.174Zm-3.359,5.893c-.709,0-1.011.453-1.011.768,0,.569.745,1.127,2.047,1.127a3.387,3.387,0,0,0,.905-.1,2,2,0,0,0-1.941-1.79" transform="translate(-85.908 -34.26)" fill="#646464"/><path d="M517.571,204.038a10.842,10.842,0,0,0,5.09-3.707h1.046a11.627,11.627,0,0,0,5.09,3.707l-.5.965a13.469,13.469,0,0,1-5.125-3.836,12.82,12.82,0,0,1-5.148,3.789Zm10.03,2.708h-3.766v3.138h4.544v.93h-10.39v-.93h1.557v-4.777h.987v4.777h2.313v-6.474h.987v2.395H527.6Z" transform="translate(-88.125 -34.11)" fill="#646464"/><path d="M542.022,210.933a10.293,10.293,0,0,1-4.335-2.5v2.661h-.929v-2.649a10.693,10.693,0,0,1-4.347,2.463l-.523-.836A10.066,10.066,0,0,0,536.06,208h-4.2v-.791h4.894v-.848h-4.08v-.744h4.08v-.814h-4.382v-.767h2.5a8.028,8.028,0,0,0-.337-1.116h-2.673v-.79h1.9a12.126,12.126,0,0,0-.733-1.476l.942-.314a8.483,8.483,0,0,1,.767,1.791h.965v-1.778h.907v1.778h1.243v-1.778h.9v1.778h.929a12.5,12.5,0,0,0,.779-1.791l.953.314a10.591,10.591,0,0,1-.756,1.476h1.942v.79h-2.709c-.15.524-.162.57-.349,1.116h2.592v.767h-4.44v.814h4.126v.744h-4.126v.848h4.905V208h-4.2a9.369,9.369,0,0,0,4.184,2.057Zm-3.44-6.893a7.461,7.461,0,0,0,.325-1.116h-3.394c.093.325.267.872.337,1.116Z" transform="translate(-90.559 -34.112)" fill="#646464"/><path d="M555.409,204.676c-.942.1-7.218.814-7.218,3.394,0,1.348,1.418,1.476,3.917,1.476a32.416,32.416,0,0,0,3.662-.174l.022,1.093c-.755.046-1.778.116-3.452.116-2.01,0-5.23,0-5.23-2.476,0-1.987,2.394-2.986,3.208-3.336-.384-.755-.407-1.43-.441-3.9h1.138c-.012.314-.023.638-.023,1.208a5.353,5.353,0,0,0,.3,2.348,27.169,27.169,0,0,1,4.009-.86Z" transform="translate(-93.155 -34.2)" fill="#646464"/><path d="M563.5,200.975c-.1,3.138-.151,4.521-.151,5.626,0,1.488.07,3.045,2.255,3.045,3.01,0,3.393-2.093,3.719-3.859l.976.36c-.372,2.1-1.127,4.5-4.66,4.5-3.185,0-3.394-2.127-3.394-4.149,0-.872.07-4.73.081-5.521Z" transform="translate(-95.731 -34.219)" fill="#646464"/><path d="M584.1,202.689c-.395-.035-.732-.046-1.186-.046a3.225,3.225,0,0,0-1.173.139c-1.674.558-3.952,2.36-3.952,4.359,0,1.511,1.116,1.987,2.348,2.243a12.92,12.92,0,0,0,2.928.21l-.209,1.127c-2.289-.093-6.148-.256-6.148-3.51,0-2.208,2.034-3.73,3.405-4.533-.336.012-4.358.256-5.625.407l-.093-1.139c.7-.023,2.557-.1,3.15-.139,2.6-.139,3.672-.163,6.532-.187Z" transform="translate(-97.801 -34.329)" fill="#646464"/><path d="M593.232,209.656c1.2-.129,4.022-.465,4.022-3.789a3.318,3.318,0,0,0-3.475-3.579c-.1,1.347-.337,4.207-1.534,6.125a2.391,2.391,0,0,1-1.953,1.348c-1.138,0-2.092-1.348-2.092-3.267a5.041,5.041,0,0,1,5.37-5.183c3.765,0,4.777,2.6,4.777,4.568a4.685,4.685,0,0,1-1.557,3.638,6.035,6.035,0,0,1-3.208,1.151Zm-2.405-6.579a4.188,4.188,0,0,0-1.615,3.44c0,.791.29,2.127,1.115,2.127.489,0,.837-.431,1.14-.942a13.47,13.47,0,0,0,1.278-5.369,4.385,4.385,0,0,0-1.918.743" transform="translate(-100.151 -34.277)" fill="#646464"/><path d="M607.512,211.053v-10.89h3.161v.929h-2.231v9.961Z" transform="translate(-103.439 -34.081)" fill="#646464"/><path d="M615.883,209a31.044,31.044,0,0,1-3.731,1.209l-.151-.953c.407-.093,1.046-.28,1.581-.419v-3.394h-1.313v-.907h1.313v-2.661h-1.43v-.9h3.72v.9h-1.36v2.661h1.151v.907h-1.151v3.1c.569-.2.929-.337,1.36-.5Zm6.694-8.287v5.462h-2.7V207.5h2.812v.86h-2.812V210H622.9v.872h-7.38V210h3.452v-1.639h-2.79v-.86h2.79v-1.326h-2.708v-5.462Zm-3.6.837h-1.813v1.5h1.813Zm0,2.278h-1.813v1.523h1.813Zm2.707-2.278h-1.8v1.5h1.8Zm0,2.278h-1.8v1.523h1.8Z" transform="translate(-104.203 -34.174)" fill="#646464"/><path d="M634.165,203.467h-5.37v-.5a11.73,11.73,0,0,1-2.405,1.022l-.431-.906a11.6,11.6,0,0,0,5.01-2.766h.976a12.235,12.235,0,0,0,5.1,2.813l-.441.872a13.824,13.824,0,0,1-2.44-1.023Zm-8.206,6.683a5.958,5.958,0,0,0,1.348-2.65l.919.186a6.331,6.331,0,0,1-1.476,3.057Zm9.891-5.87v.79a8.025,8.025,0,0,1-3.51,2.348l-.558-.744a8.319,8.319,0,0,0,2.848-1.6h-7.555v-.79Zm-6.067,3.6v1.755c0,.383.151.407.441.407h2.395c.441,0,.5-.035.581-1.324l.941.221c-.115,1.557-.383,2-1.278,2h-3.115a.805.805,0,0,1-.919-.86v-2.2Zm3.881-5.183a10.666,10.666,0,0,1-2.185-1.627,8.737,8.737,0,0,1-2.209,1.627Zm-1.917,5.822a10.663,10.663,0,0,0-2.2-1.394l.465-.768a10.808,10.808,0,0,1,2.278,1.348Zm4.382,2.139a14.549,14.549,0,0,0-2-2.906l.778-.441a14.468,14.468,0,0,1,2.058,2.812Z" transform="translate(-106.58 -34.107)" fill="#646464"/><path d="M647.621,206.585a1.2,1.2,0,1,1-1.2-1.2,1.2,1.2,0,0,1,1.2,1.2" transform="translate(-109.86 -34.971)" fill="#646464"/><path d="M658.825,203.805a15.153,15.153,0,0,1-1.568.325v1.5a.765.765,0,0,1-.872.836h-1.337l-.1-.918,1.128.012a.267.267,0,0,0,.3-.267V204.27a20.1,20.1,0,0,1-2.138.279l-.094-.918c.6-.023.768-.046,2.232-.221v-1.2h-2.208v-.826h2.208v-1.08h.884v1.08h1.568v.826h-1.568v1.069c.6-.081.976-.151,1.545-.267Zm4.952,7.078h-8.449v-3.847h8.449Zm-.953-3.034h-6.532v2.209h6.532Zm-4.73-1.976a3.226,3.226,0,0,0,1.244-1.325,4.465,4.465,0,0,0,.465-2v-1.743a15.511,15.511,0,0,0,4.428-.547l.314.814a15.2,15.2,0,0,1-3.847.488v1.1h4.242v.814H663.5V206.5h-.919V203.48h-1.952a4.662,4.662,0,0,1-1.813,3.092Z" transform="translate(-111.378 -34.098)" fill="#646464"/><path d="M677.049,204.868a13.165,13.165,0,0,1-2.952,1.894v.244h4.835v.894H674.1v2.29a.852.852,0,0,1-.953.9h-2.116l-.186-1,1.894.012c.361,0,.384-.093.384-.36V207.9H668.17v-.894h4.951v-.965h.5a6.652,6.652,0,0,0,1.883-1.1H670.04v-.86h7.009Zm-1.128-2.7a16.962,16.962,0,0,0,.872-1.918l1.011.337a11.86,11.86,0,0,1-.826,1.581h1.686v2.568h-.953v-1.708H669.4v1.708h-.953v-2.568h1.685a6.886,6.886,0,0,0-.8-1.534l.86-.337a6.367,6.367,0,0,1,.894,1.65l-.581.221Zm-2.545-.012a9.967,9.967,0,0,0-.884-1.65l.9-.36a9.273,9.273,0,0,1,.884,1.7Z" transform="translate(-113.767 -34.079)" fill="#646464"/><path d="M689.621,206.585a1.2,1.2,0,1,1-1.2-1.2,1.2,1.2,0,0,1,1.2,1.2" transform="translate(-117.012 -34.971)" fill="#646464"/><path d="M706.589,207a13.789,13.789,0,0,1-3.151,1.8,10.127,10.127,0,0,0,3.545,1.337l-.558,1.011c-1.8-.546-5.1-1.755-6.183-4.788h-2.057v3.5c.581-.07,2.173-.267,3.591-.569l.012.86a45.8,45.8,0,0,1-5.416.849l-.174-.953c.418-.023.6-.035,1.045-.081v-8.589h3.836v-1.058h.964v1.058h3.836v4.974Zm-1.674-4.742h-6.729v1.174h6.729Zm0,2h-6.729v1.255h6.729Zm-3.719,2.1a4.439,4.439,0,0,0,1.464,1.871,15.764,15.764,0,0,0,3.161-1.871Z" transform="translate(-118.539 -34.107)" fill="#646464"/><path d="M709.973,208.825a10.337,10.337,0,0,0,1.174-4.8l1,.116a14.032,14.032,0,0,1-1.3,5.381Zm7.439-6.009a14.488,14.488,0,0,0-4.625-1.534l.29-.9a17.291,17.291,0,0,1,4.765,1.43Zm-3.161.639v6.113c0,.151.024.36.337.36h2.371a.515.515,0,0,0,.558-.36,10.254,10.254,0,0,0,.28-1.848l.987.325c-.3,2.755-.883,2.836-1.6,2.836h-2.9c-.628,0-1.023-.186-1.023-.988v-6.439Zm5.765,6.021a20.308,20.308,0,0,0-1.755-5.532l.919-.373a20.181,20.181,0,0,1,1.906,5.649Z" transform="translate(-120.885 -34.119)" fill="#646464"/><path d="M727.176,200.373v10.89h-3.161v-.93h2.231v-9.96Z" transform="translate(-123.276 -34.117)" fill="#646464"/><path d="M499.385,226.427v.93H494.26a9.763,9.763,0,0,1-.767,1.674,3.463,3.463,0,0,1,1.859-.685,1.586,1.586,0,0,1,1.767,1.359c.267-.1,1.859-.743,2.906-1.1l.278,1.011c-.941.267-1.766.523-3.044,1.011.035.407.046.906.046,1.325,0,.163,0,.511-.035.883h-1.011c.023-.267.058-.7.058-1.115,0-.2,0-.4-.023-.7-.9.419-2.3,1.162-2.3,2.116,0,1.022,1.29,1.022,2.569,1.022a28.632,28.632,0,0,0,3.068-.163l.035,1c-.662.046-1.674.116-2.778.116-1.313,0-3.94,0-3.94-1.872,0-1.58,2.08-2.626,3.231-3.138-.128-.685-.454-.918-.988-.918a3.461,3.461,0,0,0-2.3,1.186c-.535.732-1.3,1.755-1.674,2.138l-.721-.778a10.078,10.078,0,0,0,2.7-4.37H490.8v-.93h2.673a8.551,8.551,0,0,0,.245-1.3l1.115.046a10.617,10.617,0,0,1-.29,1.255Z" transform="translate(-83.515 -38.331)" fill="#646464"/><path d="M506.03,235.621h-.953v-6.079a7.113,7.113,0,0,1-.953,1.209l-.441-1.023a10.685,10.685,0,0,0,2.244-4.939l.976.174a12.12,12.12,0,0,1-.871,2.778Zm6.625-4.846a17.106,17.106,0,0,1,1.859,4.568l-.987.325a8.388,8.388,0,0,0-.267-1.128c-1.522.279-4.37.582-6.358.721l-.151-.942c.29-.012.582-.035,1.128-.081a28.51,28.51,0,0,0,1.406-4.521h-2.36v-.9h7.659v.9h-4.265a38.593,38.593,0,0,1-1.418,4.44,36.309,36.309,0,0,0,4.079-.441,18.383,18.383,0,0,0-1.186-2.557Zm1.569-4.405H507.3v-.918h6.927Z" transform="translate(-85.76 -38.274)" fill="#646464"/><path d="M525.9,227.761v.894c-.826.663-1.779,1.464-2.58,2.186a1.45,1.45,0,0,1,.511-.094c1.058,0,1.058.988,1.058,1.64v.476c0,.964.139,1.232,1.708,1.232.57,0,1.162-.058,1.534-.093l.047,1.034c-.43.035-.86.081-1.662.081-1.221,0-2.615,0-2.615-1.767v-.767c0-.57,0-1.011-.592-1.011a2.523,2.523,0,0,0-1.267.535c-.569.511-1.057,1.022-2.882,2.951l-.743-.8c.081-.07,1.906-1.8,2.231-2.1,2.453-2.336,2.929-2.742,3.766-3.44l-5.219.035v-.977Zm.116-.8a19.2,19.2,0,0,0-5.393-.871l.128-.907a21.244,21.244,0,0,1,5.486.8Z" transform="translate(-88.268 -38.341)" fill="#646464"/><path d="M539.931,226.585c-.255.187-.615.477-.905.709-1.488,1.2-1.651,1.325-2.418,1.929a6.194,6.194,0,0,1,2.08-.395,2.788,2.788,0,0,1,3.08,2.917c0,2.278-1.952,3.452-4.125,3.452-1.848,0-3-.826-3-1.929a1.786,1.786,0,0,1,1.964-1.639,2.84,2.84,0,0,1,2.778,2.278,2.239,2.239,0,0,0,1.348-2.138c0-.616-.186-2.069-2.418-2.069-2.057,0-3.568,1.151-5.16,2.662l-.6-.871c.9-.7,3.556-2.836,5.742-4.8-1.976.139-2.662.163-4.557.2v-1c2.465,0,3.418-.012,6.195-.174Zm-3.358,5.893c-.709,0-1.011.453-1.011.768,0,.569.744,1.127,2.046,1.127a3.388,3.388,0,0,0,.906-.1,2,2,0,0,0-1.941-1.79" transform="translate(-90.676 -38.432)" fill="#646464"/><path d="M548.824,230.868a2.536,2.536,0,0,0-.569,1.511,1.467,1.467,0,0,0,.755,1.29,4.792,4.792,0,0,0,2.581.442,34.5,34.5,0,0,0,4.218-.233l.047,1.093c-.709.058-2.069.163-3.871.163-2.1,0-2.917-.209-3.614-.6a2.355,2.355,0,0,1-1.162-2.092,3.477,3.477,0,0,1,.768-2.093Zm6.311-3.649a10.513,10.513,0,0,0-3.847,1.441l-.743-.64a9.832,9.832,0,0,1,1.848-.825c-.465,0-4.416.081-4.591.093v-1.058c2.08.012,6.427.012,7.334,0Z" transform="translate(-93.171 -38.52)" fill="#646464"/><path d="M569.409,229.176c-.942.1-7.218.814-7.218,3.394,0,1.348,1.418,1.476,3.917,1.476a32.415,32.415,0,0,0,3.662-.174l.022,1.093c-.755.046-1.778.116-3.452.116-2.01,0-5.23,0-5.23-2.476,0-1.987,2.394-2.986,3.208-3.336-.384-.755-.407-1.43-.441-3.9h1.138c-.012.314-.023.639-.023,1.208a5.352,5.352,0,0,0,.3,2.348,27.164,27.164,0,0,1,4.009-.86Z" transform="translate(-95.538 -38.372)" fill="#646464"/><path d="M496.242,257.158a6,6,0,0,1,.163.791.721.721,0,0,1-1.441,0,5.945,5.945,0,0,1,.256-1.128c.139-.546.2-.814.4-1.592-.756.72-1.023.964-1.43,1.383-.582.558-.64.627-.942.627a.727.727,0,0,1-.733-.72c0-.547.419-.663.756-.768.627-.186,1.639-.465,2.278-.65-.407-.116-2.186-.616-2.546-.733a.729.729,0,0,1-.489-.685.72.72,0,0,1,.733-.721c.3,0,.36.07.942.628.465.465.941.929,1.43,1.383-.21-.837-.291-1.174-.489-1.929a5.994,5.994,0,0,1-.163-.791.721.721,0,0,1,1.441,0,5.944,5.944,0,0,1-.256,1.128c-.139.546-.2.813-.395,1.592.476-.454.964-.919,1.429-1.383.582-.558.64-.628.942-.628a.72.72,0,0,1,.732.721c0,.546-.418.662-.755.767-.627.186-1.639.465-2.278.651.407.116,2.185.616,2.545.732a.728.728,0,0,1,.488.686.719.719,0,0,1-.732.72c-.3,0-.36-.07-.942-.627-.465-.454-.953-.93-1.429-1.383.209.837.29,1.186.488,1.929" transform="translate(-83.858 -42.83)" fill="#646464"/><path d="M507.951,250.342A19.314,19.314,0,0,1,505,259.164l-1.022-.547a18.013,18.013,0,0,0,2.87-8.438Zm4.742,8.613a26.635,26.635,0,0,0-2.79-8.369l.977-.465a27.306,27.306,0,0,1,2.964,8.555Zm2.464-8.624a1.616,1.616,0,1,1-1.616-1.616,1.612,1.612,0,0,1,1.616,1.616m-2.511,0a.895.895,0,1,0,.9-.9.9.9,0,0,0-.9.9" transform="translate(-85.81 -42.348)" fill="#646464"/><rect width="9.995" height="1.104" transform="translate(430.062 211.713)" fill="#646464"/><path d="M535.951,250.342A19.313,19.313,0,0,1,533,259.164l-1.022-.547a18.013,18.013,0,0,0,2.87-8.438Zm4.742,8.613a26.636,26.636,0,0,0-2.79-8.369l.977-.465a27.308,27.308,0,0,1,2.964,8.555Zm2.464-8.624a1.615,1.615,0,1,1-1.615-1.616,1.612,1.612,0,0,1,1.615,1.616m-2.511,0a.895.895,0,1,0,.9-.9.9.9,0,0,0-.9.9" transform="translate(-90.578 -42.348)" fill="#646464"/><path d="M554.521,250.606a12.534,12.534,0,0,1-2.22,4.777,45.629,45.629,0,0,1,3.952,3.487l-.884.837a41.383,41.383,0,0,0-3.707-3.533,14.391,14.391,0,0,1-4.707,3.579l-.627-.86a12.2,12.2,0,0,0,4.346-3.137,11.963,11.963,0,0,0,2.476-4.161h-6.241v-.988Z" transform="translate(-93.021 -42.67)" fill="#646464"/><path d="M562.228,261.269a16.789,16.789,0,0,0-1.93-2.405l.884-.651a18.329,18.329,0,0,1,2.069,2.337Z" transform="translate(-95.4 -43.965)" fill="#646464"/><path d="M576.515,251.152v7.926h-8.263v-1.011h7.159v-5.9h-7.054v-1.011Z" transform="translate(-96.754 -42.763)" fill="#646464"/><rect width="9.995" height="1.104" transform="translate(482.335 211.713)" fill="#646464"/><path d="M603.1,251.609a12.742,12.742,0,0,1-1.825,3.428,45.435,45.435,0,0,1,3.963,3.5l-.871.849a39.684,39.684,0,0,0-3.72-3.557,13.365,13.365,0,0,1-4.707,3.6l-.616-.86a12.49,12.49,0,0,0,6.822-7.3h-6.241v-.988h6.346Zm.36-2.429a9.8,9.8,0,0,1,1.058,2.244l-.814.418a9.513,9.513,0,0,0-1-2.29Zm1.708-.465a10.488,10.488,0,0,1,1.046,2.254l-.814.407a9.522,9.522,0,0,0-1-2.29Z" transform="translate(-101.364 -42.348)" fill="#646464"/></g></svg>