<svg xmlns="http://www.w3.org/2000/svg" xmlns:xlink="http://www.w3.org/1999/xlink" width="99" height="99" viewBox="0 0 99 99">
  <defs>
    <filter id="パス_2957" x="0" y="0" width="99" height="99" filterUnits="userSpaceOnUse">
      <feOffset dy="3" input="SourceAlpha"/>
      <feGaussianBlur stdDeviation="3" result="blur"/>
      <feFlood flood-opacity="0.161"/>
      <feComposite operator="in" in2="blur"/>
      <feComposite in="SourceGraphic"/>
    </filter>
  </defs>
  <g id="download_bot01" transform="translate(17 1)">
    <g transform="matrix(1, 0, 0, 1, -17, -1)" filter="url(#パス_2957)">
      <path id="パス_2957-2" data-name="パス 2957" d="M40.5,0A40.5,40.5,0,1,1,0,40.5,40.5,40.5,0,0,1,40.5,0Z" transform="translate(9 6)" fill="#1cabd3"/>
    </g>
    <g id="column" transform="translate(0 6)">
      <path id="パス_2958" data-name="パス 2958" d="M-27.576-9.03v-2.229h1.4V-9.1q1.155-.082,2.324-.212v1.319q-1.142.1-2.324.164v2.2a7.238,7.238,0,0,1,2.365-.4q3.281,0,3.281,3.165a2.819,2.819,0,0,1-1.34,2.693,6.254,6.254,0,0,1-2.96.554L-24.944-.9a4,4,0,0,0,2.29-.485,1.815,1.815,0,0,0,.622-1.545,1.807,1.807,0,0,0-.485-1.367,1.74,1.74,0,0,0-1.251-.424,6.832,6.832,0,0,0-2.406.39V-1a1.654,1.654,0,0,1-.369,1.23,1.4,1.4,0,0,1-.984.294,2.632,2.632,0,0,1-1.347-.41,2.461,2.461,0,0,1-1.442-2.085q0-1.921,2.741-3.233V-7.745q-1.6.062-2.529.075V-8.976Q-28.69-8.976-27.576-9.03Zm.034,5.236q-1.5.8-1.5,1.668a1.182,1.182,0,0,0,.8,1.073,1.181,1.181,0,0,0,.479.13q.226,0,.226-.294Zm3.773-5.961.841-1.053a12.186,12.186,0,0,1,3.056,2.365L-20.9-7.308A10.186,10.186,0,0,0-23.769-9.755Zm10.24-1.976q.909.021,1.538.1.226.027.226.137a.776.776,0,0,1-.068.294,3.884,3.884,0,0,0-.1,1.148v.465h2.468l1.914-.027q.116,0,.137.027a.255.255,0,0,1,.021.13l-.027,2.153v2.044L-7.4-2.085a.205.205,0,0,1-.024.126.205.205,0,0,1-.126.024H-8.723q-.116,0-.137-.027a.235.235,0,0,1-.021-.123v-.479h-3.056v.909l.014,2.591q0,.15-.137.15H-13.31q-.137,0-.137-.15l.027-2.577v-.923h-2.953v.533q0,.109-.027.13a.255.255,0,0,1-.13.021h-1.176q-.109,0-.13-.027a.235.235,0,0,1-.021-.123l.027-3.192V-7.041l-.027-2.42q0-.116.027-.137a.255.255,0,0,1,.13-.021l1.914.027h2.365v-.437A10.887,10.887,0,0,0-13.528-11.73Zm1.593,7.9H-8.88V-5.5h-3.056Zm-4.437,0h2.953V-5.5h-2.953ZM-8.88-8.319h-3.056v1.572H-8.88Zm-7.492,0v1.572h2.953V-8.319Zm12.394-2.823h1.552q-.239,8.21-.239,8.7A1.732,1.732,0,0,0-2.215-1.1,1.874,1.874,0,0,0-.93-.725q2.748,0,3.445-3.712l1.429.752Q2.857.67-.875.67A3.464,3.464,0,0,1-3.452-.109a3.365,3.365,0,0,1-.7-2.365q0-.547.068-3.644Q-4.013-9.187-3.979-11.143ZM8.6-2.673a8.5,8.5,0,0,0,2.755-3.1,10.546,10.546,0,0,0,1.066-3.849H11.2L10-9.591q-.123,0-.144-.034a.2.2,0,0,1-.027-.13v-1.094q0-.116.034-.137A.276.276,0,0,1,10-11.006l1.2.034h1.244l1.278-.034q.137,0,.137.157a10.925,10.925,0,0,0,.171,2.058,8.807,8.807,0,0,0,1.442,3.514,8.76,8.76,0,0,0,2.488,2.393,4.814,4.814,0,0,0-.738,1.094q-.164.308-.253.308a.555.555,0,0,1-.308-.185,9.794,9.794,0,0,1-3.4-5.318,9.9,9.9,0,0,1-3.192,5.209.809.809,0,0,1-.308.2q-.068,0-.294-.267A3.38,3.38,0,0,0,8.6-2.673ZM18.122-.882A2.609,2.609,0,0,0,17.746.212q-.055.349-.13.4a.856.856,0,0,1-.39.068q-2.536.144-4.9.144a9.413,9.413,0,0,1-3.274-.4A2.914,2.914,0,0,1,7.677-.827,14.77,14.77,0,0,1,6.234.41a1.457,1.457,0,0,0-.28.273.261.261,0,0,1-.205.144q-.109,0-.2-.185A11.779,11.779,0,0,1,4.977-.67,7.681,7.681,0,0,0,5.8-1.107,8.394,8.394,0,0,0,6.979-2v-3.09H6.3l-1.025.027q-.123,0-.144-.034A.216.216,0,0,1,5.1-5.236v-1.08q0-.109.034-.13a.276.276,0,0,1,.137-.021L6.3-6.439h.9l1.046-.027a.216.216,0,0,1,.137.027.235.235,0,0,1,.021.123L8.367-4.983v2.967A2.332,2.332,0,0,0,9.516-.854a7.98,7.98,0,0,0,2.591.28A60.038,60.038,0,0,0,18.122-.882ZM5.476-10.473a.168.168,0,0,1-.062-.1q0-.048.137-.137l.779-.513a.464.464,0,0,1,.171-.082.211.211,0,0,1,.123.068A10.546,10.546,0,0,1,8.381-9.153a.268.268,0,0,1,.055.116q0,.055-.13.15l-.813.6a.476.476,0,0,1-.178.1q-.055,0-.116-.1A10.394,10.394,0,0,0,5.476-10.473ZM27.419-4.047a6.891,6.891,0,0,0-3.008-.909A24.4,24.4,0,0,1,23.051-1.7,2.4,2.4,0,0,1,20.925-.267a1.52,1.52,0,0,1-1.278-.574,2.3,2.3,0,0,1-.4-1.442A3.647,3.647,0,0,1,20.6-5.188,4.279,4.279,0,0,1,23.331-6.2a19.692,19.692,0,0,0,.731-3.233q-1.825.185-3.589.232l-.014-1.285q1.791-.027,4.354-.239l.9.745q-.731,3.09-.937,3.808a8.9,8.9,0,0,1,2.871.752q.137-1.285.178-3.22l1.456.308a34.611,34.611,0,0,1-.321,3.644,19.409,19.409,0,0,1,1.764,1.36l-.9,1.285a15.713,15.713,0,0,0-1.2-1.135A6.269,6.269,0,0,1,27.33-.725,6.739,6.739,0,0,1,25.279.786l-.9-1.08a5.258,5.258,0,0,0,2.1-1.579A5.614,5.614,0,0,0,27.419-4.047ZM22.982-4.97a2.593,2.593,0,0,0-1.812.875,2.429,2.429,0,0,0-.711,1.716q0,.738.52.738.492,0,.923-.779A15.454,15.454,0,0,0,22.982-4.97Z" transform="translate(33 42.5)" fill="#fff"/>
      <path id="arrow" d="M0,0,8,8,0,16" transform="translate(41 52.768) rotate(90)" fill="none" stroke="#fff" stroke-width="3"/>
    </g>
  </g>
</svg>
